<svg xmlns="http://www.w3.org/2000/svg" xmlns:xlink="http://www.w3.org/1999/xlink" width="261.759" height="251.348" viewBox="0 0 261.759 251.348">
  <defs>
    <radialGradient id="radial-gradient" cx="0.5" cy="0.5" r="0.829" gradientTransform="matrix(-0.585, 0, 0, 0.593, 1.018, 0.287)" gradientUnits="objectBoundingBox">
      <stop offset="0" stop-color="#7c969e"/>
      <stop offset="1" stop-color="#fff" stop-opacity="0"/>
    </radialGradient>
    <linearGradient id="linear-gradient" x1="0.5" x2="0.5" y2="1" gradientUnits="objectBoundingBox">
      <stop offset="0" stop-color="#fff"/>
      <stop offset="1" stop-color="#d2e6ee"/>
    </linearGradient>
    <radialGradient id="radial-gradient-2" cx="0.5" cy="0.5" r="0.829" gradientTransform="matrix(-0.585, 0, 0, 0.593, 4.487, 0.479)" xlink:href="#radial-gradient"/>
    <linearGradient id="linear-gradient-8" x1="-27.552" y1="0.5" x2="-26.552" y2="0.5" xlink:href="#linear-gradient"/>
    <radialGradient id="radial-gradient-3" cx="0.5" cy="0.5" r="0.829" gradientTransform="matrix(-0.585, 0, 0, 0.593, -3.705, 0.2)" xlink:href="#radial-gradient"/>
    <linearGradient id="linear-gradient-9" x1="-13.339" y1="0.5" x2="-12.339" y2="0.5" xlink:href="#linear-gradient"/>
    <linearGradient id="linear-gradient-10" x1="-2.204" y1="0.5" x2="-1.204" y2="0.5" xlink:href="#linear-gradient"/>
    <linearGradient id="linear-gradient-11" x1="-2.973" y1="0.5" x2="-1.973" y2="0.5" xlink:href="#linear-gradient"/>
    <linearGradient id="linear-gradient-12" x1="-4.586" y1="0.5" x2="-3.586" y2="0.5" xlink:href="#linear-gradient"/>
    <radialGradient id="radial-gradient-4" cx="0.5" cy="0.5" r="0.829" gradientTransform="matrix(-0.585, 0, 0, 0.593, -2.268, 0.493)" xlink:href="#radial-gradient"/>
  </defs>
  <g id="Grupo_37717" data-name="Grupo 37717" transform="translate(-461.511 -690.709)">
    <g id="Grupo_37680" data-name="Grupo 37680" transform="translate(461.511 690.709)">
      <path id="Trazado_89080" data-name="Trazado 89080" d="M461.511,888.121c0,38.724,53.712,70.124,119.958,70.124s119.953-31.4,119.953-70.124S647.721,818,581.469,818,461.511,849.4,461.511,888.121Z" transform="translate(-461.511 -706.896)" fill="url(#radial-gradient)" style="mix-blend-mode: multiply;isolation: isolate"/>
      <g id="Grupo_37679" data-name="Grupo 37679" transform="translate(38.726)">
        <g id="Grupo_37678" data-name="Grupo 37678">
          <g id="Grupo_37677" data-name="Grupo 37677">
            <g id="Grupo_37669" data-name="Grupo 37669">
              <path id="Trazado_89081" data-name="Trazado 89081" d="M650.085,690.965l3.836,2.393-3.646,1.684Z" transform="translate(-524.218 -690.742)" fill="#e3f4ff"/>
              <path id="Trazado_89082" data-name="Trazado 89082" d="M510.551,865.778l-3.923-2.441,3.409-2.366Z" transform="translate(-505.974 -712.361)" fill="url(#linear-gradient)"/>
              <g id="Grupo_37668" data-name="Grupo 37668">
                <g id="Grupo_37667" data-name="Grupo 37667">
                  <path id="Trazado_89083" data-name="Trazado 89083" d="M632.278,767.38a5.288,5.288,0,0,1-2.549,4.023l-121.3,70.03c-1.4.812-2.545.329-2.545-1.08v-75.2a5.294,5.294,0,0,1,2.55-4.022l121.3-70.03c1.408-.813,2.549-.333,2.549,1.075Z" transform="translate(-505.879 -690.709)" fill="#fff"/>
                  <path id="Trazado_89084" data-name="Trazado 89084" d="M505.879,775.67v75.2c0,1.409,1.143,1.891,2.545,1.08l65.313-37.705-67.073-40.856A4.4,4.4,0,0,0,505.879,775.67Z" transform="translate(-505.879 -701.223)" fill="url(#linear-gradient)"/>
                  <path id="Trazado_89085" data-name="Trazado 89085" d="M629.842,691.1l-121.3,70.03a5.389,5.389,0,0,0-1.765,1.737l67.073,40.856L629.842,771.4a5.288,5.288,0,0,0,2.549-4.023v-75.2C632.392,690.771,631.25,690.292,629.842,691.1Z" transform="translate(-505.993 -690.709)" fill="url(#linear-gradient)"/>
                  <path id="Trazado_89086" data-name="Trazado 89086" d="M636.721,770.157a5.288,5.288,0,0,1-2.55,4.022l-121.3,70.03c-1.4.813-2.546.331-2.546-1.074v-75.2a5.285,5.285,0,0,1,2.546-4.02l121.3-70.034c1.407-.812,2.55-.33,2.55,1.08Z" transform="translate(-506.445 -691.062)" fill="url(#linear-gradient)"/>
                  <path id="Trazado_89087" data-name="Trazado 89087" d="M633.092,767.833l-117.9,68.07V773.232l117.9-68.069Z" transform="translate(-507.063 -692.547)" fill="#00223d"/>
                  <g id="Grupo_37666" data-name="Grupo 37666" transform="translate(41.747 50.147)">
                    <path id="Trazado_89088" data-name="Trazado 89088" d="M578.682,801.062c0,2.751,1.931,3.866,4.314,2.492a9.54,9.54,0,0,0,4.315-7.474c0-2.751-1.932-3.868-4.315-2.492A9.535,9.535,0,0,0,578.682,801.062Z" transform="translate(-556.884 -753.865)" fill="#37a3a5"/>
                    <g id="Grupo_37665" data-name="Grupo 37665">
                      <path id="Trazado_89089" data-name="Trazado 89089" d="M579.82,752.957c10.347-5.973,19.662-6.172,26.111-1.667l-3.027,5.6c-5.638-4.149-13.895-4.065-23.084,1.242s-17.445,14.755-23.085,25.413l-3.027-2.105C560.158,769.487,569.474,758.931,579.82,752.957Z" transform="translate(-553.708 -748.163)" fill="#37a3a5"/>
                      <path id="Trazado_89090" data-name="Trazado 89090" d="M580.8,766.362c7.77-4.486,14.727-4.43,19.364-.712l-3.046,5.635c-3.8-3.383-9.7-3.567-16.317.251s-12.514,10.814-16.318,18.59l-3.044-2.117C566.075,778.939,573.034,770.846,580.8,766.362Z" transform="translate(-554.691 -750.04)" fill="#37a3a5"/>
                      <path id="Trazado_89091" data-name="Trazado 89091" d="M581.8,779.765c5.2-3,9.794-2.636,12.549.367l-3.128,5.784c-1.84-2.76-5.371-3.312-9.421-.975s-7.581,6.97-9.422,11.856l-3.128-2.173C572,788.437,576.6,782.766,581.8,779.765Z" transform="translate(-555.684 -751.918)" fill="#37a3a5"/>
                    </g>
                  </g>
                  <path id="Trazado_89092" data-name="Trazado 89092" d="M630.876,706.449v60.085L515.192,833.316V835.9l117.9-68.07V705.162Z" transform="translate(-507.063 -692.547)" fill="#e3f4ff"/>
                  <line id="Línea_295" data-name="Línea 295" y2="62.671" transform="translate(126.028 12.615)" fill="#fcef40"/>
                  <path id="Trazado_89093" data-name="Trazado 89093" d="M584.5,737.791a4.292,4.292,0,0,1-2.068,3.263c-1.142.662-2.072.271-2.072-.871a4.31,4.31,0,0,1,2.072-3.27C583.575,736.256,584.5,736.647,584.5,737.791Z" transform="translate(-515.351 -696.544)" fill="#fff"/>
                </g>
              </g>
            </g>
            <g id="Grupo_37676" data-name="Grupo 37676" transform="translate(6.342 81.762)">
              <path id="Trazado_89094" data-name="Trazado 89094" d="M730.2,831.536l3.715,2.18v-4.37Z" transform="translate(-540.748 -790.102)" fill="url(#linear-gradient)"/>
              <path id="Trazado_89095" data-name="Trazado 89095" d="M513.145,871.541v-4.3l5.86.137Z" transform="translate(-513.145 -794.92)" fill="url(#linear-gradient)"/>
              <g id="Grupo_37672" data-name="Grupo 37672" transform="translate(0.002)">
                <path id="Trazado_89096" data-name="Trazado 89096" d="M579.094,900.434a5.277,5.277,0,0,0,4.758-.195l121.3-70.032c1.409-.814,1.561-2.042.345-2.746l-65.129-37.6a5.246,5.246,0,0,0-4.752.2l-121.3,70.024c-1.4.813-1.561,2.046-.338,2.749Z" transform="translate(-513.147 -785.02)" fill="#efefef"/>
                <path id="Trazado_89097" data-name="Trazado 89097" d="M715.414,827.461l-65.129-37.6a5.246,5.246,0,0,0-4.752.2l-54.384,31.389V900.9a5.506,5.506,0,0,0,2.622-.664l121.3-70.032C716.477,829.393,716.63,828.166,715.414,827.461Z" transform="translate(-523.066 -785.02)" fill="#dee4f0"/>
                <path id="Trazado_89098" data-name="Trazado 89098" d="M514.31,864.76c-1.4.813-1.561,2.046-.338,2.749l65.122,37.6a4.234,4.234,0,0,0,2.136.47V826.124Z" transform="translate(-513.147 -789.692)" fill="#dee4f0"/>
                <path id="Trazado_89099" data-name="Trazado 89099" d="M579.094,895.433a5.278,5.278,0,0,0,4.758-.2l121.3-70.03c1.409-.812,1.561-2.039.345-2.749l-65.129-37.6a5.289,5.289,0,0,0-4.752.195l-121.3,70.034c-1.4.813-1.561,2.04-.338,2.748Z" transform="translate(-513.147 -784.384)" fill="url(#linear-gradient)"/>
                <g id="Grupo_37671" data-name="Grupo 37671" transform="translate(15.914 9.187)">
                  <path id="Trazado_89100" data-name="Trazado 89100" d="M670.817,853.835l2.542,1.472c.749.429.654,1.183-.208,1.682l-34.244,19.771a3.255,3.255,0,0,1-2.924.119l-2.542-1.467Z" transform="translate(-544.359 -802.403)" fill="#00223d"/>
                  <path id="Trazado_89101" data-name="Trazado 89101" d="M630.187,873.533,616.8,865.805c-.75-.436-.66-1.191.21-1.692l34.238-19.767a3.234,3.234,0,0,1,2.921-.121l13.387,7.732Z" transform="translate(-542.178 -801.144)" fill="#00223d"/>
                  <g id="Grupo_37670" data-name="Grupo 37670">
                    <path id="Trazado_89102" data-name="Trazado 89102" d="M654.328,804.565l9.755-5.633-6.979-4.022-9.749,5.63Z" transform="translate(-546.129 -794.909)" fill="#00223d"/>
                    <path id="Trazado_89103" data-name="Trazado 89103" d="M657.271,814.412l16.331-9.425-6.972-4.027L650.3,810.389Z" transform="translate(-546.504 -795.679)" fill="#00223d"/>
                    <path id="Trazado_89104" data-name="Trazado 89104" d="M642.775,823.295l10.251-5.922-6.97-4.026-10.251,5.923Z" transform="translate(-544.66 -797.254)" fill="#00223d"/>
                    <path id="Trazado_89105" data-name="Trazado 89105" d="M628.145,831.742l10.251-5.918-6.97-4.027-10.251,5.919Z" transform="translate(-542.799 -798.329)" fill="#00223d"/>
                    <path id="Trazado_89106" data-name="Trazado 89106" d="M613.514,840.186l10.251-5.917-6.97-4.027-10.251,5.924Z" transform="translate(-540.939 -799.403)" fill="#00223d"/>
                    <path id="Trazado_89107" data-name="Trazado 89107" d="M598.883,848.636l10.252-5.922-6.97-4.026-10.252,5.921Z" transform="translate(-539.078 -800.477)" fill="#00223d"/>
                    <path id="Trazado_89108" data-name="Trazado 89108" d="M584.252,857.082l10.257-5.927-6.974-4.021-10.251,5.921Z" transform="translate(-537.218 -801.551)" fill="#00223d"/>
                    <path id="Trazado_89109" data-name="Trazado 89109" d="M569.622,865.528l10.251-5.918-6.965-4.026L562.653,861.5Z" transform="translate(-535.357 -802.625)" fill="#00223d"/>
                    <path id="Trazado_89110" data-name="Trazado 89110" d="M548.827,877.083l15.637-9.027-6.97-4.026-15.637,9.027Z" transform="translate(-532.712 -803.699)" fill="#00223d"/>
                    <path id="Trazado_89111" data-name="Trazado 89111" d="M660.141,824.193l22.885-13.212-6.97-4.026-22.89,13.217Z" transform="translate(-546.868 -796.441)" fill="#00223d"/>
                    <path id="Trazado_89112" data-name="Trazado 89112" d="M645.619,833.644l10.257-5.927-6.974-4.023-10.251,5.917Z" transform="translate(-545.022 -798.57)" fill="#00223d"/>
                    <path id="Trazado_89113" data-name="Trazado 89113" d="M630.993,842.089l10.251-5.921-6.97-4.027-10.255,5.921Z" transform="translate(-543.161 -799.644)" fill="#00223d"/>
                    <path id="Trazado_89114" data-name="Trazado 89114" d="M616.359,850.535l10.255-5.922-6.969-4.021-10.255,5.922Z" transform="translate(-541.301 -800.719)" fill="#00223d"/>
                    <path id="Trazado_89115" data-name="Trazado 89115" d="M601.732,858.982l10.251-5.923-6.968-4.017-10.258,5.917Z" transform="translate(-539.44 -801.793)" fill="#00223d"/>
                    <path id="Trazado_89116" data-name="Trazado 89116" d="M587.1,867.424l10.254-5.917-6.968-4.027L580.127,863.4Z" transform="translate(-537.579 -802.867)" fill="#00223d"/>
                    <path id="Trazado_89117" data-name="Trazado 89117" d="M559.212,882.554l21.806-12.585-6.973-4.026-21.8,12.589Z" transform="translate(-534.033 -803.943)" fill="#00223d"/>
                    <path id="Trazado_89118" data-name="Trazado 89118" d="M612.169,861.788l48.566-28.036-6.974-4.026L605.2,857.761Z" transform="translate(-540.768 -799.337)" fill="#00223d"/>
                    <path id="Trazado_89119" data-name="Trazado 89119" d="M639.832,812.933l9.75-5.63-6.974-4.026-9.75,5.633Z" transform="translate(-544.285 -795.974)" fill="#00223d"/>
                    <path id="Trazado_89120" data-name="Trazado 89120" d="M685.635,822.64l9.75-5.629-6.973-4.026-9.756,5.628Z" transform="translate(-550.109 -797.208)" fill="#00223d"/>
                    <path id="Trazado_89121" data-name="Trazado 89121" d="M671.136,831.008l9.75-5.629-6.969-4.021-9.75,5.628Z" transform="translate(-548.267 -798.273)" fill="#00223d"/>
                    <path id="Trazado_89122" data-name="Trazado 89122" d="M625.332,821.305l9.749-5.633-6.969-4.021-9.75,5.628Z" transform="translate(-542.442 -797.038)" fill="#00223d"/>
                    <path id="Trazado_89123" data-name="Trazado 89123" d="M610.835,829.673l9.751-5.629-6.971-4.027-9.75,5.635Z" transform="translate(-540.598 -798.102)" fill="#00223d"/>
                    <path id="Trazado_89124" data-name="Trazado 89124" d="M596.334,838.041l9.756-5.629-6.971-4.021-9.748,5.628Z" transform="translate(-538.755 -799.167)" fill="#00223d"/>
                    <path id="Trazado_89125" data-name="Trazado 89125" d="M581.842,846.414l9.75-5.629-6.971-4.026-9.754,5.629Z" transform="translate(-536.91 -800.231)" fill="#00223d"/>
                    <path id="Trazado_89126" data-name="Trazado 89126" d="M567.342,854.781l9.755-5.627-6.974-4.028-9.75,5.633Z" transform="translate(-535.067 -801.295)" fill="#00223d"/>
                    <path id="Trazado_89127" data-name="Trazado 89127" d="M552.847,863.154l9.754-5.629-6.969-4.027-9.755,5.635Z" transform="translate(-533.223 -802.36)" fill="#00223d"/>
                    <path id="Trazado_89128" data-name="Trazado 89128" d="M538.351,871.521l9.75-5.629-6.971-4.026-9.75,5.629Z" transform="translate(-531.38 -803.424)" fill="#00223d"/>
                    <path id="Trazado_89129" data-name="Trazado 89129" d="M583.622,881.535l9.75-5.628-6.97-4.022-9.75,5.625Z" transform="translate(-537.137 -804.698)" fill="#00223d"/>
                    <path id="Trazado_89130" data-name="Trazado 89130" d="M569.654,889.6l9.755-5.63-6.971-4.027-9.754,5.634Z" transform="translate(-535.361 -805.723)" fill="#00223d"/>
                  </g>
                </g>
              </g>
              <g id="Grupo_37673" data-name="Grupo 37673" transform="translate(55.702 106.233)">
                <path id="Trazado_89131" data-name="Trazado 89131" d="M576.963,906.095l7.281,4.192v2.429l-7.281-4.234Z" transform="translate(-576.963 -906.095)" fill="#21587b"/>
                <path id="Trazado_89132" data-name="Trazado 89132" d="M578.984,907.428l5.26,3.028v2.429l-7.281-4.234Z" transform="translate(-576.963 -906.264)" fill="#00223d"/>
              </g>
              <g id="Grupo_37674" data-name="Grupo 37674" transform="translate(2.93 75.699)">
                <path id="Trazado_89133" data-name="Trazado 89133" d="M516.5,871.113l7.28,4.193v2.431l-7.28-4.226Z" transform="translate(-516.502 -871.113)" fill="#21587b"/>
                <path id="Trazado_89134" data-name="Trazado 89134" d="M518.524,872.448l5.258,3.028v2.431l-7.28-4.226Z" transform="translate(-516.502 -871.282)" fill="#00223d"/>
              </g>
              <g id="Grupo_37675" data-name="Grupo 37675" transform="translate(11.425 80.593)">
                <path id="Trazado_89135" data-name="Trazado 89135" d="M526.234,876.719l7.277,4.194v2.424l-7.277-4.226Z" transform="translate(-526.234 -876.719)" fill="#21587b"/>
                <path id="Trazado_89136" data-name="Trazado 89136" d="M528.252,878.054l5.259,3.028v2.424l-7.277-4.226Z" transform="translate(-526.234 -876.889)" fill="#00223d"/>
              </g>
            </g>
          </g>
        </g>
      </g>
    </g>
    <g id="Grupo_37690" data-name="Grupo 37690" transform="translate(499.235 777.147)">
      <path id="Trazado_89137" data-name="Trazado 89137" d="M504.731,881.84c0,9.7,13.452,17.566,30.049,17.566s30.045-7.864,30.045-17.566-13.452-17.565-30.045-17.565S504.731,872.138,504.731,881.84Z" transform="translate(-504.731 -799.22)" fill="url(#radial-gradient-2)" style="mix-blend-mode: multiply;isolation: isolate"/>
      <g id="Grupo_37689" data-name="Grupo 37689" transform="translate(15.007)">
        <g id="Grupo_37686" data-name="Grupo 37686">
          <g id="Grupo_37685" data-name="Grupo 37685">
            <g id="Grupo_37684" data-name="Grupo 37684">
              <path id="Trazado_89138" data-name="Trazado 89138" d="M557.9,792.121l-3.067-2.108h0a1.6,1.6,0,0,0-1.87.058L524.347,806.6a5.356,5.356,0,0,0-2.423,4.193v60.72a1.782,1.782,0,0,0,.6,1.491h0l3.422,2.332-.26-3.189,27.289-15.755a5.36,5.36,0,0,0,2.421-4.2V794.426Z" transform="translate(-521.924 -789.741)" fill="#dee4f0"/>
              <path id="Trazado_89139" data-name="Trazado 89139" d="M559.2,854.793a5.35,5.35,0,0,1-2.42,4.194l-28.62,16.523c-1.337.773-2.423.148-2.423-1.4V813.391a5.355,5.355,0,0,1,2.423-4.194l28.62-16.524c1.337-.772,2.42-.146,2.42,1.4Z" transform="translate(-522.41 -790.072)" fill="url(#linear-gradient-8)"/>
              <ellipse id="Elipse_3651" data-name="Elipse 3651" cx="0.742" cy="1.142" rx="0.742" ry="1.142" transform="translate(7.076 19.809)" fill="#00223d"/>
              <path id="Trazado_89140" data-name="Trazado 89140" d="M535.088,811.721c0,.425-.223.771-.5.771s-.5-.346-.5-.771.226-.771.5-.771S535.088,811.3,535.088,811.721Z" transform="translate(-523.471 -792.438)" fill="#00223d"/>
              <g id="Grupo_37681" data-name="Grupo 37681" transform="translate(0.476 30.779)">
                <path id="Trazado_89141" data-name="Trazado 89141" d="M524.206,832.431a.574.574,0,0,1-.847.562l.106-.134a1.632,1.632,0,0,1-.745-1.287l-.2-5.966a.624.624,0,0,1,.946-.515h0a1.635,1.635,0,0,1,.741,1.285Z" transform="translate(-522.475 -825.004)" fill="#21587b"/>
                <path id="Trazado_89142" data-name="Trazado 89142" d="M523.953,832.624c0,.472-.332.666-.742.428h0a1.636,1.636,0,0,1-.742-1.285v-6.054c0-.474.332-.666.742-.429h0a1.641,1.641,0,0,1,.742,1.286Z" transform="translate(-522.469 -825.027)" fill="#00223d"/>
              </g>
              <g id="Grupo_37682" data-name="Grupo 37682" transform="translate(0.476 38.92)">
                <path id="Trazado_89143" data-name="Trazado 89143" d="M524.209,841.759c0,.474-.424.824-.835.588l.094-.161a1.629,1.629,0,0,1-.745-1.283l-.183-5.976a.607.607,0,0,1,.928-.508h0a1.639,1.639,0,0,1,.741,1.287Z" transform="translate(-522.478 -834.331)" fill="#21587b"/>
                <path id="Trazado_89144" data-name="Trazado 89144" d="M523.953,841.954c0,.474-.332.664-.742.429h0a1.649,1.649,0,0,1-.742-1.287v-6.053c0-.477.332-.666.742-.43h0a1.643,1.643,0,0,1,.742,1.287Z" transform="translate(-522.469 -834.354)" fill="#00223d"/>
              </g>
              <g id="Grupo_37683" data-name="Grupo 37683" transform="translate(0.476 71.198)">
                <path id="Trazado_89145" data-name="Trazado 89145" d="M524.209,878.74c0,.473-.424.824-.835.586l.094-.157a1.637,1.637,0,0,1-.745-1.286l-.183-5.975a.607.607,0,0,1,.928-.508h0a1.639,1.639,0,0,1,.741,1.284Z" transform="translate(-522.478 -871.312)" fill="#21587b"/>
                <path id="Trazado_89146" data-name="Trazado 89146" d="M523.953,878.936c0,.47-.332.663-.742.428h0a1.646,1.646,0,0,1-.742-1.288v-6.053c0-.474.332-.664.742-.429h0a1.641,1.641,0,0,1,.742,1.287Z" transform="translate(-522.469 -871.335)" fill="#00223d"/>
              </g>
              <path id="Trazado_89147" data-name="Trazado 89147" d="M528.654,809.779a1.8,1.8,0,0,1-1.623,0,.494.494,0,0,1,0-.937,1.79,1.79,0,0,1,1.623,0A.494.494,0,0,1,528.654,809.779Z" transform="translate(-522.531 -792.146)" fill="#00223d"/>
              <path id="Trazado_89148" data-name="Trazado 89148" d="M533.99,806.633a1.8,1.8,0,0,1-1.623,0,.493.493,0,0,1,0-.936,1.8,1.8,0,0,1,1.623,0A.494.494,0,0,1,533.99,806.633Z" transform="translate(-523.209 -791.746)" fill="#00223d"/>
            </g>
          </g>
          <path id="Trazado_89149" data-name="Trazado 89149" d="M557.642,849.119l-29.8,17.209V816.757l29.8-17.209Z" transform="translate(-522.676 -790.988)" fill="#00223d"/>
        </g>
        <g id="Grupo_37688" data-name="Grupo 37688" transform="translate(9.036 31.934)">
          <path id="Trazado_89150" data-name="Trazado 89150" d="M543.332,849.746c0,1.218.856,1.712,1.911,1.1a4.219,4.219,0,0,0,1.909-3.309c0-1.217-.854-1.71-1.909-1.1A4.219,4.219,0,0,0,543.332,849.746Z" transform="translate(-533.683 -828.853)" fill="#37a3a5"/>
          <g id="Grupo_37687" data-name="Grupo 37687">
            <path id="Trazado_89151" data-name="Trazado 89151" d="M543.838,828.451c4.58-2.645,8.7-2.732,11.56-.738l-1.342,2.48c-2.5-1.836-6.152-1.8-10.218.549a28.409,28.409,0,0,0-10.22,11.25l-1.341-.93C535.133,835.769,539.258,831.1,543.838,828.451Z" transform="translate(-532.277 -826.328)" fill="#37a3a5"/>
            <path id="Trazado_89152" data-name="Trazado 89152" d="M544.273,834.384c3.438-1.987,6.518-1.96,8.571-.313l-1.349,2.494c-1.685-1.5-4.3-1.581-7.223.113a19.476,19.476,0,0,0-7.224,8.227l-1.349-.937A23.517,23.517,0,0,1,544.273,834.384Z" transform="translate(-532.712 -827.159)" fill="#37a3a5"/>
            <path id="Trazado_89153" data-name="Trazado 89153" d="M544.712,840.316c2.3-1.326,4.334-1.166,5.556.165l-1.386,2.56c-.814-1.222-2.378-1.466-4.17-.432a10.484,10.484,0,0,0-4.172,5.248l-1.385-.962A14.574,14.574,0,0,1,544.712,840.316Z" transform="translate(-533.152 -827.991)" fill="#37a3a5"/>
          </g>
        </g>
        <path id="Trazado_89154" data-name="Trazado 89154" d="M549.2,802.033a2.435,2.435,0,0,1-1.1,1.9l-8.569,4.946c-.606.351-1.1.067-1.1-.635h0a2.436,2.436,0,0,1,1.1-1.9L548.1,801.4c.606-.35,1.1-.066,1.1.635Z" transform="translate(-524.024 -791.204)" fill="#00223d"/>
      </g>
    </g>
    <g id="Grupo_37696" data-name="Grupo 37696" transform="translate(640.831 718.696)">
      <path id="Trazado_89155" data-name="Trazado 89155" d="M679.967,817.906c0,9.7,13.453,17.567,30.048,17.567s30.046-7.865,30.046-17.567-13.452-17.565-30.046-17.565S679.967,808.205,679.967,817.906Z" transform="translate(-668.612 -732.638)" fill="url(#radial-gradient-3)" style="mix-blend-mode: multiply;isolation: isolate"/>
      <g id="Grupo_37695" data-name="Grupo 37695">
        <g id="Grupo_37692" data-name="Grupo 37692">
          <path id="Trazado_89156" data-name="Trazado 89156" d="M720.767,804.288c0,4.238-4.327,8.365-8,6.247s-6.925-8.58-6.925-12.819a5.593,5.593,0,0,1,8.274-4.94A14.689,14.689,0,0,1,720.767,804.288Z" transform="translate(-671.903 -731.584)" fill="#00223d"/>
          <g id="Grupo_37691" data-name="Grupo 37691">
            <path id="Trazado_89157" data-name="Trazado 89157" d="M709.174,730.161c-15.936-9.2-30.287-9.51-40.221-2.57l-2,2.076c8.452-1.4,28.061.291,42.216,8.464s29.543,21.561,38.229,37.98l1.994-2.075C739.462,755.625,725.113,739.36,709.174,730.161Z" transform="translate(-666.958 -722.774)" fill="#00223d"/>
            <path id="Trazado_89158" data-name="Trazado 89158" d="M710.689,750.807c-11.968-6.909-22.687-6.822-29.826-1.093l-1.994,2.075c6.784-1.827,21.636,1.109,31.821,6.991s21.971,15.473,27.832,27.45l1.994-2.076C733.377,770.184,722.657,757.717,710.689,750.807Z" transform="translate(-668.473 -725.666)" fill="#00223d"/>
            <path id="Trazado_89159" data-name="Trazado 89159" d="M712.218,771.453c-8-4.619-15.085-4.058-19.33.568l-2,2.075c3.16-.831,15.089,1.732,21.326,5.331s13.666,12.181,17.337,16.991l1.994-2.076C727.3,784.813,720.223,776.078,712.218,771.453Z" transform="translate(-670.002 -728.558)" fill="#00223d"/>
          </g>
        </g>
        <g id="Grupo_37694" data-name="Grupo 37694" transform="translate(0 2.076)">
          <path id="Trazado_89160" data-name="Trazado 89160" d="M718.719,806.637c0,4.238-2.976,5.956-6.647,3.837a14.694,14.694,0,0,1-6.647-11.513c0-4.238,2.976-5.956,6.647-3.837A14.694,14.694,0,0,1,718.719,806.637Z" transform="translate(-671.85 -733.936)" fill="url(#linear-gradient-9)"/>
          <g id="Grupo_37693" data-name="Grupo 37693">
            <path id="Trazado_89161" data-name="Trazado 89161" d="M707.181,732.537c-15.938-9.2-30.287-9.507-40.223-2.567l4.664,8.626c8.684-6.391,21.4-6.26,35.559,1.911s26.874,22.728,35.558,39.148l4.664-3.242C737.466,758,723.118,741.738,707.181,732.537Z" transform="translate(-666.958 -725.153)" fill="url(#linear-gradient-10)"/>
            <path id="Trazado_89162" data-name="Trazado 89162" d="M708.7,753.184c-11.968-6.91-22.687-6.821-29.827-1.093l4.691,8.679c5.862-5.212,14.95-5.494,25.137.388s19.274,16.658,25.135,28.636l4.691-3.26C731.383,772.561,720.662,760.093,708.7,753.184Z" transform="translate(-668.473 -728.044)" fill="url(#linear-gradient-11)"/>
            <path id="Trazado_89163" data-name="Trazado 89163" d="M710.224,773.832c-8.006-4.622-15.085-4.06-19.332.567l4.817,8.91c2.835-4.252,8.276-5.1,14.515-1.5s11.678,10.737,14.514,18.265l4.816-3.35C725.308,787.191,718.229,778.455,710.224,773.832Z" transform="translate(-670.002 -730.937)" fill="url(#linear-gradient-12)"/>
          </g>
        </g>
      </g>
    </g>
    <g id="Grupo_37714" data-name="Grupo 37714" transform="translate(636.103 805.522)">
      <path id="Trazado_89164" data-name="Trazado 89164" d="M661.541,910.557c0,13.55,18.79,24.535,41.971,24.535s41.968-10.985,41.968-24.535-18.789-24.533-41.968-24.533S661.541,897.007,661.541,910.557Z" transform="translate(-661.541 -830.36)" fill="url(#radial-gradient-4)" style="mix-blend-mode: multiply;isolation: isolate"/>
      <g id="Grupo_37713" data-name="Grupo 37713" transform="translate(7.89)">
        <g id="Grupo_37699" data-name="Grupo 37699" transform="translate(3.537 16.709)">
          <g id="Grupo_37697" data-name="Grupo 37697" transform="translate(0 25.968)">
            <path id="Trazado_89165" data-name="Trazado 89165" d="M678.468,871.914v15.365c0,.37-.858.672-1.918.672s-1.918-.3-1.918-.672V871.914Z" transform="translate(-674.633 -871.243)" fill="url(#linear-gradient)"/>
            <path id="Trazado_89166" data-name="Trazado 89166" d="M674.633,871.816c0,.372.858.673,1.918.673s1.918-.3,1.918-.673-.858-.671-1.918-.671S674.633,871.445,674.633,871.816Z" transform="translate(-674.633 -871.145)" fill="#00223d"/>
          </g>
          <g id="Grupo_37698" data-name="Grupo 37698" transform="translate(0.507)">
            <path id="Trazado_89167" data-name="Trazado 89167" d="M678.034,841.959V867.94c0,.272-.63.494-1.41.494s-1.411-.222-1.411-.494V841.959Z" transform="translate(-675.214 -841.466)" fill="url(#linear-gradient)"/>
            <path id="Trazado_89168" data-name="Trazado 89168" d="M675.214,841.887c0,.274.632.494,1.411.494s1.41-.22,1.41-.494-.63-.493-1.41-.493S675.214,841.614,675.214,841.887Z" transform="translate(-675.214 -841.394)" fill="#00223d"/>
          </g>
        </g>
        <g id="Grupo_37702" data-name="Grupo 37702" transform="translate(33.571)">
          <g id="Grupo_37700" data-name="Grupo 37700" transform="translate(0 25.969)">
            <path id="Trazado_89169" data-name="Trazado 89169" d="M712.881,852.774v15.363c0,.372-.859.672-1.918.672s-1.919-.3-1.919-.672V852.774Z" transform="translate(-709.043 -852.101)" fill="url(#linear-gradient)"/>
            <path id="Trazado_89170" data-name="Trazado 89170" d="M709.043,852.676c0,.37.86.67,1.919.67s1.918-.3,1.918-.67-.859-.673-1.918-.673S709.043,852.3,709.043,852.676Z" transform="translate(-709.043 -852.003)" fill="#00223d"/>
          </g>
          <g id="Grupo_37701" data-name="Grupo 37701" transform="translate(0.508)">
            <path id="Trazado_89171" data-name="Trazado 89171" d="M712.447,822.817V848.8c0,.273-.631.494-1.41.494s-1.411-.221-1.411-.494V822.817Z" transform="translate(-709.625 -822.322)" fill="url(#linear-gradient)"/>
            <path id="Trazado_89172" data-name="Trazado 89172" d="M709.625,822.745c0,.273.633.494,1.411.494s1.41-.221,1.41-.494-.631-.495-1.41-.495S709.625,822.473,709.625,822.745Z" transform="translate(-709.625 -822.25)" fill="#00223d"/>
          </g>
        </g>
        <g id="Grupo_37712" data-name="Grupo 37712" transform="translate(0 35.8)">
          <g id="Grupo_37703" data-name="Grupo 37703">
            <path id="Trazado_89173" data-name="Trazado 89173" d="M707.941,915.213l41.482-23.952V884.82L707.941,908.77Z" transform="translate(-675.332 -866.007)" fill="url(#linear-gradient)"/>
            <path id="Trazado_89174" data-name="Trazado 89174" d="M670.62,890.714l32.574,18.806v6.442L670.62,897.155Z" transform="translate(-670.586 -866.757)" fill="#dee4f0"/>
            <path id="Trazado_89175" data-name="Trazado 89175" d="M703.181,906.042l41.491-23.954-32.6-18.822-41.493,23.955Z" transform="translate(-670.581 -863.266)" fill="url(#linear-gradient)"/>
          </g>
          <g id="Grupo_37704" data-name="Grupo 37704" transform="translate(33.812 21.158)">
            <path id="Trazado_89176" data-name="Trazado 89176" d="M740.484,895.04l11.874-6.856v-.679l-11.874,6.855Z" transform="translate(-713.283 -887.506)" fill="#00223d"/>
            <path id="Trazado_89177" data-name="Trazado 89177" d="M740.484,896.452l11.874-6.857v-.679l-11.874,6.855Z" transform="translate(-713.283 -887.685)" fill="#00223d"/>
            <path id="Trazado_89178" data-name="Trazado 89178" d="M740.484,897.863l11.874-6.856v-.678l-11.874,6.855Z" transform="translate(-713.283 -887.865)" fill="#00223d"/>
            <path id="Trazado_89179" data-name="Trazado 89179" d="M724.9,904.038l11.874-6.856V896.5L724.9,903.359Z" transform="translate(-711.301 -888.65)" fill="#00223d"/>
            <path id="Trazado_89180" data-name="Trazado 89180" d="M724.9,905.448l11.874-6.854v-.679L724.9,904.77Z" transform="translate(-711.301 -888.83)" fill="#00223d"/>
            <path id="Trazado_89181" data-name="Trazado 89181" d="M724.9,906.859,736.775,900v-.679L724.9,906.179Z" transform="translate(-711.301 -889.009)" fill="#00223d"/>
            <path id="Trazado_89182" data-name="Trazado 89182" d="M709.319,913.034l11.873-6.854V905.5l-11.873,6.854Z" transform="translate(-709.319 -889.795)" fill="#00223d"/>
            <path id="Trazado_89183" data-name="Trazado 89183" d="M709.319,914.445l11.873-6.854v-.679l-11.873,6.854Z" transform="translate(-709.319 -889.974)" fill="#00223d"/>
            <path id="Trazado_89184" data-name="Trazado 89184" d="M709.319,915.857,721.192,909v-.679l-11.873,6.856Z" transform="translate(-709.319 -890.153)" fill="#00223d"/>
          </g>
          <path id="Trazado_89185" data-name="Trazado 89185" d="M695.935,909.921l4.942,2.854V910.51l-4.942-2.854Z" transform="translate(-673.805 -868.911)" fill="#21587b"/>
          <path id="Trazado_89186" data-name="Trazado 89186" d="M695.935,910.095l4.942,2.854v-2.265L698,909.021Z" transform="translate(-673.805 -869.085)" fill="#00223d"/>
          <path id="Trazado_89187" data-name="Trazado 89187" d="M687.143,905.086l4.944,2.853v-2.265l-4.944-2.853Z" transform="translate(-672.687 -868.296)" fill="#21587b"/>
          <path id="Trazado_89188" data-name="Trazado 89188" d="M687.143,905.26l4.944,2.853v-2.265l-2.878-1.661Z" transform="translate(-672.687 -868.47)" fill="#00223d"/>
          <g id="Grupo_37711" data-name="Grupo 37711" transform="translate(6.21 3.256)">
            <g id="Grupo_37707" data-name="Grupo 37707">
              <g id="Grupo_37705" data-name="Grupo 37705" transform="translate(19.354)">
                <path id="Trazado_89189" data-name="Trazado 89189" d="M700.533,877.116l16.863-9.735-.665-.384-16.862,9.736Z" transform="translate(-699.869 -866.996)" fill="#00223d"/>
                <path id="Trazado_89190" data-name="Trazado 89190" d="M701.868,877.885l16.861-9.734-.666-.384L701.2,877.5Z" transform="translate(-700.039 -867.094)" fill="#00223d"/>
                <path id="Trazado_89191" data-name="Trazado 89191" d="M703.2,878.655l16.861-9.736-.665-.384-16.862,9.736Z" transform="translate(-700.208 -867.192)" fill="#00223d"/>
                <path id="Trazado_89192" data-name="Trazado 89192" d="M704.529,879.424l16.863-9.737-.664-.384-16.863,9.737Z" transform="translate(-700.377 -867.29)" fill="#00223d"/>
                <path id="Trazado_89193" data-name="Trazado 89193" d="M705.863,880.193l16.863-9.737-.667-.384L705.2,879.809Z" transform="translate(-700.547 -867.388)" fill="#00223d"/>
              </g>
              <g id="Grupo_37706" data-name="Grupo 37706" transform="translate(0 11.174)">
                <path id="Trazado_89194" data-name="Trazado 89194" d="M678.36,889.917l16.862-9.734-.664-.385L677.7,889.534Z" transform="translate(-677.695 -879.798)" fill="#00223d"/>
                <path id="Trazado_89195" data-name="Trazado 89195" d="M679.692,890.687l16.862-9.735-.665-.385L679.027,890.3Z" transform="translate(-677.865 -879.896)" fill="#00223d"/>
                <path id="Trazado_89196" data-name="Trazado 89196" d="M681.024,891.456l16.863-9.734-.665-.384-16.863,9.734Z" transform="translate(-678.034 -879.994)" fill="#00223d"/>
                <path id="Trazado_89197" data-name="Trazado 89197" d="M682.357,892.226l16.862-9.736-.665-.384-16.862,9.736Z" transform="translate(-678.204 -880.092)" fill="#00223d"/>
                <path id="Trazado_89198" data-name="Trazado 89198" d="M683.69,892.995l16.861-9.734-.664-.385-16.862,9.736Z" transform="translate(-678.373 -880.189)" fill="#00223d"/>
              </g>
            </g>
            <g id="Grupo_37710" data-name="Grupo 37710" transform="translate(7.093 4.096)">
              <g id="Grupo_37708" data-name="Grupo 37708" transform="translate(19.353)">
                <path id="Trazado_89199" data-name="Trazado 89199" d="M708.658,881.806l16.863-9.734-.664-.384-16.863,9.736Z" transform="translate(-707.994 -871.689)" fill="#00223d"/>
                <path id="Trazado_89200" data-name="Trazado 89200" d="M709.992,882.577l16.862-9.736-.665-.384-16.862,9.736Z" transform="translate(-708.164 -871.786)" fill="#00223d"/>
                <path id="Trazado_89201" data-name="Trazado 89201" d="M711.322,883.345l16.862-9.735-.663-.384-16.863,9.734Z" transform="translate(-708.333 -871.884)" fill="#00223d"/>
                <path id="Trazado_89202" data-name="Trazado 89202" d="M712.656,884.115l16.862-9.736-.666-.384-16.862,9.736Z" transform="translate(-708.502 -871.982)" fill="#00223d"/>
                <path id="Trazado_89203" data-name="Trazado 89203" d="M713.988,884.883l16.861-9.734-.664-.384L713.324,884.5Z" transform="translate(-708.672 -872.08)" fill="#00223d"/>
              </g>
              <g id="Grupo_37709" data-name="Grupo 37709" transform="translate(0 11.174)">
                <path id="Trazado_89204" data-name="Trazado 89204" d="M686.485,894.61l16.862-9.736-.664-.384-16.862,9.736Z" transform="translate(-685.821 -884.49)" fill="#00223d"/>
                <path id="Trazado_89205" data-name="Trazado 89205" d="M687.817,895.377l16.863-9.735-.666-.384-16.861,9.735Z" transform="translate(-685.991 -884.588)" fill="#00223d"/>
                <path id="Trazado_89206" data-name="Trazado 89206" d="M689.149,896.148l16.862-9.736-.664-.384-16.862,9.736Z" transform="translate(-686.16 -884.686)" fill="#00223d"/>
                <path id="Trazado_89207" data-name="Trazado 89207" d="M690.483,896.916l16.861-9.734-.665-.385-16.862,9.736Z" transform="translate(-686.33 -884.784)" fill="#00223d"/>
                <path id="Trazado_89208" data-name="Trazado 89208" d="M691.815,897.686l16.861-9.735-.665-.385L691.15,897.3Z" transform="translate(-686.499 -884.882)" fill="#00223d"/>
              </g>
            </g>
          </g>
        </g>
      </g>
    </g>
    <g id="Grupo_37716" data-name="Grupo 37716" transform="translate(652.243 827.681)">
      <path id="Trazado_89209" data-name="Trazado 89209" d="M691.386,871.688c0,1.251.878,1.758,1.962,1.133a4.34,4.34,0,0,0,1.961-3.4c0-1.252-.879-1.759-1.961-1.133A4.336,4.336,0,0,0,691.386,871.688Z" transform="translate(-681.477 -850.23)" fill="#37a3a5"/>
      <g id="Grupo_37715" data-name="Grupo 37715">
        <path id="Trazado_89210" data-name="Trazado 89210" d="M691.9,849.817c4.7-2.715,8.938-2.806,11.87-.757l-1.377,2.545c-2.563-1.885-6.317-1.847-10.493.565s-7.932,6.709-10.5,11.554l-1.375-.957C682.965,857.333,687.2,852.533,691.9,849.817Z" transform="translate(-680.033 -847.638)" fill="#37a3a5"/>
        <path id="Trazado_89211" data-name="Trazado 89211" d="M692.351,855.911c3.531-2.039,6.695-2.014,8.8-.322l-1.384,2.562c-1.729-1.539-4.412-1.623-7.417.113a20.016,20.016,0,0,0-7.419,8.452l-1.384-.962A24.133,24.133,0,0,1,692.351,855.911Z" transform="translate(-680.48 -848.492)" fill="#37a3a5"/>
        <path id="Trazado_89212" data-name="Trazado 89212" d="M692.8,862.006c2.362-1.363,4.451-1.2,5.7.168l-1.422,2.63c-.837-1.255-2.442-1.507-4.283-.444a10.764,10.764,0,0,0-4.285,5.391l-1.422-.989A14.928,14.928,0,0,1,692.8,862.006Z" transform="translate(-680.931 -849.345)" fill="#37a3a5"/>
      </g>
    </g>
  </g>
</svg>
