<?xml version="1.0" encoding="UTF-8" standalone="no"?><!DOCTYPE svg PUBLIC "-//W3C//DTD SVG 1.1//EN" "http://www.w3.org/Graphics/SVG/1.1/DTD/svg11.dtd"><svg width="100%" height="100%" viewBox="0 0 238 235" version="1.1" xmlns="http://www.w3.org/2000/svg" xmlns:xlink="http://www.w3.org/1999/xlink" xml:space="preserve" xmlns:serif="http://www.serif.com/" style="fill-rule:evenodd;clip-rule:evenodd;stroke-linejoin:round;stroke-miterlimit:2;"><rect id="Mesa-de-trabajo1" serif:id="Mesa de trabajo1" x="0" y="0" width="237.83" height="234.982" style="fill:none;"/><clipPath id="_clip1"><rect x="0" y="0" width="237.83" height="234.982"/></clipPath><g clip-path="url(#_clip1)"><g id="Grupo_39008"><g id="Grupo_39007"><g id="Grupo_33052"><g id="Grupo_33046"><path id="Trazado_81271" d="M89.698,128.741l-83.728,-48.338l66.533,-38.413l83.727,48.334l-66.532,38.417Z" style="fill:url(#_Linear2);fill-rule:nonzero;"/><path id="Trazado_81272" d="M156.23,142.177l-0,-51.852l-66.533,38.413l-0,51.852l66.533,-38.413Z" style="fill:url(#_Linear3);fill-rule:nonzero;"/><path id="Trazado_81273" d="M5.97,80.403l-0,51.852l83.728,48.334l-0,-51.852l-83.728,-48.334Z" style="fill:url(#_Linear4);fill-rule:nonzero;"/></g><g id="Grupo_33051"><g id="Grupo_33047"><path id="Trazado_81274" d="M57.453,68.276l-36.246,20.927l-0,11.218l10.757,6.211l-0,-11.219l36.247,-20.931l-10.758,-6.206Z" style="fill:#fff;fill-rule:nonzero;"/><path id="Trazado_81275" d="M80.479,81.563l-36.246,20.927l-0,11.218l10.757,6.211l-0,-11.219l36.246,-20.927l-10.757,-6.21Z" style="fill:#fff;fill-rule:nonzero;"/><path id="Trazado_81276" d="M103.529,94.868l-36.246,20.927l-0,11.218l10.757,6.211l-0,-11.218l36.246,-20.927l-10.757,-6.211Z" style="fill:#fff;fill-rule:nonzero;"/></g><g id="Grupo_33048"><path id="Trazado_81277" d="M57.453,68.276l-0,4.519l6.912,3.912l3.846,-2.22l-10.758,-6.211Z" style="fill:#00223d;fill-rule:nonzero;"/><path id="Trazado_81278" d="M25.106,98.102l-3.9,2.319l10.757,6.211l-0,-4.669l-6.857,-3.861Z" style="fill:#00223d;fill-rule:nonzero;"/><path id="Trazado_81279" d="M57.453,68.276l-36.246,20.927l-0,11.218l3.9,-2.319l-0,-6.62l32.366,-18.686l-0.02,-4.52Z" style="fill:#21587b;fill-rule:nonzero;"/></g><g id="Grupo_33049"><path id="Trazado_81280" d="M80.478,81.563l-0,4.519l6.912,3.912l3.846,-2.22l-10.758,-6.211Z" style="fill:#00223d;fill-rule:nonzero;"/><path id="Trazado_81281" d="M48.131,111.389l-3.9,2.319l10.757,6.211l-0,-4.669l-6.857,-3.861Z" style="fill:#00223d;fill-rule:nonzero;"/><path id="Trazado_81282" d="M80.479,81.563l-36.246,20.927l-0,11.218l3.9,-2.319l-0,-6.621l32.366,-18.687l-0.02,-4.518Z" style="fill:#21587b;fill-rule:nonzero;"/></g><g id="Grupo_33050"><path id="Trazado_81283" d="M103.529,94.868l-0,4.52l6.911,3.912l3.846,-2.22l-10.757,-6.212Z" style="fill:#00223d;fill-rule:nonzero;"/><path id="Trazado_81284" d="M71.181,124.694l-3.9,2.319l10.757,6.211l-0,-4.669l-6.857,-3.861Z" style="fill:#00223d;fill-rule:nonzero;"/><path id="Trazado_81285" d="M103.529,94.868l-36.246,20.927l-0,11.218l3.9,-2.319l-0,-6.621l32.364,-18.685l-0.018,-4.52Z" style="fill:#21587b;fill-rule:nonzero;"/></g></g></g><g id="Grupo_33060"><g id="Grupo_33059"><clipPath id="_clip5"><path d="M-11.27,16.605l-67.731,119.831c-9.852,17.431 -4.584,39.781 12.015,50.978l103.742,69.98c8.877,5.987 19.856,8.017 30.287,5.6l140.7,-32.591c17.409,-4.033 29.85,-19.656 29.881,-37.526l0.206,-118.26c0.031,-18.072 -12.638,-33.862 -30.287,-37.75l-176.92,-38.961c-16.51,-3.635 -33.575,3.982 -41.893,18.699Z"/></clipPath><g clip-path="url(#_clip5)"><g id="Grupo_33058"><g id="Grupo_33054"><g id="Grupo_33053"><path id="Trazado_81286" d="M143.899,184.736l43.647,-25.2l-0,-19.356l-43.647,25.2l-0,19.356Z" style="fill:url(#_Linear6);fill-rule:nonzero;"/><path id="Trazado_81287" d="M143.899,165.379l43.647,-25.2l-43.645,-25.2l-43.647,25.2l43.645,25.2Z" style="fill:#37a3a5;fill-rule:nonzero;"/><path id="Trazado_81288" d="M143.899,156.277l27.881,-16.1l-27.88,-16.1l-27.881,16.1l27.88,16.1Z" style="fill:#fff;fill-rule:nonzero;"/><path id="Trazado_81289" d="M143.9,127.013l25.342,14.631l2.538,-1.465l-27.88,-16.1l-27.881,16.1l2.538,1.465l25.343,-14.631Z" style="fill:#00223d;fill-rule:nonzero;"/><path id="Trazado_81290" d="M143.901,115.934l42.82,24.722l0.825,-0.477l-43.645,-25.2l-43.647,25.2l0.825,0.477l42.822,-24.722Z" style="fill:#a9ebff;fill-rule:nonzero;"/><path id="Trazado_81291" d="M100.253,159.536l43.647,25.2l-0,-19.356l-43.647,-25.2l-0,19.356Z" style="fill:url(#_Linear7);fill-rule:nonzero;"/></g><path id="Trazado_81292" d="M143.899,164.408l42.807,-24.715l0.839,0.485l-43.647,25.2l-43.645,-25.2l0.839,-0.485l42.807,24.715Z" style="fill:#00223d;fill-rule:nonzero;"/></g><path id="Trazado_81293" d="M152.304,168.81l25.328,-14.789l21.336,17.085l1.806,14.748l-0,13.444l75.747,46.15l21.069,12.441l-3.21,9.631l-14.648,5.819l-20.266,-6.02l-27.088,-18.059l-44.833,-24.878l-12.555,-9.631l-0.8,-20.467l-1.605,-12.44l-20.281,-13.034Z" style="fill:#fff;fill-rule:nonzero;"/><g id="Grupo_33055"><path id="Trazado_81294" d="M278.66,276.734c13.291,-0.051 24.208,-10.984 24.237,-24.276l-0,-119.312c-0,-1.816 -1.495,-3.311 -3.311,-3.311c-1.816,0 -3.311,1.495 -3.311,3.311l-0,119.311c0,0 0,0.001 0,0.001c0,9.664 -7.952,17.615 -17.615,17.615c-3.092,0 -6.13,-0.814 -8.808,-2.36l-85.749,-49.507c-3.854,-2.234 -6.237,-6.362 -6.244,-10.816l-0,-15.164c-0.011,-6.816 -3.657,-13.132 -9.555,-16.549l-12.32,-7.113c-0.528,-0.333 -1.14,-0.51 -1.765,-0.51c-1.816,0 -3.31,1.494 -3.31,3.31c0,1.226 0.681,2.356 1.766,2.928l12.32,7.113c3.854,2.234 6.237,6.362 6.244,10.816l-0,15.171c0.011,6.816 3.657,13.131 9.554,16.549l85.75,49.508c3.679,2.143 7.86,3.276 12.117,3.285Z" style="fill:#fff;fill-rule:nonzero;"/></g><path id="Trazado_81295" d="M176.407,155.237c0.908,-1.572 2.949,-2.119 4.522,-1.211l12.32,7.113c5.897,3.417 9.544,9.733 9.554,16.548l-0,15.165c0.008,4.454 2.39,8.582 6.244,10.816l90.5,52.252c2.204,1.276 4.657,2.061 7.192,2.3c-0.229,2.19 -0.144,4.422 -0.325,6.628c-3.588,-0.299 -7.065,-1.392 -10.178,-3.2l-90.5,-52.252c-5.897,-3.417 -9.543,-9.733 -9.554,-16.549l-0,-15.159c-0.007,-4.454 -2.39,-8.582 -6.244,-10.815l-12.32,-7.113c-1.023,-0.591 -1.655,-1.686 -1.655,-2.867c-0,-0.581 0.153,-1.153 0.444,-1.656Z" style="fill:#fff;fill-rule:nonzero;"/><g id="Grupo_33056"><path id="Trazado_81297" d="M278.66,276.734c13.291,-0.051 24.208,-10.984 24.237,-24.276l-0,-119.312c-0,-1.816 -1.495,-3.311 -3.311,-3.311c-1.816,0 -3.311,1.495 -3.311,3.311l-0,119.311c0,0 0,0.001 0,0.001c0,9.664 -7.952,17.615 -17.615,17.615c-3.092,0 -6.13,-0.814 -8.808,-2.36l-85.749,-49.507c-3.854,-2.234 -6.237,-6.362 -6.244,-10.816l-0,-15.164c-0.011,-6.816 -3.657,-13.132 -9.555,-16.549l-12.32,-7.113c-0.528,-0.333 -1.14,-0.51 -1.765,-0.51c-1.816,0 -3.31,1.494 -3.31,3.31c0,1.226 0.681,2.356 1.766,2.928l12.32,7.113c3.854,2.234 6.237,6.362 6.244,10.816l-0,15.171c0.011,6.816 3.657,13.131 9.554,16.549l85.75,49.508c3.679,2.143 7.86,3.276 12.117,3.285Z" style="fill:#37a3a5;fill-rule:nonzero;"/></g><g id="Grupo_33057"><path id="Trazado_81298" d="M134.688,175.451l4.455,2.572l-0,-8.948l-4.455,-2.572l-0,8.948Z" style="fill:#fff;fill-opacity:0.2;fill-rule:nonzero;"/><path id="Trazado_81299" d="M127.269,171.168l4.455,2.572l-0,-8.948l-4.455,-2.572l-0,8.948Z" style="fill:#fff;fill-opacity:0.4;fill-rule:nonzero;"/><path id="Trazado_81300" d="M119.849,166.884l4.455,2.572l-0,-8.948l-4.455,-2.572l-0,8.948Z" style="fill:#fff;fill-opacity:0.8;fill-rule:nonzero;"/><path id="Trazado_81301" d="M112.429,162.602l4.455,2.572l-0,-8.948l-4.455,-2.572l-0,8.948Z" style="fill:#fff;fill-rule:nonzero;"/><path id="Trazado_81302" d="M105.009,158.316l4.455,2.572l-0,-8.948l-4.455,-2.572l-0,8.948Z" style="fill:#fff;fill-rule:nonzero;"/></g></g></g></g></g><g id="Grupo_33061"><path id="Trazado_81304" d="M59.106,143.101c0.179,3.314 1.932,6.35 4.712,8.163c2.6,1.5 4.713,0.285 4.713,-2.721c-0.18,-3.314 -1.933,-6.35 -4.713,-8.163c-2.602,-1.502 -4.712,-0.284 -4.712,2.721Z" style="fill:#fff;fill-rule:nonzero;"/><path id="Elipse_3404" d="M43.321,130.141c1.84,-1.062 4.826,0.662 6.665,3.848c1.839,3.185 1.84,6.634 0,7.696c-1.839,1.062 -4.825,-0.663 -6.665,-3.848c-1.839,-3.186 -1.839,-6.634 0,-7.696Z" style="fill:#fff;"/><path id="Trazado_81305" d="M24.777,123.282c0.18,3.314 1.933,6.35 4.713,8.163c2.6,1.5 4.712,0.284 4.712,-2.721c-0.18,-3.313 -1.933,-6.348 -4.712,-8.161c-2.605,-1.5 -4.713,-0.286 -4.713,2.719Z" style="fill:#fff;fill-rule:nonzero;"/><path id="Trazado_81306" d="M61.495,139.773c-0.247,0.586 -0.367,1.218 -0.354,1.854c0.179,3.314 1.932,6.35 4.712,8.163c0.694,0.436 1.506,0.648 2.325,0.607c-0.7,1.578 -2.387,2.005 -4.359,0.867c-2.78,-1.813 -4.533,-4.849 -4.712,-8.163c-0.001,-2.023 0.967,-3.21 2.388,-3.328Z" style="fill:#21587b;fill-rule:nonzero;"/><path id="Trazado_81307" d="M44.33,129.864c-0.247,0.586 -0.367,1.218 -0.354,1.854c0.179,3.314 1.932,6.35 4.712,8.163c0.694,0.436 1.506,0.648 2.325,0.607c-0.7,1.577 -2.387,2.005 -4.358,0.867c-2.781,-1.812 -4.534,-4.849 -4.713,-8.163c-0.001,-2.023 0.968,-3.21 2.388,-3.328Z" style="fill:#21587b;fill-rule:nonzero;"/><path id="Trazado_81308" d="M27.166,119.954c-0.247,0.586 -0.367,1.218 -0.354,1.854c0.179,3.314 1.932,6.351 4.713,8.163c0.694,0.436 1.505,0.648 2.324,0.607c-0.7,1.578 -2.387,2.005 -4.358,0.867c-2.78,-1.813 -4.533,-4.849 -4.713,-8.163c-0.001,-2.024 0.968,-3.211 2.388,-3.328Z" style="fill:#21587b;fill-rule:nonzero;"/></g><g id="Grupo_33068"><g id="Grupo_33062"><path id="Trazado_81310" d="M170.294,40.946l-38.96,-22.491l30.959,-17.874l38.96,22.491l-30.959,17.874Z" style="fill:url(#_Linear8);fill-rule:nonzero;"/><path id="Trazado_81311" d="M201.252,47.201l-0,-24.128l-30.959,17.874l-0,24.128l30.959,-17.874Z" style="fill:url(#_Linear9);fill-rule:nonzero;"/><path id="Trazado_81312" d="M131.334,18.456l-0,24.128l38.96,22.491l-0,-24.128l-38.96,-22.491Z" style="fill:url(#_Linear10);fill-rule:nonzero;"/></g><g id="Grupo_33067"><g id="Grupo_33063"><path id="Trazado_81313" d="M155.29,12.813l-16.866,9.738l-0,5.22l5.006,2.89l-0,-5.22l16.866,-9.738l-5.006,-2.89Z" style="fill:#fff;fill-rule:nonzero;"/><path id="Trazado_81314" d="M166.004,18.996l-16.866,9.738l-0,5.22l5.005,2.89l-0,-5.22l16.866,-9.738l-5.005,-2.89Z" style="fill:#fff;fill-rule:nonzero;"/><path id="Trazado_81315" d="M176.73,25.187l-16.866,9.738l-0,5.22l5.006,2.89l-0,-5.22l16.866,-9.738l-5.006,-2.89Z" style="fill:#fff;fill-rule:nonzero;"/></g><g id="Grupo_33064"><path id="Trazado_81316" d="M155.292,12.813l-0,2.1l3.216,1.82l1.789,-1.033l-5.005,-2.887Z" style="fill:#21587b;fill-rule:nonzero;"/><path id="Trazado_81317" d="M140.238,26.691l-1.814,1.079l5.006,2.89l-0,-2.172l-3.192,-1.797Z" style="fill:#21587b;fill-rule:nonzero;"/><path id="Trazado_81318" d="M155.29,12.813l-16.866,9.738l-0,5.22l1.814,-1.079l-0,-3.081l15.06,-8.7l-0.008,-2.098Z" style="fill:#00223d;fill-rule:nonzero;"/></g><g id="Grupo_33065"><path id="Trazado_81319" d="M166.004,18.995l-0,2.1l3.216,1.821l1.79,-1.033l-5.006,-2.888Z" style="fill:#21587b;fill-rule:nonzero;"/><path id="Trazado_81320" d="M150.952,32.873l-1.814,1.079l5.005,2.89l-0,-2.172l-3.191,-1.797Z" style="fill:#21587b;fill-rule:nonzero;"/><path id="Trazado_81321" d="M166.004,18.995l-16.866,9.738l-0,5.22l1.814,-1.079l-0,-3.081l15.06,-8.7l-0.008,-2.098Z" style="fill:#00223d;fill-rule:nonzero;"/></g><g id="Grupo_33066"><path id="Trazado_81322" d="M176.73,25.187l-0,2.1l3.216,1.821l1.789,-1.033l-5.005,-2.888Z" style="fill:#21587b;fill-rule:nonzero;"/><path id="Trazado_81323" d="M161.674,39.066l-1.814,1.079l5.006,2.89l-0,-2.172l-3.192,-1.797Z" style="fill:#21587b;fill-rule:nonzero;"/><path id="Trazado_81324" d="M176.73,25.187l-16.866,9.738l-0,5.22l1.814,-1.079l-0,-3.081l15.061,-8.7l-0.009,-2.098Z" style="fill:#00223d;fill-rule:nonzero;"/></g></g></g></g></g></g><defs><linearGradient id="_Linear2" x1="0" y1="0" x2="1" y2="0" gradientUnits="userSpaceOnUse" gradientTransform="matrix(-118.856,-91.8693,91.8693,-118.856,89.214,91.6116)"><stop offset="0" style="stop-color:#fff;stop-opacity:1"/><stop offset="1" style="stop-color:#d2e6ee;stop-opacity:1"/></linearGradient><linearGradient id="_Linear3" x1="0" y1="0" x2="1" y2="0" gradientUnits="userSpaceOnUse" gradientTransform="matrix(66.533,0,0,66.533,89.697,135.458)"><stop offset="0" style="stop-color:#fff;stop-opacity:1"/><stop offset="1" style="stop-color:#d2e6ee;stop-opacity:1"/></linearGradient><linearGradient id="_Linear4" x1="0" y1="0" x2="1" y2="0" gradientUnits="userSpaceOnUse" gradientTransform="matrix(83.728,0,0,83.728,5.97,130.496)"><stop offset="0" style="stop-color:#fff;stop-opacity:1"/><stop offset="1" style="stop-color:#d2e6ee;stop-opacity:1"/></linearGradient><linearGradient id="_Linear6" x1="0" y1="0" x2="1" y2="0" gradientUnits="userSpaceOnUse" gradientTransform="matrix(54.777,37.7389,-37.7389,54.777,-2654.48,144.769)"><stop offset="0" style="stop-color:#fff;stop-opacity:1"/><stop offset="1" style="stop-color:#d2e6ee;stop-opacity:1"/></linearGradient><linearGradient id="_Linear7" x1="0" y1="0" x2="1" y2="0" gradientUnits="userSpaceOnUse" gradientTransform="matrix(58.4433,17.6442,-17.6442,58.4433,-2612.58,154.171)"><stop offset="0" style="stop-color:#fff;stop-opacity:1"/><stop offset="1" style="stop-color:#d2e6ee;stop-opacity:1"/></linearGradient><linearGradient id="_Linear8" x1="0" y1="0" x2="1" y2="0" gradientUnits="userSpaceOnUse" gradientTransform="matrix(-55.3059,-42.7465,42.7465,-55.3059,170.069,23.6698)"><stop offset="0" style="stop-color:#fff;stop-opacity:1"/><stop offset="1" style="stop-color:#d2e6ee;stop-opacity:1"/></linearGradient><linearGradient id="_Linear9" x1="0" y1="0" x2="1" y2="0" gradientUnits="userSpaceOnUse" gradientTransform="matrix(30.959,0,0,30.959,170.293,44.074)"><stop offset="0" style="stop-color:#fff;stop-opacity:1"/><stop offset="1" style="stop-color:#d2e6ee;stop-opacity:1"/></linearGradient><linearGradient id="_Linear10" x1="0" y1="0" x2="1" y2="0" gradientUnits="userSpaceOnUse" gradientTransform="matrix(38.96,0,0,38.96,131.334,41.7655)"><stop offset="0" style="stop-color:#fff;stop-opacity:1"/><stop offset="1" style="stop-color:#d2e6ee;stop-opacity:1"/></linearGradient></defs></svg>