<svg xmlns="http://www.w3.org/2000/svg" xmlns:xlink="http://www.w3.org/1999/xlink" width="250.74" height="186.029" viewBox="0 0 250.74 186.029">
  <defs>
    <linearGradient id="linear-gradient" x1="-0.06" y1="0.5" x2="0.645" y2="0.5" gradientUnits="objectBoundingBox">
      <stop offset="0" stop-color="#fff"/>
      <stop offset="1" stop-color="#d2e6ee"/>
    </linearGradient>
    <linearGradient id="linear-gradient-2" x1="0.5" y1="0" x2="0.5" y2="1" xlink:href="#linear-gradient"/>
  </defs>
  <g id="Grupo_39009" data-name="Grupo 39009" transform="translate(-473.48 -410.164)">
    <g id="Grupo_33045" data-name="Grupo 33045" transform="translate(204.196 268.052)">
      <g id="Grupo_33043" data-name="Grupo 33043" transform="translate(269.284 142.112)">
        <path id="Trazado_81241" data-name="Trazado 81241" d="M336.031,289.5a16.5,16.5,0,0,1-8.071-1.928l-55.268-31.91c-2.2-1.269-3.408-2.968-3.408-4.786s1.21-3.517,3.408-4.786l96-55.427c4.452-2.569,11.694-2.571,16.143,0L440.1,222.574c2.2,1.269,3.408,2.968,3.408,4.786s-1.21,3.517-3.408,4.786l-96,55.427A16.5,16.5,0,0,1,336.031,289.5Zm40.734-100.334a16.064,16.064,0,0,0-7.854,1.875l-96,55.427c-2.056,1.188-3.189,2.754-3.189,4.409s1.133,3.221,3.189,4.409L328.177,287.2a17.386,17.386,0,0,0,15.709,0l96-55.427c2.057-1.188,3.189-2.754,3.189-4.409s-1.132-3.221-3.189-4.409l-55.268-31.909A16.056,16.056,0,0,0,376.765,189.167Z" transform="translate(-269.284 -144.811)" fill="#37a3a5"/>
        <g id="Grupo_33042" data-name="Grupo 33042" transform="translate(0.488)">
          <path id="Trazado_81242" data-name="Trazado 81242" d="M443.6,208.86h0l-.008-26.5L410.1,186.83l-25.073-14.477a17.6,17.6,0,0,0-15.927,0l-44.929,25.94-54.367,7.253v26.979l.02,0c.063,1.616,1.14,3.22,3.274,4.453l55.269,31.909a17.6,17.6,0,0,0,15.926,0l96-55.428c2.128-1.228,3.2-2.827,3.272-4.437l.026,0Z" transform="translate(-269.802 -143.752)" fill="url(#linear-gradient)"/>
          <path id="Trazado_81243" data-name="Trazado 81243" d="M440.3,175.925l-55.268-31.91a17.6,17.6,0,0,0-15.927,0l-96,55.427c-4.4,2.539-4.4,6.656,0,9.2l55.269,31.909a17.6,17.6,0,0,0,15.926,0l96-55.427C444.695,182.582,444.695,178.464,440.3,175.925Z" transform="translate(-269.802 -142.112)" fill="url(#linear-gradient-2)"/>
          <path id="Trazado_81244" data-name="Trazado 81244" d="M440.3,185.825l-96,55.427a17.6,17.6,0,0,1-15.926,0L273.1,209.343a6.107,6.107,0,0,1-3.2-3.795c-.412,1.921.648,3.926,3.2,5.4l55.269,31.909a17.6,17.6,0,0,0,15.926,0l96-55.427c2.554-1.474,3.614-3.48,3.2-5.4A6.1,6.1,0,0,1,440.3,185.825Z" transform="translate(-269.803 -144.422)" fill="#fff"/>
          <g id="Grupo_33037" data-name="Grupo 33037" transform="translate(104.263 62.5)">
            <path id="Trazado_81245" data-name="Trazado 81245" d="M383.088,238.182l-2.616,1.511v-3.021l2.616-1.511Z" transform="translate(-380.471 -209.998)" fill="#37a3a5"/>
            <path id="Trazado_81246" data-name="Trazado 81246" d="M388.9,234.828l-2.616,1.511v-3.021l2.616-1.511Z" transform="translate(-380.808 -209.804)" fill="#37a3a5"/>
            <path id="Trazado_81247" data-name="Trazado 81247" d="M394.708,231.473l-2.616,1.511v-3.021l2.616-1.511Z" transform="translate(-381.144 -209.61)" fill="#37a3a5"/>
            <path id="Trazado_81248" data-name="Trazado 81248" d="M389.958,240.714l-2.616,1.511V239.2l2.616-1.511Z" transform="translate(-380.869 -210.144)" fill="#37a3a5"/>
            <path id="Trazado_81249" data-name="Trazado 81249" d="M395.074,237.76l-2.616,1.511V236.25l2.616-1.511Z" transform="translate(-381.165 -209.973)" fill="#37a3a5"/>
            <path id="Trazado_81250" data-name="Trazado 81250" d="M413.345,220.714l-2.616,1.511V219.2l2.616-1.511Z" transform="translate(-382.223 -208.987)" fill="#37a3a5"/>
            <path id="Trazado_81251" data-name="Trazado 81251" d="M429.35,211.473l-2.616,1.511v-3.021l2.616-1.511Z" transform="translate(-383.149 -208.452)" fill="#37a3a5"/>
            <path id="Trazado_81252" data-name="Trazado 81252" d="M400.518,228.119,397.9,229.63v-3.021l2.616-1.511Z" transform="translate(-381.48 -209.415)" fill="#37a3a5"/>
          </g>
          <g id="Grupo_33041" data-name="Grupo 33041" transform="translate(82.575 13.967)">
            <g id="Grupo_33038" data-name="Grupo 33038" transform="translate(0 12.66)">
              <path id="Trazado_81253" data-name="Trazado 81253" d="M361.048,170.376,400.1,192.868l-3.6,2.082L357.45,172.458Z" transform="translate(-357.45 -170.375)" fill="#21587b"/>
              <path id="Trazado_81254" data-name="Trazado 81254" d="M358.805,173.238l2.452-1.419,37.693,21.712,1.146-.663-39.047-22.493-3.6,2.082Z" transform="translate(-357.45 -170.375)" fill="#fff"/>
            </g>
            <g id="Grupo_33039" data-name="Grupo 33039" transform="translate(10.939 6.33)">
              <path id="Trazado_81255" data-name="Trazado 81255" d="M372.659,163.657l39.048,22.493-3.6,2.082-39.048-22.493Z" transform="translate(-369.061 -163.656)" fill="#21587b"/>
              <path id="Trazado_81256" data-name="Trazado 81256" d="M370.417,166.519l2.452-1.419,37.693,21.712,1.146-.663L372.66,163.656l-3.6,2.082Z" transform="translate(-369.061 -163.656)" fill="#fff"/>
            </g>
            <g id="Grupo_33040" data-name="Grupo 33040" transform="translate(21.878)">
              <path id="Trazado_81257" data-name="Trazado 81257" d="M384.271,156.937l39.048,22.493-3.6,2.082L380.673,159.02Z" transform="translate(-380.673 -156.937)" fill="#21587b"/>
              <path id="Trazado_81258" data-name="Trazado 81258" d="M382.028,159.8l2.452-1.419,37.693,21.712,1.146-.663-39.047-22.493-3.6,2.082Z" transform="translate(-380.673 -156.937)" fill="#fff"/>
            </g>
          </g>
        </g>
        <path id="Trazado_81259" data-name="Trazado 81259" d="M337.135,230.467a5.7,5.7,0,0,1-2.809-.658l-37.184-21.468a2.225,2.225,0,0,1-1.263-1.9,2.9,2.9,0,0,1,1.686-2.347L333.9,183.116a6.989,6.989,0,0,1,6.382-.244l37.184,21.468a2.224,2.224,0,0,1,1.264,1.9,2.9,2.9,0,0,1-1.687,2.347l-36.337,20.978A7.3,7.3,0,0,1,337.135,230.467Zm-2.324-1.5a6.128,6.128,0,0,0,5.411-.245l36.336-20.979c.752-.434,1.2-1,1.2-1.5a1.327,1.327,0,0,0-.776-1.058L339.8,183.714a6.123,6.123,0,0,0-5.411.244L298.05,204.937c-.751.433-1.2,1-1.2,1.5a1.326,1.326,0,0,0,.777,1.058Z" transform="translate(-270.823 -144.433)" fill="#21587b"/>
        <path id="Trazado_81260" data-name="Trazado 81260" d="M319.451,255.5l-30.684-17.716a3.175,3.175,0,0,1-1.327-2.534v-2.278c0-.977.594-1.425,1.327-1l30.684,17.716a3.177,3.177,0,0,1,1.326,2.533v2.278C320.777,255.47,320.183,255.919,319.451,255.5Z" transform="translate(-270.335 -147.304)" fill="#37a3a5"/>
      </g>
      <g id="Grupo_33044" data-name="Grupo 33044" transform="translate(368.921 240.702)">
        <path id="Trazado_81261" data-name="Trazado 81261" d="M428.415,335.992a.24.24,0,0,1-.118-.031l-23.25-13.423c-3.113-1.8-4.73-4.3-4.438-6.862l2.01-17.648c.269-2.369-1.264-4.7-4.207-6.4L375.161,278.2a.236.236,0,1,1,.236-.408l23.25,13.423c3.113,1.8,4.729,4.3,4.438,6.862l-2.01,17.647c-.269,2.369,1.264,4.7,4.207,6.4l23.251,13.423a.236.236,0,0,1-.118.44Z" transform="translate(-375.043 -248.554)" fill="#37a3a5"/>
        <path id="Trazado_81262" data-name="Trazado 81262" d="M478.716,306.95a.239.239,0,0,1-.118-.031L402.013,262.7a.236.236,0,1,1,.236-.408l76.586,44.217a.236.236,0,0,1-.118.44Z" transform="translate(-376.597 -247.656)" fill="#37a3a5"/>
        <path id="Trazado_81263" data-name="Trazado 81263" d="M512.251,287.59a.239.239,0,0,1-.118-.031L487.661,273.43a20.371,20.371,0,0,0-8.406-2.405L452.99,268.96a20.825,20.825,0,0,1-8.605-2.465l-24.472-14.129a.236.236,0,1,1,.236-.408l24.472,14.129a20.362,20.362,0,0,0,8.406,2.4l26.265,2.064a20.836,20.836,0,0,1,8.6,2.466l24.471,14.129a.236.236,0,0,1-.118.44Z" transform="translate(-377.634 -247.058)" fill="#37a3a5"/>
        <path id="Trazado_81264" data-name="Trazado 81264" d="M445.182,326.312a.239.239,0,0,1-.118-.031l-24.472-14.128a8.487,8.487,0,0,1-4.329-5.061l-3.574-15.165a8.029,8.029,0,0,0-4.107-4.761l-24.471-14.129a.236.236,0,0,1,.236-.408l24.471,14.129a8.486,8.486,0,0,1,4.33,5.061l3.574,15.164a8.025,8.025,0,0,0,4.106,4.761L445.3,325.872a.236.236,0,0,1-.118.44Z" transform="translate(-375.561 -248.255)" fill="#37a3a5"/>
        <path id="Trazado_81265" data-name="Trazado 81265" d="M461.949,316.631a.239.239,0,0,1-.118-.031l-26.083-15.059a10.636,10.636,0,0,1-3.117-2.612l-10.5-13.507a10.14,10.14,0,0,0-2.982-2.493l-26.082-15.06a.236.236,0,1,1,.236-.408L419.38,282.52a10.624,10.624,0,0,1,3.118,2.612L433,298.639a10.184,10.184,0,0,0,2.982,2.494l26.083,15.058a.236.236,0,0,1-.118.44Z" transform="translate(-376.079 -247.955)" fill="#37a3a5"/>
        <path id="Trazado_81266" data-name="Trazado 81266" d="M495.484,297.271a.239.239,0,0,1-.118-.031l-26.083-15.06a17.483,17.483,0,0,0-4.363-1.736l-23.394-6.066a18.049,18.049,0,0,1-4.48-1.783l-26.083-15.06a.236.236,0,1,1,.236-.408l26.083,15.059a17.539,17.539,0,0,0,4.362,1.736l23.394,6.065a17.994,17.994,0,0,1,4.481,1.785L495.6,296.831a.236.236,0,0,1-.118.44Z" transform="translate(-377.116 -247.357)" fill="#37a3a5"/>
        <path id="Trazado_81267" data-name="Trazado 81267" d="M529.018,277.909a.239.239,0,0,1-.118-.031l-23.251-13.424a21.749,21.749,0,0,0-11.357-2.465l-30.566,1.16a22.261,22.261,0,0,1-11.612-2.527L428.863,247.2a.236.236,0,0,1-.086-.322.234.234,0,0,1,.321-.086l23.251,13.423a21.625,21.625,0,0,0,11.358,2.464l30.565-1.16a22.263,22.263,0,0,1,11.612,2.527l23.251,13.424a.236.236,0,0,1-.118.44Z" transform="translate(-378.152 -246.759)" fill="#37a3a5"/>
      </g>
    </g>
  </g>
</svg>
