<svg xmlns="http://www.w3.org/2000/svg" xmlns:xlink="http://www.w3.org/1999/xlink" width="122.485" height="122.486" viewBox="0 0 122.485 122.486">
  <defs>
    <radialGradient id="radial-gradient" cx="0.076" cy="0.019" r="1.465" gradientTransform="translate(0.001)" gradientUnits="objectBoundingBox">
      <stop offset="0" stop-color="#f6f6f7"/>
      <stop offset="0.477" stop-color="#f9f9fa"/>
      <stop offset="0.715" stop-color="#fff"/>
    </radialGradient>
  </defs>
  <g id="Grupo_39017" data-name="Grupo 39017" transform="translate(-168 -5598)">
    <g id="Grupo_29482" data-name="Grupo 29482" transform="translate(168 5598)">
      <g id="Grupo_18423" data-name="Grupo 18423" transform="translate(0 0)">
        <g id="Grupo_18421" data-name="Grupo 18421">
          <g id="Grupo_18420" data-name="Grupo 18420">
            <g id="Grupo_18419" data-name="Grupo 18419">
              <path id="Trazado_40936" data-name="Trazado 40936" d="M317.108,2206.962a61.243,61.243,0,1,1-61.242-61.241A61.242,61.242,0,0,1,317.108,2206.962Z" transform="translate(-194.623 -2145.721)" fill="#fff"/>
            </g>
          </g>
        </g>
        <path id="Trazado_40937" data-name="Trazado 40937" d="M316.4,2206.189a61.241,61.241,0,1,0-61.242,61.244A61,61,0,0,0,316.4,2206.189Z" transform="translate(-193.912 -2144.948)" fill="url(#radial-gradient)"/>
        <path id="Trazado_40938" data-name="Trazado 40938" d="M295.588,2199.9a46.746,46.746,0,1,0-46.746,46.746A46.572,46.572,0,0,0,295.588,2199.9Z" transform="translate(-187.413 -2138.455)" fill="none" stroke="#37a3a5" stroke-miterlimit="10" stroke-width="4"/>
        <g id="Grupo_18422" data-name="Grupo 18422" transform="translate(10.85 34.383)">
          <path id="Trazado_40939" data-name="Trazado 40939" d="M305.988,2164.488a61.25,61.25,0,0,1-105.443,60.989,61.055,61.055,0,0,0,105.443-60.989Z" transform="translate(-200.545 -2164.488)" fill="#eceef0"/>
        </g>
      </g>
    </g>
    <g id="Grupo_39189" data-name="Grupo 39189" transform="translate(-221.38 5515.612)">
      <g id="Grupo_39136" data-name="Grupo 39136" transform="translate(427.158 134.427)">
        <path id="Trazado_91733" data-name="Trazado 91733" d="M427.207,152.252v2.262a22.963,22.963,0,0,0,22.961,22.961h3.008a22.962,22.962,0,0,0,22.961-22.961V143.192a7.625,7.625,0,0,0-7-7.605,4.86,4.86,0,0,0-.665-.044h-5.119v.087H439.99v-.087h-5.119a4.84,4.84,0,0,0-.665.044,7.626,7.626,0,0,0-7,7.605v4.827" transform="translate(-427.207 -135.543)" fill="#21587b"/>
      </g>
      <g id="Grupo_39138" data-name="Grupo 39138" transform="translate(427.158 134.427)" opacity="0.2">
        <g id="Grupo_39137" data-name="Grupo 39137" transform="translate(0 0)">
          <path id="Trazado_91734" data-name="Trazado 91734" d="M430.655,154.514V143.192a7.626,7.626,0,0,1,7-7.605,4.85,4.85,0,0,1,.665-.044h-3.448a4.84,4.84,0,0,0-.665.044,7.626,7.626,0,0,0-7,7.605v11.322a22.963,22.963,0,0,0,22.961,22.961h3.008c.075,0,.146-.011.22-.011A22.955,22.955,0,0,1,430.655,154.514Z" transform="translate(-427.207 -135.543)"/>
        </g>
      </g>
      <g id="Grupo_39139" data-name="Grupo 39139" transform="translate(426.066 133.337)">
        <path id="Trazado_91735" data-name="Trazado 91735" d="M453.127,178.517H450.12a24.081,24.081,0,0,1-24.054-24.052V152.2a1.091,1.091,0,0,1,2.182,0v2.262a21.9,21.9,0,0,0,21.872,21.87h3.007A21.894,21.894,0,0,0,475,154.465V143.143a6.566,6.566,0,0,0-6-6.519,4.334,4.334,0,0,0-.577-.039H463.7a.966.966,0,0,1-.4.086H439.94a1.1,1.1,0,0,1-.428-.086h-4.691a3.868,3.868,0,0,0-.522.033,6.581,6.581,0,0,0-6.051,6.524v4.827a1.091,1.091,0,0,1-2.182,0v-4.827a8.759,8.759,0,0,1,8-8.693,5.576,5.576,0,0,1,.754-.047h5.119a1.077,1.077,0,0,1,.427.087h22.54a.974.974,0,0,1,.4-.087h5.119a6,6,0,0,1,.807.053,8.745,8.745,0,0,1,7.947,8.687v11.322A24.08,24.08,0,0,1,453.127,178.517Z" transform="translate(-426.066 -134.403)" fill="#00223d"/>
      </g>
      <g id="Grupo_39140" data-name="Grupo 39140" transform="translate(438.849 133.337)">
        <path id="Trazado_91736" data-name="Trazado 91736" d="M463.886,136.671H440.52a1.09,1.09,0,0,1-1.092-1.091,1.168,1.168,0,0,1,1.092-1.178h23.366a1.09,1.09,0,0,1,1.091,1.091A1.168,1.168,0,0,1,463.886,136.671Z" transform="translate(-439.428 -134.403)" fill="#00223d"/>
      </g>
      <g id="Grupo_39141" data-name="Grupo 39141" transform="translate(436.023 141.296)">
        <path id="Trazado_91737" data-name="Trazado 91737" d="M467.675,149.051v9.305a1.26,1.26,0,0,1-1.254,1.244,3.6,3.6,0,0,0-2.575,1.07,3.638,3.638,0,0,0-1.058,2.574v.2a1.246,1.246,0,0,1-1.254,1.245H442.616a1.246,1.246,0,0,1-1.254-1.245v-.2a3.629,3.629,0,0,0-3.633-3.644,1.259,1.259,0,0,1-1.254-1.244v-9.305a1.26,1.26,0,0,1,1.254-1.245,3.648,3.648,0,0,0,1.048-.152,3.638,3.638,0,0,0,2.586-3.491v-.2a1.245,1.245,0,0,1,1.254-1.244h18.918a1.245,1.245,0,0,1,1.254,1.244v.2a3.634,3.634,0,0,0,3.633,3.643A1.26,1.26,0,0,1,467.675,149.051Z" transform="translate(-436.474 -142.723)" fill="#37a3a5"/>
      </g>
      <g id="Grupo_39142" data-name="Grupo 39142" transform="translate(434.93 140.205)">
        <path id="Trazado_91738" data-name="Trazado 91738" d="M461.481,165.728H442.568a2.344,2.344,0,0,1-2.349-2.334v-.2a2.549,2.549,0,0,0-2.538-2.552,2.345,2.345,0,0,1-2.35-2.334v-9.3a2.344,2.344,0,0,1,2.35-2.334,2.5,2.5,0,0,0,1.8-.751,2.561,2.561,0,0,0,.737-1.8v-.2a2.344,2.344,0,0,1,2.349-2.335h18.913a2.345,2.345,0,0,1,2.35,2.335v.2a2.548,2.548,0,0,0,2.538,2.553,2.344,2.344,0,0,1,2.349,2.334v2.76a1.091,1.091,0,1,1-2.181,0v-2.76a.167.167,0,0,0-.167-.152,4.733,4.733,0,0,1-4.72-4.735v-.2a.156.156,0,0,0-.167-.153H442.568a.157.157,0,0,0-.167.153v.2a4.759,4.759,0,0,1-1.375,3.345,4.7,4.7,0,0,1-3.344,1.39.167.167,0,0,0-.167.152v9.3a.164.164,0,0,0,.167.152,4.732,4.732,0,0,1,4.719,4.734v.2a.157.157,0,0,0,.167.153h18.913a.157.157,0,0,0,.167-.153v-.2a4.72,4.72,0,0,1,4.72-4.734.165.165,0,0,0,.167-.152v-3.477a1.091,1.091,0,1,1,2.181,0V158.3a2.344,2.344,0,0,1-2.349,2.334,2.5,2.5,0,0,0-1.8.75,2.546,2.546,0,0,0-.736,1.8v.2A2.344,2.344,0,0,1,461.481,165.728Z" transform="translate(-435.332 -141.582)" fill="#00223d"/>
      </g>
      <g id="Grupo_39143" data-name="Grupo 39143" transform="translate(434.156 110.903)">
        <path id="Trazado_91739" data-name="Trazado 91739" d="M468.325,122.735a17.543,17.543,0,0,0-16.336-11.783c-9.63,0-17.466,8.184-17.466,18.247v5.322a4.84,4.84,0,0,1,.665-.044h5.119V129.2c0-6.868,5.234-12.463,11.683-12.463s11.684,5.6,11.684,12.463v5.278h5.119a4.86,4.86,0,0,1,.665.044V129.2a19.029,19.029,0,0,0-.381-3.8" transform="translate(-434.523 -110.952)" fill="#37a3a5"/>
      </g>
      <g id="Grupo_39145" data-name="Grupo 39145" transform="translate(434.156 110.903)" opacity="0.2">
        <g id="Grupo_39144" data-name="Grupo 39144">
          <path id="Trazado_91740" data-name="Trazado 91740" d="M436.724,130.109c0-10.064,7.837-18.248,17.466-18.248a16.7,16.7,0,0,1,5.242.844,16.729,16.729,0,0,0-7.444-1.753c-9.63,0-17.466,8.183-17.466,18.247v5.322a4.84,4.84,0,0,1,.665-.044h1.536Z" transform="translate(-434.523 -110.952)"/>
        </g>
      </g>
      <g id="Grupo_39146" data-name="Grupo 39146" transform="translate(433.065 109.811)">
        <path id="Trazado_91741" data-name="Trazado 91741" d="M469.407,135.562a1.173,1.173,0,0,1-.143-.01,3.877,3.877,0,0,0-.522-.033h-5.119a1.092,1.092,0,0,1-1.092-1.092V129.15c0-6.271-4.752-11.373-10.592-11.373s-10.592,5.1-10.592,11.373v5.278a1.091,1.091,0,0,1-1.091,1.092h-5.119a3.868,3.868,0,0,0-.522.033,1.091,1.091,0,0,1-1.234-1.082V129.15c0-10.664,8.325-19.339,18.558-19.339a18.712,18.712,0,0,1,17.361,12.5,1.091,1.091,0,1,1-2.05.746,16.526,16.526,0,0,0-15.311-11.066c-9.03,0-16.376,7.7-16.376,17.157v4.187h3.6V129.15c0-7.473,5.731-13.555,12.774-13.555s12.774,6.081,12.774,13.555v4.187h3.6V129.15a17.9,17.9,0,0,0-.36-3.582,1.091,1.091,0,1,1,2.137-.437,20.053,20.053,0,0,1,.4,4.019v5.321a1.09,1.09,0,0,1-1.091,1.092Z" transform="translate(-433.382 -109.811)" fill="#00223d"/>
      </g>
      <g id="Grupo_39150" data-name="Grupo 39150" transform="translate(436.023 146.228)" opacity="0.2">
        <path id="Trazado_91745" data-name="Trazado 91745" d="M438.776,147.878v12.1a3.674,3.674,0,0,0-1.048-.153,1.259,1.259,0,0,1-1.254-1.244v-9.305a1.26,1.26,0,0,1,1.254-1.245A3.648,3.648,0,0,0,438.776,147.878Z" transform="translate(-436.474 -147.878)"/>
      </g>
    </g>
  </g>
</svg>
