<svg xmlns="http://www.w3.org/2000/svg" xmlns:xlink="http://www.w3.org/1999/xlink" width="122.485" height="122.486" viewBox="0 0 122.485 122.486">
  <defs>
    <radialGradient id="radial-gradient" cx="0.076" cy="0.019" r="1.465" gradientTransform="translate(0.001)" gradientUnits="objectBoundingBox">
      <stop offset="0" stop-color="#f6f6f7"/>
      <stop offset="0.477" stop-color="#f9f9fa"/>
      <stop offset="0.715" stop-color="#fff"/>
    </radialGradient>
  </defs>
  <g id="Grupo_41883" data-name="Grupo 41883" transform="translate(-222.304 -4230.961)">
    <g id="Grupo_39014" data-name="Grupo 39014" transform="translate(54.304 -1367.039)">
      <g id="Grupo_29482" data-name="Grupo 29482" transform="translate(168 5598)">
        <g id="Grupo_18423" data-name="Grupo 18423" transform="translate(0 0)">
          <g id="Grupo_18421" data-name="Grupo 18421">
            <g id="Grupo_18420" data-name="Grupo 18420">
              <g id="Grupo_18419" data-name="Grupo 18419">
                <path id="Trazado_40936" data-name="Trazado 40936" d="M317.108,2206.962a61.243,61.243,0,1,1-61.242-61.241A61.242,61.242,0,0,1,317.108,2206.962Z" transform="translate(-194.623 -2145.721)" fill="#fff"/>
              </g>
            </g>
          </g>
          <path id="Trazado_40937" data-name="Trazado 40937" d="M316.4,2206.189a61.241,61.241,0,1,0-61.242,61.244A61,61,0,0,0,316.4,2206.189Z" transform="translate(-193.912 -2144.948)" fill="url(#radial-gradient)"/>
          <path id="Trazado_40938" data-name="Trazado 40938" d="M295.588,2199.9a46.746,46.746,0,1,0-46.746,46.746A46.572,46.572,0,0,0,295.588,2199.9Z" transform="translate(-187.413 -2138.455)" fill="none" stroke="#37a3a5" stroke-miterlimit="10" stroke-width="4"/>
          <g id="Grupo_18422" data-name="Grupo 18422" transform="translate(10.85 34.383)">
            <path id="Trazado_40939" data-name="Trazado 40939" d="M305.988,2164.488a61.25,61.25,0,0,1-105.443,60.989,61.055,61.055,0,0,0,105.443-60.989Z" transform="translate(-200.545 -2164.488)" fill="#eceef0"/>
          </g>
        </g>
      </g>
    </g>
    <g id="Grupo_39135" data-name="Grupo 39135" transform="translate(-160.714 3950.987)">
      <g id="Grupo_39103" data-name="Grupo 39103" transform="translate(417.89 316.056)">
        <path id="Trazado_91706" data-name="Trazado 91706" d="M418.083,323.333l0,2.308a3.129,3.129,0,0,0,3.131,3.13H461.06a3.121,3.121,0,0,0,3.13-3.13V319.38a3.122,3.122,0,0,0-3.13-3.131H421.216a3.129,3.129,0,0,0-3.131,3.131v1.142" transform="translate(-418.083 -316.249)" fill="#21587b"/>
      </g>
      <g id="Grupo_39104" data-name="Grupo 39104" transform="translate(417.89 316.056)" opacity="0.2">
        <path id="Trazado_91707" data-name="Trazado 91707" d="M420.1,325.641l0-2.308,0-2.811V319.38a3.128,3.128,0,0,1,3.13-3.131h-2.013a3.129,3.129,0,0,0-3.131,3.131v1.142l0,2.811,0,2.308a3.129,3.129,0,0,0,3.131,3.13h2.013A3.128,3.128,0,0,1,420.1,325.641Z" transform="translate(-418.083 -316.249)"/>
      </g>
      <g id="Grupo_39105" data-name="Grupo 39105" transform="translate(417.89 333.741)">
        <path id="Trazado_91708" data-name="Trazado 91708" d="M461.057,337.539H421.213a3.136,3.136,0,0,0-3.13,3.13v6.261a3.129,3.129,0,0,0,3.13,3.131h27.2v-4.781a2.861,2.861,0,0,1,1.73-2.618l11.361-4.918a1.288,1.288,0,0,1,.353-.1A3.073,3.073,0,0,0,461.057,337.539Z" transform="translate(-418.083 -337.539)" fill="#21587b"/>
      </g>
      <g id="Grupo_39106" data-name="Grupo 39106" transform="translate(417.901 351.454)">
        <path id="Trazado_91709" data-name="Trazado 91709" d="M418.1,366.248v2.006a3.128,3.128,0,0,0,3.13,3.13h32.16a20.484,20.484,0,0,1-4.189-6.238,9.662,9.662,0,0,1-.786-3.859v-2.425H421.227a3.129,3.129,0,0,0-3.13,3.131v1.829" transform="translate(-418.097 -358.862)" fill="#21587b"/>
      </g>
      <g id="Grupo_39107" data-name="Grupo 39107" transform="translate(416.942 315.108)">
        <path id="Trazado_91710" data-name="Trazado 91710" d="M460.866,329.526H421.023a4.083,4.083,0,0,1-4.079-4.078l0-2.307a.947.947,0,0,1,.946-.948h0a.947.947,0,0,1,.947.946l0,2.308a2.187,2.187,0,0,0,2.184,2.184h39.843a2.186,2.186,0,0,0,2.184-2.183v-6.262A2.186,2.186,0,0,0,460.866,317H421.023a2.186,2.186,0,0,0-2.184,2.183v1.143a.947.947,0,1,1-1.895,0v-1.143a4.083,4.083,0,0,1,4.079-4.078h39.843a4.082,4.082,0,0,1,4.078,4.078v6.262A4.082,4.082,0,0,1,460.866,329.526Z" transform="translate(-416.942 -315.108)" fill="#00223d"/>
      </g>
      <g id="Grupo_39108" data-name="Grupo 39108" transform="translate(454.577 320.326)">
        <circle id="Elipse_3684" data-name="Elipse 3684" cx="1.992" cy="1.992" r="1.992" fill="#ffeb54"/>
      </g>
      <g id="Grupo_39109" data-name="Grupo 39109" transform="translate(453.63 319.379)">
        <path id="Trazado_91711" data-name="Trazado 91711" d="M464.046,326.128a2.939,2.939,0,1,1,2.941-2.94A2.943,2.943,0,0,1,464.046,326.128Zm0-3.984A1.045,1.045,0,0,0,463,323.188a1.033,1.033,0,0,0,1.044,1.045,1.047,1.047,0,0,0,1.046-1.045A1.059,1.059,0,0,0,464.046,322.144Z" transform="translate(-461.107 -320.249)"/>
      </g>
      <g id="Grupo_39110" data-name="Grupo 39110" transform="translate(417.89 333.741)" opacity="0.2">
        <path id="Trazado_91712" data-name="Trazado 91712" d="M420.1,346.93l0-2.307,0-2.811v-1.143a3.128,3.128,0,0,1,3.13-3.13h-2.013a3.129,3.129,0,0,0-3.131,3.13v1.143l0,2.811,0,2.307a3.129,3.129,0,0,0,3.131,3.131h2.013A3.129,3.129,0,0,1,420.1,346.93Z" transform="translate(-418.083 -337.539)"/>
      </g>
      <g id="Grupo_39111" data-name="Grupo 39111" transform="translate(417.89 351.524)" opacity="0.2">
        <path id="Trazado_91713" data-name="Trazado 91713" d="M420.1,368.337l0-2.307,0-2.811v-1.143a3.128,3.128,0,0,1,3.13-3.13h-2.013a3.129,3.129,0,0,0-3.131,3.13v1.143l0,2.811,0,2.307a3.129,3.129,0,0,0,3.131,3.131h2.013A3.129,3.129,0,0,1,420.1,368.337Z" transform="translate(-418.083 -358.946)"/>
      </g>
      <g id="Grupo_39112" data-name="Grupo 39112" transform="translate(422.88 319.382)">
        <path id="Trazado_91714" data-name="Trazado 91714" d="M425.037,326.132a.947.947,0,0,1-.947-.947V321.2a.947.947,0,1,1,1.895,0v3.984A.947.947,0,0,1,425.037,326.132Z" transform="translate(-424.09 -320.253)" fill="#00223d"/>
      </g>
      <g id="Grupo_39113" data-name="Grupo 39113" transform="translate(428.572 319.382)">
        <path id="Trazado_91715" data-name="Trazado 91715" d="M431.89,326.132a.947.947,0,0,1-.948-.947V321.2a.947.947,0,1,1,1.895,0v3.984A.947.947,0,0,1,431.89,326.132Z" transform="translate(-430.942 -320.253)" fill="#00223d"/>
      </g>
      <g id="Grupo_39114" data-name="Grupo 39114" transform="translate(434.264 319.382)">
        <path id="Trazado_91716" data-name="Trazado 91716" d="M438.8,326.132a.948.948,0,0,1-.948-.934l-.054-3.985a.947.947,0,0,1,.934-.96h.013a.948.948,0,0,1,.947.935l.055,3.984a.947.947,0,0,1-.935.96Z" transform="translate(-437.795 -320.253)" fill="#00223d"/>
      </g>
      <g id="Grupo_39115" data-name="Grupo 39115" transform="translate(416.942 332.794)">
        <path id="Trazado_91717" data-name="Trazado 91717" d="M448.216,350.815h-27.2a4.082,4.082,0,0,1-4.078-4.078v-6.261a4.082,4.082,0,0,1,4.078-4.078h39.843a3.993,3.993,0,0,1,1.045.135.947.947,0,0,1-.16,1.857c-.014.007-.05.024-.087.039l-11.337,4.908a1.915,1.915,0,0,0-1.16,1.749v4.781A.947.947,0,0,1,448.216,350.815Zm-27.2-12.522a2.186,2.186,0,0,0-2.183,2.183v6.261a2.186,2.186,0,0,0,2.183,2.184h26.249v-3.834a3.807,3.807,0,0,1,2.3-3.487l7.639-3.307Z" transform="translate(-416.942 -336.398)" fill="#00223d"/>
      </g>
      <g id="Grupo_39116" data-name="Grupo 39116" transform="translate(422.88 337.074)">
        <path id="Trazado_91718" data-name="Trazado 91718" d="M425.037,347.431a.947.947,0,0,1-.947-.948V342.5a.947.947,0,1,1,1.895,0v3.984A.948.948,0,0,1,425.037,347.431Z" transform="translate(-424.09 -341.551)" fill="#00223d"/>
      </g>
      <g id="Grupo_39117" data-name="Grupo 39117" transform="translate(428.572 337.074)">
        <path id="Trazado_91719" data-name="Trazado 91719" d="M431.89,347.431a.947.947,0,0,1-.948-.948V342.5a.947.947,0,1,1,1.895,0v3.984A.947.947,0,0,1,431.89,347.431Z" transform="translate(-430.942 -341.551)" fill="#00223d"/>
      </g>
      <g id="Grupo_39118" data-name="Grupo 39118" transform="translate(434.264 337.075)">
        <path id="Trazado_91720" data-name="Trazado 91720" d="M438.8,347.431a.948.948,0,0,1-.948-.935l-.054-3.984a.947.947,0,0,1,.934-.96h.013a.947.947,0,0,1,.947.935l.055,3.984a.947.947,0,0,1-.935.96Z" transform="translate(-437.795 -341.552)" fill="#00223d"/>
      </g>
      <g id="Grupo_39119" data-name="Grupo 39119" transform="translate(416.954 350.506)">
        <path id="Trazado_91721" data-name="Trazado 91721" d="M453.194,372.139H421.035a4.082,4.082,0,0,1-4.078-4.078v-2.006a.947.947,0,0,1,1.894,0v2.006a2.186,2.186,0,0,0,2.184,2.183h30.055a21.2,21.2,0,0,1-2.958-4.921,10.568,10.568,0,0,1-.86-4.229v-1.478H421.035a2.187,2.187,0,0,0-2.184,2.184v1.829a.947.947,0,1,1-1.894,0V361.8a4.082,4.082,0,0,1,4.078-4.079h27.184a.947.947,0,0,1,.947.948v2.425a8.7,8.7,0,0,0,.707,3.482,19.483,19.483,0,0,0,4,5.953.947.947,0,0,1-.676,1.61Z" transform="translate(-416.957 -357.721)" fill="#00223d"/>
      </g>
      <g id="Grupo_39120" data-name="Grupo 39120" transform="translate(422.88 354.767)">
        <path id="Trazado_91722" data-name="Trazado 91722" d="M425.037,368.729a.947.947,0,0,1-.947-.947V363.8a.947.947,0,0,1,1.895,0v3.985A.947.947,0,0,1,425.037,368.729Z" transform="translate(-424.09 -362.85)" fill="#00223d"/>
      </g>
      <g id="Grupo_39121" data-name="Grupo 39121" transform="translate(428.572 354.767)">
        <path id="Trazado_91723" data-name="Trazado 91723" d="M431.89,368.729a.947.947,0,0,1-.948-.947V363.8a.947.947,0,0,1,1.895,0v3.985A.947.947,0,0,1,431.89,368.729Z" transform="translate(-430.942 -362.85)" fill="#00223d"/>
      </g>
      <g id="Grupo_39122" data-name="Grupo 39122" transform="translate(434.264 354.767)">
        <path id="Trazado_91724" data-name="Trazado 91724" d="M438.8,368.729a.948.948,0,0,1-.948-.935l-.054-3.984a.947.947,0,0,1,.934-.96h.013a.947.947,0,0,1,.947.935l.055,3.984a.947.947,0,0,1-.935.96Z" transform="translate(-437.795 -362.85)" fill="#00223d"/>
      </g>
      <g id="Grupo_39123" data-name="Grupo 39123" transform="translate(422.6 328.579)">
        <rect id="Rectángulo_27540" data-name="Rectángulo 27540" width="36.701" height="5.168" fill="#37a3a5"/>
      </g>
      <g id="Grupo_39124" data-name="Grupo 39124" transform="translate(422.603 346.275)">
        <rect id="Rectángulo_27541" data-name="Rectángulo 27541" width="25.614" height="5.18" fill="#37a3a5"/>
      </g>
      <g id="Grupo_39125" data-name="Grupo 39125" transform="translate(421.653 327.632)">
        <path id="Trazado_91725" data-name="Trazado 91725" d="M460.261,337.247h-36.7a.947.947,0,0,1-.947-.947v-5.168a.947.947,0,0,1,.947-.948h36.7a.947.947,0,0,1,.947.948V336.3A.947.947,0,0,1,460.261,337.247Zm-35.753-1.894h34.806v-3.274H424.508Z" transform="translate(-422.613 -330.184)" fill="#00223d"/>
      </g>
      <g id="Grupo_39126" data-name="Grupo 39126" transform="translate(421.655 345.328)">
        <path id="Trazado_91726" data-name="Trazado 91726" d="M449.177,358.56H423.564a.947.947,0,0,1-.948-.947v-5.179a.947.947,0,0,1,.948-.947h25.613a.947.947,0,0,1,.947.947v5.179A.947.947,0,0,1,449.177,358.56Zm-24.666-1.895H448.23v-3.285H424.511Z" transform="translate(-422.616 -351.487)" fill="#00223d"/>
      </g>
      <g id="Grupo_39127" data-name="Grupo 39127" transform="translate(448.216 333.824)">
        <path id="Trazado_91727" data-name="Trazado 91727" d="M481.912,352.679v5.014a9.856,9.856,0,0,1-.774,3.859,20.16,20.16,0,0,1-12.318,11.213,1.41,1.41,0,0,1-.569.114,1.439,1.439,0,0,1-.444-.068,20.017,20.017,0,0,1-12.431-11.258,9.662,9.662,0,0,1-.786-3.859V345.3a2.861,2.861,0,0,1,1.73-2.618l11.361-4.918a1.288,1.288,0,0,1,.353-.1,1.378,1.378,0,0,1,.8.1l11.361,4.918a2.869,2.869,0,0,1,1.72,2.618v4.782" transform="translate(-454.59 -337.638)" fill="#37a3a5"/>
      </g>
      <g id="Grupo_39128" data-name="Grupo 39128" transform="translate(448.216 333.824)" opacity="0.2">
        <path id="Trazado_91728" data-name="Trazado 91728" d="M461.685,367.791a20.5,20.5,0,0,1-4.189-6.238,9.676,9.676,0,0,1-.785-3.859V345.3a2.861,2.861,0,0,1,1.73-2.618l10.875-4.708-.485-.21a1.378,1.378,0,0,0-.8-.1,1.288,1.288,0,0,0-.353.1l-11.361,4.918a2.861,2.861,0,0,0-1.73,2.618v12.4a9.662,9.662,0,0,0,.786,3.859,20.017,20.017,0,0,0,12.431,11.258,1.439,1.439,0,0,0,.444.068,1.41,1.41,0,0,0,.569-.114c.168-.056.323-.12.487-.179A20.39,20.39,0,0,1,461.685,367.791Z" transform="translate(-454.59 -337.638)"/>
      </g>
      <g id="Grupo_39129" data-name="Grupo 39129" transform="translate(447.269 332.872)">
        <path id="Trazado_91729" data-name="Trazado 91729" d="M468.057,373.633a2.384,2.384,0,0,1-.743-.117,20.968,20.968,0,0,1-13-11.788,10.568,10.568,0,0,1-.86-4.229V345.1a3.807,3.807,0,0,1,2.3-3.487l11.362-4.919a2.157,2.157,0,0,1,.643-.176,2.233,2.233,0,0,1,1.275.183l11.346,4.91a3.818,3.818,0,0,1,2.289,3.489v4.781a.947.947,0,1,1-1.894,0V345.1a1.919,1.919,0,0,0-1.154-1.752l-11.356-4.915A.431.431,0,0,0,468,338.4a.654.654,0,0,0-.162.048L456.5,343.354a1.915,1.915,0,0,0-1.16,1.749v12.4a8.7,8.7,0,0,0,.707,3.482,19.065,19.065,0,0,0,11.858,10.735.6.6,0,0,0,.337-.012,19.328,19.328,0,0,0,11.829-10.723,8.856,8.856,0,0,0,.7-3.481v-5.014a.947.947,0,1,1,1.894,0V357.5a10.746,10.746,0,0,1-.85,4.229,21.128,21.128,0,0,1-12.891,11.742A2.19,2.19,0,0,1,468.057,373.633Z" transform="translate(-453.45 -336.493)" fill="#00223d"/>
      </g>
      <g id="Grupo_39130" data-name="Grupo 39130" transform="translate(452.282 338.481)">
        <path id="Trazado_91730" data-name="Trazado 91730" d="M469.082,343.245l-9.6,4.153.03,10.977a6.126,6.126,0,0,0,.485,2.42,15.349,15.349,0,0,0,9.072,8.432,15.331,15.331,0,0,0,9.087-8.436,6.134,6.134,0,0,0,.483-2.416v-10.99Z" transform="translate(-459.485 -343.245)" fill="#e8f3ff"/>
      </g>
      <g id="Grupo_39131" data-name="Grupo 39131" transform="translate(452.282 338.481)" opacity="0.2">
        <path id="Trazado_91731" data-name="Trazado 91731" d="M462.137,360.794a6.112,6.112,0,0,1-.486-2.42l-.03-10.977,8.529-3.691-1.067-.462-9.6,4.153.03,10.977a6.126,6.126,0,0,0,.485,2.42,15.349,15.349,0,0,0,9.072,8.432c.371-.13.726-.272,1.071-.422A15.324,15.324,0,0,1,462.137,360.794Z" transform="translate(-459.485 -343.245)"/>
      </g>
      <g id="Grupo_39132" data-name="Grupo 39132" transform="translate(451.335 337.533)">
        <path id="Trazado_91732" data-name="Trazado 91732" d="M468.88,369.98a.941.941,0,0,1-.317-.055,16.293,16.293,0,0,1-9.624-8.949,7.065,7.065,0,0,1-.564-2.8l-.029-10.975a.949.949,0,0,1,.571-.871l9.6-4.153a.945.945,0,0,1,.753,0l9.56,4.14a.948.948,0,0,1,.571.869v10.99a7.054,7.054,0,0,1-.559,2.787,16.288,16.288,0,0,1-9.643,8.957A.93.93,0,0,1,468.88,369.98Zm-8.638-22.155.027,10.353a5.178,5.178,0,0,0,.409,2.05,14.4,14.4,0,0,0,8.2,7.8,14.4,14.4,0,0,0,8.216-7.8,5.179,5.179,0,0,0,.405-2.04V347.813l-8.613-3.729Z" transform="translate(-458.345 -342.104)" fill="#00223d"/>
      </g>
      <g id="Grupo_39133" data-name="Grupo 39133" transform="translate(422.6 328.579)" opacity="0.2">
        <rect id="Rectángulo_27542" data-name="Rectángulo 27542" width="2.325" height="5.162"/>
      </g>
      <g id="Grupo_39134" data-name="Grupo 39134" transform="translate(422.6 346.279)" opacity="0.2">
        <rect id="Rectángulo_27543" data-name="Rectángulo 27543" width="2.325" height="5.162"/>
      </g>
    </g>
  </g>
</svg>
