<svg xmlns="http://www.w3.org/2000/svg" xmlns:xlink="http://www.w3.org/1999/xlink" width="122.485" height="122.486" viewBox="0 0 122.485 122.486">
  <defs>
    <radialGradient id="radial-gradient" cx="0.076" cy="0.019" r="1.465" gradientTransform="translate(0.001)" gradientUnits="objectBoundingBox">
      <stop offset="0" stop-color="#f6f6f7"/>
      <stop offset="0.477" stop-color="#f9f9fa"/>
      <stop offset="0.715" stop-color="#fff"/>
    </radialGradient>
  </defs>
  <g id="Grupo_39018" data-name="Grupo 39018" transform="translate(-168 -5598)">
    <g id="Grupo_29482" data-name="Grupo 29482" transform="translate(168 5598)">
      <g id="Grupo_18423" data-name="Grupo 18423" transform="translate(0 0)">
        <g id="Grupo_18421" data-name="Grupo 18421">
          <g id="Grupo_18420" data-name="Grupo 18420">
            <g id="Grupo_18419" data-name="Grupo 18419">
              <path id="Trazado_40936" data-name="Trazado 40936" d="M317.108,2206.962a61.243,61.243,0,1,1-61.242-61.241A61.242,61.242,0,0,1,317.108,2206.962Z" transform="translate(-194.623 -2145.721)" fill="#fff"/>
            </g>
          </g>
        </g>
        <path id="Trazado_40937" data-name="Trazado 40937" d="M316.4,2206.189a61.241,61.241,0,1,0-61.242,61.244A61,61,0,0,0,316.4,2206.189Z" transform="translate(-193.912 -2144.948)" fill="url(#radial-gradient)"/>
        <path id="Trazado_40938" data-name="Trazado 40938" d="M295.588,2199.9a46.746,46.746,0,1,0-46.746,46.746A46.572,46.572,0,0,0,295.588,2199.9Z" transform="translate(-187.413 -2138.455)" fill="none" stroke="#37a3a5" stroke-miterlimit="10" stroke-width="4"/>
        <g id="Grupo_18422" data-name="Grupo 18422" transform="translate(10.85 34.383)">
          <path id="Trazado_40939" data-name="Trazado 40939" d="M305.988,2164.488a61.25,61.25,0,0,1-105.443,60.989,61.055,61.055,0,0,0,105.443-60.989Z" transform="translate(-200.545 -2164.488)" fill="#eceef0"/>
        </g>
      </g>
    </g>
    <g id="Grupo_39188" data-name="Grupo 39188" transform="translate(189.23 5318.432)">
      <g id="Grupo_39187" data-name="Grupo 39187" transform="translate(11.428 316.879)">
        <g id="Grupo_39162" data-name="Grupo 39162">
          <g id="Grupo_39152" data-name="Grupo 39152" transform="translate(0.921 0.921)">
            <path id="Trazado_91746" data-name="Trazado 91746" d="M12.568,337.93V322.31a4.285,4.285,0,0,1,4.291-4.291H63.616a4.283,4.283,0,0,1,4.278,4.291v40.13a4.283,4.283,0,0,1-4.278,4.291H16.859a4.285,4.285,0,0,1-4.291-4.291V341.263" transform="translate(-12.568 -318.019)" fill="#e8f3ff"/>
          </g>
          <g id="Grupo_39153" data-name="Grupo 39153">
            <path id="Trazado_91747" data-name="Trazado 91747" d="M63.4,367.432H16.64a5.218,5.218,0,0,1-5.212-5.212V341.045a.922.922,0,0,1,1.843,0V362.22a3.372,3.372,0,0,0,3.368,3.368H63.4a3.366,3.366,0,0,0,3.357-3.368v-40.13a3.366,3.366,0,0,0-3.357-3.368H16.64a3.373,3.373,0,0,0-3.368,3.368v15.62a.922.922,0,0,1-1.843,0v-15.62a5.218,5.218,0,0,1,5.212-5.212H63.4a5.212,5.212,0,0,1,5.2,5.212v40.13A5.212,5.212,0,0,1,63.4,367.432Z" transform="translate(-11.428 -316.879)" fill="#00223d"/>
          </g>
          <g id="Grupo_39154" data-name="Grupo 39154" transform="translate(0.921 0.921)">
            <path id="Trazado_91748" data-name="Trazado 91748" d="M53.7,328.937H12.568V322.31a4.285,4.285,0,0,1,4.291-4.291H63.616a4.283,4.283,0,0,1,4.278,4.291v6.628H57.045" transform="translate(-12.568 -318.019)" fill="#37a3a5"/>
          </g>
          <g id="Grupo_39155" data-name="Grupo 39155" transform="translate(0.921 0.921)" opacity="0.2">
            <path id="Trazado_91749" data-name="Trazado 91749" d="M15.333,362.439V322.31a4.286,4.286,0,0,1,4.291-4.291H16.859a4.285,4.285,0,0,0-4.291,4.291v40.13a4.285,4.285,0,0,0,4.291,4.291h2.765A4.286,4.286,0,0,1,15.333,362.439Z" transform="translate(-12.568 -318.019)"/>
          </g>
          <g id="Grupo_39156" data-name="Grupo 39156">
            <path id="Trazado_91750" data-name="Trazado 91750" d="M67.676,329.64H56.827a.922.922,0,0,1,0-1.843h9.928v-5.706a3.366,3.366,0,0,0-3.357-3.368H16.64a3.373,3.373,0,0,0-3.368,3.368V327.8H53.477a.922.922,0,1,1,0,1.843H12.349a.921.921,0,0,1-.921-.921v-6.628a5.218,5.218,0,0,1,5.212-5.212H63.4a5.212,5.212,0,0,1,5.2,5.212v6.628A.921.921,0,0,1,67.676,329.64Z" transform="translate(-11.428 -316.879)" fill="#00223d"/>
          </g>
          <g id="Grupo_39157" data-name="Grupo 39157" transform="translate(46.28 4.133)">
            <circle id="Elipse_3685" data-name="Elipse 3685" cx="2.375" cy="2.375" r="2.375" fill="#e8f3ff"/>
          </g>
          <g id="Grupo_39158" data-name="Grupo 39158" transform="translate(45.358 3.212)">
            <path id="Trazado_91751" data-name="Trazado 91751" d="M70.85,327.447a3.3,3.3,0,1,1,3.3-3.3A3.3,3.3,0,0,1,70.85,327.447Zm0-4.75A1.453,1.453,0,1,0,72.3,324.15,1.456,1.456,0,0,0,70.85,322.7Z" transform="translate(-67.553 -320.853)"/>
          </g>
          <g id="Grupo_39159" data-name="Grupo 39159" transform="translate(36.446 4.133)">
            <circle id="Elipse_3686" data-name="Elipse 3686" cx="2.375" cy="2.375" r="2.375" fill="#e8f3ff"/>
          </g>
          <g id="Grupo_39160" data-name="Grupo 39160" transform="translate(35.525 3.212)">
            <path id="Trazado_91752" data-name="Trazado 91752" d="M58.682,327.447a3.3,3.3,0,1,1,3.3-3.3A3.3,3.3,0,0,1,58.682,327.447Zm0-4.75a1.453,1.453,0,1,0,1.454,1.454A1.455,1.455,0,0,0,58.682,322.7Z" transform="translate(-55.385 -320.853)"/>
          </g>
          <g id="Grupo_39161" data-name="Grupo 39161" transform="translate(4.569 5.587)">
            <path id="Trazado_91753" data-name="Trazado 91753" d="M43.113,325.635H18a.922.922,0,0,1,0-1.843h25.11a.922.922,0,0,1,0,1.843Z" transform="translate(-17.082 -323.792)" fill="#00223d"/>
          </g>
        </g>
        <g id="Grupo_39163" data-name="Grupo 39163" transform="translate(3.486 21.012)">
          <path id="Trazado_91754" data-name="Trazado 91754" d="M32.47,354.481a6.884,6.884,0,0,1-.738,1.779l1.425,1.425a.789.789,0,0,1,0,1.114l-1.493,1.493a.789.789,0,0,1-1.115,0l-1.424-1.424a6.967,6.967,0,0,1-1.77.737v2.013a.788.788,0,0,1-.788.789h-2.11a.789.789,0,0,1-.788-.789v-2.013a7.165,7.165,0,0,1-1.779-.737l-1.424,1.424a.789.789,0,0,1-1.115,0L17.857,358.8a.788.788,0,0,1,0-1.114l1.425-1.425a6.933,6.933,0,0,1-.738-1.769H16.531a.789.789,0,0,1-.789-.789v-2.109a.789.789,0,0,1,.789-.789h2.013a7.147,7.147,0,0,1,.738-1.779L17.857,347.6a.788.788,0,0,1,0-1.114l1.493-1.493a.789.789,0,0,1,1.115,0l1.424,1.424a7.162,7.162,0,0,1,1.779-.737v-2.014a.788.788,0,0,1,.788-.788h2.11a.787.787,0,0,1,.788.788v2.014a6.965,6.965,0,0,1,1.77.737l1.424-1.424a.789.789,0,0,1,1.115,0l1.493,1.493a.789.789,0,0,1,0,1.114l-1.425,1.424a7.1,7.1,0,0,1,.738,1.77h2.013a.789.789,0,0,1,.789.788v2.11a.788.788,0,0,1-.789.788Z" transform="translate(-15.742 -342.878)" fill="#21587b"/>
        </g>
        <g id="Grupo_39164" data-name="Grupo 39164" transform="translate(10.083 27.608)">
          <circle id="Elipse_3687" data-name="Elipse 3687" cx="3.168" cy="3.168" r="3.168" fill="#e8f3ff"/>
        </g>
        <g id="Grupo_39165" data-name="Grupo 39165" transform="translate(9.162 26.686)">
          <path id="Trazado_91755" data-name="Trazado 91755" d="M26.854,358.079a4.09,4.09,0,1,1,4.09-4.09A4.095,4.095,0,0,1,26.854,358.079Zm0-6.337a2.247,2.247,0,1,0,2.247,2.247A2.249,2.249,0,0,0,26.854,351.743Z" transform="translate(-22.765 -349.9)" fill="#00223d"/>
        </g>
        <g id="Grupo_39166" data-name="Grupo 39166" transform="translate(2.565 20.089)">
          <path id="Trazado_91756" data-name="Trazado 91756" d="M26.348,363.11h-2.11a1.712,1.712,0,0,1-1.709-1.71v-1.337c-.233-.084-.461-.179-.685-.283l-.946.945a1.75,1.75,0,0,1-2.418,0l-1.493-1.493a1.711,1.711,0,0,1,0-2.417l.943-.944q-.155-.33-.281-.677H16.312a1.712,1.712,0,0,1-1.71-1.71v-2.11a1.712,1.712,0,0,1,1.71-1.709h1.337q.126-.349.284-.685l-.946-.946a1.709,1.709,0,0,1,0-2.418l1.493-1.493a1.75,1.75,0,0,1,2.418,0l.946.945c.223-.105.452-.2.685-.284v-1.337a1.712,1.712,0,0,1,1.709-1.71h2.11a1.712,1.712,0,0,1,1.71,1.71v1.337c.231.084.457.178.677.281l.943-.942a1.751,1.751,0,0,1,2.418,0l1.493,1.493a1.709,1.709,0,0,1,0,2.418l-.945.945q.156.332.281.676h1.338a1.713,1.713,0,0,1,1.71,1.71v2.11a1.712,1.712,0,0,1-1.71,1.71H32.93q-.126.352-.284.686l.943.943a1.712,1.712,0,0,1,0,2.418L32.1,360.725a1.749,1.749,0,0,1-2.418,0l-.943-.943q-.331.156-.677.281V361.4A1.712,1.712,0,0,1,26.348,363.11Zm-1.977-1.843h1.843v-1.88a.923.923,0,0,1,.686-.891,6.015,6.015,0,0,0,1.536-.638.922.922,0,0,1,1.121.141l1.33,1.329,1.305-1.305-1.33-1.329a.922.922,0,0,1-.141-1.122,5.972,5.972,0,0,0,.638-1.541.923.923,0,0,1,.892-.689h1.88V351.5h-1.88a.922.922,0,0,1-.891-.686,6.222,6.222,0,0,0-.642-1.54.922.922,0,0,1,.145-1.116l1.33-1.33-1.305-1.3-1.33,1.329a.918.918,0,0,1-1.122.141,6.026,6.026,0,0,0-1.535-.638.921.921,0,0,1-.686-.891V343.58H24.371v1.881a.92.92,0,0,1-.686.891,6.249,6.249,0,0,0-1.55.643.921.921,0,0,1-1.116-.145l-1.329-1.329-1.3,1.3,1.329,1.33a.921.921,0,0,1,.145,1.115,6.254,6.254,0,0,0-.642,1.551.922.922,0,0,1-.891.686h-1.88v1.843h1.88a.922.922,0,0,1,.891.685,6.062,6.062,0,0,0,.638,1.536.922.922,0,0,1-.141,1.122l-1.33,1.329,1.305,1.305L21.019,358a.922.922,0,0,1,1.116-.145,6.227,6.227,0,0,0,1.551.642.923.923,0,0,1,.685.891Zm7.915-3.15h0Z" transform="translate(-14.602 -341.737)" fill="#00223d"/>
        </g>
        <g id="Grupo_39167" data-name="Grupo 39167" transform="translate(28.167 21.011)">
          <rect id="Rectángulo_27544" data-name="Rectángulo 27544" width="3.226" height="12.083" fill="#3c5959"/>
        </g>
        <g id="Grupo_39168" data-name="Grupo 39168" transform="translate(28.167 37.241)">
          <rect id="Rectángulo_27545" data-name="Rectángulo 27545" width="3.226" height="3.299" fill="#3c5959"/>
        </g>
        <g id="Grupo_39169" data-name="Grupo 39169" transform="translate(37.779 21.011)">
          <rect id="Rectángulo_27546" data-name="Rectángulo 27546" width="3.226" height="4.525" fill="#3c5959"/>
        </g>
        <g id="Grupo_39170" data-name="Grupo 39170" transform="translate(37.779 29.684)">
          <rect id="Rectángulo_27547" data-name="Rectángulo 27547" width="3.226" height="10.857" fill="#3c5959"/>
        </g>
        <g id="Grupo_39171" data-name="Grupo 39171" transform="translate(47.401 21.011)">
          <rect id="Rectángulo_27548" data-name="Rectángulo 27548" width="3.226" height="10.009" fill="#3c5959"/>
        </g>
        <g id="Grupo_39172" data-name="Grupo 39172" transform="translate(47.401 35.168)">
          <rect id="Rectángulo_27549" data-name="Rectángulo 27549" width="3.226" height="5.373" fill="#3c5959"/>
        </g>
        <g id="Grupo_39173" data-name="Grupo 39173" transform="translate(27.246 20.089)">
          <path id="Trazado_91757" data-name="Trazado 91757" d="M49.288,355.663H46.062a.922.922,0,0,1-.921-.922V342.659a.922.922,0,0,1,.921-.922h3.225a.922.922,0,0,1,.922.922v12.082A.922.922,0,0,1,49.288,355.663Zm-2.3-1.843h1.383V343.58H46.984Z" transform="translate(-45.141 -341.737)" fill="#00223d"/>
        </g>
        <g id="Grupo_39174" data-name="Grupo 39174" transform="translate(27.246 36.32)">
          <path id="Trazado_91758" data-name="Trazado 91758" d="M49.288,366.962H46.062a.921.921,0,0,1-.921-.921v-3.3a.921.921,0,0,1,.921-.921h3.225a.922.922,0,0,1,.922.921v3.3A.922.922,0,0,1,49.288,366.962Zm-2.3-1.843h1.383v-1.456H46.984Z" transform="translate(-45.141 -361.82)" fill="#00223d"/>
        </g>
        <g id="Grupo_39175" data-name="Grupo 39175" transform="translate(36.858 20.089)">
          <path id="Trazado_91759" data-name="Trazado 91759" d="M61.182,348.106H57.956a.922.922,0,0,1-.921-.922v-4.525a.922.922,0,0,1,.921-.922h3.225a.922.922,0,0,1,.922.922v4.525A.922.922,0,0,1,61.182,348.106Zm-2.3-1.843H60.26V343.58H58.878Z" transform="translate(-57.035 -341.737)" fill="#00223d"/>
        </g>
        <g id="Grupo_39176" data-name="Grupo 39176" transform="translate(36.858 28.763)">
          <path id="Trazado_91760" data-name="Trazado 91760" d="M61.182,365.169H57.956a.921.921,0,0,1-.921-.921V353.39a.921.921,0,0,1,.921-.921h3.225a.922.922,0,0,1,.922.921v10.857A.922.922,0,0,1,61.182,365.169Zm-2.3-1.843H60.26v-9.013H58.878Z" transform="translate(-57.035 -352.469)" fill="#00223d"/>
        </g>
        <g id="Grupo_39177" data-name="Grupo 39177" transform="translate(46.479 20.089)">
          <path id="Trazado_91761" data-name="Trazado 91761" d="M73.088,353.59H69.862a.922.922,0,0,1-.922-.922V342.659a.922.922,0,0,1,.922-.922h3.225a.922.922,0,0,1,.922.922v10.008A.922.922,0,0,1,73.088,353.59Zm-2.3-1.843h1.383V343.58H70.783Z" transform="translate(-68.94 -341.737)" fill="#00223d"/>
        </g>
        <g id="Grupo_39178" data-name="Grupo 39178" transform="translate(46.479 34.246)">
          <path id="Trazado_91762" data-name="Trazado 91762" d="M73.088,366.47H69.862a.922.922,0,0,1-.922-.921v-5.373a.922.922,0,0,1,.922-.921h3.225a.922.922,0,0,1,.922.921v5.373A.922.922,0,0,1,73.088,366.47Zm-2.3-1.843h1.383V361.1H70.783Z" transform="translate(-68.94 -359.254)" fill="#00223d"/>
        </g>
        <g id="Grupo_39179" data-name="Grupo 39179" transform="translate(25.246 33.094)">
          <path id="Trazado_91763" data-name="Trazado 91763" d="M51.347,359.9a2.075,2.075,0,0,1-2.074,2.074H44.74a2.074,2.074,0,0,1,0-4.148h4.534A2.077,2.077,0,0,1,51.347,359.9Z" transform="translate(-42.666 -357.828)" fill="#ffeb54"/>
        </g>
        <g id="Grupo_39180" data-name="Grupo 39180" transform="translate(35.052 25.536)">
          <path id="Trazado_91764" data-name="Trazado 91764" d="M63.481,350.551a2.076,2.076,0,0,1-2.074,2.074H56.874a2.074,2.074,0,0,1,0-4.148h4.534A2.077,2.077,0,0,1,63.481,350.551Z" transform="translate(-54.8 -348.477)" fill="#ffeb54"/>
        </g>
        <g id="Grupo_39181" data-name="Grupo 39181" transform="translate(44.729 31.021)">
          <path id="Trazado_91765" data-name="Trazado 91765" d="M75.446,357.336a2.063,2.063,0,0,1-.609,1.466,2.03,2.03,0,0,1-1.465.608H68.848a2.073,2.073,0,0,1,0-4.147h4.525A2.07,2.07,0,0,1,75.446,357.336Z" transform="translate(-66.774 -355.263)" fill="#ffeb54"/>
        </g>
        <g id="Grupo_39182" data-name="Grupo 39182" transform="translate(24.323 32.172)">
          <path id="Trazado_91766" data-name="Trazado 91766" d="M49.055,362.679H44.52a3,3,0,0,1,0-5.991h4.535a3,3,0,0,1,0,5.991Zm-4.535-4.148a1.152,1.152,0,0,0,0,2.3h4.535a1.152,1.152,0,0,0,0-2.3Z" transform="translate(-41.525 -356.688)" fill="#00223d"/>
        </g>
        <g id="Grupo_39183" data-name="Grupo 39183" transform="translate(34.13 24.615)">
          <path id="Trazado_91767" data-name="Trazado 91767" d="M61.189,353.328H56.654a3,3,0,0,1,0-5.991h4.535a3,3,0,0,1,0,5.991Zm-4.535-4.147a1.152,1.152,0,0,0,0,2.3h4.535a1.152,1.152,0,1,0,0-2.3Z" transform="translate(-53.659 -347.337)" fill="#00223d"/>
        </g>
        <g id="Grupo_39184" data-name="Grupo 39184" transform="translate(43.807 30.099)">
          <path id="Trazado_91768" data-name="Trazado 91768" d="M73.154,360.113H68.629a3,3,0,0,1,0-5.991h4.525a2.994,2.994,0,0,1,2.117,5.112A2.937,2.937,0,0,1,73.154,360.113Zm-4.525-4.147a1.126,1.126,0,0,0-.806.331,1.15,1.15,0,0,0,.806,1.974h4.525a1.111,1.111,0,0,0,.806-.331,1.15,1.15,0,0,0-.806-1.974Z" transform="translate(-65.633 -354.122)" fill="#00223d"/>
        </g>
        <g id="Grupo_39185" data-name="Grupo 39185" transform="translate(45.358 3.212)">
          <path id="Trazado_91769" data-name="Trazado 91769" d="M70.85,327.447a3.3,3.3,0,1,1,3.3-3.3A3.3,3.3,0,0,1,70.85,327.447Zm0-4.75A1.453,1.453,0,1,0,72.3,324.15,1.456,1.456,0,0,0,70.85,322.7Z" transform="translate(-67.553 -320.853)" fill="#00223d"/>
        </g>
        <g id="Grupo_39186" data-name="Grupo 39186" transform="translate(35.525 3.212)">
          <path id="Trazado_91770" data-name="Trazado 91770" d="M58.682,327.447a3.3,3.3,0,1,1,3.3-3.3A3.3,3.3,0,0,1,58.682,327.447Zm0-4.75a1.453,1.453,0,1,0,1.454,1.454A1.455,1.455,0,0,0,58.682,322.7Z" transform="translate(-55.385 -320.853)" fill="#00223d"/>
        </g>
      </g>
    </g>
  </g>
</svg>
