<svg xmlns="http://www.w3.org/2000/svg" xmlns:xlink="http://www.w3.org/1999/xlink" width="415.954" height="314.848" viewBox="0 0 415.954 314.848">
  <defs>
    <linearGradient id="linear-gradient" x1="76.971" y1="0.5" x2="77.971" y2="0.5" gradientUnits="objectBoundingBox">
      <stop offset="0" stop-color="#c0bff6"/>
      <stop offset="0.294" stop-color="#c4c3f6"/>
      <stop offset="0.64" stop-color="#d2d2f9"/>
      <stop offset="1" stop-color="#e9e9fd"/>
    </linearGradient>
    <linearGradient id="linear-gradient-2" x1="-8.296" y1="0.5" x2="-7.296" y2="0.5" xlink:href="#linear-gradient"/>
    <clipPath id="clip-path">
      <path id="SVGID" d="M512.2,207.407l-83.686,48.316L438.9,316.9l83.629-48.284Z" fill="none"/>
    </clipPath>
    <linearGradient id="linear-gradient-3" x1="16.415" y1="0.5" x2="17.415" y2="0.5" xlink:href="#linear-gradient"/>
    <linearGradient id="linear-gradient-4" x1="62.814" y1="0.5" x2="63.814" y2="0.5" xlink:href="#linear-gradient"/>
    <linearGradient id="linear-gradient-5" x1="-3.875" y1="0.5" x2="-2.875" y2="0.5" xlink:href="#linear-gradient"/>
    <linearGradient id="linear-gradient-6" x1="-1.925" y1="0.5" x2="-0.925" y2="0.5" gradientUnits="objectBoundingBox">
      <stop offset="0" stop-color="#fff"/>
      <stop offset="1" stop-color="#d2e6ee"/>
    </linearGradient>
    <linearGradient id="linear-gradient-7" x1="-7.791" y1="0.5" x2="-6.791" y2="0.5" xlink:href="#linear-gradient"/>
    <clipPath id="clip-path-2">
      <path id="SVGID-2" data-name="SVGID" d="M299.479,207.407l83.686,48.316L372.787,316.9l-83.629-48.284Z" fill="none"/>
    </clipPath>
    <linearGradient id="linear-gradient-8" x1="-2.689" y1="0.5" x2="-1.689" y2="0.5" xlink:href="#linear-gradient"/>
    <linearGradient id="linear-gradient-9" x1="-12.614" y1="0.5" x2="-11.614" y2="0.5" xlink:href="#linear-gradient"/>
  </defs>
  <g id="Grupo_34952" data-name="Grupo 34952" transform="translate(-194.546 -85.652)">
    <path id="Trazado_85814" data-name="Trazado 85814" d="M600,125.943,585.186,134.5v27.559l-131.6,75.976-10-5.773,67.882-39.193v-7.006l12.035-6.949V163l23.339-13.475a3.956,3.956,0,0,0,3.231-.146,1.078,1.078,0,0,0,0-2.043,3.906,3.906,0,0,0-3.539,0c-.882.509-.96,1.3-.252,1.865l-23.339,13.475v16.115l-11.474,6.625V159.607l-.14-.081L504.7,155.7l39.793-22.975V106.885l28.269-16.321a3.956,3.956,0,0,0,3.231-.146,1.078,1.078,0,0,0,0-2.043,3.906,3.906,0,0,0-3.539,0c-.881.509-.96,1.3-.252,1.865l-28.269,16.321V132.4l-39.793,22.975-64.7-37.352v-28.9a3.469,3.469,0,0,0,1.49-.407,1.079,1.079,0,0,0,0-2.044,3.915,3.915,0,0,0-3.54,0,1.079,1.079,0,0,0,0,2.044,3.464,3.464,0,0,0,1.489.407v29.225l.14.081,38.913,22.467H449.578l-22.931-13.239c.708-.565.629-1.356-.252-1.865a3.915,3.915,0,0,0-3.54,0,1.079,1.079,0,0,0,0,2.044,3.956,3.956,0,0,0,3.231.145l23.341,13.476h29.467v-.008l32.017,18.485v32.812l-67.883,39.192-9.1-5.255,48.037-27.736a3.959,3.959,0,0,0,3.232-.145,1.079,1.079,0,0,0,0-2.044,3.915,3.915,0,0,0-3.54,0c-.881.509-.96,1.3-.252,1.865l-48.039,27.736-8.788-5.074L482.04,188.1h15.617a1.436,1.436,0,0,0,.685.742,3.913,3.913,0,0,0,3.539,0,1.079,1.079,0,0,0,0-2.044,3.913,3.913,0,0,0-3.539,0,1.44,1.44,0,0,0-.685.742H481.889l-.065.038-57.81,33.375-3.547-2.048-.14.08-2.59,1.5-13.768-7.949V201.475l11.375-6.568v.029h17.848l19.651-11.345a3.956,3.956,0,0,0,3.231-.146,1.078,1.078,0,0,0,0-2.043,3.91,3.91,0,0,0-3.539,0c-.882.509-.961,1.3-.253,1.865l-19.24,11.108H416.265L449.7,175.07a3.942,3.942,0,0,0,3.3-.113,1.078,1.078,0,0,0,0-2.043,3.909,3.909,0,0,0-3.54,0c-.86.5-.962,1.263-.309,1.825L407.446,198.82V193.5l24.815-14.327V169.054l20.2-11.665a3.959,3.959,0,0,0,3.232-.145,1.079,1.079,0,0,0,0-2.044,3.915,3.915,0,0,0-3.54,0c-.881.509-.96,1.3-.252,1.866l-20.2,11.665v10.115l-24.816,14.327v5.971l-3.476,2.006v11.71l13.767,7.949-9.046,5.222L379.8,209.675V191.081l19.236-11.106a3.948,3.948,0,0,0,3.3-.113,1.079,1.079,0,0,0,0-2.044,3.913,3.913,0,0,0-3.539,0c-.86.5-.962,1.264-.309,1.826L379.8,190.434V175.413l14.765-8.524V138.632a3.469,3.469,0,0,0,1.49-.407,1.079,1.079,0,0,0,0-2.044,3.915,3.915,0,0,0-3.54,0,1.079,1.079,0,0,0,0,2.044,3.465,3.465,0,0,0,1.489.407v27.933l-14.205,8.2V124.942h-.56l0,85.057,28.329,16.357-10.159,5.865-37.027-21.378V159.93l-17.8-10.277V130.5l-15.715-9.073c.708-.565.629-1.357-.252-1.866a3.915,3.915,0,0,0-3.54,0,1.079,1.079,0,0,0,0,2.044,3.956,3.956,0,0,0,3.231.145l15.716,9.074v19.15l17.8,10.277v50.914l37.026,21.378-7.529,4.347L339.347,208.04V164.6l-.14-.082-44.233-25.537c.708-.565.63-1.357-.252-1.866a3.913,3.913,0,0,0-3.539,0,1.079,1.079,0,0,0,0,2.044,3.956,3.956,0,0,0,3.231.145l44.373,25.619v43.44l.14.081,49.831,28.771-12.2,7.045-83.142-48V174.644l-.14-.082-69.605-40.186c.708-.565.629-1.357-.252-1.866a3.915,3.915,0,0,0-3.54,0,1.079,1.079,0,0,0,0,2.044,3.956,3.956,0,0,0,3.231.145l69.746,40.268v21.615l.14.082,46.624,26.918H302.634L259.82,198.865c.709-.565.63-1.357-.252-1.866a3.913,3.913,0,0,0-3.539,0,1.079,1.079,0,0,0,0,2.044,3.96,3.96,0,0,0,3.231.145l43.223,24.956,38.1,0,35.407,20.443-14.183,8.188L331.377,235.2H282.509l-55.581-32.09H196.094c-11.863-7.823-.151.561-.151.561h30.834l42,24.248H232.5l-17.47-10.086c.708-.565.629-1.357-.252-1.866a3.915,3.915,0,0,0-3.54,0,1.079,1.079,0,0,0,0,2.044,3.956,3.956,0,0,0,3.231.145l17.881,10.323h37.4l12.611,7.282h48.868l8.516,4.917H318.967l-.065.037-10.42,6.016H265.064l-12.249-7.071h-24.56a1.431,1.431,0,0,0-.685-.741,3.906,3.906,0,0,0-3.539,0,1.078,1.078,0,0,0,0,2.043,3.906,3.906,0,0,0,3.539,0,1.434,1.434,0,0,0,.685-.741h24.41l12.248,7.071h42.6l-11.732,6.774a3.959,3.959,0,0,0-3.232.145,1.078,1.078,0,0,0,0,2.043,3.909,3.909,0,0,0,3.54,0c.881-.508.96-1.3.253-1.864l22.778-13.152h21.6L361.249,253.1l-7.588,4.381.421.244,4.462,2.576h-14.2l-18.556-10.714c.707-.565.629-1.357-.253-1.866a3.913,3.913,0,0,0-3.539,0,1.079,1.079,0,0,0,0,2.044,3.958,3.958,0,0,0,3.23.146l18.968,10.95h15.316l10.386,6-6.387,3.688H352.185l-.065.037-9.895,5.713h-7.433L318.006,266.6c.753-.567.691-1.379-.208-1.9a3.907,3.907,0,0,0-3.539,0,1.078,1.078,0,0,0,0,2.043,3.969,3.969,0,0,0,3.176.172l17.207,9.933h7.733l.065-.037,9.895-5.713h10.208l-20.418,11.788H331.1l-22.982-13.267h-69.3l-42.986-24.818c.744-.566.679-1.374-.216-1.891a3.915,3.915,0,0,0-3.54,0,1.079,1.079,0,0,0,0,2.044,3.967,3.967,0,0,0,3.187.166l43.4,25.059h69.3l22.982,13.268h11.325l.065-.037,28.123-16.236,7.377,4.259-31.776,18.347H323.652l-18.491-10.676H257.7a1.431,1.431,0,0,0-.685-.741,3.906,3.906,0,0,0-3.539,0,1.078,1.078,0,0,0,0,2.043,3.908,3.908,0,0,0,3.54,0,1.439,1.439,0,0,0,.685-.741H305.01l17.519,10.115H255.658l-.064.037-63.727,36.794a3.956,3.956,0,0,0-3.231.145,1.079,1.079,0,0,0,0,2.044,3.913,3.913,0,0,0,3.539,0c.881-.509.961-1.3.253-1.865l63.381-36.594h90.4l.065-.038L378.4,271.762l8.382,4.84-44.311,25.583H264.447l-.064.038L196.059,341.67c-24.832-1.807.15.56.15.56l.065-.037L264.6,302.746h56.834l-83.453,48.182v12.683l-33.29,19.22a3.956,3.956,0,0,0-3.231.146,1.078,1.078,0,0,0,0,2.043,3.915,3.915,0,0,0,3.54,0c.881-.509.96-1.3.252-1.865l33.289-19.22V351.252l84.016-48.506h19.507L300.051,327v5.346l-20.1,11.606a3.96,3.96,0,0,0-3.231.146,1.079,1.079,0,0,0,0,2.044,3.913,3.913,0,0,0,3.539,0c.882-.509.961-1.3.253-1.866l10.945-6.319v14.649l-63.236,36.51a3.954,3.954,0,0,0-3.23.145,1.079,1.079,0,0,0,0,2.044,3.913,3.913,0,0,0,3.539,0c.881-.509.96-1.3.252-1.866l63.236-36.509v-15.3l8.6-4.963v-5.346l42.357-24.455-.14-.243,44.516-25.7,8.092,4.672L349.706,308v43.44L265.6,400h1.122l69.637-40.2v39.288l-1.587.916h1.122l1.025-.592V359.472l13.35-7.707V308.324l45.73-26.4,7.125,4.114-35.263,20.359v23.814l.141.081,40.093,23.147v8.076L385.417,374.6a3.954,3.954,0,0,0-3.23.146,1.079,1.079,0,0,0,0,2.044,3.913,3.913,0,0,0,3.539,0c.882-.509.961-1.3.253-1.866l22.673-13.09v-8.724l-.14-.081-40.094-23.147V306.718l26.645-15.383v9.921l-12.215,7.052a3.958,3.958,0,0,0-3.23.145,1.079,1.079,0,0,0,0,2.044,3.913,3.913,0,0,0,3.539,0c.881-.509.96-1.3.253-1.865l12.214-7.052V291.012l8.059-4.653,9.529,5.5v17.278l-17.974,10.377V331.46l.14.081,37.838,21.845c-.708.565-.629,1.356.252,1.865a3.908,3.908,0,0,0,3.54,0,1.078,1.078,0,0,0,0-2.043,3.957,3.957,0,0,0-3.231-.146L395.8,331.136v-11.3l17.413-10.053v11.908L436.5,335.141c-.707.565-.628,1.356.253,1.865a3.915,3.915,0,0,0,3.54,0,1.079,1.079,0,0,0,0-2.044,3.956,3.956,0,0,0-3.231-.145l-23.29-13.447V292.184l6.692,3.864.141-.08,10.888-6.287,9.988,5.767v14.014l26.547,15.326V338a3.479,3.479,0,0,0-1.489.407,1.079,1.079,0,0,0,0,2.044,3.915,3.915,0,0,0,3.54,0,1.079,1.079,0,0,0,0-2.044,3.479,3.479,0,0,0-1.49-.407V324.464l-26.546-15.326V295.772l42.975,24.812v26.3l-23.308,13.457H440.32l-.065.037-36.7,21.19a3.961,3.961,0,0,0-3.231.146,1.079,1.079,0,0,0,0,2.044,3.912,3.912,0,0,0,3.54,0c.881-.508.96-1.3.252-1.864L440.471,360.9h20.267L393.313,399.83a3.957,3.957,0,0,0-3.231.146c-.013.007-.021.016-.034.024h4.094l91.436-52.791V320.26l-.14-.081-53.384-30.822,10.743-6.2,91.145,52.622v31.4l31.136,17.977c-.708.564-.629,1.356.252,1.865a3.915,3.915,0,0,0,3.54,0,1.079,1.079,0,0,0,0-2.044,3.96,3.96,0,0,0-3.231-.146L534.5,366.853v-31.4l-.14-.081-91-52.541,10.229-5.906,90.136,52.04h53.753L600,330.421v-.647l-2.373-1.37H543.875l-76.089-43.929h15.3l25.97,14.993h20l.065-.037,27.743-16.017a3.957,3.957,0,0,0,3.231-.146,1.079,1.079,0,0,0,0-2.044,3.915,3.915,0,0,0-3.54,0c-.881.509-.96,1.3-.252,1.865l-27.4,15.818h-19.7L483.24,283.914H466.815L454.149,276.6l27.3-15.763,7.764,4.482v11.766l19.722,11.387c-.707.565-.628,1.356.253,1.865a3.915,3.915,0,0,0,3.54,0,1.079,1.079,0,0,0,0-2.044,3.957,3.957,0,0,0-3.231-.145l-19.724-11.387V265.644l21.033,12.143h9.96l.065-.037,11.875-6.856a3.954,3.954,0,0,0,3.23-.146,1.078,1.078,0,0,0,0-2.043,3.907,3.907,0,0,0-3.539,0c-.882.509-.96,1.3-.252,1.865l-11.529,6.657h-9.66l-28.946-16.714,5.258-3.035-.42-.244-16.363-9.446,7.859-4.537h11.883l8.5,4.91c-.677.563-.586,1.341.284,1.843a3.913,3.913,0,0,0,3.539,0,1.078,1.078,0,0,0,0-2.043,3.947,3.947,0,0,0-3.268-.128l-8.908-5.143H479.319l20.039-11.569,47.151,27.223h33.928l.065-.037,19.1-11.029a3.687,3.687,0,0,0,.4.11v-2.58a3.034,3.034,0,0,0-.7.28c-.881.509-.96,1.3-.252,1.865l-18.757,10.83H546.66L510.3,236.788h15.563l15.215,8.785c-.708.565-.629,1.356.252,1.865a3.909,3.909,0,0,0,3.54,0,1.078,1.078,0,0,0,0-2.043,3.956,3.956,0,0,0-3.231-.146l-15.625-9.021H509.325l-9.406-5.431,23.938-13.82H600v-.561H524.828l9.495-5.483h56.633l.065-.037L600,205.711v-.647l-9.194,5.308H534.173l-.065.037-64.18,37.054-7.124-4.113,67.474-38.957h49.347l.065-.038L600,192.63v-.647l-20.525,11.85H530.128l-.065.037-67.821,39.156-8.092-4.672,131.6-75.977V134.82L600,126.59ZM486.151,257.478,420.465,295.4l-65.683-37.923,65.685-37.922Z" transform="translate(10)" fill="#00223d" stroke="#00223d" stroke-width="1" opacity="0.1"/>
    <g id="Grupo_34864" data-name="Grupo 34864">
      <g id="Grupo_34861" data-name="Grupo 34861" opacity="0.67">
        <path id="Trazado_85815" data-name="Trazado 85815" d="M405.763,371.33l-189.48-109.4L405.757,152.541l189.48,109.4Z" fill="#00223d"/>
      </g>
      <g id="Grupo_34862" data-name="Grupo 34862" opacity="0.67">
        <path id="Trazado_85816" data-name="Trazado 85816" d="M405.762,354.365l-160.094-92.43,160.09-92.428,160.094,92.43Z" fill="#d2e1f1"/>
      </g>
      <g id="Grupo_34863" data-name="Grupo 34863" opacity="0.9">
        <path id="Trazado_85817" data-name="Trazado 85817" d="M405.762,334.652l-125.95-72.717,125.947-72.715,125.95,72.717Z" fill="#00223d"/>
      </g>
    </g>
    <g id="Grupo_34951" data-name="Grupo 34951">
      <g id="Grupo_34950" data-name="Grupo 34950">
        <g id="Grupo_34875" data-name="Grupo 34875">
          <g id="Grupo_34865" data-name="Grupo 34865" style="mix-blend-mode: lighten;isolation: isolate">
            <path id="Trazado_85818" data-name="Trazado 85818" d="M285.533,254.177a7.7,7.7,0,0,1-3.851-1.029L237.33,227.542a2.23,2.23,0,0,1,0-3.861l80.249-46.331a.445.445,0,0,1,.445,0l.374.215,47.608,27.487a2.23,2.23,0,0,1,0,3.86l-76.62,44.236A7.712,7.712,0,0,1,285.533,254.177ZM317.8,178.25l-80.026,46.2a1.339,1.339,0,0,0,0,2.319l44.352,25.606a6.952,6.952,0,0,0,6.813,0l76.62-44.236a1.339,1.339,0,0,0,0-2.318Z" fill="#42e8e0"/>
          </g>
          <g id="Grupo_34873" data-name="Grupo 34873">
            <g id="Grupo_34872" data-name="Grupo 34872">
              <g id="Grupo_34871" data-name="Grupo 34871">
                <g id="Grupo_34870" data-name="Grupo 34870">
                  <g id="Grupo_34869" data-name="Grupo 34869">
                    <path id="Trazado_85819" data-name="Trazado 85819" d="M371.756,192.612l-4.656,2.431-46.683-26.952a3.388,3.388,0,0,0-3.047.126L236.854,214.7c-.771-.431-4.284-2.12-4.284-2.12l1.7,4.44.006-.006a1.015,1.015,0,0,0,.477.529l49.167,28.387a3.385,3.385,0,0,0,3.047-.127l82.393-47.569a1.476,1.476,0,0,0,.691-.735l.007,0Z" fill="#00223d"/>
                    <path id="Trazado_85820" data-name="Trazado 85820" d="M371.036,193.378,286.594,242.13a3.471,3.471,0,0,1-3.123.13l-50.39-29.093c-.8-.462-.7-1.269.225-1.8l84.442-48.753a3.472,3.472,0,0,1,3.122-.129l50.39,29.093C372.061,192.037,371.96,192.844,371.036,193.378Z" fill="#d2e6ee"/>
                    <path id="Trazado_85821" data-name="Trazado 85821" d="M371.036,192.891l-84.442,48.752a3.471,3.471,0,0,1-3.123.13l-50.39-29.093a1.038,1.038,0,0,1-.489-.544.85.85,0,0,0,.489,1.031l50.39,29.093a3.471,3.471,0,0,0,3.123-.13l84.442-48.752c.622-.359.861-.841.714-1.259A1.492,1.492,0,0,1,371.036,192.891Z" fill="#fff"/>
                    <path id="Trazado_85822" data-name="Trazado 85822" d="M261.124,231.584v-.926c0-.088.053-.128.119-.09l3.266,1.886a.285.285,0,0,1,.12.227v.927c0,.087-.054.128-.12.09l-3.266-1.886A.285.285,0,0,1,261.124,231.584Z" fill="#2842a2"/>
                    <path id="Trazado_85823" data-name="Trazado 85823" d="M266.008,234.4v-.926c0-.088.054-.128.119-.09l3.267,1.886a.287.287,0,0,1,.119.227v.926c0,.088-.054.129-.119.091l-3.267-1.886A.288.288,0,0,1,266.008,234.4Z" fill="#2842a2"/>
                    <g id="Grupo_34867" data-name="Grupo 34867">
                      <path id="Trazado_85824" data-name="Trazado 85824" d="M261.491,219.781l70.171-40.514a1.51,1.51,0,0,1,1.512,0l24.988,14.457a.539.539,0,0,1,0,.933l-70.138,40.495a1.515,1.515,0,0,1-1.511,0l-25.021-14.439A.538.538,0,0,1,261.491,219.781Z" fill="#d2e1f1"/>
                      <path id="Trazado_85825" data-name="Trazado 85825" d="M261.491,220.714l.251.145,69.92-40.368a1.51,1.51,0,0,1,1.512,0L357.91,194.8l.251-.145a.539.539,0,0,0,0-.933l-24.988-14.457a1.51,1.51,0,0,0-1.512,0l-70.171,40.514A.538.538,0,0,0,261.491,220.714Z" fill="#727997"/>
                      <g id="Grupo_34866" data-name="Grupo 34866">
                        <path id="Trazado_85826" data-name="Trazado 85826" d="M335.06,182.929l-64.637,37.318-3.2-1.279,65.131-37.6Z" fill="#00223d"/>
                        <path id="Trazado_85827" data-name="Trazado 85827" d="M341.7,186.766l-57.172,33.008-2.71-1.565L338.994,185.2Z" fill="#24126a"/>
                        <path id="Trazado_85828" data-name="Trazado 85828" d="M346.032,189.264l-67.314,38.864-2.71-1.565L343.321,187.7Z" fill="#00223d"/>
                        <path id="Trazado_85829" data-name="Trazado 85829" d="M350.359,191.763l-67.314,38.864-2.71-1.565L347.649,190.2Z" fill="#00223d"/>
                        <path id="Trazado_85830" data-name="Trazado 85830" d="M354.687,194.261l-67.314,38.864-2.71-1.565L351.977,192.7Z" fill="#24126a"/>
                        <path id="Trazado_85831" data-name="Trazado 85831" d="M270.423,220.247l-2.71,1.565L265,220.247l2.71-1.565Z" fill="#00223d"/>
                        <path id="Trazado_85832" data-name="Trazado 85832" d="M287.819,217.876l-13.462,7.773-2.71-1.565,13.56-7.829Z" fill="#00223d"/>
                      </g>
                    </g>
                    <g id="Grupo_34868" data-name="Grupo 34868">
                      <path id="Trazado_85833" data-name="Trazado 85833" d="M286.473,201.625l18.92-10.924a.816.816,0,0,0,0-1.546l-12.938-7.47a2.959,2.959,0,0,0-2.678,0l-18.921,10.924a.816.816,0,0,0,0,1.546l12.939,7.47A2.959,2.959,0,0,0,286.473,201.625Z" fill="url(#linear-gradient)"/>
                      <path id="Trazado_85834" data-name="Trazado 85834" d="M270.856,193.241l18.921-10.923a2.959,2.959,0,0,1,2.678,0l12.938,7.47a1.151,1.151,0,0,1,.465.456c.2-.373.047-.794-.465-1.089l-12.938-7.47a2.959,2.959,0,0,0-2.678,0l-18.921,10.924c-.511.3-.66.716-.465,1.089A1.172,1.172,0,0,1,270.856,193.241Z" fill="#727997"/>
                    </g>
                  </g>
                </g>
              </g>
            </g>
          </g>
          <g id="Grupo_34874" data-name="Grupo 34874">
            <path id="Trazado_85835" data-name="Trazado 85835" d="M371.621,191.36l-10.674-63.329.858-.362-1.289-.739,0,.008a.927.927,0,0,0-.994.068l-85.31,49.254a2.409,2.409,0,0,0-1.107,2.167l10.759,63.833a.8.8,0,0,0,.449.649h0l1.262.729.217-1.178-.072.021,84.793-48.955A2.409,2.409,0,0,0,371.621,191.36Z" fill="#00223d"/>
            <path id="Trazado_85836" data-name="Trazado 85836" d="M274.69,177.992l-1.4-.621a1.933,1.933,0,0,0-.18,1.056l10.759,63.833a.8.8,0,0,0,.449.649h0l1.262.729.217-1.178-.072.021,4.291-2.477Z" fill="#00223d"/>
            <path id="Trazado_85837" data-name="Trazado 85837" d="M371.852,194.295l-85.309,49.254c-.659.38-1.223.16-1.339-.522l-10.759-63.833a2.406,2.406,0,0,1,1.108-2.166l85.309-49.254c.659-.38,1.223-.161,1.339.521l10.759,63.833A2.409,2.409,0,0,1,371.852,194.295Z" fill="#37a3a5"/>
          </g>
        </g>
        <g id="Grupo_34886" data-name="Grupo 34886">
          <g id="Grupo_34876" data-name="Grupo 34876" style="mix-blend-mode: lighten;isolation: isolate">
            <path id="Trazado_85838" data-name="Trazado 85838" d="M526.15,254.177a7.705,7.705,0,0,1-3.851-1.029l-76.62-44.236a2.229,2.229,0,0,1,0-3.86l47.981-27.7a.447.447,0,0,1,.446,0l80.248,46.331a2.23,2.23,0,0,1,0,3.861L530,253.148A7.707,7.707,0,0,1,526.15,254.177ZM493.883,178.25l-.151.086-47.608,27.487a1.339,1.339,0,0,0,0,2.318l76.62,44.236h0a6.952,6.952,0,0,0,6.813,0l44.351-25.606a1.339,1.339,0,0,0,0-2.319Z" fill="#42e8e0"/>
          </g>
          <g id="Grupo_34884" data-name="Grupo 34884">
            <g id="Grupo_34883" data-name="Grupo 34883">
              <g id="Grupo_34882" data-name="Grupo 34882">
                <g id="Grupo_34881" data-name="Grupo 34881">
                  <g id="Grupo_34880" data-name="Grupo 34880">
                    <path id="Trazado_85839" data-name="Trazado 85839" d="M439.928,192.612l4.655,2.431,46.684-26.952a3.388,3.388,0,0,1,3.047.126L574.83,214.7c.77-.431,4.283-2.12,4.283-2.12l-1.7,4.44-.007-.006a1.012,1.012,0,0,1-.476.529l-49.167,28.387a3.388,3.388,0,0,1-3.048-.127l-82.393-47.569a1.476,1.476,0,0,1-.691-.735l-.006,0Z" fill="#00223d"/>
                    <path id="Trazado_85840" data-name="Trazado 85840" d="M440.647,193.378l84.442,48.752a3.471,3.471,0,0,0,3.123.13l50.39-29.093c.8-.462.7-1.269-.224-1.8l-84.442-48.753a3.474,3.474,0,0,0-3.123-.129l-50.39,29.093C439.623,192.037,439.723,192.844,440.647,193.378Z" fill="#d2e6ee"/>
                    <path id="Trazado_85841" data-name="Trazado 85841" d="M440.648,192.891l84.441,48.752a3.471,3.471,0,0,0,3.123.13L578.6,212.68a1.04,1.04,0,0,0,.49-.544.851.851,0,0,1-.49,1.031l-50.39,29.093a3.471,3.471,0,0,1-3.123-.13l-84.441-48.752c-.622-.359-.861-.841-.714-1.259A1.488,1.488,0,0,0,440.648,192.891Z" fill="#fff"/>
                    <path id="Trazado_85842" data-name="Trazado 85842" d="M550.559,231.584v-.926c0-.088-.053-.128-.119-.09l-3.266,1.886a.284.284,0,0,0-.119.227v.927c0,.087.053.128.119.09l3.266-1.886A.285.285,0,0,0,550.559,231.584Z" fill="#21587b"/>
                    <path id="Trazado_85843" data-name="Trazado 85843" d="M545.675,234.4v-.926c0-.088-.053-.128-.119-.09l-3.266,1.886a.285.285,0,0,0-.119.227v.926c0,.088.053.129.119.091l3.266-1.886A.285.285,0,0,0,545.675,234.4Z" fill="#21587b"/>
                    <g id="Grupo_34878" data-name="Grupo 34878">
                      <path id="Trazado_85844" data-name="Trazado 85844" d="M550.193,219.781l-70.172-40.514a1.508,1.508,0,0,0-1.511,0l-24.988,14.457a.539.539,0,0,0,0,.933l70.139,40.495a1.514,1.514,0,0,0,1.51,0l25.022-14.439A.539.539,0,0,0,550.193,219.781Z" fill="#d2e1f1"/>
                      <path id="Trazado_85845" data-name="Trazado 85845" d="M550.193,220.714l-.252.145-69.92-40.368a1.508,1.508,0,0,0-1.511,0L453.773,194.8l-.251-.145a.539.539,0,0,1,0-.933l24.988-14.457a1.508,1.508,0,0,1,1.511,0l70.172,40.514A.539.539,0,0,1,550.193,220.714Z" fill="#727997"/>
                      <g id="Grupo_34877" data-name="Grupo 34877">
                        <path id="Trazado_85846" data-name="Trazado 85846" d="M476.624,182.929l64.637,37.318,3.2-1.279-65.131-37.6Z" fill="#00223d"/>
                        <path id="Trazado_85847" data-name="Trazado 85847" d="M469.979,186.766l57.172,33.008,2.71-1.565L472.69,185.2Z" fill="#24126a"/>
                        <path id="Trazado_85848" data-name="Trazado 85848" d="M465.652,189.264l67.314,38.864,2.71-1.565L468.362,187.7Z" fill="#00223d"/>
                        <path id="Trazado_85849" data-name="Trazado 85849" d="M461.324,191.763l67.314,38.864,2.71-1.565L464.034,190.2Z" fill="#00223d"/>
                        <path id="Trazado_85850" data-name="Trazado 85850" d="M457,194.261l67.314,38.864,2.71-1.565L459.707,192.7Z" fill="#24126a"/>
                        <path id="Trazado_85851" data-name="Trazado 85851" d="M541.26,220.247l2.71,1.565,2.71-1.565-2.71-1.565Z" fill="#00223d"/>
                        <path id="Trazado_85852" data-name="Trazado 85852" d="M523.864,217.876l13.462,7.773,2.71-1.565-13.56-7.829Z" fill="#00223d"/>
                      </g>
                    </g>
                    <g id="Grupo_34879" data-name="Grupo 34879">
                      <path id="Trazado_85853" data-name="Trazado 85853" d="M525.211,201.625,506.29,190.7a.816.816,0,0,1,0-1.546l12.938-7.47a2.959,2.959,0,0,1,2.678,0l18.921,10.924a.816.816,0,0,1,0,1.546l-12.938,7.47A2.959,2.959,0,0,1,525.211,201.625Z" fill="url(#linear-gradient-2)"/>
                      <path id="Trazado_85854" data-name="Trazado 85854" d="M540.827,193.241l-18.92-10.923a2.961,2.961,0,0,0-2.679,0l-12.938,7.47a1.164,1.164,0,0,0-.465.456c-.2-.373-.046-.794.465-1.089l12.938-7.47a2.961,2.961,0,0,1,2.679,0l18.92,10.924c.511.3.661.716.465,1.089A1.166,1.166,0,0,0,540.827,193.241Z" fill="#727997"/>
                    </g>
                  </g>
                </g>
              </g>
            </g>
          </g>
          <g id="Grupo_34885" data-name="Grupo 34885">
            <path id="Trazado_85855" data-name="Trazado 85855" d="M440.062,191.36l10.674-63.329-.858-.362,1.29-.739,0,.008a.927.927,0,0,1,.994.068l85.309,49.254a2.408,2.408,0,0,1,1.108,2.167L527.818,242.26a.8.8,0,0,1-.45.649h0l-1.263.729-.216-1.178.072.021L441.17,193.527A2.408,2.408,0,0,1,440.062,191.36Z" fill="#00223d"/>
            <path id="Trazado_85856" data-name="Trazado 85856" d="M536.994,177.992l1.4-.621a1.926,1.926,0,0,1,.181,1.056L527.818,242.26a.8.8,0,0,1-.45.649h0l-1.263.729-.216-1.178.072.021-4.291-2.477Z" fill="#00223d"/>
            <path id="Trazado_85857" data-name="Trazado 85857" d="M439.831,194.295l85.31,49.254c.659.38,1.223.16,1.338-.522l10.759-63.833a2.4,2.4,0,0,0-1.107-2.166l-85.31-49.254c-.658-.38-1.222-.161-1.338.521l-10.759,63.833A2.41,2.41,0,0,0,439.831,194.295Z" fill="#37a3a5"/>
          </g>
        </g>
        <g id="Grupo_34898" data-name="Grupo 34898">
          <path id="Trazado_85858" data-name="Trazado 85858" d="M405.843,269.45l-79.434-45.861,79.432-45.86,79.434,45.861Z" fill="#b0c0d2"/>
          <path id="Trazado_85859" data-name="Trazado 85859" d="M405.842,256.928,348.1,223.589l57.743-33.338,57.744,33.339Z" fill="#00223d"/>
          <path id="Trazado_85860" data-name="Trazado 85860" d="M405.841,192.509l55.789,32.21,1.955-1.129-57.744-33.339L348.1,223.589l1.955,1.129Z" fill="#fff"/>
          <path id="Trazado_85861" data-name="Trazado 85861" d="M485.275,223.59v26l-79.432,45.86v-26Z" fill="#d2e1f1"/>
          <path id="Trazado_85862" data-name="Trazado 85862" d="M326.409,223.589v26l79.434,45.861v-26Z" fill="#00223d"/>
          <g id="Grupo_34887" data-name="Grupo 34887" opacity="0.51">
            <path id="Trazado_85863" data-name="Trazado 85863" d="M331.79,235.269v8.186L400.462,283.1v-8.186Z" fill="#7c90a0"/>
          </g>
          <path id="Trazado_85864" data-name="Trazado 85864" d="M405.843,267.96,327.7,222.844l-1.291.745,79.434,45.861,79.432-45.86-1.29-.745Z" fill="#fff"/>
          <path id="Trazado_85865" data-name="Trazado 85865" d="M473.36,241.807v4.653l-55.6,32.1v-4.653Z" fill="#37a3a5"/>
          <path id="Trazado_85867" data-name="Trazado 85867" d="M382.655,268.069l-14.384-8.306,0,1.715,14.384,8.306Z" fill="#42e8e0"/>
          <path id="Trazado_85868" data-name="Trazado 85868" d="M366.2,258.584l-3.9-2.25,0,1.715,3.9,2.25Z" fill="#42e8e0"/>
          <path id="Trazado_85869" data-name="Trazado 85869" d="M347.939,248.046l-7.974-4.6,0,1.715,7.974,4.6Z" fill="#42e8e0"/>
          <path id="Trazado_85870" data-name="Trazado 85870" d="M355.216,252.247l-5.766-3.33,0,1.715,5.766,3.33Z" fill="#42e8e0"/>
          <path id="Trazado_85871" data-name="Trazado 85871" d="M360.623,255.37l-3.9-2.25,0,1.715,3.9,2.25Z" fill="#42e8e0"/>
          <g id="Grupo_34897" data-name="Grupo 34897">
            <g id="Grupo_34888" data-name="Grupo 34888">
              <path id="Trazado_85872" data-name="Trazado 85872" d="M405.923,201.7l-2.522-1.456,2.522-1.456,2.522,1.456Z" fill="#42e8e0"/>
              <path id="Trazado_85873" data-name="Trazado 85873" d="M410.968,204.611l-2.522-1.456,2.522-1.456,2.522,1.456Z" fill="#42e8e0" opacity="0.1"/>
              <path id="Trazado_85874" data-name="Trazado 85874" d="M416.013,207.524l-2.522-1.456,2.522-1.456,2.522,1.456Z" fill="#42e8e0" opacity="0.4"/>
              <path id="Trazado_85875" data-name="Trazado 85875" d="M421.057,210.436l-2.522-1.456,2.522-1.456,2.522,1.456Z" fill="#42e8e0"/>
              <path id="Trazado_85876" data-name="Trazado 85876" d="M426.1,213.349l-2.522-1.456,2.522-1.456,2.522,1.456Z" fill="#42e8e0" opacity="0.4"/>
              <path id="Trazado_85877" data-name="Trazado 85877" d="M431.147,216.261l-2.522-1.456,2.522-1.456,2.522,1.456Z" fill="#42e8e0"/>
              <path id="Trazado_85878" data-name="Trazado 85878" d="M436.191,219.174l-2.522-1.456,2.522-1.456,2.522,1.456Z" fill="#42e8e0"/>
              <path id="Trazado_85879" data-name="Trazado 85879" d="M441.236,222.086l-2.522-1.456,2.522-1.456,2.522,1.456Z" fill="#42e8e0"/>
              <path id="Trazado_85880" data-name="Trazado 85880" d="M446.281,225l-2.522-1.456,2.522-1.456,2.522,1.456Z" fill="#42e8e0" opacity="0.1"/>
            </g>
            <g id="Grupo_34889" data-name="Grupo 34889">
              <path id="Trazado_85881" data-name="Trazado 85881" d="M400.858,204.623l-2.522-1.456,2.522-1.456,2.522,1.456Z" fill="#42e8e0"/>
              <path id="Trazado_85882" data-name="Trazado 85882" d="M405.9,207.535l-2.522-1.456,2.522-1.456,2.522,1.456Z" fill="#42e8e0"/>
              <path id="Trazado_85883" data-name="Trazado 85883" d="M410.948,210.448l-2.522-1.456,2.522-1.456,2.522,1.456Z" fill="#42e8e0"/>
              <path id="Trazado_85884" data-name="Trazado 85884" d="M415.992,213.361,413.47,211.9l2.522-1.456,2.522,1.456Z" fill="#42e8e0"/>
              <path id="Trazado_85885" data-name="Trazado 85885" d="M421.037,216.273l-2.522-1.456,2.522-1.456,2.522,1.456Z" fill="#42e8e0"/>
              <path id="Trazado_85886" data-name="Trazado 85886" d="M426.082,219.186l-2.522-1.456,2.522-1.456,2.522,1.456Z" fill="#42e8e0"/>
              <path id="Trazado_85887" data-name="Trazado 85887" d="M431.126,222.1l-2.522-1.456,2.522-1.456,2.522,1.456Z" fill="#42e8e0"/>
              <path id="Trazado_85888" data-name="Trazado 85888" d="M436.171,225.011l-2.522-1.456,2.522-1.456,2.522,1.456Z" fill="#42e8e0"/>
              <path id="Trazado_85889" data-name="Trazado 85889" d="M441.216,227.923l-2.522-1.456,2.522-1.456,2.522,1.456Z" fill="#42e8e0"/>
            </g>
            <g id="Grupo_34890" data-name="Grupo 34890">
              <path id="Trazado_85890" data-name="Trazado 85890" d="M395.793,207.547l-2.522-1.456,2.522-1.456,2.522,1.456Z" fill="#42e8e0"/>
              <path id="Trazado_85891" data-name="Trazado 85891" d="M400.838,210.46,398.316,209l2.522-1.456L403.36,209Z" fill="#42e8e0"/>
              <path id="Trazado_85892" data-name="Trazado 85892" d="M405.883,213.372l-2.522-1.456,2.522-1.456,2.522,1.456Z" fill="#42e8e0"/>
              <path id="Trazado_85893" data-name="Trazado 85893" d="M410.927,216.285l-2.522-1.456,2.522-1.456,2.522,1.456Z" fill="#42e8e0" opacity="0.1"/>
              <path id="Trazado_85894" data-name="Trazado 85894" d="M415.972,219.2l-2.522-1.456,2.522-1.456,2.522,1.456Z" fill="#42e8e0" opacity="0.4"/>
              <path id="Trazado_85895" data-name="Trazado 85895" d="M421.017,222.11l-2.522-1.456,2.522-1.456,2.522,1.456Z" fill="#42e8e0" opacity="0.4"/>
              <path id="Trazado_85896" data-name="Trazado 85896" d="M426.061,225.023l-2.522-1.456,2.522-1.456,2.522,1.456Z" fill="#42e8e0"/>
              <path id="Trazado_85897" data-name="Trazado 85897" d="M431.106,227.935l-2.522-1.456,2.522-1.456,2.522,1.456Z" fill="#42e8e0"/>
              <path id="Trazado_85898" data-name="Trazado 85898" d="M436.151,230.848l-2.522-1.456,2.522-1.456,2.522,1.456Z" fill="#42e8e0"/>
            </g>
            <g id="Grupo_34891" data-name="Grupo 34891">
              <path id="Trazado_85899" data-name="Trazado 85899" d="M390.728,210.471l-2.522-1.456,2.522-1.456,2.522,1.456Z" fill="#42e8e0" opacity="0.4"/>
              <path id="Trazado_85900" data-name="Trazado 85900" d="M395.773,213.384l-2.522-1.456,2.522-1.456,2.522,1.456Z" fill="#42e8e0" opacity="0.4"/>
              <path id="Trazado_85901" data-name="Trazado 85901" d="M400.818,216.3,398.3,214.84l2.522-1.456,2.522,1.456Z" fill="#42e8e0" opacity="0.1"/>
              <path id="Trazado_85902" data-name="Trazado 85902" d="M405.862,219.209l-2.522-1.456,2.522-1.456,2.522,1.456Z" fill="#42e8e0"/>
              <path id="Trazado_85903" data-name="Trazado 85903" d="M410.907,222.122l-2.522-1.456,2.522-1.456,2.522,1.456Z" fill="#42e8e0"/>
              <path id="Trazado_85904" data-name="Trazado 85904" d="M415.952,225.034l-2.522-1.456,2.522-1.456,2.522,1.456Z" fill="#42e8e0"/>
              <path id="Trazado_85905" data-name="Trazado 85905" d="M421,227.947l-2.522-1.456L421,225.034l2.522,1.456Z" fill="#42e8e0" opacity="0.4"/>
              <path id="Trazado_85906" data-name="Trazado 85906" d="M426.041,230.859l-2.522-1.456,2.522-1.456,2.522,1.456Z" fill="#42e8e0"/>
              <path id="Trazado_85907" data-name="Trazado 85907" d="M431.086,233.772l-2.522-1.456,2.522-1.456,2.522,1.456Z" fill="#42e8e0"/>
            </g>
            <g id="Grupo_34892" data-name="Grupo 34892">
              <path id="Trazado_85908" data-name="Trazado 85908" d="M385.663,213.4l-2.522-1.456,2.522-1.456,2.522,1.456Z" fill="#42e8e0"/>
              <path id="Trazado_85909" data-name="Trazado 85909" d="M390.708,216.308l-2.522-1.456,2.522-1.456,2.522,1.456Z" fill="#42e8e0"/>
              <path id="Trazado_85910" data-name="Trazado 85910" d="M395.752,219.221l-2.522-1.456,2.522-1.456,2.522,1.456Z" fill="#42e8e0"/>
              <path id="Trazado_85911" data-name="Trazado 85911" d="M400.8,222.133l-2.522-1.456,2.522-1.456,2.522,1.456Z" fill="#42e8e0"/>
              <path id="Trazado_85912" data-name="Trazado 85912" d="M405.842,225.046l-2.522-1.456,2.522-1.456,2.522,1.456Z" fill="#42e8e0"/>
              <path id="Trazado_85913" data-name="Trazado 85913" d="M410.886,227.959l-2.522-1.456,2.522-1.456,2.522,1.456Z" fill="#42e8e0"/>
              <path id="Trazado_85914" data-name="Trazado 85914" d="M415.931,230.871l-2.522-1.456,2.522-1.456,2.522,1.456Z" fill="#42e8e0"/>
              <path id="Trazado_85915" data-name="Trazado 85915" d="M420.976,233.784l-2.522-1.456,2.522-1.456,2.522,1.456Z" fill="#42e8e0"/>
              <path id="Trazado_85916" data-name="Trazado 85916" d="M426.02,236.7,423.5,235.24l2.522-1.456,2.522,1.456Z" fill="#42e8e0"/>
            </g>
            <g id="Grupo_34893" data-name="Grupo 34893">
              <path id="Trazado_85917" data-name="Trazado 85917" d="M380.6,216.32l-2.522-1.456,2.522-1.456,2.522,1.456Z" fill="#42e8e0"/>
              <path id="Trazado_85918" data-name="Trazado 85918" d="M385.643,219.233l-2.522-1.456,2.522-1.456,2.522,1.456Z" fill="#42e8e0"/>
              <path id="Trazado_85919" data-name="Trazado 85919" d="M390.687,222.145l-2.522-1.456,2.522-1.456,2.522,1.456Z" fill="#42e8e0" opacity="0.4"/>
              <path id="Trazado_85920" data-name="Trazado 85920" d="M395.732,225.058,393.21,223.6l2.522-1.456,2.522,1.456Z" fill="#42e8e0"/>
              <path id="Trazado_85921" data-name="Trazado 85921" d="M400.777,227.97l-2.522-1.456,2.522-1.456,2.522,1.456Z" fill="#42e8e0" opacity="0.1"/>
              <path id="Trazado_85922" data-name="Trazado 85922" d="M405.821,230.883l-2.522-1.456,2.522-1.456,2.522,1.456Z" fill="#42e8e0"/>
              <path id="Trazado_85923" data-name="Trazado 85923" d="M410.866,233.8l-2.522-1.456,2.522-1.456,2.522,1.456Z" fill="#42e8e0"/>
              <path id="Trazado_85924" data-name="Trazado 85924" d="M415.911,236.708l-2.522-1.456,2.522-1.456,2.522,1.456Z" fill="#42e8e0"/>
              <path id="Trazado_85925" data-name="Trazado 85925" d="M420.955,239.62l-2.522-1.456,2.522-1.456,2.522,1.456Z" fill="#42e8e0"/>
            </g>
            <g id="Grupo_34894" data-name="Grupo 34894">
              <path id="Trazado_85926" data-name="Trazado 85926" d="M375.533,219.245l-2.522-1.456,2.522-1.456,2.522,1.456Z" fill="#42e8e0"/>
              <path id="Trazado_85927" data-name="Trazado 85927" d="M380.578,222.157l-2.522-1.456,2.522-1.456L383.1,220.7Z" fill="#42e8e0"/>
              <path id="Trazado_85928" data-name="Trazado 85928" d="M385.622,225.07l-2.522-1.456,2.522-1.456,2.522,1.456Z" fill="#42e8e0" opacity="0.4"/>
              <path id="Trazado_85929" data-name="Trazado 85929" d="M390.667,227.982l-2.522-1.456,2.522-1.456,2.522,1.456Z" fill="#42e8e0"/>
              <path id="Trazado_85930" data-name="Trazado 85930" d="M395.711,230.895l-2.522-1.456,2.522-1.456,2.522,1.456Z" fill="#42e8e0"/>
              <path id="Trazado_85931" data-name="Trazado 85931" d="M400.756,233.807l-2.522-1.456,2.522-1.456,2.522,1.456Z" fill="#42e8e0" opacity="0.1"/>
              <path id="Trazado_85932" data-name="Trazado 85932" d="M405.8,236.72l-2.522-1.456,2.522-1.456,2.522,1.456Z" fill="#42e8e0" opacity="0.4"/>
              <path id="Trazado_85933" data-name="Trazado 85933" d="M410.846,239.632l-2.522-1.456,2.522-1.456,2.522,1.456Z" fill="#42e8e0"/>
              <path id="Trazado_85934" data-name="Trazado 85934" d="M415.89,242.545l-2.522-1.456,2.522-1.456,2.522,1.456Z" fill="#42e8e0" opacity="0.1"/>
            </g>
            <g id="Grupo_34895" data-name="Grupo 34895">
              <path id="Trazado_85935" data-name="Trazado 85935" d="M370.468,222.169l-2.522-1.456,2.522-1.456,2.522,1.456Z" fill="#42e8e0"/>
              <path id="Trazado_85936" data-name="Trazado 85936" d="M375.512,225.081l-2.522-1.456,2.522-1.456,2.522,1.456Z" fill="#42e8e0" opacity="0.4"/>
              <path id="Trazado_85937" data-name="Trazado 85937" d="M380.557,227.994l-2.522-1.456,2.522-1.456,2.522,1.456Z" fill="#42e8e0"/>
              <path id="Trazado_85938" data-name="Trazado 85938" d="M385.6,230.906l-2.522-1.456,2.522-1.456,2.522,1.456Z" fill="#42e8e0"/>
              <path id="Trazado_85939" data-name="Trazado 85939" d="M390.646,233.819l-2.522-1.456,2.522-1.456,2.522,1.456Z" fill="#42e8e0"/>
              <path id="Trazado_85940" data-name="Trazado 85940" d="M395.691,236.732l-2.522-1.456,2.522-1.456,2.522,1.456Z" fill="#42e8e0"/>
              <path id="Trazado_85941" data-name="Trazado 85941" d="M400.736,239.644l-2.522-1.456,2.522-1.456,2.522,1.456Z" fill="#42e8e0"/>
              <path id="Trazado_85942" data-name="Trazado 85942" d="M405.78,242.557l-2.522-1.456,2.522-1.456L408.3,241.1Z" fill="#42e8e0" opacity="0.4"/>
              <path id="Trazado_85943" data-name="Trazado 85943" d="M410.825,245.469l-2.522-1.456,2.522-1.456,2.522,1.456Z" fill="#42e8e0"/>
            </g>
            <g id="Grupo_34896" data-name="Grupo 34896">
              <path id="Trazado_85944" data-name="Trazado 85944" d="M365.4,225.093l-2.522-1.456,2.522-1.456,2.522,1.456Z" fill="#42e8e0"/>
              <path id="Trazado_85945" data-name="Trazado 85945" d="M370.447,228.006l-2.522-1.456,2.522-1.456,2.522,1.456Z" fill="#42e8e0" opacity="0.1"/>
              <path id="Trazado_85946" data-name="Trazado 85946" d="M375.492,230.918l-2.522-1.456,2.522-1.456,2.522,1.456Z" fill="#42e8e0"/>
              <path id="Trazado_85947" data-name="Trazado 85947" d="M380.537,233.831l-2.522-1.456,2.522-1.456,2.522,1.456Z" fill="#42e8e0"/>
              <path id="Trazado_85948" data-name="Trazado 85948" d="M385.581,236.743l-2.522-1.456,2.522-1.456,2.522,1.456Z" fill="#42e8e0"/>
              <path id="Trazado_85949" data-name="Trazado 85949" d="M390.626,239.656,388.1,238.2l2.522-1.456,2.522,1.456Z" fill="#42e8e0"/>
              <path id="Trazado_85950" data-name="Trazado 85950" d="M395.671,242.568l-2.522-1.456,2.522-1.456,2.522,1.456Z" fill="#42e8e0" opacity="0.4"/>
              <path id="Trazado_85951" data-name="Trazado 85951" d="M400.715,245.481l-2.522-1.456,2.522-1.456,2.522,1.456Z" fill="#42e8e0"/>
              <path id="Trazado_85952" data-name="Trazado 85952" d="M405.76,248.393l-2.522-1.456,2.522-1.456,2.522,1.456Z" fill="#42e8e0"/>
            </g>
          </g>
        </g>
        <g id="Grupo_34910" data-name="Grupo 34910">
          <path id="Trazado_85953" data-name="Trazado 85953" d="M405.843,224.441,326.409,178.58l79.432-45.86,79.434,45.861Z" fill="#b0c0d2"/>
          <path id="Trazado_85954" data-name="Trazado 85954" d="M405.842,211.918,348.1,178.58l57.743-33.338,57.744,33.339Z" fill="#00223d"/>
          <path id="Trazado_85955" data-name="Trazado 85955" d="M405.841,147.5l55.789,32.21,1.955-1.129-57.744-33.339L348.1,178.58l1.955,1.129Z" fill="#fff"/>
          <path id="Trazado_85956" data-name="Trazado 85956" d="M485.275,178.581v26l-79.432,45.86v-26Z" fill="#d2e1f1"/>
          <path id="Trazado_85957" data-name="Trazado 85957" d="M326.409,178.58v26l79.434,45.861v-26Z" fill="#00223d"/>
          <g id="Grupo_34899" data-name="Grupo 34899" opacity="0.51">
            <path id="Trazado_85958" data-name="Trazado 85958" d="M331.79,190.259v8.186l68.672,39.648v-8.186Z" fill="#f3f9ff"/>
          </g>
          <path id="Trazado_85959" data-name="Trazado 85959" d="M405.843,222.951,327.7,177.835l-1.291.745,79.434,45.861,79.432-45.86-1.29-.745Z" fill="#fff"/>
          <path id="Trazado_85960" data-name="Trazado 85960" d="M473.36,196.8v4.653l-55.6,32.1V228.9Z" fill="#37a3a5"/>
          <path id="Trazado_85962" data-name="Trazado 85962" d="M382.655,223.06l-14.384-8.306,0,1.715,14.384,8.306Z" fill="#37a3a5"/>
          <path id="Trazado_85963" data-name="Trazado 85963" d="M366.2,213.575l-3.9-2.251,0,1.715,3.9,2.25Z" fill="#37a3a5"/>
          <path id="Trazado_85964" data-name="Trazado 85964" d="M347.939,203.036l-7.974-4.6,0,1.715,7.974,4.6Z" fill="#37a3a5"/>
          <path id="Trazado_85965" data-name="Trazado 85965" d="M355.216,207.238l-5.766-3.33,0,1.715,5.766,3.33Z" fill="#37a3a5"/>
          <path id="Trazado_85966" data-name="Trazado 85966" d="M360.623,210.36l-3.9-2.25,0,1.715,3.9,2.25Z" fill="#37a3a5"/>
          <g id="Grupo_34909" data-name="Grupo 34909">
            <g id="Grupo_34900" data-name="Grupo 34900">
              <path id="Trazado_85967" data-name="Trazado 85967" d="M405.923,156.689l-2.522-1.456,2.522-1.456,2.522,1.456Z" fill="#42e8e0"/>
              <path id="Trazado_85968" data-name="Trazado 85968" d="M410.968,159.6l-2.522-1.456,2.522-1.456,2.522,1.456Z" fill="#42e8e0" opacity="0.1"/>
              <path id="Trazado_85969" data-name="Trazado 85969" d="M416.013,162.514l-2.522-1.456,2.522-1.456,2.522,1.456Z" fill="#42e8e0" opacity="0.4"/>
              <path id="Trazado_85970" data-name="Trazado 85970" d="M421.057,165.427l-2.522-1.456,2.522-1.456,2.522,1.456Z" fill="#42e8e0"/>
              <path id="Trazado_85971" data-name="Trazado 85971" d="M426.1,168.339l-2.522-1.456,2.522-1.456,2.522,1.456Z" fill="#42e8e0" opacity="0.4"/>
              <path id="Trazado_85972" data-name="Trazado 85972" d="M431.147,171.252l-2.522-1.456,2.522-1.456,2.522,1.456Z" fill="#42e8e0"/>
              <path id="Trazado_85973" data-name="Trazado 85973" d="M436.191,174.164l-2.522-1.456,2.522-1.456,2.522,1.456Z" fill="#42e8e0"/>
              <path id="Trazado_85974" data-name="Trazado 85974" d="M441.236,177.077l-2.522-1.456,2.522-1.456,2.522,1.456Z" fill="#42e8e0"/>
              <path id="Trazado_85975" data-name="Trazado 85975" d="M446.281,179.989l-2.522-1.456,2.522-1.456,2.522,1.456Z" fill="#42e8e0" opacity="0.1"/>
            </g>
            <g id="Grupo_34901" data-name="Grupo 34901">
              <path id="Trazado_85976" data-name="Trazado 85976" d="M400.858,159.613l-2.522-1.456,2.522-1.456,2.522,1.456Z" fill="#42e8e0"/>
              <path id="Trazado_85977" data-name="Trazado 85977" d="M405.9,162.526l-2.522-1.456,2.522-1.456,2.522,1.456Z" fill="#42e8e0"/>
              <path id="Trazado_85978" data-name="Trazado 85978" d="M410.948,165.438l-2.522-1.456,2.522-1.456,2.522,1.456Z" fill="#42e8e0"/>
              <path id="Trazado_85979" data-name="Trazado 85979" d="M415.992,168.351l-2.522-1.456,2.522-1.456,2.522,1.456Z" fill="#fff" opacity="0.8"/>
              <path id="Trazado_85980" data-name="Trazado 85980" d="M421.037,171.264l-2.522-1.456,2.522-1.456,2.522,1.456Z" fill="#42e8e0"/>
              <path id="Trazado_85981" data-name="Trazado 85981" d="M426.082,174.176l-2.522-1.456,2.522-1.456,2.522,1.456Z" fill="#42e8e0"/>
              <path id="Trazado_85982" data-name="Trazado 85982" d="M431.126,177.089l-2.522-1.456,2.522-1.456,2.522,1.456Z" fill="#fff" opacity="0.8"/>
              <path id="Trazado_85983" data-name="Trazado 85983" d="M436.171,180l-2.522-1.456,2.522-1.456,2.522,1.456Z" fill="#42e8e0"/>
              <path id="Trazado_85984" data-name="Trazado 85984" d="M441.216,182.914l-2.522-1.456L441.216,180l2.522,1.456Z" fill="#fff" opacity="0.8"/>
            </g>
            <g id="Grupo_34902" data-name="Grupo 34902">
              <path id="Trazado_85985" data-name="Trazado 85985" d="M395.793,162.538l-2.522-1.456,2.522-1.456,2.522,1.456Z" fill="#42e8e0"/>
              <path id="Trazado_85986" data-name="Trazado 85986" d="M400.838,165.45l-2.522-1.456,2.522-1.456,2.522,1.456Z" fill="#fff" opacity="0.8"/>
              <path id="Trazado_85987" data-name="Trazado 85987" d="M405.883,168.363l-2.522-1.456,2.522-1.456,2.522,1.456Z" fill="#42e8e0"/>
              <path id="Trazado_85988" data-name="Trazado 85988" d="M410.927,171.275l-2.522-1.456,2.522-1.456,2.522,1.456Z" fill="#42e8e0" opacity="0.1"/>
              <path id="Trazado_85989" data-name="Trazado 85989" d="M415.972,174.188l-2.522-1.456,2.522-1.456,2.522,1.456Z" fill="#42e8e0" opacity="0.4"/>
              <path id="Trazado_85990" data-name="Trazado 85990" d="M421.017,177.1l-2.522-1.456,2.522-1.456,2.522,1.456Z" fill="#42e8e0" opacity="0.4"/>
              <path id="Trazado_85991" data-name="Trazado 85991" d="M426.061,180.013l-2.522-1.456,2.522-1.456,2.522,1.456Z" fill="#42e8e0"/>
              <path id="Trazado_85992" data-name="Trazado 85992" d="M431.106,182.926l-2.522-1.456,2.522-1.456,2.522,1.456Z" fill="#42e8e0"/>
              <path id="Trazado_85993" data-name="Trazado 85993" d="M436.151,185.838l-2.522-1.456,2.522-1.456,2.522,1.456Z" fill="#42e8e0"/>
            </g>
            <g id="Grupo_34903" data-name="Grupo 34903">
              <path id="Trazado_85994" data-name="Trazado 85994" d="M390.728,165.462l-2.522-1.456,2.522-1.456,2.522,1.456Z" fill="#42e8e0" opacity="0.4"/>
              <path id="Trazado_85995" data-name="Trazado 85995" d="M395.773,168.374l-2.522-1.456,2.522-1.456,2.522,1.456Z" fill="#42e8e0" opacity="0.4"/>
              <path id="Trazado_85996" data-name="Trazado 85996" d="M400.818,171.287l-2.522-1.456,2.522-1.456,2.522,1.456Z" fill="#42e8e0" opacity="0.1"/>
              <path id="Trazado_85997" data-name="Trazado 85997" d="M405.862,174.2l-2.522-1.456,2.522-1.456,2.522,1.456Z" fill="#42e8e0"/>
              <path id="Trazado_85998" data-name="Trazado 85998" d="M410.907,177.112l-2.522-1.456,2.522-1.456,2.522,1.456Z" fill="#42e8e0"/>
              <path id="Trazado_85999" data-name="Trazado 85999" d="M415.952,180.025l-2.522-1.456,2.522-1.456,2.522,1.456Z" fill="#fff" opacity="0.8"/>
              <path id="Trazado_86000" data-name="Trazado 86000" d="M421,182.937l-2.522-1.456L421,180.025l2.522,1.456Z" fill="#42e8e0" opacity="0.4"/>
              <path id="Trazado_86001" data-name="Trazado 86001" d="M426.041,185.85l-2.522-1.456,2.522-1.456,2.522,1.456Z" fill="#42e8e0"/>
              <path id="Trazado_86002" data-name="Trazado 86002" d="M431.086,188.762l-2.522-1.456,2.522-1.456,2.522,1.456Z" fill="#42e8e0"/>
            </g>
            <g id="Grupo_34904" data-name="Grupo 34904">
              <path id="Trazado_86003" data-name="Trazado 86003" d="M385.663,168.386l-2.522-1.456,2.522-1.456,2.522,1.456Z" fill="#fff" opacity="0.8"/>
              <path id="Trazado_86004" data-name="Trazado 86004" d="M390.708,171.3l-2.522-1.456,2.522-1.456,2.522,1.456Z" fill="#42e8e0"/>
              <path id="Trazado_86005" data-name="Trazado 86005" d="M395.752,174.211l-2.522-1.456,2.522-1.456,2.522,1.456Z" fill="#42e8e0"/>
              <path id="Trazado_86006" data-name="Trazado 86006" d="M400.8,177.124l-2.522-1.456,2.522-1.456,2.522,1.456Z" fill="#42e8e0"/>
              <path id="Trazado_86007" data-name="Trazado 86007" d="M405.842,180.036l-2.522-1.456,2.522-1.456,2.522,1.456Z" fill="#fff" opacity="0.8"/>
              <path id="Trazado_86008" data-name="Trazado 86008" d="M410.886,182.949l-2.522-1.456,2.522-1.456,2.522,1.456Z" fill="#fff" opacity="0.8"/>
              <path id="Trazado_86009" data-name="Trazado 86009" d="M415.931,185.862l-2.522-1.456,2.522-1.456,2.522,1.456Z" fill="#42e8e0"/>
              <path id="Trazado_86010" data-name="Trazado 86010" d="M420.976,188.774l-2.522-1.456,2.522-1.456,2.522,1.456Z" fill="#42e8e0"/>
              <path id="Trazado_86011" data-name="Trazado 86011" d="M426.02,191.687,423.5,190.23l2.522-1.456,2.522,1.456Z" fill="#42e8e0"/>
            </g>
            <g id="Grupo_34905" data-name="Grupo 34905">
              <path id="Trazado_86012" data-name="Trazado 86012" d="M380.6,171.311l-2.522-1.456L380.6,168.4l2.522,1.456Z" fill="#42e8e0"/>
              <path id="Trazado_86013" data-name="Trazado 86013" d="M385.643,174.223l-2.522-1.456,2.522-1.456,2.522,1.456Z" fill="#42e8e0"/>
              <path id="Trazado_86014" data-name="Trazado 86014" d="M390.687,177.136l-2.522-1.456,2.522-1.456,2.522,1.456Z" fill="#42e8e0" opacity="0.4"/>
              <path id="Trazado_86015" data-name="Trazado 86015" d="M395.732,180.048l-2.522-1.456,2.522-1.456,2.522,1.456Z" fill="#fff" opacity="0.8"/>
              <path id="Trazado_86016" data-name="Trazado 86016" d="M400.777,182.961l-2.522-1.456,2.522-1.456L403.3,181.5Z" fill="#42e8e0" opacity="0.1"/>
              <path id="Trazado_86017" data-name="Trazado 86017" d="M405.821,185.873l-2.522-1.456,2.522-1.456,2.522,1.456Z" fill="#42e8e0"/>
              <path id="Trazado_86018" data-name="Trazado 86018" d="M410.866,188.786l-2.522-1.456,2.522-1.456,2.522,1.456Z" fill="#42e8e0"/>
              <path id="Trazado_86019" data-name="Trazado 86019" d="M415.911,191.7l-2.522-1.456,2.522-1.456,2.522,1.456Z" fill="#fff" opacity="0.8"/>
              <path id="Trazado_86020" data-name="Trazado 86020" d="M420.955,194.611l-2.522-1.456,2.522-1.456,2.522,1.456Z" fill="#42e8e0"/>
            </g>
            <g id="Grupo_34906" data-name="Grupo 34906">
              <path id="Trazado_86021" data-name="Trazado 86021" d="M375.533,174.235l-2.522-1.456,2.522-1.456,2.522,1.456Z" fill="#42e8e0"/>
              <path id="Trazado_86022" data-name="Trazado 86022" d="M380.578,177.148l-2.522-1.456,2.522-1.456,2.522,1.456Z" fill="#42e8e0"/>
              <path id="Trazado_86023" data-name="Trazado 86023" d="M385.622,180.06,383.1,178.6l2.522-1.456,2.522,1.456Z" fill="#42e8e0" opacity="0.4"/>
              <path id="Trazado_86024" data-name="Trazado 86024" d="M390.667,182.973l-2.522-1.456,2.522-1.456,2.522,1.456Z" fill="#42e8e0"/>
              <path id="Trazado_86025" data-name="Trazado 86025" d="M395.711,185.885l-2.522-1.456,2.522-1.456,2.522,1.456Z" fill="#42e8e0"/>
              <path id="Trazado_86026" data-name="Trazado 86026" d="M400.756,188.8l-2.522-1.456,2.522-1.456,2.522,1.456Z" fill="#42e8e0" opacity="0.1"/>
              <path id="Trazado_86027" data-name="Trazado 86027" d="M405.8,191.71l-2.522-1.456L405.8,188.8l2.522,1.456Z" fill="#42e8e0" opacity="0.4"/>
              <path id="Trazado_86028" data-name="Trazado 86028" d="M410.846,194.623l-2.522-1.456,2.522-1.456,2.522,1.456Z" fill="#42e8e0"/>
              <path id="Trazado_86029" data-name="Trazado 86029" d="M415.89,197.535l-2.522-1.456,2.522-1.456,2.522,1.456Z" fill="#42e8e0" opacity="0.1"/>
            </g>
            <g id="Grupo_34907" data-name="Grupo 34907">
              <path id="Trazado_86030" data-name="Trazado 86030" d="M370.468,177.159l-2.522-1.456,2.522-1.456,2.522,1.456Z" fill="#42e8e0"/>
              <path id="Trazado_86031" data-name="Trazado 86031" d="M375.512,180.072l-2.522-1.456,2.522-1.456,2.522,1.456Z" fill="#42e8e0" opacity="0.4"/>
              <path id="Trazado_86032" data-name="Trazado 86032" d="M380.557,182.984l-2.522-1.456,2.522-1.456,2.522,1.456Z" fill="#42e8e0"/>
              <path id="Trazado_86033" data-name="Trazado 86033" d="M385.6,185.9l-2.522-1.456,2.522-1.456,2.522,1.456Z" fill="#42e8e0"/>
              <path id="Trazado_86034" data-name="Trazado 86034" d="M390.646,188.809l-2.522-1.456,2.522-1.456,2.522,1.456Z" fill="#42e8e0"/>
              <path id="Trazado_86035" data-name="Trazado 86035" d="M395.691,191.722l-2.522-1.456,2.522-1.456,2.522,1.456Z" fill="#42e8e0"/>
              <path id="Trazado_86036" data-name="Trazado 86036" d="M400.736,194.635l-2.522-1.456,2.522-1.456,2.522,1.456Z" fill="#42e8e0"/>
              <path id="Trazado_86037" data-name="Trazado 86037" d="M405.78,197.547l-2.522-1.456,2.522-1.456,2.522,1.456Z" fill="#42e8e0" opacity="0.4"/>
              <path id="Trazado_86038" data-name="Trazado 86038" d="M410.825,200.46,408.3,199l2.522-1.456L413.347,199Z" fill="#42e8e0"/>
            </g>
            <g id="Grupo_34908" data-name="Grupo 34908">
              <path id="Trazado_86039" data-name="Trazado 86039" d="M365.4,180.084l-2.522-1.456,2.522-1.456,2.522,1.456Z" fill="#42e8e0"/>
              <path id="Trazado_86040" data-name="Trazado 86040" d="M370.447,183l-2.522-1.456,2.522-1.456,2.522,1.456Z" fill="#42e8e0" opacity="0.1"/>
              <path id="Trazado_86041" data-name="Trazado 86041" d="M375.492,185.909l-2.522-1.456L375.492,183l2.522,1.456Z" fill="#fff" opacity="0.8"/>
              <path id="Trazado_86042" data-name="Trazado 86042" d="M380.537,188.821l-2.522-1.456,2.522-1.456,2.522,1.456Z" fill="#42e8e0"/>
              <path id="Trazado_86043" data-name="Trazado 86043" d="M385.581,191.734l-2.522-1.456,2.522-1.456,2.522,1.456Z" fill="#42e8e0"/>
              <path id="Trazado_86044" data-name="Trazado 86044" d="M390.626,194.646,388.1,193.19l2.522-1.456,2.522,1.456Z" fill="#42e8e0"/>
              <path id="Trazado_86045" data-name="Trazado 86045" d="M395.671,197.559l-2.522-1.456,2.522-1.456,2.522,1.456Z" fill="#42e8e0" opacity="0.4"/>
              <path id="Trazado_86046" data-name="Trazado 86046" d="M400.715,200.471l-2.522-1.456,2.522-1.456,2.522,1.456Z" fill="#fff" opacity="0.8"/>
              <path id="Trazado_86047" data-name="Trazado 86047" d="M405.76,203.384l-2.522-1.456,2.522-1.456,2.522,1.456Z" fill="#42e8e0"/>
            </g>
          </g>
        </g>
        <g id="Grupo_34949" data-name="Grupo 34949">
          <g id="Grupo_34929" data-name="Grupo 34929">
            <g id="Grupo_34911" data-name="Grupo 34911" style="mix-blend-mode: lighten;isolation: isolate">
              <path id="Trazado_86048" data-name="Trazado 86048" d="M491.35,364.358a7.849,7.849,0,0,1-3.916-1.045L442.3,337.253a2.26,2.26,0,0,1,0-3.915l81.668-47.15a.438.438,0,0,1,.445,0l48.829,28.191a2.261,2.261,0,0,1,0,3.915l-77.974,45.019A7.852,7.852,0,0,1,491.35,364.358Zm32.839-77.27-81.446,47.021a1.37,1.37,0,0,0,0,2.372l45.136,26.06a7.074,7.074,0,0,0,6.941,0l77.975-45.019a1.37,1.37,0,0,0,0-2.372Z" fill="#00223d"/>
            </g>
            <g id="Grupo_34924" data-name="Grupo 34924">
              <g id="Grupo_34923" data-name="Grupo 34923">
                <g id="Grupo_34922" data-name="Grupo 34922">
                  <g id="Grupo_34916" data-name="Grupo 34916">
                    <g id="Grupo_34913" data-name="Grupo 34913">
                      <path id="Trazado_86049" data-name="Trazado 86049" d="M524.288,267.971l-10.863-64.449.874-.368-1.313-.753,0,.008a.945.945,0,0,0-1.011.07L425.159,252.6a2.451,2.451,0,0,0-1.127,2.206l10.949,64.961a.815.815,0,0,0,.458.661h0l1.285.742.22-1.2-.073.022,86.292-49.821A2.449,2.449,0,0,0,524.288,267.971Z" fill="#e9e9fd"/>
                      <path id="Trazado_86050" data-name="Trazado 86050" d="M425.643,254.366l-1.428-.632a1.966,1.966,0,0,0-.183,1.075l10.949,64.961a.815.815,0,0,0,.458.661h0l1.285.742.22-1.2-.073.022,4.367-2.521Z" fill="#dee4f0"/>
                      <path id="Trazado_86051" data-name="Trazado 86051" d="M524.523,270.957,437.7,321.082c-.67.387-1.244.163-1.362-.531L425.394,255.59a2.45,2.45,0,0,1,1.127-2.205l86.818-50.125c.67-.387,1.244-.163,1.362.531l10.949,64.961A2.448,2.448,0,0,1,524.523,270.957Z" fill="#00223d"/>
                      <g id="Grupo_34912" data-name="Grupo 34912" opacity="0.51">
                        <path id="Trazado_86052" data-name="Trazado 86052" d="M512.2,207.407l-83.686,48.316L438.9,316.9l83.629-48.284Z" fill="#00223d"/>
                      </g>
                    </g>
                    <g id="Grupo_34915" data-name="Grupo 34915">
                      <path id="Trazado_86053" data-name="Trazado 86053" d="M579.1,301.713l-4.738,2.474L526.85,276.758a3.446,3.446,0,0,0-3.1.128L441.81,324.194c-.784-.439-4.359-2.158-4.359-2.158l1.734,4.519.007-.005a1.034,1.034,0,0,0,.485.537l50.036,28.889a3.446,3.446,0,0,0,3.1-.129l83.85-48.41a1.5,1.5,0,0,0,.7-.748l.007,0Z" fill="#00223d"/>
                      <path id="Trazado_86054" data-name="Trazado 86054" d="M578.364,302.492l-85.935,49.614a3.533,3.533,0,0,1-3.178.132l-51.28-29.607c-.815-.47-.713-1.292.228-1.835l85.935-49.614a3.527,3.527,0,0,1,3.178-.132l51.281,29.607C579.407,301.127,579.3,301.948,578.364,302.492Z" fill="#d2e6ee"/>
                      <path id="Trazado_86055" data-name="Trazado 86055" d="M578.364,302l-85.935,49.615a3.533,3.533,0,0,1-3.178.132l-51.28-29.607a1.053,1.053,0,0,1-.5-.555.865.865,0,0,0,.5,1.05l51.28,29.607a3.533,3.533,0,0,0,3.178-.132l85.935-49.614c.633-.366.877-.855.727-1.281A1.519,1.519,0,0,1,578.364,302Z" fill="#fff"/>
                      <path id="Trazado_86056" data-name="Trazado 86056" d="M466.509,341.374v-.943c0-.089.054-.13.121-.091l3.324,1.918a.293.293,0,0,1,.122.232v.943c0,.089-.055.13-.122.092l-3.324-1.92A.288.288,0,0,1,466.509,341.374Z" fill="#21587b"/>
                      <path id="Trazado_86057" data-name="Trazado 86057" d="M471.48,344.244V343.3c0-.089.054-.13.121-.092l3.324,1.919a.292.292,0,0,1,.121.232v.943c0,.089-.054.13-.121.091l-3.324-1.919A.288.288,0,0,1,471.48,344.244Z" fill="#21587b"/>
                      <path id="Trazado_86058" data-name="Trazado 86058" d="M451.34,319.858l71.412-41.23a1.539,1.539,0,0,1,1.539,0l25.429,14.713a.548.548,0,0,1,0,.949L478.341,335.5a1.54,1.54,0,0,1-1.537,0L451.34,320.808A.548.548,0,0,1,451.34,319.858Z" fill="#d2e1f1"/>
                      <path id="Trazado_86059" data-name="Trazado 86059" d="M451.34,320.808l.256.147,71.156-41.082a1.539,1.539,0,0,1,1.539,0l25.173,14.565.256-.148a.548.548,0,0,0,0-.949l-25.429-14.713a1.539,1.539,0,0,0-1.539,0l-71.412,41.23A.548.548,0,0,0,451.34,320.808Z" fill="#00223d"/>
                      <g id="Grupo_34914" data-name="Grupo 34914">
                        <path id="Trazado_86060" data-name="Trazado 86060" d="M526.21,282.355l-62.031,35.814-2.758-1.592,62.031-35.814Z" fill="#00223d"/>
                        <path id="Trazado_86061" data-name="Trazado 86061" d="M532.971,286.259l-58.183,33.592-2.758-1.592,58.183-33.592Z" fill="#00223d"/>
                        <path id="Trazado_86062" data-name="Trazado 86062" d="M537.376,288.8l-68.5,39.551-2.758-1.592,68.5-39.551Z" fill="#00223d"/>
                        <path id="Trazado_86063" data-name="Trazado 86063" d="M541.78,291.345l-68.5,39.551-2.758-1.592,68.5-39.551Z" fill="#00223d"/>
                        <path id="Trazado_86064" data-name="Trazado 86064" d="M546.184,293.887l-68.5,39.551-2.758-1.592,68.5-39.551Z" fill="#00223d"/>
                        <path id="Trazado_86065" data-name="Trazado 86065" d="M460.43,320.333l-2.758,1.592-2.758-1.593,2.758-1.592Z" fill="#00223d"/>
                        <path id="Trazado_86066" data-name="Trazado 86066" d="M470.159,322.524l-5.725,3.305-2.758-1.592,5.725-3.305Z" fill="#00223d"/>
                      </g>
                      <path id="Trazado_86067" data-name="Trazado 86067" d="M525.5,329.835l19.255-11.117a.83.83,0,0,0,0-1.573l-13.167-7.6a3.01,3.01,0,0,0-2.726,0L509.609,320.66a.83.83,0,0,0,0,1.573l13.167,7.6A3.013,3.013,0,0,0,525.5,329.835Z" fill="#e9e9fd"/>
                      <path id="Trazado_86068" data-name="Trazado 86068" d="M509.609,321.3l19.255-11.117a3.01,3.01,0,0,1,2.726,0l13.167,7.6a1.18,1.18,0,0,1,.473.465c.2-.381.047-.809-.473-1.109l-13.167-7.6a3.01,3.01,0,0,0-2.726,0L509.609,320.66c-.52.3-.672.728-.473,1.109A1.18,1.18,0,0,1,509.609,321.3Z" fill="#727997"/>
                    </g>
                  </g>
                  <g id="Grupo_34921" data-name="Grupo 34921" opacity="0.11">
                    <g id="Grupo_34920" data-name="Grupo 34920" clip-path="url(#clip-path)">
                      <g id="Grupo_34919" data-name="Grupo 34919">
                        <path id="Trazado_86069" data-name="Trazado 86069" d="M524.219,271.079l-85.935,49.615a3.535,3.535,0,0,1-3.179.132l-51.28-29.607c-.815-.471-.713-1.292.228-1.835l85.935-49.615a3.53,3.53,0,0,1,3.178-.131l51.281,29.607C525.261,269.715,525.159,270.536,524.219,271.079Z" fill="url(#linear-gradient-3)"/>
                        <path id="Trazado_86070" data-name="Trazado 86070" d="M438.028,279.975l19.255-11.117a.831.831,0,0,0,0-1.574l-13.167-7.6a3.01,3.01,0,0,0-2.726,0L422.135,270.8a.83.83,0,0,0,0,1.573l13.167,7.6A3.017,3.017,0,0,0,438.028,279.975Z" fill="url(#linear-gradient-4)"/>
                        <path id="Trazado_86071" data-name="Trazado 86071" d="M422.135,271.443l19.255-11.117a3.01,3.01,0,0,1,2.726,0l13.167,7.6a1.18,1.18,0,0,1,.473.465c.2-.38.047-.809-.473-1.109l-13.167-7.6a3.01,3.01,0,0,0-2.726,0L422.135,270.8c-.52.3-.672.729-.473,1.109A1.18,1.18,0,0,1,422.135,271.443Z" fill="#9198db"/>
                        <g id="Grupo_34918" data-name="Grupo 34918">
                          <path id="Trazado_86072" data-name="Trazado 86072" d="M413.671,297.348l71.412-41.23a1.534,1.534,0,0,1,1.538,0l25.43,14.713a.548.548,0,0,1,0,.949l-71.378,41.211a1.54,1.54,0,0,1-1.537,0L413.671,298.3A.548.548,0,0,1,413.671,297.348Z" fill="#adb1f2"/>
                          <path id="Trazado_86073" data-name="Trazado 86073" d="M413.671,298.3l.255.147,71.157-41.082a1.534,1.534,0,0,1,1.538,0L511.8,271.929l.255-.148a.548.548,0,0,0,0-.949l-25.43-14.713a1.534,1.534,0,0,0-1.538,0l-71.412,41.23A.548.548,0,0,0,413.671,298.3Z" fill="#9198db"/>
                          <g id="Grupo_34917" data-name="Grupo 34917">
                            <path id="Trazado_86074" data-name="Trazado 86074" d="M505.4,269.828l-62.212,35.918,2.464,1.423,62.212-35.918Z" fill="#24126a"/>
                            <path id="Trazado_86075" data-name="Trazado 86075" d="M498.841,266.044l-59.132,34.14,2.464,1.423,59.132-34.14Z" fill="#24126a"/>
                            <path id="Trazado_86076" data-name="Trazado 86076" d="M435.293,302.733l-5.523,3.189,2.464,1.423,5.523-3.189Z" fill="#24126a"/>
                            <path id="Trazado_86077" data-name="Trazado 86077" d="M440.171,307.486l-3.846,2.22,2.464,1.423,3.846-2.22Z" fill="#24126a"/>
                            <path id="Trazado_86078" data-name="Trazado 86078" d="M494.733,263.672l-69.07,39.878,2.464,1.423L497.2,265.1Z" fill="#24126a"/>
                            <path id="Trazado_86079" data-name="Trazado 86079" d="M490.626,261.3l-69.07,39.878,2.464,1.423,69.07-39.878Z" fill="#24126a"/>
                            <path id="Trazado_86080" data-name="Trazado 86080" d="M486.519,258.93l-69.07,39.878,2.464,1.423,69.07-39.878Z" fill="#24126a"/>
                          </g>
                        </g>
                      </g>
                    </g>
                  </g>
                </g>
              </g>
            </g>
            <g id="Grupo_34928" data-name="Grupo 34928">
              <path id="Trazado_86081" data-name="Trazado 86081" d="M460.03,293.577l6.771-3.913.2,1.176-6.771,3.913Z" fill="#42e8e0"/>
              <path id="Trazado_86082" data-name="Trazado 86082" d="M467.889,289.039l3.689-2.132.2,1.176-3.689,2.132Z" fill="#42e8e0"/>
              <path id="Trazado_86083" data-name="Trazado 86083" d="M477.319,283.594l2.669-1.543.2,1.176-2.669,1.543Z" fill="#42e8e0"/>
              <path id="Trazado_86084" data-name="Trazado 86084" d="M475.372,284.719l.912-.527.2,1.176-.912.527Z" fill="#42e8e0"/>
              <path id="Trazado_86085" data-name="Trazado 86085" d="M472.681,286.274l1.656-.957.2,1.176-1.657.957Z" fill="#42e8e0"/>
              <path id="Trazado_86086" data-name="Trazado 86086" d="M465.387,284.585l2.669-1.543.2,1.176-2.669,1.543Z" fill="#42e8e0"/>
              <path id="Trazado_86087" data-name="Trazado 86087" d="M459.123,288.205l5.23-3.023.2,1.176-5.23,3.023Z" fill="#42e8e0"/>
              <g id="Grupo_34925" data-name="Grupo 34925">
                <path id="Trazado_86088" data-name="Trazado 86088" d="M466.621,269.151l5.23-3.023.2,1.176-5.23,3.023Z" fill="#42e8e0"/>
                <path id="Trazado_86089" data-name="Trazado 86089" d="M463.93,270.706l1.656-.957.2,1.176-1.656.957Z" fill="#42e8e0"/>
              </g>
              <path id="Trazado_86090" data-name="Trazado 86090" d="M467.494,274.53l5.23-3.023.2,1.176-5.23,3.023Z" fill="#42e8e0"/>
              <path id="Trazado_86091" data-name="Trazado 86091" d="M464.8,276.085l1.656-.957.2,1.176L465,277.26Z" fill="#42e8e0"/>
              <path id="Trazado_86092" data-name="Trazado 86092" d="M462.76,245.94l-9.852,5.694-.2-1.175,9.852-5.694Z" fill="#42e8e0"/>
              <path id="Trazado_86093" data-name="Trazado 86093" d="M466.233,243.933l-2.438,1.409-.2-1.176,2.438-1.409Z" fill="#42e8e0"/>
              <path id="Trazado_86094" data-name="Trazado 86094" d="M483.545,242.791l-9.852,5.694-.2-1.176,9.852-5.694Z" fill="#42e8e0"/>
              <path id="Trazado_86095" data-name="Trazado 86095" d="M487.017,240.784l-2.438,1.409-.2-1.176,2.438-1.409Z" fill="#42e8e0"/>
              <path id="Trazado_86096" data-name="Trazado 86096" d="M456.031,252.777l-2.669,1.543-.2-1.176,2.669-1.543Z" fill="#42e8e0"/>
              <path id="Trazado_86097" data-name="Trazado 86097" d="M472.271,249.293l-2.669,1.543-.2-1.176,2.669-1.543Z" fill="#42e8e0"/>
              <path id="Trazado_86098" data-name="Trazado 86098" d="M462.3,249.156l-5.23,3.023-.2-1.176,5.23-3.023Z" fill="#42e8e0"/>
              <path id="Trazado_86099" data-name="Trazado 86099" d="M464.986,247.6l-1.656.957-.2-1.176,1.656-.957Z" fill="#42e8e0"/>
              <path id="Trazado_86100" data-name="Trazado 86100" d="M471.3,243.959l-5.23,3.023-.2-1.176,5.23-3.023Z" fill="#42e8e0"/>
              <path id="Trazado_86101" data-name="Trazado 86101" d="M473.989,242.4l-1.656.957-.2-1.176,1.656-.957Z" fill="#42e8e0"/>
              <path id="Trazado_86102" data-name="Trazado 86102" d="M471.817,246.607l-2.669,1.543-.2-1.176,2.669-1.543Z" fill="#42e8e0"/>
              <path id="Trazado_86103" data-name="Trazado 86103" d="M478.081,242.986l-5.23,3.023-.2-1.176,5.23-3.023Z" fill="#42e8e0"/>
              <path id="Trazado_86104" data-name="Trazado 86104" d="M480.772,241.431l-1.656.957-.2-1.176,1.656-.957Z" fill="#42e8e0"/>
              <path id="Trazado_86105" data-name="Trazado 86105" d="M459.277,253.849l-5.461,3.156-.2-1.176,5.461-3.157Z" fill="#42e8e0"/>
              <path id="Trazado_86106" data-name="Trazado 86106" d="M464.261,250.968l-3.95,2.283-.2-1.176,3.949-2.283Z" fill="#42e8e0"/>
              <path id="Trazado_86107" data-name="Trazado 86107" d="M467.964,248.827,465.3,250.37l-.2-1.176,2.669-1.543Z" fill="#42e8e0"/>
              <path id="Trazado_86108" data-name="Trazado 86108" d="M493.851,236.846,488.389,240l-.2-1.176,5.461-3.157Z" fill="#42e8e0"/>
              <path id="Trazado_86109" data-name="Trazado 86109" d="M498.835,233.966l-3.949,2.283-.2-1.176,3.949-2.283Z" fill="#42e8e0"/>
              <path id="Trazado_86110" data-name="Trazado 86110" d="M502.538,231.825l-2.669,1.543-.2-1.176,2.669-1.543Z" fill="#42e8e0"/>
              <path id="Trazado_86111" data-name="Trazado 86111" d="M491.718,272.332l5.461-3.156.2,1.176-5.461,3.156Z" fill="#42e8e0"/>
              <path id="Trazado_86112" data-name="Trazado 86112" d="M486.734,275.213l3.949-2.283.2,1.176-3.95,2.283Z" fill="#42e8e0"/>
              <path id="Trazado_86113" data-name="Trazado 86113" d="M483.03,277.353l2.669-1.543.2,1.176-2.669,1.543Z" fill="#42e8e0"/>
              <path id="Trazado_86114" data-name="Trazado 86114" d="M489.905,276.339l5.461-3.156.2,1.176-5.461,3.157Z" fill="#42e8e0"/>
              <path id="Trazado_86115" data-name="Trazado 86115" d="M484.921,279.219l3.949-2.283.2,1.176-3.949,2.283Z" fill="#42e8e0"/>
              <path id="Trazado_86116" data-name="Trazado 86116" d="M481.218,281.36l2.669-1.543.2,1.176-2.669,1.543Z" fill="#42e8e0"/>
              <path id="Trazado_86117" data-name="Trazado 86117" d="M467.853,271.372l1.845-1.066.2,1.176-1.845,1.066Z" fill="#42e8e0"/>
              <path id="Trazado_86118" data-name="Trazado 86118" d="M464.381,273.379l2.438-1.409.2,1.176-2.438,1.409Z" fill="#42e8e0"/>
              <path id="Trazado_86119" data-name="Trazado 86119" d="M459.766,256.518l-5.461,3.156-.2-1.176,5.461-3.157Z" fill="#42e8e0"/>
              <path id="Trazado_86120" data-name="Trazado 86120" d="M464.75,253.638l-3.95,2.283-.2-1.176,3.949-2.283Z" fill="#42e8e0"/>
              <path id="Trazado_86121" data-name="Trazado 86121" d="M468.453,251.5l-2.669,1.543-.2-1.176,2.669-1.543Z" fill="#42e8e0"/>
              <path id="Trazado_86122" data-name="Trazado 86122" d="M456.6,261.294l-1.844,1.066-.2-1.176,1.844-1.066Z" fill="#42e8e0"/>
              <path id="Trazado_86123" data-name="Trazado 86123" d="M460.075,259.287l-2.438,1.409-.2-1.176,2.438-1.409Z" fill="#42e8e0"/>
              <path id="Trazado_86124" data-name="Trazado 86124" d="M465.037,256.42l-3.928,2.27-.2-1.176,3.928-2.27Z" fill="#42e8e0"/>
              <path id="Trazado_86125" data-name="Trazado 86125" d="M470.363,278.777l1.844-1.066.2,1.176-1.845,1.066Z" fill="#42e8e0"/>
              <path id="Trazado_86126" data-name="Trazado 86126" d="M466.891,280.784l2.438-1.409.2,1.176-2.438,1.409Z" fill="#42e8e0"/>
              <path id="Trazado_86127" data-name="Trazado 86127" d="M461.929,283.652l3.928-2.27.2,1.176-3.928,2.27Z" fill="#42e8e0"/>
              <path id="Trazado_86128" data-name="Trazado 86128" d="M473.172,274.417l3.928-2.27.2,1.176-3.928,2.27Z" fill="#42e8e0"/>
              <path id="Trazado_86129" data-name="Trazado 86129" d="M466.749,277.919l5.294-3.06.2,1.176-5.294,3.06Z" fill="#42e8e0"/>
              <path id="Trazado_86130" data-name="Trazado 86130" d="M464.058,279.474l1.657-.957.2,1.176-1.656.957Z" fill="#42e8e0"/>
              <path id="Trazado_86131" data-name="Trazado 86131" d="M461.475,280.967l1.657-.957.2,1.176-1.656.958Z" fill="#42e8e0"/>
              <g id="Grupo_34927" data-name="Grupo 34927">
                <path id="Trazado_86132" data-name="Trazado 86132" d="M461.83,265.791l5.23-3.023.2,1.176-5.23,3.023Z" fill="#42e8e0"/>
                <path id="Trazado_86133" data-name="Trazado 86133" d="M459.139,267.346l1.656-.957.2,1.176-1.656.957Z" fill="#42e8e0"/>
                <path id="Trazado_86134" data-name="Trazado 86134" d="M462.19,262.633l1.844-1.066.2,1.176-1.845,1.066Z" fill="#42e8e0"/>
                <path id="Trazado_86135" data-name="Trazado 86135" d="M468.7,264.785l1.845-1.066.2,1.176-1.845,1.066Z" fill="#42e8e0"/>
                <path id="Trazado_86136" data-name="Trazado 86136" d="M471.332,263.267l4.426-2.556.2,1.176-4.426,2.556Z" fill="#42e8e0"/>
                <path id="Trazado_86137" data-name="Trazado 86137" d="M476.543,260.259l2.633-1.521.2,1.176-2.633,1.521Z" fill="#42e8e0"/>
                <path id="Trazado_86138" data-name="Trazado 86138" d="M458.718,264.64l2.438-1.409.2,1.176-2.438,1.409Z" fill="#42e8e0"/>
                <g id="Grupo_34926" data-name="Grupo 34926">
                  <path id="Trazado_86139" data-name="Trazado 86139" d="M458.488,261.881l1.844-1.066.2,1.176-1.844,1.066Z" fill="#42e8e0"/>
                  <path id="Trazado_86140" data-name="Trazado 86140" d="M455.016,263.888l2.438-1.409.2,1.176-2.438,1.409Z" fill="#42e8e0"/>
                </g>
                <path id="Trazado_86141" data-name="Trazado 86141" d="M466.026,266.33l1.656-.957.2,1.176-1.656.957Z" fill="#42e8e0"/>
                <path id="Trazado_86142" data-name="Trazado 86142" d="M463.443,267.823l1.657-.957.2,1.176-1.656.957Z" fill="#42e8e0"/>
              </g>
              <path id="Trazado_86143" data-name="Trazado 86143" d="M476.167,281.32l5.65-3.266.2,1.176-5.65,3.266Z" fill="#42e8e0"/>
              <path id="Trazado_86144" data-name="Trazado 86144" d="M469.838,284.978l5.294-3.06.2,1.176-5.294,3.06Z" fill="#42e8e0"/>
              <path id="Trazado_86145" data-name="Trazado 86145" d="M467.147,286.533l1.656-.957.2,1.175-1.656.958Z" fill="#42e8e0"/>
              <path id="Trazado_86146" data-name="Trazado 86146" d="M464.565,288.025l1.657-.957.2,1.176-1.656.957Z" fill="#42e8e0"/>
              <path id="Trazado_86147" data-name="Trazado 86147" d="M463.153,288.841l-3.574,2.066.2,1.176,3.574-2.066Z" fill="#42e8e0"/>
            </g>
          </g>
          <g id="Grupo_34948" data-name="Grupo 34948">
            <g id="Grupo_34930" data-name="Grupo 34930" opacity="0.8">
              <path id="Trazado_86148" data-name="Trazado 86148" d="M320.334,364.516a8.013,8.013,0,0,1-3.994-1.067h0L238.364,318.43a2.419,2.419,0,0,1,0-4.187l49.131-28.366.3.175,81.668,47.15a2.418,2.418,0,0,1,0,4.187l-45.136,26.059A8,8,0,0,1,320.334,364.516Zm-3.392-2.111a6.915,6.915,0,0,0,6.784,0l45.134-26.058a1.213,1.213,0,0,0,0-2.1L287.495,287.27l-.077.044-48.451,27.972a1.215,1.215,0,0,0,0,2.1Z" fill="#00223d"/>
            </g>
            <g id="Grupo_34943" data-name="Grupo 34943">
              <g id="Grupo_34942" data-name="Grupo 34942">
                <g id="Grupo_34941" data-name="Grupo 34941">
                  <g id="Grupo_34935" data-name="Grupo 34935">
                    <g id="Grupo_34932" data-name="Grupo 34932">
                      <path id="Trazado_86149" data-name="Trazado 86149" d="M287.395,267.971l10.863-64.449-.873-.368,1.312-.753,0,.008a.947.947,0,0,1,1.012.07L386.524,252.6a2.454,2.454,0,0,1,1.128,2.206L376.7,319.77a.813.813,0,0,1-.457.661h0l-1.284.742-.221-1.2.074.022-86.293-49.821A2.451,2.451,0,0,1,287.395,267.971Z" fill="url(#linear-gradient-5)"/>
                      <path id="Trazado_86150" data-name="Trazado 86150" d="M386.041,254.366l1.427-.632a1.967,1.967,0,0,1,.184,1.075L376.7,319.77a.813.813,0,0,1-.457.661h0l-1.284.742-.221-1.2.074.022-4.367-2.521Z" fill="#dee4f0"/>
                      <path id="Trazado_86151" data-name="Trazado 86151" d="M287.16,270.957l86.818,50.125c.671.387,1.244.163,1.362-.531l10.95-64.961a2.451,2.451,0,0,0-1.128-2.205L298.344,203.26c-.67-.387-1.244-.163-1.362.531l-10.949,64.961A2.45,2.45,0,0,0,287.16,270.957Z" fill="#00223d"/>
                      <g id="Grupo_34931" data-name="Grupo 34931" opacity="0.51">
                        <path id="Trazado_86152" data-name="Trazado 86152" d="M299.479,207.407l83.686,48.316L372.787,316.9l-83.629-48.284Z" fill="#00223d"/>
                      </g>
                    </g>
                    <g id="Grupo_34934" data-name="Grupo 34934">
                      <path id="Trazado_86153" data-name="Trazado 86153" d="M232.587,301.713l4.738,2.474,47.508-27.429a3.446,3.446,0,0,1,3.1.128l81.94,47.308c.784-.439,4.359-2.158,4.359-2.158l-1.734,4.519-.007-.005a1.034,1.034,0,0,1-.485.537L321.97,355.976a3.446,3.446,0,0,1-3.1-.129l-83.849-48.41a1.5,1.5,0,0,1-.7-.748l-.006,0Z" fill="#00223d"/>
                      <path id="Trazado_86154" data-name="Trazado 86154" d="M233.319,302.492l85.935,49.614a3.533,3.533,0,0,0,3.178.132l51.281-29.607c.814-.47.712-1.292-.228-1.835L287.55,271.182a3.527,3.527,0,0,0-3.178-.132l-51.281,29.607C232.276,301.127,232.378,301.948,233.319,302.492Z" fill="url(#linear-gradient-6)"/>
                      <path id="Trazado_86155" data-name="Trazado 86155" d="M233.319,302l85.935,49.615a3.533,3.533,0,0,0,3.178.132l51.281-29.607a1.061,1.061,0,0,0,.5-.555.866.866,0,0,1-.5,1.05l-51.281,29.607a3.533,3.533,0,0,1-3.178-.132l-85.935-49.614c-.633-.366-.876-.855-.726-1.281A1.512,1.512,0,0,0,233.319,302Z" fill="#fff"/>
                      <path id="Trazado_86156" data-name="Trazado 86156" d="M345.174,341.374v-.943c0-.089-.054-.13-.121-.091l-3.324,1.918a.292.292,0,0,0-.121.232v.943c0,.089.054.13.121.092l3.324-1.92A.288.288,0,0,0,345.174,341.374Z" fill="#21587b"/>
                      <path id="Trazado_86157" data-name="Trazado 86157" d="M340.2,344.244V343.3c0-.089-.054-.13-.121-.092l-3.324,1.919a.292.292,0,0,0-.122.232v.943c0,.089.055.13.122.091l3.324-1.919A.288.288,0,0,0,340.2,344.244Z" fill="#21587b"/>
                      <path id="Trazado_86158" data-name="Trazado 86158" d="M360.344,319.858l-71.413-41.23a1.537,1.537,0,0,0-1.538,0l-25.43,14.713a.548.548,0,0,0,0,.949L333.342,335.5a1.54,1.54,0,0,0,1.537,0l25.464-14.694A.549.549,0,0,0,360.344,319.858Z" fill="#d2e1f1"/>
                      <path id="Trazado_86159" data-name="Trazado 86159" d="M360.343,320.808l-.255.147-71.157-41.082a1.537,1.537,0,0,0-1.538,0l-25.174,14.565-.255-.148a.548.548,0,0,1,0-.949l25.43-14.713a1.537,1.537,0,0,1,1.538,0l71.413,41.23A.549.549,0,0,1,360.343,320.808Z" fill="#727997"/>
                      <g id="Grupo_34933" data-name="Grupo 34933">
                        <path id="Trazado_86160" data-name="Trazado 86160" d="M291.447,285.8l60.447,34.9,2.611-1.677-60.289-34.808Z" fill="#00223d"/>
                        <path id="Trazado_86161" data-name="Trazado 86161" d="M287.522,291.346,342.4,323.031l1.88-2.1-54-31.18Z" fill="#00223d"/>
                        <path id="Trazado_86162" data-name="Trazado 86162" d="M274.308,288.8l68.5,39.551,2.758-1.592-68.5-39.551Z" fill="#00223d"/>
                        <path id="Trazado_86163" data-name="Trazado 86163" d="M269.9,291.345l68.5,39.551,2.758-1.592-68.5-39.551Z" fill="#00223d"/>
                        <path id="Trazado_86164" data-name="Trazado 86164" d="M265.5,293.887,334,333.438l2.758-1.592-68.5-39.551Z" fill="#00223d"/>
                        <path id="Trazado_86165" data-name="Trazado 86165" d="M351.253,320.333l2.758,1.592,2.758-1.593-2.758-1.592Z" fill="#00223d"/>
                        <path id="Trazado_86166" data-name="Trazado 86166" d="M341.525,322.524l5.725,3.305,2.758-1.592-5.725-3.305Z" fill="#00223d"/>
                      </g>
                      <path id="Trazado_86167" data-name="Trazado 86167" d="M286.182,329.835l-19.255-11.117a.83.83,0,0,1,0-1.573l13.167-7.6a3.008,3.008,0,0,1,2.725,0l19.255,11.117a.83.83,0,0,1,0,1.573l-13.167,7.6A3.011,3.011,0,0,1,286.182,329.835Z" fill="url(#linear-gradient-7)"/>
                      <path id="Trazado_86168" data-name="Trazado 86168" d="M302.074,321.3l-19.255-11.117a3.008,3.008,0,0,0-2.725,0l-13.167,7.6a1.167,1.167,0,0,0-.473.465c-.2-.381-.048-.809.473-1.109l13.167-7.6a3.008,3.008,0,0,1,2.725,0l19.255,11.117c.521.3.673.728.473,1.109A1.167,1.167,0,0,0,302.074,321.3Z" fill="#727997"/>
                    </g>
                  </g>
                  <g id="Grupo_34940" data-name="Grupo 34940" opacity="0.11">
                    <g id="Grupo_34939" data-name="Grupo 34939" clip-path="url(#clip-path-2)">
                      <g id="Grupo_34938" data-name="Grupo 34938">
                        <path id="Trazado_86169" data-name="Trazado 86169" d="M287.465,271.079,373.4,320.694a3.533,3.533,0,0,0,3.178.132l51.281-29.607c.814-.471.712-1.292-.228-1.835L341.7,239.769a3.532,3.532,0,0,0-3.179-.131l-51.28,29.607C286.422,269.715,286.524,270.536,287.465,271.079Z" fill="url(#linear-gradient-8)"/>
                        <path id="Trazado_86170" data-name="Trazado 86170" d="M373.656,279.975,354.4,268.858a.831.831,0,0,1,0-1.574l13.168-7.6a3.008,3.008,0,0,1,2.725,0L389.548,270.8a.83.83,0,0,1,0,1.573l-13.167,7.6A3.014,3.014,0,0,1,373.656,279.975Z" fill="url(#linear-gradient-9)"/>
                        <path id="Trazado_86171" data-name="Trazado 86171" d="M389.548,271.443l-19.255-11.117a3.008,3.008,0,0,0-2.725,0l-13.168,7.6a1.18,1.18,0,0,0-.473.465c-.2-.38-.047-.809.473-1.109l13.168-7.6a3.008,3.008,0,0,1,2.725,0L389.548,270.8c.521.3.672.729.473,1.109A1.173,1.173,0,0,0,389.548,271.443Z" fill="#9198db"/>
                        <g id="Grupo_34937" data-name="Grupo 34937">
                          <path id="Trazado_86172" data-name="Trazado 86172" d="M398.013,297.348,326.6,256.118a1.536,1.536,0,0,0-1.539,0l-25.429,14.713a.548.548,0,0,0,0,.949l71.379,41.211a1.54,1.54,0,0,0,1.537,0L398.013,298.3A.549.549,0,0,0,398.013,297.348Z" fill="#adb1f2"/>
                          <path id="Trazado_86173" data-name="Trazado 86173" d="M398.013,298.3l-.256.147L326.6,257.363a1.536,1.536,0,0,0-1.539,0l-25.173,14.565-.256-.148a.548.548,0,0,1,0-.949l25.429-14.713a1.536,1.536,0,0,1,1.539,0l71.412,41.23A.549.549,0,0,1,398.013,298.3Z" fill="#9198db"/>
                          <g id="Grupo_34936" data-name="Grupo 34936">
                            <path id="Trazado_86174" data-name="Trazado 86174" d="M306.288,269.828,368.5,305.746l-2.464,1.423-62.212-35.918Z" fill="#24126a"/>
                            <path id="Trazado_86175" data-name="Trazado 86175" d="M312.843,266.044l59.132,34.14-2.464,1.423-59.132-34.14Z" fill="#24126a"/>
                            <path id="Trazado_86176" data-name="Trazado 86176" d="M376.39,302.733l5.523,3.189-2.464,1.423-5.523-3.189Z" fill="#24126a"/>
                            <path id="Trazado_86177" data-name="Trazado 86177" d="M371.512,307.486l3.846,2.22-2.464,1.423-3.846-2.22Z" fill="#24126a"/>
                            <path id="Trazado_86178" data-name="Trazado 86178" d="M316.95,263.672l69.07,39.878-2.464,1.423L314.486,265.1Z" fill="#24126a"/>
                            <path id="Trazado_86179" data-name="Trazado 86179" d="M321.057,261.3l69.07,39.878-2.464,1.423-69.07-39.878Z" fill="#24126a"/>
                            <path id="Trazado_86180" data-name="Trazado 86180" d="M325.164,258.93l69.07,39.878-2.464,1.423L322.7,260.353Z" fill="#24126a"/>
                          </g>
                        </g>
                      </g>
                    </g>
                  </g>
                </g>
              </g>
            </g>
            <g id="Grupo_34947" data-name="Grupo 34947">
              <path id="Trazado_86181" data-name="Trazado 86181" d="M318.216,230.083,324.986,234l.2-1.176-6.771-3.913Z" fill="#42e8e0"/>
              <path id="Trazado_86182" data-name="Trazado 86182" d="M326.075,234.621l3.689,2.132.2-1.176-3.689-2.132Z" fill="#42e8e0"/>
              <path id="Trazado_86183" data-name="Trazado 86183" d="M335.5,240.066l2.669,1.543.2-1.176-2.669-1.543Z" fill="#42e8e0"/>
              <path id="Trazado_86184" data-name="Trazado 86184" d="M333.558,238.941l.912.527.2-1.176-.912-.527Z" fill="#42e8e0"/>
              <path id="Trazado_86185" data-name="Trazado 86185" d="M330.867,237.386l1.656.958.2-1.176-1.656-.958Z" fill="#42e8e0"/>
              <path id="Trazado_86186" data-name="Trazado 86186" d="M323.573,239.075l2.669,1.543.2-1.176-2.669-1.543Z" fill="#42e8e0"/>
              <path id="Trazado_86187" data-name="Trazado 86187" d="M317.309,235.455l5.23,3.023.2-1.176-5.23-3.023Z" fill="#42e8e0"/>
              <g id="Grupo_34944" data-name="Grupo 34944">
                <path id="Trazado_86188" data-name="Trazado 86188" d="M324.807,254.509l5.23,3.023.2-1.176-5.23-3.023Z" fill="#42e8e0"/>
                <path id="Trazado_86189" data-name="Trazado 86189" d="M322.116,252.954l1.656.957.2-1.175-1.656-.958Z" fill="#42e8e0"/>
              </g>
              <path id="Trazado_86190" data-name="Trazado 86190" d="M325.679,249.13l5.23,3.023.2-1.176-5.23-3.023Z" fill="#42e8e0"/>
              <path id="Trazado_86191" data-name="Trazado 86191" d="M322.989,247.575l1.656.957.2-1.175-1.656-.957Z" fill="#42e8e0"/>
              <path id="Trazado_86192" data-name="Trazado 86192" d="M320.946,277.72l-9.852-5.694-.2,1.176,9.852,5.694Z" fill="#42e8e0"/>
              <path id="Trazado_86193" data-name="Trazado 86193" d="M324.418,279.727l-2.438-1.409-.2,1.176,2.438,1.409Z" fill="#42e8e0"/>
              <path id="Trazado_86194" data-name="Trazado 86194" d="M341.731,280.869l-9.852-5.694-.2,1.175,9.852,5.694Z" fill="#42e8e0"/>
              <path id="Trazado_86195" data-name="Trazado 86195" d="M345.2,282.876l-2.438-1.409-.2,1.176L345,284.052Z" fill="#42e8e0"/>
              <path id="Trazado_86196" data-name="Trazado 86196" d="M314.217,270.884l-2.669-1.543-.2,1.176,2.669,1.543Z" fill="#42e8e0"/>
              <path id="Trazado_86197" data-name="Trazado 86197" d="M330.457,274.367l-2.669-1.543-.2,1.176,2.669,1.543Z" fill="#42e8e0"/>
              <path id="Trazado_86198" data-name="Trazado 86198" d="M320.481,274.5l-5.23-3.023-.2,1.176,5.23,3.023Z" fill="#42e8e0"/>
              <path id="Trazado_86199" data-name="Trazado 86199" d="M323.172,276.059l-1.656-.957-.2,1.175,1.656.958Z" fill="#42e8e0"/>
              <path id="Trazado_86200" data-name="Trazado 86200" d="M329.484,279.7l-5.23-3.023-.2,1.176,5.23,3.023Z" fill="#42e8e0"/>
              <path id="Trazado_86201" data-name="Trazado 86201" d="M332.175,281.256l-1.656-.957-.2,1.176,1.656.957Z" fill="#42e8e0"/>
              <path id="Trazado_86202" data-name="Trazado 86202" d="M330,277.054l-2.669-1.543-.2,1.176,2.669,1.543Z" fill="#42e8e0"/>
              <path id="Trazado_86203" data-name="Trazado 86203" d="M336.267,280.674l-5.23-3.023-.2,1.176,5.23,3.023Z" fill="#42e8e0"/>
              <path id="Trazado_86204" data-name="Trazado 86204" d="M338.958,282.229l-1.656-.957-.2,1.176,1.656.957Z" fill="#42e8e0"/>
              <path id="Trazado_86205" data-name="Trazado 86205" d="M317.463,269.812,312,266.655l-.2,1.175,5.461,3.157Z" fill="#42e8e0"/>
              <path id="Trazado_86206" data-name="Trazado 86206" d="M322.447,272.692l-3.949-2.283-.2,1.176,3.949,2.283Z" fill="#42e8e0"/>
              <path id="Trazado_86207" data-name="Trazado 86207" d="M326.15,274.833l-2.669-1.543-.2,1.176,2.669,1.543Z" fill="#42e8e0"/>
              <path id="Trazado_86208" data-name="Trazado 86208" d="M352.037,286.814l-5.461-3.156-.2,1.176,5.461,3.157Z" fill="#42e8e0"/>
              <path id="Trazado_86209" data-name="Trazado 86209" d="M357.021,289.694l-3.949-2.283-.2,1.176,3.949,2.283Z" fill="#42e8e0"/>
              <path id="Trazado_86210" data-name="Trazado 86210" d="M360.724,291.835l-2.669-1.543-.2,1.176,2.669,1.543Z" fill="#42e8e0"/>
              <path id="Trazado_86211" data-name="Trazado 86211" d="M349.9,251.328l5.461,3.156.2-1.176-5.461-3.157Z" fill="#42e8e0"/>
              <path id="Trazado_86212" data-name="Trazado 86212" d="M344.92,248.447l3.949,2.283.2-1.176-3.949-2.283Z" fill="#42e8e0"/>
              <path id="Trazado_86213" data-name="Trazado 86213" d="M341.216,246.307l2.669,1.543.2-1.176-2.669-1.543Z" fill="#42e8e0"/>
              <path id="Trazado_86214" data-name="Trazado 86214" d="M348.091,247.322l5.461,3.156.2-1.176-5.461-3.156Z" fill="#42e8e0"/>
              <path id="Trazado_86215" data-name="Trazado 86215" d="M343.107,244.441l3.949,2.283.2-1.176-3.949-2.283Z" fill="#42e8e0"/>
              <path id="Trazado_86216" data-name="Trazado 86216" d="M339.4,242.3l2.669,1.543.2-1.176-2.669-1.543Z" fill="#42e8e0"/>
              <path id="Trazado_86217" data-name="Trazado 86217" d="M326.039,252.288l1.845,1.066.2-1.176-1.844-1.066Z" fill="#42e8e0"/>
              <path id="Trazado_86218" data-name="Trazado 86218" d="M322.567,250.281,325,251.69l.2-1.176-2.438-1.409Z" fill="#42e8e0"/>
              <path id="Trazado_86219" data-name="Trazado 86219" d="M317.952,267.142l-5.461-3.156-.2,1.176,5.461,3.156Z" fill="#42e8e0"/>
              <path id="Trazado_86220" data-name="Trazado 86220" d="M322.935,270.022l-3.949-2.283-.2,1.176,3.949,2.283Z" fill="#42e8e0"/>
              <path id="Trazado_86221" data-name="Trazado 86221" d="M326.639,272.163l-2.669-1.543-.2,1.176,2.669,1.543Z" fill="#42e8e0"/>
              <path id="Trazado_86222" data-name="Trazado 86222" d="M314.788,262.366l-1.844-1.066-.2,1.176,1.844,1.066Z" fill="#42e8e0"/>
              <path id="Trazado_86223" data-name="Trazado 86223" d="M318.26,264.373l-2.438-1.409-.2,1.176,2.438,1.409Z" fill="#42e8e0"/>
              <path id="Trazado_86224" data-name="Trazado 86224" d="M323.223,267.241l-3.928-2.27-.2,1.176,3.928,2.27Z" fill="#42e8e0"/>
              <path id="Trazado_86225" data-name="Trazado 86225" d="M328.549,244.883l1.845,1.066.2-1.176-1.844-1.066Z" fill="#42e8e0"/>
              <path id="Trazado_86226" data-name="Trazado 86226" d="M325.077,242.876l2.438,1.409.2-1.176-2.438-1.409Z" fill="#42e8e0"/>
              <path id="Trazado_86227" data-name="Trazado 86227" d="M320.115,240.009l3.928,2.27.2-1.176-3.928-2.27Z" fill="#42e8e0"/>
              <path id="Trazado_86228" data-name="Trazado 86228" d="M331.358,249.243l3.928,2.27.2-1.176-3.928-2.27Z" fill="#42e8e0"/>
              <path id="Trazado_86229" data-name="Trazado 86229" d="M324.934,245.741l5.294,3.06.2-1.176-5.294-3.06Z" fill="#42e8e0"/>
              <path id="Trazado_86230" data-name="Trazado 86230" d="M322.243,244.186l1.656.957.2-1.176-1.656-.957Z" fill="#42e8e0"/>
              <path id="Trazado_86231" data-name="Trazado 86231" d="M319.661,242.693l1.656.958.2-1.176-1.657-.958Z" fill="#42e8e0"/>
              <g id="Grupo_34946" data-name="Grupo 34946">
                <path id="Trazado_86232" data-name="Trazado 86232" d="M320.016,257.869l5.23,3.023.2-1.176-5.23-3.023Z" fill="#42e8e0"/>
                <path id="Trazado_86233" data-name="Trazado 86233" d="M317.325,256.314l1.656.957.2-1.175-1.656-.957Z" fill="#42e8e0"/>
                <path id="Trazado_86234" data-name="Trazado 86234" d="M320.376,261.027l1.845,1.066.2-1.176-1.844-1.066Z" fill="#42e8e0"/>
                <path id="Trazado_86235" data-name="Trazado 86235" d="M326.888,258.875l1.845,1.066.2-1.176-1.845-1.066Z" fill="#42e8e0"/>
                <path id="Trazado_86236" data-name="Trazado 86236" d="M329.518,260.393l4.426,2.556.2-1.176-4.426-2.556Z" fill="#42e8e0"/>
                <path id="Trazado_86237" data-name="Trazado 86237" d="M334.729,263.4l2.633,1.521.2-1.176-2.633-1.521Z" fill="#42e8e0"/>
                <path id="Trazado_86238" data-name="Trazado 86238" d="M316.9,259.02l2.438,1.409.2-1.176-2.438-1.409Z" fill="#42e8e0"/>
                <g id="Grupo_34945" data-name="Grupo 34945">
                  <path id="Trazado_86239" data-name="Trazado 86239" d="M316.674,261.78l1.845,1.066.2-1.176-1.844-1.066Z" fill="#42e8e0"/>
                  <path id="Trazado_86240" data-name="Trazado 86240" d="M313.2,259.773l2.438,1.409.2-1.176L313.4,258.6Z" fill="#42e8e0"/>
                </g>
                <path id="Trazado_86241" data-name="Trazado 86241" d="M324.211,257.33l1.656.957.2-1.176-1.656-.957Z" fill="#42e8e0"/>
                <path id="Trazado_86242" data-name="Trazado 86242" d="M321.629,255.837l1.657.958.2-1.176-1.657-.958Z" fill="#42e8e0"/>
              </g>
              <path id="Trazado_86243" data-name="Trazado 86243" d="M334.352,242.34l5.65,3.266.2-1.176-5.65-3.266Z" fill="#42e8e0"/>
              <path id="Trazado_86244" data-name="Trazado 86244" d="M328.024,238.683l5.294,3.06.2-1.176-5.294-3.06Z" fill="#42e8e0"/>
              <path id="Trazado_86245" data-name="Trazado 86245" d="M325.333,237.128l1.656.957.2-1.175-1.656-.958Z" fill="#42e8e0"/>
              <path id="Trazado_86246" data-name="Trazado 86246" d="M322.751,235.635l1.656.957.2-1.176-1.657-.958Z" fill="#42e8e0"/>
              <path id="Trazado_86247" data-name="Trazado 86247" d="M321.339,234.819l-3.574-2.066.2-1.176,3.574,2.066Z" fill="#42e8e0"/>
            </g>
          </g>
        </g>
        <path id="Trazado_86248" data-name="Trazado 86248" d="M285.474,282.355l2.758,1.592,2.758-1.592-2.758-1.592Z" fill="#00223d"/>
        <path id="Trazado_86249" data-name="Trazado 86249" d="M278.712,286.259l5.725,3.305,2.758-1.592-5.725-3.305Z" fill="#00223d"/>
      </g>
    </g>
  </g>
</svg>
