<?xml version="1.0" encoding="UTF-8" standalone="no"?><!DOCTYPE svg PUBLIC "-//W3C//DTD SVG 1.1//EN" "http://www.w3.org/Graphics/SVG/1.1/DTD/svg11.dtd"><svg width="100%" height="100%" viewBox="0 0 225 212" version="1.1" xmlns="http://www.w3.org/2000/svg" xmlns:xlink="http://www.w3.org/1999/xlink" xml:space="preserve" xmlns:serif="http://www.serif.com/" style="fill-rule:evenodd;clip-rule:evenodd;stroke-linejoin:round;stroke-miterlimit:2;"><rect id="Mesa-de-trabajo1" serif:id="Mesa de trabajo1" x="0" y="0" width="225" height="212" style="fill:none;"/><clipPath id="_clip1"><rect x="0" y="0" width="225" height="212"/></clipPath><g clip-path="url(#_clip1)"><g id="Grupo_33739"><path id="Trazado_1035" d="M216.941,58.105c5.129,-46.72 -40.165,-62.952 -72.276,-50.989c-32.371,12.059 -39.876,-7.931 -85.394,-2.22c-46.093,5.783 -22.693,78.134 -22.693,78.134c-0,-0 7.334,62.913 16.022,91.912c8.641,28.842 91.358,18.407 111.48,17.547c20.006,-0.856 37.391,0.8 54.8,-30.873c17.375,-31.612 -7.051,-56.946 -1.939,-103.511Z" style="fill:#50b3b8;fill-rule:nonzero;"/><g id="Grupo_33069"><path id="Trazado_81269" d="M99.7,116.621l-99.321,-57.347l23,-33.543l116.869,67.478l-40.548,23.412Z" style="fill:url(#_Linear2);fill-rule:nonzero;"/><g id="Grupo_33052"><g id="Grupo_33046"><path id="Trazado_81271" d="M104.87,103.318l-66.94,-38.64l53.192,-30.71l66.939,38.643l-53.191,30.707Z" style="fill:url(#_Linear3);fill-rule:nonzero;"/><path id="Trazado_81272" d="M158.061,114.066l-0,-41.455l-53.192,30.71l-0,41.455l53.192,-30.71Z" style="fill:url(#_Linear4);fill-rule:nonzero;"/><path id="Trazado_81273" d="M37.93,64.678l-0,41.455l66.939,38.642l-0,-41.454l-66.939,-38.643Z" style="fill:url(#_Linear5);fill-rule:nonzero;"/></g><g id="Grupo_33051"><g id="Grupo_33047"><path id="Trazado_81274" d="M79.09,54.983l-28.978,16.731l-0,8.969l8.6,4.965l-0,-8.969l28.978,-16.731l-8.6,-4.965Z" style="fill:#fff;fill-rule:nonzero;"/><path id="Trazado_81275" d="M97.498,65.605l-28.979,16.731l-0,8.969l8.6,4.965l-0,-8.969l28.978,-16.731l-8.599,-4.965Z" style="fill:#fff;fill-rule:nonzero;"/><path id="Trazado_81276" d="M115.926,76.243l-28.978,16.731l-0,8.969l8.6,4.966l-0,-8.969l28.978,-16.731l-8.6,-4.966Z" style="fill:#fff;fill-rule:nonzero;"/></g><g id="Grupo_33048"><path id="Trazado_81277" d="M79.089,54.983l-0,3.613l5.526,3.128l3.075,-1.775l-8.601,-4.966Z" style="fill:#00223d;fill-rule:nonzero;"/><path id="Trazado_81278" d="M53.224,78.829l-3.117,1.854l8.6,4.965l-0,-3.733l-5.483,-3.086Z" style="fill:#00223d;fill-rule:nonzero;"/><path id="Trazado_81279" d="M79.09,54.983l-28.978,16.731l-0,8.969l3.117,-1.854l-0,-5.293l25.876,-14.94l-0.015,-3.613Z" style="fill:#21587b;fill-rule:nonzero;"/></g><g id="Grupo_33049"><path id="Trazado_81280" d="M97.498,65.606l-0,3.613l5.526,3.128l3.075,-1.775l-8.601,-4.966Z" style="fill:#00223d;fill-rule:nonzero;"/><path id="Trazado_81281" d="M71.636,89.451l-3.117,1.854l8.6,4.965l-0,-3.733l-5.483,-3.086Z" style="fill:#00223d;fill-rule:nonzero;"/><path id="Trazado_81282" d="M97.498,65.606l-28.979,16.731l-0,8.969l3.117,-1.854l-0,-5.293l25.876,-14.94l-0.014,-3.613Z" style="fill:#21587b;fill-rule:nonzero;"/></g><g id="Grupo_33050"><path id="Trazado_81283" d="M115.927,76.243l-0,3.613l5.526,3.128l3.075,-1.775l-8.601,-4.966Z" style="fill:#00223d;fill-rule:nonzero;"/><path id="Trazado_81284" d="M90.065,100.089l-3.117,1.854l8.6,4.965l-0,-3.733l-5.483,-3.086Z" style="fill:#00223d;fill-rule:nonzero;"/><path id="Trazado_81285" d="M115.926,76.243l-28.978,16.731l-0,8.969l3.117,-1.854l-0,-5.293l25.876,-14.94l-0.015,-3.613Z" style="fill:#21587b;fill-rule:nonzero;"/></g></g></g><g id="Grupo_33060"><g id="Grupo_33059"><clipPath id="_clip6"><path d="M24.143,13.672l-54.15,95.8c-7.877,13.936 -3.665,31.805 9.606,40.757l82.944,55.956c7.096,4.787 15.875,6.411 24.214,4.479l112.486,-26.06c13.918,-3.223 23.864,-15.713 23.89,-30l0.165,-94.548c0.025,-14.45 -10.104,-27.075 -24.216,-30.183l-141.439,-31.15c-13.201,-2.909 -26.849,3.181 -33.5,14.949Z"/></clipPath><g clip-path="url(#_clip6)"><g id="Grupo_33058"><g id="Grupo_33054"><g id="Grupo_33053"><path id="Trazado_81286" d="M148.202,148.091l34.9,-20.147l-0,-15.475l-34.9,20.147l-0,15.475Z" style="fill:url(#_Linear7);fill-rule:nonzero;"/><path id="Trazado_81287" d="M148.203,132.615l34.9,-20.147l-34.894,-20.146l-34.9,20.147l34.894,20.146Z" style="fill:#37a3a5;fill-rule:nonzero;"/><path id="Trazado_81288" d="M148.203,125.338l22.291,-12.87l-22.29,-12.869l-22.291,12.875l22.29,12.864Z" style="fill:#fff;fill-rule:nonzero;"/><path id="Trazado_81289" d="M148.204,101.943l20.261,11.7l2.029,-1.172l-22.29,-12.869l-22.291,12.872l2.029,1.171l20.262,-11.702Z" style="fill:#00223d;fill-rule:nonzero;"/><path id="Trazado_81290" d="M148.204,93.085l34.233,19.761l0.66,-0.381l-34.894,-20.146l-34.9,20.147l0.66,0.381l34.241,-19.762Z" style="fill:#a9ebff;fill-rule:nonzero;"/><path id="Trazado_81291" d="M113.308,127.944l34.895,20.147l-0,-15.475l-34.895,-20.147l-0,15.475Z" style="fill:url(#_Linear8);fill-rule:nonzero;"/></g><path id="Trazado_81292" d="M148.203,131.841l34.224,-19.759l0.671,0.387l-34.9,20.147l-34.894,-20.146l0.671,-0.387l34.228,19.758Z" style="fill:#00223d;fill-rule:nonzero;"/></g><path id="Trazado_81293" d="M154.922,135.359l20.247,-11.824l17.06,13.661l1.44,11.79l0,10.748l60.559,36.9l16.844,9.946l-2.567,7.7l-11.711,4.652l-16.2,-4.813l-21.655,-14.44l-35.842,-19.893l-10.038,-7.7l-0.642,-16.363l-1.283,-9.946l-16.212,-10.418Z" style="fill:#fff;fill-rule:nonzero;"/><g id="Grupo_33055"><path id="Trazado_81294" d="M255.942,221.642c10.627,-0.04 19.354,-8.782 19.377,-19.409l-0,-95.387c-0,-1.452 -1.195,-2.647 -2.647,-2.647c-1.452,0 -2.647,1.195 -2.647,2.647l-0,95.388c0,0.001 0,0.003 0,0.004c0,7.726 -6.357,14.083 -14.083,14.083c-2.472,0 -4.901,-0.651 -7.042,-1.887l-68.555,-39.58c-3.081,-1.786 -4.986,-5.086 -4.992,-8.647l-0,-12.128c-0.008,-5.449 -2.924,-10.499 -7.639,-13.231l-9.849,-5.687c-0.402,-0.232 -0.859,-0.355 -1.324,-0.355c-1.451,0 -2.646,1.195 -2.646,2.647c-0,0.944 0.505,1.82 1.323,2.292l9.849,5.687c3.081,1.786 4.986,5.086 4.992,8.647l-0,12.123c0.009,5.449 2.924,10.499 7.638,13.231l68.554,39.582c2.942,1.714 6.286,2.62 9.691,2.627Z" style="fill:#fff;fill-rule:nonzero;"/></g><path id="Trazado_81295" d="M174.192,124.507c0.726,-1.257 2.359,-1.694 3.616,-0.968l9.849,5.687c4.715,2.732 7.63,7.781 7.638,13.23l-0,12.125c0.006,3.561 1.911,6.861 4.992,8.647l72.356,41.775c1.762,1.02 3.723,1.648 5.75,1.84c-0.183,1.751 -0.115,3.535 -0.26,5.3c-2.866,-0.238 -5.643,-1.11 -8.131,-2.553l-72.356,-41.775c-4.715,-2.732 -7.63,-7.782 -7.638,-13.231l-0,-12.128c-0.006,-3.561 -1.911,-6.861 -4.992,-8.646l-9.849,-5.687c-0.821,-0.471 -1.329,-1.348 -1.329,-2.295c0,-0.463 0.122,-0.919 0.354,-1.321Z" style="fill:#fff;fill-rule:nonzero;"/><g id="Grupo_33056"><path id="Trazado_81297" d="M255.942,221.642c10.627,-0.04 19.354,-8.782 19.377,-19.409l-0,-95.387c-0,-1.452 -1.195,-2.647 -2.647,-2.647c-1.452,0 -2.647,1.195 -2.647,2.647l-0,95.388c0,0.001 0,0.003 0,0.004c0,7.726 -6.357,14.083 -14.083,14.083c-2.472,0 -4.901,-0.651 -7.042,-1.887l-68.555,-39.58c-3.081,-1.786 -4.986,-5.086 -4.992,-8.647l-0,-12.128c-0.008,-5.449 -2.924,-10.499 -7.639,-13.231l-9.849,-5.687c-0.402,-0.232 -0.859,-0.355 -1.324,-0.355c-1.451,0 -2.646,1.195 -2.646,2.647c-0,0.944 0.505,1.82 1.323,2.292l9.849,5.687c3.081,1.786 4.986,5.086 4.992,8.647l-0,12.123c0.009,5.449 2.924,10.499 7.638,13.231l68.554,39.582c2.942,1.714 6.286,2.62 9.691,2.627Z" style="fill:#37a3a5;fill-rule:nonzero;"/></g><g id="Grupo_33057"><path id="Trazado_81298" d="M140.838,140.671l3.562,2.056l-0,-7.156l-3.562,-2.057l-0,7.157Z" style="fill:#fff;fill-opacity:0.2;fill-rule:nonzero;"/><path id="Trazado_81299" d="M134.907,137.244l3.562,2.056l-0,-7.154l-3.562,-2.056l-0,7.154Z" style="fill:#fff;fill-opacity:0.4;fill-rule:nonzero;"/><path id="Trazado_81300" d="M128.974,133.819l3.562,2.056l0,-7.154l-3.562,-2.056l0,7.154Z" style="fill:#fff;fill-opacity:0.8;fill-rule:nonzero;"/><path id="Trazado_81301" d="M123.042,130.391l3.562,2.056l-0,-7.154l-3.562,-2.056l-0,7.154Z" style="fill:#fff;fill-rule:nonzero;"/><path id="Trazado_81302" d="M117.11,126.969l3.562,2.056l-0,-7.154l-3.562,-2.056l-0,7.154Z" style="fill:#fff;fill-rule:nonzero;"/></g></g></g></g></g><g id="Grupo_33061"><path id="Trazado_81304" d="M80.411,114.804c0.143,2.649 1.544,5.077 3.767,6.526c2.082,1.2 3.768,0.228 3.768,-2.175c-0.144,-2.65 -1.545,-5.077 -3.768,-6.526c-2.08,-1.201 -3.767,-0.227 -3.767,2.175Z" style="fill:#fff;fill-rule:nonzero;"/><path id="Elipse_3404" d="M67.792,104.444c1.47,-0.849 3.857,0.529 5.328,3.076c1.47,2.547 1.47,5.303 -0,6.152c-1.47,0.849 -3.858,-0.529 -5.328,-3.076c-1.47,-2.547 -1.47,-5.303 -0,-6.152Z" style="fill:#fff;"/><path id="Trazado_81305" d="M52.966,98.959c0.144,2.65 1.545,5.077 3.768,6.526c2.081,1.2 3.767,0.227 3.767,-2.175c-0.144,-2.649 -1.545,-5.077 -3.767,-6.526c-2.08,-1.201 -3.768,-0.227 -3.768,2.175Z" style="fill:#fff;fill-rule:nonzero;"/><path id="Trazado_81306" d="M82.321,112.144c-0.197,0.469 -0.294,0.974 -0.283,1.482c0.144,2.649 1.545,5.077 3.767,6.526c0.555,0.349 1.204,0.519 1.859,0.486c-0.563,1.261 -1.909,1.6 -3.485,0.693c-2.223,-1.449 -3.624,-3.877 -3.767,-6.526c-0.001,-1.618 0.773,-2.566 1.909,-2.661Z" style="fill:#21587b;fill-rule:nonzero;"/><path id="Trazado_81307" d="M68.599,104.221c-0.197,0.469 -0.294,0.974 -0.283,1.482c0.143,2.649 1.545,5.077 3.767,6.526c0.555,0.349 1.204,0.518 1.859,0.486c-0.563,1.261 -1.909,1.6 -3.484,0.693c-2.223,-1.449 -3.625,-3.876 -3.768,-6.526c-0.001,-1.618 0.774,-2.566 1.909,-2.661Z" style="fill:#21587b;fill-rule:nonzero;"/><path id="Trazado_81308" d="M54.874,96.299c-0.197,0.469 -0.294,0.974 -0.283,1.482c0.143,2.65 1.545,5.077 3.768,6.526c0.555,0.349 1.204,0.519 1.858,0.486c-0.562,1.261 -1.909,1.6 -3.484,0.693c-2.223,-1.449 -3.624,-3.876 -3.768,-6.526c0.001,-1.619 0.776,-2.566 1.909,-2.661Z" style="fill:#21587b;fill-rule:nonzero;"/></g><g id="Grupo_33068"><g id="Grupo_33062"><path id="Trazado_81310" d="M169.305,33.135l-31.148,-17.981l24.751,-14.29l31.148,17.981l-24.751,14.29Z" style="fill:url(#_Linear9);fill-rule:nonzero;"/><path id="Trazado_81311" d="M194.056,38.133l-0,-19.29l-24.751,14.29l0,19.29l24.751,-14.29Z" style="fill:url(#_Linear10);fill-rule:nonzero;"/><path id="Trazado_81312" d="M138.157,15.152l-0,19.29l31.148,17.981l0,-19.29l-31.148,-17.981Z" style="fill:url(#_Linear11);fill-rule:nonzero;"/></g><g id="Grupo_33067"><g id="Grupo_33063"><path id="Trazado_81313" d="M157.309,10.64l-13.484,7.785l-0,4.173l4,2.31l-0,-4.173l13.484,-7.785l-4,-2.31Z" style="fill:#fff;fill-rule:nonzero;"/><path id="Trazado_81314" d="M165.875,15.583l-13.484,7.785l0,4.173l4,2.31l0,-4.173l13.484,-7.785l-4,-2.31Z" style="fill:#fff;fill-rule:nonzero;"/><path id="Trazado_81315" d="M174.45,20.533l-13.484,7.785l-0,4.173l4,2.31l-0,-4.173l13.484,-7.785l-4,-2.31Z" style="fill:#fff;fill-rule:nonzero;"/></g><g id="Grupo_33064"><path id="Trazado_81316" d="M157.311,10.64l-0,1.681l2.571,1.455l1.431,-0.826l-4.002,-2.31Z" style="fill:#21587b;fill-rule:nonzero;"/><path id="Trazado_81317" d="M145.274,21.735l-1.45,0.863l4,2.31l-0,-1.736l-2.55,-1.437Z" style="fill:#21587b;fill-rule:nonzero;"/><path id="Trazado_81318" d="M157.309,10.64l-13.484,7.785l-0,4.173l1.45,-0.863l-0,-2.463l12.041,-6.952l-0.007,-1.68Z" style="fill:#00223d;fill-rule:nonzero;"/></g><g id="Grupo_33065"><path id="Trazado_81319" d="M165.875,15.583l-0,1.681l2.571,1.456l1.431,-0.826l-4.002,-2.311Z" style="fill:#21587b;fill-rule:nonzero;"/><path id="Trazado_81320" d="M153.841,26.679l-1.45,0.863l4,2.311l-0,-1.737l-2.55,-1.437Z" style="fill:#21587b;fill-rule:nonzero;"/><path id="Trazado_81321" d="M165.875,15.583l-13.484,7.785l0,4.173l1.45,-0.863l0,-2.463l12.041,-6.952l-0.007,-1.68Z" style="fill:#00223d;fill-rule:nonzero;"/></g><g id="Grupo_33066"><path id="Trazado_81322" d="M174.45,20.533l-0,1.681l2.571,1.456l1.431,-0.826l-4.002,-2.311Z" style="fill:#21587b;fill-rule:nonzero;"/><path id="Trazado_81323" d="M162.416,31.629l-1.45,0.863l4,2.311l-0,-1.737l-2.55,-1.437Z" style="fill:#21587b;fill-rule:nonzero;"/><path id="Trazado_81324" d="M174.45,20.533l-13.484,7.785l-0,4.173l1.45,-0.863l-0,-2.463l12.041,-6.952l-0.007,-1.68Z" style="fill:#00223d;fill-rule:nonzero;"/></g></g></g></g></g></g><defs><linearGradient id="_Linear2" x1="0" y1="0" x2="1" y2="0" gradientUnits="userSpaceOnUse" gradientTransform="matrix(84.0613,139.971,-139.971,84.0613,37.8639,22.1863)"><stop offset="0" style="stop-color:#113f6d;stop-opacity:1"/><stop offset="1" style="stop-color:#fff;stop-opacity:1"/></linearGradient><linearGradient id="_Linear3" x1="0" y1="0" x2="1" y2="0" gradientUnits="userSpaceOnUse" gradientTransform="matrix(-95.0236,-73.4416,73.4416,-95.0236,104.483,73.6362)"><stop offset="0" style="stop-color:#fff;stop-opacity:1"/><stop offset="1" style="stop-color:#d2e6ee;stop-opacity:1"/></linearGradient><linearGradient id="_Linear4" x1="0" y1="0" x2="1" y2="0" gradientUnits="userSpaceOnUse" gradientTransform="matrix(53.192,0,0,53.192,104.869,108.693)"><stop offset="0" style="stop-color:#fff;stop-opacity:1"/><stop offset="1" style="stop-color:#d2e6ee;stop-opacity:1"/></linearGradient><linearGradient id="_Linear5" x1="0" y1="0" x2="1" y2="0" gradientUnits="userSpaceOnUse" gradientTransform="matrix(66.939,0,0,66.939,37.93,104.726)"><stop offset="0" style="stop-color:#fff;stop-opacity:1"/><stop offset="1" style="stop-color:#d2e6ee;stop-opacity:1"/></linearGradient><linearGradient id="_Linear7" x1="0" y1="0" x2="1" y2="0" gradientUnits="userSpaceOnUse" gradientTransform="matrix(43.7995,30.1718,-30.1718,43.7995,-2089.38,116.138)"><stop offset="0" style="stop-color:#fff;stop-opacity:1"/><stop offset="1" style="stop-color:#d2e6ee;stop-opacity:1"/></linearGradient><linearGradient id="_Linear8" x1="0" y1="0" x2="1" y2="0" gradientUnits="userSpaceOnUse" gradientTransform="matrix(46.7244,14.1063,-14.1063,46.7244,-2055.56,123.654)"><stop offset="0" style="stop-color:#fff;stop-opacity:1"/><stop offset="1" style="stop-color:#d2e6ee;stop-opacity:1"/></linearGradient><linearGradient id="_Linear9" x1="0" y1="0" x2="1" y2="0" gradientUnits="userSpaceOnUse" gradientTransform="matrix(-44.2161,-34.175,34.175,-44.2161,169.125,19.323)"><stop offset="0" style="stop-color:#fff;stop-opacity:1"/><stop offset="1" style="stop-color:#d2e6ee;stop-opacity:1"/></linearGradient><linearGradient id="_Linear10" x1="0" y1="0" x2="1" y2="0" gradientUnits="userSpaceOnUse" gradientTransform="matrix(24.751,0,0,24.751,169.305,35.633)"><stop offset="0" style="stop-color:#fff;stop-opacity:1"/><stop offset="1" style="stop-color:#d2e6ee;stop-opacity:1"/></linearGradient><linearGradient id="_Linear11" x1="0" y1="0" x2="1" y2="0" gradientUnits="userSpaceOnUse" gradientTransform="matrix(31.148,0,0,31.148,138.157,33.7875)"><stop offset="0" style="stop-color:#fff;stop-opacity:1"/><stop offset="1" style="stop-color:#d2e6ee;stop-opacity:1"/></linearGradient></defs></svg>