<svg xmlns="http://www.w3.org/2000/svg" xmlns:xlink="http://www.w3.org/1999/xlink" width="447.56" height="269.821" viewBox="0 0 447.56 269.821">
  <defs>
    <linearGradient id="linear-gradient" x1="0.5" x2="0.5" y2="1" gradientUnits="objectBoundingBox">
      <stop offset="0" stop-color="#fff"/>
      <stop offset="1" stop-color="#d2e6ee"/>
    </linearGradient>
    <radialGradient id="radial-gradient" cx="0.076" cy="0.019" r="1.465" gradientTransform="translate(0.001)" gradientUnits="objectBoundingBox">
      <stop offset="0" stop-color="#f6f6f7"/>
      <stop offset="0.477" stop-color="#f9f9fa"/>
      <stop offset="0.715" stop-color="#fff"/>
    </radialGradient>
  </defs>
  <g id="Grupo_41865" data-name="Grupo 41865" transform="translate(-703.936 -12625.754)">
    <path id="Trazado_95210" data-name="Trazado 95210" d="M538.664,120.075l-12.624,7.289v23.485L413.9,215.594l-8.522-4.92,57.848-33.4V171.3l10.256-5.922V151.651l19.889-11.483a3.372,3.372,0,0,0,2.753-.124.919.919,0,0,0,0-1.741,3.329,3.329,0,0,0-3.016,0c-.752.434-.818,1.108-.215,1.589L473,151.375v13.733l-9.778,5.646V148.763l-.119-.069-5.652-3.263,33.911-19.579V103.834l24.09-13.908a3.371,3.371,0,0,0,2.753-.124.919.919,0,0,0,0-1.741,3.329,3.329,0,0,0-3.016,0c-.751.434-.818,1.108-.215,1.589l-24.09,13.908v22.018l-33.911,19.579-55.132-31.831V88.694a2.956,2.956,0,0,0,1.27-.347.92.92,0,0,0,0-1.742,3.336,3.336,0,0,0-3.017,0,.92.92,0,0,0,0,1.742,2.952,2.952,0,0,0,1.269.347V113.6l.119.069,33.161,19.146H410.478l-19.541-11.282c.6-.481.536-1.156-.215-1.589a3.336,3.336,0,0,0-3.017,0,.92.92,0,0,0,0,1.742,3.372,3.372,0,0,0,2.753.124l19.891,11.484H435.46v-.007l27.284,15.753V177L404.9,210.4l-7.757-4.478,40.936-23.636a3.373,3.373,0,0,0,2.754-.124.92.92,0,0,0,0-1.742,3.336,3.336,0,0,0-3.017,0c-.751.434-.818,1.109-.215,1.589L396.66,205.644l-7.489-4.324,48.97-28.273H451.45a1.224,1.224,0,0,0,.584.632,3.334,3.334,0,0,0,3.016,0,.919.919,0,0,0,0-1.742,3.334,3.334,0,0,0-3.016,0,1.227,1.227,0,0,0-.584.632H438.012l-.055.032-49.265,28.442L385.67,199.3l-.119.068-2.207,1.275-11.733-6.774v-9.426l9.694-5.6v.025h15.21l16.746-9.668a3.372,3.372,0,0,0,2.753-.124.919.919,0,0,0,0-1.741,3.332,3.332,0,0,0-3.016,0c-.752.434-.819,1.108-.216,1.589l-16.4,9.466h-14.3l28.5-16.452a3.36,3.36,0,0,0,2.812-.1.919.919,0,0,0,0-1.741,3.331,3.331,0,0,0-3.017,0c-.733.423-.82,1.076-.263,1.555l-35.544,20.521v-4.537l21.147-12.209v-8.62l17.217-9.941a3.373,3.373,0,0,0,2.754-.124.92.92,0,0,0,0-1.742,3.336,3.336,0,0,0-3.017,0c-.751.434-.818,1.109-.215,1.59l-17.217,9.941v8.62L374.1,177.367v5.088l-2.962,1.709v9.979l11.732,6.774-7.709,4.45L351.013,191.43V175.584l16.393-9.464a3.365,3.365,0,0,0,2.813-.1.919.919,0,0,0,0-1.742,3.334,3.334,0,0,0-3.016,0c-.733.424-.82,1.077-.263,1.556l-15.926,9.2v-12.8l12.582-7.264v-24.08a2.956,2.956,0,0,0,1.27-.347.92.92,0,0,0,0-1.742,3.336,3.336,0,0,0-3.017,0,.92.92,0,0,0,0,1.742,2.953,2.953,0,0,0,1.269.347v23.8l-12.105,6.989V119.222h-.477l0,72.484,24.141,13.939-8.657,5-31.554-18.218V149.038L319.3,140.28V123.96l-13.392-7.732c.6-.481.536-1.156-.215-1.59a3.336,3.336,0,0,0-3.017,0,.92.92,0,0,0,0,1.742,3.372,3.372,0,0,0,2.753.124l13.393,7.733v16.319l15.168,8.758V192.7l31.553,18.218-6.416,3.7-42.585-24.587V153.019l-.119-.07-37.695-21.762c.6-.481.537-1.156-.215-1.59a3.334,3.334,0,0,0-3.016,0,.919.919,0,0,0,0,1.742,3.371,3.371,0,0,0,2.753.124l37.814,21.832v37.019l.119.069L358.648,214.9l-10.4,6L277.4,180v-18.42l-.119-.07-59.316-34.246c.6-.481.536-1.156-.215-1.59a3.336,3.336,0,0,0-3.017,0,.92.92,0,0,0,0,1.742,3.372,3.372,0,0,0,2.753.124l59.436,34.316v18.42l.119.07,39.732,22.939H285.255l-36.485-21.064c.6-.481.537-1.156-.215-1.59a3.334,3.334,0,0,0-3.016,0,.919.919,0,0,0,0,1.742,3.375,3.375,0,0,0,2.753.124l36.834,21.267,32.472,0,30.173,17.421-12.086,6.978-25.935-14.974H268.1l-47.365-27.347H194.463c-10.109-6.667-.129.478-.129.478h26.276L256.4,206.979H225.488l-14.888-8.6c.6-.481.536-1.156-.215-1.59a3.336,3.336,0,0,0-3.017,0,.92.92,0,0,0,0,1.742,3.371,3.371,0,0,0,2.753.124l15.238,8.8h31.869l10.747,6.206H309.62l7.257,4.19h-17.7l-.055.032-8.88,5.127h-37L242.8,216.985H221.87a1.219,1.219,0,0,0-.584-.631,3.329,3.329,0,0,0-3.016,0,.919.919,0,0,0,0,1.741,3.329,3.329,0,0,0,3.016,0,1.222,1.222,0,0,0,.584-.632h20.8l10.438,6.026h36.3l-10,5.773a3.374,3.374,0,0,0-2.754.124.919.919,0,0,0,0,1.741,3.331,3.331,0,0,0,3.017,0c.751-.433.818-1.107.216-1.588L299.3,218.329h18.4l17.5,10.1-6.466,3.733.359.208,3.8,2.2H320.8l-15.813-9.13c.6-.481.536-1.156-.216-1.59a3.334,3.334,0,0,0-3.016,0,.919.919,0,0,0,0,1.742,3.373,3.373,0,0,0,2.753.124l16.164,9.331h13.052l8.851,5.111-5.443,3.143h-9.654l-.055.032-8.432,4.869h-6.334l-14.3-8.259c.642-.483.589-1.175-.177-1.617a3.329,3.329,0,0,0-3.016,0,.919.919,0,0,0,0,1.741,3.382,3.382,0,0,0,2.706.147l14.664,8.465h6.59l.055-.032,8.432-4.869h8.7l-17.4,10.046h-9.394l-19.585-11.306h-59.06l-36.632-21.149c.634-.482.579-1.171-.184-1.611a3.336,3.336,0,0,0-3.017,0,.92.92,0,0,0,0,1.742,3.381,3.381,0,0,0,2.716.141l36.989,21.355H289.8L309.385,254.3h9.651l.055-.032,23.966-13.836,6.287,3.629L322.265,259.7h-19.1l-15.758-9.1H246.967a1.219,1.219,0,0,0-.584-.631,3.329,3.329,0,0,0-3.016,0,.919.919,0,0,0,0,1.741,3.331,3.331,0,0,0,3.017,0,1.226,1.226,0,0,0,.584-.631h40.312l14.929,8.62H245.223l-.055.032-54.307,31.355a3.372,3.372,0,0,0-2.753.124.919.919,0,0,0,0,1.742,3.334,3.334,0,0,0,3.016,0c.751-.434.819-1.108.216-1.589l54.012-31.185h77.041l.055-.032,27.374-15.8,7.143,4.125-37.761,21.8H252.712l-.055.032-58.224,33.616c-21.161-1.54.128.477.128.477l.055-.032,58.224-33.616h48.433L230.157,311.8v10.808L201.787,338.99a3.372,3.372,0,0,0-2.753.124.919.919,0,0,0,0,1.741,3.336,3.336,0,0,0,3.017,0c.751-.434.818-1.109.215-1.589l28.368-16.379V312.079l71.6-41.336h16.624l-35.8,20.671v4.556l-17.131,9.89a3.375,3.375,0,0,0-2.753.124.919.919,0,0,0,0,1.742,3.334,3.334,0,0,0,3.016,0c.752-.434.819-1.109.216-1.59l9.327-5.385v12.484l-53.889,31.113a3.369,3.369,0,0,0-2.753.124.919.919,0,0,0,0,1.742,3.334,3.334,0,0,0,3.016,0c.751-.434.818-1.109.215-1.59l53.889-31.112V300.475l7.325-4.229V291.69l36.1-20.84-.119-.207,37.936-21.9,6.9,3.981-38.97,22.5v37.019l-71.675,41.382h.956l59.343-34.261v33.481l-1.352.781h.956l.874-.5V319.084l11.377-6.568V275.5l38.97-22.5,6.072,3.506-30.05,17.35v20.294l.12.069,34.167,19.725v6.882L355.8,331.978a3.37,3.37,0,0,0-2.753.124.92.92,0,0,0,0,1.742,3.334,3.334,0,0,0,3.016,0c.752-.434.819-1.109.216-1.59L375.6,321.1v-7.434l-.119-.069L341.315,293.87V274.128l22.706-13.109v8.454l-10.409,6.01a3.373,3.373,0,0,0-2.753.124.919.919,0,0,0,0,1.742,3.334,3.334,0,0,0,3.016,0c.751-.434.818-1.108.216-1.589l10.409-6.01v-9.006l6.868-3.965,8.12,4.688V276.19l-15.317,8.843v10.179l.119.069L396.533,313.9c-.6.482-.536,1.156.215,1.589a3.331,3.331,0,0,0,3.017,0,.919.919,0,0,0,0-1.741,3.372,3.372,0,0,0-2.753-.124l-32.364-18.685V285.31l14.839-8.567V286.89l19.846,11.459c-.6.482-.535,1.156.216,1.589a3.336,3.336,0,0,0,3.017,0,.92.92,0,0,0,0-1.742,3.372,3.372,0,0,0-2.753-.124l-19.847-11.459V261.742l5.7,3.293.12-.068,9.279-5.358,8.512,4.915v11.942L426.2,289.527v11.257a2.964,2.964,0,0,0-1.269.347.92.92,0,0,0,0,1.742,3.336,3.336,0,0,0,3.017,0,.92.92,0,0,0,0-1.742,2.964,2.964,0,0,0-1.27-.347V289.251L404.056,276.19V264.8l36.622,21.144v22.413l-19.863,11.468H402.588l-.055.031-31.277,18.058a3.375,3.375,0,0,0-2.753.124.92.92,0,0,0,0,1.742,3.333,3.333,0,0,0,3.017,0c.751-.433.818-1.108.215-1.588L402.717,320.3h17.271L362.53,353.476a3.372,3.372,0,0,0-2.753.124c-.011.006-.018.014-.029.02h3.489l77.92-44.988V285.668l-.119-.069-45.493-26.266,9.155-5.285,77.672,44.844V325.65L508.9,340.97c-.6.481-.536,1.156.215,1.589a3.336,3.336,0,0,0,3.017,0,.92.92,0,0,0,0-1.742,3.375,3.375,0,0,0-2.753-.124l-26.534-15.319V298.616l-.119-.069-77.552-44.774,8.717-5.033,76.812,44.348h45.807l2.15,1.241v-.551l-2.022-1.168H490.836l-64.842-37.435h13.041l22.131,12.777h17.046l.055-.032,23.642-13.649a3.372,3.372,0,0,0,2.753-.124.92.92,0,0,0,0-1.742,3.336,3.336,0,0,0-3.017,0c-.751.434-.818,1.109-.215,1.589l-23.347,13.48H461.294l-22.13-12.777h-14l-10.794-6.232L437.64,235.03l6.616,3.819v10.027l16.807,9.7c-.6.481-.535,1.156.216,1.589a3.336,3.336,0,0,0,3.017,0,.92.92,0,0,0,0-1.742,3.372,3.372,0,0,0-2.753-.124l-16.808-9.7v-9.475l17.924,10.348h8.488l.055-.032,10.12-5.843a3.369,3.369,0,0,0,2.753-.124.919.919,0,0,0,0-1.741,3.329,3.329,0,0,0-3.016,0c-.752.434-.818,1.108-.215,1.589L471.018,249h-8.232l-24.667-14.243,4.481-2.586-.358-.208-13.944-8.05,6.7-3.866h10.126l7.246,4.184c-.577.48-.5,1.143.242,1.571a3.334,3.334,0,0,0,3.016,0,.919.919,0,0,0,0-1.741,3.364,3.364,0,0,0-2.785-.109l-7.591-4.383h-9.427l17.077-9.859,40.181,23.2h28.913l.055-.032,16.279-9.4a3.13,3.13,0,0,0,.337.094v-2.2a2.586,2.586,0,0,0-.6.239c-.751.434-.818,1.108-.215,1.589l-15.984,9.229H493.209L462.22,214.535h13.263l12.966,7.486c-.6.481-.536,1.156.215,1.589a3.331,3.331,0,0,0,3.017,0,.919.919,0,0,0,0-1.741,3.371,3.371,0,0,0-2.753-.124l-13.315-7.688H461.393l-8.016-4.628,20.4-11.777h64.888v-.478H474.6L482.7,192.5h48.262l.055-.032,7.652-4.418V187.5l-7.835,4.523H482.568l-.055.032L427.82,223.633l-6.071-3.505,57.5-33.2H521.3l.055-.032,17.308-9.993v-.551l-17.491,10.1H479.121l-.055.032-57.8,33.368-6.9-3.981,112.143-64.746V127.64l12.147-7.013Zm-97.02,112.092-55.976,32.317-55.974-32.317L385.67,199.85Z" transform="translate(559.395 12541.454)" fill="#00223d" stroke="#00223d" stroke-width="1" opacity="0.1"/>
    <g id="Computer" transform="translate(757.567 12658.98)">
      <g id="Grupo_39638" data-name="Grupo 39638" transform="translate(0)">
        <g id="Grupo_39637" data-name="Grupo 39637" transform="translate(77.873 132.558)">
          <path id="Trazado_92884" data-name="Trazado 92884" d="M246.481,325.746v26h-35.41v-26H223.6v12.5a5.183,5.183,0,1,0,10.367,0v-12.5Z" transform="translate(-186.423 -325.746)" fill="#00223d"/>
          <path id="Trazado_92885" data-name="Trazado 92885" d="M211.071,325.746H223.6v5.271l-12.526-1.44Z" transform="translate(-186.423 -325.746)" fill="#2c2c30"/>
          <path id="Trazado_92886" data-name="Trazado 92886" d="M250.509,325.746v7.892l-12.517-1.44v-6.452Z" transform="translate(-190.452 -325.746)" fill="#2c2c30"/>
          <rect id="Rectángulo_27975" data-name="Rectángulo 27975" width="84.71" height="3.529" transform="translate(0 25.716)" fill="#00223d"/>
        </g>
        <path id="Trazado_92887" data-name="Trazado 92887" d="M330.963,179.452V295.729a9.6,9.6,0,0,1-9.6,9.6H100.111a9.6,9.6,0,0,1-9.6-9.6V179.452a9.594,9.594,0,0,1,9.6-9.59H321.365A9.594,9.594,0,0,1,330.963,179.452Z" transform="translate(-90.51 -169.862)" fill="#00223d"/>
        <rect id="Rectángulo_27976" data-name="Rectángulo 27976" width="240.456" height="109.211" transform="translate(0 12.066)" fill="url(#linear-gradient)"/>
        <path id="Trazado_92888" data-name="Trazado 92888" d="M234.687,320.136a3.389,3.389,0,1,1-3.389-3.389A3.389,3.389,0,0,1,234.687,320.136Z" transform="translate(-111.07 -191.842)" fill="#42444f"/>
      </g>
    </g>
    <path id="Trazado_95209" data-name="Trazado 95209" d="M140.436,169.862V206.08a8.479,8.479,0,0,1-4.22,7.32L98.8,235a8.43,8.43,0,0,1-8.291.083V179.819a9.961,9.961,0,0,1,9.966-9.957Z" transform="translate(666.601 12499.221)" fill="#35363b" opacity="0.55" style="mix-blend-mode: multiply;isolation: isolate"/>
    <g id="Document" transform="translate(1042.821 12637.003)">
      <g id="Artwork_6" data-name="Artwork 6">
        <g id="Grupo_39656" data-name="Grupo 39656">
          <g id="Grupo_39652" data-name="Grupo 39652" transform="translate(13.099)">
            <path id="Trazado_92892" data-name="Trazado 92892" d="M449.031,202.736H408.359V133.529H438.6l10.434,10.433Z" transform="translate(-408.359 -133.529)" fill="#35363b"/>
            <g id="Grupo_39650" data-name="Grupo 39650" transform="translate(5.814 8.967)">
              <rect id="Rectángulo_27994" data-name="Rectángulo 27994" width="29.09" height="1.991" fill="#555866"/>
              <rect id="Rectángulo_27995" data-name="Rectángulo 27995" width="29.09" height="1.991" transform="translate(0 4.948)" fill="#555866"/>
              <rect id="Rectángulo_27996" data-name="Rectángulo 27996" width="29.09" height="1.991" transform="translate(0 9.895)" fill="#555866"/>
              <rect id="Rectángulo_27997" data-name="Rectángulo 27997" width="29.09" height="1.991" transform="translate(0 14.843)" fill="#555866"/>
              <rect id="Rectángulo_27998" data-name="Rectángulo 27998" width="29.09" height="1.991" transform="translate(0 19.79)" fill="#555866"/>
              <rect id="Rectángulo_27999" data-name="Rectángulo 27999" width="17.123" height="1.991" transform="translate(0 24.738)" fill="#42444f"/>
            </g>
            <g id="Grupo_39651" data-name="Grupo 39651" transform="translate(5.814 43.659)">
              <rect id="Rectángulo_28000" data-name="Rectángulo 28000" width="29.09" height="1.991" fill="#555866"/>
              <rect id="Rectángulo_28001" data-name="Rectángulo 28001" width="29.09" height="1.991" transform="translate(0 4.948)" fill="#555866"/>
              <rect id="Rectángulo_28002" data-name="Rectángulo 28002" width="29.09" height="1.991" transform="translate(0 9.895)" fill="#555866"/>
              <rect id="Rectángulo_28003" data-name="Rectángulo 28003" width="17.123" height="1.991" transform="translate(0 14.843)" fill="#42444f"/>
            </g>
            <path id="Trazado_92893" data-name="Trazado 92893" d="M453.04,143.962H442.606V133.529h0l10.434,10.433Z" transform="translate(-412.368 -133.529)" fill="#27282b"/>
          </g>
          <g id="Grupo_39655" data-name="Grupo 39655" transform="translate(0 11.979)">
            <path id="Trazado_92894" data-name="Trazado 92894" d="M434.195,216.3H393.523V147.1h30.238l10.434,10.434Z" transform="translate(-393.523 -147.096)" fill="#e6eaf0"/>
            <g id="Grupo_39653" data-name="Grupo 39653" transform="translate(5.814 8.967)">
              <rect id="Rectángulo_28004" data-name="Rectángulo 28004" width="29.09" height="1.991" fill="#42444f"/>
              <rect id="Rectángulo_28005" data-name="Rectángulo 28005" width="29.09" height="1.991" transform="translate(0 4.948)" fill="#42444f"/>
              <rect id="Rectángulo_28006" data-name="Rectángulo 28006" width="29.09" height="1.991" transform="translate(0 9.895)" fill="#42444f"/>
              <rect id="Rectángulo_28007" data-name="Rectángulo 28007" width="29.09" height="1.991" transform="translate(0 14.843)" fill="#42444f"/>
              <rect id="Rectángulo_28008" data-name="Rectángulo 28008" width="29.09" height="1.991" transform="translate(0 19.79)" fill="#42444f"/>
              <rect id="Rectángulo_28009" data-name="Rectángulo 28009" width="17.123" height="1.991" transform="translate(0 24.738)" fill="#42444f"/>
            </g>
            <g id="Grupo_39654" data-name="Grupo 39654" transform="translate(5.814 43.659)">
              <rect id="Rectángulo_28010" data-name="Rectángulo 28010" width="29.09" height="1.991" fill="#42444f"/>
              <rect id="Rectángulo_28011" data-name="Rectángulo 28011" width="29.09" height="1.991" transform="translate(0 4.947)" fill="#42444f"/>
              <rect id="Rectángulo_28012" data-name="Rectángulo 28012" width="29.09" height="1.991" transform="translate(0 9.895)" fill="#42444f"/>
              <rect id="Rectángulo_28013" data-name="Rectángulo 28013" width="17.123" height="1.991" transform="translate(0 14.843)" fill="#42444f"/>
            </g>
            <path id="Trazado_92895" data-name="Trazado 92895" d="M438.2,157.53H427.77V147.1h0L438.2,157.53Z" transform="translate(-397.532 -147.096)" fill="#c5cbd6"/>
          </g>
        </g>
      </g>
    </g>
    <g id="Grupo_41861" data-name="Grupo 41861" transform="translate(703.936 12625.754)">
      <g id="Grupo_39676" data-name="Grupo 39676">
        <path id="Trazado_92907" data-name="Trazado 92907" d="M126.9,150.838v43.2a8.479,8.479,0,0,1-4.22,7.32l-37.412,21.6a8.455,8.455,0,0,1-8.449,0l-37.4-21.6a8.461,8.461,0,0,1-4.229-7.32v-43.2a8.449,8.449,0,0,1,4.229-7.32l37.4-21.6a8.45,8.45,0,0,1,8.449,0l37.412,21.6A8.459,8.459,0,0,1,126.9,150.838Z" transform="translate(-30.858 -120.789)" fill="#00223d"/>
        <g id="Ribbon" transform="translate(4.328 54.358)">
          <path id="Trazado_92908" data-name="Trazado 92908" d="M126.9,182.354v18.887a8.324,8.324,0,0,1-1.018,4.017H36.2a8.434,8.434,0,0,1-1.018-4.017V182.354Z" transform="translate(-35.186 -182.354)" fill="#202124"/>
        </g>
        <g id="Ribbon-2" data-name="Ribbon" transform="translate(0 52.292)">
          <path id="Trazado_92909" data-name="Trazado 92909" d="M130.449,180.014H30.285l3.072,11.452-3.072,11.452H130.449l-2.919-11.452Z" transform="translate(-30.285 -180.014)" fill="#37a3a5"/>
        </g>
        <text id="DATA" transform="translate(48.016 70.766)" fill="#e6eaf0" font-size="24" font-family="Montserrat-Black, Montserrat" font-weight="800" letter-spacing="0.05em"><tspan x="-37.944" y="0">DATA</tspan></text>
      </g>
      <g id="gear" transform="translate(32.403 17.223)">
        <g id="Grupo_39677" data-name="Grupo 39677">
          <g id="gear-2" data-name="gear">
            <path id="Trazado_92910" data-name="Trazado 92910" d="M91.062,154.706a12.2,12.2,0,0,0,0-4.528H87.128a8.315,8.315,0,0,0-.742-1.792l2.779-2.779a12.163,12.163,0,0,0-3.2-3.2l-2.781,2.782a8.227,8.227,0,0,0-1.792-.742v-3.935a12.2,12.2,0,0,0-4.528,0v3.935a8.256,8.256,0,0,0-1.791.742L72.29,142.4a12.13,12.13,0,0,0-3.2,3.2l2.779,2.779a8.181,8.181,0,0,0-.741,1.792H67.2a12.2,12.2,0,0,0,0,4.528H71.13a8.174,8.174,0,0,0,.741,1.792l-2.779,2.78a12.117,12.117,0,0,0,3.2,3.2l2.782-2.781a8.35,8.35,0,0,0,1.791.743v3.933a12.2,12.2,0,0,0,4.528,0v-3.933a8.319,8.319,0,0,0,1.792-.743l2.781,2.781a12.1,12.1,0,0,0,3.2-3.2L86.387,156.5a8.308,8.308,0,0,0,.742-1.792Zm-11.933.186a2.451,2.451,0,1,1,2.451-2.45A2.45,2.45,0,0,1,79.129,154.892Z" transform="translate(-66.984 -140.296)" fill="#202124"/>
          </g>
          <g id="gear-3" data-name="gear" transform="translate(20.844 14.49)">
            <path id="Trazado_92911" data-name="Trazado 92911" d="M105.221,165.462a7.4,7.4,0,0,0,0-2.751h-2.39a5.113,5.113,0,0,0-.45-1.089l1.688-1.689a7.383,7.383,0,0,0-1.944-1.946l-1.691,1.69a4.979,4.979,0,0,0-1.089-.45v-2.392a7.455,7.455,0,0,0-2.751,0v2.392a5.015,5.015,0,0,0-1.089.45l-1.69-1.69a7.357,7.357,0,0,0-1.944,1.946l1.689,1.689a5.023,5.023,0,0,0-.45,1.089H90.72a7.4,7.4,0,0,0,0,2.751h2.39a5.024,5.024,0,0,0,.45,1.089l-1.689,1.689a7.357,7.357,0,0,0,1.944,1.946l1.69-1.69a5.112,5.112,0,0,0,1.089.452v2.39a7.4,7.4,0,0,0,2.751,0v-2.39a5.074,5.074,0,0,0,1.089-.452l1.691,1.69a7.367,7.367,0,0,0,1.944-1.945l-1.688-1.69a5.113,5.113,0,0,0,.45-1.089Zm-7.251.113a1.489,1.489,0,1,1,1.489-1.489A1.489,1.489,0,0,1,97.971,165.575Z" transform="translate(-90.591 -156.707)" fill="#202124"/>
          </g>
        </g>
      </g>
      <g id="gear-4" data-name="gear" transform="translate(32.403 16.298)">
        <g id="Grupo_39678" data-name="Grupo 39678">
          <g id="gear-5" data-name="gear">
            <path id="Trazado_92912" data-name="Trazado 92912" d="M91.062,153.658a12.2,12.2,0,0,0,0-4.528H87.128a8.315,8.315,0,0,0-.742-1.792l2.779-2.78a12.151,12.151,0,0,0-3.2-3.2l-2.781,2.782a8.226,8.226,0,0,0-1.792-.742V139.46a12.2,12.2,0,0,0-4.528,0V143.4a8.255,8.255,0,0,0-1.791.742l-2.782-2.782a12.118,12.118,0,0,0-3.2,3.2l2.779,2.78a8.181,8.181,0,0,0-.741,1.792H67.2a12.2,12.2,0,0,0,0,4.528H71.13a8.174,8.174,0,0,0,.741,1.792l-2.779,2.779a12.117,12.117,0,0,0,3.2,3.2l2.782-2.781a8.351,8.351,0,0,0,1.791.743v3.934a12.2,12.2,0,0,0,4.528,0v-3.934a8.321,8.321,0,0,0,1.792-.743l2.781,2.781a12.1,12.1,0,0,0,3.2-3.2l-2.779-2.782a8.308,8.308,0,0,0,.742-1.792Zm-11.933.186a2.451,2.451,0,1,1,2.451-2.45A2.45,2.45,0,0,1,79.129,153.844Z" transform="translate(-66.984 -139.248)" fill="#fff"/>
          </g>
          <g id="gear-6" data-name="gear" transform="translate(20.844 14.489)">
            <path id="Trazado_92913" data-name="Trazado 92913" d="M105.221,164.414a7.4,7.4,0,0,0,0-2.751h-2.39a5.113,5.113,0,0,0-.45-1.089l1.688-1.689a7.383,7.383,0,0,0-1.944-1.946l-1.691,1.69a4.979,4.979,0,0,0-1.089-.45v-2.392a7.4,7.4,0,0,0-2.751,0v2.392a5.016,5.016,0,0,0-1.089.45l-1.69-1.69a7.357,7.357,0,0,0-1.944,1.946l1.689,1.689a5.023,5.023,0,0,0-.45,1.089H90.72a7.4,7.4,0,0,0,0,2.751h2.39a5.023,5.023,0,0,0,.45,1.089l-1.689,1.689a7.357,7.357,0,0,0,1.944,1.946l1.69-1.69a5.11,5.11,0,0,0,1.089.452v2.39a7.454,7.454,0,0,0,2.751,0V167.9a5.072,5.072,0,0,0,1.089-.452l1.691,1.69a7.367,7.367,0,0,0,1.944-1.945l-1.688-1.69a5.113,5.113,0,0,0,.45-1.089Zm-7.251.113a1.489,1.489,0,1,1,1.489-1.489A1.489,1.489,0,0,1,97.971,164.527Z" transform="translate(-90.591 -155.658)" fill="#fff"/>
          </g>
        </g>
      </g>
    </g>
    <g id="Grupo_41862" data-name="Grupo 41862" transform="translate(733.938 12770.781)">
      <g id="Grupo_39647" data-name="Grupo 39647" transform="translate(0 0)">
        <g id="Grupo_39640" data-name="Grupo 39640" transform="translate(35.62 14.736)">
          <rect id="Rectángulo_27977" data-name="Rectángulo 27977" width="11.626" height="84.317" transform="matrix(0.992, -0.13, 0.13, 0.992, 0, 1.512)" fill="#42444f"/>
          <path id="Trazado_92891" data-name="Trazado 92891" d="M437.3,282.689a1.952,1.952,0,1,1-2.19-1.681A1.952,1.952,0,0,1,437.3,282.689Z" transform="translate(-428.883 -276.744)" fill="#e6eaf0"/>
          <circle id="Elipse_3770" data-name="Elipse 3770" cx="1.952" cy="1.952" r="1.952" transform="translate(4.816 11.195) rotate(-18.79)" fill="#e6eaf0"/>
          <g id="Grupo_39639" data-name="Grupo 39639" transform="translate(10.234 65.087)">
            <rect id="Rectángulo_27978" data-name="Rectángulo 27978" width="8.149" height="1.398" transform="matrix(0.992, -0.13, 0.13, 0.992, 0, 1.06)" fill="#e6eaf0"/>
            <rect id="Rectángulo_27979" data-name="Rectángulo 27979" width="8.149" height="1.398" transform="translate(0.351 3.737) rotate(-7.476)" fill="#e6eaf0"/>
            <rect id="Rectángulo_27980" data-name="Rectángulo 27980" width="8.149" height="1.398" transform="translate(0.703 6.414) rotate(-7.475)" fill="#e6eaf0"/>
            <rect id="Rectángulo_27981" data-name="Rectángulo 27981" width="8.149" height="1.398" transform="translate(1.054 9.091) rotate(-7.475)" fill="#e6eaf0"/>
          </g>
        </g>
        <g id="Grupo_39643" data-name="Grupo 39643" transform="translate(18.485)">
          <rect id="Rectángulo_27982" data-name="Rectángulo 27982" width="16.326" height="99.171" transform="translate(0 0.818) rotate(-2.871)" fill="url(#linear-gradient)"/>
          <circle id="Elipse_3771" data-name="Elipse 3771" cx="4.063" cy="4.063" r="4.063" transform="translate(6.386 42.123)" fill="#00223d"/>
          <g id="Grupo_39641" data-name="Grupo 39641" transform="translate(4.295 28.886)">
            <rect id="Rectángulo_27983" data-name="Rectángulo 27983" width="10.612" height="1.385" transform="translate(0 0.532) rotate(-2.871)" fill="#00223d"/>
            <rect id="Rectángulo_27984" data-name="Rectángulo 27984" width="10.612" height="1.385" transform="translate(0.136 3.236) rotate(-2.871)" fill="#00223d"/>
          </g>
          <g id="Grupo_39642" data-name="Grupo 39642" transform="translate(6.137 65.612)">
            <rect id="Rectángulo_27985" data-name="Rectángulo 27985" width="10.612" height="1.385" transform="translate(0 0.532) rotate(-2.871)" fill="#00223d"/>
            <rect id="Rectángulo_27986" data-name="Rectángulo 27986" width="10.612" height="1.385" transform="translate(0.136 3.236) rotate(-2.871)" fill="#00223d"/>
          </g>
        </g>
        <g id="Grupo_39646" data-name="Grupo 39646" transform="translate(0 7.894)">
          <rect id="Rectángulo_27987" data-name="Rectángulo 27987" width="18.74" height="91.969" fill="#37a3a5"/>
          <circle id="Elipse_3772" data-name="Elipse 3772" cx="5.702" cy="5.702" r="5.702" transform="translate(3.668 7.233)" fill="#e6eaf0"/>
          <g id="Grupo_39644" data-name="Grupo 39644" transform="translate(3.42 60.462)">
            <rect id="Rectángulo_27988" data-name="Rectángulo 27988" width="11.9" height="1.385" fill="#e6eaf0"/>
            <rect id="Rectángulo_27989" data-name="Rectángulo 27989" width="11.9" height="1.385" transform="translate(0 2.707)" fill="#e6eaf0"/>
          </g>
          <g id="Grupo_39645" data-name="Grupo 39645" transform="translate(3.42 81.177)">
            <rect id="Rectángulo_27990" data-name="Rectángulo 27990" width="11.9" height="1.385" fill="#e6eaf0"/>
            <rect id="Rectángulo_27991" data-name="Rectángulo 27991" width="11.9" height="1.385" transform="translate(0 2.707)" fill="#e6eaf0"/>
          </g>
        </g>
      </g>
      <g id="Grupo_39648" data-name="Grupo 39648" transform="translate(49.942 33.372)">
        <rect id="Rectángulo_27992" data-name="Rectángulo 27992" width="7.784" height="66.295" transform="translate(0 1.423) rotate(-10.53)" fill="#e6eaf0"/>
        <rect id="Rectángulo_27993" data-name="Rectángulo 27993" width="2.412" height="38.129" transform="translate(5.499 17.507) rotate(-10.53)" fill="#6f7082"/>
      </g>
    </g>
    <text id="_32-bit_address" data-name="32-bit address" transform="translate(870.729 12691.819)" fill="#00223d" font-size="12" font-family="Roboto-Regular, Roboto"><tspan x="-39.475" y="0">32-bit address</tspan></text>
    <text id="_4.3_billion_Possible_addresses" data-name="4.3 billion
Possible addresses" transform="translate(870.729 12713.819)" fill="#00223d" font-size="12" font-family="Roboto-Black, Roboto" font-weight="800"><tspan x="-26.947" y="0">4.3 billion</tspan><tspan x="-52.055" y="17">Possible addresses</tspan></text>
    <text id="Example:_192.01.246" data-name="Example:
192.01.246" transform="translate(868.729 12749.819)" fill="#00223d" font-size="12" font-family="Roboto-Regular, Roboto"><tspan x="-24.448" y="0">Example:</tspan><tspan font-family="Roboto-Black, Roboto" font-weight="800"><tspan x="-31.424" y="17">192.01.246</tspan></tspan></text>
    <g id="Computer-2" data-name="Computer" transform="translate(903.533 12729.102)">
      <g id="Grupo_39638-2" data-name="Grupo 39638" transform="translate(0)">
        <g id="Grupo_39637-2" data-name="Grupo 39637" transform="translate(73.588 125.264)">
          <path id="Trazado_92884-2" data-name="Trazado 92884" d="M244.532,325.746v24.572H211.071V325.746h11.837v11.811a4.9,4.9,0,1,0,9.8,0V325.746Z" transform="translate(-187.78 -325.746)" fill="#00223d"/>
          <path id="Trazado_92885-2" data-name="Trazado 92885" d="M211.071,325.746h11.837v4.981l-11.837-1.361Z" transform="translate(-187.779 -325.746)" fill="#2c2c30"/>
          <path id="Trazado_92886-2" data-name="Trazado 92886" d="M249.82,325.746V333.2l-11.828-1.361v-6.1Z" transform="translate(-193.068 -325.746)" fill="#2c2c30"/>
          <rect id="Rectángulo_27975-2" data-name="Rectángulo 27975" width="80.049" height="3.335" transform="translate(0 24.301)" fill="#00223d"/>
        </g>
        <path id="Trazado_92887-2" data-name="Trazado 92887" d="M317.733,178.924V288.8a9.073,9.073,0,0,1-9.07,9.07H99.583a9.073,9.073,0,0,1-9.07-9.07V178.924a9.066,9.066,0,0,1,9.07-9.062h209.08A9.066,9.066,0,0,1,317.733,178.924Z" transform="translate(-90.51 -169.862)" fill="#00223d"/>
        <rect id="Rectángulo_27976-2" data-name="Rectángulo 27976" width="227.226" height="103.202" transform="translate(0 11.402)" fill="url(#linear-gradient)"/>
        <path id="Trazado_92888-2" data-name="Trazado 92888" d="M234.314,319.949a3.2,3.2,0,1,1-3.2-3.2A3.2,3.2,0,0,1,234.314,319.949Z" transform="translate(-117.499 -198.714)" fill="#42444f"/>
      </g>
    </g>
    <text id="_128-bit_address" data-name="128-bit address" transform="translate(1011.729 12757.819)" fill="#00223d" font-size="12" font-family="Roboto-Regular, Roboto"><tspan x="-42.853" y="0">128-bit address</tspan></text>
    <text id="_340_indecillion_Possible_addresses" data-name="340 indecillion
Possible addresses" transform="translate(1010.729 12779.819)" fill="#00223d" font-size="12" font-family="Roboto-Black, Roboto" font-weight="800"><tspan x="-39.829" y="0">340 indecillion</tspan><tspan x="-52.055" y="17">Possible addresses</tspan></text>
    <text id="Example:_2002:db8::8a3f:362:7897" data-name="Example:
2002:db8::8a3f:362:7897" transform="translate(1007.729 12815.819)" fill="#00223d" font-size="12" font-family="Roboto-Regular, Roboto"><tspan x="-24.448" y="0">Example:</tspan><tspan font-family="Roboto-Black, Roboto" font-weight="800"><tspan x="-69.7" y="17">2002:db8::8a3f:362:7897</tspan></tspan></text>
    <g id="Grupo_41863" data-name="Grupo 41863" transform="translate(1088.499 12815.126)">
      <g id="Grupo_29482" data-name="Grupo 29482" transform="translate(0 0)">
        <g id="Grupo_18423" data-name="Grupo 18423" transform="translate(0 0)">
          <g id="Grupo_18421" data-name="Grupo 18421">
            <g id="Grupo_18420" data-name="Grupo 18420">
              <g id="Grupo_18419" data-name="Grupo 18419">
                <path id="Trazado_40936" data-name="Trazado 40936" d="M257.619,2177.219a31.5,31.5,0,1,1-31.5-31.5A31.5,31.5,0,0,1,257.619,2177.219Z" transform="translate(-194.623 -2145.721)" fill="#fff"/>
              </g>
            </g>
          </g>
          <path id="Trazado_40937" data-name="Trazado 40937" d="M257.669,2177.274a31.5,31.5,0,1,0-31.5,31.5A31.374,31.374,0,0,0,257.669,2177.274Z" transform="translate(-194.672 -2145.776)" fill="url(#radial-gradient)"/>
          <path id="Trazado_40938" data-name="Trazado 40938" d="M250.759,2177.828a24.042,24.042,0,1,0-24.042,24.042A23.953,23.953,0,0,0,250.759,2177.828Z" transform="translate(-195.123 -2146.226)" fill="none" stroke="#00223d" stroke-miterlimit="10" stroke-width="4"/>
          <g id="Grupo_18422" data-name="Grupo 18422" transform="translate(5.58 17.684)">
            <path id="Trazado_40939" data-name="Trazado 40939" d="M254.776,2164.488a31.5,31.5,0,0,1-54.231,31.369,31.4,31.4,0,0,0,54.231-31.369Z" transform="translate(-200.545 -2164.488)" fill="#eceef0"/>
          </g>
        </g>
      </g>
    </g>
    <g id="Grupo_41864" data-name="Grupo 41864" transform="translate(954.149 12631.832)">
      <g id="Grupo_29482-2" data-name="Grupo 29482" transform="translate(0 0)">
        <g id="Grupo_18423-2" data-name="Grupo 18423" transform="translate(0 0)">
          <g id="Grupo_18421-2" data-name="Grupo 18421">
            <g id="Grupo_18420-2" data-name="Grupo 18420">
              <g id="Grupo_18419-2" data-name="Grupo 18419">
                <path id="Trazado_40936-2" data-name="Trazado 40936" d="M257.619,2177.219a31.5,31.5,0,1,1-31.5-31.5A31.5,31.5,0,0,1,257.619,2177.219Z" transform="translate(-194.623 -2145.721)" fill="#fff"/>
              </g>
            </g>
          </g>
          <path id="Trazado_40937-2" data-name="Trazado 40937" d="M257.669,2177.274a31.5,31.5,0,1,0-31.5,31.5A31.374,31.374,0,0,0,257.669,2177.274Z" transform="translate(-194.672 -2145.776)" fill="url(#radial-gradient)"/>
          <path id="Trazado_40938-2" data-name="Trazado 40938" d="M250.759,2177.828a24.042,24.042,0,1,0-24.042,24.042A23.953,23.953,0,0,0,250.759,2177.828Z" transform="translate(-195.123 -2146.226)" fill="none" stroke="#00223d" stroke-miterlimit="10" stroke-width="4"/>
          <g id="Grupo_18422-2" data-name="Grupo 18422" transform="translate(5.58 17.684)">
            <path id="Trazado_40939-2" data-name="Trazado 40939" d="M254.776,2164.488a31.5,31.5,0,0,1-54.231,31.369,31.4,31.4,0,0,0,54.231-31.369Z" transform="translate(-200.545 -2164.488)" fill="#eceef0"/>
          </g>
        </g>
      </g>
    </g>
    <text id="IPv6" transform="translate(1103.097 12852.39)" fill="#37a3a5" font-size="17" font-family="Roboto-Black, Roboto" font-weight="800"><tspan x="0" y="0">IPv6</tspan></text>
    <text id="IPv4" transform="translate(968.748 12669.097)" fill="#37a3a5" font-size="17" font-family="Roboto-Black, Roboto" font-weight="800"><tspan x="0" y="0">IPv4</tspan></text>
  </g>
</svg>
