<svg xmlns="http://www.w3.org/2000/svg" xmlns:xlink="http://www.w3.org/1999/xlink" width="79" height="79" viewBox="0 0 79 79">
  <defs>
    <clipPath id="clip-path">
      <rect width="79" height="79" fill="none"/>
    </clipPath>
  </defs>
  <g id="Icon" clip-path="url(#clip-path)">
    <g id="Icon-2" data-name="Icon" transform="translate(0.248 -0.237)">
      <circle id="Base" cx="39.5" cy="39.5" r="39.5" transform="translate(-0.248 0.238)" fill="#fff"/>
      <g id="Grupo_29099" data-name="Grupo 29099" transform="translate(-3344.856 -2326.598)">
        <path id="Trazado_69063" data-name="Trazado 69063" d="M3379.632,2351.216l.527.437-.057.088c.441,0,.882,0,1.323,0,.6,0,.764.166.763.775q0,2.353-.016,4.706c0,.194.024.3.24.383a.565.565,0,0,1,.287.426c.021,1.579.012,3.158.012,4.763h-1.743c-.637,0-1.274,0-1.91,0a.488.488,0,0,0-.537.473.511.511,0,0,0,.453.559,2.371,2.371,0,0,0,.429.019h3.288v1.048h-3.528c-.428,0-.65.181-.646.523s.24.523.655.524c1.068,0,2.135,0,3.238,0l-.33,1.048c-.993,0-1.978,0-2.963,0-.245,0-.476.071-.544.309a.67.67,0,0,0,.071.53.737.737,0,0,0,.508.2c.851.02,1.7.009,2.6.009-.1.336-.177.648-.286.949-.021.056-.166.093-.255.094-.667.008-1.335,0-2,.006a1.258,1.258,0,0,0-.331.047.47.47,0,0,0-.355.563.484.484,0,0,0,.508.433c.575.006,1.151,0,1.726,0h.363c-.187.6-.359,1.178-.545,1.748a.5.5,0,0,1-.514.359h-1.043c0,.715-.007,1.39,0,2.064a24.856,24.856,0,0,0,.063,2.583,3.12,3.12,0,0,0,3.1,2.732q3.418.016,6.836-.011a3.213,3.213,0,0,0,3.168-3.3c-.02-4.4-.006-8.792-.006-13.188q0-5.577,0-11.155c0-.358.059-.657.464-.756h2.28a.659.659,0,0,1,.425.7q0,12.239-.006,24.477a6.279,6.279,0,0,1-4.352,6.047,12.559,12.559,0,0,1-1.738.329h-7.4a6.525,6.525,0,0,1-2.6-.734,5.99,5.99,0,0,1-3.3-4.84c-.134-1.477-.06-2.973-.079-4.46,0-.152,0-.3,0-.5-.356,0-.692,0-1.027,0a.485.485,0,0,1-.506-.328c-.2-.577-.371-1.163-.563-1.778h1.975c.409,0,.623-.172.632-.5s-.23-.537-.641-.541c-.647-.006-1.294-.014-1.94,0-.251.007-.4-.05-.447-.315-.047-.237-.135-.466-.217-.739h1.747c.308,0,.616,0,.924,0a.513.513,0,0,0,.575-.5.519.519,0,0,0-.573-.542c-.934-.007-1.869,0-2.8,0h-.193l-.322-1.048c1.088,0,2.154.008,3.22-.008a.752.752,0,0,0,.521-.18.615.615,0,0,0,.09-.55.689.689,0,0,0-.509-.3c-1.088-.027-2.177-.013-3.265-.013h-.349v-1.051h.312c1.068,0,2.135,0,3.2,0,.439,0,.678-.207.667-.546-.01-.318-.206-.5-.569-.5-.975-.006-1.951,0-2.926,0h-.69c-.006-.126-.014-.226-.014-.325q0-2.095,0-4.189c0-.487.077-.6.545-.786v-2.571c0-.842,0-1.684,0-2.526,0-.474.167-.646.647-.655s.945,0,1.281,0l.6-.526Zm-1.664,6.3c0-.5,0-.976,0-1.448a.58.58,0,0,1,.642-.653c.128,0,.257,0,.383,0v-3.136h-3.1v3.123c.105,0,.2.011.286.012.583.007.746.17.746.752v1.35Zm2.569,1.063c-.269,0-.516.014-.761,0-.217-.016-.314.061-.393.27a2.07,2.07,0,0,1-2.39,1.251,2.106,2.106,0,0,1-1.582-1.5h-1.044a3.128,3.128,0,0,0,6.169-.022Zm-.449-5.779c-.007.111-.017.2-.017.292q0,1.366,0,2.733c0,.449-.175.632-.625.642-.139,0-.278,0-.407,0v1.038h2.064v-4.7h-1.019Zm-4.228,3.667h-.292c-.6-.006-.742-.151-.743-.743v-2.9h-1.031v4.682h2.066Z" transform="translate(0)" fill="#00223d"/>
        <path id="Trazado_69064" data-name="Trazado 69064" d="M3434.4,2373.7h-1.048v-1.35c0-.582-.162-.745-.746-.752-.09,0-.181-.008-.286-.012v-3.124h3.105v3.136c-.125,0-.254,0-.383,0a.581.581,0,0,0-.642.653C3434.4,2372.723,3434.4,2373.195,3434.4,2373.7Z" transform="translate(-56.433 -16.182)" fill="#37a3a5"/>
        <path id="Trazado_69065" data-name="Trazado 69065" d="M3413.8,2470.6a3.128,3.128,0,0,1-6.169.022h1.045a2.108,2.108,0,0,0,1.582,1.5,2.07,2.07,0,0,0,2.39-1.251c.079-.209.176-.286.393-.27C3413.289,2470.616,3413.536,2470.6,3413.8,2470.6Z" transform="translate(-33.268 -112.023)" fill="#37a3a5"/>
        <path id="Trazado_69066" data-name="Trazado 69066" d="M3484.544,2376.925h1.02v4.7H3483.5v-1.038c.13,0,.269,0,.408,0,.449-.01.625-.193.624-.642q0-1.367,0-2.733C3484.527,2377.126,3484.537,2377.036,3484.544,2376.925Z" transform="translate(-104.456 -24.124)" fill="#37a3a5"/>
        <path id="Trazado_69067" data-name="Trazado 69067" d="M3400.4,2381.027v1.044h-2.066v-4.683h1.03v.741q0,1.077,0,2.155c0,.592.146.737.743.743C3400.2,2381.028,3400.291,2381.027,3400.4,2381.027Z" transform="translate(-24.544 -24.56)" fill="#37a3a5"/>
      </g>
    </g>
  </g>
</svg>
