<?xml version="1.0" encoding="UTF-8" standalone="no"?><!DOCTYPE svg PUBLIC "-//W3C//DTD SVG 1.1//EN" "http://www.w3.org/Graphics/SVG/1.1/DTD/svg11.dtd"><svg width="100%" height="100%" viewBox="0 0 148 44" version="1.1" xmlns="http://www.w3.org/2000/svg" xmlns:xlink="http://www.w3.org/1999/xlink" xml:space="preserve" xmlns:serif="http://www.serif.com/" style="fill-rule:evenodd;clip-rule:evenodd;stroke-linejoin:round;stroke-miterlimit:2;"><rect id="Mesa-de-trabajo1" serif:id="Mesa de trabajo1" x="0" y="0" width="148" height="44" style="fill:none;"/><g id="Mesa-de-trabajo11" serif:id="Mesa de trabajo1"><g id="Grupo_41979"><g><g id="Grupo_41846"><path id="Rectángulo_2211" d="M38,10.5c0,-2.76 -2.24,-5 -5,-5l-23,-0c-2.76,-0 -5,2.24 -5,5l0,23c0,2.76 2.24,5 5,5l23,-0c2.76,-0 5,-2.24 5,-5l0,-23Z" style="fill:#37a3a5;"/><g><path id="Rectángulo_2215-9" d="M35.001,13.501c0,-2.76 -2.24,-5 -5,-5l-16,-0c-2.76,-0 -5,2.24 -5,5l0,16c0,2.76 2.24,5 5,5l16,-0c2.76,-0 5,-2.24 5,-5l0,-16Z" style="fill:#fff;fill-opacity:0.21;"/></g></g><g id="Grupo_41852"><path id="Rectángulo_2211-2" d="M108,10.5c0,-2.76 -2.24,-5 -5,-5l-23,-0c-2.76,-0 -5,2.24 -5,5l0,23c0,2.76 2.24,5 5,5l23,-0c2.76,-0 5,-2.24 5,-5l0,-23Z" style="fill:#37a3a5;"/><g><path id="Rectángulo_2215-10" d="M105.001,13.501c0,-2.76 -2.24,-5 -5,-5l-16,-0c-2.76,-0 -5,2.24 -5,5l0,16c0,2.76 2.24,5 5,5l16,-0c2.76,-0 5,-2.24 5,-5l0,-16Z" style="fill:#fff;fill-opacity:0.21;"/></g></g><g id="Grupo_41851"><path id="Rectángulo_2211-5" d="M73,10.5c0,-2.76 -2.24,-5 -5,-5l-23,-0c-2.76,-0 -5,2.24 -5,5l0,23c0,2.76 2.24,5 5,5l23,-0c2.76,-0 5,-2.24 5,-5l0,-23Z" style="fill:#37a3a5;"/><g><path id="Rectángulo_2215-13" d="M70.001,13.501c0,-2.76 -2.24,-5 -5,-5l-16,-0c-2.76,-0 -5,2.24 -5,5l0,16c0,2.76 2.24,5 5,5l16,-0c2.76,-0 5,-2.24 5,-5l0,-16Z" style="fill:#fff;fill-opacity:0.21;"/></g></g><g id="Grupo_41853"><path id="Rectángulo_2211-6" d="M143,10.5c0,-2.76 -2.24,-5 -5,-5l-23,-0c-2.76,-0 -5,2.24 -5,5l0,23c0,2.76 2.24,5 5,5l23,-0c2.76,-0 5,-2.24 5,-5l0,-23Z" style="fill:#37a3a5;"/><g><path id="Rectángulo_2215-14" d="M140.001,13.501c0,-2.76 -2.24,-5 -5,-5l-16,-0c-2.76,-0 -5,2.24 -5,5l0,16c0,2.76 2.24,5 5,5l16,-0c2.76,-0 5,-2.24 5,-5l0,-16Z" style="fill:#fff;fill-opacity:0.21;"/></g></g><g id="_0"><text x="17px" y="26.5px" style="font-family:'Roboto-Black', 'Roboto';font-size:16px;fill:#fff;">0</text></g><g id="_0-2"><text x="87px" y="26.5px" style="font-family:'Roboto-Black', 'Roboto';font-size:16px;fill:#fff;">0</text></g><g id="_1"><text x="52px" y="26.5px" style="font-family:'Roboto-Black', 'Roboto';font-size:16px;fill:#fff;">1</text></g><g id="_1-2"><text x="122px" y="26.5px" style="font-family:'Roboto-Black', 'Roboto';font-size:16px;fill:#fff;">1</text></g></g></g></g></svg>