<svg xmlns="http://www.w3.org/2000/svg" xmlns:xlink="http://www.w3.org/1999/xlink" width="212.574" height="134.565" viewBox="0 0 212.574 134.565">
  <defs>
    <linearGradient id="linear-gradient" x1="70.839" y1="0.5" x2="71.839" y2="0.5" gradientUnits="objectBoundingBox">
      <stop offset="0.13" stop-color="#13161a"/>
      <stop offset="0.137" stop-color="#151a21"/>
      <stop offset="0.469" stop-color="#151a21"/>
      <stop offset="0.476" stop-color="#1e2830"/>
      <stop offset="0.876" stop-color="#1e2830"/>
      <stop offset="0.879" stop-color="#151a21"/>
    </linearGradient>
    <linearGradient id="linear-gradient-2" x1="62.231" y1="0.5" x2="63.231" y2="0.5" gradientUnits="objectBoundingBox">
      <stop offset="0.13" stop-color="#13161a"/>
      <stop offset="0.137" stop-color="#232d39"/>
      <stop offset="0.469" stop-color="#232d39"/>
      <stop offset="0.476" stop-color="#2d3c48"/>
      <stop offset="0.876" stop-color="#2d3c48"/>
      <stop offset="0.879" stop-color="#232d39"/>
    </linearGradient>
    <linearGradient id="linear-gradient-3" x1="88.557" y1="0.5" x2="89.556" y2="0.5" xlink:href="#linear-gradient"/>
    <linearGradient id="linear-gradient-4" x1="77.818" y1="0.5" x2="78.818" y2="0.5" xlink:href="#linear-gradient-2"/>
    <linearGradient id="linear-gradient-5" x1="88.594" y1="0.5" x2="89.594" y2="0.5" xlink:href="#linear-gradient"/>
    <linearGradient id="linear-gradient-6" x1="77.819" y1="0.5" x2="78.819" y2="0.5" xlink:href="#linear-gradient-2"/>
    <linearGradient id="linear-gradient-7" x1="88.594" y1="0.5" x2="89.594" y2="0.5" xlink:href="#linear-gradient"/>
    <linearGradient id="linear-gradient-8" x1="77.819" y1="0.5" x2="78.819" y2="0.5" xlink:href="#linear-gradient-2"/>
    <linearGradient id="linear-gradient-10" x1="77.818" y1="0.5" x2="78.818" y2="0.5" xlink:href="#linear-gradient-2"/>
    <linearGradient id="linear-gradient-11" x1="88.595" y1="0.5" x2="89.595" y2="0.5" xlink:href="#linear-gradient"/>
    <linearGradient id="linear-gradient-12" x1="77.818" y1="0.5" x2="78.818" y2="0.5" xlink:href="#linear-gradient-2"/>
    <linearGradient id="linear-gradient-13" x1="88.595" y1="0.5" x2="89.595" y2="0.5" xlink:href="#linear-gradient"/>
    <linearGradient id="linear-gradient-14" x1="77.818" y1="0.5" x2="78.818" y2="0.5" xlink:href="#linear-gradient-2"/>
    <linearGradient id="linear-gradient-15" x1="88.595" y1="0.5" x2="89.595" y2="0.5" xlink:href="#linear-gradient"/>
    <linearGradient id="linear-gradient-17" x1="0.5" x2="0.5" y2="1" gradientUnits="objectBoundingBox">
      <stop offset="0" stop-color="#fff"/>
      <stop offset="1" stop-color="#d2e6ee"/>
    </linearGradient>
  </defs>
  <g id="Grupo_38863" data-name="Grupo 38863" transform="translate(-330.501 -257.451)">
    <path id="Trazado_91254" data-name="Trazado 91254" d="M460.453,384.108l-6.247-15.021L330.5,296.52l54.986-32.285,82.633,89.2Z" transform="translate(0 7.309)" fill="#e8e8e8" style="mix-blend-mode: multiply;isolation: isolate"/>
    <g id="Grupo_39005" data-name="Grupo 39005" transform="translate(338.457 257.451)">
      <g id="Grupo_38880" data-name="Grupo 38880" transform="translate(66.144 2.208)">
        <g id="Grupo_38863-2" data-name="Grupo 38863">
          <path id="Trazado_91255" data-name="Trazado 91255" d="M366.826,262.578l-.653-.394,6.322-3.67.654.394Z" transform="translate(-366.173 -258.514)" fill="#ffe438"/>
          <path id="Trazado_91256" data-name="Trazado 91256" d="M372.81,258.7v.426l-6.323,3.67v-.426Z" transform="translate(-365.834 -258.309)" fill="#ffb901"/>
          <path id="Trazado_91257" data-name="Trazado 91257" d="M366.173,260.281v.426l.653.394v-.426Z" transform="translate(-366.173 -256.61)" fill="#ee9b0f"/>
        </g>
        <g id="Grupo_38864" data-name="Grupo 38864" transform="translate(1.209 0.693)">
          <path id="Trazado_91258" data-name="Trazado 91258" d="M367.409,262.912l-.654-.394,6.322-3.67.654.395Z" transform="translate(-366.755 -258.847)" fill="#ffe438"/>
          <path id="Trazado_91259" data-name="Trazado 91259" d="M373.392,259.037v.426l-6.323,3.67v-.426Z" transform="translate(-366.416 -258.643)" fill="#ffb901"/>
          <path id="Trazado_91260" data-name="Trazado 91260" d="M366.755,260.614v.426l.654.394v-.426Z" transform="translate(-366.755 -256.944)" fill="#ee9b0f"/>
        </g>
        <g id="Grupo_38865" data-name="Grupo 38865" transform="translate(2.419 1.385)">
          <path id="Trazado_91261" data-name="Trazado 91261" d="M367.991,263.245l-.654-.394,6.322-3.67.654.395Z" transform="translate(-367.337 -259.181)" fill="#ffe438"/>
          <path id="Trazado_91262" data-name="Trazado 91262" d="M373.974,259.371v.426l-6.323,3.67v-.426Z" transform="translate(-366.998 -258.976)" fill="#ffb901"/>
          <path id="Trazado_91263" data-name="Trazado 91263" d="M367.337,260.948v.426l.654.394v-.426Z" transform="translate(-367.337 -257.277)" fill="#ee9b0f"/>
        </g>
        <g id="Grupo_38866" data-name="Grupo 38866" transform="translate(3.628 2.078)">
          <path id="Trazado_91264" data-name="Trazado 91264" d="M368.573,263.579l-.654-.394,6.322-3.67.654.394Z" transform="translate(-367.92 -259.514)" fill="#ffe438"/>
          <path id="Trazado_91265" data-name="Trazado 91265" d="M374.557,259.7v.426l-6.322,3.67v-.426Z" transform="translate(-367.581 -259.309)" fill="#ffb901"/>
          <path id="Trazado_91266" data-name="Trazado 91266" d="M367.92,261.281v.426l.654.394v-.426Z" transform="translate(-367.92 -257.611)" fill="#ee9b0f"/>
        </g>
        <g id="Grupo_38867" data-name="Grupo 38867" transform="translate(4.838 2.77)">
          <path id="Trazado_91267" data-name="Trazado 91267" d="M369.155,263.912l-.654-.394,6.323-3.67.653.394Z" transform="translate(-368.502 -259.847)" fill="#ffe438"/>
          <path id="Trazado_91268" data-name="Trazado 91268" d="M375.139,260.037v.426l-6.322,3.67v-.426Z" transform="translate(-368.163 -259.643)" fill="#ffb901"/>
          <path id="Trazado_91269" data-name="Trazado 91269" d="M368.5,261.614v.426l.654.394v-.426Z" transform="translate(-368.502 -257.944)" fill="#ee9b0f"/>
        </g>
        <g id="Grupo_38868" data-name="Grupo 38868" transform="translate(6.047 3.463)">
          <path id="Trazado_91270" data-name="Trazado 91270" d="M369.738,264.246l-.654-.394,6.323-3.67.654.394Z" transform="translate(-369.084 -260.181)" fill="#ffe438"/>
          <path id="Trazado_91271" data-name="Trazado 91271" d="M375.721,260.371v.426l-6.322,3.67v-.426Z" transform="translate(-368.745 -259.976)" fill="#ffb901"/>
          <path id="Trazado_91272" data-name="Trazado 91272" d="M369.084,261.948v.426l.654.394v-.426Z" transform="translate(-369.084 -258.277)" fill="#ee9b0f"/>
        </g>
        <g id="Grupo_38869" data-name="Grupo 38869" transform="translate(7.256 4.156)">
          <path id="Trazado_91273" data-name="Trazado 91273" d="M370.32,264.579l-.654-.394,6.323-3.67.654.394Z" transform="translate(-369.666 -260.514)" fill="#ffe438"/>
          <path id="Trazado_91274" data-name="Trazado 91274" d="M376.3,260.7v.426l-6.322,3.67v-.426Z" transform="translate(-369.327 -260.31)" fill="#ffb901"/>
          <path id="Trazado_91275" data-name="Trazado 91275" d="M369.666,262.281v.426l.654.394v-.426Z" transform="translate(-369.666 -258.611)" fill="#ee9b0f"/>
        </g>
        <g id="Grupo_38870" data-name="Grupo 38870" transform="translate(8.466 4.848)">
          <path id="Trazado_91276" data-name="Trazado 91276" d="M370.9,264.912l-.654-.394,6.323-3.67.654.395Z" transform="translate(-370.248 -260.848)" fill="#ffe438"/>
          <path id="Trazado_91277" data-name="Trazado 91277" d="M376.885,261.038v.426l-6.322,3.67v-.426Z" transform="translate(-369.909 -260.643)" fill="#ffb901"/>
          <path id="Trazado_91278" data-name="Trazado 91278" d="M370.248,262.615v.426l.654.394v-.426Z" transform="translate(-370.248 -258.944)" fill="#ee9b0f"/>
        </g>
        <g id="Grupo_38871" data-name="Grupo 38871" transform="translate(9.675 5.541)">
          <path id="Trazado_91279" data-name="Trazado 91279" d="M371.484,265.246l-.654-.394,6.322-3.67.654.395Z" transform="translate(-370.831 -261.181)" fill="#ffe438"/>
          <path id="Trazado_91280" data-name="Trazado 91280" d="M377.468,261.371v.426l-6.323,3.67v-.426Z" transform="translate(-370.492 -260.976)" fill="#ffb901"/>
          <path id="Trazado_91281" data-name="Trazado 91281" d="M370.831,262.948v.426l.654.394v-.426Z" transform="translate(-370.831 -259.278)" fill="#ee9b0f"/>
        </g>
        <g id="Grupo_38872" data-name="Grupo 38872" transform="translate(10.885 6.233)">
          <path id="Trazado_91282" data-name="Trazado 91282" d="M372.066,265.579l-.653-.395,6.322-3.67.654.394Z" transform="translate(-371.413 -261.515)" fill="#ffe438"/>
          <path id="Trazado_91283" data-name="Trazado 91283" d="M378.05,261.7v.426l-6.323,3.67v-.426Z" transform="translate(-371.074 -261.31)" fill="#ffb901"/>
          <path id="Trazado_91284" data-name="Trazado 91284" d="M371.413,263.281v.426l.653.394v-.426Z" transform="translate(-371.413 -259.611)" fill="#ee9b0f"/>
        </g>
        <g id="Grupo_38873" data-name="Grupo 38873" transform="translate(12.094 6.926)">
          <path id="Trazado_91285" data-name="Trazado 91285" d="M372.649,265.913l-.654-.395,6.322-3.67.654.394Z" transform="translate(-371.995 -261.848)" fill="#ffe438"/>
          <path id="Trazado_91286" data-name="Trazado 91286" d="M378.632,262.038v.426l-6.323,3.67v-.426Z" transform="translate(-371.656 -261.643)" fill="#ffb901"/>
          <path id="Trazado_91287" data-name="Trazado 91287" d="M372,263.615v.426l.654.394v-.426Z" transform="translate(-371.995 -259.945)" fill="#ee9b0f"/>
        </g>
        <g id="Grupo_38874" data-name="Grupo 38874" transform="translate(13.303 7.619)">
          <path id="Trazado_91288" data-name="Trazado 91288" d="M373.231,266.246l-.653-.395,6.322-3.67.654.394Z" transform="translate(-372.577 -262.181)" fill="#ffe438"/>
          <path id="Trazado_91289" data-name="Trazado 91289" d="M379.214,262.371v.426l-6.323,3.67v-.426Z" transform="translate(-372.238 -261.977)" fill="#ffb901"/>
          <path id="Trazado_91290" data-name="Trazado 91290" d="M372.577,263.948v.426l.653.394v-.426Z" transform="translate(-372.577 -260.278)" fill="#ee9b0f"/>
        </g>
        <g id="Grupo_38875" data-name="Grupo 38875" transform="translate(14.513 8.311)">
          <path id="Trazado_91291" data-name="Trazado 91291" d="M373.813,266.58l-.654-.394,6.322-3.67.654.394Z" transform="translate(-373.159 -262.515)" fill="#ffe438"/>
          <path id="Trazado_91292" data-name="Trazado 91292" d="M379.8,262.7v.426l-6.322,3.67v-.426Z" transform="translate(-372.82 -262.31)" fill="#ffb901"/>
          <path id="Trazado_91293" data-name="Trazado 91293" d="M373.159,264.282v.426l.654.394v-.426Z" transform="translate(-373.159 -260.611)" fill="#ee9b0f"/>
        </g>
        <g id="Grupo_38876" data-name="Grupo 38876" transform="translate(15.722 9.004)">
          <path id="Trazado_91294" data-name="Trazado 91294" d="M374.4,266.913l-.654-.394,6.323-3.67.654.394Z" transform="translate(-373.742 -262.848)" fill="#ffe438"/>
          <path id="Trazado_91295" data-name="Trazado 91295" d="M380.379,263.038v.426l-6.322,3.67v-.426Z" transform="translate(-373.403 -262.644)" fill="#ffb901"/>
          <path id="Trazado_91296" data-name="Trazado 91296" d="M373.742,264.615v.426l.654.394v-.426Z" transform="translate(-373.742 -260.945)" fill="#ee9b0f"/>
        </g>
        <g id="Grupo_38877" data-name="Grupo 38877" transform="translate(16.932 9.696)">
          <path id="Trazado_91297" data-name="Trazado 91297" d="M374.978,267.246l-.654-.394,6.323-3.67.654.394Z" transform="translate(-374.324 -263.182)" fill="#ffe438"/>
          <path id="Trazado_91298" data-name="Trazado 91298" d="M380.961,263.372v.426l-6.322,3.67v-.426Z" transform="translate(-373.985 -262.977)" fill="#ffb901"/>
          <path id="Trazado_91299" data-name="Trazado 91299" d="M374.324,264.949v.426l.654.395v-.426Z" transform="translate(-374.324 -261.278)" fill="#ee9b0f"/>
        </g>
        <g id="Grupo_38878" data-name="Grupo 38878" transform="translate(18.141 10.389)">
          <path id="Trazado_91300" data-name="Trazado 91300" d="M375.56,267.58l-.654-.394,6.323-3.67.654.394Z" transform="translate(-374.906 -263.515)" fill="#ffe438"/>
          <path id="Trazado_91301" data-name="Trazado 91301" d="M381.543,263.7v.426l-6.322,3.67v-.426Z" transform="translate(-374.567 -263.311)" fill="#ffb901"/>
          <path id="Trazado_91302" data-name="Trazado 91302" d="M374.906,265.282v.426l.654.394v-.426Z" transform="translate(-374.906 -261.612)" fill="#ee9b0f"/>
        </g>
        <g id="Grupo_38879" data-name="Grupo 38879" transform="translate(19.35 11.082)">
          <path id="Trazado_91303" data-name="Trazado 91303" d="M376.142,267.913l-.654-.394,6.323-3.67.654.394Z" transform="translate(-375.488 -263.848)" fill="#ffe438"/>
          <path id="Trazado_91304" data-name="Trazado 91304" d="M382.125,264.038v.426l-6.322,3.67v-.426Z" transform="translate(-375.149 -263.644)" fill="#ffb901"/>
          <path id="Trazado_91305" data-name="Trazado 91305" d="M375.488,265.615v.426l.654.395v-.426Z" transform="translate(-375.488 -261.945)" fill="#ee9b0f"/>
        </g>
      </g>
      <g id="Grupo_38898" data-name="Grupo 38898" transform="translate(124.033 35.704)">
        <g id="Grupo_38881" data-name="Grupo 38881">
          <path id="Trazado_91306" data-name="Trazado 91306" d="M394.695,278.7l-.654-.394,6.323-3.67.654.394Z" transform="translate(-394.041 -274.639)" fill="#ffe438"/>
          <path id="Trazado_91307" data-name="Trazado 91307" d="M400.678,274.829v.426l-6.322,3.67V278.5Z" transform="translate(-393.702 -274.434)" fill="#ffb901"/>
          <path id="Trazado_91308" data-name="Trazado 91308" d="M394.041,276.406v.426l.654.395V276.8Z" transform="translate(-394.041 -272.735)" fill="#ee9b0f"/>
        </g>
        <g id="Grupo_38882" data-name="Grupo 38882" transform="translate(1.209 0.693)">
          <path id="Trazado_91309" data-name="Trazado 91309" d="M395.277,279.037l-.654-.394,6.323-3.67.654.394Z" transform="translate(-394.623 -274.972)" fill="#ffe438"/>
          <path id="Trazado_91310" data-name="Trazado 91310" d="M401.26,275.162v.426l-6.323,3.67v-.426Z" transform="translate(-394.284 -274.768)" fill="#ffb901"/>
          <path id="Trazado_91311" data-name="Trazado 91311" d="M394.623,276.739v.426l.654.395v-.426Z" transform="translate(-394.623 -273.069)" fill="#ee9b0f"/>
        </g>
        <g id="Grupo_38883" data-name="Grupo 38883" transform="translate(2.419 1.385)">
          <path id="Trazado_91312" data-name="Trazado 91312" d="M395.859,279.37l-.654-.394,6.322-3.67.654.395Z" transform="translate(-395.205 -275.306)" fill="#ffe438"/>
          <path id="Trazado_91313" data-name="Trazado 91313" d="M401.843,275.5v.426l-6.323,3.67v-.426Z" transform="translate(-394.867 -275.101)" fill="#ffb901"/>
          <path id="Trazado_91314" data-name="Trazado 91314" d="M395.205,277.073v.426l.654.395v-.426Z" transform="translate(-395.205 -273.402)" fill="#ee9b0f"/>
        </g>
        <g id="Grupo_38884" data-name="Grupo 38884" transform="translate(3.628 2.078)">
          <path id="Trazado_91315" data-name="Trazado 91315" d="M396.441,279.7l-.654-.394,6.322-3.67.654.395Z" transform="translate(-395.788 -275.639)" fill="#ffe438"/>
          <path id="Trazado_91316" data-name="Trazado 91316" d="M402.425,275.829v.426l-6.323,3.67V279.5Z" transform="translate(-395.449 -275.435)" fill="#ffb901"/>
          <path id="Trazado_91317" data-name="Trazado 91317" d="M395.788,277.406v.426l.654.394V277.8Z" transform="translate(-395.788 -273.736)" fill="#ee9b0f"/>
        </g>
        <g id="Grupo_38885" data-name="Grupo 38885" transform="translate(4.838 2.77)">
          <path id="Trazado_91318" data-name="Trazado 91318" d="M397.023,280.037l-.654-.394,6.322-3.67.654.395Z" transform="translate(-396.37 -275.973)" fill="#ffe438"/>
          <path id="Trazado_91319" data-name="Trazado 91319" d="M403.007,276.163v.426l-6.323,3.67v-.426Z" transform="translate(-396.031 -275.768)" fill="#ffb901"/>
          <path id="Trazado_91320" data-name="Trazado 91320" d="M396.37,277.739v.426l.654.394v-.426Z" transform="translate(-396.37 -274.069)" fill="#ee9b0f"/>
        </g>
        <g id="Grupo_38886" data-name="Grupo 38886" transform="translate(6.047 3.463)">
          <path id="Trazado_91321" data-name="Trazado 91321" d="M397.606,280.371l-.654-.394,6.322-3.67.654.395Z" transform="translate(-396.952 -276.306)" fill="#ffe438"/>
          <path id="Trazado_91322" data-name="Trazado 91322" d="M403.589,276.5v.426l-6.322,3.67v-.426Z" transform="translate(-396.613 -276.101)" fill="#ffb901"/>
          <path id="Trazado_91323" data-name="Trazado 91323" d="M396.952,278.073v.426l.654.394v-.426Z" transform="translate(-396.952 -274.403)" fill="#ee9b0f"/>
        </g>
        <g id="Grupo_38887" data-name="Grupo 38887" transform="translate(7.257 4.156)">
          <path id="Trazado_91324" data-name="Trazado 91324" d="M398.188,280.7l-.654-.394,6.323-3.67.653.394Z" transform="translate(-397.534 -276.639)" fill="#ffe438"/>
          <path id="Trazado_91325" data-name="Trazado 91325" d="M404.171,276.829v.426l-6.322,3.67V280.5Z" transform="translate(-397.195 -276.435)" fill="#ffb901"/>
          <path id="Trazado_91326" data-name="Trazado 91326" d="M397.534,278.406v.426l.654.394V278.8Z" transform="translate(-397.534 -274.736)" fill="#ee9b0f"/>
        </g>
        <g id="Grupo_38888" data-name="Grupo 38888" transform="translate(8.466 4.848)">
          <path id="Trazado_91327" data-name="Trazado 91327" d="M398.77,281.038l-.654-.394,6.323-3.67.654.395Z" transform="translate(-398.116 -276.973)" fill="#ffe438"/>
          <path id="Trazado_91328" data-name="Trazado 91328" d="M404.753,277.163v.426l-6.322,3.67v-.426Z" transform="translate(-397.777 -276.768)" fill="#ffb901"/>
          <path id="Trazado_91329" data-name="Trazado 91329" d="M398.116,278.74v.426l.654.394v-.426Z" transform="translate(-398.116 -275.069)" fill="#ee9b0f"/>
        </g>
        <g id="Grupo_38889" data-name="Grupo 38889" transform="translate(9.675 5.541)">
          <path id="Trazado_91330" data-name="Trazado 91330" d="M399.352,281.371l-.654-.394,6.323-3.67.654.394Z" transform="translate(-398.699 -277.306)" fill="#ffe438"/>
          <path id="Trazado_91331" data-name="Trazado 91331" d="M405.336,277.5v.426l-6.322,3.67v-.426Z" transform="translate(-398.36 -277.102)" fill="#ffb901"/>
          <path id="Trazado_91332" data-name="Trazado 91332" d="M398.7,279.073v.426l.654.394v-.426Z" transform="translate(-398.699 -275.403)" fill="#ee9b0f"/>
        </g>
        <g id="Grupo_38890" data-name="Grupo 38890" transform="translate(10.885 6.233)">
          <path id="Trazado_91333" data-name="Trazado 91333" d="M399.935,281.7l-.654-.394,6.323-3.67.654.394Z" transform="translate(-399.281 -277.64)" fill="#ffe438"/>
          <path id="Trazado_91334" data-name="Trazado 91334" d="M405.918,277.83v.426l-6.322,3.67V281.5Z" transform="translate(-398.942 -277.435)" fill="#ffb901"/>
          <path id="Trazado_91335" data-name="Trazado 91335" d="M399.281,279.407v.426l.654.394V279.8Z" transform="translate(-399.281 -275.736)" fill="#ee9b0f"/>
        </g>
        <g id="Grupo_38891" data-name="Grupo 38891" transform="translate(12.094 6.926)">
          <path id="Trazado_91336" data-name="Trazado 91336" d="M400.517,282.038l-.654-.395,6.322-3.67.654.394Z" transform="translate(-399.863 -277.973)" fill="#ffe438"/>
          <path id="Trazado_91337" data-name="Trazado 91337" d="M406.5,278.163v.426l-6.323,3.67v-.426Z" transform="translate(-399.524 -277.769)" fill="#ffb901"/>
          <path id="Trazado_91338" data-name="Trazado 91338" d="M399.863,279.74v.426l.654.394v-.426Z" transform="translate(-399.863 -276.07)" fill="#ee9b0f"/>
        </g>
        <g id="Grupo_38892" data-name="Grupo 38892" transform="translate(13.304 7.619)">
          <path id="Trazado_91339" data-name="Trazado 91339" d="M401.1,282.371l-.654-.395,6.322-3.67.654.394Z" transform="translate(-400.445 -278.307)" fill="#ffe438"/>
          <path id="Trazado_91340" data-name="Trazado 91340" d="M407.082,278.5v.426l-6.322,3.67v-.426Z" transform="translate(-400.107 -278.102)" fill="#ffb901"/>
          <path id="Trazado_91341" data-name="Trazado 91341" d="M400.445,280.073v.426l.654.394v-.426Z" transform="translate(-400.445 -276.403)" fill="#ee9b0f"/>
        </g>
        <g id="Grupo_38893" data-name="Grupo 38893" transform="translate(14.513 8.311)">
          <path id="Trazado_91342" data-name="Trazado 91342" d="M401.681,282.7l-.654-.395,6.322-3.67.654.394Z" transform="translate(-401.028 -278.64)" fill="#ffe438"/>
          <path id="Trazado_91343" data-name="Trazado 91343" d="M407.665,278.83v.426l-6.323,3.67V282.5Z" transform="translate(-400.689 -278.435)" fill="#ffb901"/>
          <path id="Trazado_91344" data-name="Trazado 91344" d="M401.028,280.407v.426l.654.394V280.8Z" transform="translate(-401.028 -276.737)" fill="#ee9b0f"/>
        </g>
        <g id="Grupo_38894" data-name="Grupo 38894" transform="translate(15.722 9.004)">
          <path id="Trazado_91345" data-name="Trazado 91345" d="M402.263,283.038l-.653-.395,6.322-3.67.654.394Z" transform="translate(-401.61 -278.973)" fill="#ffe438"/>
          <path id="Trazado_91346" data-name="Trazado 91346" d="M408.247,279.163v.426l-6.323,3.67v-.426Z" transform="translate(-401.271 -278.769)" fill="#ffb901"/>
          <path id="Trazado_91347" data-name="Trazado 91347" d="M401.61,280.74v.426l.653.394v-.426Z" transform="translate(-401.61 -277.07)" fill="#ee9b0f"/>
        </g>
        <g id="Grupo_38895" data-name="Grupo 38895" transform="translate(16.932 9.696)">
          <path id="Trazado_91348" data-name="Trazado 91348" d="M402.846,283.372l-.654-.395,6.322-3.67.654.394Z" transform="translate(-402.192 -279.307)" fill="#ffe438"/>
          <path id="Trazado_91349" data-name="Trazado 91349" d="M408.829,279.5v.426l-6.322,3.67v-.426Z" transform="translate(-401.853 -279.102)" fill="#ffb901"/>
          <path id="Trazado_91350" data-name="Trazado 91350" d="M402.192,281.074v.426l.654.395v-.426Z" transform="translate(-402.192 -277.403)" fill="#ee9b0f"/>
        </g>
        <g id="Grupo_38896" data-name="Grupo 38896" transform="translate(18.141 10.389)">
          <path id="Trazado_91351" data-name="Trazado 91351" d="M403.428,283.7l-.654-.394,6.323-3.67.653.394Z" transform="translate(-402.774 -279.64)" fill="#ffe438"/>
          <path id="Trazado_91352" data-name="Trazado 91352" d="M409.411,279.83v.426l-6.322,3.67V283.5Z" transform="translate(-402.435 -279.436)" fill="#ffb901"/>
          <path id="Trazado_91353" data-name="Trazado 91353" d="M402.774,281.407v.426l.654.394V281.8Z" transform="translate(-402.774 -277.737)" fill="#ee9b0f"/>
        </g>
        <g id="Grupo_38897" data-name="Grupo 38897" transform="translate(19.351 11.082)">
          <path id="Trazado_91354" data-name="Trazado 91354" d="M404.01,284.038l-.654-.394,6.323-3.67.654.394Z" transform="translate(-403.356 -279.974)" fill="#ffe438"/>
          <path id="Trazado_91355" data-name="Trazado 91355" d="M409.993,280.164v.426l-6.322,3.67v-.426Z" transform="translate(-403.017 -279.769)" fill="#ffb901"/>
          <path id="Trazado_91356" data-name="Trazado 91356" d="M403.356,281.741v.426l.654.394v-.426Z" transform="translate(-403.356 -278.07)" fill="#ee9b0f"/>
        </g>
      </g>
      <g id="Grupo_38924" data-name="Grupo 38924" transform="translate(87.912 14.734)">
        <g id="Grupo_38899" data-name="Grupo 38899">
          <path id="Trazado_91357" data-name="Trazado 91357" d="M377.306,268.609l-.654-.394,6.322-3.67.654.394Z" transform="translate(-376.652 -264.544)" fill="#ffe438"/>
          <path id="Trazado_91358" data-name="Trazado 91358" d="M383.289,264.734v.426l-6.323,3.67V268.4Z" transform="translate(-376.313 -264.339)" fill="#ffb901"/>
          <path id="Trazado_91359" data-name="Trazado 91359" d="M376.652,266.311v.426l.654.394v-.426Z" transform="translate(-376.652 -262.641)" fill="#ee9b0f"/>
        </g>
        <g id="Grupo_38900" data-name="Grupo 38900" transform="translate(1.412 0.815)">
          <path id="Trazado_91360" data-name="Trazado 91360" d="M377.985,269l-.653-.394,6.322-3.67.654.394Z" transform="translate(-377.332 -264.936)" fill="#ffe438"/>
          <path id="Trazado_91361" data-name="Trazado 91361" d="M383.969,265.126v.426l-6.323,3.67V268.8Z" transform="translate(-376.993 -264.732)" fill="#ffb901"/>
          <path id="Trazado_91362" data-name="Trazado 91362" d="M377.332,266.7v.426l.653.395V267.1Z" transform="translate(-377.332 -263.033)" fill="#ee9b0f"/>
        </g>
        <g id="Grupo_38901" data-name="Grupo 38901" transform="translate(2.823 1.63)">
          <path id="Trazado_91363" data-name="Trazado 91363" d="M378.665,269.393l-.654-.394,6.322-3.67.654.395Z" transform="translate(-378.011 -265.328)" fill="#ffe438"/>
          <path id="Trazado_91364" data-name="Trazado 91364" d="M384.648,265.518v.426l-6.323,3.67v-.426Z" transform="translate(-377.672 -265.124)" fill="#ffb901"/>
          <path id="Trazado_91365" data-name="Trazado 91365" d="M378.011,267.1v.426l.654.394v-.426Z" transform="translate(-378.011 -263.425)" fill="#ee9b0f"/>
        </g>
        <g id="Grupo_38902" data-name="Grupo 38902" transform="translate(4.234 2.444)">
          <path id="Trazado_91366" data-name="Trazado 91366" d="M379.344,269.785l-.654-.394,6.322-3.67.654.394Z" transform="translate(-378.691 -265.721)" fill="#ffe438"/>
          <path id="Trazado_91367" data-name="Trazado 91367" d="M385.328,265.911v.426l-6.323,3.67v-.426Z" transform="translate(-378.352 -265.516)" fill="#ffb901"/>
          <path id="Trazado_91368" data-name="Trazado 91368" d="M378.691,267.488v.426l.654.394v-.426Z" transform="translate(-378.691 -263.817)" fill="#ee9b0f"/>
        </g>
        <g id="Grupo_38903" data-name="Grupo 38903" transform="translate(5.646 3.259)">
          <path id="Trazado_91369" data-name="Trazado 91369" d="M380.024,270.178l-.654-.394,6.322-3.67.654.394Z" transform="translate(-379.37 -266.113)" fill="#ffe438"/>
          <path id="Trazado_91370" data-name="Trazado 91370" d="M386.007,266.3v.426l-6.323,3.67v-.426Z" transform="translate(-379.031 -265.908)" fill="#ffb901"/>
          <path id="Trazado_91371" data-name="Trazado 91371" d="M379.37,267.88v.426l.654.394v-.426Z" transform="translate(-379.37 -264.21)" fill="#ee9b0f"/>
        </g>
        <g id="Grupo_38904" data-name="Grupo 38904" transform="translate(7.057 4.074)">
          <path id="Trazado_91372" data-name="Trazado 91372" d="M380.7,270.57l-.654-.394,6.322-3.67.654.394Z" transform="translate(-380.05 -266.505)" fill="#ffe438"/>
          <path id="Trazado_91373" data-name="Trazado 91373" d="M386.687,266.7v.426l-6.323,3.67v-.426Z" transform="translate(-379.711 -266.301)" fill="#ffb901"/>
          <path id="Trazado_91374" data-name="Trazado 91374" d="M380.05,268.272v.426l.654.395v-.426Z" transform="translate(-380.05 -264.602)" fill="#ee9b0f"/>
        </g>
        <g id="Grupo_38905" data-name="Grupo 38905" transform="translate(8.469 4.889)">
          <path id="Trazado_91375" data-name="Trazado 91375" d="M381.383,270.962l-.654-.394,6.322-3.67.654.395Z" transform="translate(-380.729 -266.897)" fill="#ffe438"/>
          <path id="Trazado_91376" data-name="Trazado 91376" d="M387.366,267.087v.426l-6.323,3.67v-.426Z" transform="translate(-380.39 -266.693)" fill="#ffb901"/>
          <path id="Trazado_91377" data-name="Trazado 91377" d="M380.729,268.664v.426l.654.394v-.426Z" transform="translate(-380.729 -264.994)" fill="#ee9b0f"/>
        </g>
        <g id="Grupo_38906" data-name="Grupo 38906" transform="translate(9.88 5.703)">
          <path id="Trazado_91378" data-name="Trazado 91378" d="M382.062,271.354l-.654-.395,6.322-3.67.654.394Z" transform="translate(-381.409 -267.29)" fill="#ffe438"/>
          <path id="Trazado_91379" data-name="Trazado 91379" d="M388.046,267.479v.426l-6.323,3.67v-.426Z" transform="translate(-381.07 -267.085)" fill="#ffb901"/>
          <path id="Trazado_91380" data-name="Trazado 91380" d="M381.409,269.056v.426l.654.395v-.426Z" transform="translate(-381.409 -265.386)" fill="#ee9b0f"/>
        </g>
        <g id="Grupo_38907" data-name="Grupo 38907" transform="translate(11.292 6.518)">
          <path id="Trazado_91381" data-name="Trazado 91381" d="M382.742,271.747l-.653-.394,6.322-3.67.654.395Z" transform="translate(-382.088 -267.682)" fill="#ffe438"/>
          <path id="Trazado_91382" data-name="Trazado 91382" d="M388.725,267.872v.426l-6.323,3.67v-.426Z" transform="translate(-381.749 -267.477)" fill="#ffb901"/>
          <path id="Trazado_91383" data-name="Trazado 91383" d="M382.088,269.449v.426l.653.394v-.426Z" transform="translate(-382.088 -265.778)" fill="#ee9b0f"/>
        </g>
        <g id="Grupo_38908" data-name="Grupo 38908" transform="translate(12.703 7.333)">
          <path id="Trazado_91384" data-name="Trazado 91384" d="M383.421,272.139l-.654-.394,6.322-3.67.654.394Z" transform="translate(-382.768 -268.074)" fill="#ffe438"/>
          <path id="Trazado_91385" data-name="Trazado 91385" d="M389.4,268.264v.426l-6.323,3.67v-.426Z" transform="translate(-382.429 -267.869)" fill="#ffb901"/>
          <path id="Trazado_91386" data-name="Trazado 91386" d="M382.768,269.841v.426l.654.394v-.426Z" transform="translate(-382.768 -266.171)" fill="#ee9b0f"/>
        </g>
        <g id="Grupo_38909" data-name="Grupo 38909" transform="translate(14.115 8.148)">
          <path id="Trazado_91387" data-name="Trazado 91387" d="M384.1,272.531l-.654-.394,6.322-3.67.654.394Z" transform="translate(-383.447 -268.466)" fill="#ffe438"/>
          <path id="Trazado_91388" data-name="Trazado 91388" d="M390.084,268.656v.426l-6.323,3.67v-.426Z" transform="translate(-383.108 -268.262)" fill="#ffb901"/>
          <path id="Trazado_91389" data-name="Trazado 91389" d="M383.447,270.233v.426l.654.394v-.426Z" transform="translate(-383.447 -266.563)" fill="#ee9b0f"/>
        </g>
        <g id="Grupo_38910" data-name="Grupo 38910" transform="translate(15.526 8.962)">
          <path id="Trazado_91390" data-name="Trazado 91390" d="M384.78,272.923l-.654-.395,6.322-3.67.654.394Z" transform="translate(-384.127 -268.858)" fill="#ffe438"/>
          <path id="Trazado_91391" data-name="Trazado 91391" d="M390.764,269.048v.426l-6.323,3.67v-.426Z" transform="translate(-383.788 -268.654)" fill="#ffb901"/>
          <path id="Trazado_91392" data-name="Trazado 91392" d="M384.127,270.625v.426l.654.395v-.426Z" transform="translate(-384.127 -266.955)" fill="#ee9b0f"/>
        </g>
        <g id="Grupo_38911" data-name="Grupo 38911" transform="translate(16.938 9.777)">
          <path id="Trazado_91393" data-name="Trazado 91393" d="M385.46,273.315l-.654-.394,6.322-3.67.654.395Z" transform="translate(-384.806 -269.251)" fill="#ffe438"/>
          <path id="Trazado_91394" data-name="Trazado 91394" d="M391.443,269.441v.426l-6.323,3.67v-.426Z" transform="translate(-384.467 -269.046)" fill="#ffb901"/>
          <path id="Trazado_91395" data-name="Trazado 91395" d="M384.806,271.018v.426l.654.394v-.426Z" transform="translate(-384.806 -267.347)" fill="#ee9b0f"/>
        </g>
        <g id="Grupo_38912" data-name="Grupo 38912" transform="translate(18.349 10.592)">
          <path id="Trazado_91396" data-name="Trazado 91396" d="M386.139,273.708l-.654-.394,6.322-3.67.654.394Z" transform="translate(-385.486 -269.643)" fill="#ffe438"/>
          <path id="Trazado_91397" data-name="Trazado 91397" d="M392.123,269.833v.426l-6.323,3.67V273.5Z" transform="translate(-385.147 -269.438)" fill="#ffb901"/>
          <path id="Trazado_91398" data-name="Trazado 91398" d="M385.486,271.41v.426l.654.395V271.8Z" transform="translate(-385.486 -267.74)" fill="#ee9b0f"/>
        </g>
        <g id="Grupo_38913" data-name="Grupo 38913" transform="translate(19.761 11.407)">
          <path id="Trazado_91399" data-name="Trazado 91399" d="M386.819,274.1l-.653-.394,6.322-3.67.654.395Z" transform="translate(-386.165 -270.035)" fill="#ffe438"/>
          <path id="Trazado_91400" data-name="Trazado 91400" d="M392.8,270.225v.426l-6.323,3.67V273.9Z" transform="translate(-385.826 -269.831)" fill="#ffb901"/>
          <path id="Trazado_91401" data-name="Trazado 91401" d="M386.165,271.8v.426l.653.394V272.2Z" transform="translate(-386.165 -268.132)" fill="#ee9b0f"/>
        </g>
        <g id="Grupo_38914" data-name="Grupo 38914" transform="translate(21.172 12.221)">
          <path id="Trazado_91402" data-name="Trazado 91402" d="M387.5,274.492l-.653-.394,6.322-3.67.654.394Z" transform="translate(-386.845 -270.427)" fill="#ffe438"/>
          <path id="Trazado_91403" data-name="Trazado 91403" d="M393.482,270.617v.426l-6.323,3.67v-.426Z" transform="translate(-386.506 -270.223)" fill="#ffb901"/>
          <path id="Trazado_91404" data-name="Trazado 91404" d="M386.845,272.194v.426l.653.394v-.426Z" transform="translate(-386.845 -268.524)" fill="#ee9b0f"/>
        </g>
        <g id="Grupo_38915" data-name="Grupo 38915" transform="translate(22.584 13.036)">
          <path id="Trazado_91405" data-name="Trazado 91405" d="M388.178,274.884l-.654-.394,6.322-3.67.654.394Z" transform="translate(-387.524 -270.82)" fill="#ffe438"/>
          <path id="Trazado_91406" data-name="Trazado 91406" d="M394.161,271.009v.426l-6.323,3.67v-.426Z" transform="translate(-387.185 -270.615)" fill="#ffb901"/>
          <path id="Trazado_91407" data-name="Trazado 91407" d="M387.524,272.587v.426l.654.394v-.426Z" transform="translate(-387.524 -268.916)" fill="#ee9b0f"/>
        </g>
        <g id="Grupo_38916" data-name="Grupo 38916" transform="translate(23.995 13.851)">
          <path id="Trazado_91408" data-name="Trazado 91408" d="M388.857,275.277l-.654-.395,6.322-3.67.654.394Z" transform="translate(-388.204 -271.212)" fill="#ffe438"/>
          <path id="Trazado_91409" data-name="Trazado 91409" d="M394.841,271.4v.426l-6.323,3.67v-.426Z" transform="translate(-387.865 -271.007)" fill="#ffb901"/>
          <path id="Trazado_91410" data-name="Trazado 91410" d="M388.2,272.979v.426l.654.395v-.426Z" transform="translate(-388.204 -269.308)" fill="#ee9b0f"/>
        </g>
        <g id="Grupo_38917" data-name="Grupo 38917" transform="translate(25.407 14.666)">
          <path id="Trazado_91411" data-name="Trazado 91411" d="M389.537,275.669l-.654-.394,6.322-3.67.654.395Z" transform="translate(-388.883 -271.604)" fill="#ffe438"/>
          <path id="Trazado_91412" data-name="Trazado 91412" d="M395.52,271.794v.426l-6.323,3.67v-.426Z" transform="translate(-388.544 -271.4)" fill="#ffb901"/>
          <path id="Trazado_91413" data-name="Trazado 91413" d="M388.883,273.371v.426l.654.394v-.426Z" transform="translate(-388.883 -269.701)" fill="#ee9b0f"/>
        </g>
        <g id="Grupo_38918" data-name="Grupo 38918" transform="translate(26.818 15.48)">
          <path id="Trazado_91414" data-name="Trazado 91414" d="M390.216,276.061l-.654-.394,6.322-3.67.654.394Z" transform="translate(-389.563 -271.996)" fill="#ffe438"/>
          <path id="Trazado_91415" data-name="Trazado 91415" d="M396.2,272.186v.426l-6.323,3.67v-.426Z" transform="translate(-389.224 -271.792)" fill="#ffb901"/>
          <path id="Trazado_91416" data-name="Trazado 91416" d="M389.563,273.763v.426l.654.394v-.426Z" transform="translate(-389.563 -270.093)" fill="#ee9b0f"/>
        </g>
        <g id="Grupo_38919" data-name="Grupo 38919" transform="translate(28.23 16.295)">
          <path id="Trazado_91417" data-name="Trazado 91417" d="M390.9,276.453l-.654-.394,6.322-3.67.654.394Z" transform="translate(-390.242 -272.389)" fill="#ffe438"/>
          <path id="Trazado_91418" data-name="Trazado 91418" d="M396.879,272.578V273l-6.323,3.67v-.426Z" transform="translate(-389.903 -272.184)" fill="#ffb901"/>
          <path id="Trazado_91419" data-name="Trazado 91419" d="M390.242,274.155v.426l.654.394v-.426Z" transform="translate(-390.242 -270.485)" fill="#ee9b0f"/>
        </g>
        <g id="Grupo_38920" data-name="Grupo 38920" transform="translate(29.641 17.11)">
          <path id="Trazado_91420" data-name="Trazado 91420" d="M391.575,276.846l-.653-.395,6.322-3.67.654.394Z" transform="translate(-390.922 -272.781)" fill="#ffe438"/>
          <path id="Trazado_91421" data-name="Trazado 91421" d="M397.559,272.971v.426l-6.323,3.67v-.426Z" transform="translate(-390.583 -272.576)" fill="#ffb901"/>
          <path id="Trazado_91422" data-name="Trazado 91422" d="M390.922,274.548v.426l.653.394v-.426Z" transform="translate(-390.922 -270.877)" fill="#ee9b0f"/>
        </g>
        <g id="Grupo_38921" data-name="Grupo 38921" transform="translate(31.053 17.925)">
          <path id="Trazado_91423" data-name="Trazado 91423" d="M392.255,277.238l-.653-.394,6.322-3.67.654.395Z" transform="translate(-391.601 -273.173)" fill="#ffe438"/>
          <path id="Trazado_91424" data-name="Trazado 91424" d="M398.238,273.363v.426l-6.323,3.67v-.426Z" transform="translate(-391.262 -272.968)" fill="#ffb901"/>
          <path id="Trazado_91425" data-name="Trazado 91425" d="M391.6,274.94v.426l.653.394v-.426Z" transform="translate(-391.601 -271.27)" fill="#ee9b0f"/>
        </g>
        <g id="Grupo_38922" data-name="Grupo 38922" transform="translate(32.464 18.739)">
          <path id="Trazado_91426" data-name="Trazado 91426" d="M392.934,277.63l-.654-.395,6.322-3.67.654.394Z" transform="translate(-392.281 -273.565)" fill="#ffe438"/>
          <path id="Trazado_91427" data-name="Trazado 91427" d="M398.918,273.755v.426l-6.323,3.67v-.426Z" transform="translate(-391.942 -273.361)" fill="#ffb901"/>
          <path id="Trazado_91428" data-name="Trazado 91428" d="M392.281,275.332v.426l.654.395v-.426Z" transform="translate(-392.281 -271.662)" fill="#ee9b0f"/>
        </g>
        <g id="Grupo_38923" data-name="Grupo 38923" transform="translate(33.876 19.554)">
          <path id="Trazado_91429" data-name="Trazado 91429" d="M393.614,278.022l-.654-.394,6.322-3.67.654.395Z" transform="translate(-392.96 -273.957)" fill="#ffe438"/>
          <path id="Trazado_91430" data-name="Trazado 91430" d="M399.6,274.147v.426l-6.323,3.67v-.426Z" transform="translate(-392.621 -273.753)" fill="#ffb901"/>
          <path id="Trazado_91431" data-name="Trazado 91431" d="M392.96,275.724v.426l.654.394v-.426Z" transform="translate(-392.96 -272.054)" fill="#ee9b0f"/>
        </g>
      </g>
      <path id="Trazado_91432" data-name="Trazado 91432" d="M472.938,378.3,334.331,298.279l63.689-36.856,138.606,80.025Z" transform="translate(-334.331 -253.173)" fill="#388726"/>
      <path id="Trazado_91433" data-name="Trazado 91433" d="M472.938,376.475,334.331,296.451l63.689-36.856,138.606,80.025Z" transform="translate(-334.331 -255.142)" fill="#37a3a5"/>
      <path id="Trazado_91434" data-name="Trazado 91434" d="M385.388,299.421a5.124,5.124,0,0,1,.927-.083h.023a4.732,4.732,0,0,1,2.327.642l3.97,2.046-3.727,2.632-4.873-2.53.006,0a1.68,1.68,0,0,1-.613-.659.979.979,0,0,1-.1-.43C383.323,300.283,384.187,299.647,385.388,299.421Z" transform="translate(-281.554 -212.328)" fill="#b3b3b3" style="mix-blend-mode: multiply;isolation: isolate"/>
      <path id="Trazado_91435" data-name="Trazado 91435" d="M341.485,277.456a5.146,5.146,0,0,1,.929-.083h.021a4.734,4.734,0,0,1,2.329.642l2.752,1.572-4.194,2.391-3.189-1.815.006,0a1.665,1.665,0,0,1-.613-.658.979.979,0,0,1-.1-.43C339.422,278.318,340.286,277.682,341.485,277.456Z" transform="translate(-328.847 -235.99)" fill="#b3b3b3" style="mix-blend-mode: multiply;isolation: isolate"/>
      <path id="Trazado_91436" data-name="Trazado 91436" d="M388.98,308.939l-21.36-12.168L392.6,282.326l21.36,12.168-17.285,15.171Z" transform="translate(-298.469 -230.654)" fill="#b3b3b3" style="mix-blend-mode: multiply;isolation: isolate"/>
      <path id="Trazado_91437" data-name="Trazado 91437" d="M356.46,292.3l-6.253-3.678,10.245-5.926,6.253,3.679-7.091,6.223Z" transform="translate(-317.228 -230.252)" fill="#b3b3b3" style="mix-blend-mode: multiply;isolation: isolate"/>
      <path id="Trazado_91438" data-name="Trazado 91438" d="M352.6,284.573a.468.468,0,0,1-.054.222,1.076,1.076,0,0,1-.638.5,2.444,2.444,0,0,1-.841.143,2.5,2.5,0,0,1-.476-.044,1.865,1.865,0,0,1-.364-.1,1.105,1.105,0,0,1-.642-.5.512.512,0,0,1-.052-.22c0-.386.442-.71,1.057-.827a2.675,2.675,0,0,1,.474-.042C351.913,283.709,352.6,284.1,352.6,284.573Z" transform="translate(-317.952 -229.164)" fill="#ebebeb"/>
      <path id="Trazado_91439" data-name="Trazado 91439" d="M354.318,283.738a.469.469,0,0,1-.054.222,1.069,1.069,0,0,1-.638.5,2.394,2.394,0,0,1-.841.145,2.685,2.685,0,0,1-.476-.044,1.861,1.861,0,0,1-.363-.1,1.1,1.1,0,0,1-.642-.5.511.511,0,0,1-.052-.22c0-.384.442-.71,1.057-.825a2.5,2.5,0,0,1,.474-.044C353.63,282.874,354.318,283.26,354.318,283.738Z" transform="translate(-316.103 -230.064)" fill="#ebebeb"/>
      <path id="Trazado_91440" data-name="Trazado 91440" d="M355.986,282.73a.5.5,0,0,1-.054.222,1.082,1.082,0,0,1-.638.5,2.46,2.46,0,0,1-.841.143,2.525,2.525,0,0,1-.478-.044,1.9,1.9,0,0,1-.363-.1,1.1,1.1,0,0,1-.64-.5.485.485,0,0,1-.054-.22c0-.386.443-.71,1.057-.827a2.7,2.7,0,0,1,.476-.044C355.3,281.864,355.986,282.252,355.986,282.73Z" transform="translate(-314.308 -231.152)" fill="#ebebeb"/>
      <path id="Trazado_91441" data-name="Trazado 91441" d="M377.447,274.9a.476.476,0,0,1-.054.224,1.083,1.083,0,0,1-.638.5,2.443,2.443,0,0,1-.841.143,2.52,2.52,0,0,1-.478-.044,2.114,2.114,0,0,1-.364-.1,1.1,1.1,0,0,1-.64-.5.516.516,0,0,1-.054-.222c0-.384.445-.71,1.057-.825a2.513,2.513,0,0,1,.476-.044C376.759,274.031,377.447,274.419,377.447,274.9Z" transform="translate(-291.189 -239.59)" fill="#ebebeb"/>
      <path id="Trazado_91442" data-name="Trazado 91442" d="M379.164,274.061a.469.469,0,0,1-.054.222,1.083,1.083,0,0,1-.638.5,2.442,2.442,0,0,1-.841.143,2.705,2.705,0,0,1-.478-.042,2.06,2.06,0,0,1-.364-.1,1.1,1.1,0,0,1-.64-.5.512.512,0,0,1-.054-.22c0-.386.445-.71,1.057-.827a2.7,2.7,0,0,1,.476-.042C378.476,273.2,379.164,273.583,379.164,274.061Z" transform="translate(-289.339 -240.488)" fill="#ebebeb"/>
      <path id="Trazado_91443" data-name="Trazado 91443" d="M380.829,273.051a.492.492,0,0,1-.052.222,1.09,1.09,0,0,1-.64.5,2.44,2.44,0,0,1-.839.143,2.689,2.689,0,0,1-.478-.044,2.024,2.024,0,0,1-.364-.1,1.1,1.1,0,0,1-.64-.5.486.486,0,0,1-.054-.22c0-.384.443-.71,1.057-.825a2.5,2.5,0,0,1,.476-.044C380.144,272.187,380.829,272.573,380.829,273.051Z" transform="translate(-287.544 -241.576)" fill="#ebebeb"/>
      <g id="Grupo_38925" data-name="Grupo 38925" transform="translate(12.182 4.593)">
        <path id="Trazado_91444" data-name="Trazado 91444" d="M439.426,357.467,384.608,326l1.676-19.483L371.474,298.1l-17.909,10.528-13.37-7.177,19.445-11.223-9.688-5.68,41.494-24.881,42.36,26.233-31.8,17.534-3.444-2.445,28.122-15.269-35.268-21.841L357,284.508l9.789,5.739-19.63,11.332,6.228,2.975,18.053-10.612,18.622,10.588-1.677,19.494,51.033,29.292,14.934-8.651,3.32,2.27Z" transform="translate(-340.196 -259.662)" fill="#104732"/>
        <path id="Trazado_91445" data-name="Trazado 91445" d="M384.59,324.614l1.677-19.486-16.081-9.145L352.26,306.521l-10.879-5.84L360.747,289.5l-9.722-5.7,39.134-23.466,40,24.77-29.346,16.18-1.261-.9,28.247-15.337-37.645-23.312-36.773,22.049,9.755,5.719-19.818,11.441,8.859,4.231,18-10.584,17.351,9.866-1.676,19.491,52.3,30.017,14.878-8.618,1.123.768-16,9.233Z" transform="translate(-338.918 -258.934)" fill="#37a3a5"/>
      </g>
      <path id="Trazado_91446" data-name="Trazado 91446" d="M410.1,296.13l7.061-4.078c.771-.445.675-1.221-.216-1.737h0a3.348,3.348,0,0,0-3.008-.125l-7.061,4.076c-.771.447-.675,1.224.216,1.739h0A3.348,3.348,0,0,0,410.1,296.13Z" transform="translate(-256.74 -222.504)" fill="#fff"/>
      <path id="Trazado_91447" data-name="Trazado 91447" d="M412.22,297.36l7.058-4.076c.773-.445.675-1.224-.216-1.737h0a3.335,3.335,0,0,0-3.008-.125l-7.061,4.076c-.771.445-.673,1.224.216,1.737h0A3.339,3.339,0,0,0,412.22,297.36Z" transform="translate(-254.46 -221.179)" fill="#fff"/>
      <path id="Trazado_91448" data-name="Trazado 91448" d="M414.336,298.591l7.058-4.076c.773-.447.675-1.224-.216-1.739h0a3.348,3.348,0,0,0-3.008-.125l-7.061,4.078c-.771.445-.673,1.221.216,1.737h0A3.352,3.352,0,0,0,414.336,298.591Z" transform="translate(-252.181 -219.853)" fill="#fff"/>
      <g id="Grupo_38926" data-name="Grupo 38926" transform="translate(69.151 67.531)">
        <path id="Trazado_91449" data-name="Trazado 91449" d="M372.895,295.941l-5.274-3.033,4.989-2.948,5.274,3.033Z" transform="translate(-367.621 -289.961)" fill="#ebebeb"/>
        <path id="Trazado_91450" data-name="Trazado 91450" d="M377.123,298.378l-5.274-3.033,4.989-2.948,5.274,3.033Z" transform="translate(-363.066 -287.336)" fill="#ebebeb"/>
        <path id="Trazado_91451" data-name="Trazado 91451" d="M381.352,300.814l-5.274-3.033,4.989-2.948,5.274,3.033Z" transform="translate(-358.511 -284.711)" fill="#ebebeb"/>
      </g>
      <g id="Grupo_38927" data-name="Grupo 38927" transform="translate(101.147 62.796)">
        <path id="Trazado_91452" data-name="Trazado 91452" d="M388.3,301.22l-5.274-3.033,4.989-2.948,5.274,3.033Z" transform="translate(-383.024 -279.539)" fill="#ebebeb"/>
        <path id="Trazado_91453" data-name="Trazado 91453" d="M392.73,298.7l-5.274-3.033,4.989-2.948,5.274,3.033Z" transform="translate(-378.25 -282.253)" fill="#ebebeb"/>
        <path id="Trazado_91454" data-name="Trazado 91454" d="M397.161,296.181l-5.274-3.033,4.988-2.948,5.274,3.033Z" transform="translate(-373.476 -284.967)" fill="#ebebeb"/>
        <path id="Trazado_91455" data-name="Trazado 91455" d="M401.592,293.662l-5.274-3.033,4.989-2.948,5.274,3.033Z" transform="translate(-368.702 -287.681)" fill="#ebebeb"/>
      </g>
      <g id="Grupo_38928" data-name="Grupo 38928" transform="translate(112.757 41.177)">
        <path id="Trazado_91456" data-name="Trazado 91456" d="M393.887,283.254l-5.274-3.033,4.989-2.948,5.274,3.033Z" transform="translate(-388.613 -277.274)" fill="#ebebeb"/>
        <path id="Trazado_91457" data-name="Trazado 91457" d="M398.115,285.691l-5.274-3.033,4.989-2.948,5.274,3.033Z" transform="translate(-384.058 -274.649)" fill="#ebebeb"/>
        <path id="Trazado_91458" data-name="Trazado 91458" d="M402.344,288.127l-5.274-3.033,4.989-2.948,5.274,3.033Z" transform="translate(-379.503 -272.024)" fill="#ebebeb"/>
      </g>
      <g id="Grupo_38929" data-name="Grupo 38929" transform="translate(66.908 41.309)">
        <path id="Trazado_91459" data-name="Trazado 91459" d="M371.815,290.876l-5.274-3.033,4.989-2.948,5.274,3.033Z" transform="translate(-366.541 -269.195)" fill="#ebebeb"/>
        <path id="Trazado_91460" data-name="Trazado 91460" d="M376.247,288.357l-5.274-3.033,4.989-2.948,5.274,3.033Z" transform="translate(-361.767 -271.909)" fill="#ebebeb"/>
        <path id="Trazado_91461" data-name="Trazado 91461" d="M380.678,285.838,375.4,282.8l4.989-2.948,5.274,3.033Z" transform="translate(-356.993 -274.623)" fill="#ebebeb"/>
        <path id="Trazado_91462" data-name="Trazado 91462" d="M385.11,283.318l-5.274-3.033,4.988-2.948,5.274,3.033Z" transform="translate(-352.219 -277.337)" fill="#ebebeb"/>
      </g>
      <path id="Trazado_91463" data-name="Trazado 91463" d="M347.056,280.019a1,1,0,0,1-.112.467,2.261,2.261,0,0,1-1.338,1.053,5.091,5.091,0,0,1-1.764.3,5.5,5.5,0,0,1-1-.089,4.147,4.147,0,0,1-.764-.212,2.308,2.308,0,0,1-1.342-1.049,1.063,1.063,0,0,1-.112-.461c0-.808.929-1.492,2.219-1.735a5.488,5.488,0,0,1,.995-.089C345.617,278.206,347.056,279.018,347.056,280.019Z" transform="translate(-327.551 -235.092)" fill="#fff"/>
      <path id="Trazado_91464" data-name="Trazado 91464" d="M464.745,298.119v3.8l-63.689,36.856v-3.8Z" transform="translate(-262.45 -213.641)" fill="#17694a"/>
      <path id="Trazado_91465" data-name="Trazado 91465" d="M334.331,277.337v3.8l138.607,80.024v-3.8Z" transform="translate(-334.331 -236.028)" fill="#00926e"/>
      <path id="Trazado_91466" data-name="Trazado 91466" d="M347.552,282.843l-6.253-3.678,10.245-5.926,6.253,3.679-7.091,6.223Z" transform="translate(-326.825 -240.443)" fill="#b3b3b3" style="mix-blend-mode: multiply;isolation: isolate"/>
      <g id="Grupo_38930" data-name="Grupo 38930" transform="translate(19.033 33.838)">
        <path id="Trazado_91467" data-name="Trazado 91467" d="M348.369,281.228l-4.875-2.868,7.988-4.62,4.875,2.868Z" transform="translate(-343.494 -273.741)" fill="#364557"/>
        <path id="Trazado_91468" data-name="Trazado 91468" d="M353.828,275.121v1.372l-7.988,4.62v-1.372Z" transform="translate(-340.965 -272.253)" fill="#202b33"/>
        <path id="Trazado_91469" data-name="Trazado 91469" d="M343.494,275.964v1.372l4.875,2.868v-1.372Z" transform="translate(-343.494 -271.345)" fill="#161c24"/>
      </g>
      <g id="Grupo_38935" data-name="Grupo 38935" transform="translate(12.862 31.869)">
        <g id="Grupo_38932" data-name="Grupo 38932" transform="translate(0.418 3.263)">
          <g id="Grupo_38931" data-name="Grupo 38931" transform="translate(0 1.697)">
            <path id="Trazado_91470" data-name="Trazado 91470" d="M346.746,275.181v7.846a.647.647,0,0,1-.023.189c-.158.854-1.44,1.514-2.987,1.514a5.2,5.2,0,0,1-.937-.085c-1.1-.2-1.915-.748-2.05-1.421-.012-.062-.021-6.836-.021-6.9l0-.6v-.534h.74l1.336,0,3.2,0Z" transform="translate(-340.724 -275.181)" fill="url(#linear-gradient)"/>
          </g>
          <path id="Trazado_91471" data-name="Trazado 91471" d="M346.746,276.061a.96.96,0,0,1-.106.438,2.116,2.116,0,0,1-1.253.987,4.773,4.773,0,0,1-1.651.282,5.2,5.2,0,0,1-.937-.085,3.832,3.832,0,0,1-.715-.2,2.157,2.157,0,0,1-1.257-.983,1,1,0,0,1-.1-.434c0-.756.87-1.394,2.075-1.62a5.007,5.007,0,0,1,.933-.085C345.4,274.364,346.746,275.124,346.746,276.061Z" transform="translate(-340.724 -274.364)" fill="#344354"/>
        </g>
        <g id="Grupo_38934" data-name="Grupo 38934">
          <g id="Grupo_38933" data-name="Grupo 38933" transform="translate(0 1.932)">
            <path id="Trazado_91472" data-name="Trazado 91472" d="M347.378,273.723v8.932a.832.832,0,0,1-.023.214c-.183.972-1.641,1.722-3.4,1.722a5.843,5.843,0,0,1-1.066-.1c-1.248-.228-2.181-.852-2.335-1.616-.015-.073-.025-7.784-.025-7.86l0-.679v-.607h.843l1.521-.006,3.646,0Z" transform="translate(-340.523 -273.723)" fill="url(#linear-gradient-2)"/>
          </g>
          <path id="Trazado_91473" data-name="Trazado 91473" d="M347.378,274.725a1.072,1.072,0,0,1-.118.5,2.422,2.422,0,0,1-1.427,1.126,5.48,5.48,0,0,1-1.88.32,5.843,5.843,0,0,1-1.066-.1,4.614,4.614,0,0,1-.814-.224,2.457,2.457,0,0,1-1.429-1.12,1.118,1.118,0,0,1-.12-.492c0-.862.991-1.589,2.364-1.847a5.83,5.83,0,0,1,1.061-.1C345.843,272.793,347.378,273.657,347.378,274.725Z" transform="translate(-340.523 -272.793)" fill="#43566c"/>
        </g>
      </g>
      <path id="Trazado_91474" data-name="Trazado 91474" d="M342.937,278.251a.974.974,0,0,1-.11.455,2.216,2.216,0,0,1-1.3,1.028,5,5,0,0,1-1.718.293,5.459,5.459,0,0,1-.976-.087,4.248,4.248,0,0,1-.742-.206,2.248,2.248,0,0,1-1.309-1.024,1.034,1.034,0,0,1-.108-.449c0-.787.9-1.452,2.158-1.689a5.442,5.442,0,0,1,.972-.087C341.533,276.485,342.937,277.276,342.937,278.251Z" transform="translate(-331.809 -236.946)" fill="#fff"/>
      <path id="Trazado_91475" data-name="Trazado 91475" d="M337.287,279.3a3.7,3.7,0,0,1,1.543-.634,5.447,5.447,0,0,1,.972-.087,4.248,4.248,0,0,1,2.518.723,1.607,1.607,0,0,0,.507-.6.974.974,0,0,0,.11-.455c0-.974-1.4-1.766-3.135-1.766a5.442,5.442,0,0,0-.972.087c-1.255.237-2.158.9-2.158,1.689a1.034,1.034,0,0,0,.108.449A1.647,1.647,0,0,0,337.287,279.3Z" transform="translate(-331.809 -236.946)" fill="#104732"/>
      <path id="Trazado_91476" data-name="Trazado 91476" d="M364.621,260.754a5.107,5.107,0,0,1,.927-.083h.021a4.734,4.734,0,0,1,2.329.642l2.754,1.572-4.2,2.393-3.189-1.818.006,0a1.656,1.656,0,0,1-.613-.661.979.979,0,0,1-.1-.43C362.556,261.616,363.42,260.98,364.621,260.754Z" transform="translate(-303.925 -253.982)" fill="#b3b3b3" style="mix-blend-mode: multiply;isolation: isolate"/>
      <g id="Grupo_38941" data-name="Grupo 38941" transform="translate(61.306)">
        <path id="Trazado_91477" data-name="Trazado 91477" d="M369.067,263.23a.793.793,0,0,1-.089.374,1.815,1.815,0,0,1-1.07.843,4.11,4.11,0,0,1-1.41.239,4.492,4.492,0,0,1-.8-.071,3.5,3.5,0,0,1-.611-.168,1.845,1.845,0,0,1-1.072-.841.829.829,0,0,1-.089-.37c0-.646.742-1.19,1.772-1.385a4.485,4.485,0,0,1,.8-.071C367.916,261.78,369.067,262.43,369.067,263.23Z" transform="translate(-363.756 -252.788)" fill="#fff"/>
        <g id="Grupo_38940" data-name="Grupo 38940">
          <g id="Grupo_38937" data-name="Grupo 38937" transform="translate(0.332 2.609)">
            <g id="Grupo_38936" data-name="Grupo 38936" transform="translate(0 1.359)">
              <path id="Trazado_91478" data-name="Trazado 91478" d="M368.821,259.361v6.273a.531.531,0,0,1-.019.152c-.127.681-1.151,1.209-2.389,1.209a4.1,4.1,0,0,1-.748-.066c-.879-.162-1.533-.6-1.641-1.136-.01-.05-.017-5.467-.017-5.521l0-.476v-.428h.592l1.07,0,2.559,0Z" transform="translate(-364.004 -259.361)" fill="url(#linear-gradient-3)"/>
            </g>
            <path id="Trazado_91479" data-name="Trazado 91479" d="M368.821,260.065a.741.741,0,0,1-.085.349,1.689,1.689,0,0,1-1,.789,3.825,3.825,0,0,1-1.321.226,4.1,4.1,0,0,1-.748-.069,2.907,2.907,0,0,1-.571-.158,1.717,1.717,0,0,1-1.005-.785.792.792,0,0,1-.085-.347c0-.6.7-1.115,1.662-1.3a4.1,4.1,0,0,1,.746-.068C367.741,258.707,368.821,259.316,368.821,260.065Z" transform="translate(-364.004 -258.707)" fill="#344354"/>
          </g>
          <g id="Grupo_38939" data-name="Grupo 38939">
            <g id="Grupo_38938" data-name="Grupo 38938" transform="translate(0 1.543)">
              <path id="Trazado_91480" data-name="Trazado 91480" d="M369.326,258.194v7.144a.7.7,0,0,1-.019.172c-.145.777-1.313,1.377-2.721,1.377a4.676,4.676,0,0,1-.852-.077c-1-.183-1.745-.681-1.867-1.292-.01-.058-.019-6.226-.019-6.286l0-.544V258.2h.673l1.217,0,2.914,0Z" transform="translate(-363.844 -258.194)" fill="url(#linear-gradient-4)"/>
            </g>
            <path id="Trazado_91481" data-name="Trazado 91481" d="M369.326,258.994a.868.868,0,0,1-.1.4,1.932,1.932,0,0,1-1.14.9,4.376,4.376,0,0,1-1.5.255,4.67,4.67,0,0,1-.852-.077,3.452,3.452,0,0,1-.65-.179,1.965,1.965,0,0,1-1.145-.9.912.912,0,0,1-.1-.395c0-.688.791-1.269,1.89-1.477a4.672,4.672,0,0,1,.85-.075C368.1,257.451,369.326,258.143,369.326,258.994Z" transform="translate(-363.844 -257.451)" fill="#43566c"/>
          </g>
        </g>
      </g>
      <path id="Trazado_91482" data-name="Trazado 91482" d="M377.321,298.817a5.145,5.145,0,0,1,.929-.083h.021a4.739,4.739,0,0,1,2.329.642l4.437,2.287-4.2,2.391-4.871-2.53,0,0a1.673,1.673,0,0,1-.611-.659.988.988,0,0,1-.106-.43C375.256,299.679,376.122,299.043,377.321,298.817Z" transform="translate(-290.244 -212.978)" fill="#b3b3b3" style="mix-blend-mode: multiply;isolation: isolate"/>
      <g id="Grupo_38947" data-name="Grupo 38947" transform="translate(89.569 79.865)">
        <path id="Trazado_91483" data-name="Trazado 91483" d="M382.674,301.677a.818.818,0,0,1-.089.374,1.821,1.821,0,0,1-1.07.843,4.108,4.108,0,0,1-1.41.241,4.47,4.47,0,0,1-.8-.073,3.443,3.443,0,0,1-.611-.168,1.85,1.85,0,0,1-1.074-.841.848.848,0,0,1-.089-.368c0-.646.744-1.192,1.774-1.385a4.28,4.28,0,0,1,.8-.073C381.521,300.227,382.674,300.877,382.674,301.677Z" transform="translate(-377.363 -291.234)" fill="#fff"/>
        <g id="Grupo_38946" data-name="Grupo 38946">
          <g id="Grupo_38943" data-name="Grupo 38943" transform="translate(0.332 2.611)">
            <g id="Grupo_38942" data-name="Grupo 38942" transform="translate(0 1.356)">
              <path id="Trazado_91484" data-name="Trazado 91484" d="M382.425,297.808v6.273a.532.532,0,0,1-.017.152c-.127.681-1.153,1.211-2.389,1.211a4.146,4.146,0,0,1-.75-.069c-.877-.162-1.531-.6-1.639-1.136-.01-.05-.017-5.467-.017-5.521l0-.476v-.428h.592l1.068,0,2.561,0Z" transform="translate(-377.61 -297.808)" fill="url(#linear-gradient-5)"/>
            </g>
            <path id="Trazado_91485" data-name="Trazado 91485" d="M382.425,298.511a.764.764,0,0,1-.083.349,1.689,1.689,0,0,1-1,.789,3.824,3.824,0,0,1-1.321.226,4.345,4.345,0,0,1-.75-.066,3.1,3.1,0,0,1-.571-.16,1.711,1.711,0,0,1-1-.785.785.785,0,0,1-.085-.347c0-.6.7-1.116,1.66-1.3a4.131,4.131,0,0,1,.746-.066C381.347,297.155,382.425,297.761,382.425,298.511Z" transform="translate(-377.61 -297.155)" fill="#344354"/>
          </g>
          <g id="Grupo_38945" data-name="Grupo 38945">
            <g id="Grupo_38944" data-name="Grupo 38944" transform="translate(0 1.545)">
              <path id="Trazado_91486" data-name="Trazado 91486" d="M382.932,296.642v7.142a.6.6,0,0,1-.021.172c-.143.777-1.311,1.377-2.719,1.377a4.682,4.682,0,0,1-.854-.077c-1-.183-1.743-.681-1.865-1.292-.013-.058-.019-6.226-.019-6.286l0-.544v-.486h.673l1.215,0,2.917,0Z" transform="translate(-377.45 -296.642)" fill="url(#linear-gradient-6)"/>
            </g>
            <path id="Trazado_91487" data-name="Trazado 91487" d="M382.932,297.443a.866.866,0,0,1-.1.4,1.924,1.924,0,0,1-1.14.9,4.376,4.376,0,0,1-1.5.256,4.675,4.675,0,0,1-.854-.075,3.709,3.709,0,0,1-.65-.181,1.953,1.953,0,0,1-1.142-.9.878.878,0,0,1-.1-.395c0-.688.791-1.269,1.888-1.477a4.866,4.866,0,0,1,.85-.075C381.7,295.9,382.932,296.59,382.932,297.443Z" transform="translate(-377.45 -295.898)" fill="#43566c"/>
          </g>
        </g>
      </g>
      <path id="Trazado_91488" data-name="Trazado 91488" d="M381.474,301.3a5.127,5.127,0,0,1,.926-.083h.023a4.71,4.71,0,0,1,2.327.642l3.97,2.046-3.727,2.632L380.119,304l.006,0a1.68,1.68,0,0,1-.613-.658.985.985,0,0,1-.1-.43C379.409,302.157,380.273,301.523,381.474,301.3Z" transform="translate(-285.77 -210.307)" fill="#b3b3b3" style="mix-blend-mode: multiply;isolation: isolate"/>
      <g id="Grupo_38953" data-name="Grupo 38953" transform="translate(97.635 84.769)">
        <path id="Trazado_91489" data-name="Trazado 91489" d="M386.558,304.038a.813.813,0,0,1-.089.374,1.814,1.814,0,0,1-1.07.843,4.126,4.126,0,0,1-1.411.241,4.309,4.309,0,0,1-.8-.073,3.469,3.469,0,0,1-.609-.168,1.848,1.848,0,0,1-1.074-.839.857.857,0,0,1-.089-.37c0-.646.744-1.192,1.772-1.386a4.3,4.3,0,0,1,.8-.073C385.405,302.588,386.558,303.238,386.558,304.038Z" transform="translate(-381.245 -293.595)" fill="#fff"/>
        <g id="Grupo_38952" data-name="Grupo 38952">
          <g id="Grupo_38949" data-name="Grupo 38949" transform="translate(0.334 2.611)">
            <g id="Grupo_38948" data-name="Grupo 38948" transform="translate(0 1.356)">
              <path id="Trazado_91490" data-name="Trazado 91490" d="M386.309,300.169v6.275a.612.612,0,0,1-.017.15c-.129.683-1.153,1.211-2.389,1.211a4.129,4.129,0,0,1-.75-.068c-.877-.16-1.533-.6-1.639-1.134-.01-.052-.019-5.467-.019-5.521l0-.478v-.426h.592l1.068,0,2.561,0Z" transform="translate(-381.494 -300.169)" fill="url(#linear-gradient-7)"/>
            </g>
            <path id="Trazado_91491" data-name="Trazado 91491" d="M386.309,300.872a.734.734,0,0,1-.085.349,1.692,1.692,0,0,1-1,.791,3.813,3.813,0,0,1-1.319.224,4.127,4.127,0,0,1-.75-.066,3.223,3.223,0,0,1-.571-.158,1.733,1.733,0,0,1-1.005-.787.774.774,0,0,1-.083-.345c0-.607.7-1.116,1.66-1.3a4.115,4.115,0,0,1,.746-.067C385.231,299.516,386.309,300.125,386.309,300.872Z" transform="translate(-381.494 -299.516)" fill="#344354"/>
          </g>
          <g id="Grupo_38951" data-name="Grupo 38951">
            <g id="Grupo_38950" data-name="Grupo 38950" transform="translate(0 1.545)">
              <path id="Trazado_91492" data-name="Trazado 91492" d="M386.815,299v7.144a.6.6,0,0,1-.019.17c-.145.777-1.311,1.377-2.719,1.377a4.676,4.676,0,0,1-.854-.077c-1-.183-1.745-.679-1.867-1.292-.01-.058-.019-6.226-.019-6.286l0-.544v-.484h.673l1.217,0,2.914,0Z" transform="translate(-381.333 -299.003)" fill="url(#linear-gradient-8)"/>
            </g>
            <path id="Trazado_91493" data-name="Trazado 91493" d="M386.815,299.8a.834.834,0,0,1-.1.4,1.925,1.925,0,0,1-1.138.9,4.337,4.337,0,0,1-1.5.258,4.676,4.676,0,0,1-.854-.077,3.54,3.54,0,0,1-.65-.181,1.958,1.958,0,0,1-1.145-.9.9.9,0,0,1-.1-.393c0-.69.794-1.271,1.89-1.477a4.67,4.67,0,0,1,.85-.077C385.587,298.259,386.815,298.951,386.815,299.8Z" transform="translate(-381.333 -298.259)" fill="#43566c"/>
          </g>
        </g>
      </g>
      <g id="Grupo_38959" data-name="Grupo 38959" transform="translate(105.597 80.945)">
        <path id="Trazado_91494" data-name="Trazado 91494" d="M390.39,302.2a.81.81,0,0,1-.089.372,1.806,1.806,0,0,1-1.07.843,4.06,4.06,0,0,1-1.41.241,4.286,4.286,0,0,1-.8-.073,3.127,3.127,0,0,1-.611-.168,1.84,1.84,0,0,1-1.074-.839.858.858,0,0,1-.089-.37c0-.646.744-1.19,1.774-1.385a4.461,4.461,0,0,1,.8-.071C389.237,300.748,390.39,301.4,390.39,302.2Z" transform="translate(-385.079 -291.753)" fill="#fff"/>
        <g id="Grupo_38958" data-name="Grupo 38958">
          <g id="Grupo_38955" data-name="Grupo 38955" transform="translate(0.332 2.611)">
            <g id="Grupo_38954" data-name="Grupo 38954" transform="translate(0 1.359)">
              <path id="Trazado_91495" data-name="Trazado 91495" d="M390.141,298.329V304.6a.548.548,0,0,1-.017.152c-.127.681-1.153,1.209-2.389,1.209a4.12,4.12,0,0,1-.75-.067c-.877-.162-1.531-.6-1.639-1.136-.01-.05-.017-5.467-.017-5.521l0-.478v-.426h.592l1.068,0,2.561,0Z" transform="translate(-385.326 -298.329)" fill="url(#linear-gradient-5)"/>
            </g>
            <path id="Trazado_91496" data-name="Trazado 91496" d="M390.141,299.034a.77.77,0,0,1-.083.349,1.7,1.7,0,0,1-1,.789,3.827,3.827,0,0,1-1.321.224,4.132,4.132,0,0,1-.75-.066,3.284,3.284,0,0,1-.571-.158,1.714,1.714,0,0,1-1-.787.776.776,0,0,1-.085-.345c0-.6.7-1.115,1.66-1.3a4.113,4.113,0,0,1,.746-.067C389.063,297.675,390.141,298.284,390.141,299.034Z" transform="translate(-385.326 -297.675)" fill="#344354"/>
          </g>
          <g id="Grupo_38957" data-name="Grupo 38957">
            <g id="Grupo_38956" data-name="Grupo 38956" transform="translate(0 1.545)">
              <path id="Trazado_91497" data-name="Trazado 91497" d="M390.648,297.162v7.144a.622.622,0,0,1-.021.172c-.143.777-1.311,1.377-2.719,1.377a4.671,4.671,0,0,1-.854-.077c-1-.185-1.743-.681-1.865-1.294-.013-.056-.021-6.224-.021-6.286l0-.542v-.486h.673l1.215,0,2.916,0Z" transform="translate(-385.166 -297.162)" fill="url(#linear-gradient-10)"/>
            </g>
            <path id="Trazado_91498" data-name="Trazado 91498" d="M390.648,297.963a.874.874,0,0,1-.1.4,1.939,1.939,0,0,1-1.14.9,4.376,4.376,0,0,1-1.5.256,4.676,4.676,0,0,1-.854-.077,3.719,3.719,0,0,1-.65-.179,1.968,1.968,0,0,1-1.142-.9.884.884,0,0,1-.1-.395c0-.69.791-1.269,1.888-1.477a4.664,4.664,0,0,1,.85-.077C389.42,296.418,390.648,297.112,390.648,297.963Z" transform="translate(-385.166 -296.418)" fill="#43566c"/>
          </g>
        </g>
      </g>
      <path id="Trazado_91499" data-name="Trazado 91499" d="M385.262,273.28a5.147,5.147,0,0,1,.929-.083h.021a4.7,4.7,0,0,1,2.329.642l4.437,2.287-4.2,2.391-4.871-2.532,0,0a1.665,1.665,0,0,1-.611-.661.973.973,0,0,1-.1-.43C383.2,274.14,384.063,273.5,385.262,273.28Z" transform="translate(-281.688 -240.488)" fill="#b3b3b3" style="mix-blend-mode: multiply;isolation: isolate"/>
      <g id="Grupo_38965" data-name="Grupo 38965" transform="translate(106.14 26.95)">
        <path id="Trazado_91500" data-name="Trazado 91500" d="M390.652,276.2a.818.818,0,0,1-.089.374,1.821,1.821,0,0,1-1.07.843,4.12,4.12,0,0,1-1.41.239,4.457,4.457,0,0,1-.8-.071,3.443,3.443,0,0,1-.611-.168,1.85,1.85,0,0,1-1.074-.841.849.849,0,0,1-.089-.37c0-.646.744-1.19,1.774-1.383a4.259,4.259,0,0,1,.8-.073C389.5,274.754,390.652,275.4,390.652,276.2Z" transform="translate(-385.339 -265.762)" fill="#fff"/>
        <g id="Grupo_38964" data-name="Grupo 38964">
          <g id="Grupo_38961" data-name="Grupo 38961" transform="translate(0.334 2.611)">
            <g id="Grupo_38960" data-name="Grupo 38960" transform="translate(0 1.356)">
              <path id="Trazado_91501" data-name="Trazado 91501" d="M390.4,272.335v6.273a.63.63,0,0,1-.017.152c-.129.681-1.153,1.209-2.389,1.209a4.126,4.126,0,0,1-.75-.067c-.877-.162-1.533-.6-1.639-1.136-.01-.05-.017-5.467-.017-5.521l0-.476v-.428h.592l1.068,0,2.561,0Z" transform="translate(-385.588 -272.335)" fill="url(#linear-gradient-11)"/>
            </g>
            <path id="Trazado_91502" data-name="Trazado 91502" d="M390.4,273.038a.763.763,0,0,1-.083.349,1.7,1.7,0,0,1-1,.789A3.834,3.834,0,0,1,388,274.4a4.123,4.123,0,0,1-.75-.069,2.912,2.912,0,0,1-.571-.158,1.723,1.723,0,0,1-1.005-.785.782.782,0,0,1-.083-.347c0-.6.7-1.115,1.66-1.3a4.12,4.12,0,0,1,.746-.066C389.325,271.682,390.4,272.289,390.4,273.038Z" transform="translate(-385.588 -271.682)" fill="#344354"/>
          </g>
          <g id="Grupo_38963" data-name="Grupo 38963">
            <g id="Grupo_38962" data-name="Grupo 38962" transform="translate(0 1.546)">
              <path id="Trazado_91503" data-name="Trazado 91503" d="M390.909,271.169v7.142a.611.611,0,0,1-.019.172c-.145.777-1.311,1.377-2.719,1.377a4.682,4.682,0,0,1-.854-.077c-1-.183-1.745-.681-1.865-1.292-.012-.058-.021-6.226-.021-6.286l0-.544v-.486h.675l1.215,0,2.917,0Z" transform="translate(-385.427 -271.169)" fill="url(#linear-gradient-12)"/>
            </g>
            <path id="Trazado_91504" data-name="Trazado 91504" d="M390.909,271.971a.84.84,0,0,1-.1.4,1.926,1.926,0,0,1-1.138.9,4.376,4.376,0,0,1-1.5.255,4.671,4.671,0,0,1-.854-.077,3.542,3.542,0,0,1-.65-.179,1.966,1.966,0,0,1-1.145-.9.906.906,0,0,1-.1-.395c0-.688.794-1.269,1.89-1.477a4.86,4.86,0,0,1,.85-.075C389.681,270.425,390.909,271.117,390.909,271.971Z" transform="translate(-385.427 -270.425)" fill="#43566c"/>
          </g>
        </g>
      </g>
      <path id="Trazado_91505" data-name="Trazado 91505" d="M403.824,286.724a5.145,5.145,0,0,1,.928-.083h.021a4.733,4.733,0,0,1,2.329.642l3.968,2.046-3.727,2.632-4.871-2.53.006,0a1.665,1.665,0,0,1-.613-.658.978.978,0,0,1-.1-.43C401.761,287.586,402.625,286.951,403.824,286.724Z" transform="translate(-261.691 -226.006)" fill="#b3b3b3" style="mix-blend-mode: multiply;isolation: isolate"/>
      <path id="Trazado_91506" data-name="Trazado 91506" d="M407.02,284.646a5.1,5.1,0,0,1,.926-.083h.021a4.734,4.734,0,0,1,2.329.642l3.97,2.046-3.729,2.632-4.871-2.53.006,0a1.665,1.665,0,0,1-.613-.658.979.979,0,0,1-.1-.43C404.955,285.508,405.819,284.873,407.02,284.646Z" transform="translate(-258.251 -228.244)" fill="#b3b3b3" style="mix-blend-mode: multiply;isolation: isolate"/>
      <g id="Grupo_38971" data-name="Grupo 38971" transform="translate(144.305 54.584)">
        <path id="Trazado_91507" data-name="Trazado 91507" d="M409.025,289.507a.819.819,0,0,1-.089.374,1.814,1.814,0,0,1-1.07.843,4.118,4.118,0,0,1-1.41.241,4.494,4.494,0,0,1-.8-.073,3.472,3.472,0,0,1-.609-.168,1.848,1.848,0,0,1-1.074-.839.858.858,0,0,1-.089-.37c0-.646.744-1.192,1.772-1.386a4.3,4.3,0,0,1,.8-.073C407.872,288.057,409.025,288.707,409.025,289.507Z" transform="translate(-403.712 -279.064)" fill="#fff"/>
        <g id="Grupo_38970" data-name="Grupo 38970">
          <g id="Grupo_38967" data-name="Grupo 38967" transform="translate(0.334 2.611)">
            <g id="Grupo_38966" data-name="Grupo 38966" transform="translate(0 1.356)">
              <path id="Trazado_91508" data-name="Trazado 91508" d="M408.776,285.638v6.273a.617.617,0,0,1-.017.152c-.129.683-1.153,1.211-2.389,1.211a4.127,4.127,0,0,1-.75-.068c-.877-.16-1.533-.6-1.639-1.134-.01-.052-.019-5.469-.019-5.523l0-.476v-.428h.592l1.068,0,2.561,0Z" transform="translate(-403.961 -285.638)" fill="url(#linear-gradient-13)"/>
            </g>
            <path id="Trazado_91509" data-name="Trazado 91509" d="M408.776,286.341a.741.741,0,0,1-.085.349,1.693,1.693,0,0,1-1,.791,3.864,3.864,0,0,1-1.319.224,4.125,4.125,0,0,1-.75-.067,3.231,3.231,0,0,1-.571-.158,1.733,1.733,0,0,1-1.005-.787.775.775,0,0,1-.083-.347c0-.6.7-1.115,1.66-1.3a4.113,4.113,0,0,1,.746-.067C407.7,284.985,408.776,285.594,408.776,286.341Z" transform="translate(-403.961 -284.985)" fill="#344354"/>
          </g>
          <g id="Grupo_38969" data-name="Grupo 38969">
            <g id="Grupo_38968" data-name="Grupo 38968" transform="translate(0 1.545)">
              <path id="Trazado_91510" data-name="Trazado 91510" d="M409.282,284.472v7.142a.6.6,0,0,1-.019.172c-.145.777-1.311,1.377-2.719,1.377a4.676,4.676,0,0,1-.854-.077c-1-.183-1.745-.679-1.867-1.292-.01-.058-.019-6.226-.019-6.286l0-.544v-.484h.675l1.215,0,2.914,0Z" transform="translate(-403.8 -284.472)" fill="url(#linear-gradient-14)"/>
            </g>
            <path id="Trazado_91511" data-name="Trazado 91511" d="M409.282,285.273a.835.835,0,0,1-.1.4,1.925,1.925,0,0,1-1.138.9,4.336,4.336,0,0,1-1.5.255,4.685,4.685,0,0,1-.854-.075,3.719,3.719,0,0,1-.65-.181,1.957,1.957,0,0,1-1.145-.9.9.9,0,0,1-.1-.393c0-.69.794-1.271,1.89-1.477a4.664,4.664,0,0,1,.85-.077C408.054,283.728,409.282,284.42,409.282,285.273Z" transform="translate(-403.8 -283.728)" fill="#43566c"/>
          </g>
        </g>
      </g>
      <g id="Grupo_38977" data-name="Grupo 38977" transform="translate(150.932 50.297)">
        <path id="Trazado_91512" data-name="Trazado 91512" d="M412.213,287.443a.794.794,0,0,1-.089.374,1.807,1.807,0,0,1-1.07.843,4.061,4.061,0,0,1-1.41.241,4.488,4.488,0,0,1-.8-.073,3.5,3.5,0,0,1-.611-.168,1.836,1.836,0,0,1-1.072-.839.829.829,0,0,1-.089-.37c0-.646.742-1.192,1.772-1.385a4.3,4.3,0,0,1,.8-.073C411.062,285.993,412.213,286.643,412.213,287.443Z" transform="translate(-406.902 -277)" fill="#fff"/>
        <g id="Grupo_38976" data-name="Grupo 38976">
          <g id="Grupo_38973" data-name="Grupo 38973" transform="translate(0.332 2.611)">
            <g id="Grupo_38972" data-name="Grupo 38972" transform="translate(0 1.356)">
              <path id="Trazado_91513" data-name="Trazado 91513" d="M411.965,283.574v6.273a.53.53,0,0,1-.017.152c-.127.683-1.151,1.211-2.389,1.211a4.1,4.1,0,0,1-.748-.069c-.879-.16-1.533-.6-1.641-1.134-.01-.052-.017-5.467-.017-5.521l0-.478v-.428h.592l1.07,0,2.559,0Z" transform="translate(-407.15 -283.574)" fill="url(#linear-gradient-15)"/>
            </g>
            <path id="Trazado_91514" data-name="Trazado 91514" d="M411.965,284.277a.753.753,0,0,1-.083.351,1.7,1.7,0,0,1-1,.789,3.825,3.825,0,0,1-1.321.224,4.108,4.108,0,0,1-.748-.066,3.225,3.225,0,0,1-.571-.158,1.726,1.726,0,0,1-1.005-.787.778.778,0,0,1-.085-.347c0-.6.7-1.115,1.662-1.3a4.1,4.1,0,0,1,.746-.066C410.887,282.921,411.965,283.528,411.965,284.277Z" transform="translate(-407.15 -282.921)" fill="#344354"/>
          </g>
          <g id="Grupo_38975" data-name="Grupo 38975">
            <g id="Grupo_38974" data-name="Grupo 38974" transform="translate(0 1.545)">
              <path id="Trazado_91515" data-name="Trazado 91515" d="M412.472,282.408v7.142a.683.683,0,0,1-.019.172c-.145.777-1.313,1.377-2.721,1.377a4.67,4.67,0,0,1-.852-.077c-1-.183-1.745-.679-1.867-1.292-.013-.058-.019-6.226-.019-6.286l0-.544v-.484h.673l1.217,0,2.914,0Z" transform="translate(-406.99 -282.408)" fill="url(#linear-gradient-4)"/>
            </g>
            <path id="Trazado_91516" data-name="Trazado 91516" d="M412.472,283.209a.86.86,0,0,1-.1.4,1.924,1.924,0,0,1-1.14.9,4.328,4.328,0,0,1-1.5.258,4.665,4.665,0,0,1-.852-.077,3.451,3.451,0,0,1-.65-.181,1.958,1.958,0,0,1-1.145-.9.9.9,0,0,1-.1-.393c0-.69.791-1.271,1.89-1.477a4.669,4.669,0,0,1,.85-.077C411.244,281.664,412.472,282.356,412.472,283.209Z" transform="translate(-406.99 -281.664)" fill="#43566c"/>
          </g>
        </g>
      </g>
      <g id="Grupo_38978" data-name="Grupo 38978" transform="translate(33.233 13.383)">
        <path id="Trazado_91517" data-name="Trazado 91517" d="M379.133,296.04,350.33,279.4l26.712-15.51,28.8,16.637Z" transform="translate(-350.33 -263.894)" fill="#fff"/>
        <path id="Trazado_91518" data-name="Trazado 91518" d="M351.726,278.529,375.54,264.7l25.9,14.96-23.814,13.827Z" transform="translate(-348.825 -263.023)" fill="#00926e"/>
      </g>
      <g id="Grupo_38979" data-name="Grupo 38979" transform="translate(61.151 19.89)">
        <path id="Trazado_91519" data-name="Trazado 91519" d="M364.423,269.683l-.654-.395,3.88-2.262.654.394Z" transform="translate(-363.769 -267.026)" fill="#fff"/>
        <path id="Trazado_91520" data-name="Trazado 91520" d="M365.295,270.181l-.654-.395,3.88-2.262.653.394Z" transform="translate(-362.83 -266.49)" fill="#fff"/>
        <path id="Trazado_91521" data-name="Trazado 91521" d="M366.166,270.678l-.654-.394,3.88-2.262.654.394Z" transform="translate(-361.891 -265.954)" fill="#fff"/>
        <path id="Trazado_91522" data-name="Trazado 91522" d="M367.038,271.176l-.654-.395,3.88-2.262.654.394Z" transform="translate(-360.952 -265.418)" fill="#fff"/>
        <path id="Trazado_91523" data-name="Trazado 91523" d="M367.91,271.674l-.654-.394,3.88-2.262.654.394Z" transform="translate(-360.013 -264.882)" fill="#fff"/>
        <path id="Trazado_91524" data-name="Trazado 91524" d="M368.781,272.172l-.654-.395,3.88-2.262.654.394Z" transform="translate(-359.074 -264.345)" fill="#fff"/>
        <path id="Trazado_91525" data-name="Trazado 91525" d="M369.653,272.669l-.654-.394,3.88-2.262.654.394Z" transform="translate(-358.135 -263.809)" fill="#fff"/>
      </g>
      <g id="Grupo_38980" data-name="Grupo 38980" transform="translate(45.353 30.243)">
        <path id="Trazado_91526" data-name="Trazado 91526" d="M356.818,274.667l-.654-.394,3.88-2.262.654.394Z" transform="translate(-356.164 -272.01)" fill="#fff"/>
        <path id="Trazado_91527" data-name="Trazado 91527" d="M357.69,275.165l-.653-.394,3.88-2.262.654.395Z" transform="translate(-355.225 -271.474)" fill="#fff"/>
        <path id="Trazado_91528" data-name="Trazado 91528" d="M358.562,275.662l-.654-.394,3.88-2.262.654.395Z" transform="translate(-354.286 -270.938)" fill="#fff"/>
        <path id="Trazado_91529" data-name="Trazado 91529" d="M359.433,276.16l-.654-.394,3.88-2.262.654.394Z" transform="translate(-353.347 -270.401)" fill="#fff"/>
        <path id="Trazado_91530" data-name="Trazado 91530" d="M360.3,276.657l-.654-.394,3.88-2.262.653.395Z" transform="translate(-352.408 -269.865)" fill="#fff"/>
        <path id="Trazado_91531" data-name="Trazado 91531" d="M361.176,277.155l-.653-.394,3.88-2.262.654.395Z" transform="translate(-351.469 -269.329)" fill="#fff"/>
        <path id="Trazado_91532" data-name="Trazado 91532" d="M362.048,277.653l-.654-.394,3.88-2.262.654.394Z" transform="translate(-350.53 -268.793)" fill="#fff"/>
      </g>
      <g id="Grupo_38981" data-name="Grupo 38981" transform="translate(44.763 19.225)">
        <path id="Trazado_91533" data-name="Trazado 91533" d="M364.99,269.363l.654-.394-3.88-2.262-.654.395Z" transform="translate(-350.246 -266.706)" fill="#fff"/>
        <path id="Trazado_91534" data-name="Trazado 91534" d="M364.119,269.86l.654-.394-3.88-2.262-.654.394Z" transform="translate(-351.185 -266.17)" fill="#fff"/>
        <path id="Trazado_91535" data-name="Trazado 91535" d="M363.247,270.358l.654-.394-3.88-2.262-.654.395Z" transform="translate(-352.124 -265.634)" fill="#fff"/>
        <path id="Trazado_91536" data-name="Trazado 91536" d="M362.375,270.856l.654-.394-3.88-2.262-.654.395Z" transform="translate(-353.063 -265.098)" fill="#fff"/>
        <path id="Trazado_91537" data-name="Trazado 91537" d="M361.5,271.354l.654-.394-3.88-2.262-.654.394Z" transform="translate(-354.002 -264.561)" fill="#fff"/>
        <path id="Trazado_91538" data-name="Trazado 91538" d="M360.632,271.851l.654-.394-3.88-2.262-.654.395Z" transform="translate(-354.941 -264.025)" fill="#fff"/>
        <path id="Trazado_91539" data-name="Trazado 91539" d="M359.76,272.349l.654-.394-3.88-2.262-.654.395Z" transform="translate(-355.88 -263.489)" fill="#fff"/>
      </g>
      <g id="Grupo_38982" data-name="Grupo 38982" transform="translate(62.26 30.736)">
        <path id="Trazado_91540" data-name="Trazado 91540" d="M373.413,274.9l.654-.394-3.88-2.262-.654.394Z" transform="translate(-358.669 -272.247)" fill="#fff"/>
        <path id="Trazado_91541" data-name="Trazado 91541" d="M372.542,275.4l.654-.395-3.88-2.262-.654.394Z" transform="translate(-359.608 -271.711)" fill="#fff"/>
        <path id="Trazado_91542" data-name="Trazado 91542" d="M371.67,275.9l.654-.394-3.88-2.262-.654.394Z" transform="translate(-360.547 -271.175)" fill="#fff"/>
        <path id="Trazado_91543" data-name="Trazado 91543" d="M370.8,276.4l.654-.395-3.88-2.262-.654.394Z" transform="translate(-361.486 -270.639)" fill="#fff"/>
        <path id="Trazado_91544" data-name="Trazado 91544" d="M369.926,276.9l.654-.395-3.88-2.262-.654.394Z" transform="translate(-362.425 -270.103)" fill="#fff"/>
        <path id="Trazado_91545" data-name="Trazado 91545" d="M369.055,277.393l.654-.394-3.88-2.262-.654.394Z" transform="translate(-363.364 -269.567)" fill="#fff"/>
        <path id="Trazado_91546" data-name="Trazado 91546" d="M368.183,277.89l.654-.395-3.88-2.262-.654.394Z" transform="translate(-364.303 -269.03)" fill="#fff"/>
      </g>
      <g id="Grupo_38983" data-name="Grupo 38983" transform="translate(76.531 45.915)">
        <path id="Trazado_91547" data-name="Trazado 91547" d="M392.867,311.015,371.174,298.54l32.808-18.986,21.693,12.475Z" transform="translate(-371.174 -279.555)" fill="#ebebeb"/>
        <path id="Trazado_91548" data-name="Trazado 91548" d="M392.78,299.895l-2.187.347-19.239-10.9,2.508-1.451Z" transform="translate(-370.979 -270.574)" fill="#b3b3b3"/>
        <path id="Trazado_91549" data-name="Trazado 91549" d="M414.424,285.56V287.2l-32.808,18.985v-1.636Z" transform="translate(-359.924 -273.085)" fill="#bfbfbf"/>
        <path id="Trazado_91550" data-name="Trazado 91550" d="M371.174,288.694v1.636l21.693,12.475v-1.636Z" transform="translate(-371.174 -269.709)" fill="gray"/>
      </g>
      <g id="Grupo_38984" data-name="Grupo 38984" transform="translate(78.803 43.968)">
        <path id="Trazado_91551" data-name="Trazado 91551" d="M391.8,306.94l-19.529-11.231L401.8,278.617l19.529,11.231Z" transform="translate(-372.267 -278.617)" fill="#364557"/>
        <path id="Trazado_91552" data-name="Trazado 91552" d="M411.2,284.024v2.945l-29.535,17.092v-2.945Z" transform="translate(-362.139 -272.793)" fill="#bfbfbf"/>
        <path id="Trazado_91553" data-name="Trazado 91553" d="M372.267,286.845v2.945L391.8,301.021v-2.945Z" transform="translate(-372.267 -269.754)" fill="gray"/>
      </g>
      <g id="Grupo_38985" data-name="Grupo 38985" transform="translate(78.803 42.199)">
        <path id="Trazado_91554" data-name="Trazado 91554" d="M391.8,306.088l-19.529-11.231L401.8,277.766,421.331,289Z" transform="translate(-372.267 -277.766)" fill="#364557"/>
        <path id="Trazado_91555" data-name="Trazado 91555" d="M411.2,283.172v1.76l-29.535,17.092v-1.761Z" transform="translate(-362.139 -271.941)" fill="#202b33"/>
        <path id="Trazado_91556" data-name="Trazado 91556" d="M372.267,285.994v1.76L391.8,298.985v-1.761Z" transform="translate(-372.267 -268.902)" fill="#161c24"/>
      </g>
      <path id="Trazado_91557" data-name="Trazado 91557" d="M374.319,293.9l25.913-14.869,1.253.724-25.913,14.869Z" transform="translate(-291.253 -234.209)" fill="#ebebeb"/>
      <path id="Trazado_91558" data-name="Trazado 91558" d="M375.767,294.7l25.913-14.869,1.253.724L377.02,295.425Z" transform="translate(-289.694 -233.34)" fill="#ebebeb"/>
      <path id="Trazado_91559" data-name="Trazado 91559" d="M377.214,295.508l25.913-14.869,1.253.723-25.913,14.869Z" transform="translate(-288.135 -232.471)" fill="#ebebeb"/>
      <path id="Trazado_91560" data-name="Trazado 91560" d="M386.747,286.777l9-5.27,1.253.723-9,5.27Z" transform="translate(-277.865 -231.536)" fill="#ebebeb"/>
      <path id="Trazado_91561" data-name="Trazado 91561" d="M388.021,287.523l9-5.27,1.253.724-9,5.27Z" transform="translate(-276.493 -230.733)" fill="#ebebeb"/>
      <g id="Grupo_38986" data-name="Grupo 38986" transform="translate(36.134 49.517)">
        <path id="Trazado_91562" data-name="Trazado 91562" d="M357.979,290.892l-6.253-3.679,10.245-5.925,6.253,3.679Z" transform="translate(-351.726 -281.288)" fill="#364557"/>
        <path id="Trazado_91563" data-name="Trazado 91563" d="M364.982,283.059v3.228l-10.246,5.925v-3.228Z" transform="translate(-348.483 -279.381)" fill="#202b33"/>
        <path id="Trazado_91564" data-name="Trazado 91564" d="M351.726,284.141v3.228l6.253,3.678V287.82Z" transform="translate(-351.726 -278.215)" fill="#161c24"/>
      </g>
      <g id="Grupo_38987" data-name="Grupo 38987" transform="translate(132.595 65.786)">
        <path id="Trazado_91565" data-name="Trazado 91565" d="M403.718,302.882l-5.556-3.232,18.206-10.529,5.556,3.232Z" transform="translate(-398.163 -289.121)" fill="#364557"/>
        <path id="Trazado_91566" data-name="Trazado 91566" d="M419.043,290.676v3.92l-18.206,10.529v-3.92Z" transform="translate(-395.281 -287.445)" fill="#202b33"/>
        <path id="Trazado_91567" data-name="Trazado 91567" d="M398.163,294.19v3.92l5.556,3.232v-3.92Z" transform="translate(-398.163 -283.66)" fill="#161c24"/>
      </g>
      <path id="Trazado_91568" data-name="Trazado 91568" d="M403.232,312.757l-13.147-7.734,21.541-12.458,13.147,7.734-14.907,13.084Z" transform="translate(-274.269 -219.624)" fill="#b3b3b3" style="mix-blend-mode: multiply;isolation: isolate"/>
      <g id="Grupo_38988" data-name="Grupo 38988" transform="translate(124.368 66.676)">
        <path id="Trazado_91569" data-name="Trazado 91569" d="M405.314,306.615,394.2,300.079l18.206-10.529,11.112,6.537Z" transform="translate(-394.202 -289.549)" fill="#364557"/>
        <path id="Trazado_91570" data-name="Trazado 91570" d="M417.757,292.7v10.016l-18.206,10.529V303.225Z" transform="translate(-388.44 -286.159)" fill="#202b33"/>
        <path id="Trazado_91571" data-name="Trazado 91571" d="M394.2,294.618v10.016l11.111,6.537V301.155Z" transform="translate(-394.202 -284.089)" fill="#161c24"/>
      </g>
      <g id="Grupo_38989" data-name="Grupo 38989" transform="translate(167.03 71.331)">
        <path id="Trazado_91572" data-name="Trazado 91572" d="M422.989,303.95l-8.249-4.741,13.052-7.419,8.249,4.741Z" transform="translate(-414.74 -291.79)" fill="url(#linear-gradient-17)"/>
        <path id="Trazado_91573" data-name="Trazado 91573" d="M431.763,294.072v10.1l-13.052,7.419v-10.1Z" transform="translate(-410.462 -289.332)" fill="#202b33"/>
        <path id="Trazado_91574" data-name="Trazado 91574" d="M414.74,295.362v10.1l8.249,4.741V300.1Z" transform="translate(-414.74 -287.943)" fill="#e8e8e8"/>
      </g>
      <g id="Grupo_38990" data-name="Grupo 38990" transform="translate(148.384 82.639)">
        <path id="Trazado_91575" data-name="Trazado 91575" d="M414.013,309.393l-8.249-4.74,13.052-7.419,8.249,4.74Z" transform="translate(-405.764 -297.234)" fill="url(#linear-gradient-17)"/>
        <path id="Trazado_91576" data-name="Trazado 91576" d="M422.787,299.516v10.1l-13.052,7.419v-10.1Z" transform="translate(-401.486 -294.775)" fill="#202b33"/>
        <path id="Trazado_91577" data-name="Trazado 91577" d="M405.764,300.805v10.1l8.249,4.74v-10.1Z" transform="translate(-405.764 -293.386)" fill="#e8e8e8"/>
      </g>
      <g id="Grupo_38991" data-name="Grupo 38991" transform="translate(129.913 93.768)">
        <path id="Trazado_91578" data-name="Trazado 91578" d="M405.121,314.751l-8.249-4.741,13.052-7.419,8.249,4.741Z" transform="translate(-396.872 -302.591)" fill="url(#linear-gradient-17)"/>
        <path id="Trazado_91579" data-name="Trazado 91579" d="M413.895,304.873v10.1l-13.052,7.419v-10.1Z" transform="translate(-392.593 -300.133)" fill="#202b33"/>
        <path id="Trazado_91580" data-name="Trazado 91580" d="M396.872,306.163v10.1L405.121,321V310.9Z" transform="translate(-396.872 -298.744)" fill="#e8e8e8"/>
      </g>
      <g id="Grupo_38992" data-name="Grupo 38992" transform="translate(121.996 66.409)">
        <path id="Trazado_91581" data-name="Trazado 91581" d="M475.229,309.858l-81.748,47.408V336.517l81.748-46.808Z" transform="translate(-392.607 -289.11)" fill="url(#linear-gradient-17)"/>
        <path id="Trazado_91582" data-name="Trazado 91582" d="M474.808,289.421l.874.6-81.748,46.808-.874-.6Z" transform="translate(-393.06 -289.421)" fill="#fff"/>
        <path id="Trazado_91583" data-name="Trazado 91583" d="M393.934,333.3l-.874-.6V311.954l.874.6Z" transform="translate(-393.06 -265.146)" fill="gray"/>
      </g>
      <g id="Grupo_38996" data-name="Grupo 38996" transform="translate(174.966 77.284)">
        <g id="Grupo_38995" data-name="Grupo 38995">
          <path id="Trazado_91584" data-name="Trazado 91584" d="M419.6,298.118l-1.044,1.471v13.3l12.674-7.386,1.865-1.648Z" transform="translate(-418.56 -290.927)" fill="#b3b3b3" style="mix-blend-mode: multiply;isolation: isolate"/>
          <g id="Grupo_38994" data-name="Grupo 38994" transform="translate(1.044)">
            <path id="Trazado_91585" data-name="Trazado 91585" d="M419.063,301.854l.884.543,12.611-7.282-.708-.459Z" transform="translate(-419.063 -294.656)" fill="#96afcc"/>
            <path id="Trazado_91586" data-name="Trazado 91586" d="M432.1,294.877v12.478l-12.611,7.282V302.159Z" transform="translate(-418.604 -294.418)" fill="#718399"/>
            <path id="Trazado_91587" data-name="Trazado 91587" d="M429.943,296.062v9.2l-9.771,5.635v-9.171l.408-.24.6-.348.683-.4Z" transform="translate(-417.867 -293.141)" fill="#161c24"/>
            <g id="Grupo_38993" data-name="Grupo 38993" transform="translate(2.305 7.597)">
              <path id="Trazado_91588" data-name="Trazado 91588" d="M421.048,301.962l-.7.408-.18-.108v-.815Z" transform="translate(-420.173 -294.937)" fill="#96afcc"/>
              <path id="Trazado_91589" data-name="Trazado 91589" d="M422.342,302l-.7.408-1.475-.863v-.815Z" transform="translate(-420.173 -295.714)" fill="#96afcc"/>
              <path id="Trazado_91590" data-name="Trazado 91590" d="M423.637,302.042l-.7.4-2.769-1.631V300Z" transform="translate(-420.173 -296.491)" fill="#96afcc"/>
              <path id="Trazado_91591" data-name="Trazado 91591" d="M424.932,302.076l-.683.4-4.076-2.386v-.8Z" transform="translate(-420.173 -297.268)" fill="#96afcc"/>
              <path id="Trazado_91592" data-name="Trazado 91592" d="M426.239,301.992l-.7.4-5.371-3.141v-.336l.408-.24Z" transform="translate(-420.173 -297.927)" fill="#96afcc"/>
              <path id="Trazado_91593" data-name="Trazado 91593" d="M427.012,301.634l-.7.4-5.659-3.321.683-.4Z" transform="translate(-419.65 -298.313)" fill="#96afcc"/>
            </g>
            <path id="Trazado_91594" data-name="Trazado 91594" d="M427.621,297.4v6.7l-7.445,4.3v2.477l9.756-5.634v-9.179Z" transform="translate(-417.864 -293.135)" fill="#3f5166"/>
            <path id="Trazado_91595" data-name="Trazado 91595" d="M419.063,298.121V310.6l.884.543V298.664Z" transform="translate(-419.063 -290.923)" fill="#3f5166"/>
          </g>
        </g>
        <path id="Trazado_91596" data-name="Trazado 91596" d="M427.621,299.937l2.312,1.142-9.756,5.634v-2.477Z" transform="translate(-416.82 -288.967)" fill="#96afcc"/>
      </g>
      <g id="Grupo_39000" data-name="Grupo 39000" transform="translate(156.32 88.266)">
        <g id="Grupo_38999" data-name="Grupo 38999">
          <path id="Trazado_91597" data-name="Trazado 91597" d="M410.628,303.4l-1.044,1.471v13.3l12.674-7.386,1.865-1.648Z" transform="translate(-409.584 -296.213)" fill="#b3b3b3" style="mix-blend-mode: multiply;isolation: isolate"/>
          <g id="Grupo_38998" data-name="Grupo 38998" transform="translate(1.044)">
            <path id="Trazado_91598" data-name="Trazado 91598" d="M410.087,307.141l.884.543,12.611-7.282-.707-.459Z" transform="translate(-410.087 -299.943)" fill="#96afcc"/>
            <path id="Trazado_91599" data-name="Trazado 91599" d="M423.123,300.164v12.478l-12.611,7.282V307.446Z" transform="translate(-409.628 -299.705)" fill="#718399"/>
            <path id="Trazado_91600" data-name="Trazado 91600" d="M420.967,301.349v9.2l-9.771,5.635v-9.171l.408-.24.6-.348.683-.4Z" transform="translate(-408.891 -298.428)" fill="#161c24"/>
            <g id="Grupo_38997" data-name="Grupo 38997" transform="translate(2.305 7.597)">
              <path id="Trazado_91601" data-name="Trazado 91601" d="M412.072,307.249l-.7.408-.18-.108v-.815Z" transform="translate(-411.196 -300.224)" fill="#96afcc"/>
              <path id="Trazado_91602" data-name="Trazado 91602" d="M413.366,307.283l-.7.408-1.475-.863v-.815Z" transform="translate(-411.196 -301.001)" fill="#96afcc"/>
              <path id="Trazado_91603" data-name="Trazado 91603" d="M414.661,307.329l-.7.4-2.769-1.631v-.8Z" transform="translate(-411.196 -301.778)" fill="#96afcc"/>
              <path id="Trazado_91604" data-name="Trazado 91604" d="M415.956,307.363l-.683.4-4.076-2.386v-.8Z" transform="translate(-411.196 -302.555)" fill="#96afcc"/>
              <path id="Trazado_91605" data-name="Trazado 91605" d="M417.263,307.279l-.7.4-5.371-3.141V304.2l.408-.24Z" transform="translate(-411.196 -303.214)" fill="#96afcc"/>
              <path id="Trazado_91606" data-name="Trazado 91606" d="M418.035,306.921l-.7.4L411.681,304l.683-.4Z" transform="translate(-410.674 -303.6)" fill="#96afcc"/>
            </g>
            <path id="Trazado_91607" data-name="Trazado 91607" d="M418.644,302.689v6.7l-7.445,4.3v2.477l9.757-5.634v-9.179Z" transform="translate(-408.888 -298.422)" fill="#3f5166"/>
            <path id="Trazado_91608" data-name="Trazado 91608" d="M410.087,303.408v12.478l.884.543V303.951Z" transform="translate(-410.087 -296.209)" fill="#3f5166"/>
          </g>
        </g>
        <path id="Trazado_91609" data-name="Trazado 91609" d="M418.645,305.229l2.311,1.143-9.756,5.634v-2.477Z" transform="translate(-407.843 -294.247)" fill="#96afcc"/>
      </g>
      <g id="Grupo_39004" data-name="Grupo 39004" transform="translate(137.674 99.248)">
        <g id="Grupo_39003" data-name="Grupo 39003">
          <path id="Trazado_91610" data-name="Trazado 91610" d="M401.652,308.691l-1.044,1.471v13.3l12.674-7.386,1.865-1.648Z" transform="translate(-400.608 -301.5)" fill="#b3b3b3" style="mix-blend-mode: multiply;isolation: isolate"/>
          <g id="Grupo_39002" data-name="Grupo 39002" transform="translate(1.044)">
            <path id="Trazado_91611" data-name="Trazado 91611" d="M401.11,312.428l.885.543,12.611-7.282-.708-.459Z" transform="translate(-401.11 -305.229)" fill="#96afcc"/>
            <path id="Trazado_91612" data-name="Trazado 91612" d="M414.147,305.45v12.478l-12.611,7.282V312.733Z" transform="translate(-400.652 -304.991)" fill="#718399"/>
            <path id="Trazado_91613" data-name="Trazado 91613" d="M411.991,306.636v9.2l-9.771,5.635v-9.171l.408-.24.6-.348.683-.4Z" transform="translate(-399.915 -303.715)" fill="#161c24"/>
            <g id="Grupo_39001" data-name="Grupo 39001" transform="translate(2.305 7.597)">
              <path id="Trazado_91614" data-name="Trazado 91614" d="M403.1,312.536l-.7.408-.18-.108v-.815Z" transform="translate(-402.22 -305.511)" fill="#96afcc"/>
              <path id="Trazado_91615" data-name="Trazado 91615" d="M404.39,312.57l-.7.408-1.475-.863V311.3Z" transform="translate(-402.22 -306.288)" fill="#96afcc"/>
              <path id="Trazado_91616" data-name="Trazado 91616" d="M405.685,312.616l-.7.4-2.769-1.63v-.8Z" transform="translate(-402.22 -307.065)" fill="#96afcc"/>
              <path id="Trazado_91617" data-name="Trazado 91617" d="M406.98,312.65l-.683.4-4.076-2.386v-.8Z" transform="translate(-402.22 -307.842)" fill="#96afcc"/>
              <path id="Trazado_91618" data-name="Trazado 91618" d="M408.287,312.565l-.7.4-5.371-3.141v-.336l.408-.24Z" transform="translate(-402.22 -308.501)" fill="#96afcc"/>
              <path id="Trazado_91619" data-name="Trazado 91619" d="M409.059,312.208l-.7.4-5.658-3.321.683-.4Z" transform="translate(-401.698 -308.887)" fill="#96afcc"/>
            </g>
            <path id="Trazado_91620" data-name="Trazado 91620" d="M409.668,307.976v6.7l-7.445,4.3v2.477l9.757-5.634v-9.179Z" transform="translate(-399.912 -303.708)" fill="#3f5166"/>
            <path id="Trazado_91621" data-name="Trazado 91621" d="M401.11,308.695v12.478l.885.542V309.238Z" transform="translate(-401.11 -301.496)" fill="#3f5166"/>
          </g>
        </g>
        <path id="Trazado_91622" data-name="Trazado 91622" d="M409.672,310.507l2.311,1.142-9.756,5.634v-2.477Z" transform="translate(-398.864 -299.544)" fill="#96afcc"/>
      </g>
      <path id="Trazado_91623" data-name="Trazado 91623" d="M392.5,306.722l7.061-4.078c.771-.445.673-1.221-.216-1.737h0a3.352,3.352,0,0,0-3.01-.125l-7.061,4.076c-.771.447-.673,1.223.216,1.739h0A3.352,3.352,0,0,0,392.5,306.722Z" transform="translate(-275.708 -211.094)" fill="#fff"/>
      <path id="Trazado_91624" data-name="Trazado 91624" d="M394.611,307.952l7.061-4.076c.771-.445.673-1.224-.216-1.737h0a3.339,3.339,0,0,0-3.01-.125l-7.059,4.076c-.773.445-.675,1.224.216,1.737h0A3.335,3.335,0,0,0,394.611,307.952Z" transform="translate(-273.428 -209.768)" fill="#fff"/>
      <path id="Trazado_91625" data-name="Trazado 91625" d="M396.727,309.183l7.061-4.076c.771-.447.675-1.224-.216-1.739h0a3.352,3.352,0,0,0-3.01-.125l-7.059,4.078c-.773.445-.675,1.221.216,1.737h0A3.348,3.348,0,0,0,396.727,309.183Z" transform="translate(-271.149 -208.442)" fill="#fff"/>
      <path id="Trazado_91626" data-name="Trazado 91626" d="M358.613,288.034a.468.468,0,0,1-.054.222,1.079,1.079,0,0,1-.638.5,2.444,2.444,0,0,1-.841.143,2.684,2.684,0,0,1-.476-.044,2.1,2.1,0,0,1-.366-.1,1.109,1.109,0,0,1-.64-.5.511.511,0,0,1-.052-.22c0-.384.443-.71,1.057-.825a2.491,2.491,0,0,1,.474-.044C357.925,287.17,358.613,287.556,358.613,288.034Z" transform="translate(-311.476 -225.436)" fill="#ebebeb"/>
      <path id="Trazado_91627" data-name="Trazado 91627" d="M360.33,287.2a.468.468,0,0,1-.054.222,1.076,1.076,0,0,1-.638.5,2.444,2.444,0,0,1-.841.143,2.5,2.5,0,0,1-.476-.044,1.918,1.918,0,0,1-.366-.1,1.107,1.107,0,0,1-.64-.5.512.512,0,0,1-.052-.22c0-.386.442-.71,1.057-.827a2.672,2.672,0,0,1,.474-.044C359.642,286.335,360.33,286.723,360.33,287.2Z" transform="translate(-309.626 -226.335)" fill="#ebebeb"/>
      <path id="Trazado_91628" data-name="Trazado 91628" d="M362,286.19a.494.494,0,0,1-.054.222,1.092,1.092,0,0,1-.638.5,2.462,2.462,0,0,1-.841.141,2.694,2.694,0,0,1-.478-.042,2.022,2.022,0,0,1-.364-.1,1.1,1.1,0,0,1-.64-.5.486.486,0,0,1-.054-.22c0-.384.443-.71,1.057-.827a2.687,2.687,0,0,1,.476-.042C361.31,285.326,362,285.712,362,286.19Z" transform="translate(-307.832 -227.422)" fill="#ebebeb"/>
      <path id="Trazado_91629" data-name="Trazado 91629" d="M415.995,291.312a.492.492,0,0,0,.052.222,1.082,1.082,0,0,0,.638.5,2.413,2.413,0,0,0,.841.143,2.688,2.688,0,0,0,.478-.042,2.012,2.012,0,0,0,.363-.1,1.086,1.086,0,0,0,.64-.5.485.485,0,0,0,.054-.22c0-.384-.443-.71-1.057-.827a2.688,2.688,0,0,0-.476-.042C416.68,290.448,415.995,290.834,415.995,291.312Z" transform="translate(-246.358 -221.905)" fill="#ebebeb"/>
      <path id="Trazado_91630" data-name="Trazado 91630" d="M414.278,290.479a.491.491,0,0,0,.052.222,1.089,1.089,0,0,0,.638.5,2.461,2.461,0,0,0,.841.143,2.5,2.5,0,0,0,.478-.044,2.017,2.017,0,0,0,.364-.1,1.093,1.093,0,0,0,.64-.5.486.486,0,0,0,.054-.22c0-.386-.443-.71-1.057-.827a2.5,2.5,0,0,0-.476-.044C414.963,289.613,414.278,290,414.278,290.479Z" transform="translate(-248.207 -222.804)" fill="#ebebeb"/>
      <path id="Trazado_91631" data-name="Trazado 91631" d="M412.611,289.468a.468.468,0,0,0,.054.222,1.076,1.076,0,0,0,.638.5,2.4,2.4,0,0,0,.841.143,2.712,2.712,0,0,0,.478-.042,2.055,2.055,0,0,0,.364-.1,1.092,1.092,0,0,0,.64-.5.514.514,0,0,0,.054-.22c0-.384-.445-.71-1.057-.827a2.7,2.7,0,0,0-.476-.042C413.3,288.6,412.611,288.99,412.611,289.468Z" transform="translate(-250.003 -223.891)" fill="#ebebeb"/>
    </g>
  </g>
</svg>
