<svg xmlns="http://www.w3.org/2000/svg" xmlns:xlink="http://www.w3.org/1999/xlink" width="258.432" height="166.744" viewBox="0 0 258.432 166.744">
  <defs>
    <linearGradient id="linear-gradient" x1="76.971" y1="0.5" x2="77.971" y2="0.5" gradientUnits="objectBoundingBox">
      <stop offset="0" stop-color="#c0bff6"/>
      <stop offset="0.294" stop-color="#c4c3f6"/>
      <stop offset="0.64" stop-color="#d2d2f9"/>
      <stop offset="1" stop-color="#e9e9fd"/>
    </linearGradient>
    <linearGradient id="linear-gradient-2" x1="-8.296" y1="0.5" x2="-7.296" y2="0.5" xlink:href="#linear-gradient"/>
    <clipPath id="clip-path">
      <path id="SVGID" d="M485.589,207.407l-57.07,32.95,7.077,41.722,57.032-32.927Z" transform="translate(-428.519 -207.407)" fill="none"/>
    </clipPath>
    <linearGradient id="linear-gradient-3" x1="16.415" y1="0.5" x2="17.415" y2="0.5" xlink:href="#linear-gradient"/>
    <linearGradient id="linear-gradient-4" x1="62.814" y1="0.5" x2="63.814" y2="0.5" xlink:href="#linear-gradient"/>
    <linearGradient id="linear-gradient-5" x1="-3.875" y1="0.5" x2="-2.875" y2="0.5" xlink:href="#linear-gradient"/>
    <linearGradient id="linear-gradient-6" x1="-1.925" y1="0.5" x2="-0.925" y2="0.5" gradientUnits="objectBoundingBox">
      <stop offset="0" stop-color="#fff"/>
      <stop offset="1" stop-color="#d2e6ee"/>
    </linearGradient>
    <linearGradient id="linear-gradient-7" x1="-7.791" y1="0.5" x2="-6.791" y2="0.5" xlink:href="#linear-gradient"/>
    <clipPath id="clip-path-2">
      <path id="SVGID-2" data-name="SVGID" d="M296.2,207.407l57.07,32.95-7.077,41.722-57.032-32.927Z" transform="translate(-289.158 -207.407)" fill="none"/>
    </clipPath>
    <linearGradient id="linear-gradient-8" x1="-2.689" y1="0.5" x2="-1.689" y2="0.5" xlink:href="#linear-gradient"/>
    <linearGradient id="linear-gradient-9" x1="-12.614" y1="0.5" x2="-11.614" y2="0.5" xlink:href="#linear-gradient"/>
  </defs>
  <g id="Grupo_39011" data-name="Grupo 39011" transform="translate(-207.443 -109.921)">
    <g id="Grupo_34864" data-name="Grupo 34864" transform="translate(207.443 127.459)">
      <g id="Grupo_34861" data-name="Grupo 34861" transform="translate(0 0)" opacity="0.67">
        <path id="Trazado_85815" data-name="Trazado 85815" d="M345.5,301.747l-129.218-74.6,129.214-74.6,129.218,74.6Z" transform="translate(-216.283 -152.541)" fill="#00223d"/>
      </g>
      <g id="Grupo_34862" data-name="Grupo 34862" transform="translate(20.04 11.57)" opacity="0.67">
        <path id="Trazado_85816" data-name="Trazado 85816" d="M354.846,295.572,245.668,232.539l109.175-63.032L464.021,232.54Z" transform="translate(-245.668 -169.506)" fill="#d2e1f1"/>
      </g>
      <g id="Grupo_34863" data-name="Grupo 34863" transform="translate(43.324 25.013)" opacity="0.9">
        <path id="Trazado_85817" data-name="Trazado 85817" d="M365.7,288.4l-85.893-49.59L365.7,189.219,451.6,238.81Z" transform="translate(-279.812 -189.219)" fill="#00223d"/>
      </g>
    </g>
    <g id="Grupo_34951" data-name="Grupo 34951" transform="translate(218.53 109.921)">
      <g id="Grupo_34950" data-name="Grupo 34950" transform="translate(0)">
        <g id="Grupo_34875" data-name="Grupo 34875" transform="translate(0)">
          <g id="Grupo_34865" data-name="Grupo 34865" transform="translate(2.506 34.416)" style="mix-blend-mode: lighten;isolation: isolate">
            <path id="Trazado_85818" data-name="Trazado 85818" d="M269.848,229.724a5.253,5.253,0,0,1-2.626-.7L236.976,211.56a1.521,1.521,0,0,1,0-2.633l54.727-31.6a.3.3,0,0,1,.3,0l.255.147,32.467,18.745a1.521,1.521,0,0,1,0,2.632l-52.252,30.167A5.26,5.26,0,0,1,269.848,229.724Zm22.006-51.779-54.575,31.508a.913.913,0,0,0,0,1.581L267.526,228.5a4.741,4.741,0,0,0,4.646,0l52.252-30.167a.913.913,0,0,0,0-1.581Z" transform="translate(-236.216 -177.29)" fill="#42e8e0"/>
          </g>
          <g id="Grupo_34873" data-name="Grupo 34873" transform="translate(0 24.105)">
            <g id="Grupo_34872" data-name="Grupo 34872">
              <g id="Grupo_34871" data-name="Grupo 34871">
                <g id="Grupo_34870" data-name="Grupo 34870">
                  <g id="Grupo_34869" data-name="Grupo 34869">
                    <path id="Trazado_85819" data-name="Trazado 85819" d="M327.489,184.717l-3.175,1.658-31.836-18.38a2.311,2.311,0,0,0-2.078.086l-54.909,31.7c-.526-.294-2.922-1.446-2.922-1.446l1.163,3.028,0,0a.692.692,0,0,0,.325.361l33.53,19.359a2.309,2.309,0,0,0,2.078-.087l56.189-32.44a1.007,1.007,0,0,0,.471-.5l0,0Z" transform="translate(-232.55 -163.956)" fill="#00223d"/>
                    <path id="Trazado_85820" data-name="Trazado 85820" d="M326.989,183.453,269.4,216.7a2.367,2.367,0,0,1-2.13.089l-34.364-19.84c-.546-.315-.477-.865.153-1.23l57.586-33.248a2.368,2.368,0,0,1,2.129-.088l34.364,19.84C327.688,182.538,327.619,183.089,326.989,183.453Z" transform="translate(-232.541 -162.17)" fill="#d2e6ee"/>
                    <path id="Trazado_85821" data-name="Trazado 85821" d="M326.992,192.645l-57.586,33.247a2.367,2.367,0,0,1-2.13.089l-34.364-19.84a.708.708,0,0,1-.334-.371.58.58,0,0,0,.334.7l34.364,19.84a2.367,2.367,0,0,0,2.13-.089l57.586-33.247c.424-.245.587-.574.487-.859A1.018,1.018,0,0,1,326.992,192.645Z" transform="translate(-232.544 -171.695)" fill="#fff"/>
                    <path id="Trazado_85822" data-name="Trazado 85822" d="M261.124,231.256v-.632c0-.06.036-.087.081-.061l2.227,1.286a.2.2,0,0,1,.082.155v.632c0,.059-.037.087-.082.061l-2.227-1.286A.194.194,0,0,1,261.124,231.256Z" transform="translate(-241.631 -183.919)" fill="#2842a2"/>
                    <path id="Trazado_85823" data-name="Trazado 85823" d="M266.008,234.076v-.632c0-.06.037-.087.081-.061l2.228,1.286a.2.2,0,0,1,.081.155v.632c0,.06-.037.088-.081.062l-2.228-1.286A.2.2,0,0,1,266.008,234.076Z" transform="translate(-243.185 -184.816)" fill="#2842a2"/>
                    <g id="Grupo_34867" data-name="Grupo 34867" transform="translate(19.559 11.521)">
                      <path id="Trazado_85824" data-name="Trazado 85824" d="M261.405,206.832,309.259,179.2a1.03,1.03,0,0,1,1.031,0l17.041,9.859a.368.368,0,0,1,0,.636L279.5,217.315a1.034,1.034,0,0,1-1.03,0l-17.063-9.847A.367.367,0,0,1,261.405,206.832Z" transform="translate(-261.221 -179.065)" fill="#d2e1f1"/>
                      <path id="Trazado_85825" data-name="Trazado 85825" d="M261.405,207.468l.171.1,47.683-27.529a1.03,1.03,0,0,1,1.031,0l16.869,9.76.171-.1a.368.368,0,0,0,0-.636L310.29,179.2a1.03,1.03,0,0,0-1.031,0l-47.854,27.629A.367.367,0,0,0,261.405,207.468Z" transform="translate(-261.221 -179.065)" fill="#727997"/>
                      <g id="Grupo_34866" data-name="Grupo 34866" transform="translate(2.579 1.569)">
                        <path id="Trazado_85826" data-name="Trazado 85826" d="M313.483,182.432,269.4,207.881l-2.185-.872,44.417-25.644Z" transform="translate(-265.707 -181.365)" fill="#00223d"/>
                        <path id="Trazado_85827" data-name="Trazado 85827" d="M322.659,186.268l-38.989,22.51-1.848-1.067L320.811,185.2Z" transform="translate(-270.352 -182.585)" fill="#24126a"/>
                        <path id="Trazado_85828" data-name="Trazado 85828" d="M323.761,188.767l-45.906,26.5-1.848-1.067,45.906-26.5Z" transform="translate(-268.502 -183.379)" fill="#00223d"/>
                        <path id="Trazado_85829" data-name="Trazado 85829" d="M328.089,191.265l-45.906,26.5-1.848-1.067,45.906-26.5Z" transform="translate(-269.879 -184.174)" fill="#00223d"/>
                        <path id="Trazado_85830" data-name="Trazado 85830" d="M332.416,193.764l-45.906,26.5-1.848-1.067,45.906-26.5Z" transform="translate(-271.255 -184.969)" fill="#24126a"/>
                        <path id="Trazado_85831" data-name="Trazado 85831" d="M268.7,219.75l-1.848,1.067L265,219.75l1.848-1.067Z" transform="translate(-265.002 -193.233)" fill="#00223d"/>
                        <path id="Trazado_85832" data-name="Trazado 85832" d="M282.676,217.36l-9.181,5.3-1.848-1.067,9.247-5.339Z" transform="translate(-267.116 -192.461)" fill="#00223d"/>
                      </g>
                    </g>
                    <g id="Grupo_34868" data-name="Grupo 34868" transform="translate(25.751 13.09)">
                      <path id="Trazado_85833" data-name="Trazado 85833" d="M281.33,195.181l12.9-7.45a.556.556,0,0,0,0-1.054l-8.823-5.094a2.018,2.018,0,0,0-1.826,0l-12.9,7.45a.557.557,0,0,0,0,1.054l8.824,5.094A2.018,2.018,0,0,0,281.33,195.181Z" transform="translate(-270.302 -181.365)" fill="url(#linear-gradient)"/>
                      <path id="Trazado_85834" data-name="Trazado 85834" d="M270.682,189.464l12.9-7.449a2.018,2.018,0,0,1,1.826,0l8.823,5.094a.785.785,0,0,1,.317.311c.134-.254.032-.541-.317-.743l-8.823-5.094a2.018,2.018,0,0,0-1.826,0l-12.9,7.45c-.349.2-.45.488-.317.743A.8.8,0,0,1,270.682,189.464Z" transform="translate(-270.304 -181.365)" fill="#727997"/>
                    </g>
                  </g>
                </g>
              </g>
            </g>
          </g>
          <g id="Grupo_34874" data-name="Grupo 34874" transform="translate(27.652)">
            <path id="Trazado_85835" data-name="Trazado 85835" d="M340.284,170.835,333,127.647l.585-.247-.879-.5v.005a.632.632,0,0,0-.678.046l-58.178,33.589a1.643,1.643,0,0,0-.755,1.478l7.337,43.532a.545.545,0,0,0,.306.443h0l.861.5.148-.8-.049.014,57.826-33.385A1.643,1.643,0,0,0,340.284,170.835Z" transform="translate(-273.089 -126.824)" fill="#00223d"/>
            <path id="Trazado_85836" data-name="Trazado 85836" d="M274.181,177.794l-.957-.423a1.319,1.319,0,0,0-.123.72l7.337,43.532a.545.545,0,0,0,.306.443h0l.861.5.148-.8-.049.014,2.926-1.689Z" transform="translate(-273.089 -142.9)" fill="#00223d"/>
            <path id="Trazado_85837" data-name="Trazado 85837" d="M340.867,173.08,282.69,206.669c-.449.259-.834.109-.913-.356l-7.337-43.532a1.641,1.641,0,0,1,.756-1.477l58.177-33.589c.449-.259.834-.11.913.355l7.337,43.532A1.643,1.643,0,0,1,340.867,173.08Z" transform="translate(-273.515 -127.067)" fill="#37a3a5"/>
          </g>
        </g>
        <g id="Grupo_34886" data-name="Grupo 34886" transform="translate(140.597)">
          <g id="Grupo_34876" data-name="Grupo 34876" transform="translate(3.995 34.416)" style="mix-blend-mode: lighten;isolation: isolate">
            <path id="Trazado_85838" data-name="Trazado 85838" d="M500.2,229.724a5.255,5.255,0,0,1-2.626-.7l-52.252-30.167a1.52,1.52,0,0,1,0-2.632l32.721-18.892a.3.3,0,0,1,.3,0l54.726,31.6a1.521,1.521,0,0,1,0,2.633L502.83,229.022A5.256,5.256,0,0,1,500.2,229.724Zm-22-51.779-.1.059-32.467,18.745a.913.913,0,0,0,0,1.581L497.88,228.5h0a4.741,4.741,0,0,0,4.646,0l30.246-17.462a.913.913,0,0,0,0-1.581Z" transform="translate(-444.565 -177.29)" fill="#42e8e0"/>
          </g>
          <g id="Grupo_34884" data-name="Grupo 34884" transform="translate(0.802 24.105)">
            <g id="Grupo_34883" data-name="Grupo 34883">
              <g id="Grupo_34882" data-name="Grupo 34882">
                <g id="Grupo_34881" data-name="Grupo 34881">
                  <g id="Grupo_34880" data-name="Grupo 34880">
                    <path id="Trazado_85839" data-name="Trazado 85839" d="M439.928,184.717l3.174,1.658,31.837-18.38a2.311,2.311,0,0,1,2.078.086l54.909,31.7c.525-.294,2.921-1.446,2.921-1.446l-1.162,3.028,0,0a.69.69,0,0,1-.325.361l-33.53,19.359a2.31,2.31,0,0,1-2.079-.087l-56.189-32.44a1.007,1.007,0,0,1-.471-.5l0,0Z" transform="translate(-439.897 -163.956)" fill="#00223d"/>
                    <path id="Trazado_85840" data-name="Trazado 85840" d="M440.4,183.453,497.99,216.7a2.367,2.367,0,0,0,2.13.089l34.364-19.84c.546-.315.477-.865-.153-1.23l-57.586-33.248a2.369,2.369,0,0,0-2.13-.088l-34.364,19.84C439.706,182.538,439.774,183.089,440.4,183.453Z" transform="translate(-439.883 -162.17)" fill="#d2e6ee"/>
                    <path id="Trazado_85841" data-name="Trazado 85841" d="M440.408,192.645l57.586,33.247a2.367,2.367,0,0,0,2.13.089l34.364-19.84a.709.709,0,0,0,.334-.371.581.581,0,0,1-.334.7l-34.364,19.84a2.367,2.367,0,0,1-2.13-.089l-57.586-33.247c-.424-.245-.587-.574-.487-.859A1.015,1.015,0,0,0,440.408,192.645Z" transform="translate(-439.886 -171.695)" fill="#fff"/>
                    <path id="Trazado_85842" data-name="Trazado 85842" d="M549.445,231.256v-.632c0-.06-.036-.087-.081-.061l-2.227,1.286a.194.194,0,0,0-.081.155v.632c0,.059.036.087.081.061l2.227-1.286A.194.194,0,0,0,549.445,231.256Z" transform="translate(-473.968 -183.919)" fill="#21587b"/>
                    <path id="Trazado_85843" data-name="Trazado 85843" d="M544.561,234.076v-.632c0-.06-.036-.087-.081-.061l-2.227,1.286a.194.194,0,0,0-.081.155v.632c0,.06.036.088.081.062l2.227-1.286A.194.194,0,0,0,544.561,234.076Z" transform="translate(-472.414 -184.816)" fill="#21587b"/>
                    <g id="Grupo_34878" data-name="Grupo 34878" transform="translate(9.118 11.521)">
                      <path id="Trazado_85844" data-name="Trazado 85844" d="M519.362,206.832,471.508,179.2a1.028,1.028,0,0,0-1.031,0l-17.041,9.859a.367.367,0,0,0,0,.636l47.832,27.616a1.032,1.032,0,0,0,1.03,0l17.064-9.847A.367.367,0,0,0,519.362,206.832Z" transform="translate(-453.253 -179.065)" fill="#d2e1f1"/>
                      <path id="Trazado_85845" data-name="Trazado 85845" d="M519.362,207.468l-.172.1-47.683-27.529a1.029,1.029,0,0,0-1.031,0l-16.87,9.76-.171-.1a.367.367,0,0,1,0-.636l17.041-9.859a1.028,1.028,0,0,1,1.031,0l47.855,27.629A.367.367,0,0,1,519.362,207.468Z" transform="translate(-453.253 -179.065)" fill="#727997"/>
                      <g id="Grupo_34877" data-name="Grupo 34877" transform="translate(2.553 1.569)">
                        <path id="Trazado_85846" data-name="Trazado 85846" d="M476.624,182.432l44.08,25.449,2.185-.872-44.417-25.644Z" transform="translate(-463.239 -181.365)" fill="#00223d"/>
                        <path id="Trazado_85847" data-name="Trazado 85847" d="M469.979,186.268l38.989,22.51,1.848-1.067L471.828,185.2Z" transform="translate(-461.126 -182.585)" fill="#24126a"/>
                        <path id="Trazado_85848" data-name="Trazado 85848" d="M465.652,188.767l45.906,26.5,1.848-1.067L467.5,187.7Z" transform="translate(-459.749 -183.379)" fill="#00223d"/>
                        <path id="Trazado_85849" data-name="Trazado 85849" d="M461.324,191.265l45.906,26.5,1.848-1.067-45.906-26.5Z" transform="translate(-458.373 -184.174)" fill="#00223d"/>
                        <path id="Trazado_85850" data-name="Trazado 85850" d="M457,193.764l45.906,26.5,1.848-1.067-45.906-26.5Z" transform="translate(-456.997 -184.969)" fill="#24126a"/>
                        <path id="Trazado_85851" data-name="Trazado 85851" d="M541.261,219.75l1.848,1.067,1.848-1.067-1.848-1.067Z" transform="translate(-483.796 -193.233)" fill="#00223d"/>
                        <path id="Trazado_85852" data-name="Trazado 85852" d="M523.864,217.36l9.181,5.3,1.848-1.067-9.247-5.339Z" transform="translate(-478.263 -192.461)" fill="#00223d"/>
                      </g>
                    </g>
                    <g id="Grupo_34879" data-name="Grupo 34879" transform="translate(44.909 13.09)">
                      <path id="Trazado_85853" data-name="Trazado 85853" d="M519.017,195.181l-12.9-7.45a.556.556,0,0,1,0-1.054l8.823-5.094a2.018,2.018,0,0,1,1.826,0l12.9,7.45a.556.556,0,0,1,0,1.054l-8.823,5.094A2.018,2.018,0,0,1,519.017,195.181Z" transform="translate(-505.735 -181.365)" fill="url(#linear-gradient-2)"/>
                      <path id="Trazado_85854" data-name="Trazado 85854" d="M529.669,189.464l-12.9-7.449a2.019,2.019,0,0,0-1.827,0l-8.823,5.094a.793.793,0,0,0-.317.311c-.133-.254-.031-.541.317-.743l8.823-5.094a2.019,2.019,0,0,1,1.827,0l12.9,7.45c.348.2.451.488.317.743A.8.8,0,0,0,529.669,189.464Z" transform="translate(-505.738 -181.365)" fill="#727997"/>
                    </g>
                  </g>
                </g>
              </g>
            </g>
          </g>
          <g id="Grupo_34885" data-name="Grupo 34885">
            <path id="Trazado_85855" data-name="Trazado 85855" d="M440.056,170.835l7.279-43.188-.585-.247.88-.5v.005a.632.632,0,0,1,.678.046l58.177,33.589a1.642,1.642,0,0,1,.756,1.478L499.9,205.547a.546.546,0,0,1-.307.443h0l-.861.5-.147-.8.049.014-57.826-33.385A1.642,1.642,0,0,1,440.056,170.835Z" transform="translate(-439.132 -126.824)" fill="#00223d"/>
            <path id="Trazado_85856" data-name="Trazado 85856" d="M532.121,177.794l.956-.423a1.312,1.312,0,0,1,.123.72l-7.337,43.532a.545.545,0,0,1-.307.443h0l-.861.5-.147-.8.049.014-2.926-1.689Z" transform="translate(-465.093 -142.9)" fill="#00223d"/>
            <path id="Trazado_85857" data-name="Trazado 85857" d="M439.473,173.08l58.178,33.589c.449.259.834.109.912-.356l7.337-43.532a1.64,1.64,0,0,0-.755-1.477l-58.178-33.589c-.449-.259-.833-.11-.912.355L438.718,171.6A1.644,1.644,0,0,0,439.473,173.08Z" transform="translate(-438.706 -127.067)" fill="#37a3a5"/>
          </g>
        </g>
        <g id="Grupo_34898" data-name="Grupo 34898" transform="translate(64.014 34.716)">
          <path id="Trazado_85858" data-name="Trazado 85858" d="M380.58,240.279,326.409,209l54.169-31.275L434.749,209Z" transform="translate(-326.409 -177.729)" fill="#b0c0d2"/>
          <path id="Trazado_85859" data-name="Trazado 85859" d="M387.478,235.722,348.1,212.987l39.378-22.735,39.379,22.736Z" transform="translate(-333.307 -181.712)" fill="#00223d"/>
          <path id="Trazado_85860" data-name="Trazado 85860" d="M387.477,191.791l38.046,21.966,1.333-.77-39.379-22.736L348.1,212.987l1.333.77Z" transform="translate(-333.307 -181.712)" fill="#fff"/>
          <path id="Trazado_85861" data-name="Trazado 85861" d="M460.012,223.59v17.728l-54.169,31.275V254.865Z" transform="translate(-351.672 -192.315)" fill="#d2e1f1"/>
          <path id="Trazado_85862" data-name="Trazado 85862" d="M326.409,223.589v17.728l54.171,31.276V254.865Z" transform="translate(-326.409 -192.314)" fill="#00223d"/>
          <g id="Grupo_34887" data-name="Grupo 34887" transform="translate(3.67 39.24)" opacity="0.51">
            <path id="Trazado_85863" data-name="Trazado 85863" d="M331.79,235.269v5.583l46.832,27.038v-5.583Z" transform="translate(-331.79 -235.269)" fill="#7c90a0"/>
          </g>
          <path id="Trazado_85864" data-name="Trazado 85864" d="M380.58,253.611l-53.291-30.767-.88.508,54.171,31.276,54.169-31.275-.88-.508Z" transform="translate(-326.409 -192.077)" fill="#fff"/>
          <path id="Trazado_85865" data-name="Trazado 85865" d="M455.676,241.807v3.173l-37.919,21.892V263.7Z" transform="translate(-355.461 -198.108)" fill="#37a3a5"/>
          <path id="Trazado_85867" data-name="Trazado 85867" d="M378.079,265.428l-9.81-5.664v1.17l9.81,5.664Z" transform="translate(-339.722 -203.819)" fill="#42e8e0"/>
          <path id="Trazado_85868" data-name="Trazado 85868" d="M364.956,257.869l-2.658-1.535v1.17l2.658,1.535Z" transform="translate(-337.823 -202.729)" fill="#42e8e0"/>
          <path id="Trazado_85869" data-name="Trazado 85869" d="M345.4,246.582l-5.438-3.14v1.17l5.438,3.14Z" transform="translate(-330.72 -198.628)" fill="#42e8e0"/>
          <path id="Trazado_85870" data-name="Trazado 85870" d="M353.381,251.188l-3.932-2.271v1.17l3.932,2.271Z" transform="translate(-333.736 -200.37)" fill="#42e8e0"/>
          <path id="Trazado_85871" data-name="Trazado 85871" d="M359.383,254.654l-2.658-1.535v1.17l2.658,1.535Z" transform="translate(-336.05 -201.706)" fill="#42e8e0"/>
          <g id="Grupo_34897" data-name="Grupo 34897" transform="translate(24.872 14.36)">
            <g id="Grupo_34888" data-name="Grupo 34888" transform="translate(27.634)">
              <path id="Trazado_85872" data-name="Trazado 85872" d="M405.121,200.772l-1.72-.993,1.72-.993,1.72.993Z" transform="translate(-403.401 -198.786)" fill="#42e8e0"/>
              <path id="Trazado_85873" data-name="Trazado 85873" d="M410.166,203.685l-1.72-.993,1.72-.993,1.72.993Z" transform="translate(-405.005 -199.712)" fill="#42e8e0" opacity="0.1"/>
              <path id="Trazado_85874" data-name="Trazado 85874" d="M415.211,206.6l-1.72-.993,1.72-.993,1.72.993Z" transform="translate(-406.61 -200.639)" fill="#42e8e0" opacity="0.4"/>
              <path id="Trazado_85875" data-name="Trazado 85875" d="M420.255,209.51l-1.72-.993,1.72-.993,1.72.993Z" transform="translate(-408.214 -201.565)" fill="#42e8e0"/>
              <path id="Trazado_85876" data-name="Trazado 85876" d="M425.3,212.422l-1.72-.993,1.72-.993,1.72.993Z" transform="translate(-409.819 -202.491)" fill="#42e8e0" opacity="0.4"/>
              <path id="Trazado_85877" data-name="Trazado 85877" d="M430.345,215.335l-1.72-.993,1.72-.993,1.72.993Z" transform="translate(-411.423 -203.418)" fill="#42e8e0"/>
              <path id="Trazado_85878" data-name="Trazado 85878" d="M435.389,218.248l-1.72-.993,1.72-.993,1.72.993Z" transform="translate(-413.028 -204.344)" fill="#42e8e0"/>
              <path id="Trazado_85879" data-name="Trazado 85879" d="M440.434,221.16l-1.72-.993,1.72-.993,1.72.993Z" transform="translate(-414.632 -205.27)" fill="#42e8e0"/>
              <path id="Trazado_85880" data-name="Trazado 85880" d="M445.479,224.073l-1.72-.993,1.72-.993,1.72.993Z" transform="translate(-416.236 -206.196)" fill="#42e8e0" opacity="0.1"/>
            </g>
            <g id="Grupo_34889" data-name="Grupo 34889" transform="translate(24.179 1.994)">
              <path id="Trazado_85881" data-name="Trazado 85881" d="M400.056,203.7l-1.72-.993,1.72-.993,1.72.993Z" transform="translate(-398.336 -201.71)" fill="#42e8e0"/>
              <path id="Trazado_85882" data-name="Trazado 85882" d="M405.1,206.609l-1.72-.993,1.72-.993,1.72.993Z" transform="translate(-399.94 -202.637)" fill="#42e8e0"/>
              <path id="Trazado_85883" data-name="Trazado 85883" d="M410.145,209.522l-1.72-.993,1.72-.993,1.72.993Z" transform="translate(-401.545 -203.563)" fill="#42e8e0"/>
              <path id="Trazado_85884" data-name="Trazado 85884" d="M415.19,212.434l-1.72-.993,1.72-.993,1.72.993Z" transform="translate(-403.149 -204.489)" fill="#42e8e0"/>
              <path id="Trazado_85885" data-name="Trazado 85885" d="M420.235,215.347l-1.72-.993,1.72-.993,1.72.993Z" transform="translate(-404.754 -205.416)" fill="#42e8e0"/>
              <path id="Trazado_85886" data-name="Trazado 85886" d="M425.28,218.259l-1.72-.993,1.72-.993,1.72.993Z" transform="translate(-406.358 -206.342)" fill="#42e8e0"/>
              <path id="Trazado_85887" data-name="Trazado 85887" d="M430.324,221.172l-1.72-.993,1.72-.993,1.72.993Z" transform="translate(-407.962 -207.268)" fill="#42e8e0"/>
              <path id="Trazado_85888" data-name="Trazado 85888" d="M435.369,224.084l-1.72-.993,1.72-.993,1.72.993Z" transform="translate(-409.567 -208.195)" fill="#42e8e0"/>
              <path id="Trazado_85889" data-name="Trazado 85889" d="M440.414,227l-1.72-.993,1.72-.993,1.72.993Z" transform="translate(-411.171 -209.121)" fill="#42e8e0"/>
            </g>
            <g id="Grupo_34890" data-name="Grupo 34890" transform="translate(20.725 3.989)">
              <path id="Trazado_85890" data-name="Trazado 85890" d="M394.991,206.621l-1.72-.993,1.72-.993,1.72.993Z" transform="translate(-393.271 -204.635)" fill="#42e8e0"/>
              <path id="Trazado_85891" data-name="Trazado 85891" d="M400.036,209.533l-1.72-.993,1.72-.993,1.72.993Z" transform="translate(-394.875 -205.561)" fill="#42e8e0"/>
              <path id="Trazado_85892" data-name="Trazado 85892" d="M405.08,212.446l-1.72-.993,1.72-.993,1.72.993Z" transform="translate(-396.48 -206.487)" fill="#42e8e0"/>
              <path id="Trazado_85893" data-name="Trazado 85893" d="M410.125,215.358l-1.72-.993,1.72-.993,1.72.993Z" transform="translate(-398.084 -207.414)" fill="#42e8e0" opacity="0.1"/>
              <path id="Trazado_85894" data-name="Trazado 85894" d="M415.17,218.271l-1.72-.993,1.72-.993,1.72.993Z" transform="translate(-399.689 -208.34)" fill="#42e8e0" opacity="0.4"/>
              <path id="Trazado_85895" data-name="Trazado 85895" d="M420.214,221.184l-1.72-.993,1.72-.993,1.72.993Z" transform="translate(-401.293 -209.266)" fill="#42e8e0" opacity="0.4"/>
              <path id="Trazado_85896" data-name="Trazado 85896" d="M425.259,224.1l-1.72-.993,1.72-.993,1.72.993Z" transform="translate(-402.897 -210.193)" fill="#42e8e0"/>
              <path id="Trazado_85897" data-name="Trazado 85897" d="M430.3,227.009l-1.72-.993,1.72-.993,1.72.993Z" transform="translate(-404.502 -211.119)" fill="#42e8e0"/>
              <path id="Trazado_85898" data-name="Trazado 85898" d="M435.348,229.921l-1.72-.993,1.72-.993,1.72.993Z" transform="translate(-406.106 -212.045)" fill="#42e8e0"/>
            </g>
            <g id="Grupo_34891" data-name="Grupo 34891" transform="translate(17.271 5.983)">
              <path id="Trazado_85899" data-name="Trazado 85899" d="M389.926,209.545l-1.72-.993,1.72-.993,1.72.993Z" transform="translate(-388.206 -207.559)" fill="#42e8e0" opacity="0.4"/>
              <path id="Trazado_85900" data-name="Trazado 85900" d="M394.971,212.458l-1.72-.993,1.72-.993,1.72.993Z" transform="translate(-389.81 -208.485)" fill="#42e8e0" opacity="0.4"/>
              <path id="Trazado_85901" data-name="Trazado 85901" d="M400.015,215.37l-1.72-.993,1.72-.993,1.72.993Z" transform="translate(-391.415 -209.412)" fill="#42e8e0" opacity="0.1"/>
              <path id="Trazado_85902" data-name="Trazado 85902" d="M405.06,218.283l-1.72-.993,1.72-.993,1.72.993Z" transform="translate(-393.019 -210.338)" fill="#42e8e0"/>
              <path id="Trazado_85903" data-name="Trazado 85903" d="M410.1,221.2l-1.72-.993,1.72-.993,1.72.993Z" transform="translate(-394.623 -211.264)" fill="#42e8e0"/>
              <path id="Trazado_85904" data-name="Trazado 85904" d="M415.149,224.108l-1.72-.993,1.72-.993,1.72.993Z" transform="translate(-396.228 -212.191)" fill="#42e8e0"/>
              <path id="Trazado_85905" data-name="Trazado 85905" d="M420.194,227.021l-1.72-.993,1.72-.993,1.72.993Z" transform="translate(-397.832 -213.117)" fill="#42e8e0" opacity="0.4"/>
              <path id="Trazado_85906" data-name="Trazado 85906" d="M425.239,229.933l-1.72-.993,1.72-.993,1.72.993Z" transform="translate(-399.437 -214.043)" fill="#42e8e0"/>
              <path id="Trazado_85907" data-name="Trazado 85907" d="M430.283,232.846l-1.72-.993,1.72-.993,1.72.993Z" transform="translate(-401.041 -214.969)" fill="#42e8e0"/>
            </g>
            <g id="Grupo_34892" data-name="Grupo 34892" transform="translate(13.817 7.977)">
              <path id="Trazado_85908" data-name="Trazado 85908" d="M384.861,212.47l-1.72-.993,1.72-.993,1.72.993Z" transform="translate(-383.141 -210.483)" fill="#42e8e0"/>
              <path id="Trazado_85909" data-name="Trazado 85909" d="M389.906,215.382l-1.72-.993,1.72-.993,1.72.993Z" transform="translate(-384.745 -211.41)" fill="#42e8e0"/>
              <path id="Trazado_85910" data-name="Trazado 85910" d="M394.95,218.295l-1.72-.993,1.72-.993,1.72.993Z" transform="translate(-386.349 -212.336)" fill="#42e8e0"/>
              <path id="Trazado_85911" data-name="Trazado 85911" d="M399.995,221.207l-1.72-.993,1.72-.993,1.72.993Z" transform="translate(-387.954 -213.262)" fill="#42e8e0"/>
              <path id="Trazado_85912" data-name="Trazado 85912" d="M405.039,224.12l-1.72-.993,1.72-.993,1.72.993Z" transform="translate(-389.558 -214.189)" fill="#42e8e0"/>
              <path id="Trazado_85913" data-name="Trazado 85913" d="M410.084,227.032l-1.72-.993,1.72-.993,1.72.993Z" transform="translate(-391.163 -215.115)" fill="#42e8e0"/>
              <path id="Trazado_85914" data-name="Trazado 85914" d="M415.129,229.945l-1.72-.993,1.72-.993,1.72.993Z" transform="translate(-392.767 -216.041)" fill="#42e8e0"/>
              <path id="Trazado_85915" data-name="Trazado 85915" d="M420.174,232.857l-1.72-.993,1.72-.993,1.72.993Z" transform="translate(-394.372 -216.968)" fill="#42e8e0"/>
              <path id="Trazado_85916" data-name="Trazado 85916" d="M425.218,235.77l-1.72-.993,1.72-.993,1.72.993Z" transform="translate(-395.976 -217.894)" fill="#42e8e0"/>
            </g>
            <g id="Grupo_34893" data-name="Grupo 34893" transform="translate(10.363 9.971)">
              <path id="Trazado_85917" data-name="Trazado 85917" d="M379.8,215.394l-1.72-.993,1.72-.993,1.72.993Z" transform="translate(-378.076 -213.408)" fill="#42e8e0"/>
              <path id="Trazado_85918" data-name="Trazado 85918" d="M384.84,218.306l-1.72-.993,1.72-.993,1.72.993Z" transform="translate(-379.68 -214.334)" fill="#42e8e0"/>
              <path id="Trazado_85919" data-name="Trazado 85919" d="M389.885,221.219l-1.72-.993,1.72-.993,1.72.993Z" transform="translate(-381.284 -215.26)" fill="#42e8e0" opacity="0.4"/>
              <path id="Trazado_85920" data-name="Trazado 85920" d="M394.93,224.132l-1.72-.993,1.72-.993,1.72.993Z" transform="translate(-382.889 -216.187)" fill="#42e8e0"/>
              <path id="Trazado_85921" data-name="Trazado 85921" d="M399.974,227.044l-1.72-.993,1.72-.993,1.72.993Z" transform="translate(-384.493 -217.113)" fill="#42e8e0" opacity="0.1"/>
              <path id="Trazado_85922" data-name="Trazado 85922" d="M405.019,229.957l-1.72-.993,1.72-.993,1.72.993Z" transform="translate(-386.098 -218.039)" fill="#42e8e0"/>
              <path id="Trazado_85923" data-name="Trazado 85923" d="M410.064,232.869l-1.72-.993,1.72-.993,1.72.993Z" transform="translate(-387.702 -218.966)" fill="#42e8e0"/>
              <path id="Trazado_85924" data-name="Trazado 85924" d="M415.109,235.782l-1.72-.993,1.72-.993,1.72.993Z" transform="translate(-389.306 -219.892)" fill="#42e8e0"/>
              <path id="Trazado_85925" data-name="Trazado 85925" d="M420.153,238.694l-1.72-.993,1.72-.993,1.72.993Z" transform="translate(-390.911 -220.818)" fill="#42e8e0"/>
            </g>
            <g id="Grupo_34894" data-name="Grupo 34894" transform="translate(6.908 11.966)">
              <path id="Trazado_85926" data-name="Trazado 85926" d="M374.731,218.318l-1.72-.993,1.72-.993,1.72.993Z" transform="translate(-373.01 -216.332)" fill="#42e8e0"/>
              <path id="Trazado_85927" data-name="Trazado 85927" d="M379.775,221.231l-1.72-.993,1.72-.993,1.72.993Z" transform="translate(-374.615 -217.258)" fill="#42e8e0"/>
              <path id="Trazado_85928" data-name="Trazado 85928" d="M384.82,224.143l-1.72-.993,1.72-.993,1.72.993Z" transform="translate(-376.219 -218.185)" fill="#42e8e0" opacity="0.4"/>
              <path id="Trazado_85929" data-name="Trazado 85929" d="M389.865,227.056l-1.72-.993,1.72-.993,1.72.993Z" transform="translate(-377.824 -219.111)" fill="#42e8e0"/>
              <path id="Trazado_85930" data-name="Trazado 85930" d="M394.909,229.968l-1.72-.993,1.72-.993,1.72.993Z" transform="translate(-379.428 -220.037)" fill="#42e8e0"/>
              <path id="Trazado_85931" data-name="Trazado 85931" d="M399.954,232.881l-1.72-.993,1.72-.993,1.72.993Z" transform="translate(-381.033 -220.964)" fill="#42e8e0" opacity="0.1"/>
              <path id="Trazado_85932" data-name="Trazado 85932" d="M405,235.794l-1.72-.993,1.72-.993,1.72.993Z" transform="translate(-382.637 -221.89)" fill="#42e8e0" opacity="0.4"/>
              <path id="Trazado_85933" data-name="Trazado 85933" d="M410.043,238.706l-1.72-.993,1.72-.993,1.72.993Z" transform="translate(-384.241 -222.816)" fill="#42e8e0"/>
              <path id="Trazado_85934" data-name="Trazado 85934" d="M415.088,241.619l-1.72-.993,1.72-.993,1.72.993Z" transform="translate(-385.846 -223.742)" fill="#42e8e0" opacity="0.1"/>
            </g>
            <g id="Grupo_34895" data-name="Grupo 34895" transform="translate(3.454 13.96)">
              <path id="Trazado_85935" data-name="Trazado 85935" d="M369.666,221.243l-1.72-.993,1.72-.993,1.72.993Z" transform="translate(-367.945 -219.256)" fill="#42e8e0"/>
              <path id="Trazado_85936" data-name="Trazado 85936" d="M374.71,224.155l-1.72-.993,1.72-.993,1.72.993Z" transform="translate(-369.55 -220.183)" fill="#42e8e0" opacity="0.4"/>
              <path id="Trazado_85937" data-name="Trazado 85937" d="M379.755,227.068l-1.72-.993,1.72-.993,1.72.993Z" transform="translate(-371.154 -221.109)" fill="#42e8e0"/>
              <path id="Trazado_85938" data-name="Trazado 85938" d="M384.8,229.98l-1.72-.993,1.72-.993,1.72.993Z" transform="translate(-372.759 -222.035)" fill="#42e8e0"/>
              <path id="Trazado_85939" data-name="Trazado 85939" d="M389.844,232.893l-1.72-.993,1.72-.993,1.72.993Z" transform="translate(-374.363 -222.962)" fill="#42e8e0"/>
              <path id="Trazado_85940" data-name="Trazado 85940" d="M394.889,235.805l-1.72-.993,1.72-.993,1.72.993Z" transform="translate(-375.967 -223.888)" fill="#42e8e0"/>
              <path id="Trazado_85941" data-name="Trazado 85941" d="M399.934,238.718l-1.72-.993,1.72-.993,1.72.993Z" transform="translate(-377.572 -224.814)" fill="#42e8e0"/>
              <path id="Trazado_85942" data-name="Trazado 85942" d="M404.978,241.63l-1.72-.993,1.72-.993,1.72.993Z" transform="translate(-379.176 -225.741)" fill="#42e8e0" opacity="0.4"/>
              <path id="Trazado_85943" data-name="Trazado 85943" d="M410.023,244.543l-1.72-.993,1.72-.993,1.72.993Z" transform="translate(-380.781 -226.667)" fill="#42e8e0"/>
            </g>
            <g id="Grupo_34896" data-name="Grupo 34896" transform="translate(0 15.954)">
              <path id="Trazado_85944" data-name="Trazado 85944" d="M364.6,224.167l-1.72-.993,1.72-.993,1.72.993Z" transform="translate(-362.88 -222.181)" fill="#42e8e0"/>
              <path id="Trazado_85945" data-name="Trazado 85945" d="M369.645,227.079l-1.72-.993,1.72-.993,1.72.993Z" transform="translate(-364.485 -223.107)" fill="#42e8e0" opacity="0.1"/>
              <path id="Trazado_85946" data-name="Trazado 85946" d="M374.69,229.992,372.97,229l1.72-.993,1.72.993Z" transform="translate(-366.089 -224.033)" fill="#42e8e0"/>
              <path id="Trazado_85947" data-name="Trazado 85947" d="M379.734,232.9l-1.72-.993,1.72-.993,1.72.993Z" transform="translate(-367.694 -224.96)" fill="#42e8e0"/>
              <path id="Trazado_85948" data-name="Trazado 85948" d="M384.779,235.817l-1.72-.993,1.72-.993,1.72.993Z" transform="translate(-369.298 -225.886)" fill="#42e8e0"/>
              <path id="Trazado_85949" data-name="Trazado 85949" d="M389.824,238.73l-1.72-.993,1.72-.993,1.72.993Z" transform="translate(-370.902 -226.812)" fill="#42e8e0"/>
              <path id="Trazado_85950" data-name="Trazado 85950" d="M394.869,241.642l-1.72-.993,1.72-.993,1.72.993Z" transform="translate(-372.507 -227.739)" fill="#42e8e0" opacity="0.4"/>
              <path id="Trazado_85951" data-name="Trazado 85951" d="M399.913,244.555l-1.72-.993,1.72-.993,1.72.993Z" transform="translate(-374.111 -228.665)" fill="#42e8e0"/>
              <path id="Trazado_85952" data-name="Trazado 85952" d="M404.958,247.467l-1.72-.993,1.72-.993,1.72.993Z" transform="translate(-375.716 -229.591)" fill="#42e8e0"/>
            </g>
          </g>
        </g>
        <g id="Grupo_34910" data-name="Grupo 34910" transform="translate(64.014 4.021)">
          <path id="Trazado_85953" data-name="Trazado 85953" d="M380.58,195.27l-54.171-31.276,54.169-31.275L434.749,164Z" transform="translate(-326.409 -132.72)" fill="#b0c0d2"/>
          <path id="Trazado_85954" data-name="Trazado 85954" d="M387.478,190.713,348.1,167.977l39.378-22.735,39.379,22.736Z" transform="translate(-333.307 -136.702)" fill="#00223d"/>
          <path id="Trazado_85955" data-name="Trazado 85955" d="M387.477,146.782l38.046,21.966,1.333-.77-39.379-22.736L348.1,167.977l1.333.77Z" transform="translate(-333.307 -136.702)" fill="#fff"/>
          <path id="Trazado_85956" data-name="Trazado 85956" d="M460.012,178.581v17.728l-54.169,31.275V209.856Z" transform="translate(-351.672 -147.305)" fill="#d2e1f1"/>
          <path id="Trazado_85957" data-name="Trazado 85957" d="M326.409,178.58v17.728l54.171,31.276V209.855Z" transform="translate(-326.409 -147.305)" fill="#00223d"/>
          <g id="Grupo_34899" data-name="Grupo 34899" transform="translate(3.67 39.24)" opacity="0.51">
            <path id="Trazado_85958" data-name="Trazado 85958" d="M331.79,190.259v5.583l46.832,27.038V217.3Z" transform="translate(-331.79 -190.259)" fill="#f3f9ff"/>
          </g>
          <path id="Trazado_85959" data-name="Trazado 85959" d="M380.58,208.6l-53.291-30.767-.88.508,54.171,31.276,54.169-31.275-.88-.508Z" transform="translate(-326.409 -147.068)" fill="#fff"/>
          <path id="Trazado_85960" data-name="Trazado 85960" d="M455.676,196.8v3.173l-37.919,21.892v-3.173Z" transform="translate(-355.461 -153.099)" fill="#37a3a5"/>
          <path id="Trazado_85962" data-name="Trazado 85962" d="M378.079,220.418l-9.81-5.664v1.17l9.81,5.664Z" transform="translate(-339.722 -158.81)" fill="#37a3a5"/>
          <path id="Trazado_85963" data-name="Trazado 85963" d="M364.956,212.859l-2.658-1.535v1.17l2.658,1.535Z" transform="translate(-337.823 -157.719)" fill="#37a3a5"/>
          <path id="Trazado_85964" data-name="Trazado 85964" d="M345.4,201.572l-5.438-3.14v1.17l5.438,3.14Z" transform="translate(-330.72 -153.619)" fill="#37a3a5"/>
          <path id="Trazado_85965" data-name="Trazado 85965" d="M353.381,206.179l-3.932-2.271v1.17l3.932,2.271Z" transform="translate(-333.736 -155.36)" fill="#37a3a5"/>
          <path id="Trazado_85966" data-name="Trazado 85966" d="M359.383,209.645l-2.658-1.535v1.17l2.658,1.535Z" transform="translate(-336.05 -156.697)" fill="#37a3a5"/>
          <g id="Grupo_34909" data-name="Grupo 34909" transform="translate(24.872 14.36)">
            <g id="Grupo_34900" data-name="Grupo 34900" transform="translate(27.634)">
              <path id="Trazado_85967" data-name="Trazado 85967" d="M405.121,155.763l-1.72-.993,1.72-.993,1.72.993Z" transform="translate(-403.401 -153.777)" fill="#42e8e0"/>
              <path id="Trazado_85968" data-name="Trazado 85968" d="M410.166,158.675l-1.72-.993,1.72-.993,1.72.993Z" transform="translate(-405.005 -154.703)" fill="#42e8e0" opacity="0.1"/>
              <path id="Trazado_85969" data-name="Trazado 85969" d="M415.211,161.588l-1.72-.993,1.72-.993,1.72.993Z" transform="translate(-406.61 -155.629)" fill="#42e8e0" opacity="0.4"/>
              <path id="Trazado_85970" data-name="Trazado 85970" d="M420.255,164.5l-1.72-.993,1.72-.993,1.72.993Z" transform="translate(-408.214 -156.555)" fill="#42e8e0"/>
              <path id="Trazado_85971" data-name="Trazado 85971" d="M425.3,167.413l-1.72-.993,1.72-.993,1.72.993Z" transform="translate(-409.819 -157.482)" fill="#42e8e0" opacity="0.4"/>
              <path id="Trazado_85972" data-name="Trazado 85972" d="M430.345,170.325l-1.72-.993,1.72-.993,1.72.993Z" transform="translate(-411.423 -158.408)" fill="#42e8e0"/>
              <path id="Trazado_85973" data-name="Trazado 85973" d="M435.389,173.238l-1.72-.993,1.72-.993,1.72.993Z" transform="translate(-413.028 -159.334)" fill="#42e8e0"/>
              <path id="Trazado_85974" data-name="Trazado 85974" d="M440.434,176.151l-1.72-.993,1.72-.993,1.72.993Z" transform="translate(-414.632 -160.261)" fill="#42e8e0"/>
              <path id="Trazado_85975" data-name="Trazado 85975" d="M445.479,179.063l-1.72-.993,1.72-.993,1.72.993Z" transform="translate(-416.236 -161.187)" fill="#42e8e0" opacity="0.1"/>
            </g>
            <g id="Grupo_34901" data-name="Grupo 34901" transform="translate(24.179 1.994)">
              <path id="Trazado_85976" data-name="Trazado 85976" d="M400.056,158.687l-1.72-.993,1.72-.993,1.72.993Z" transform="translate(-398.336 -156.701)" fill="#42e8e0"/>
              <path id="Trazado_85977" data-name="Trazado 85977" d="M405.1,161.6l-1.72-.993,1.72-.993,1.72.993Z" transform="translate(-399.94 -157.627)" fill="#42e8e0"/>
              <path id="Trazado_85978" data-name="Trazado 85978" d="M410.145,164.512l-1.72-.993,1.72-.993,1.72.993Z" transform="translate(-401.545 -158.553)" fill="#42e8e0"/>
              <path id="Trazado_85979" data-name="Trazado 85979" d="M415.19,167.425l-1.72-.993,1.72-.993,1.72.993Z" transform="translate(-403.149 -159.48)" fill="#fff" opacity="0.8"/>
              <path id="Trazado_85980" data-name="Trazado 85980" d="M420.235,170.337l-1.72-.993,1.72-.993,1.72.993Z" transform="translate(-404.754 -160.406)" fill="#42e8e0"/>
              <path id="Trazado_85981" data-name="Trazado 85981" d="M425.28,173.25l-1.72-.993,1.72-.993,1.72.993Z" transform="translate(-406.358 -161.332)" fill="#42e8e0"/>
              <path id="Trazado_85982" data-name="Trazado 85982" d="M430.324,176.162l-1.72-.993,1.72-.993,1.72.993Z" transform="translate(-407.962 -162.259)" fill="#fff" opacity="0.8"/>
              <path id="Trazado_85983" data-name="Trazado 85983" d="M435.369,179.075l-1.72-.993,1.72-.993,1.72.993Z" transform="translate(-409.567 -163.185)" fill="#42e8e0"/>
              <path id="Trazado_85984" data-name="Trazado 85984" d="M440.414,181.987l-1.72-.993,1.72-.993,1.72.993Z" transform="translate(-411.171 -164.111)" fill="#fff" opacity="0.8"/>
            </g>
            <g id="Grupo_34902" data-name="Grupo 34902" transform="translate(20.725 3.989)">
              <path id="Trazado_85985" data-name="Trazado 85985" d="M394.991,161.611l-1.72-.993,1.72-.993,1.72.993Z" transform="translate(-393.271 -159.625)" fill="#42e8e0"/>
              <path id="Trazado_85986" data-name="Trazado 85986" d="M400.036,164.524l-1.72-.993,1.72-.993,1.72.993Z" transform="translate(-394.875 -160.551)" fill="#fff" opacity="0.8"/>
              <path id="Trazado_85987" data-name="Trazado 85987" d="M405.08,167.437l-1.72-.993,1.72-.993,1.72.993Z" transform="translate(-396.48 -161.478)" fill="#42e8e0"/>
              <path id="Trazado_85988" data-name="Trazado 85988" d="M410.125,170.349l-1.72-.993,1.72-.993,1.72.993Z" transform="translate(-398.084 -162.404)" fill="#42e8e0" opacity="0.1"/>
              <path id="Trazado_85989" data-name="Trazado 85989" d="M415.17,173.262l-1.72-.993,1.72-.993,1.72.993Z" transform="translate(-399.689 -163.33)" fill="#42e8e0" opacity="0.4"/>
              <path id="Trazado_85990" data-name="Trazado 85990" d="M420.214,176.174l-1.72-.993,1.72-.993,1.72.993Z" transform="translate(-401.293 -164.257)" fill="#42e8e0" opacity="0.4"/>
              <path id="Trazado_85991" data-name="Trazado 85991" d="M425.259,179.087l-1.72-.993,1.72-.993,1.72.993Z" transform="translate(-402.897 -165.183)" fill="#42e8e0"/>
              <path id="Trazado_85992" data-name="Trazado 85992" d="M430.3,182l-1.72-.993,1.72-.993,1.72.993Z" transform="translate(-404.502 -166.109)" fill="#42e8e0"/>
              <path id="Trazado_85993" data-name="Trazado 85993" d="M435.348,184.912l-1.72-.993,1.72-.993,1.72.993Z" transform="translate(-406.106 -167.036)" fill="#42e8e0"/>
            </g>
            <g id="Grupo_34903" data-name="Grupo 34903" transform="translate(17.271 5.983)">
              <path id="Trazado_85994" data-name="Trazado 85994" d="M389.926,164.536l-1.72-.993,1.72-.993,1.72.993Z" transform="translate(-388.206 -162.55)" fill="#42e8e0" opacity="0.4"/>
              <path id="Trazado_85995" data-name="Trazado 85995" d="M394.971,167.448l-1.72-.993,1.72-.993,1.72.993Z" transform="translate(-389.81 -163.476)" fill="#42e8e0" opacity="0.4"/>
              <path id="Trazado_85996" data-name="Trazado 85996" d="M400.015,170.361l-1.72-.993,1.72-.993,1.72.993Z" transform="translate(-391.415 -164.402)" fill="#42e8e0" opacity="0.1"/>
              <path id="Trazado_85997" data-name="Trazado 85997" d="M405.06,173.273l-1.72-.993,1.72-.993,1.72.993Z" transform="translate(-393.019 -165.328)" fill="#42e8e0"/>
              <path id="Trazado_85998" data-name="Trazado 85998" d="M410.1,176.186l-1.72-.993,1.72-.993,1.72.993Z" transform="translate(-394.623 -166.255)" fill="#42e8e0"/>
              <path id="Trazado_85999" data-name="Trazado 85999" d="M415.149,179.1l-1.72-.993,1.72-.993,1.72.993Z" transform="translate(-396.228 -167.181)" fill="#fff" opacity="0.8"/>
              <path id="Trazado_86000" data-name="Trazado 86000" d="M420.194,182.011l-1.72-.993,1.72-.993,1.72.993Z" transform="translate(-397.832 -168.107)" fill="#42e8e0" opacity="0.4"/>
              <path id="Trazado_86001" data-name="Trazado 86001" d="M425.239,184.924l-1.72-.993,1.72-.993,1.72.993Z" transform="translate(-399.437 -169.034)" fill="#42e8e0"/>
              <path id="Trazado_86002" data-name="Trazado 86002" d="M430.283,187.836l-1.72-.993,1.72-.993,1.72.993Z" transform="translate(-401.041 -169.96)" fill="#42e8e0"/>
            </g>
            <g id="Grupo_34904" data-name="Grupo 34904" transform="translate(13.817 7.977)">
              <path id="Trazado_86003" data-name="Trazado 86003" d="M384.861,167.46l-1.72-.993,1.72-.993,1.72.993Z" transform="translate(-383.141 -165.474)" fill="#fff" opacity="0.8"/>
              <path id="Trazado_86004" data-name="Trazado 86004" d="M389.906,170.373l-1.72-.993,1.72-.993,1.72.993Z" transform="translate(-384.745 -166.4)" fill="#42e8e0"/>
              <path id="Trazado_86005" data-name="Trazado 86005" d="M394.95,173.285l-1.72-.993,1.72-.993,1.72.993Z" transform="translate(-386.349 -167.326)" fill="#42e8e0"/>
              <path id="Trazado_86006" data-name="Trazado 86006" d="M399.995,176.2l-1.72-.993,1.72-.993,1.72.993Z" transform="translate(-387.954 -168.253)" fill="#42e8e0"/>
              <path id="Trazado_86007" data-name="Trazado 86007" d="M405.039,179.11l-1.72-.993,1.72-.993,1.72.993Z" transform="translate(-389.558 -169.179)" fill="#fff" opacity="0.8"/>
              <path id="Trazado_86008" data-name="Trazado 86008" d="M410.084,182.023l-1.72-.993,1.72-.993,1.72.993Z" transform="translate(-391.163 -170.105)" fill="#fff" opacity="0.8"/>
              <path id="Trazado_86009" data-name="Trazado 86009" d="M415.129,184.935l-1.72-.993,1.72-.993,1.72.993Z" transform="translate(-392.767 -171.032)" fill="#42e8e0"/>
              <path id="Trazado_86010" data-name="Trazado 86010" d="M420.174,187.848l-1.72-.993,1.72-.993,1.72.993Z" transform="translate(-394.372 -171.958)" fill="#42e8e0"/>
              <path id="Trazado_86011" data-name="Trazado 86011" d="M425.218,190.76l-1.72-.993,1.72-.993,1.72.993Z" transform="translate(-395.976 -172.884)" fill="#42e8e0"/>
            </g>
            <g id="Grupo_34905" data-name="Grupo 34905" transform="translate(10.363 9.971)">
              <path id="Trazado_86012" data-name="Trazado 86012" d="M379.8,170.384l-1.72-.993,1.72-.993,1.72.993Z" transform="translate(-378.076 -168.398)" fill="#42e8e0"/>
              <path id="Trazado_86013" data-name="Trazado 86013" d="M384.84,173.3l-1.72-.993,1.72-.993,1.72.993Z" transform="translate(-379.68 -169.324)" fill="#42e8e0"/>
              <path id="Trazado_86014" data-name="Trazado 86014" d="M389.885,176.21l-1.72-.993,1.72-.993,1.72.993Z" transform="translate(-381.284 -170.251)" fill="#42e8e0" opacity="0.4"/>
              <path id="Trazado_86015" data-name="Trazado 86015" d="M394.93,179.122l-1.72-.993,1.72-.993,1.72.993Z" transform="translate(-382.889 -171.177)" fill="#fff" opacity="0.8"/>
              <path id="Trazado_86016" data-name="Trazado 86016" d="M399.974,182.035l-1.72-.993,1.72-.993,1.72.993Z" transform="translate(-384.493 -172.103)" fill="#42e8e0" opacity="0.1"/>
              <path id="Trazado_86017" data-name="Trazado 86017" d="M405.019,184.947l-1.72-.993,1.72-.993,1.72.993Z" transform="translate(-386.098 -173.03)" fill="#42e8e0"/>
              <path id="Trazado_86018" data-name="Trazado 86018" d="M410.064,187.86l-1.72-.993,1.72-.993,1.72.993Z" transform="translate(-387.702 -173.956)" fill="#42e8e0"/>
              <path id="Trazado_86019" data-name="Trazado 86019" d="M415.109,190.772l-1.72-.993,1.72-.993,1.72.993Z" transform="translate(-389.306 -174.882)" fill="#fff" opacity="0.8"/>
              <path id="Trazado_86020" data-name="Trazado 86020" d="M420.153,193.685l-1.72-.993,1.72-.993,1.72.993Z" transform="translate(-390.911 -175.809)" fill="#42e8e0"/>
            </g>
            <g id="Grupo_34906" data-name="Grupo 34906" transform="translate(6.908 11.966)">
              <path id="Trazado_86021" data-name="Trazado 86021" d="M374.731,173.309l-1.72-.993,1.72-.993,1.72.993Z" transform="translate(-373.01 -171.323)" fill="#42e8e0"/>
              <path id="Trazado_86022" data-name="Trazado 86022" d="M379.775,176.221l-1.72-.993,1.72-.993,1.72.993Z" transform="translate(-374.615 -172.249)" fill="#42e8e0"/>
              <path id="Trazado_86023" data-name="Trazado 86023" d="M384.82,179.134l-1.72-.993,1.72-.993,1.72.993Z" transform="translate(-376.219 -173.175)" fill="#42e8e0" opacity="0.4"/>
              <path id="Trazado_86024" data-name="Trazado 86024" d="M389.865,182.046l-1.72-.993,1.72-.993,1.72.993Z" transform="translate(-377.824 -174.101)" fill="#42e8e0"/>
              <path id="Trazado_86025" data-name="Trazado 86025" d="M394.909,184.959l-1.72-.993,1.72-.993,1.72.993Z" transform="translate(-379.428 -175.028)" fill="#42e8e0"/>
              <path id="Trazado_86026" data-name="Trazado 86026" d="M399.954,187.871l-1.72-.993,1.72-.993,1.72.993Z" transform="translate(-381.033 -175.954)" fill="#42e8e0" opacity="0.1"/>
              <path id="Trazado_86027" data-name="Trazado 86027" d="M405,190.784l-1.72-.993L405,188.8l1.72.993Z" transform="translate(-382.637 -176.88)" fill="#42e8e0" opacity="0.4"/>
              <path id="Trazado_86028" data-name="Trazado 86028" d="M410.043,193.7l-1.72-.993,1.72-.993,1.72.993Z" transform="translate(-384.241 -177.807)" fill="#42e8e0"/>
              <path id="Trazado_86029" data-name="Trazado 86029" d="M415.088,196.609l-1.72-.993,1.72-.993,1.72.993Z" transform="translate(-385.846 -178.733)" fill="#42e8e0" opacity="0.1"/>
            </g>
            <g id="Grupo_34907" data-name="Grupo 34907" transform="translate(3.454 13.96)">
              <path id="Trazado_86030" data-name="Trazado 86030" d="M369.666,176.233l-1.72-.993,1.72-.993,1.72.993Z" transform="translate(-367.945 -174.247)" fill="#42e8e0"/>
              <path id="Trazado_86031" data-name="Trazado 86031" d="M374.71,179.146l-1.72-.993,1.72-.993,1.72.993Z" transform="translate(-369.55 -175.173)" fill="#42e8e0" opacity="0.4"/>
              <path id="Trazado_86032" data-name="Trazado 86032" d="M379.755,182.058l-1.72-.993,1.72-.993,1.72.993Z" transform="translate(-371.154 -176.099)" fill="#42e8e0"/>
              <path id="Trazado_86033" data-name="Trazado 86033" d="M384.8,184.971l-1.72-.993,1.72-.993,1.72.993Z" transform="translate(-372.759 -177.026)" fill="#42e8e0"/>
              <path id="Trazado_86034" data-name="Trazado 86034" d="M389.844,187.883l-1.72-.993,1.72-.993,1.72.993Z" transform="translate(-374.363 -177.952)" fill="#42e8e0"/>
              <path id="Trazado_86035" data-name="Trazado 86035" d="M394.889,190.8l-1.72-.993,1.72-.993,1.72.993Z" transform="translate(-375.967 -178.878)" fill="#42e8e0"/>
              <path id="Trazado_86036" data-name="Trazado 86036" d="M399.934,193.708l-1.72-.993,1.72-.993,1.72.993Z" transform="translate(-377.572 -179.805)" fill="#42e8e0"/>
              <path id="Trazado_86037" data-name="Trazado 86037" d="M404.978,196.621l-1.72-.993,1.72-.993,1.72.993Z" transform="translate(-379.176 -180.731)" fill="#42e8e0" opacity="0.4"/>
              <path id="Trazado_86038" data-name="Trazado 86038" d="M410.023,199.533l-1.72-.993,1.72-.993,1.72.993Z" transform="translate(-380.781 -181.657)" fill="#42e8e0"/>
            </g>
            <g id="Grupo_34908" data-name="Grupo 34908" transform="translate(0 15.954)">
              <path id="Trazado_86039" data-name="Trazado 86039" d="M364.6,179.157l-1.72-.993,1.72-.993,1.72.993Z" transform="translate(-362.88 -177.171)" fill="#42e8e0"/>
              <path id="Trazado_86040" data-name="Trazado 86040" d="M369.645,182.07l-1.72-.993,1.72-.993,1.72.993Z" transform="translate(-364.485 -178.098)" fill="#42e8e0" opacity="0.1"/>
              <path id="Trazado_86041" data-name="Trazado 86041" d="M374.69,184.983l-1.72-.993,1.72-.993,1.72.993Z" transform="translate(-366.089 -179.024)" fill="#fff" opacity="0.8"/>
              <path id="Trazado_86042" data-name="Trazado 86042" d="M379.734,187.9l-1.72-.993,1.72-.993,1.72.993Z" transform="translate(-367.694 -179.95)" fill="#42e8e0"/>
              <path id="Trazado_86043" data-name="Trazado 86043" d="M384.779,190.808l-1.72-.993,1.72-.993,1.72.993Z" transform="translate(-369.298 -180.876)" fill="#42e8e0"/>
              <path id="Trazado_86044" data-name="Trazado 86044" d="M389.824,193.72l-1.72-.993,1.72-.993,1.72.993Z" transform="translate(-370.902 -181.803)" fill="#42e8e0"/>
              <path id="Trazado_86045" data-name="Trazado 86045" d="M394.869,196.633l-1.72-.993,1.72-.993,1.72.993Z" transform="translate(-372.507 -182.729)" fill="#42e8e0" opacity="0.4"/>
              <path id="Trazado_86046" data-name="Trazado 86046" d="M399.913,199.545l-1.72-.993,1.72-.993,1.72.993Z" transform="translate(-374.111 -183.655)" fill="#fff" opacity="0.8"/>
              <path id="Trazado_86047" data-name="Trazado 86047" d="M404.958,202.458l-1.72-.993,1.72-.993,1.72.993Z" transform="translate(-375.716 -184.582)" fill="#42e8e0"/>
            </g>
          </g>
        </g>
        <g id="Grupo_34949" data-name="Grupo 34949" transform="translate(0 51.467)">
          <g id="Grupo_34929" data-name="Grupo 34929" transform="translate(130.577)">
            <g id="Grupo_34911" data-name="Grupo 34911" transform="translate(11.699 57.172)" style="mix-blend-mode: lighten;isolation: isolate">
              <path id="Trazado_86048" data-name="Trazado 86048" d="M475.39,339.478a5.353,5.353,0,0,1-2.671-.713l-30.781-17.772a1.542,1.542,0,0,1,0-2.67l55.694-32.155a.3.3,0,0,1,.3,0l33.3,19.225a1.542,1.542,0,0,1,0,2.67l-53.175,30.7A5.355,5.355,0,0,1,475.39,339.478Zm22.395-52.7-55.543,32.066a.934.934,0,0,0,0,1.618l30.781,17.772a4.825,4.825,0,0,0,4.733,0l53.176-30.7a.934.934,0,0,0,0-1.618Z" transform="translate(-441.168 -286.127)" fill="#00223d"/>
            </g>
            <g id="Grupo_34924" data-name="Grupo 34924">
              <g id="Grupo_34923" data-name="Grupo 34923">
                <g id="Grupo_34922" data-name="Grupo 34922">
                  <g id="Grupo_34916" data-name="Grupo 34916">
                    <g id="Grupo_34913" data-name="Grupo 34913">
                      <path id="Trazado_86049" data-name="Trazado 86049" d="M492.4,247.083l-7.408-43.952.6-.251-.9-.514v.005a.644.644,0,0,0-.689.048L424.795,236.6a1.671,1.671,0,0,0-.769,1.5l7.467,44.3a.556.556,0,0,0,.312.451h0l.876.506.15-.818-.05.015,58.848-33.976A1.67,1.67,0,0,0,492.4,247.083Z" transform="translate(-424.014 -202.293)" fill="#e9e9fd"/>
                      <path id="Trazado_86050" data-name="Trazado 86050" d="M425.125,254.165l-.974-.431a1.34,1.34,0,0,0-.125.733l7.467,44.3a.556.556,0,0,0,.312.451h0l.876.506.15-.818-.05.015,2.978-1.719Z" transform="translate(-424.014 -218.653)" fill="#dee4f0"/>
                      <path id="Trazado_86051" data-name="Trazado 86051" d="M492.99,249.367,433.784,283.55c-.457.264-.848.111-.929-.362l-7.467-44.3a1.671,1.671,0,0,1,.768-1.5L485.363,203.2c.457-.264.848-.111.929.362l7.467,44.3A1.67,1.67,0,0,1,492.99,249.367Z" transform="translate(-424.447 -202.541)" fill="#00223d"/>
                      <g id="Grupo_34912" data-name="Grupo 34912" transform="translate(3.072 3.487)" opacity="0.51">
                        <path id="Trazado_86052" data-name="Trazado 86052" d="M485.589,207.407l-57.07,32.95,7.077,41.722,57.032-32.927Z" transform="translate(-428.519 -207.407)" fill="#00223d"/>
                      </g>
                    </g>
                    <g id="Grupo_34915" data-name="Grupo 34915" transform="translate(9.143 46.673)">
                      <path id="Trazado_86053" data-name="Trazado 86053" d="M534.048,293.678l-3.231,1.687-32.4-18.706a2.35,2.35,0,0,0-2.115.087l-55.879,32.262c-.535-.3-2.973-1.472-2.973-1.472l1.183,3.082,0,0a.705.705,0,0,0,.331.366l34.123,19.7a2.35,2.35,0,0,0,2.115-.088l57.183-33.014a1.021,1.021,0,0,0,.479-.51l0,0Z" transform="translate(-437.43 -272.55)" fill="#00223d"/>
                      <path id="Trazado_86054" data-name="Trazado 86054" d="M533.539,292.391l-58.6,33.835a2.409,2.409,0,0,1-2.167.09L437.8,306.125c-.556-.32-.486-.881.155-1.251l58.6-33.835a2.4,2.4,0,0,1,2.167-.09l34.972,20.191C534.25,291.46,534.18,292.02,533.539,292.391Z" transform="translate(-437.421 -270.732)" fill="#d2e6ee"/>
                      <path id="Trazado_86055" data-name="Trazado 86055" d="M533.541,301.746l-58.6,33.836a2.409,2.409,0,0,1-2.167.09L437.8,315.481a.717.717,0,0,1-.34-.378.59.59,0,0,0,.34.716l34.971,20.191a2.409,2.409,0,0,0,2.167-.09l58.6-33.835c.432-.25.6-.583.5-.874A1.035,1.035,0,0,1,533.541,301.746Z" transform="translate(-437.423 -280.426)" fill="#fff"/>
                      <path id="Trazado_86056" data-name="Trazado 86056" d="M466.509,341.04V340.4c0-.061.037-.089.083-.062l2.267,1.308a.2.2,0,0,1,.083.158v.643c0,.061-.038.089-.083.063l-2.267-1.309A.2.2,0,0,1,466.509,341.04Z" transform="translate(-446.672 -292.865)" fill="#21587b"/>
                      <path id="Trazado_86057" data-name="Trazado 86057" d="M471.48,343.91v-.643c0-.061.037-.089.082-.063l2.267,1.309a.2.2,0,0,1,.082.158v.643c0,.061-.037.089-.082.062l-2.267-1.309A.2.2,0,0,1,471.48,343.91Z" transform="translate(-448.253 -293.778)" fill="#21587b"/>
                      <path id="Trazado_86058" data-name="Trazado 86058" d="M451.253,306.68l48.7-28.117a1.049,1.049,0,0,1,1.05,0L518.344,288.6a.374.374,0,0,1,0,.647l-48.678,28.1a1.05,1.05,0,0,1-1.048,0l-17.366-10.021A.374.374,0,0,1,451.253,306.68Z" transform="translate(-441.76 -273.178)" fill="#d2e1f1"/>
                      <path id="Trazado_86059" data-name="Trazado 86059" d="M451.253,307.328l.175.1,48.526-28.016a1.049,1.049,0,0,1,1.05,0l17.167,9.933.175-.1a.374.374,0,0,0,0-.647L501,278.563a1.049,1.049,0,0,0-1.05,0l-48.7,28.117A.374.374,0,0,0,451.253,307.328Z" transform="translate(-441.76 -273.178)" fill="#00223d"/>
                      <g id="Grupo_34914" data-name="Grupo 34914" transform="translate(11.93 6.841)">
                        <path id="Trazado_86060" data-name="Trazado 86060" d="M505.6,281.849l-42.3,24.424-1.881-1.086,42.3-24.424Z" transform="translate(-456.983 -280.763)" fill="#00223d"/>
                        <path id="Trazado_86061" data-name="Trazado 86061" d="M513.59,285.753l-39.679,22.909-1.881-1.086,39.679-22.909Z" transform="translate(-460.358 -282.004)" fill="#00223d"/>
                        <path id="Trazado_86062" data-name="Trazado 86062" d="M514.711,288.3l-46.717,26.972-1.881-1.086,46.717-26.972Z" transform="translate(-458.476 -282.813)" fill="#00223d"/>
                        <path id="Trazado_86063" data-name="Trazado 86063" d="M519.116,290.838,472.4,317.81l-1.881-1.086,46.717-26.972Z" transform="translate(-459.876 -283.622)" fill="#00223d"/>
                        <path id="Trazado_86064" data-name="Trazado 86064" d="M523.52,293.381,476.8,320.353l-1.881-1.086L521.639,292.3Z" transform="translate(-461.277 -284.43)" fill="#00223d"/>
                        <path id="Trazado_86065" data-name="Trazado 86065" d="M458.676,319.827l-1.881,1.086-1.881-1.086,1.881-1.086Z" transform="translate(-454.914 -292.841)" fill="#00223d"/>
                        <path id="Trazado_86066" data-name="Trazado 86066" d="M467.461,322.018l-3.9,2.254-1.881-1.086,3.9-2.254Z" transform="translate(-457.064 -293.538)" fill="#00223d"/>
                      </g>
                      <path id="Trazado_86067" data-name="Trazado 86067" d="M520.268,323.278,533.4,315.7a.566.566,0,0,0,0-1.073l-8.979-5.184a2.053,2.053,0,0,0-1.859,0l-13.131,7.581a.566.566,0,0,0,0,1.073l8.979,5.185A2.055,2.055,0,0,0,520.268,323.278Z" transform="translate(-460.2 -282.972)" fill="#e9e9fd"/>
                      <path id="Trazado_86068" data-name="Trazado 86068" d="M509.432,317.46l13.131-7.581a2.053,2.053,0,0,1,1.859,0l8.979,5.184a.8.8,0,0,1,.323.317c.136-.26.032-.552-.323-.756l-8.979-5.184a2.053,2.053,0,0,0-1.859,0l-13.131,7.581c-.355.2-.458.5-.323.756A.8.8,0,0,1,509.432,317.46Z" transform="translate(-460.202 -282.972)" fill="#727997"/>
                    </g>
                  </g>
                  <g id="Grupo_34921" data-name="Grupo 34921" transform="translate(3.072 3.487)" opacity="0.11">
                    <g id="Grupo_34920" data-name="Grupo 34920" clip-path="url(#clip-path)">
                      <g id="Grupo_34919" data-name="Grupo 34919" transform="translate(-30.855 21.764)">
                        <path id="Trazado_86069" data-name="Trazado 86069" d="M479.393,260.978l-58.6,33.836a2.411,2.411,0,0,1-2.168.09L383.65,274.713c-.556-.321-.486-.881.155-1.251l58.6-33.836a2.407,2.407,0,0,1,2.167-.089l34.972,20.191C480.1,260.048,480.034,260.608,479.393,260.978Z" transform="translate(-383.275 -239.32)" fill="url(#linear-gradient-3)"/>
                        <path id="Trazado_86070" data-name="Trazado 86070" d="M432.794,273.417l13.131-7.581a.566.566,0,0,0,0-1.073l-8.979-5.184a2.053,2.053,0,0,0-1.859,0l-13.131,7.581a.566.566,0,0,0,0,1.073l8.979,5.185A2.057,2.057,0,0,0,432.794,273.417Z" transform="translate(-395.454 -245.692)" fill="url(#linear-gradient-4)"/>
                        <path id="Trazado_86071" data-name="Trazado 86071" d="M421.958,267.6l13.131-7.581a2.053,2.053,0,0,1,1.859,0l8.979,5.184a.8.8,0,0,1,.323.317c.136-.259.032-.552-.323-.756l-8.979-5.184a2.053,2.053,0,0,0-1.859,0l-13.131,7.581c-.355.2-.458.5-.323.756A.806.806,0,0,1,421.958,267.6Z" transform="translate(-395.457 -245.692)" fill="#9198db"/>
                        <g id="Grupo_34918" data-name="Grupo 34918" transform="translate(20.542 11.315)">
                          <path id="Trazado_86072" data-name="Trazado 86072" d="M413.584,284.17l48.7-28.117a1.046,1.046,0,0,1,1.049,0l17.342,10.034a.374.374,0,0,1,0,.647L432,294.838a1.05,1.05,0,0,1-1.048,0l-17.366-10.021A.374.374,0,0,1,413.584,284.17Z" transform="translate(-413.397 -255.912)" fill="#adb1f2"/>
                          <path id="Trazado_86073" data-name="Trazado 86073" d="M413.584,284.818l.174.1L462.284,256.9a1.046,1.046,0,0,1,1.049,0l17.168,9.933.174-.1a.374.374,0,0,0,0-.647l-17.342-10.034a1.046,1.046,0,0,0-1.049,0l-48.7,28.117A.374.374,0,0,0,413.584,284.818Z" transform="translate(-413.397 -255.912)" fill="#9198db"/>
                          <g id="Grupo_34917" data-name="Grupo 34917" transform="translate(2.764 2.058)">
                            <path id="Trazado_86074" data-name="Trazado 86074" d="M485.61,269.828l-42.426,24.495,1.681.97L487.291,270.8Z" transform="translate(-425.634 -262.396)" fill="#24126a"/>
                            <path id="Trazado_86075" data-name="Trazado 86075" d="M480.035,266.044l-40.326,23.282,1.681.97,40.326-23.282Z" transform="translate(-424.528 -261.192)" fill="#24126a"/>
                            <path id="Trazado_86076" data-name="Trazado 86076" d="M433.537,302.733l-3.766,2.174,1.681.97,3.766-2.174Z" transform="translate(-421.368 -272.861)" fill="#24126a"/>
                            <path id="Trazado_86077" data-name="Trazado 86077" d="M438.948,307.486,436.326,309l1.681.97,2.622-1.514Z" transform="translate(-423.453 -274.372)" fill="#24126a"/>
                            <path id="Trazado_86078" data-name="Trazado 86078" d="M472.767,263.672l-47.1,27.195,1.681.97,47.1-27.195Z" transform="translate(-420.062 -260.438)" fill="#24126a"/>
                            <path id="Trazado_86079" data-name="Trazado 86079" d="M468.659,261.3l-47.1,27.195,1.681.97,47.1-27.195Z" transform="translate(-418.755 -259.684)" fill="#24126a"/>
                            <path id="Trazado_86080" data-name="Trazado 86080" d="M464.552,258.93l-47.1,27.195,1.681.97,47.1-27.195Z" transform="translate(-417.449 -258.93)" fill="#24126a"/>
                          </g>
                        </g>
                      </g>
                    </g>
                  </g>
                </g>
              </g>
            </g>
            <g id="Grupo_34928" data-name="Grupo 34928" transform="translate(19.57 19.338)">
              <path id="Trazado_86081" data-name="Trazado 86081" d="M460.03,292.332l4.617-2.669.135.8-4.617,2.669Z" transform="translate(-455.038 -249.418)" fill="#42e8e0"/>
              <path id="Trazado_86082" data-name="Trazado 86082" d="M467.889,288.361l2.516-1.454.135.8-2.516,1.454Z" transform="translate(-457.538 -248.542)" fill="#42e8e0"/>
              <path id="Trazado_86083" data-name="Trazado 86083" d="M477.319,283.1l1.82-1.052.135.8-1.82,1.052Z" transform="translate(-460.536 -246.997)" fill="#42e8e0"/>
              <path id="Trazado_86084" data-name="Trazado 86084" d="M475.372,284.551l.622-.36.135.8-.622.36Z" transform="translate(-459.917 -247.678)" fill="#42e8e0"/>
              <path id="Trazado_86085" data-name="Trazado 86085" d="M472.681,285.969l1.13-.653.135.8-1.13.653Z" transform="translate(-459.061 -248.036)" fill="#42e8e0"/>
              <path id="Trazado_86086" data-name="Trazado 86086" d="M465.387,284.094l1.82-1.052.135.8-1.82,1.052Z" transform="translate(-456.742 -247.312)" fill="#42e8e0"/>
              <path id="Trazado_86087" data-name="Trazado 86087" d="M459.123,287.244l3.567-2.061.135.8-3.567,2.061Z" transform="translate(-454.749 -247.993)" fill="#42e8e0"/>
              <g id="Grupo_34925" data-name="Grupo 34925" transform="translate(7.652 24.195)">
                <path id="Trazado_86088" data-name="Trazado 86088" d="M466.621,268.19l3.567-2.061.135.8-3.566,2.061Z" transform="translate(-464.786 -266.128)" fill="#42e8e0"/>
                <path id="Trazado_86089" data-name="Trazado 86089" d="M463.93,270.4l1.13-.653.135.8-1.13.653Z" transform="translate(-463.93 -267.28)" fill="#42e8e0"/>
              </g>
              <path id="Trazado_86090" data-name="Trazado 86090" d="M467.494,273.568l3.567-2.061.135.8-3.566,2.061Z" transform="translate(-457.412 -243.644)" fill="#42e8e0"/>
              <path id="Trazado_86091" data-name="Trazado 86091" d="M464.8,275.78l1.13-.653.135.8-1.13.653Z" transform="translate(-456.556 -244.795)" fill="#42e8e0"/>
              <path id="Trazado_86092" data-name="Trazado 86092" d="M459.564,245.566l-6.719,3.883-.135-.8,6.719-3.883Z" transform="translate(-452.71 -235.139)" fill="#42e8e0"/>
              <path id="Trazado_86093" data-name="Trazado 86093" d="M465.394,243.559l-1.662.961-.135-.8,1.662-.961Z" transform="translate(-456.172 -234.5)" fill="#42e8e0"/>
              <path id="Trazado_86094" data-name="Trazado 86094" d="M480.349,242.417,473.63,246.3l-.135-.8,6.719-3.883Z" transform="translate(-459.32 -234.137)" fill="#42e8e0"/>
              <path id="Trazado_86095" data-name="Trazado 86095" d="M486.179,240.41l-1.662.961-.135-.8,1.662-.961Z" transform="translate(-462.783 -233.499)" fill="#42e8e0"/>
              <path id="Trazado_86096" data-name="Trazado 86096" d="M455.119,252.4l-1.82,1.052-.135-.8,1.82-1.052Z" transform="translate(-452.854 -237.313)" fill="#42e8e0"/>
              <path id="Trazado_86097" data-name="Trazado 86097" d="M471.359,248.92l-1.82,1.052-.135-.8,1.82-1.052Z" transform="translate(-458.019 -236.205)" fill="#42e8e0"/>
              <path id="Trazado_86098" data-name="Trazado 86098" d="M460.569,248.782,457,250.844l-.135-.8,3.566-2.061Z" transform="translate(-454.032 -236.162)" fill="#42e8e0"/>
              <path id="Trazado_86099" data-name="Trazado 86099" d="M464.4,247.227l-1.13.653-.135-.8,1.13-.653Z" transform="translate(-456.024 -235.667)" fill="#42e8e0"/>
              <path id="Trazado_86100" data-name="Trazado 86100" d="M469.572,243.585l-3.567,2.061-.135-.8,3.566-2.061Z" transform="translate(-456.895 -234.509)" fill="#42e8e0"/>
              <path id="Trazado_86101" data-name="Trazado 86101" d="M473.4,242.03l-1.13.653-.135-.8,1.13-.653Z" transform="translate(-458.888 -234.014)" fill="#42e8e0"/>
              <path id="Trazado_86102" data-name="Trazado 86102" d="M470.9,246.233l-1.82,1.052-.135-.8,1.82-1.052Z" transform="translate(-457.875 -235.351)" fill="#42e8e0"/>
              <path id="Trazado_86103" data-name="Trazado 86103" d="M476.355,242.612l-3.567,2.061-.135-.8,3.566-2.061Z" transform="translate(-459.052 -234.199)" fill="#42e8e0"/>
              <path id="Trazado_86104" data-name="Trazado 86104" d="M480.182,241.057l-1.13.653-.135-.8,1.13-.653Z" transform="translate(-461.045 -233.705)" fill="#42e8e0"/>
              <path id="Trazado_86105" data-name="Trazado 86105" d="M457.477,253.475l-3.724,2.153-.135-.8,3.724-2.153Z" transform="translate(-452.998 -237.654)" fill="#42e8e0"/>
              <path id="Trazado_86106" data-name="Trazado 86106" d="M462.941,250.594l-2.693,1.557-.135-.8,2.693-1.557Z" transform="translate(-455.064 -236.738)" fill="#42e8e0"/>
              <path id="Trazado_86107" data-name="Trazado 86107" d="M467.052,248.454l-1.82,1.052-.135-.8,1.82-1.052Z" transform="translate(-456.649 -236.057)" fill="#42e8e0"/>
              <path id="Trazado_86108" data-name="Trazado 86108" d="M492.051,236.472l-3.725,2.153-.135-.8,3.724-2.153Z" transform="translate(-463.994 -232.247)" fill="#42e8e0"/>
              <path id="Trazado_86109" data-name="Trazado 86109" d="M497.515,233.592l-2.693,1.557-.135-.8,2.693-1.557Z" transform="translate(-466.06 -231.33)" fill="#42e8e0"/>
              <path id="Trazado_86110" data-name="Trazado 86110" d="M501.626,231.451l-1.82,1.052-.135-.8,1.82-1.052Z" transform="translate(-467.645 -230.65)" fill="#42e8e0"/>
              <path id="Trazado_86111" data-name="Trazado 86111" d="M491.718,271.329l3.725-2.153.135.8-3.724,2.153Z" transform="translate(-465.116 -242.902)" fill="#42e8e0"/>
              <path id="Trazado_86112" data-name="Trazado 86112" d="M486.734,274.487l2.693-1.557.135.8-2.693,1.557Z" transform="translate(-463.531 -244.096)" fill="#42e8e0"/>
              <path id="Trazado_86113" data-name="Trazado 86113" d="M483.031,276.863l1.82-1.052.135.8-1.82,1.052Z" transform="translate(-462.353 -245.013)" fill="#42e8e0"/>
              <path id="Trazado_86114" data-name="Trazado 86114" d="M489.905,275.335l3.724-2.153.135.8-3.724,2.153Z" transform="translate(-464.539 -244.177)" fill="#42e8e0"/>
              <path id="Trazado_86115" data-name="Trazado 86115" d="M484.921,278.493l2.693-1.557.135.8-2.693,1.557Z" transform="translate(-462.954 -245.371)" fill="#42e8e0"/>
              <path id="Trazado_86116" data-name="Trazado 86116" d="M481.218,280.869l1.82-1.052.135.8-1.82,1.052Z" transform="translate(-461.776 -246.287)" fill="#42e8e0"/>
              <path id="Trazado_86117" data-name="Trazado 86117" d="M467.854,271.033l1.258-.727.135.8-1.258.727Z" transform="translate(-457.526 -243.262)" fill="#42e8e0"/>
              <path id="Trazado_86118" data-name="Trazado 86118" d="M464.381,272.931l1.662-.961.135.8-1.662.961Z" transform="translate(-456.422 -243.791)" fill="#42e8e0"/>
              <path id="Trazado_86119" data-name="Trazado 86119" d="M457.966,256.144l-3.724,2.153-.135-.8,3.724-2.153Z" transform="translate(-453.154 -238.503)" fill="#42e8e0"/>
              <path id="Trazado_86120" data-name="Trazado 86120" d="M463.43,253.264l-2.693,1.557-.135-.8,2.693-1.557Z" transform="translate(-455.22 -237.587)" fill="#42e8e0"/>
              <path id="Trazado_86121" data-name="Trazado 86121" d="M467.541,251.123l-1.82,1.052-.135-.8,1.82-1.052Z" transform="translate(-456.805 -236.906)" fill="#42e8e0"/>
              <path id="Trazado_86122" data-name="Trazado 86122" d="M455.953,260.92l-1.258.727-.135-.8,1.258-.727Z" transform="translate(-453.298 -240.022)" fill="#42e8e0"/>
              <path id="Trazado_86123" data-name="Trazado 86123" d="M459.236,258.914l-1.662.961-.135-.8,1.662-.961Z" transform="translate(-454.214 -239.384)" fill="#42e8e0"/>
              <path id="Trazado_86124" data-name="Trazado 86124" d="M463.724,256.046l-2.679,1.548-.135-.8,2.679-1.548Z" transform="translate(-455.318 -238.472)" fill="#42e8e0"/>
              <path id="Trazado_86125" data-name="Trazado 86125" d="M470.363,278.438l1.258-.727.135.8-1.258.727Z" transform="translate(-458.324 -245.617)" fill="#42e8e0"/>
              <path id="Trazado_86126" data-name="Trazado 86126" d="M466.891,280.336l1.662-.961.135.8-1.662.961Z" transform="translate(-457.22 -246.146)" fill="#42e8e0"/>
              <path id="Trazado_86127" data-name="Trazado 86127" d="M461.929,282.93l2.679-1.548.135.8-2.679,1.548Z" transform="translate(-455.642 -246.784)" fill="#42e8e0"/>
              <path id="Trazado_86128" data-name="Trazado 86128" d="M473.172,273.695l2.679-1.548.135.8-2.679,1.548Z" transform="translate(-459.218 -243.847)" fill="#42e8e0"/>
              <path id="Trazado_86129" data-name="Trazado 86129" d="M466.749,276.946l3.61-2.087.135.8-3.61,2.087Z" transform="translate(-457.175 -244.71)" fill="#42e8e0"/>
              <path id="Trazado_86130" data-name="Trazado 86130" d="M464.058,279.17l1.13-.653.135.8-1.13.653Z" transform="translate(-456.319 -245.873)" fill="#42e8e0"/>
              <path id="Trazado_86131" data-name="Trazado 86131" d="M461.475,280.662l1.13-.653.135.8-1.13.653Z" transform="translate(-455.498 -246.348)" fill="#42e8e0"/>
              <g id="Grupo_34927" data-name="Grupo 34927" transform="translate(1.573 19.155)">
                <path id="Trazado_86132" data-name="Trazado 86132" d="M461.83,264.83l3.567-2.061.135.8-3.567,2.061Z" transform="translate(-457.183 -260.02)" fill="#42e8e0"/>
                <path id="Trazado_86133" data-name="Trazado 86133" d="M459.139,267.042l1.13-.653.135.8-1.13.653Z" transform="translate(-456.327 -261.171)" fill="#42e8e0"/>
                <path id="Trazado_86134" data-name="Trazado 86134" d="M462.19,262.294l1.258-.727.135.8-1.258.727Z" transform="translate(-457.298 -259.638)" fill="#42e8e0"/>
                <path id="Trazado_86135" data-name="Trazado 86135" d="M468.7,264.446l1.258-.727.135.8-1.258.727Z" transform="translate(-459.369 -260.322)" fill="#42e8e0"/>
                <path id="Trazado_86136" data-name="Trazado 86136" d="M471.332,262.454l3.019-1.743.135.8-3.019,1.743Z" transform="translate(-460.205 -259.365)" fill="#42e8e0"/>
                <path id="Trazado_86137" data-name="Trazado 86137" d="M476.543,259.775l1.8-1.037.135.8-1.8,1.037Z" transform="translate(-461.862 -258.738)" fill="#42e8e0"/>
                <path id="Trazado_86138" data-name="Trazado 86138" d="M458.718,264.192l1.662-.961.135.8-1.663.961Z" transform="translate(-456.193 -260.167)" fill="#42e8e0"/>
                <g id="Grupo_34926" data-name="Grupo 34926" transform="translate(0 1.416)">
                  <path id="Trazado_86139" data-name="Trazado 86139" d="M458.488,261.542l1.258-.727.135.8-1.258.727Z" transform="translate(-456.12 -260.815)" fill="#42e8e0"/>
                  <path id="Trazado_86140" data-name="Trazado 86140" d="M455.016,263.439l1.662-.961.135.8-1.662.961Z" transform="translate(-455.016 -261.344)" fill="#42e8e0"/>
                </g>
                <path id="Trazado_86141" data-name="Trazado 86141" d="M466.026,266.026l1.13-.653.135.8-1.13.653Z" transform="translate(-458.517 -260.848)" fill="#42e8e0"/>
                <path id="Trazado_86142" data-name="Trazado 86142" d="M463.443,267.518l1.13-.653.135.8-1.13.653Z" transform="translate(-457.696 -261.322)" fill="#42e8e0"/>
              </g>
              <path id="Trazado_86143" data-name="Trazado 86143" d="M476.167,280.281l3.853-2.227.135.8-3.853,2.227Z" transform="translate(-460.17 -245.726)" fill="#42e8e0"/>
              <path id="Trazado_86144" data-name="Trazado 86144" d="M469.838,284l3.61-2.087.135.8-3.61,2.087Z" transform="translate(-458.157 -246.955)" fill="#42e8e0"/>
              <path id="Trazado_86145" data-name="Trazado 86145" d="M467.147,286.228l1.13-.653.135.8-1.13.653Z" transform="translate(-457.302 -248.118)" fill="#42e8e0"/>
              <path id="Trazado_86146" data-name="Trazado 86146" d="M464.565,287.721l1.13-.653.135.8-1.13.653Z" transform="translate(-456.48 -248.593)" fill="#42e8e0"/>
              <path id="Trazado_86147" data-name="Trazado 86147" d="M462.017,288.841l-2.437,1.409.135.8,2.437-1.409Z" transform="translate(-454.895 -249.157)" fill="#42e8e0"/>
            </g>
          </g>
          <g id="Grupo_34948" data-name="Grupo 34948">
            <g id="Grupo_34930" data-name="Grupo 34930" transform="translate(3.148 57.001)" opacity="0.8">
              <path id="Trazado_86148" data-name="Trazado 86148" d="M293.881,339.506a5.464,5.464,0,0,1-2.724-.728h0l-53.176-30.7a1.65,1.65,0,0,1,0-2.855l33.506-19.345.205.119,55.694,32.154a1.649,1.649,0,0,1,0,2.855L296.6,338.777A5.459,5.459,0,0,1,293.881,339.506Zm-2.313-1.44a4.716,4.716,0,0,0,4.626,0l30.78-17.771a.827.827,0,0,0,0-1.433l-55.488-32.035-.053.03-33.042,19.076a.828.828,0,0,0,0,1.433Z" transform="translate(-237.157 -285.877)" fill="#00223d"/>
            </g>
            <g id="Grupo_34943" data-name="Grupo 34943">
              <g id="Grupo_34942" data-name="Grupo 34942">
                <g id="Grupo_34941" data-name="Grupo 34941">
                  <g id="Grupo_34935" data-name="Grupo 34935">
                    <g id="Grupo_34932" data-name="Grupo 34932" transform="translate(36.467)">
                      <path id="Trazado_86149" data-name="Trazado 86149" d="M287.389,247.083l7.408-43.952-.6-.251.895-.514v.005a.646.646,0,0,1,.69.048L354.991,236.6a1.673,1.673,0,0,1,.769,1.5l-7.468,44.3a.554.554,0,0,1-.312.451h0l-.876.506-.151-.818.051.015-58.849-33.976A1.672,1.672,0,0,1,287.389,247.083Z" transform="translate(-286.448 -202.293)" fill="url(#linear-gradient-5)"/>
                      <path id="Trazado_86150" data-name="Trazado 86150" d="M381.082,254.165l.973-.431a1.341,1.341,0,0,1,.125.733l-7.467,44.3a.554.554,0,0,1-.312.451h0l-.876.506-.151-.818.05.015-2.978-1.719Z" transform="translate(-312.868 -218.653)" fill="#dee4f0"/>
                      <path id="Trazado_86151" data-name="Trazado 86151" d="M286.8,249.367,346,283.55c.458.264.848.111.929-.362l7.467-44.3a1.672,1.672,0,0,0-.769-1.5L294.423,203.2c-.457-.264-.848-.111-.929.362l-7.467,44.3A1.671,1.671,0,0,0,286.8,249.367Z" transform="translate(-286.015 -202.541)" fill="#00223d"/>
                      <g id="Grupo_34931" data-name="Grupo 34931" transform="translate(2.143 3.487)" opacity="0.51">
                        <path id="Trazado_86152" data-name="Trazado 86152" d="M296.2,207.407l57.07,32.95-7.077,41.722-57.032-32.927Z" transform="translate(-289.158 -207.407)" fill="#00223d"/>
                      </g>
                    </g>
                    <g id="Grupo_34934" data-name="Grupo 34934" transform="translate(0 46.673)">
                      <path id="Trazado_86153" data-name="Trazado 86153" d="M232.587,293.678l3.231,1.687,32.4-18.706a2.35,2.35,0,0,1,2.115.087l55.88,32.262c.535-.3,2.973-1.472,2.973-1.472L328,310.619l0,0a.705.705,0,0,1-.331.366l-34.123,19.7a2.35,2.35,0,0,1-2.115-.088l-57.182-33.014a1.025,1.025,0,0,1-.48-.51l0,0Z" transform="translate(-232.555 -272.55)" fill="#00223d"/>
                      <path id="Trazado_86154" data-name="Trazado 86154" d="M233.071,292.391l58.6,33.835a2.41,2.41,0,0,0,2.167.09l34.972-20.191c.555-.32.486-.881-.155-1.251l-58.6-33.835a2.4,2.4,0,0,0-2.167-.09L232.916,291.14C232.36,291.46,232.43,292.02,233.071,292.391Z" transform="translate(-232.541 -270.732)" fill="url(#linear-gradient-6)"/>
                      <path id="Trazado_86155" data-name="Trazado 86155" d="M233.074,301.746l58.6,33.836a2.41,2.41,0,0,0,2.167.09l34.972-20.191a.723.723,0,0,0,.34-.378.591.591,0,0,1-.34.716l-34.972,20.191a2.41,2.41,0,0,1-2.167-.09l-58.6-33.835c-.432-.25-.6-.583-.5-.874A1.031,1.031,0,0,0,233.074,301.746Z" transform="translate(-232.544 -280.426)" fill="#fff"/>
                      <path id="Trazado_86156" data-name="Trazado 86156" d="M344.04,341.04V340.4c0-.061-.037-.089-.082-.062l-2.267,1.308a.2.2,0,0,0-.083.158v.643c0,.061.037.089.083.063l2.267-1.309A.2.2,0,0,0,344.04,341.04Z" transform="translate(-267.228 -292.865)" fill="#21587b"/>
                      <path id="Trazado_86157" data-name="Trazado 86157" d="M339.07,343.91v-.643c0-.061-.037-.089-.082-.063l-2.267,1.309a.2.2,0,0,0-.083.158v.643c0,.061.037.089.083.062l2.267-1.309A.2.2,0,0,0,339.07,343.91Z" transform="translate(-265.647 -293.778)" fill="#21587b"/>
                      <path id="Trazado_86158" data-name="Trazado 86158" d="M328.968,306.68l-48.7-28.117a1.048,1.048,0,0,0-1.049,0L261.876,288.6a.373.373,0,0,0,0,.647l48.677,28.1a1.05,1.05,0,0,0,1.048,0l17.365-10.021A.374.374,0,0,0,328.968,306.68Z" transform="translate(-241.811 -273.178)" fill="#d2e1f1"/>
                      <path id="Trazado_86159" data-name="Trazado 86159" d="M328.967,307.328l-.174.1-48.526-28.016a1.048,1.048,0,0,0-1.049,0l-17.168,9.933-.174-.1a.373.373,0,0,1,0-.647l17.342-10.034a1.048,1.048,0,0,1,1.049,0l48.7,28.117A.374.374,0,0,1,328.967,307.328Z" transform="translate(-241.811 -273.178)" fill="#727997"/>
                      <g id="Grupo_34933" data-name="Grupo 34933" transform="translate(22.477 9.197)">
                        <path id="Trazado_86160" data-name="Trazado 86160" d="M291.447,285.3l41.223,23.8,1.781-1.144-41.115-23.737Z" transform="translate(-273.752 -284.218)" fill="#00223d"/>
                        <path id="Trazado_86161" data-name="Trazado 86161" d="M287.522,290.839l37.426,21.608,1.282-1.432L289.4,289.752Z" transform="translate(-272.503 -285.978)" fill="#00223d"/>
                        <path id="Trazado_86162" data-name="Trazado 86162" d="M274.308,288.3l46.717,26.972,1.881-1.086L276.189,287.21Z" transform="translate(-268.301 -285.17)" fill="#00223d"/>
                        <path id="Trazado_86163" data-name="Trazado 86163" d="M269.9,290.838l46.717,26.972,1.881-1.086-46.717-26.972Z" transform="translate(-266.9 -285.978)" fill="#00223d"/>
                        <path id="Trazado_86164" data-name="Trazado 86164" d="M265.5,293.381l46.717,26.972,1.881-1.086L267.38,292.3Z" transform="translate(-265.499 -286.787)" fill="#00223d"/>
                        <path id="Trazado_86165" data-name="Trazado 86165" d="M351.253,319.827l1.881,1.086,1.881-1.086-1.881-1.086Z" transform="translate(-292.772 -295.198)" fill="#00223d"/>
                        <path id="Trazado_86166" data-name="Trazado 86166" d="M341.525,322.018l3.9,2.254,1.881-1.086-3.9-2.254Z" transform="translate(-289.678 -295.895)" fill="#00223d"/>
                      </g>
                      <path id="Trazado_86167" data-name="Trazado 86167" d="M279.879,323.278,266.747,315.7a.566.566,0,0,1,0-1.073l8.979-5.184a2.052,2.052,0,0,1,1.858,0l13.131,7.581a.566.566,0,0,1,0,1.073l-8.979,5.185A2.054,2.054,0,0,1,279.879,323.278Z" transform="translate(-243.297 -282.972)" fill="url(#linear-gradient-7)"/>
                      <path id="Trazado_86168" data-name="Trazado 86168" d="M290.719,317.46l-13.131-7.581a2.051,2.051,0,0,0-1.858,0l-8.979,5.184a.8.8,0,0,0-.323.317c-.136-.26-.033-.552.323-.756l8.979-5.184a2.052,2.052,0,0,1,1.858,0l13.131,7.581c.355.2.459.5.323.756A.8.8,0,0,0,290.719,317.46Z" transform="translate(-243.299 -282.972)" fill="#727997"/>
                    </g>
                  </g>
                  <g id="Grupo_34940" data-name="Grupo 34940" transform="translate(38.611 3.487)" opacity="0.11">
                    <g id="Grupo_34939" data-name="Grupo 34939" clip-path="url(#clip-path-2)">
                      <g id="Grupo_34938" data-name="Grupo 34938" transform="translate(-1.685 21.764)">
                        <path id="Trazado_86169" data-name="Trazado 86169" d="M287.217,260.978l58.6,33.836a2.41,2.41,0,0,0,2.167.09l34.972-20.191c.555-.321.486-.881-.155-1.251l-58.6-33.836a2.409,2.409,0,0,0-2.168-.089l-34.971,20.191C286.506,260.048,286.576,260.608,287.217,260.978Z" transform="translate(-286.687 -239.32)" fill="url(#linear-gradient-8)"/>
                        <path id="Trazado_86170" data-name="Trazado 86170" d="M367.353,273.417l-13.131-7.581a.567.567,0,0,1,0-1.073l8.98-5.184a2.052,2.052,0,0,1,1.858,0l13.131,7.581a.566.566,0,0,1,0,1.073l-8.979,5.185A2.055,2.055,0,0,1,367.353,273.417Z" transform="translate(-308.043 -245.692)" fill="url(#linear-gradient-9)"/>
                        <path id="Trazado_86171" data-name="Trazado 86171" d="M378.192,267.6l-13.131-7.581a2.052,2.052,0,0,0-1.858,0l-8.98,5.184a.805.805,0,0,0-.323.317c-.136-.259-.032-.552.323-.756l8.98-5.184a2.052,2.052,0,0,1,1.858,0l13.131,7.581c.355.2.458.5.323.756A.8.8,0,0,0,378.192,267.6Z" transform="translate(-308.045 -245.692)" fill="#9198db"/>
                        <g id="Grupo_34937" data-name="Grupo 34937" transform="translate(8.642 11.315)">
                          <path id="Trazado_86172" data-name="Trazado 86172" d="M366.637,284.17l-48.7-28.117a1.048,1.048,0,0,0-1.05,0l-17.342,10.034a.374.374,0,0,0,0,.647l48.678,28.1a1.05,1.05,0,0,0,1.048,0l17.365-10.021A.374.374,0,0,0,366.637,284.17Z" transform="translate(-299.359 -255.912)" fill="#adb1f2"/>
                          <path id="Trazado_86173" data-name="Trazado 86173" d="M366.637,284.818l-.175.1L317.937,256.9a1.048,1.048,0,0,0-1.05,0l-17.167,9.933-.175-.1a.374.374,0,0,1,0-.647l17.342-10.034a1.048,1.048,0,0,1,1.05,0l48.7,28.117A.374.374,0,0,1,366.637,284.818Z" transform="translate(-299.359 -255.912)" fill="#9198db"/>
                          <g id="Grupo_34936" data-name="Grupo 34936" transform="translate(3.044 2.058)">
                            <path id="Trazado_86174" data-name="Trazado 86174" d="M305.5,269.828l42.426,24.495-1.681.97L303.823,270.8Z" transform="translate(-303.823 -262.396)" fill="#24126a"/>
                            <path id="Trazado_86175" data-name="Trazado 86175" d="M312.059,266.044l40.326,23.282-1.681.97-40.326-23.282Z" transform="translate(-305.908 -261.192)" fill="#24126a"/>
                            <path id="Trazado_86176" data-name="Trazado 86176" d="M375.606,302.733l3.766,2.174-1.681.97-3.766-2.174Z" transform="translate(-326.119 -272.861)" fill="#24126a"/>
                            <path id="Trazado_86177" data-name="Trazado 86177" d="M370.728,307.486,373.351,309l-1.681.97-2.623-1.514Z" transform="translate(-324.567 -274.372)" fill="#24126a"/>
                            <path id="Trazado_86178" data-name="Trazado 86178" d="M316.166,263.672l47.1,27.195-1.681.97-47.1-27.195Z" transform="translate(-307.214 -260.438)" fill="#24126a"/>
                            <path id="Trazado_86179" data-name="Trazado 86179" d="M320.273,261.3l47.1,27.195-1.681.97-47.1-27.195Z" transform="translate(-308.521 -259.684)" fill="#24126a"/>
                            <path id="Trazado_86180" data-name="Trazado 86180" d="M324.381,258.93l47.1,27.195-1.681.97L322.7,259.9Z" transform="translate(-309.827 -258.93)" fill="#24126a"/>
                          </g>
                        </g>
                      </g>
                    </g>
                  </g>
                </g>
              </g>
            </g>
            <g id="Grupo_34947" data-name="Grupo 34947" transform="translate(53.435 18.15)">
              <path id="Trazado_86181" data-name="Trazado 86181" d="M318.216,229.71l4.617,2.669.135-.8-4.617-2.669Z" transform="translate(-313.224 -228.908)" fill="#42e8e0"/>
              <path id="Trazado_86182" data-name="Trazado 86182" d="M326.075,234.248l2.516,1.454.135-.8-2.516-1.454Z" transform="translate(-315.723 -230.351)" fill="#42e8e0"/>
              <path id="Trazado_86183" data-name="Trazado 86183" d="M335.5,239.693l1.82,1.052.135-.8-1.82-1.052Z" transform="translate(-318.722 -232.083)" fill="#42e8e0"/>
              <path id="Trazado_86184" data-name="Trazado 86184" d="M333.558,238.568l.622.36.135-.8-.622-.359Z" transform="translate(-318.103 -231.725)" fill="#42e8e0"/>
              <path id="Trazado_86185" data-name="Trazado 86185" d="M330.867,237.012l1.13.653.135-.8-1.13-.653Z" transform="translate(-317.247 -231.23)" fill="#42e8e0"/>
              <path id="Trazado_86186" data-name="Trazado 86186" d="M323.573,238.7l1.82,1.052.135-.8-1.82-1.052Z" transform="translate(-314.927 -231.768)" fill="#42e8e0"/>
              <path id="Trazado_86187" data-name="Trazado 86187" d="M317.309,235.081l3.567,2.061.135-.8-3.567-2.061Z" transform="translate(-312.935 -230.616)" fill="#42e8e0"/>
              <g id="Grupo_34944" data-name="Grupo 34944" transform="translate(7.652 15.597)">
                <path id="Trazado_86188" data-name="Trazado 86188" d="M324.807,254.135l3.566,2.061.135-.8-3.567-2.061Z" transform="translate(-322.972 -252.273)" fill="#42e8e0"/>
                <path id="Trazado_86189" data-name="Trazado 86189" d="M322.116,252.58l1.13.653.135-.8-1.13-.653Z" transform="translate(-322.116 -251.778)" fill="#42e8e0"/>
              </g>
              <path id="Trazado_86190" data-name="Trazado 86190" d="M325.679,248.757l3.566,2.061.135-.8-3.566-2.061Z" transform="translate(-315.597 -234.965)" fill="#42e8e0"/>
              <path id="Trazado_86191" data-name="Trazado 86191" d="M322.989,247.2l1.13.653.135-.8-1.13-.653Z" transform="translate(-314.742 -234.471)" fill="#42e8e0"/>
              <path id="Trazado_86192" data-name="Trazado 86192" d="M317.75,275.909l-6.719-3.883-.135.8,6.719,3.883Z" transform="translate(-310.896 -242.621)" fill="#42e8e0"/>
              <path id="Trazado_86193" data-name="Trazado 86193" d="M323.58,279.279l-1.662-.961-.135.8,1.662.961Z" transform="translate(-314.358 -244.622)" fill="#42e8e0"/>
              <path id="Trazado_86194" data-name="Trazado 86194" d="M338.535,279.059l-6.719-3.883-.135.8,6.719,3.883Z" transform="translate(-317.506 -243.623)" fill="#42e8e0"/>
              <path id="Trazado_86195" data-name="Trazado 86195" d="M344.365,282.428l-1.662-.961-.135.8,1.662.961Z" transform="translate(-320.968 -245.624)" fill="#42e8e0"/>
              <path id="Trazado_86196" data-name="Trazado 86196" d="M313.3,270.393l-1.82-1.052-.135.8,1.82,1.052Z" transform="translate(-311.04 -241.767)" fill="#42e8e0"/>
              <path id="Trazado_86197" data-name="Trazado 86197" d="M329.545,273.876l-1.82-1.052-.135.8,1.82,1.052Z" transform="translate(-316.205 -242.875)" fill="#42e8e0"/>
              <path id="Trazado_86198" data-name="Trazado 86198" d="M318.755,273.543l-3.567-2.061-.135.8,3.567,2.061Z" transform="translate(-312.218 -242.448)" fill="#42e8e0"/>
              <path id="Trazado_86199" data-name="Trazado 86199" d="M322.582,275.755l-1.13-.653-.135.8,1.13.653Z" transform="translate(-314.21 -243.599)" fill="#42e8e0"/>
              <path id="Trazado_86200" data-name="Trazado 86200" d="M327.758,278.74l-3.567-2.061-.135.8,3.566,2.061Z" transform="translate(-315.081 -244.101)" fill="#42e8e0"/>
              <path id="Trazado_86201" data-name="Trazado 86201" d="M331.585,280.952l-1.13-.653-.135.8,1.13.653Z" transform="translate(-317.073 -245.252)" fill="#42e8e0"/>
              <path id="Trazado_86202" data-name="Trazado 86202" d="M329.091,276.563l-1.82-1.052-.135.8,1.82,1.052Z" transform="translate(-316.06 -243.729)" fill="#42e8e0"/>
              <path id="Trazado_86203" data-name="Trazado 86203" d="M334.54,279.713l-3.566-2.061-.135.8,3.567,2.061Z" transform="translate(-317.238 -244.41)" fill="#42e8e0"/>
              <path id="Trazado_86204" data-name="Trazado 86204" d="M338.368,281.925l-1.13-.653-.135.8,1.13.653Z" transform="translate(-319.231 -245.562)" fill="#42e8e0"/>
              <path id="Trazado_86205" data-name="Trazado 86205" d="M315.663,268.808l-3.724-2.153-.135.8,3.724,2.153Z" transform="translate(-311.184 -240.913)" fill="#42e8e0"/>
              <path id="Trazado_86206" data-name="Trazado 86206" d="M321.127,271.966l-2.693-1.557-.135.8,2.693,1.557Z" transform="translate(-313.25 -242.107)" fill="#42e8e0"/>
              <path id="Trazado_86207" data-name="Trazado 86207" d="M325.238,274.342l-1.82-1.052-.135.8,1.82,1.052Z" transform="translate(-314.835 -243.023)" fill="#42e8e0"/>
              <path id="Trazado_86208" data-name="Trazado 86208" d="M350.237,285.81l-3.724-2.153-.135.8,3.724,2.153Z" transform="translate(-322.18 -246.32)" fill="#42e8e0"/>
              <path id="Trazado_86209" data-name="Trazado 86209" d="M355.7,288.968l-2.693-1.557-.135.8,2.693,1.557Z" transform="translate(-324.246 -247.514)" fill="#42e8e0"/>
              <path id="Trazado_86210" data-name="Trazado 86210" d="M359.812,291.344l-1.82-1.052-.135.8,1.82,1.052Z" transform="translate(-325.831 -248.43)" fill="#42e8e0"/>
              <path id="Trazado_86211" data-name="Trazado 86211" d="M349.9,250.954l3.724,2.153.135-.8-3.724-2.153Z" transform="translate(-323.302 -235.664)" fill="#42e8e0"/>
              <path id="Trazado_86212" data-name="Trazado 86212" d="M344.92,248.073l2.693,1.557.135-.8-2.693-1.557Z" transform="translate(-321.717 -234.748)" fill="#42e8e0"/>
              <path id="Trazado_86213" data-name="Trazado 86213" d="M341.216,245.933l1.82,1.052.135-.8-1.82-1.052Z" transform="translate(-320.539 -234.067)" fill="#42e8e0"/>
              <path id="Trazado_86214" data-name="Trazado 86214" d="M348.091,246.948l3.724,2.153.135-.8-3.724-2.153Z" transform="translate(-322.725 -234.39)" fill="#42e8e0"/>
              <path id="Trazado_86215" data-name="Trazado 86215" d="M343.107,244.067l2.693,1.557.135-.8-2.693-1.557Z" transform="translate(-321.14 -233.474)" fill="#42e8e0"/>
              <path id="Trazado_86216" data-name="Trazado 86216" d="M339.4,241.927l1.82,1.052.135-.8-1.82-1.052Z" transform="translate(-319.962 -232.793)" fill="#42e8e0"/>
              <path id="Trazado_86217" data-name="Trazado 86217" d="M326.039,251.915l1.258.727.135-.8-1.258-.727Z" transform="translate(-315.712 -235.97)" fill="#42e8e0"/>
              <path id="Trazado_86218" data-name="Trazado 86218" d="M322.567,249.908l1.662.961.135-.8-1.662-.961Z" transform="translate(-314.608 -235.332)" fill="#42e8e0"/>
              <path id="Trazado_86219" data-name="Trazado 86219" d="M316.151,266.138l-3.724-2.153-.135.8,3.724,2.153Z" transform="translate(-311.34 -240.064)" fill="#42e8e0"/>
              <path id="Trazado_86220" data-name="Trazado 86220" d="M321.616,269.3l-2.693-1.557-.135.8,2.693,1.557Z" transform="translate(-313.406 -241.258)" fill="#42e8e0"/>
              <path id="Trazado_86221" data-name="Trazado 86221" d="M325.727,271.672l-1.82-1.052-.135.8,1.82,1.052Z" transform="translate(-314.991 -242.174)" fill="#42e8e0"/>
              <path id="Trazado_86222" data-name="Trazado 86222" d="M314.138,262.027l-1.258-.727-.135.8,1.258.727Z" transform="translate(-311.484 -239.21)" fill="#42e8e0"/>
              <path id="Trazado_86223" data-name="Trazado 86223" d="M317.422,263.925l-1.662-.961-.135.8,1.662.961Z" transform="translate(-312.4 -239.739)" fill="#42e8e0"/>
              <path id="Trazado_86224" data-name="Trazado 86224" d="M321.91,266.519l-2.679-1.548-.135.8,2.679,1.548Z" transform="translate(-313.504 -240.377)" fill="#42e8e0"/>
              <path id="Trazado_86225" data-name="Trazado 86225" d="M328.549,244.509l1.258.727.135-.8-1.258-.727Z" transform="translate(-316.51 -233.615)" fill="#42e8e0"/>
              <path id="Trazado_86226" data-name="Trazado 86226" d="M325.077,242.5l1.662.961.135-.8-1.662-.961Z" transform="translate(-315.406 -232.977)" fill="#42e8e0"/>
              <path id="Trazado_86227" data-name="Trazado 86227" d="M320.115,239.635l2.679,1.548.135-.8-2.679-1.548Z" transform="translate(-313.828 -232.064)" fill="#42e8e0"/>
              <path id="Trazado_86228" data-name="Trazado 86228" d="M331.358,248.869l2.678,1.548.135-.8-2.679-1.548Z" transform="translate(-317.404 -235.001)" fill="#42e8e0"/>
              <path id="Trazado_86229" data-name="Trazado 86229" d="M324.934,245.367l3.61,2.087.135-.8-3.61-2.087Z" transform="translate(-315.361 -233.888)" fill="#42e8e0"/>
              <path id="Trazado_86230" data-name="Trazado 86230" d="M322.243,243.812l1.13.653.135-.8-1.13-.653Z" transform="translate(-314.505 -233.393)" fill="#42e8e0"/>
              <path id="Trazado_86231" data-name="Trazado 86231" d="M319.661,242.32l1.13.653.135-.8-1.13-.653Z" transform="translate(-313.683 -232.918)" fill="#42e8e0"/>
              <g id="Grupo_34946" data-name="Grupo 34946" transform="translate(1.573 17.563)">
                <path id="Trazado_86232" data-name="Trazado 86232" d="M320.016,257.5l3.567,2.061.135-.8-3.567-2.061Z" transform="translate(-315.369 -255.308)" fill="#42e8e0"/>
                <path id="Trazado_86233" data-name="Trazado 86233" d="M317.325,255.94l1.13.653.135-.8-1.13-.653Z" transform="translate(-314.513 -254.813)" fill="#42e8e0"/>
                <path id="Trazado_86234" data-name="Trazado 86234" d="M320.376,260.653l1.258.727.135-.8-1.258-.727Z" transform="translate(-315.483 -256.312)" fill="#42e8e0"/>
                <path id="Trazado_86235" data-name="Trazado 86235" d="M326.888,258.5l1.258.727.135-.8-1.258-.727Z" transform="translate(-317.554 -255.628)" fill="#42e8e0"/>
                <path id="Trazado_86236" data-name="Trazado 86236" d="M329.518,260.019l3.018,1.743.135-.8-3.019-1.743Z" transform="translate(-318.391 -256.111)" fill="#42e8e0"/>
                <path id="Trazado_86237" data-name="Trazado 86237" d="M334.729,263.028l1.8,1.037.135-.8-1.8-1.037Z" transform="translate(-320.048 -257.067)" fill="#42e8e0"/>
                <path id="Trazado_86238" data-name="Trazado 86238" d="M316.9,258.646l1.662.961.135-.8-1.662-.961Z" transform="translate(-314.379 -255.674)" fill="#42e8e0"/>
                <g id="Grupo_34945" data-name="Grupo 34945" transform="translate(0 2.684)">
                  <path id="Trazado_86239" data-name="Trazado 86239" d="M316.674,261.406l1.258.727.135-.8-1.258-.727Z" transform="translate(-314.306 -259.235)" fill="#42e8e0"/>
                  <path id="Trazado_86240" data-name="Trazado 86240" d="M313.2,259.4l1.662.961.135-.8-1.662-.961Z" transform="translate(-313.202 -258.597)" fill="#42e8e0"/>
                </g>
                <path id="Trazado_86241" data-name="Trazado 86241" d="M324.211,256.956l1.13.653.135-.8-1.13-.653Z" transform="translate(-316.703 -255.137)" fill="#42e8e0"/>
                <path id="Trazado_86242" data-name="Trazado 86242" d="M321.629,255.464l1.13.653.135-.8-1.13-.653Z" transform="translate(-315.882 -254.662)" fill="#42e8e0"/>
              </g>
              <path id="Trazado_86243" data-name="Trazado 86243" d="M334.352,241.966l3.853,2.227.135-.8-3.853-2.227Z" transform="translate(-318.356 -232.806)" fill="#42e8e0"/>
              <path id="Trazado_86244" data-name="Trazado 86244" d="M328.024,238.309l3.61,2.087.135-.8-3.61-2.087Z" transform="translate(-316.343 -231.643)" fill="#42e8e0"/>
              <path id="Trazado_86245" data-name="Trazado 86245" d="M325.333,236.754l1.13.653.135-.8-1.13-.653Z" transform="translate(-315.487 -231.148)" fill="#42e8e0"/>
              <path id="Trazado_86246" data-name="Trazado 86246" d="M322.751,235.261l1.13.653.135-.8-1.13-.653Z" transform="translate(-314.666 -230.673)" fill="#42e8e0"/>
              <path id="Trazado_86247" data-name="Trazado 86247" d="M320.2,233.788l-2.437-1.409.135-.8,2.437,1.409Z" transform="translate(-313.08 -229.757)" fill="#42e8e0"/>
            </g>
          </g>
        </g>
        <path id="Trazado_86248" data-name="Trazado 86248" d="M285.474,281.849l1.881,1.086,1.881-1.086-1.881-1.086Z" transform="translate(-249.375 -175.782)" fill="#00223d"/>
        <path id="Trazado_86249" data-name="Trazado 86249" d="M278.712,285.753l3.9,2.254,1.881-1.086-3.9-2.254Z" transform="translate(-247.225 -177.024)" fill="#00223d"/>
      </g>
    </g>
  </g>
</svg>
