<svg xmlns="http://www.w3.org/2000/svg" xmlns:xlink="http://www.w3.org/1999/xlink" width="320.529" height="204.288" viewBox="0 0 320.529 204.288">
  <defs>
    <linearGradient id="linear-gradient" x1="-0.06" y1="0.5" x2="0.645" y2="0.5" gradientUnits="objectBoundingBox">
      <stop offset="0" stop-color="#fff"/>
      <stop offset="1" stop-color="#d2e6ee"/>
    </linearGradient>
    <linearGradient id="linear-gradient-2" x1="0.5" y1="0" x2="0.5" y2="1" xlink:href="#linear-gradient"/>
    <linearGradient id="linear-gradient-3" x1="-0.06" y1="0.5" x2="0.645" y2="0.5" xlink:href="#linear-gradient"/>
  </defs>
  <g id="Grupo_39006" data-name="Grupo 39006" transform="translate(-99.852 -63.489)">
    <path id="Trazado_81325" data-name="Trazado 81325" d="M245.868,274.684l-.156-.09-93.539-54,.311-.54,93.382,53.915,107.813-62.574.313.539Z" transform="translate(-9.759 -27.587)" fill="#00223d"/>
    <path id="Trazado_81326" data-name="Trazado 81326" d="M397.238,189.021l-.313-.539L425,172.187,332.7,118.9l.311-.54,93.23,53.826Z" transform="translate(-43.432 -10.235)" fill="#00223d"/>
    <path id="Trazado_81327" data-name="Trazado 81327" d="M136.311,199.15l-17.777-10.264,108.143-62.766.313.539L119.779,188.885l16.844,9.725Z" transform="translate(-3.485 -11.682)" fill="#00223d"/>
    <g id="Grupo_33076" data-name="Grupo 33076" transform="translate(340.475 132.56)">
      <path id="Trazado_81328" data-name="Trazado 81328" d="M426.31,219.158a7.751,7.751,0,0,1-3.788-.9L397.309,203.7a2.517,2.517,0,0,1,0-4.734L441.1,173.678a8.382,8.382,0,0,1,7.576,0l25.214,14.556a2.518,2.518,0,0,1,0,4.735L430.1,218.254A7.751,7.751,0,0,1,426.31,219.158Zm18.582-45.771a7.105,7.105,0,0,0-3.477.831L397.621,199.5a1.912,1.912,0,0,0,0,3.654l25.212,14.556a7.691,7.691,0,0,0,6.954,0l43.794-25.284a1.912,1.912,0,0,0,0-3.655l-25.213-14.556A7.1,7.1,0,0,0,444.892,173.387Z" transform="translate(-395.648 -152.944)" fill="#00223d"/>
      <g id="Grupo_33075" data-name="Grupo 33075" transform="translate(0.436)">
        <path id="Trazado_81329" data-name="Trazado 81329" d="M475.466,180.891h0l0-12.088-15.275,2.038-11.438-6.6a8.029,8.029,0,0,0-7.265,0l-20.5,11.834-24.8,3.308v12.308l.009,0a2.578,2.578,0,0,0,1.494,2.031L422.9,208.273a8.029,8.029,0,0,0,7.265,0l43.794-25.285a2.578,2.578,0,0,0,1.493-2.024l.012,0Z" transform="translate(-396.184 -151.189)" fill="url(#linear-gradient)"/>
        <path id="Trazado_81330" data-name="Trazado 81330" d="M473.96,163.822l-25.213-14.556a8.029,8.029,0,0,0-7.265,0L397.688,174.55c-2.006,1.158-2.006,3.037,0,4.2L422.9,193.3a8.029,8.029,0,0,0,7.265,0l43.794-25.284C475.966,166.859,475.966,164.981,473.96,163.822Z" transform="translate(-396.184 -148.397)" fill="url(#linear-gradient-2)"/>
        <path id="Trazado_81331" data-name="Trazado 81331" d="M473.961,171.218,430.167,196.5a8.029,8.029,0,0,1-7.265,0l-25.213-14.556a2.785,2.785,0,0,1-1.461-1.731,2.365,2.365,0,0,0,1.461,2.464L422.9,197.235a8.029,8.029,0,0,0,7.265,0l43.794-25.284a2.365,2.365,0,0,0,1.461-2.464A2.785,2.785,0,0,1,473.961,171.218Z" transform="translate(-396.184 -152.331)" fill="#fff"/>
        <g id="Grupo_33070" data-name="Grupo 33070" transform="translate(47.563 28.512)">
          <path id="Trazado_81332" data-name="Trazado 81332" d="M455.846,198.936l-1.194.689v-1.378l1.194-.689Z" transform="translate(-454.653 -186.078)" fill="#fff"/>
          <path id="Trazado_81333" data-name="Trazado 81333" d="M458.916,197.163l-1.194.689v-1.378l1.194-.689Z" transform="translate(-455.225 -185.748)" fill="#fff"/>
          <path id="Trazado_81334" data-name="Trazado 81334" d="M461.985,195.391l-1.194.689V194.7l1.194-.689Z" transform="translate(-455.798 -185.417)" fill="#fff"/>
          <path id="Trazado_81335" data-name="Trazado 81335" d="M459.476,200.273l-1.194.689v-1.378l1.194-.689Z" transform="translate(-455.33 -186.328)" fill="#fff"/>
          <path id="Trazado_81336" data-name="Trazado 81336" d="M462.179,198.713l-1.194.689v-1.378l1.194-.689Z" transform="translate(-455.834 -186.037)" fill="#fff"/>
          <path id="Trazado_81337" data-name="Trazado 81337" d="M471.832,189.706l-1.194.689v-1.378l1.194-.689Z" transform="translate(-457.634 -184.357)" fill="#fff"/>
          <path id="Trazado_81338" data-name="Trazado 81338" d="M480.288,184.824l-1.194.689v-1.378l1.194-.689Z" transform="translate(-459.211 -183.446)" fill="#fff"/>
          <path id="Trazado_81339" data-name="Trazado 81339" d="M465.055,193.619l-1.194.689V192.93l1.194-.689Z" transform="translate(-456.37 -185.086)" fill="#fff"/>
        </g>
        <g id="Grupo_33074" data-name="Grupo 33074" transform="translate(37.669 6.372)">
          <g id="Grupo_33071" data-name="Grupo 33071" transform="translate(0 5.775)">
            <path id="Trazado_81340" data-name="Trazado 81340" d="M444.131,163.329l17.813,10.261-1.641.95L442.49,164.279Z" transform="translate(-442.49 -163.329)" fill="#21587b"/>
            <path id="Trazado_81341" data-name="Trazado 81341" d="M443.108,164.635l1.119-.647,17.195,9.9.523-.3-17.813-10.261-1.642.95Z" transform="translate(-442.49 -163.329)" fill="#fff"/>
          </g>
          <g id="Grupo_33072" data-name="Grupo 33072" transform="translate(4.99 2.888)">
            <path id="Trazado_81342" data-name="Trazado 81342" d="M450.266,159.78l17.813,10.261-1.641.95-17.813-10.261Z" transform="translate(-448.624 -159.78)" fill="#21587b"/>
            <path id="Trazado_81343" data-name="Trazado 81343" d="M449.243,161.086l1.119-.647,17.195,9.9.523-.3-17.813-10.261-1.641.95Z" transform="translate(-448.624 -159.779)" fill="#fff"/>
          </g>
          <g id="Grupo_33073" data-name="Grupo 33073" transform="translate(9.981)">
            <path id="Trazado_81344" data-name="Trazado 81344" d="M456.4,156.23l17.813,10.261-1.641.95L454.759,157.18Z" transform="translate(-454.759 -156.23)" fill="#21587b"/>
            <path id="Trazado_81345" data-name="Trazado 81345" d="M455.377,157.536l1.119-.647,17.195,9.9.523-.3L456.4,156.23l-1.641.95Z" transform="translate(-454.759 -156.23)" fill="#fff"/>
          </g>
        </g>
      </g>
      <path id="Trazado_81346" data-name="Trazado 81346" d="M428.781,191.6a2.608,2.608,0,0,1-1.282-.3L410.536,181.5a1.013,1.013,0,0,1-.576-.867,1.321,1.321,0,0,1,.769-1.071L427.3,170a3.188,3.188,0,0,1,2.912-.112l16.963,9.793a1.013,1.013,0,0,1,.576.867,1.32,1.32,0,0,1-.769,1.071l-16.576,9.571A3.338,3.338,0,0,1,428.781,191.6Zm-1.06-.684a2.791,2.791,0,0,0,2.468-.112l16.576-9.571c.343-.2.548-.454.548-.686a.6.6,0,0,0-.355-.482L430,170.268a2.792,2.792,0,0,0-2.468.111l-16.576,9.571c-.347.2-.547.451-.547.686a.609.609,0,0,0,.355.483Z" transform="translate(-398.318 -152.349)" fill="#21587b"/>
      <path id="Trazado_81347" data-name="Trazado 81347" d="M420.1,206.592l-14-8.082a1.448,1.448,0,0,1-.605-1.156v-1.039c0-.446.271-.651.605-.458l14,8.082a1.448,1.448,0,0,1,.605,1.156v1.04C420.71,206.58,420.439,206.785,420.1,206.592Z" transform="translate(-397.486 -157.236)" fill="#21587b"/>
    </g>
    <g id="Grupo_33083" data-name="Grupo 33083" transform="translate(220.259 63.489)">
      <path id="Trazado_81348" data-name="Trazado 81348" d="M278.529,134.249a7.742,7.742,0,0,1-3.788-.9l-25.213-14.556a2.517,2.517,0,0,1,0-4.734l43.794-25.286a8.392,8.392,0,0,1,7.576,0l25.213,14.557a2.518,2.518,0,0,1,0,4.734l-43.794,25.284A7.74,7.74,0,0,1,278.529,134.249Zm18.581-45.77a7.1,7.1,0,0,0-3.476.831L249.84,114.6a1.912,1.912,0,0,0,0,3.654L275.052,132.8a7.691,7.691,0,0,0,6.954,0L325.8,107.52a1.912,1.912,0,0,0,0-3.654L300.587,89.31A7.1,7.1,0,0,0,297.11,88.479Z" transform="translate(-247.867 -68.036)" fill="#00223d"/>
      <g id="Grupo_33082" data-name="Grupo 33082" transform="translate(0.435)">
        <path id="Trazado_81349" data-name="Trazado 81349" d="M327.684,95.982h0l0-12.087-15.275,2.038-11.438-6.6a8.029,8.029,0,0,0-7.265,0l-20.5,11.833-24.8,3.309v12.308l.01,0a2.579,2.579,0,0,0,1.494,2.031l25.212,14.556a8.028,8.028,0,0,0,7.265,0l43.8-25.285a2.582,2.582,0,0,0,1.493-2.025h.011Z" transform="translate(-248.402 -66.281)" fill="url(#linear-gradient-3)"/>
        <path id="Trazado_81350" data-name="Trazado 81350" d="M326.179,78.914,300.966,64.358a8.029,8.029,0,0,0-7.265,0L249.907,89.642c-2.007,1.158-2.007,3.037,0,4.194l25.212,14.557a8.029,8.029,0,0,0,7.265,0l43.8-25.285C328.185,81.95,328.185,80.073,326.179,78.914Z" transform="translate(-248.402 -63.489)" fill="url(#linear-gradient-2)"/>
        <path id="Trazado_81351" data-name="Trazado 81351" d="M326.18,86.31l-43.794,25.284a8.03,8.03,0,0,1-7.266,0L249.908,97.038a2.785,2.785,0,0,1-1.461-1.731,2.364,2.364,0,0,0,1.461,2.463l25.212,14.557a8.033,8.033,0,0,0,7.266,0L326.18,87.042a2.362,2.362,0,0,0,1.46-2.463A2.781,2.781,0,0,1,326.18,86.31Z" transform="translate(-248.403 -67.423)" fill="#fff"/>
        <g id="Grupo_33077" data-name="Grupo 33077" transform="translate(47.563 28.511)">
          <path id="Trazado_81352" data-name="Trazado 81352" d="M308.065,114.027l-1.194.689v-1.378l1.194-.689Z" transform="translate(-306.871 -101.17)" fill="#fff"/>
          <path id="Trazado_81353" data-name="Trazado 81353" d="M311.134,112.255l-1.194.689v-1.378l1.194-.689Z" transform="translate(-307.444 -100.839)" fill="#fff"/>
          <path id="Trazado_81354" data-name="Trazado 81354" d="M314.2,110.483l-1.194.689v-1.378l1.194-.689Z" transform="translate(-308.016 -100.509)" fill="#fff"/>
          <path id="Trazado_81355" data-name="Trazado 81355" d="M311.694,115.365l-1.194.689v-1.378l1.194-.689Z" transform="translate(-307.548 -101.419)" fill="#fff"/>
          <path id="Trazado_81356" data-name="Trazado 81356" d="M314.4,113.8l-1.194.689v-1.378l1.194-.689Z" transform="translate(-308.052 -101.128)" fill="#fff"/>
          <path id="Trazado_81357" data-name="Trazado 81357" d="M324.05,104.8l-1.194.689v-1.378l1.194-.689Z" transform="translate(-309.853 -99.448)" fill="#fff"/>
          <path id="Trazado_81358" data-name="Trazado 81358" d="M332.506,99.916l-1.194.689V99.227l1.194-.689Z" transform="translate(-311.43 -98.538)" fill="#fff"/>
          <path id="Trazado_81359" data-name="Trazado 81359" d="M317.274,108.71l-1.194.689v-1.378l1.194-.689Z" transform="translate(-308.589 -100.178)" fill="#fff"/>
        </g>
        <g id="Grupo_33081" data-name="Grupo 33081" transform="translate(37.669 6.371)">
          <g id="Grupo_33078" data-name="Grupo 33078" transform="translate(0 5.775)">
            <path id="Trazado_81360" data-name="Trazado 81360" d="M296.35,78.421l17.813,10.261-1.641.95L294.708,79.371Z" transform="translate(-294.708 -78.421)" fill="#11203c"/>
            <path id="Trazado_81361" data-name="Trazado 81361" d="M295.327,79.727l1.119-.647,17.195,9.9.523-.3L296.35,78.421l-1.641.95Z" transform="translate(-294.708 -78.421)" fill="#fff"/>
          </g>
          <g id="Grupo_33079" data-name="Grupo 33079" transform="translate(4.99 2.888)">
            <path id="Trazado_81362" data-name="Trazado 81362" d="M302.484,74.871,320.3,85.132l-1.641.95L300.843,75.821Z" transform="translate(-300.843 -74.871)" fill="#11203c"/>
            <path id="Trazado_81363" data-name="Trazado 81363" d="M301.461,76.177l1.119-.647,17.195,9.9.523-.3L302.484,74.871l-1.642.95Z" transform="translate(-300.843 -74.871)" fill="#fff"/>
          </g>
          <g id="Grupo_33080" data-name="Grupo 33080" transform="translate(9.981)">
            <path id="Trazado_81364" data-name="Trazado 81364" d="M308.619,71.321l17.813,10.261-1.641.95L306.977,72.271Z" transform="translate(-306.977 -71.321)" fill="#21587b"/>
            <path id="Trazado_81365" data-name="Trazado 81365" d="M307.6,72.627l1.119-.647,17.195,9.9.523-.3L308.619,71.321l-1.641.95Z" transform="translate(-306.977 -71.321)" fill="#fff"/>
          </g>
        </g>
      </g>
      <path id="Trazado_81366" data-name="Trazado 81366" d="M281,106.689a2.6,2.6,0,0,1-1.283-.3l-16.963-9.793a1.013,1.013,0,0,1-.576-.866,1.323,1.323,0,0,1,.77-1.071l16.576-9.569a3.2,3.2,0,0,1,2.912-.112L299.4,94.769a1.014,1.014,0,0,1,.576.866,1.32,1.32,0,0,1-.769,1.071l-16.576,9.57A3.337,3.337,0,0,1,281,106.689Zm.16-21.566a2.918,2.918,0,0,0-1.415.349l-16.576,9.57c-.343.2-.548.454-.548.687a.6.6,0,0,0,.356.482L279.939,106a2.786,2.786,0,0,0,2.468-.111l16.575-9.571c.343-.2.548-.454.548-.687a.6.6,0,0,0-.355-.482L282.213,85.36A2.153,2.153,0,0,0,281.16,85.123Z" transform="translate(-250.536 -67.441)" fill="#21587b"/>
      <path id="Trazado_81367" data-name="Trazado 81367" d="M272.324,121.683l-14-8.081a1.449,1.449,0,0,1-.6-1.156v-1.04c0-.445.271-.65.6-.457l14,8.082a1.45,1.45,0,0,1,.6,1.156v1.039C272.928,121.672,272.657,121.877,272.324,121.683Z" transform="translate(-249.705 -72.328)" fill="#21587b"/>
    </g>
    <g id="Grupo_33095" data-name="Grupo 33095" transform="translate(193.505 69.148)">
      <g id="Grupo_33086" data-name="Grupo 33086">
        <g id="Grupo_33084" data-name="Grupo 33084">
          <path id="Trazado_81368" data-name="Trazado 81368" d="M287,230.92a3.727,3.727,0,0,1-1.837-.43l-69.385-40.06a1.4,1.4,0,0,1-.8-1.193,1.853,1.853,0,0,1,1.084-1.493l44.532-25.711a4.578,4.578,0,0,1,4.183-.164l69.385,40.06a1.4,1.4,0,0,1,.8,1.193,1.854,1.854,0,0,1-1.084,1.494l-44.532,25.71A4.8,4.8,0,0,1,287,230.92Zm-1.6-.838a4.139,4.139,0,0,0,3.709-.164l44.532-25.71a1.418,1.418,0,0,0,.848-1.085.945.945,0,0,0-.565-.785l-69.385-40.06a4.139,4.139,0,0,0-3.709.164L216.3,188.153a1.416,1.416,0,0,0-.848,1.084.947.947,0,0,0,.565.785Z" transform="translate(-214.979 -87.418)" fill="#21587b" opacity="0.4"/>
          <path id="Trazado_81369" data-name="Trazado 81369" d="M287,217.478a3.735,3.735,0,0,1-1.836-.43l-69.385-40.06a1.4,1.4,0,0,1-.8-1.193,1.851,1.851,0,0,1,1.084-1.493l44.532-25.712a4.583,4.583,0,0,1,4.183-.164l69.385,40.06a1.4,1.4,0,0,1,.8,1.193,1.851,1.851,0,0,1-1.084,1.493l-44.532,25.712A4.8,4.8,0,0,1,287,217.478Zm-1.6-.838a4.144,4.144,0,0,0,3.709-.164l44.532-25.712a1.417,1.417,0,0,0,.848-1.084.946.946,0,0,0-.565-.785l-69.385-40.06a4.131,4.131,0,0,0-3.709.164L216.3,174.71a1.416,1.416,0,0,0-.848,1.084.947.947,0,0,0,.565.785Z" transform="translate(-214.979 -84.911)" fill="#00223d"/>
          <path id="Trazado_81370" data-name="Trazado 81370" d="M363.935,110.615l-69.113-39.9a1.79,1.79,0,0,0-1.411-.2h0l-.007,0-1.28.446.451.107a2.216,2.216,0,0,0-.422.79L276.524,122.6a3.061,3.061,0,0,0,1.267,3.415l69.113,39.9a2.023,2.023,0,0,0,.508.207l-.172.373,1.223-.43h0a1.952,1.952,0,0,0,1.112-1.293L365.2,114.03A3.061,3.061,0,0,0,363.935,110.615Z" transform="translate(-226.436 -70.445)" fill="#00223d"/>
          <path id="Trazado_81371" data-name="Trazado 81371" d="M333.031,181.02l.025.029L264.79,141.635a4.356,4.356,0,0,0-3.918.163l-44.106,25.465L215.3,166.7l.413,2.064,0,0a1.235,1.235,0,0,0,.662.826l68.9,39.777a4.353,4.353,0,0,0,3.918-.163l44.218-25.529a1.766,1.766,0,0,0,.937-1.092l0,0,.422-2.008Z" transform="translate(-215.038 -83.651)" fill="#21587b"/>
          <path id="Trazado_81372" data-name="Trazado 81372" d="M285.337,207.024l-69.385-40.06c-1.011-.584-.884-1.6.283-2.278l44.533-25.711a4.384,4.384,0,0,1,3.945-.164l69.385,40.06c1.012.584.885,1.6-.283,2.278l-44.532,25.711A4.386,4.386,0,0,1,285.337,207.024Z" transform="translate(-215.033 -83.124)" fill="url(#linear-gradient-2)"/>
          <path id="Trazado_81373" data-name="Trazado 81373" d="M215.953,171.981l69.385,40.06a4.386,4.386,0,0,0,3.946-.163l44.532-25.711a2.189,2.189,0,0,0,.761-.69c.422.578.16,1.323-.761,1.855l-44.532,25.711a4.388,4.388,0,0,1-3.946.164l-69.385-40.06a1.054,1.054,0,0,1-.478-1.589A1.519,1.519,0,0,0,215.953,171.981Z" transform="translate(-215.035 -89.305)" fill="#fff"/>
          <path id="Trazado_81374" data-name="Trazado 81374" d="M345.456,166.426l-69.113-39.9a3.061,3.061,0,0,1-1.267-3.415l15.629-50.746a1.774,1.774,0,0,1,2.669-1.142l69.112,39.9a3.061,3.061,0,0,1,1.267,3.415l-15.63,50.746A1.774,1.774,0,0,1,345.456,166.426Z" transform="translate(-226.166 -70.54)" fill="#37a3a5"/>
          <path id="Trazado_81375" data-name="Trazado 81375" d="M346.372,166.808a2.048,2.048,0,0,1-1.024-.288l-69.113-39.9a3.219,3.219,0,0,1-1.334-3.586L290.53,72.285a2.089,2.089,0,0,1,1.206-1.392,1.908,1.908,0,0,1,1.678.164l69.113,39.9a3.22,3.22,0,0,1,1.335,3.586l-15.63,50.747a2.091,2.091,0,0,1-1.206,1.391A1.774,1.774,0,0,1,346.372,166.808ZM292.389,71.066a1.5,1.5,0,0,0-.546.1,1.8,1.8,0,0,0-1.03,1.2l-15.629,50.746a2.908,2.908,0,0,0,1.2,3.243l69.113,39.9a1.627,1.627,0,0,0,1.423.146,1.8,1.8,0,0,0,1.03-1.2l15.63-50.747a2.911,2.911,0,0,0-1.2-3.243l-69.113-39.9A1.754,1.754,0,0,0,292.389,71.066Z" transform="translate(-226.132 -70.506)" fill="#03a7d3"/>
        </g>
        <g id="Grupo_33085" data-name="Grupo 33085" transform="translate(33.108 64.038)" opacity="0.5">
          <path id="Trazado_81376" data-name="Trazado 81376" d="M258.1,163.7l-2.295-1.325c-.184-.107-.161-.292.052-.415l2.708-1.564a.8.8,0,0,1,.719-.029l2.295,1.324c.184.107.161.293-.052.416l-2.708,1.564A.8.8,0,0,1,258.1,163.7Z" transform="translate(-255.678 -151.242)" fill="#21587b"/>
          <path id="Trazado_81377" data-name="Trazado 81377" d="M262.453,166.215l-2.294-1.325c-.185-.107-.161-.292.051-.415l2.709-1.564a.8.8,0,0,1,.718-.03l2.295,1.324c.185.107.161.293-.051.416l-2.709,1.563A.8.8,0,0,1,262.453,166.215Z" transform="translate(-256.491 -151.712)" fill="#21587b"/>
          <path id="Trazado_81378" data-name="Trazado 81378" d="M266.81,168.73l-2.295-1.325c-.185-.107-.161-.292.051-.415l2.709-1.564a.8.8,0,0,1,.718-.03l2.295,1.325c.185.106.161.292-.051.415l-2.709,1.563A.8.8,0,0,1,266.81,168.73Z" transform="translate(-257.303 -152.181)" fill="#21587b"/>
          <path id="Trazado_81379" data-name="Trazado 81379" d="M272.835,166.711l-2.295-1.325c-.185-.107-.161-.292.051-.415l2.274-1.313a.8.8,0,0,1,.719-.029l2.295,1.324c.184.107.161.292-.052.415l-2.274,1.313A.8.8,0,0,1,272.835,166.711Z" transform="translate(-258.427 -151.851)" fill="#21587b"/>
          <path id="Trazado_81380" data-name="Trazado 81380" d="M277.191,169.226,274.9,167.9c-.185-.107-.161-.292.051-.415l2.274-1.313a.8.8,0,0,1,.719-.029l2.295,1.324c.184.107.161.292-.052.415L277.91,169.2A.8.8,0,0,1,277.191,169.226Z" transform="translate(-259.24 -152.32)" fill="#21587b"/>
          <path id="Trazado_81381" data-name="Trazado 81381" d="M281.547,171.741l-2.295-1.325c-.184-.107-.161-.292.052-.415l2.274-1.313a.8.8,0,0,1,.718-.029l2.295,1.324c.185.107.161.292-.051.416l-2.274,1.312A.8.8,0,0,1,281.547,171.741Z" transform="translate(-260.052 -152.789)" fill="#21587b"/>
          <path id="Trazado_81382" data-name="Trazado 81382" d="M285.9,174.256l-2.295-1.325c-.184-.106-.161-.292.052-.415l2.274-1.313a.8.8,0,0,1,.718-.029l2.295,1.324c.185.107.161.293-.051.416l-2.274,1.312A.8.8,0,0,1,285.9,174.256Z" transform="translate(-260.865 -153.258)" fill="#21587b"/>
          <path id="Trazado_81383" data-name="Trazado 81383" d="M290.259,176.771l-2.294-1.325c-.185-.106-.161-.292.051-.415l2.274-1.312a.8.8,0,0,1,.719-.03l2.295,1.324c.184.107.161.293-.052.416l-2.274,1.312A.8.8,0,0,1,290.259,176.771Z" transform="translate(-261.677 -153.727)" fill="#21587b"/>
          <path id="Trazado_81384" data-name="Trazado 81384" d="M294.616,179.286l-2.295-1.325c-.185-.106-.161-.292.051-.415l2.274-1.312a.8.8,0,0,1,.719-.03l2.295,1.325c.184.106.161.292-.052.415l-2.274,1.312A.8.8,0,0,1,294.616,179.286Z" transform="translate(-262.49 -154.196)" fill="#21587b"/>
          <path id="Trazado_81385" data-name="Trazado 81385" d="M298.972,181.8l-2.295-1.325c-.184-.106-.161-.292.052-.415L299,178.749a.8.8,0,0,1,.719-.03l2.295,1.325c.184.106.161.292-.051.415l-2.274,1.313A.8.8,0,0,1,298.972,181.8Z" transform="translate(-263.303 -154.665)" fill="#21587b"/>
          <path id="Trazado_81386" data-name="Trazado 81386" d="M303.328,184.316l-2.295-1.325c-.184-.106-.161-.292.052-.415l2.274-1.312a.8.8,0,0,1,.718-.03l2.295,1.325c.185.106.161.292-.051.415l-2.274,1.312A.8.8,0,0,1,303.328,184.316Z" transform="translate(-264.115 -155.135)" fill="#21587b"/>
          <path id="Trazado_81387" data-name="Trazado 81387" d="M307.684,186.831l-2.295-1.324c-.184-.107-.161-.293.052-.415l2.274-1.313a.8.8,0,0,1,.718-.03l2.295,1.325c.185.107.161.292-.051.415L308.4,186.8A.8.8,0,0,1,307.684,186.831Z" transform="translate(-264.928 -155.604)" fill="#21587b"/>
          <path id="Trazado_81388" data-name="Trazado 81388" d="M312.041,189.346l-2.295-1.324c-.185-.107-.161-.292.051-.416l2.274-1.312a.8.8,0,0,1,.719-.03l2.295,1.325c.184.107.161.292-.052.415l-2.274,1.313A.8.8,0,0,1,312.041,189.346Z" transform="translate(-265.74 -156.073)" fill="#21587b"/>
          <path id="Trazado_81389" data-name="Trazado 81389" d="M279.253,165.52l-2.295-1.325c-.184-.106-.161-.292.052-.415l2.274-1.313a.8.8,0,0,1,.718-.029l2.295,1.324c.185.107.161.293-.051.416l-2.274,1.312A.8.8,0,0,1,279.253,165.52Z" transform="translate(-259.624 -151.629)" fill="#21587b"/>
          <path id="Trazado_81390" data-name="Trazado 81390" d="M274.832,162.967l-2.295-1.324c-.184-.107-.161-.292.052-.415l2.274-1.313a.8.8,0,0,1,.718-.03l2.295,1.325c.184.107.161.292-.051.415l-2.274,1.313A.8.8,0,0,1,274.832,162.967Z" transform="translate(-258.8 -151.152)" fill="#21587b"/>
          <path id="Trazado_81391" data-name="Trazado 81391" d="M269.8,160.06l-4.942-2.854c-.184-.107-.161-.292.052-.415l2.274-1.313a.8.8,0,0,1,.718-.03l4.943,2.854c.184.107.161.292-.052.415l-2.274,1.313A.8.8,0,0,1,269.8,160.06Z" transform="translate(-257.367 -150.325)" fill="#21587b"/>
          <path id="Trazado_81392" data-name="Trazado 81392" d="M273.106,157.074l-4.01-2.315c-.185-.107-.161-.292.051-.415l2.274-1.313a.8.8,0,0,1,.719-.03l4.01,2.316c.184.106.161.292-.051.415l-2.274,1.313A.8.8,0,0,1,273.106,157.074Z" transform="translate(-258.158 -149.868)" fill="#21587b"/>
          <path id="Trazado_81393" data-name="Trazado 81393" d="M283.609,168.035l-2.294-1.325c-.185-.106-.162-.292.051-.415l2.274-1.312a.8.8,0,0,1,.719-.03l2.294,1.324c.185.107.162.293-.051.416L284.328,168A.8.8,0,0,1,283.609,168.035Z" transform="translate(-260.437 -152.098)" fill="#21587b"/>
          <path id="Trazado_81394" data-name="Trazado 81394" d="M287.966,170.55l-2.295-1.325c-.185-.106-.161-.292.051-.415L288,167.5a.8.8,0,0,1,.719-.03l2.295,1.325c.184.106.161.292-.052.415l-2.274,1.312A.8.8,0,0,1,287.966,170.55Z" transform="translate(-261.25 -152.567)" fill="#21587b"/>
          <path id="Trazado_81395" data-name="Trazado 81395" d="M292.322,173.065l-2.295-1.324c-.184-.107-.161-.293.051-.416l2.274-1.312a.8.8,0,0,1,.719-.03l2.295,1.325c.184.106.161.292-.052.415l-2.274,1.312A.8.8,0,0,1,292.322,173.065Z" transform="translate(-262.062 -153.036)" fill="#21587b"/>
          <path id="Trazado_81396" data-name="Trazado 81396" d="M296.678,175.58l-2.295-1.324c-.184-.107-.161-.293.052-.416l2.274-1.312a.8.8,0,0,1,.718-.03l2.295,1.325c.185.107.161.292-.051.415l-2.274,1.313A.8.8,0,0,1,296.678,175.58Z" transform="translate(-262.875 -153.505)" fill="#21587b"/>
          <path id="Trazado_81397" data-name="Trazado 81397" d="M301.034,178.095l-2.295-1.324c-.184-.107-.161-.292.052-.415l2.274-1.313a.8.8,0,0,1,.719-.03l2.294,1.325c.185.107.161.292-.051.415l-2.274,1.313A.8.8,0,0,1,301.034,178.095Z" transform="translate(-263.687 -153.974)" fill="#21587b"/>
          <path id="Trazado_81398" data-name="Trazado 81398" d="M305.391,180.61l-2.295-1.324c-.185-.107-.161-.292.051-.415l2.274-1.313a.8.8,0,0,1,.719-.03l2.295,1.325c.184.107.161.292-.052.415l-2.274,1.313A.8.8,0,0,1,305.391,180.61Z" transform="translate(-264.5 -154.443)" fill="#21587b"/>
          <path id="Trazado_81399" data-name="Trazado 81399" d="M309.747,183.125l-2.295-1.324c-.185-.107-.161-.292.051-.415l2.274-1.313a.8.8,0,0,1,.719-.03l2.295,1.325c.184.107.161.292-.052.415l-2.274,1.313A.8.8,0,0,1,309.747,183.125Z" transform="translate(-265.312 -154.913)" fill="#21587b"/>
          <path id="Trazado_81400" data-name="Trazado 81400" d="M314.1,185.641l-2.295-1.325c-.184-.107-.161-.292.051-.415l2.275-1.313a.8.8,0,0,1,.718-.03l2.295,1.325c.185.107.161.292-.051.415l-2.274,1.313A.8.8,0,0,1,314.1,185.641Z" transform="translate(-266.125 -155.382)" fill="#21587b"/>
          <path id="Trazado_81401" data-name="Trazado 81401" d="M318.459,188.156l-2.295-1.325c-.184-.107-.161-.292.052-.415l2.274-1.313a.8.8,0,0,1,.718-.029L321.5,186.4c.185.107.161.292-.051.415l-2.274,1.313A.8.8,0,0,1,318.459,188.156Z" transform="translate(-266.937 -155.851)" fill="#21587b"/>
          <path id="Trazado_81402" data-name="Trazado 81402" d="M325.582,192.268l-5.007-2.891c-.185-.106-.161-.292.051-.415l2.274-1.313a.8.8,0,0,1,.719-.029l5.007,2.89c.184.107.161.292-.052.415l-2.274,1.313A.8.8,0,0,1,325.582,192.268Z" transform="translate(-267.76 -156.326)" fill="#21587b"/>
          <path id="Trazado_81403" data-name="Trazado 81403" d="M334.242,187.474l-4.226-2.44c-.185-.107-.161-.292.051-.415l2.274-1.313a.8.8,0,0,1,.719-.029l4.226,2.44c.184.107.161.292-.052.415l-2.274,1.313A.8.8,0,0,1,334.242,187.474Z" transform="translate(-269.521 -155.516)" fill="#21587b"/>
          <path id="Trazado_81404" data-name="Trazado 81404" d="M291.238,167.543l-2.295-1.325c-.184-.106-.161-.292.052-.415l2.274-1.312a.8.8,0,0,1,.718-.03l2.295,1.325c.185.106.161.292-.051.415l-2.274,1.312A.8.8,0,0,1,291.238,167.543Z" transform="translate(-261.86 -152.006)" fill="#21587b"/>
          <path id="Trazado_81405" data-name="Trazado 81405" d="M286.773,164.965l-2.294-1.324c-.185-.107-.161-.293.051-.415l2.274-1.313a.8.8,0,0,1,.719-.03l2.295,1.325c.184.107.161.292-.052.415l-2.274,1.313A.8.8,0,0,1,286.773,164.965Z" transform="translate(-261.027 -151.525)" fill="#21587b"/>
          <path id="Trazado_81406" data-name="Trazado 81406" d="M282.309,162.388l-2.295-1.325c-.184-.107-.161-.292.052-.415l2.273-1.313a.8.8,0,0,1,.719-.029l2.295,1.324c.184.107.161.292-.051.415l-2.274,1.313A.8.8,0,0,1,282.309,162.388Z" transform="translate(-260.194 -151.044)" fill="#21587b"/>
          <path id="Trazado_81407" data-name="Trazado 81407" d="M277.844,159.81l-2.295-1.325c-.184-.106-.161-.292.052-.415l2.274-1.312a.8.8,0,0,1,.719-.03l2.294,1.325c.185.106.161.292-.051.415l-2.274,1.312A.8.8,0,0,1,277.844,159.81Z" transform="translate(-259.362 -150.564)" fill="#21587b"/>
          <path id="Trazado_81408" data-name="Trazado 81408" d="M295.594,170.058l-2.295-1.325c-.184-.106-.161-.292.052-.415L295.625,167a.8.8,0,0,1,.719-.029l2.294,1.325c.185.106.161.292-.051.415l-2.274,1.312A.8.8,0,0,1,295.594,170.058Z" transform="translate(-262.672 -152.475)" fill="#21587b"/>
          <path id="Trazado_81409" data-name="Trazado 81409" d="M299.951,172.573l-2.295-1.324c-.185-.107-.161-.293.051-.416l2.274-1.312a.8.8,0,0,1,.719-.03L303,170.816c.184.106.161.292-.052.415l-2.274,1.312A.8.8,0,0,1,299.951,172.573Z" transform="translate(-263.485 -152.944)" fill="#21587b"/>
          <path id="Trazado_81410" data-name="Trazado 81410" d="M304.307,175.088l-2.295-1.325c-.185-.106-.161-.292.051-.415l2.274-1.312a.8.8,0,0,1,.719-.03l2.295,1.325c.184.106.161.292-.052.415l-2.274,1.313A.8.8,0,0,1,304.307,175.088Z" transform="translate(-264.298 -153.413)" fill="#21587b"/>
          <path id="Trazado_81411" data-name="Trazado 81411" d="M308.663,177.6l-2.295-1.324c-.184-.107-.161-.293.052-.416l2.274-1.312a.8.8,0,0,1,.718-.03l2.295,1.325c.184.106.161.292-.051.415l-2.274,1.313A.8.8,0,0,1,308.663,177.6Z" transform="translate(-265.11 -153.882)" fill="#21587b"/>
          <path id="Trazado_81412" data-name="Trazado 81412" d="M313.019,180.118l-2.295-1.324c-.184-.107-.161-.292.052-.415l2.274-1.313a.8.8,0,0,1,.718-.03l2.295,1.325c.185.107.161.292-.051.415l-2.274,1.313A.8.8,0,0,1,313.019,180.118Z" transform="translate(-265.923 -154.352)" fill="#21587b"/>
          <path id="Trazado_81413" data-name="Trazado 81413" d="M317.375,182.633l-2.294-1.324c-.185-.107-.161-.292.051-.415l2.274-1.313a.8.8,0,0,1,.719-.03l2.294,1.325c.185.107.162.292-.051.415l-2.274,1.313A.8.8,0,0,1,317.375,182.633Z" transform="translate(-266.735 -154.821)" fill="#21587b"/>
          <path id="Trazado_81414" data-name="Trazado 81414" d="M321.732,185.148l-2.295-1.324c-.185-.107-.161-.292.051-.415l2.274-1.313a.8.8,0,0,1,.719-.03l2.295,1.325c.184.107.161.292-.052.415l-2.274,1.313A.8.8,0,0,1,321.732,185.148Z" transform="translate(-267.548 -155.29)" fill="#21587b"/>
          <path id="Trazado_81415" data-name="Trazado 81415" d="M326.088,187.663l-2.295-1.324c-.184-.107-.161-.292.051-.415l2.274-1.313a.8.8,0,0,1,.719-.03l2.295,1.325c.184.107.161.292-.051.415l-2.274,1.313A.8.8,0,0,1,326.088,187.663Z" transform="translate(-268.36 -155.759)" fill="#21587b"/>
          <path id="Trazado_81416" data-name="Trazado 81416" d="M330.444,190.178l-2.295-1.324c-.184-.107-.161-.292.052-.415l2.274-1.313a.8.8,0,0,1,.718-.029l2.295,1.324c.185.107.161.292-.051.415l-2.274,1.313A.8.8,0,0,1,330.444,190.178Z" transform="translate(-269.173 -156.228)" fill="#21587b"/>
          <path id="Trazado_81417" data-name="Trazado 81417" d="M288.944,161.322,286.65,160c-.184-.107-.161-.293.052-.416l2.274-1.312a.8.8,0,0,1,.718-.03l2.295,1.325c.185.106.161.292-.051.415l-2.274,1.312A.8.8,0,0,1,288.944,161.322Z" transform="translate(-261.432 -150.846)" fill="#21587b"/>
          <path id="Trazado_81418" data-name="Trazado 81418" d="M284.61,158.82l-2.295-1.325c-.185-.107-.161-.292.051-.415l2.274-1.313a.8.8,0,0,1,.719-.03l2.295,1.325c.184.107.161.292-.052.415l-2.274,1.313A.8.8,0,0,1,284.61,158.82Z" transform="translate(-260.624 -150.379)" fill="#21587b"/>
          <path id="Trazado_81419" data-name="Trazado 81419" d="M280.275,156.317l-2.295-1.325c-.184-.106-.161-.292.052-.415l2.274-1.313a.8.8,0,0,1,.718-.029l2.295,1.325c.185.106.161.292-.051.415l-2.274,1.312A.8.8,0,0,1,280.275,156.317Z" transform="translate(-259.815 -149.912)" fill="#21587b"/>
          <path id="Trazado_81420" data-name="Trazado 81420" d="M275.941,153.814l-2.295-1.324c-.185-.107-.161-.292.051-.415l2.274-1.313a.8.8,0,0,1,.719-.03l2.295,1.325c.184.107.161.292-.052.415l-2.274,1.313A.8.8,0,0,1,275.941,153.814Z" transform="translate(-259.007 -149.445)" fill="#21587b"/>
          <path id="Trazado_81421" data-name="Trazado 81421" d="M280.4,151.442l-2.295-1.325c-.184-.106-.161-.292.051-.415l.752-.434a.8.8,0,0,1,.719-.03l2.295,1.325c.184.107.161.292-.052.415l-.752.434A.8.8,0,0,1,280.4,151.442Z" transform="translate(-259.838 -149.167)" fill="#21587b"/>
          <path id="Trazado_81422" data-name="Trazado 81422" d="M286.054,154.708l-2.294-1.325c-.185-.106-.161-.292.051-.415l.752-.434a.8.8,0,0,1,.719-.03l2.294,1.325c.185.106.162.292-.051.415l-.752.434A.8.8,0,0,1,286.054,154.708Z" transform="translate(-260.893 -149.776)" fill="#21587b"/>
          <path id="Trazado_81423" data-name="Trazado 81423" d="M290.371,157.2l-2.295-1.325c-.184-.106-.161-.292.052-.415l.751-.434a.8.8,0,0,1,.719-.03l2.295,1.325c.184.107.161.292-.051.415l-.752.434A.8.8,0,0,1,290.371,157.2Z" transform="translate(-261.698 -150.241)" fill="#21587b"/>
          <path id="Trazado_81424" data-name="Trazado 81424" d="M294.687,159.692l-2.294-1.324c-.185-.107-.162-.293.051-.416l.752-.434a.8.8,0,0,1,.719-.03l2.294,1.325c.185.107.162.292-.051.415l-.752.434A.8.8,0,0,1,294.687,159.692Z" transform="translate(-262.503 -150.706)" fill="#21587b"/>
          <path id="Trazado_81425" data-name="Trazado 81425" d="M299,162.184l-2.295-1.324c-.184-.107-.161-.293.052-.415l.751-.434a.8.8,0,0,1,.719-.03l2.295,1.325c.184.107.161.292-.052.415l-.751.434A.8.8,0,0,1,299,162.184Z" transform="translate(-263.308 -151.17)" fill="#21587b"/>
          <path id="Trazado_81426" data-name="Trazado 81426" d="M323.1,176.1l-2.295-1.324c-.184-.107-.161-.292.052-.415l.752-.434a.8.8,0,0,1,.718-.03l2.295,1.325c.185.107.161.292-.051.415l-.752.434A.8.8,0,0,1,323.1,176.1Z" transform="translate(-267.803 -153.766)" fill="#21587b"/>
          <path id="Trazado_81427" data-name="Trazado 81427" d="M327.419,178.589l-2.295-1.324c-.185-.107-.161-.292.051-.415l.752-.434a.8.8,0,0,1,.719-.029l2.295,1.324c.184.107.161.293-.052.415l-.752.434A.8.8,0,0,1,327.419,178.589Z" transform="translate(-268.608 -154.23)" fill="#21587b"/>
          <path id="Trazado_81428" data-name="Trazado 81428" d="M331.735,181.082l-2.295-1.325c-.184-.107-.161-.292.052-.415l.752-.434a.8.8,0,0,1,.718-.029l2.295,1.324c.185.107.161.293-.051.416l-.752.434A.8.8,0,0,1,331.735,181.082Z" transform="translate(-269.414 -154.695)" fill="#21587b"/>
          <path id="Trazado_81429" data-name="Trazado 81429" d="M336.052,183.574l-2.295-1.325c-.185-.107-.161-.292.051-.415l.752-.434a.8.8,0,0,1,.719-.03l2.295,1.325c.184.106.161.292-.052.415l-.752.434A.8.8,0,0,1,336.052,183.574Z" transform="translate(-270.219 -155.16)" fill="#21587b"/>
          <path id="Trazado_81430" data-name="Trazado 81430" d="M293.3,163.837l-2.294-1.325c-.185-.106-.161-.292.051-.415l2.274-1.312a.8.8,0,0,1,.719-.03l2.295,1.325c.184.106.161.292-.052.415l-2.274,1.313A.8.8,0,0,1,293.3,163.837Z" transform="translate(-262.245 -151.315)" fill="#21587b"/>
          <path id="Trazado_81431" data-name="Trazado 81431" d="M297.657,166.352l-2.295-1.324c-.185-.107-.161-.293.051-.416l2.274-1.312a.8.8,0,0,1,.719-.03l2.295,1.325c.184.107.161.292-.052.415l-2.274,1.313A.8.8,0,0,1,297.657,166.352Z" transform="translate(-263.057 -151.784)" fill="#21587b"/>
          <path id="Trazado_81432" data-name="Trazado 81432" d="M302.013,168.867l-2.295-1.324c-.184-.107-.161-.293.052-.415l2.274-1.313a.8.8,0,0,1,.718-.03l2.295,1.325c.184.107.161.292-.051.415l-2.274,1.313A.8.8,0,0,1,302.013,168.867Z" transform="translate(-263.87 -152.253)" fill="#21587b"/>
          <path id="Trazado_81433" data-name="Trazado 81433" d="M306.369,171.382l-2.295-1.324c-.184-.107-.161-.292.052-.415l2.274-1.313a.8.8,0,0,1,.718-.03l2.295,1.325c.185.107.161.292-.051.415l-2.274,1.313A.8.8,0,0,1,306.369,171.382Z" transform="translate(-264.682 -152.722)" fill="#21587b"/>
          <path id="Trazado_81434" data-name="Trazado 81434" d="M310.725,173.9l-2.294-1.324c-.185-.107-.162-.292.051-.415l2.274-1.313a.8.8,0,0,1,.719-.03l2.294,1.325c.185.107.162.292-.051.415l-2.274,1.313A.8.8,0,0,1,310.725,173.9Z" transform="translate(-265.495 -153.191)" fill="#21587b"/>
          <path id="Trazado_81435" data-name="Trazado 81435" d="M315.082,176.412l-2.295-1.324c-.185-.107-.161-.292.051-.415l2.274-1.313a.8.8,0,0,1,.719-.03l2.295,1.325c.184.107.161.292-.052.415l-2.274,1.313A.8.8,0,0,1,315.082,176.412Z" transform="translate(-266.307 -153.66)" fill="#21587b"/>
          <path id="Trazado_81436" data-name="Trazado 81436" d="M319.438,178.928l-2.295-1.325c-.184-.107-.161-.292.051-.415l2.274-1.313a.8.8,0,0,1,.719-.03l2.295,1.325c.184.107.161.292-.052.415l-2.274,1.313A.8.8,0,0,1,319.438,178.928Z" transform="translate(-267.12 -154.129)" fill="#21587b"/>
          <path id="Trazado_81437" data-name="Trazado 81437" d="M323.794,181.443l-2.295-1.325c-.184-.107-.161-.292.052-.415l2.274-1.313a.8.8,0,0,1,.718-.03l2.295,1.325c.185.107.161.292-.051.415l-2.274,1.313A.8.8,0,0,1,323.794,181.443Z" transform="translate(-267.932 -154.599)" fill="#21587b"/>
          <path id="Trazado_81438" data-name="Trazado 81438" d="M328.15,183.958l-2.295-1.325c-.184-.107-.161-.292.052-.415l2.274-1.313a.8.8,0,0,1,.719-.029l2.294,1.324c.185.107.161.292-.051.415l-2.274,1.313A.8.8,0,0,1,328.15,183.958Z" transform="translate(-268.745 -155.068)" fill="#21587b"/>
          <path id="Trazado_81439" data-name="Trazado 81439" d="M267.372,163.557l-6.758-3.9c-.185-.106-.162-.292.051-.415l2.274-1.313a.8.8,0,0,1,.719-.029l6.758,3.9c.185.107.161.292-.051.415l-2.274,1.313A.8.8,0,0,1,267.372,163.557Z" transform="translate(-256.576 -150.782)" fill="#21587b"/>
          <path id="Trazado_81440" data-name="Trazado 81440" d="M320.89,194.455l-6.758-3.9c-.185-.106-.161-.292.051-.415l2.274-1.312a.8.8,0,0,1,.719-.03l6.758,3.9c.184.107.161.293-.052.416l-2.274,1.312A.8.8,0,0,1,320.89,194.455Z" transform="translate(-266.558 -156.545)" fill="#21587b"/>
          <path id="Trazado_81441" data-name="Trazado 81441" d="M304.491,190.485l-2.294-1.324c-.185-.107-.162-.293.051-.416l2.709-1.564a.8.8,0,0,1,.718-.029l2.295,1.324c.184.107.161.292-.051.415l-2.709,1.564A.8.8,0,0,1,304.491,190.485Z" transform="translate(-264.332 -156.239)" fill="#21587b"/>
          <path id="Trazado_81442" data-name="Trazado 81442" d="M272.541,172.039l-3.67-2.119c-.184-.107-.161-.292.051-.415l2.709-1.564a.8.8,0,0,1,.719-.03l3.67,2.119c.184.106.161.292-.051.415l-2.709,1.564A.8.8,0,0,1,272.541,172.039Z" transform="translate(-258.116 -152.65)" fill="#21587b"/>
          <path id="Trazado_81443" data-name="Trazado 81443" d="M299.979,187.88l-3.67-2.119c-.185-.106-.161-.292.051-.415l2.709-1.563a.8.8,0,0,1,.718-.03l3.67,2.119c.184.107.161.292-.052.415L300.7,187.85A.8.8,0,0,1,299.979,187.88Z" transform="translate(-263.234 -155.605)" fill="#21587b"/>
          <path id="Trazado_81444" data-name="Trazado 81444" d="M278.826,175.668l-3.67-2.119c-.184-.107-.161-.292.052-.415l2.708-1.564a.8.8,0,0,1,.719-.029l3.67,2.118c.185.107.161.292-.051.415l-2.709,1.564A.8.8,0,0,1,278.826,175.668Z" transform="translate(-259.288 -153.327)" fill="#21587b"/>
          <path id="Trazado_81445" data-name="Trazado 81445" d="M278.694,171.574l15.956,9.213a.218.218,0,0,1,0,.413l-2.762,1.6a.794.794,0,0,1-.717,0l-15.956-9.212Z" transform="translate(-259.323 -153.346)" fill="#21587b"/>
          <path id="Trazado_81446" data-name="Trazado 81446" d="M316.8,195.813l2.556,1.476c.151.087.133.239-.042.34l-1.108.639a.654.654,0,0,1-.589.024l-2.556-1.476c-.151-.087-.132-.239.042-.34l1.108-.64A.657.657,0,0,1,316.8,195.813Z" transform="translate(-266.735 -157.856)" fill="#21587b"/>
          <path id="Trazado_81447" data-name="Trazado 81447" d="M312.407,193.277l2.556,1.476c.151.087.132.239-.042.34l-1.108.639a.654.654,0,0,1-.589.024l-2.556-1.476c-.151-.087-.133-.239.042-.34l1.108-.64A.657.657,0,0,1,312.407,193.277Z" transform="translate(-265.916 -157.383)" fill="#21587b"/>
          <path id="Trazado_81448" data-name="Trazado 81448" d="M308.051,190.762l2.556,1.476c.151.087.132.239-.042.34l-1.108.639a.654.654,0,0,1-.589.024l-2.557-1.476c-.151-.087-.132-.24.042-.34l1.108-.64A.659.659,0,0,1,308.051,190.762Z" transform="translate(-265.104 -156.914)" fill="#21587b"/>
          <path id="Trazado_81449" data-name="Trazado 81449" d="M314.813,191.888l2.556,1.476c.151.087.132.239-.042.34l-1.108.639a.656.656,0,0,1-.59.024l-2.556-1.476c-.15-.087-.132-.239.042-.34l1.108-.639A.653.653,0,0,1,314.813,191.888Z" transform="translate(-266.365 -157.124)" fill="#21587b"/>
        </g>
        <path id="Trazado_81450" data-name="Trazado 81450" d="M275.294,196.178a3.306,3.306,0,0,1-1.627-.381l-17.809-10.283a1.246,1.246,0,0,1-.711-1.06,1.644,1.644,0,0,1,.962-1.326l9.167-5.293a4.059,4.059,0,0,1,3.7-.145l17.81,10.283a1.246,1.246,0,0,1,.711,1.061,1.644,1.644,0,0,1-.962,1.325l-9.168,5.293A4.242,4.242,0,0,1,275.294,196.178Zm-1.411-.754a3.643,3.643,0,0,0,3.272-.145l9.167-5.293a1.244,1.244,0,0,0,.746-.952.85.85,0,0,0-.5-.687l-17.81-10.283a3.642,3.642,0,0,0-3.27.145l-9.168,5.293a1.246,1.246,0,0,0-.746.953.849.849,0,0,0,.5.687Z" transform="translate(-222.471 -90.378)" fill="#21587b" opacity="0.5"/>
      </g>
      <g id="Grupo_33091" data-name="Grupo 33091" transform="translate(57.204 15.28)">
        <g id="Grupo_33088" data-name="Grupo 33088" transform="translate(5.288)">
          <g id="Grupo_33087" data-name="Grupo 33087" transform="translate(2.167 1.615)">
            <path id="Trazado_81451" data-name="Trazado 81451" d="M305.905,94.632l-2.022-1.167a.529.529,0,0,1-.225-.582h0a.3.3,0,0,1,.455-.19l2.022,1.167a.527.527,0,0,1,.225.582h0A.3.3,0,0,1,305.905,94.632Z" transform="translate(-296.175 -91.481)" fill="#fff"/>
            <path id="Trazado_81452" data-name="Trazado 81452" d="M311.606,97.923,308.624,96.2a.529.529,0,0,1-.224-.582h0a.3.3,0,0,1,.455-.19l2.981,1.721a.528.528,0,0,1,.225.582h0A.3.3,0,0,1,311.606,97.923Z" transform="translate(-297.059 -91.992)" fill="#fff"/>
            <path id="Trazado_81453" data-name="Trazado 81453" d="M300.893,105.7l-2.022-1.167a.527.527,0,0,1-.225-.581h0a.3.3,0,0,1,.455-.19l2.022,1.167a.527.527,0,0,1,.224.582h0A.3.3,0,0,1,300.893,105.7Z" transform="translate(-295.24 -93.545)" fill="#fff"/>
            <path id="Trazado_81454" data-name="Trazado 81454" d="M305.951,108.617l-2.981-1.721a.527.527,0,0,1-.225-.581h0a.3.3,0,0,1,.455-.19l2.981,1.721a.527.527,0,0,1,.225.582h0A.3.3,0,0,1,305.951,108.617Z" transform="translate(-296.005 -93.987)" fill="#fff"/>
            <path id="Trazado_81455" data-name="Trazado 81455" d="M298.635,92.76l-1.263-.729a.528.528,0,0,1-.224-.582h0a.3.3,0,0,1,.455-.189l1.262.729a.527.527,0,0,1,.225.582h0A.3.3,0,0,1,298.635,92.76Z" transform="translate(-294.961 -91.214)" fill="#fff"/>
            <path id="Trazado_81456" data-name="Trazado 81456" d="M302.711,97.441l-3.859-2.228a.526.526,0,0,1-.225-.581h0a.3.3,0,0,1,.454-.19l3.859,2.228a.527.527,0,0,1,.225.582h0A.3.3,0,0,1,302.711,97.441Z" transform="translate(-295.237 -91.807)" fill="#fff"/>
            <path id="Trazado_81457" data-name="Trazado 81457" d="M298.931,99.911l-1.263-.729a.527.527,0,0,1-.225-.582h0a.3.3,0,0,1,.454-.19l1.263.73a.527.527,0,0,1,.225.582h0A.3.3,0,0,1,298.931,99.911Z" transform="translate(-295.016 -92.548)" fill="#fff"/>
            <path id="Trazado_81458" data-name="Trazado 81458" d="M306.433,113.549l-3.374-1.948a.527.527,0,0,1-.225-.581h0a.3.3,0,0,1,.455-.19l3.373,1.947a.528.528,0,0,1,.225.582h0A.3.3,0,0,1,306.433,113.549Z" transform="translate(-296.022 -94.864)" fill="#fff"/>
            <path id="Trazado_81459" data-name="Trazado 81459" d="M297.294,103.619l-.81-.468a.527.527,0,0,1-.225-.582h0a.3.3,0,0,1,.455-.189l.811.468a.528.528,0,0,1,.225.582h0A.3.3,0,0,1,297.294,103.619Z" transform="translate(-294.795 -93.288)" fill="#fff"/>
            <path id="Trazado_81460" data-name="Trazado 81460" d="M296.306,107.7l-1.006-.582a.527.527,0,0,1-.225-.581h0a.3.3,0,0,1,.455-.19l1.007.582a.527.527,0,0,1,.225.581h0A.3.3,0,0,1,296.306,107.7Z" transform="translate(-294.574 -94.029)" fill="#fff"/>
            <path id="Trazado_81461" data-name="Trazado 81461" d="M300.743,110.264l-2.654-1.533a.527.527,0,0,1-.225-.582h0a.3.3,0,0,1,.454-.189l2.654,1.532a.528.528,0,0,1,.225.582h0A.3.3,0,0,1,300.743,110.264Z" transform="translate(-295.094 -94.329)" fill="#fff"/>
            <path id="Trazado_81462" data-name="Trazado 81462" d="M296.616,110.208l-1.909-1.1a.528.528,0,0,1-.225-.582h0a.3.3,0,0,1,.455-.189l1.908,1.1a.527.527,0,0,1,.225.582h0A.3.3,0,0,1,296.616,110.208Z" transform="translate(-294.464 -94.399)" fill="#fff"/>
            <path id="Trazado_81463" data-name="Trazado 81463" d="M310.483,115.9l-1.226-.708a.527.527,0,0,1-.225-.582h0a.3.3,0,0,1,.455-.189l1.225.707a.527.527,0,0,1,.225.582h0A.3.3,0,0,1,310.483,115.9Z" transform="translate(-297.178 -95.534)" fill="#fff"/>
            <path id="Trazado_81464" data-name="Trazado 81464" d="M304.223,102.966l-3.373-1.947a.526.526,0,0,1-.225-.581h0a.3.3,0,0,1,.454-.19l3.373,1.947a.527.527,0,0,1,.224.582h0A.3.3,0,0,1,304.223,102.966Z" transform="translate(-295.609 -92.89)" fill="#fff"/>
          </g>
          <path id="Trazado_81465" data-name="Trazado 81465" d="M304.139,100.592,298.26,97.2a.527.527,0,0,1-.225-.582h0a.3.3,0,0,1,.454-.189l5.88,3.395a.527.527,0,0,1,.225.581h0A.3.3,0,0,1,304.139,100.592Z" transform="translate(-292.959 -90.563)" fill="#fff"/>
          <path id="Trazado_81466" data-name="Trazado 81466" d="M300.449,103.115l-3.374-1.948a.527.527,0,0,1-.225-.581h0a.3.3,0,0,1,.455-.19l3.374,1.947a.527.527,0,0,1,.225.582h0A.3.3,0,0,1,300.449,103.115Z" transform="translate(-292.738 -91.303)" fill="#fff"/>
          <path id="Trazado_81467" data-name="Trazado 81467" d="M307.86,105.066l-1.226-.708a.527.527,0,0,1-.225-.581h0a.3.3,0,0,1,.455-.19l1.225.708a.527.527,0,0,1,.225.582h0A.3.3,0,0,1,307.86,105.066Z" transform="translate(-294.521 -91.899)" fill="#fff"/>
          <path id="Trazado_81468" data-name="Trazado 81468" d="M318.864,102.1l-4.32-2.481a.527.527,0,0,1-.225-.581h0a.3.3,0,0,1,.455-.19l4.319,2.481a.527.527,0,0,1,.225.581h0A.3.3,0,0,1,318.864,102.1Z" transform="translate(-295.997 -91.015)" fill="#fff"/>
          <path id="Trazado_81469" data-name="Trazado 81469" d="M299.946,107.478l-4.054-2.341a.528.528,0,0,1-.225-.582h0a.3.3,0,0,1,.455-.19l4.055,2.341a.527.527,0,0,1,.224.582h0A.3.3,0,0,1,299.946,107.478Z" transform="translate(-292.517 -92.044)" fill="#fff"/>
          <path id="Trazado_81470" data-name="Trazado 81470" d="M300.945,91.768l-2.981-1.721a.527.527,0,0,1-.225-.581h0a.3.3,0,0,1,.455-.19L301.175,91a.528.528,0,0,1,.224.582h0A.3.3,0,0,1,300.945,91.768Z" transform="translate(-292.904 -89.229)" fill="#fff"/>
          <path id="Trazado_81471" data-name="Trazado 81471" d="M295.5,111.887l-3.452-1.994a.527.527,0,0,1-.225-.582h0a.3.3,0,0,1,.454-.189l3.453,1.993a.528.528,0,0,1,.225.582h0A.3.3,0,0,1,295.5,111.887Z" transform="translate(-291.8 -92.931)" fill="#fff"/>
        </g>
        <g id="Grupo_33090" data-name="Grupo 33090" transform="translate(0 17.887)">
          <g id="Grupo_33089" data-name="Grupo 33089" transform="translate(2.168 1.614)">
            <path id="Trazado_81472" data-name="Trazado 81472" d="M299.406,116.621l-2.021-1.167a.526.526,0,0,1-.225-.582h0a.3.3,0,0,1,.454-.189l2.022,1.167a.529.529,0,0,1,.225.582h0A.3.3,0,0,1,299.406,116.621Z" transform="translate(-289.676 -113.47)" fill="#fff"/>
            <path id="Trazado_81473" data-name="Trazado 81473" d="M305.106,119.912l-2.981-1.721a.527.527,0,0,1-.225-.582h0a.3.3,0,0,1,.455-.189l2.981,1.72a.529.529,0,0,1,.225.582h0A.3.3,0,0,1,305.106,119.912Z" transform="translate(-290.56 -113.98)" fill="#fff"/>
            <path id="Trazado_81474" data-name="Trazado 81474" d="M294.393,127.686l-2.021-1.167a.527.527,0,0,1-.225-.582h0a.3.3,0,0,1,.455-.189l2.022,1.167a.527.527,0,0,1,.225.581h0A.3.3,0,0,1,294.393,127.686Z" transform="translate(-288.741 -115.534)" fill="#fff"/>
            <path id="Trazado_81475" data-name="Trazado 81475" d="M299.451,130.606l-2.981-1.721a.528.528,0,0,1-.224-.582h0a.3.3,0,0,1,.455-.189l2.981,1.721a.529.529,0,0,1,.225.582h0A.3.3,0,0,1,299.451,130.606Z" transform="translate(-289.505 -115.975)" fill="#fff"/>
            <path id="Trazado_81476" data-name="Trazado 81476" d="M292.135,114.749l-1.263-.73a.527.527,0,0,1-.225-.581h0a.3.3,0,0,1,.455-.19l1.263.73a.527.527,0,0,1,.224.581h0A.3.3,0,0,1,292.135,114.749Z" transform="translate(-288.461 -113.202)" fill="#fff"/>
            <path id="Trazado_81477" data-name="Trazado 81477" d="M296.211,119.43l-3.859-2.228a.528.528,0,0,1-.225-.582h0a.3.3,0,0,1,.455-.189l3.858,2.227a.528.528,0,0,1,.225.582h0A.3.3,0,0,1,296.211,119.43Z" transform="translate(-288.737 -113.796)" fill="#fff"/>
            <path id="Trazado_81478" data-name="Trazado 81478" d="M292.431,121.9l-1.263-.73a.527.527,0,0,1-.225-.582h0a.3.3,0,0,1,.455-.189l1.263.729a.527.527,0,0,1,.224.582h0A.3.3,0,0,1,292.431,121.9Z" transform="translate(-288.516 -114.536)" fill="#fff"/>
            <path id="Trazado_81479" data-name="Trazado 81479" d="M299.933,135.537l-3.373-1.947a.527.527,0,0,1-.225-.582h0a.3.3,0,0,1,.455-.189l3.374,1.947a.527.527,0,0,1,.225.581h0A.3.3,0,0,1,299.933,135.537Z" transform="translate(-289.522 -116.852)" fill="#fff"/>
            <path id="Trazado_81480" data-name="Trazado 81480" d="M290.794,125.608l-.81-.469a.526.526,0,0,1-.225-.581h0a.3.3,0,0,1,.454-.19l.811.469a.526.526,0,0,1,.225.581h0A.3.3,0,0,1,290.794,125.608Z" transform="translate(-288.295 -115.276)" fill="#fff"/>
            <path id="Trazado_81481" data-name="Trazado 81481" d="M289.806,129.69l-1.006-.581a.527.527,0,0,1-.224-.582h0a.3.3,0,0,1,.454-.19l1.007.582a.527.527,0,0,1,.224.582h0A.3.3,0,0,1,289.806,129.69Z" transform="translate(-288.075 -116.017)" fill="#fff"/>
            <path id="Trazado_81482" data-name="Trazado 81482" d="M294.244,132.252l-2.654-1.533a.527.527,0,0,1-.225-.581h0a.3.3,0,0,1,.455-.19l2.654,1.533a.527.527,0,0,1,.225.581h0A.3.3,0,0,1,294.244,132.252Z" transform="translate(-288.595 -116.317)" fill="#fff"/>
            <path id="Trazado_81483" data-name="Trazado 81483" d="M290.116,132.2l-1.908-1.1a.525.525,0,0,1-.225-.581h0a.3.3,0,0,1,.454-.19l1.908,1.1a.527.527,0,0,1,.225.581h0A.3.3,0,0,1,290.116,132.2Z" transform="translate(-287.964 -116.387)" fill="#fff"/>
            <path id="Trazado_81484" data-name="Trazado 81484" d="M303.983,137.885l-1.226-.708a.528.528,0,0,1-.225-.582h0a.3.3,0,0,1,.455-.189l1.226.708a.527.527,0,0,1,.225.581h0A.3.3,0,0,1,303.983,137.885Z" transform="translate(-290.678 -117.522)" fill="#fff"/>
            <path id="Trazado_81485" data-name="Trazado 81485" d="M297.723,124.955l-3.373-1.947a.528.528,0,0,1-.225-.582h0a.3.3,0,0,1,.455-.189l3.373,1.947a.527.527,0,0,1,.225.581h0A.3.3,0,0,1,297.723,124.955Z" transform="translate(-289.11 -114.878)" fill="#fff"/>
          </g>
          <path id="Trazado_81486" data-name="Trazado 81486" d="M297.639,122.58l-5.879-3.395a.526.526,0,0,1-.225-.581h0a.3.3,0,0,1,.455-.19l5.879,3.395a.527.527,0,0,1,.225.582h0A.3.3,0,0,1,297.639,122.58Z" transform="translate(-286.459 -112.551)" fill="#fff"/>
          <path id="Trazado_81487" data-name="Trazado 81487" d="M293.95,125.1l-3.373-1.947a.527.527,0,0,1-.225-.582h0a.3.3,0,0,1,.455-.19l3.373,1.948a.527.527,0,0,1,.225.581h0A.3.3,0,0,1,293.95,125.1Z" transform="translate(-286.238 -113.292)" fill="#fff"/>
          <path id="Trazado_81488" data-name="Trazado 81488" d="M301.36,127.055l-1.226-.708a.528.528,0,0,1-.225-.582h0a.3.3,0,0,1,.455-.189l1.226.707a.529.529,0,0,1,.225.582h0A.3.3,0,0,1,301.36,127.055Z" transform="translate(-288.021 -113.887)" fill="#fff"/>
          <path id="Trazado_81489" data-name="Trazado 81489" d="M293.447,129.466l-4.055-2.341a.527.527,0,0,1-.225-.582h0a.3.3,0,0,1,.454-.189l4.055,2.341a.526.526,0,0,1,.224.581h0A.3.3,0,0,1,293.447,129.466Z" transform="translate(-286.018 -114.032)" fill="#fff"/>
          <path id="Trazado_81490" data-name="Trazado 81490" d="M294.445,113.757l-2.981-1.721a.527.527,0,0,1-.225-.582h0a.3.3,0,0,1,.455-.189l2.981,1.721a.529.529,0,0,1,.225.582h0A.3.3,0,0,1,294.445,113.757Z" transform="translate(-286.404 -111.218)" fill="#fff"/>
          <path id="Trazado_81491" data-name="Trazado 81491" d="M289,133.875l-3.452-1.994a.526.526,0,0,1-.225-.581h0a.3.3,0,0,1,.455-.19l3.452,1.994a.526.526,0,0,1,.225.581h0A.3.3,0,0,1,289,133.875Z" transform="translate(-285.3 -114.92)" fill="#fff"/>
        </g>
      </g>
      <g id="Grupo_33093" data-name="Grupo 33093" transform="translate(80.458 28.585)">
        <path id="Trazado_81492" data-name="Trazado 81492" d="M349.381,160.643a2.523,2.523,0,0,1-1.263-.357L315.684,141.56a3.9,3.9,0,0,1-1.652-4.321l9.113-29.862a2.462,2.462,0,0,1,1.422-1.642,2.344,2.344,0,0,1,2.057.207l32.435,18.726a3.9,3.9,0,0,1,1.652,4.32L351.6,158.85a2.463,2.463,0,0,1-1.422,1.642A2.161,2.161,0,0,1,349.381,160.643Zm-1.114-.613a2.054,2.054,0,0,0,1.8.186,2.172,2.172,0,0,0,1.248-1.452l9.113-29.862a3.591,3.591,0,0,0-1.517-3.979L326.477,106.2a2.054,2.054,0,0,0-1.8-.188,2.174,2.174,0,0,0-1.247,1.453l-9.113,29.861a3.589,3.589,0,0,0,1.517,3.98Z" transform="translate(-313.885 -105.585)" fill="#fff"/>
        <g id="Grupo_33092" data-name="Grupo 33092" transform="translate(3.61 4.683)">
          <path id="Trazado_81493" data-name="Trazado 81493" d="M356.712,136.071a1.78,1.78,0,0,1-.892-.252l-28.372-16.38a2.731,2.731,0,0,1-1.158-3.027l1.161-3.8a1.737,1.737,0,0,1,1-1.159,1.651,1.651,0,0,1,1.456.145l28.372,16.381A2.732,2.732,0,0,1,359.441,131l-1.161,3.8a1.739,1.739,0,0,1-1.005,1.158A1.527,1.527,0,0,1,356.712,136.071ZM329.019,111.64a1.25,1.25,0,0,0-.456.085,1.453,1.453,0,0,0-.83.97l-1.161,3.8a2.422,2.422,0,0,0,1.023,2.684l28.372,16.38a1.371,1.371,0,0,0,1.2.126,1.449,1.449,0,0,0,.832-.97l1.16-3.8a2.422,2.422,0,0,0-1.023-2.684l-28.372-16.38A1.5,1.5,0,0,0,329.019,111.64Z" transform="translate(-319.79 -111.343)" fill="#fff"/>
          <path id="Trazado_81494" data-name="Trazado 81494" d="M357.343,151.456l-5.319-3.071a2.572,2.572,0,0,1-1.091-2.855l1.161-3.8a1.483,1.483,0,0,1,2.245-.929l5.318,3.071a2.572,2.572,0,0,1,1.091,2.855l-1.16,3.8A1.483,1.483,0,0,1,357.343,151.456Z" transform="translate(-324.387 -116.794)" fill="#fff"/>
          <path id="Trazado_81495" data-name="Trazado 81495" d="M354.258,164.482a1.781,1.781,0,0,1-.892-.253l-5.319-3.07a2.73,2.73,0,0,1-1.158-3.026l1.16-3.8a1.738,1.738,0,0,1,1.005-1.159,1.654,1.654,0,0,1,1.456.145l5.319,3.071a2.731,2.731,0,0,1,1.158,3.026l-1.161,3.8a1.742,1.742,0,0,1-1.005,1.159A1.529,1.529,0,0,1,354.258,164.482Zm-4.639-11.122a1.247,1.247,0,0,0-.456.085,1.453,1.453,0,0,0-.831.97l-1.161,3.8A2.421,2.421,0,0,0,348.2,160.9l5.319,3.071a1.368,1.368,0,0,0,1.2.126,1.45,1.45,0,0,0,.831-.97l1.161-3.8a2.421,2.421,0,0,0-1.023-2.684l-5.319-3.072A1.507,1.507,0,0,0,349.619,153.36Z" transform="translate(-323.632 -119.124)" fill="#fff"/>
          <path id="Trazado_81496" data-name="Trazado 81496" d="M336.533,152.288a1.775,1.775,0,0,1-.892-.252l-16.057-9.271a2.73,2.73,0,0,1-1.158-3.025l4.41-14.451a1.742,1.742,0,0,1,1.005-1.159,1.657,1.657,0,0,1,1.455.146l16.057,9.27a2.73,2.73,0,0,1,1.158,3.026l-4.411,14.45a1.739,1.739,0,0,1-1,1.159A1.532,1.532,0,0,1,336.533,152.288Zm-.744-.508a1.37,1.37,0,0,0,1.2.126,1.452,1.452,0,0,0,.831-.97l4.411-14.449a2.423,2.423,0,0,0-1.023-2.684l-16.057-9.271a1.373,1.373,0,0,0-1.2-.126,1.451,1.451,0,0,0-.832.97l-4.409,14.45a2.421,2.421,0,0,0,1.023,2.684Z" transform="translate(-318.323 -113.708)" fill="#fff"/>
        </g>
      </g>
      <path id="Trazado_81497" data-name="Trazado 81497" d="M367.76,120.949a1.067,1.067,0,0,1-.527-.144,1.136,1.136,0,0,1-.521-1.391.842.842,0,0,1,.513-.468,1,1,0,0,1,.814.1,1.14,1.14,0,0,1,.521,1.391h0a.845.845,0,0,1-.514.468A.906.906,0,0,1,367.76,120.949Zm-.247-1.752a.619.619,0,0,0-.194.03.548.548,0,0,0-.335.307.835.835,0,0,0,.4,1.014.721.721,0,0,0,.574.076.551.551,0,0,0,.335-.307h0a.838.838,0,0,0-.4-1.015A.772.772,0,0,0,367.512,119.2Z" transform="translate(-243.266 -79.483)" fill="#fff"/>
      <path id="Trazado_81498" data-name="Trazado 81498" d="M370.639,122.594a1.066,1.066,0,0,1-.527-.143,1.137,1.137,0,0,1-.521-1.391.841.841,0,0,1,.513-.469,1,1,0,0,1,.814.1,1.138,1.138,0,0,1,.521,1.391h0a.844.844,0,0,1-.513.468A.906.906,0,0,1,370.639,122.594Zm-.247-1.752a.644.644,0,0,0-.194.03.55.55,0,0,0-.335.307.834.834,0,0,0,.4,1.014.721.721,0,0,0,.574.076.548.548,0,0,0,.335-.307h0a.835.835,0,0,0-.4-1.014A.765.765,0,0,0,370.391,120.842Z" transform="translate(-243.803 -79.79)" fill="#fff"/>
      <path id="Trazado_81499" data-name="Trazado 81499" d="M374.216,123.7a.764.764,0,0,1-1.119.3.986.986,0,0,1-.46-1.2.765.765,0,0,1,1.119-.3A.985.985,0,0,1,374.216,123.7Z" transform="translate(-244.374 -80.131)" fill="#fff"/>
      <g id="Grupo_33094" data-name="Grupo 33094" transform="translate(87.305 53.039)">
        <path id="Trazado_81500" data-name="Trazado 81500" d="M326.293,136.668l-1.773-1.021-2.218,7.267,1.772,1.021Z" transform="translate(-322.303 -135.646)" fill="#fff"/>
        <path id="Trazado_81501" data-name="Trazado 81501" d="M330.58,141.265l-1.772-1.021L327.052,146l1.772,1.021Z" transform="translate(-323.188 -136.504)" fill="#fff"/>
        <path id="Trazado_81502" data-name="Trazado 81502" d="M336.5,139.272l-1.772-1.021-2.93,9.6,1.772,1.021Z" transform="translate(-324.074 -136.132)" fill="#fff"/>
        <path id="Trazado_81503" data-name="Trazado 81503" d="M342.407,137.353l-1.772-1.021-4.086,13.388,1.772,1.021Z" transform="translate(-324.96 -135.774)" fill="#fff"/>
      </g>
    </g>
    <g id="Grupo_33102" data-name="Grupo 33102" transform="translate(220.398 201.638)">
      <path id="Trazado_81504" data-name="Trazado 81504" d="M278.622,304.018a7.66,7.66,0,0,1-3.75-.9l-25.213-14.556a2.443,2.443,0,0,1,0-4.6l43.8-25.285a8.3,8.3,0,0,1,7.5,0l25.213,14.556a2.443,2.443,0,0,1,0,4.6l-43.8,25.285A7.669,7.669,0,0,1,278.622,304.018ZM297.2,258.246a7.175,7.175,0,0,0-3.514.84l-43.8,25.285a1.986,1.986,0,0,0,0,3.788l25.213,14.556a7.771,7.771,0,0,0,7.03,0l43.8-25.284a1.987,1.987,0,0,0,0-3.788l-25.214-14.556A7.175,7.175,0,0,0,297.2,258.246Z" transform="translate(-248.038 -237.879)" fill="#00223d"/>
      <g id="Grupo_33101" data-name="Grupo 33101" transform="translate(0.358)">
        <path id="Trazado_81505" data-name="Trazado 81505" d="M327.76,265.809h0l0-12.088-15.275,2.038-11.438-6.6a8.029,8.029,0,0,0-7.265,0l-20.5,11.834-24.8,3.308V276.6l.01,0a2.578,2.578,0,0,0,1.494,2.031L275.2,293.191a8.028,8.028,0,0,0,7.265,0l43.8-25.285a2.581,2.581,0,0,0,1.493-2.024l.011,0Z" transform="translate(-248.478 -236.107)" fill="url(#linear-gradient-3)"/>
        <path id="Trazado_81506" data-name="Trazado 81506" d="M326.255,248.74l-25.213-14.556a8.029,8.029,0,0,0-7.265,0l-43.794,25.284c-2.007,1.158-2.007,3.037,0,4.2l25.212,14.556a8.029,8.029,0,0,0,7.265,0l43.8-25.284C328.261,251.777,328.261,249.9,326.255,248.74Z" transform="translate(-248.478 -233.315)" fill="url(#linear-gradient-2)"/>
        <path id="Trazado_81507" data-name="Trazado 81507" d="M326.256,256.136l-43.8,25.284a8.029,8.029,0,0,1-7.265,0l-25.212-14.556a2.783,2.783,0,0,1-1.461-1.731,2.365,2.365,0,0,0,1.461,2.464L275.2,282.154a8.029,8.029,0,0,0,7.265,0l43.8-25.284a2.364,2.364,0,0,0,1.46-2.464A2.781,2.781,0,0,1,326.256,256.136Z" transform="translate(-248.479 -237.249)" fill="#fff"/>
        <g id="Grupo_33096" data-name="Grupo 33096" transform="translate(47.563 28.512)">
          <path id="Trazado_81508" data-name="Trazado 81508" d="M308.141,283.854l-1.194.689v-1.378l1.194-.689Z" transform="translate(-306.947 -270.996)" fill="#fff"/>
          <path id="Trazado_81509" data-name="Trazado 81509" d="M311.21,282.081l-1.194.689v-1.378l1.194-.689Z" transform="translate(-307.52 -270.666)" fill="#fff"/>
          <path id="Trazado_81510" data-name="Trazado 81510" d="M314.28,280.309l-1.194.689V279.62l1.194-.689Z" transform="translate(-308.092 -270.335)" fill="#fff"/>
          <path id="Trazado_81511" data-name="Trazado 81511" d="M311.77,285.191l-1.194.689V284.5l1.194-.689Z" transform="translate(-307.624 -271.246)" fill="#fff"/>
          <path id="Trazado_81512" data-name="Trazado 81512" d="M314.473,283.63l-1.194.689v-1.378l1.194-.689Z" transform="translate(-308.128 -270.955)" fill="#fff"/>
          <path id="Trazado_81513" data-name="Trazado 81513" d="M324.126,274.624l-1.194.689v-1.378l1.194-.689Z" transform="translate(-309.929 -269.275)" fill="#fff"/>
          <path id="Trazado_81514" data-name="Trazado 81514" d="M332.582,269.742l-1.194.689v-1.378l1.194-.689Z" transform="translate(-311.506 -268.364)" fill="#fff"/>
          <path id="Trazado_81515" data-name="Trazado 81515" d="M317.35,278.537l-1.194.689v-1.378l1.194-.689Z" transform="translate(-308.665 -270.004)" fill="#fff"/>
        </g>
        <g id="Grupo_33100" data-name="Grupo 33100" transform="translate(37.669 6.372)">
          <g id="Grupo_33097" data-name="Grupo 33097" transform="translate(0 5.775)">
            <path id="Trazado_81516" data-name="Trazado 81516" d="M296.426,248.247l17.813,10.261-1.641.95L294.784,249.2Z" transform="translate(-294.784 -248.247)" fill="#21587b"/>
            <path id="Trazado_81517" data-name="Trazado 81517" d="M295.4,249.553l1.119-.647,17.195,9.9.523-.3-17.813-10.261-1.641.95Z" transform="translate(-294.784 -248.247)" fill="#fff"/>
          </g>
          <g id="Grupo_33098" data-name="Grupo 33098" transform="translate(4.99 2.888)">
            <path id="Trazado_81518" data-name="Trazado 81518" d="M302.56,244.7l17.813,10.261-1.641.95-17.813-10.261Z" transform="translate(-300.919 -244.697)" fill="#21587b"/>
            <path id="Trazado_81519" data-name="Trazado 81519" d="M301.537,246l1.119-.647,17.195,9.9.523-.3L302.56,244.7l-1.641.95Z" transform="translate(-300.919 -244.697)" fill="#fff"/>
          </g>
          <g id="Grupo_33099" data-name="Grupo 33099" transform="translate(9.981)">
            <path id="Trazado_81520" data-name="Trazado 81520" d="M308.695,241.148l17.813,10.261-1.641.95L307.053,242.1Z" transform="translate(-307.053 -241.148)" fill="#21587b"/>
            <path id="Trazado_81521" data-name="Trazado 81521" d="M307.672,242.454l1.119-.647,17.195,9.9.523-.3-17.813-10.261-1.641.95Z" transform="translate(-307.053 -241.148)" fill="#fff"/>
          </g>
        </g>
      </g>
      <path id="Trazado_81522" data-name="Trazado 81522" d="M281.076,276.515a2.608,2.608,0,0,1-1.282-.3l-16.963-9.793a1.013,1.013,0,0,1-.576-.867,1.321,1.321,0,0,1,.769-1.071l16.576-9.57a3.2,3.2,0,0,1,2.912-.112l16.963,9.793a1.015,1.015,0,0,1,.576.867,1.32,1.32,0,0,1-.769,1.07L282.706,276.1A3.338,3.338,0,0,1,281.076,276.515Zm-1.059-.684a2.79,2.79,0,0,0,2.467-.112l16.576-9.571c.343-.2.547-.454.547-.686a.6.6,0,0,0-.355-.482l-16.963-9.793a2.8,2.8,0,0,0-2.467.111l-16.576,9.571c-.347.2-.547.451-.548.686a.609.609,0,0,0,.355.483Z" transform="translate(-250.69 -237.267)" fill="#21587b"/>
      <path id="Trazado_81523" data-name="Trazado 81523" d="M272.4,291.51l-14-8.082a1.45,1.45,0,0,1-.6-1.156v-1.039c0-.446.271-.651.6-.458l14,8.082a1.449,1.449,0,0,1,.6,1.156v1.04C273,291.5,272.733,291.7,272.4,291.51Z" transform="translate(-249.858 -242.154)" fill="#21587b"/>
    </g>
    <g id="Grupo_33109" data-name="Grupo 33109" transform="translate(99.852 132.56)">
      <path id="Trazado_81524" data-name="Trazado 81524" d="M130.514,219.158a7.751,7.751,0,0,1-3.788-.9L101.513,203.7a2.517,2.517,0,0,1,0-4.734l43.794-25.285a8.382,8.382,0,0,1,7.576,0L178.1,188.234a2.518,2.518,0,0,1,0,4.735L134.3,218.254A7.751,7.751,0,0,1,130.514,219.158ZM149.1,173.387a7.105,7.105,0,0,0-3.477.831L101.825,199.5a1.912,1.912,0,0,0,0,3.654l25.212,14.556a7.691,7.691,0,0,0,6.954,0l43.794-25.284a1.912,1.912,0,0,0,0-3.655l-25.213-14.556A7.1,7.1,0,0,0,149.1,173.387Z" transform="translate(-99.852 -152.944)" fill="#00223d"/>
      <g id="Grupo_33108" data-name="Grupo 33108" transform="translate(0.436)">
        <path id="Trazado_81525" data-name="Trazado 81525" d="M179.67,180.891h0l0-12.088-15.275,2.038-11.438-6.6a8.029,8.029,0,0,0-7.265,0l-20.5,11.834-24.8,3.308v12.308l.009,0a2.578,2.578,0,0,0,1.494,2.031l25.213,14.556a8.029,8.029,0,0,0,7.265,0l43.794-25.285a2.578,2.578,0,0,0,1.493-2.024l.012,0Z" transform="translate(-100.388 -151.189)" fill="url(#linear-gradient-3)"/>
        <path id="Trazado_81526" data-name="Trazado 81526" d="M178.164,163.822l-25.213-14.556a8.029,8.029,0,0,0-7.265,0L101.892,174.55c-2.006,1.158-2.006,3.037,0,4.2L127.1,193.3a8.029,8.029,0,0,0,7.265,0l43.794-25.284C180.17,166.859,180.17,164.981,178.164,163.822Z" transform="translate(-100.387 -148.397)" fill="url(#linear-gradient-2)"/>
        <path id="Trazado_81527" data-name="Trazado 81527" d="M178.165,171.218,134.371,196.5a8.029,8.029,0,0,1-7.265,0l-25.213-14.556a2.785,2.785,0,0,1-1.461-1.731,2.365,2.365,0,0,0,1.461,2.464l25.213,14.556a8.029,8.029,0,0,0,7.265,0l43.794-25.284a2.365,2.365,0,0,0,1.461-2.464A2.785,2.785,0,0,1,178.165,171.218Z" transform="translate(-100.388 -152.331)" fill="#fff"/>
        <g id="Grupo_33103" data-name="Grupo 33103" transform="translate(47.563 28.512)">
          <path id="Trazado_81528" data-name="Trazado 81528" d="M160.05,198.936l-1.194.689v-1.378l1.194-.689Z" transform="translate(-158.857 -186.078)" fill="#fff"/>
          <path id="Trazado_81529" data-name="Trazado 81529" d="M163.12,197.163l-1.194.689v-1.378l1.194-.689Z" transform="translate(-159.429 -185.748)" fill="#fff"/>
          <path id="Trazado_81530" data-name="Trazado 81530" d="M166.189,195.391,165,196.08V194.7l1.194-.689Z" transform="translate(-160.002 -185.417)" fill="#fff"/>
          <path id="Trazado_81531" data-name="Trazado 81531" d="M163.68,200.273l-1.194.689v-1.378l1.194-.689Z" transform="translate(-159.534 -186.328)" fill="#fff"/>
          <path id="Trazado_81532" data-name="Trazado 81532" d="M166.383,198.713l-1.194.689v-1.378l1.194-.689Z" transform="translate(-160.038 -186.037)" fill="#fff"/>
          <path id="Trazado_81533" data-name="Trazado 81533" d="M176.036,189.706l-1.194.689v-1.378l1.194-.689Z" transform="translate(-161.838 -184.357)" fill="#fff"/>
          <path id="Trazado_81534" data-name="Trazado 81534" d="M184.492,184.824l-1.194.689v-1.378l1.194-.689Z" transform="translate(-163.415 -183.446)" fill="#fff"/>
          <path id="Trazado_81535" data-name="Trazado 81535" d="M169.259,193.619l-1.194.689V192.93l1.194-.689Z" transform="translate(-160.574 -185.086)" fill="#fff"/>
        </g>
        <g id="Grupo_33107" data-name="Grupo 33107" transform="translate(37.669 6.372)">
          <g id="Grupo_33104" data-name="Grupo 33104" transform="translate(0 5.775)">
            <path id="Trazado_81536" data-name="Trazado 81536" d="M148.335,163.329l17.813,10.261-1.641.95-17.813-10.261Z" transform="translate(-146.694 -163.329)" fill="#21587b"/>
            <path id="Trazado_81537" data-name="Trazado 81537" d="M147.312,164.635l1.119-.647,17.195,9.9.523-.3-17.813-10.261-1.641.95Z" transform="translate(-146.694 -163.329)" fill="#fff"/>
          </g>
          <g id="Grupo_33105" data-name="Grupo 33105" transform="translate(4.99 2.888)">
            <path id="Trazado_81538" data-name="Trazado 81538" d="M154.47,159.78l17.813,10.261-1.641.95-17.813-10.261Z" transform="translate(-152.828 -159.78)" fill="#21587b"/>
            <path id="Trazado_81539" data-name="Trazado 81539" d="M153.447,161.086l1.119-.647,17.195,9.9.523-.3L154.47,159.779l-1.641.95Z" transform="translate(-152.828 -159.779)" fill="#fff"/>
          </g>
          <g id="Grupo_33106" data-name="Grupo 33106" transform="translate(9.981)">
            <path id="Trazado_81540" data-name="Trazado 81540" d="M160.6,156.23l17.813,10.261-1.641.95L158.963,157.18Z" transform="translate(-158.963 -156.23)" fill="#21587b"/>
            <path id="Trazado_81541" data-name="Trazado 81541" d="M159.581,157.536l1.119-.647,17.195,9.9.523-.3L160.6,156.23l-1.642.95Z" transform="translate(-158.963 -156.23)" fill="#fff"/>
          </g>
        </g>
      </g>
      <path id="Trazado_81542" data-name="Trazado 81542" d="M132.985,191.6a2.608,2.608,0,0,1-1.282-.3L114.74,181.5a1.013,1.013,0,0,1-.576-.867,1.321,1.321,0,0,1,.769-1.071L131.509,170a3.2,3.2,0,0,1,2.912-.112l16.963,9.793a1.013,1.013,0,0,1,.576.867,1.32,1.32,0,0,1-.769,1.071l-16.576,9.571A3.338,3.338,0,0,1,132.985,191.6Zm-1.059-.684a2.79,2.79,0,0,0,2.467-.112l16.576-9.571c.343-.2.548-.454.548-.686a.6.6,0,0,0-.355-.482L134.2,170.268a2.8,2.8,0,0,0-2.468.111l-16.576,9.571c-.347.2-.547.451-.547.686a.608.608,0,0,0,.355.483Z" transform="translate(-102.522 -152.349)" fill="#21587b"/>
      <path id="Trazado_81543" data-name="Trazado 81543" d="M124.309,206.592l-14-8.082a1.448,1.448,0,0,1-.605-1.156v-1.039c0-.446.271-.651.605-.458l14,8.082a1.448,1.448,0,0,1,.605,1.156v1.04C124.914,206.58,124.643,206.785,124.309,206.592Z" transform="translate(-101.69 -157.236)" fill="#21587b"/>
    </g>
  </g>
</svg>
