<svg xmlns="http://www.w3.org/2000/svg" xmlns:xlink="http://www.w3.org/1999/xlink" width="197.669" height="244.899" viewBox="0 0 197.669 244.899">
  <defs>
    <linearGradient id="linear-gradient" x1="0.5" x2="0.5" y2="1" gradientUnits="objectBoundingBox">
      <stop offset="0" stop-color="#fff"/>
      <stop offset="1" stop-color="#d2e6ee"/>
    </linearGradient>
  </defs>
  <g id="Grupo_41882" data-name="Grupo 41882" transform="translate(-903.024 -2138.103)">
    <g id="Server" transform="translate(903.024 2138.103)">
      <g id="Grupo_29216" data-name="Grupo 29216" transform="translate(0 0.176)">
        <path id="Trazado_69560" data-name="Trazado 69560" d="M109.643,113.691l-57.782,33.36a4.271,4.271,0,0,0-1.933,3.348v158.84a4.27,4.27,0,0,0,1.933,3.348l57.783,33.36a4.274,4.274,0,0,0,3.866,0l57.78-33.36a4.271,4.271,0,0,0,1.933-3.348V150.4a4.271,4.271,0,0,0-1.933-3.348l-57.781-33.36A4.274,4.274,0,0,0,109.643,113.691Z" transform="translate(-49.929 -113.229)" fill="url(#linear-gradient)"/>
        <path id="Trazado_69561" data-name="Trazado 69561" d="M180.629,154.607V313.449A4.282,4.282,0,0,1,178.7,316.8l-57.786,33.361a3.878,3.878,0,0,1-1.928.464V187.316a4,4,0,0,0,1.928-.464L178.7,153.491l.527-.437.687-.571A4.007,4.007,0,0,1,180.629,154.607Z" transform="translate(-57.337 -117.44)" fill="url(#linear-gradient)"/>
        <g id="Grupo_29207" data-name="Grupo 29207" transform="translate(7.252 52.539)">
          <path id="Trazado_69562" data-name="Trazado 69562" d="M59.986,172.345l43.277,24.986a4.273,4.273,0,0,1,1.933,3.348v16.473c0,1.233-.866,1.732-1.934,1.116L59.987,193.282a4.272,4.272,0,0,1-1.934-3.348V173.461C58.053,172.229,58.918,171.729,59.986,172.345Z" transform="translate(-58.053 -172.082)" fill="#455a64"/>
          <path id="Trazado_69563" data-name="Trazado 69563" d="M62.115,180.357a4.145,4.145,0,0,0,1.933,3.21l36.024,20.8c1.067.617,1.933.179,1.933-.978a4.146,4.146,0,0,0-1.933-3.209l-36.024-20.8C62.98,178.763,62.115,179.2,62.115,180.357Z" transform="translate(-58.489 -172.835)" fill="#50b4b9"/>
          <path id="Trazado_69564" data-name="Trazado 69564" d="M62.115,189.739a4.145,4.145,0,0,0,1.933,3.209l36.024,20.8c1.067.616,1.933.179,1.933-.978a4.146,4.146,0,0,0-1.933-3.209l-36.024-20.8C62.98,188.144,62.115,188.582,62.115,189.739Z" transform="translate(-58.489 -173.841)" fill="#263238"/>
          <path id="Trazado_69565" data-name="Trazado 69565" d="M64.048,188.76l19.826,11.446v4.187L64.048,192.948a4.145,4.145,0,0,1-1.933-3.209C62.115,188.582,62.98,188.144,64.048,188.76Z" transform="translate(-58.489 -173.841)" fill="#50b4b9"/>
        </g>
        <g id="Grupo_29208" data-name="Grupo 29208" transform="translate(7.252 81.849)">
          <path id="Trazado_69566" data-name="Trazado 69566" d="M59.986,205.178l43.277,24.986a4.273,4.273,0,0,1,1.933,3.348v16.473c0,1.233-.866,1.732-1.934,1.116L59.987,226.115a4.271,4.271,0,0,1-1.934-3.348V206.294C58.053,205.062,58.918,204.562,59.986,205.178Z" transform="translate(-58.053 -204.915)" fill="#455a64"/>
          <path id="Trazado_69567" data-name="Trazado 69567" d="M62.115,213.191a4.145,4.145,0,0,0,1.933,3.209l36.024,20.8c1.067.617,1.933.179,1.933-.977a4.146,4.146,0,0,0-1.933-3.209l-36.024-20.8C62.98,211.6,62.115,212.034,62.115,213.191Z" transform="translate(-58.489 -205.668)" fill="#50b4b9"/>
          <path id="Trazado_69568" data-name="Trazado 69568" d="M62.115,222.572a4.145,4.145,0,0,0,1.933,3.209l36.024,20.8c1.067.617,1.933.179,1.933-.978a4.146,4.146,0,0,0-1.933-3.209l-36.024-20.8C62.98,220.977,62.115,221.415,62.115,222.572Z" transform="translate(-58.489 -206.674)" fill="#263238"/>
          <path id="Trazado_69569" data-name="Trazado 69569" d="M64.048,221.593l30.7,17.728v4.187l-30.7-17.727a4.145,4.145,0,0,1-1.933-3.209C62.115,221.415,62.98,220.977,64.048,221.593Z" transform="translate(-58.489 -206.674)" fill="#50b4b9"/>
        </g>
        <g id="Grupo_29209" data-name="Grupo 29209" transform="translate(7.252 111.16)">
          <path id="Trazado_69570" data-name="Trazado 69570" d="M59.986,238.011,103.262,263a4.273,4.273,0,0,1,1.933,3.348v16.473c0,1.233-.866,1.733-1.934,1.116L59.987,258.948a4.272,4.272,0,0,1-1.934-3.348V239.127C58.053,237.9,58.918,237.4,59.986,238.011Z" transform="translate(-58.053 -237.748)" fill="#455a64"/>
          <path id="Trazado_69571" data-name="Trazado 69571" d="M62.115,246.024a4.145,4.145,0,0,0,1.933,3.209l36.024,20.8c1.067.617,1.933.179,1.933-.978a4.146,4.146,0,0,0-1.933-3.209l-36.024-20.8C62.98,244.429,62.115,244.867,62.115,246.024Z" transform="translate(-58.489 -238.501)" fill="#50b4b9"/>
          <path id="Trazado_69572" data-name="Trazado 69572" d="M62.115,255.4a4.143,4.143,0,0,0,1.933,3.209l36.024,20.8c1.067.617,1.933.179,1.933-.978a4.146,4.146,0,0,0-1.933-3.209l-36.024-20.8C62.98,253.811,62.115,254.248,62.115,255.4Z" transform="translate(-58.489 -239.507)" fill="#263238"/>
          <path id="Trazado_69573" data-name="Trazado 69573" d="M64.048,254.427l12.572,7.258v4.187l-12.573-7.258a4.143,4.143,0,0,1-1.933-3.209C62.115,254.248,62.98,253.811,64.048,254.427Z" transform="translate(-58.489 -239.507)" fill="#50b4b9"/>
        </g>
        <g id="Grupo_29210" data-name="Grupo 29210" transform="translate(7.252 140.471)">
          <path id="Trazado_69574" data-name="Trazado 69574" d="M59.986,270.845l43.277,24.985a4.273,4.273,0,0,1,1.933,3.348v16.473c0,1.233-.866,1.733-1.934,1.116L59.987,291.781a4.271,4.271,0,0,1-1.934-3.348V271.961C58.053,270.728,58.918,270.228,59.986,270.845Z" transform="translate(-58.053 -270.581)" fill="#455a64"/>
          <path id="Trazado_69575" data-name="Trazado 69575" d="M62.115,278.857a4.143,4.143,0,0,0,1.933,3.209l36.024,20.8c1.067.617,1.933.179,1.933-.978a4.146,4.146,0,0,0-1.933-3.209l-36.024-20.8C62.98,277.262,62.115,277.7,62.115,278.857Z" transform="translate(-58.489 -271.334)" fill="#50b4b9"/>
          <path id="Trazado_69576" data-name="Trazado 69576" d="M62.115,288.238a4.143,4.143,0,0,0,1.933,3.209l36.024,20.8c1.067.616,1.933.178,1.933-.978a4.146,4.146,0,0,0-1.933-3.209l-36.024-20.8C62.98,286.643,62.115,287.081,62.115,288.238Z" transform="translate(-58.489 -272.34)" fill="#263238"/>
          <path id="Trazado_69577" data-name="Trazado 69577" d="M64.048,287.26l19.826,11.446v4.187L64.048,291.447a4.143,4.143,0,0,1-1.933-3.209C62.115,287.081,62.98,286.643,64.048,287.26Z" transform="translate(-58.489 -272.34)" fill="#50b4b9"/>
        </g>
        <g id="Grupo_29211" data-name="Grupo 29211" transform="translate(7.252 169.782)">
          <path id="Trazado_69578" data-name="Trazado 69578" d="M59.986,303.678l43.277,24.986a4.27,4.27,0,0,1,1.933,3.348v16.472c0,1.233-.866,1.733-1.934,1.116L59.987,324.614a4.272,4.272,0,0,1-1.934-3.348V304.794C58.053,303.561,58.918,303.061,59.986,303.678Z" transform="translate(-58.053 -303.414)" fill="#455a64"/>
          <path id="Trazado_69579" data-name="Trazado 69579" d="M62.115,311.69a4.143,4.143,0,0,0,1.933,3.209l36.024,20.8c1.067.616,1.933.179,1.933-.978a4.146,4.146,0,0,0-1.933-3.209l-36.024-20.8C62.98,310.1,62.115,310.534,62.115,311.69Z" transform="translate(-58.489 -304.167)" fill="#50b4b9"/>
          <path id="Trazado_69580" data-name="Trazado 69580" d="M62.115,321.071a4.143,4.143,0,0,0,1.933,3.209l36.024,20.8c1.067.616,1.933.179,1.933-.978a4.146,4.146,0,0,0-1.933-3.209l-36.024-20.8C62.98,319.477,62.115,319.915,62.115,321.071Z" transform="translate(-58.489 -305.173)" fill="#263238"/>
          <path id="Trazado_69581" data-name="Trazado 69581" d="M64.048,320.093l27.078,15.632v4.187L64.048,324.28a4.143,4.143,0,0,1-1.933-3.209C62.115,319.915,62.98,319.477,64.048,320.093Z" transform="translate(-58.489 -305.173)" fill="#50b4b9"/>
        </g>
        <g id="Grupo_29212" data-name="Grupo 29212" transform="translate(67.086 54.366)">
          <path id="Trazado_69582" data-name="Trazado 69582" d="M128.7,202.741c2-1.161,3.626-.1,3.626,2.361v95.763a8.315,8.315,0,0,1-3.626,6.566c-2,1.161-3.627.1-3.627-2.361V209.306A8.309,8.309,0,0,1,128.7,202.741Z" transform="translate(-125.077 -177.147)" fill="#37474f"/>
          <path id="Trazado_69583" data-name="Trazado 69583" d="M128.921,305.59a4.139,4.139,0,0,0,1.813-3.278V206.28c0-1.233-.811-1.763-1.813-1.186a4.145,4.145,0,0,0-1.813,3.279v96.031C127.108,305.638,127.92,306.168,128.921,305.59Z" transform="translate(-125.295 -177.425)" fill="#263238"/>
          <path id="Trazado_69584" data-name="Trazado 69584" d="M128.921,311.783a4.142,4.142,0,0,0,1.813-3.278V262.591l-3.626,2.093V310.6C127.108,311.831,127.92,312.361,128.921,311.783Z" transform="translate(-125.295 -183.618)" fill="#50b4b9"/>
          <path id="Trazado_69585" data-name="Trazado 69585" d="M140.889,195.705c2-1.161,3.626-.1,3.626,2.361V293.83a8.312,8.312,0,0,1-3.626,6.566c-2,1.161-3.626.1-3.626-2.361V202.271A8.315,8.315,0,0,1,140.889,195.705Z" transform="translate(-126.384 -176.392)" fill="#37474f"/>
          <path id="Trazado_69586" data-name="Trazado 69586" d="M141.108,298.555a4.147,4.147,0,0,0,1.813-3.279v-96.03c0-1.233-.811-1.764-1.813-1.186a4.145,4.145,0,0,0-1.813,3.279V297.37C139.295,298.6,140.106,299.133,141.108,298.555Z" transform="translate(-126.602 -176.67)" fill="#50b4b9"/>
          <path id="Trazado_69587" data-name="Trazado 69587" d="M153.075,188.67c2-1.161,3.627-.1,3.627,2.361v95.763a8.312,8.312,0,0,1-3.626,6.566c-2,1.161-3.626.1-3.626-2.361V195.236A8.312,8.312,0,0,1,153.075,188.67Z" transform="translate(-127.691 -175.638)" fill="#37474f"/>
          <path id="Trazado_69588" data-name="Trazado 69588" d="M153.294,291.52a4.144,4.144,0,0,0,1.813-3.279V192.21c0-1.233-.811-1.763-1.813-1.185a4.145,4.145,0,0,0-1.813,3.278v96.031C151.481,291.567,152.292,292.1,153.294,291.52Z" transform="translate(-127.909 -175.916)" fill="#263238"/>
          <path id="Trazado_69589" data-name="Trazado 69589" d="M153.294,294.316a4.144,4.144,0,0,0,1.813-3.279V216.859l-3.626,2.093v74.178C151.481,294.363,152.292,294.894,153.294,294.316Z" transform="translate(-127.909 -178.712)" fill="#50b4b9"/>
          <path id="Trazado_69590" data-name="Trazado 69590" d="M165.262,181.635c2-1.161,3.626-.1,3.626,2.361V279.76a8.312,8.312,0,0,1-3.626,6.566c-2,1.16-3.626.1-3.626-2.361V188.2A8.309,8.309,0,0,1,165.262,181.635Z" transform="translate(-128.999 -174.883)" fill="#37474f"/>
          <path id="Trazado_69591" data-name="Trazado 69591" d="M165.48,284.484a4.143,4.143,0,0,0,1.813-3.278V185.174c0-1.233-.812-1.763-1.813-1.186a4.145,4.145,0,0,0-1.814,3.279V283.3C163.667,284.532,164.479,285.062,165.48,284.484Z" transform="translate(-129.217 -175.161)" fill="#263238"/>
          <path id="Trazado_69592" data-name="Trazado 69592" d="M165.48,294.246a4.143,4.143,0,0,0,1.813-3.278V274.76l-3.627,2.093v16.208C163.667,294.295,164.479,294.825,165.48,294.246Z" transform="translate(-129.217 -184.924)" fill="#50b4b9"/>
          <path id="Trazado_69593" data-name="Trazado 69593" d="M177.448,174.6c2-1.161,3.626-.1,3.626,2.361v95.763a8.312,8.312,0,0,1-3.626,6.566c-2,1.161-3.626.1-3.626-2.361V181.165A8.312,8.312,0,0,1,177.448,174.6Z" transform="translate(-130.306 -174.128)" fill="#37474f"/>
          <path id="Trazado_69594" data-name="Trazado 69594" d="M177.667,277.449a4.147,4.147,0,0,0,1.813-3.279V178.139c0-1.232-.811-1.763-1.813-1.185a4.144,4.144,0,0,0-1.813,3.278v96.032C175.854,277.5,176.665,278.027,177.667,277.449Z" transform="translate(-130.524 -174.406)" fill="#263238"/>
          <path id="Trazado_69595" data-name="Trazado 69595" d="M177.667,283.138a4.147,4.147,0,0,0,1.813-3.279v-50.1l-3.626,2.093v50.1C175.854,283.186,176.665,283.717,177.667,283.138Z" transform="translate(-130.524 -180.096)" fill="#57cc98"/>
        </g>
        <g id="Grupo_29215" data-name="Grupo 29215" transform="translate(67.087 168.565)">
          <path id="Trazado_69596" data-name="Trazado 69596" d="M126.624,329.788,174.3,302.262c.853-.493,1.546-.093,1.546.893v17.366A3.421,3.421,0,0,1,174.3,323.2l-47.676,27.525c-.854.493-1.546.093-1.546-.893V332.466A3.416,3.416,0,0,1,126.624,329.788Z" transform="translate(-125.078 -302.051)" fill="#37474f"/>
          <g id="Grupo_29213" data-name="Grupo 29213" transform="translate(3.506 6.36)">
            <path id="Trazado_69597" data-name="Trazado 69597" d="M129.005,335.7c0,1.156.866,1.594,1.934.978l39.889-23.038a4.143,4.143,0,0,0,1.933-3.209c0-1.156-.865-1.594-1.932-.978l-39.891,23.037A4.144,4.144,0,0,0,129.005,335.7Z" transform="translate(-129.005 -309.175)" fill="#263238"/>
            <path id="Trazado_69598" data-name="Trazado 69598" d="M129.005,336.489c0,1.156.866,1.594,1.933.977l29.01-16.757v-4.187l-29.012,16.757A4.142,4.142,0,0,0,129.005,336.489Z" transform="translate(-129.005 -309.963)" fill="#50b4b9"/>
          </g>
          <g id="Grupo_29214" data-name="Grupo 29214" transform="translate(3.506 14.735)">
            <path id="Trazado_69599" data-name="Trazado 69599" d="M129.005,345.082c0,1.156.866,1.594,1.934.978l39.889-23.038a4.143,4.143,0,0,0,1.933-3.209c0-1.156-.865-1.594-1.932-.977l-39.891,23.038A4.141,4.141,0,0,0,129.005,345.082Z" transform="translate(-129.005 -318.556)" fill="#263238"/>
            <path id="Trazado_69600" data-name="Trazado 69600" d="M129.005,347.129c0,1.156.866,1.594,1.934.978l10.879-6.282v-4.187l-10.881,6.282A4.141,4.141,0,0,0,129.005,347.129Z" transform="translate(-129.005 -320.603)" fill="#50b4b9"/>
          </g>
        </g>
        <path id="Trazado_69601" data-name="Trazado 69601" d="M171.426,147.052l-57.781-33.36a4.276,4.276,0,0,0-3.866,0L52,147.052a1.178,1.178,0,0,0,0,2.232l57.783,33.36a4.274,4.274,0,0,0,3.865,0l57.78-33.36A1.178,1.178,0,0,0,171.426,147.052Z" transform="translate(-50.065 -113.229)" fill="url(#linear-gradient)"/>
      </g>
      <g id="Grupo_29217" data-name="Grupo 29217" transform="translate(14.504 4.101)">
        <path id="Trazado_69602" data-name="Trazado 69602" d="M112.159,175.187,67.337,149.309a2.565,2.565,0,0,1-1.16-2.009v-1.51a2.562,2.562,0,0,1,1.16-2.009L112.159,117.9a2.566,2.566,0,0,1,2.32,0L159.3,143.783a2.561,2.561,0,0,1,1.16,2.009V147.3a2.562,2.562,0,0,1-1.16,2.009l-44.822,25.878A2.564,2.564,0,0,1,112.159,175.187Z" transform="translate(-66.176 -117.627)" fill="#263238"/>
        <path id="Trazado_69603" data-name="Trazado 69603" d="M67.418,145.228l44.823,25.878a2.559,2.559,0,0,0,2.319,0l44.822-25.877a.707.707,0,0,0,0-1.339L114.56,118.9a2.566,2.566,0,0,0-2.32,0L67.418,143.889A.707.707,0,0,0,67.418,145.228Z" transform="translate(-66.258 -117.734)" fill="url(#linear-gradient)"/>
        <path id="Trazado_69604" data-name="Trazado 69604" d="M113.321,174.436v4.187a2.35,2.35,0,0,1-1.161-.277l-44.824-25.88a2.55,2.55,0,0,1-1.161-2.009v-1.509a2.578,2.578,0,0,1,.946-1.857c-.42.366-.348.866.214,1.187l44.824,25.88A2.349,2.349,0,0,0,113.321,174.436Z" transform="translate(-66.176 -120.787)" fill="#37474f"/>
      </g>
      <g id="Grupo_29220" data-name="Grupo 29220" transform="translate(29.01)">
        <path id="Trazado_69605" data-name="Trazado 69605" d="M113.9,162.132l-30.318-17.5a2.563,2.563,0,0,1-1.16-2.009v-1.509a2.565,2.565,0,0,1,1.16-2.009l19.438-11.222a7.7,7.7,0,0,0,1.958-1.744l9.283-12.506a1.539,1.539,0,0,1,1.958-.405l30.318,17.5a2.564,2.564,0,0,1,1.16,2.009v9.884a2.563,2.563,0,0,1-1.16,2.009l-30.317,17.5A2.559,2.559,0,0,1,113.9,162.132Z" transform="translate(-82.425 -113.032)" fill="#263238"/>
        <path id="Trazado_69606" data-name="Trazado 69606" d="M116.3,157.945l19.438-11.222a6.8,6.8,0,0,0,1.014-.753,6.944,6.944,0,0,0,.944-.992l9.283-12.505a1.166,1.166,0,0,0-.362-1.745l-30.318-17.5a1.539,1.539,0,0,0-1.958.405l-9.283,12.506a7.31,7.31,0,0,1-1.8,1.815L83.666,139.1a.707.707,0,0,0,0,1.339l30.318,17.5A2.564,2.564,0,0,0,116.3,157.945Z" transform="translate(-82.507 -113.032)" fill="#455a64"/>
        <path id="Trazado_69607" data-name="Trazado 69607" d="M149.136,130.727l-30.318-17.5a1.539,1.539,0,0,0-1.958.405l-9.283,12.506a6.85,6.85,0,0,1-.949.987s32.631,18.852,32.641,18.844a6.952,6.952,0,0,0,.945-.989l9.283-12.505A1.166,1.166,0,0,0,149.136,130.727Z" transform="translate(-85.021 -113.032)" fill="#37474f"/>
        <g id="Grupo_29218" data-name="Grupo 29218" transform="translate(7.953 18.988)">
          <path id="Trazado_69608" data-name="Trazado 69608" d="M91.9,142.54a3.005,3.005,0,0,1,2.72,0,.829.829,0,0,1,0,1.57,3,3,0,0,1-2.72,0A.829.829,0,0,1,91.9,142.54Z" transform="translate(-91.333 -135.151)" fill="#50b4b9"/>
          <path id="Trazado_69609" data-name="Trazado 69609" d="M97.989,146.058a3,3,0,0,1,2.719,0,.828.828,0,0,1,0,1.569,3,3,0,0,1-2.719,0A.828.828,0,0,1,97.989,146.058Z" transform="translate(-91.987 -135.529)" fill="#50b4b9"/>
          <path id="Trazado_69610" data-name="Trazado 69610" d="M104.082,149.575a3.009,3.009,0,0,1,2.719,0,.829.829,0,0,1,0,1.57,3,3,0,0,1-2.719,0A.829.829,0,0,1,104.082,149.575Z" transform="translate(-92.64 -135.906)" fill="#263238"/>
          <path id="Trazado_69611" data-name="Trazado 69611" d="M110.175,153.093a3,3,0,0,1,2.719,0,.829.829,0,0,1,0,1.57,3,3,0,0,1-2.719,0A.829.829,0,0,1,110.175,153.093Z" transform="translate(-93.294 -136.283)" fill="#263238"/>
          <path id="Trazado_69612" data-name="Trazado 69612" d="M96.465,139.9a3.005,3.005,0,0,1,2.72,0,.828.828,0,0,1,0,1.569,3,3,0,0,1-2.72,0A.828.828,0,0,1,96.465,139.9Z" transform="translate(-91.823 -134.868)" fill="#50b4b9"/>
          <ellipse id="Elipse_3376" data-name="Elipse 3376" cx="1.923" cy="1.11" rx="1.923" ry="1.11" transform="translate(9.518 7.849)" fill="#263238"/>
          <path id="Trazado_69613" data-name="Trazado 69613" d="M108.651,146.937a3.005,3.005,0,0,1,2.72,0,.829.829,0,0,1,0,1.57,3.005,3.005,0,0,1-2.72,0A.829.829,0,0,1,108.651,146.937Z" transform="translate(-93.131 -135.623)" fill="#50b4b9"/>
          <ellipse id="Elipse_3377" data-name="Elipse 3377" cx="1.923" cy="1.11" rx="1.923" ry="1.11" transform="translate(20.397 14.129)" fill="#263238"/>
          <path id="Trazado_69614" data-name="Trazado 69614" d="M101.035,137.263a3.005,3.005,0,0,1,2.72,0,.829.829,0,0,1,0,1.57,3,3,0,0,1-2.72,0A.829.829,0,0,1,101.035,137.263Z" transform="translate(-92.314 -134.585)" fill="#263238"/>
          <path id="Trazado_69615" data-name="Trazado 69615" d="M107.128,140.781a3,3,0,0,1,2.72,0,.829.829,0,0,1,0,1.57,3.005,3.005,0,0,1-2.72,0A.829.829,0,0,1,107.128,140.781Z" transform="translate(-92.967 -134.962)" fill="#50b4b9"/>
          <path id="Trazado_69616" data-name="Trazado 69616" d="M113.221,144.3a3,3,0,0,1,2.719,0,.828.828,0,0,1,0,1.569,3,3,0,0,1-2.719,0A.828.828,0,0,1,113.221,144.3Z" transform="translate(-93.621 -135.34)" fill="#263238"/>
          <path id="Trazado_69617" data-name="Trazado 69617" d="M116.3,156.54a3.009,3.009,0,0,1,2.719,0,.829.829,0,0,1,0,1.57,3,3,0,0,1-2.719,0A.829.829,0,0,1,116.3,156.54Z" transform="translate(-93.951 -136.653)" fill="#50b4b9"/>
          <path id="Trazado_69618" data-name="Trazado 69618" d="M120.871,153.9a3,3,0,0,1,2.72,0,.829.829,0,0,1,0,1.57,3,3,0,0,1-2.72,0A.829.829,0,0,1,120.871,153.9Z" transform="translate(-94.442 -136.37)" fill="#263238"/>
          <path id="Trazado_69619" data-name="Trazado 69619" d="M119.314,147.819a3,3,0,0,1,2.719,0,.829.829,0,0,1,0,1.57,3,3,0,0,1-2.719,0A.829.829,0,0,1,119.314,147.819Z" transform="translate(-94.274 -135.717)" fill="#263238"/>
          <ellipse id="Elipse_3378" data-name="Elipse 3378" cx="1.923" cy="1.11" rx="1.923" ry="1.11" transform="translate(12.238)" fill="#50b4b9"/>
          <path id="Trazado_69620" data-name="Trazado 69620" d="M111.7,138.145a3.011,3.011,0,0,1,2.72,0,.829.829,0,0,1,0,1.57,3.005,3.005,0,0,1-2.72,0A.829.829,0,0,1,111.7,138.145Z" transform="translate(-93.457 -134.68)" fill="#263238"/>
          <ellipse id="Elipse_3379" data-name="Elipse 3379" cx="1.923" cy="1.11" rx="1.923" ry="1.11" transform="translate(23.116 6.281)" fill="#50b4b9"/>
          <path id="Trazado_69621" data-name="Trazado 69621" d="M123.883,145.181a3.005,3.005,0,0,1,2.72,0,.829.829,0,0,1,0,1.57,3.011,3.011,0,0,1-2.72,0A.829.829,0,0,1,123.883,145.181Z" transform="translate(-94.765 -135.434)" fill="#263238"/>
          <path id="Trazado_69622" data-name="Trazado 69622" d="M125.441,151.267a3,3,0,0,1,2.719,0,.828.828,0,0,1,0,1.569,3,3,0,0,1-2.719,0A.828.828,0,0,1,125.441,151.267Z" transform="translate(-94.932 -136.087)" fill="#50b4b9"/>
          <ellipse id="Elipse_3380" data-name="Elipse 3380" cx="1.923" cy="1.11" rx="1.923" ry="1.11" transform="translate(34.025 12.499)" fill="#263238"/>
        </g>
        <path id="Trazado_69623" data-name="Trazado 69623" d="M115.127,161.372v4.178a2.4,2.4,0,0,1-1.223-.268L83.587,147.776a2.55,2.55,0,0,1-1.161-2.009v-1.509a2.578,2.578,0,0,1,.946-1.857c-.42.366-.348.866.214,1.187L113.9,161.1A2.4,2.4,0,0,0,115.127,161.372Z" transform="translate(-82.425 -116.183)" fill="#37474f"/>
        <g id="Grupo_29219" data-name="Grupo 29219" transform="translate(26.4 3.363)">
          <path id="Trazado_69624" data-name="Trazado 69624" d="M112.162,127.072l.028-.037a1.023,1.023,0,0,1,1.3-.271L139.876,142a.775.775,0,0,1,.239,1.162l-.027.037a1.029,1.029,0,0,1-1.307.27l-26.376-15.229A.779.779,0,0,1,112.162,127.072Z" transform="translate(-111.998 -117.854)" fill="#263238"/>
          <path id="Trazado_69625" data-name="Trazado 69625" d="M112.162,127.072l.028-.037a1.023,1.023,0,0,1,1.3-.271l19.615,11.324-1.094,1.468-19.609-11.321A.779.779,0,0,1,112.162,127.072Z" transform="translate(-111.998 -117.854)" fill="#50b4b9"/>
          <path id="Trazado_69626" data-name="Trazado 69626" d="M114.606,123.793l.027-.037a1.023,1.023,0,0,1,1.3-.271l26.383,15.233a.775.775,0,0,1,.24,1.162l-.028.037a1.028,1.028,0,0,1-1.307.27l-26.376-15.229A.779.779,0,0,1,114.606,123.793Z" transform="translate(-112.26 -117.503)" fill="#263238"/>
          <path id="Trazado_69627" data-name="Trazado 69627" d="M114.606,123.793l.027-.037a1.023,1.023,0,0,1,1.3-.271l6.558,3.784-1.094,1.469-6.551-3.781A.779.779,0,0,1,114.606,123.793Z" transform="translate(-112.26 -117.503)" fill="#50b4b9"/>
          <path id="Trazado_69628" data-name="Trazado 69628" d="M117.049,120.514l.027-.037a1.023,1.023,0,0,1,1.3-.271l26.384,15.233A.775.775,0,0,1,145,136.6l-.028.037a1.028,1.028,0,0,1-1.307.27l-26.376-15.229A.779.779,0,0,1,117.049,120.514Z" transform="translate(-112.522 -117.151)" fill="#263238"/>
          <path id="Trazado_69629" data-name="Trazado 69629" d="M117.049,120.514l.027-.037a1.024,1.024,0,0,1,1.3-.272l13.742,7.909-1.1,1.469-13.735-7.905A.778.778,0,0,1,117.049,120.514Z" transform="translate(-112.522 -117.151)" fill="#50b4b9"/>
          <path id="Trazado_69630" data-name="Trazado 69630" d="M119.492,117.235l.027-.037a1.023,1.023,0,0,1,1.3-.271l26.384,15.232a.775.775,0,0,1,.239,1.162l-.028.037a1.029,1.029,0,0,1-1.307.27L119.735,118.4A.779.779,0,0,1,119.492,117.235Z" transform="translate(-112.784 -116.799)" fill="#263238"/>
          <path id="Trazado_69631" data-name="Trazado 69631" d="M119.492,117.235l.027-.037a1.023,1.023,0,0,1,1.3-.271l23.949,13.826-1.094,1.468L119.735,118.4A.779.779,0,0,1,119.492,117.235Z" transform="translate(-112.784 -116.799)" fill="#50b4b9"/>
        </g>
      </g>
    </g>
    <g id="Server-2" data-name="Server" transform="translate(1007.646 2206.889)">
      <g id="Grupo_29216-2" data-name="Grupo 29216" transform="translate(0 0.133)">
        <path id="Trazado_69560-2" data-name="Trazado 69560" d="M94.995,113.578,51.388,138.755a3.223,3.223,0,0,0-1.459,2.526V261.156a3.223,3.223,0,0,0,1.459,2.526L95,288.859a3.225,3.225,0,0,0,2.917,0l43.606-25.177a3.223,3.223,0,0,0,1.459-2.526V141.281a3.223,3.223,0,0,0-1.459-2.526L97.912,113.578A3.225,3.225,0,0,0,94.995,113.578Z" transform="translate(-49.929 -113.229)" fill="url(#linear-gradient)"/>
        <path id="Trazado_69561-2" data-name="Trazado 69561" d="M165.507,154.085V273.962a3.231,3.231,0,0,1-1.455,2.526l-43.611,25.177a2.926,2.926,0,0,1-1.455.35V178.771a3.018,3.018,0,0,0,1.455-.35l43.611-25.177.4-.33.519-.431A3.024,3.024,0,0,1,165.507,154.085Z" transform="translate(-72.46 -126.036)" fill="url(#linear-gradient)"/>
        <g id="Grupo_29207-2" data-name="Grupo 29207" transform="translate(5.473 39.65)">
          <path id="Trazado_69562-2" data-name="Trazado 69562" d="M59.512,172.281l32.66,18.856a3.225,3.225,0,0,1,1.459,2.526V206.1c0,.93-.654,1.307-1.459.842L59.512,188.082a3.224,3.224,0,0,1-1.459-2.526V173.123C58.053,172.193,58.706,171.816,59.512,172.281Z" transform="translate(-58.053 -172.082)" fill="#455a64"/>
          <path id="Trazado_69563-2" data-name="Trazado 69563" d="M62.115,180.049a3.128,3.128,0,0,0,1.459,2.423l27.187,15.7c.805.466,1.459.135,1.459-.738a3.129,3.129,0,0,0-1.459-2.422l-27.187-15.7C62.768,178.846,62.115,179.176,62.115,180.049Z" transform="translate(-59.378 -174.372)" fill="#50b4b9"/>
          <path id="Trazado_69564-2" data-name="Trazado 69564" d="M62.115,189.43a3.128,3.128,0,0,0,1.459,2.422l27.187,15.7c.805.465,1.459.135,1.459-.738a3.129,3.129,0,0,0-1.459-2.422l-27.187-15.7C62.768,188.227,62.115,188.557,62.115,189.43Z" transform="translate(-59.378 -177.432)" fill="#263238"/>
          <path id="Trazado_69565-2" data-name="Trazado 69565" d="M63.574,188.692l14.962,8.639v3.16l-14.962-8.638a3.128,3.128,0,0,1-1.459-2.422C62.115,188.557,62.768,188.227,63.574,188.692Z" transform="translate(-59.378 -177.432)" fill="#50b4b9"/>
        </g>
        <g id="Grupo_29208-2" data-name="Grupo 29208" transform="translate(5.473 61.771)">
          <path id="Trazado_69566-2" data-name="Trazado 69566" d="M59.512,205.114l32.66,18.856a3.225,3.225,0,0,1,1.459,2.526v12.432c0,.93-.654,1.307-1.459.842L59.512,220.915a3.224,3.224,0,0,1-1.459-2.526V205.956C58.053,205.026,58.706,204.649,59.512,205.114Z" transform="translate(-58.053 -204.915)" fill="#455a64"/>
          <path id="Trazado_69567-2" data-name="Trazado 69567" d="M62.115,212.882a3.128,3.128,0,0,0,1.459,2.422L90.761,231c.805.466,1.459.135,1.459-.738a3.129,3.129,0,0,0-1.459-2.422l-27.187-15.7C62.768,211.679,62.115,212.009,62.115,212.882Z" transform="translate(-59.378 -207.205)" fill="#50b4b9"/>
          <path id="Trazado_69568-2" data-name="Trazado 69568" d="M62.115,222.263a3.128,3.128,0,0,0,1.459,2.422l27.187,15.7c.805.466,1.459.135,1.459-.738a3.129,3.129,0,0,0-1.459-2.422l-27.187-15.7C62.768,221.06,62.115,221.39,62.115,222.263Z" transform="translate(-59.378 -210.265)" fill="#263238"/>
          <path id="Trazado_69569-2" data-name="Trazado 69569" d="M63.574,221.525,86.746,234.9v3.16L63.574,224.685a3.128,3.128,0,0,1-1.459-2.422C62.115,221.39,62.768,221.06,63.574,221.525Z" transform="translate(-59.378 -210.265)" fill="#50b4b9"/>
        </g>
        <g id="Grupo_29209-2" data-name="Grupo 29209" transform="translate(5.473 83.891)">
          <path id="Trazado_69570-2" data-name="Trazado 69570" d="M59.512,237.947,92.172,256.8a3.225,3.225,0,0,1,1.459,2.526v12.432c0,.93-.654,1.308-1.459.842L59.512,253.748a3.224,3.224,0,0,1-1.459-2.526V238.789C58.053,237.859,58.706,237.482,59.512,237.947Z" transform="translate(-58.053 -237.748)" fill="#455a64"/>
          <path id="Trazado_69571-2" data-name="Trazado 69571" d="M62.115,245.715a3.128,3.128,0,0,0,1.459,2.422l27.187,15.7c.805.466,1.459.135,1.459-.738a3.129,3.129,0,0,0-1.459-2.422l-27.187-15.7C62.768,244.512,62.115,244.842,62.115,245.715Z" transform="translate(-59.378 -240.038)" fill="#50b4b9"/>
          <path id="Trazado_69572-2" data-name="Trazado 69572" d="M62.115,255.1a3.127,3.127,0,0,0,1.459,2.422l27.187,15.7c.805.466,1.459.135,1.459-.738a3.129,3.129,0,0,0-1.459-2.422l-27.187-15.7C62.768,253.893,62.115,254.223,62.115,255.1Z" transform="translate(-59.378 -243.098)" fill="#263238"/>
          <path id="Trazado_69573-2" data-name="Trazado 69573" d="M63.574,254.359l9.488,5.477V263l-9.489-5.478a3.127,3.127,0,0,1-1.459-2.422C62.115,254.223,62.768,253.893,63.574,254.359Z" transform="translate(-59.378 -243.098)" fill="#50b4b9"/>
        </g>
        <g id="Grupo_29210-2" data-name="Grupo 29210" transform="translate(5.473 106.012)">
          <path id="Trazado_69574-2" data-name="Trazado 69574" d="M59.512,270.78l32.66,18.856a3.225,3.225,0,0,1,1.459,2.527v12.432c0,.93-.654,1.308-1.459.842L59.512,286.581a3.224,3.224,0,0,1-1.459-2.526V271.623C58.053,270.692,58.706,270.315,59.512,270.78Z" transform="translate(-58.053 -270.581)" fill="#455a64"/>
          <path id="Trazado_69575-2" data-name="Trazado 69575" d="M62.115,278.549a3.127,3.127,0,0,0,1.459,2.422l27.187,15.7c.805.466,1.459.135,1.459-.738a3.129,3.129,0,0,0-1.459-2.422l-27.187-15.7C62.768,277.345,62.115,277.675,62.115,278.549Z" transform="translate(-59.378 -272.871)" fill="#50b4b9"/>
          <path id="Trazado_69576-2" data-name="Trazado 69576" d="M62.115,287.93a3.127,3.127,0,0,0,1.459,2.422l27.187,15.7c.805.465,1.459.134,1.459-.738a3.129,3.129,0,0,0-1.459-2.422l-27.187-15.7C62.768,286.726,62.115,287.056,62.115,287.93Z" transform="translate(-59.378 -275.932)" fill="#263238"/>
          <path id="Trazado_69577-2" data-name="Trazado 69577" d="M63.574,287.192l14.962,8.638v3.16l-14.962-8.638a3.127,3.127,0,0,1-1.459-2.422C62.115,287.056,62.768,286.726,63.574,287.192Z" transform="translate(-59.378 -275.932)" fill="#50b4b9"/>
        </g>
        <g id="Grupo_29211-2" data-name="Grupo 29211" transform="translate(5.473 128.133)">
          <path id="Trazado_69578-2" data-name="Trazado 69578" d="M59.512,303.613l32.66,18.856A3.223,3.223,0,0,1,93.631,325v12.432c0,.93-.654,1.308-1.459.842L59.512,319.414a3.224,3.224,0,0,1-1.459-2.526V304.456C58.053,303.525,58.706,303.148,59.512,303.613Z" transform="translate(-58.053 -303.414)" fill="#455a64"/>
          <path id="Trazado_69579-2" data-name="Trazado 69579" d="M62.115,311.382a3.127,3.127,0,0,0,1.459,2.422l27.187,15.7c.805.465,1.459.135,1.459-.738a3.129,3.129,0,0,0-1.459-2.422l-27.187-15.7C62.768,310.178,62.115,310.509,62.115,311.382Z" transform="translate(-59.378 -305.704)" fill="#50b4b9"/>
          <path id="Trazado_69580-2" data-name="Trazado 69580" d="M62.115,320.763a3.127,3.127,0,0,0,1.459,2.422l27.187,15.7c.805.465,1.459.135,1.459-.738a3.129,3.129,0,0,0-1.459-2.422l-27.187-15.7C62.768,319.559,62.115,319.89,62.115,320.763Z" transform="translate(-59.378 -308.765)" fill="#263238"/>
          <path id="Trazado_69581-2" data-name="Trazado 69581" d="M63.574,320.025l20.436,11.8v3.16l-20.436-11.8a3.127,3.127,0,0,1-1.459-2.422C62.115,319.89,62.768,319.559,63.574,320.025Z" transform="translate(-59.378 -308.765)" fill="#50b4b9"/>
        </g>
        <g id="Grupo_29212-2" data-name="Grupo 29212" transform="translate(50.629 41.029)">
          <path id="Trazado_69582-2" data-name="Trazado 69582" d="M127.814,202.626c1.511-.877,2.737-.079,2.737,1.782v72.272a6.275,6.275,0,0,1-2.737,4.955c-1.512.876-2.737.078-2.737-1.782V207.58A6.271,6.271,0,0,1,127.814,202.626Z" transform="translate(-125.077 -183.31)" fill="#37474f"/>
          <path id="Trazado_69583-2" data-name="Trazado 69583" d="M128.476,280.88a3.124,3.124,0,0,0,1.368-2.474V205.932c0-.93-.612-1.331-1.368-.895a3.128,3.128,0,0,0-1.368,2.475v72.474C127.108,280.916,127.721,281.317,128.476,280.88Z" transform="translate(-125.74 -184.155)" fill="#263238"/>
          <path id="Trazado_69584-2" data-name="Trazado 69584" d="M128.476,299.715a3.125,3.125,0,0,0,1.368-2.474V262.591l-2.737,1.58v34.651C127.108,299.752,127.721,300.152,128.476,299.715Z" transform="translate(-125.74 -202.991)" fill="#50b4b9"/>
          <path id="Trazado_69585-2" data-name="Trazado 69585" d="M140,195.59c1.512-.876,2.737-.078,2.737,1.782v72.272A6.273,6.273,0,0,1,140,274.6c-1.512.877-2.737.079-2.737-1.782V200.545A6.275,6.275,0,0,1,140,195.59Z" transform="translate(-129.053 -181.014)" fill="#37474f"/>
          <path id="Trazado_69586-2" data-name="Trazado 69586" d="M140.663,273.845a3.13,3.13,0,0,0,1.368-2.475V198.9c0-.93-.612-1.331-1.368-.895a3.128,3.128,0,0,0-1.368,2.475v72.474C139.295,273.881,139.907,274.281,140.663,273.845Z" transform="translate(-129.716 -181.86)" fill="#50b4b9"/>
          <path id="Trazado_69587-2" data-name="Trazado 69587" d="M152.186,188.555c1.512-.877,2.737-.078,2.737,1.782v72.272a6.273,6.273,0,0,1-2.737,4.955c-1.511.877-2.737.078-2.737-1.782V193.51A6.273,6.273,0,0,1,152.186,188.555Z" transform="translate(-133.029 -178.719)" fill="#37474f"/>
          <path id="Trazado_69588-2" data-name="Trazado 69588" d="M152.849,266.81a3.128,3.128,0,0,0,1.368-2.475V191.861c0-.93-.612-1.331-1.368-.894a3.128,3.128,0,0,0-1.368,2.474v72.474C151.481,266.845,152.093,267.246,152.849,266.81Z" transform="translate(-133.692 -179.565)" fill="#263238"/>
          <path id="Trazado_69589-2" data-name="Trazado 69589" d="M152.849,275.315a3.128,3.128,0,0,0,1.368-2.475V216.859l-2.737,1.58V274.42C151.481,275.351,152.093,275.751,152.849,275.315Z" transform="translate(-133.692 -188.07)" fill="#50b4b9"/>
          <path id="Trazado_69590-2" data-name="Trazado 69590" d="M164.373,181.52c1.511-.877,2.737-.079,2.737,1.782v72.272a6.273,6.273,0,0,1-2.737,4.955c-1.511.876-2.737.078-2.737-1.782V186.474A6.271,6.271,0,0,1,164.373,181.52Z" transform="translate(-137.005 -176.424)" fill="#37474f"/>
          <path id="Trazado_69591-2" data-name="Trazado 69591" d="M165.035,259.774A3.127,3.127,0,0,0,166.4,257.3V184.826c0-.93-.613-1.331-1.368-.895a3.129,3.129,0,0,0-1.369,2.475V258.88C163.667,259.81,164.28,260.211,165.035,259.774Z" transform="translate(-137.667 -177.269)" fill="#263238"/>
          <path id="Trazado_69592-2" data-name="Trazado 69592" d="M165.035,289.466a3.127,3.127,0,0,0,1.368-2.474V274.76l-2.737,1.58v12.232C163.667,289.5,164.28,289.9,165.035,289.466Z" transform="translate(-137.667 -206.961)" fill="#50b4b9"/>
          <path id="Trazado_69593-2" data-name="Trazado 69593" d="M176.559,174.484c1.512-.876,2.737-.078,2.737,1.782v72.272a6.273,6.273,0,0,1-2.737,4.955c-1.512.877-2.737.079-2.737-1.782V179.439A6.273,6.273,0,0,1,176.559,174.484Z" transform="translate(-140.981 -174.128)" fill="#37474f"/>
          <path id="Trazado_69594-2" data-name="Trazado 69594" d="M177.222,252.739a3.13,3.13,0,0,0,1.368-2.475V177.79c0-.93-.612-1.331-1.368-.894a3.128,3.128,0,0,0-1.368,2.474v72.474C175.854,252.775,176.466,253.175,177.222,252.739Z" transform="translate(-141.644 -174.974)" fill="#263238"/>
          <path id="Trazado_69595-2" data-name="Trazado 69595" d="M177.222,270.044a3.13,3.13,0,0,0,1.368-2.475V229.758l-2.737,1.58V269.15C175.854,270.079,176.466,270.48,177.222,270.044Z" transform="translate(-141.644 -192.279)" fill="#50b4b9"/>
        </g>
        <g id="Grupo_29215-2" data-name="Grupo 29215" transform="translate(50.63 127.214)">
          <path id="Trazado_69596-2" data-name="Trazado 69596" d="M126.245,322.984l35.981-20.774c.644-.372,1.167-.07,1.167.674V315.99a2.582,2.582,0,0,1-1.167,2.021l-35.981,20.773c-.645.372-1.167.07-1.167-.674V325A2.578,2.578,0,0,1,126.245,322.984Z" transform="translate(-125.078 -302.051)" fill="#37474f"/>
          <g id="Grupo_29213-2" data-name="Grupo 29213" transform="translate(2.646 4.8)">
            <path id="Trazado_69597-2" data-name="Trazado 69597" d="M129.005,329.194c0,.873.654,1.2,1.459.738l30.1-17.386a3.127,3.127,0,0,0,1.459-2.422c0-.873-.653-1.2-1.458-.738l-30.106,17.386A3.127,3.127,0,0,0,129.005,329.194Z" transform="translate(-129.005 -309.175)" fill="#263238"/>
            <path id="Trazado_69598-2" data-name="Trazado 69598" d="M129.005,331.591c0,.872.654,1.2,1.459.737l21.894-12.647v-3.16l-21.895,12.647A3.126,3.126,0,0,0,129.005,331.591Z" transform="translate(-129.005 -311.572)" fill="#50b4b9"/>
          </g>
          <g id="Grupo_29214-2" data-name="Grupo 29214" transform="translate(2.646 11.12)">
            <path id="Trazado_69599-2" data-name="Trazado 69599" d="M129.005,338.575c0,.873.654,1.2,1.459.738l30.1-17.386a3.127,3.127,0,0,0,1.459-2.422c0-.872-.653-1.2-1.458-.738l-30.106,17.386A3.125,3.125,0,0,0,129.005,338.575Z" transform="translate(-129.005 -318.556)" fill="#263238"/>
            <path id="Trazado_69600-2" data-name="Trazado 69600" d="M129.005,344.8c0,.872.654,1.2,1.459.738l8.21-4.741v-3.16l-8.211,4.741A3.125,3.125,0,0,0,129.005,344.8Z" transform="translate(-129.005 -324.782)" fill="#50b4b9"/>
          </g>
        </g>
        <path id="Trazado_69601-2" data-name="Trazado 69601" d="M141.932,138.755,98.326,113.578a3.227,3.227,0,0,0-2.918,0L51.8,138.755a.889.889,0,0,0,0,1.684l43.608,25.177a3.225,3.225,0,0,0,2.917,0l43.606-25.177A.889.889,0,0,0,141.932,138.755Z" transform="translate(-50.343 -113.229)" fill="url(#linear-gradient)"/>
      </g>
      <g id="Grupo_29217-2" data-name="Grupo 29217" transform="translate(10.946 3.095)">
        <path id="Trazado_69602-2" data-name="Trazado 69602" d="M100.879,161.067l-33.827-19.53a1.935,1.935,0,0,1-.875-1.516v-1.139a1.934,1.934,0,0,1,.875-1.516l33.827-19.53a1.937,1.937,0,0,1,1.751,0l33.827,19.531a1.933,1.933,0,0,1,.875,1.516v1.139a1.934,1.934,0,0,1-.875,1.516l-33.827,19.53A1.935,1.935,0,0,1,100.879,161.067Z" transform="translate(-66.176 -117.627)" fill="#263238"/>
        <path id="Trazado_69603-2" data-name="Trazado 69603" d="M67.3,138.7l33.827,19.53a1.931,1.931,0,0,0,1.75,0L136.7,138.7a.533.533,0,0,0,0-1.011l-33.827-18.856a1.937,1.937,0,0,0-1.751,0L67.3,137.692A.533.533,0,0,0,67.3,138.7Z" transform="translate(-66.424 -117.953)" fill="url(#linear-gradient)"/>
        <path id="Trazado_69604-2" data-name="Trazado 69604" d="M101.756,167.728v3.16a1.773,1.773,0,0,1-.876-.209L67.052,151.148a1.925,1.925,0,0,1-.876-1.516v-1.139a1.945,1.945,0,0,1,.714-1.4c-.317.276-.263.654.162.9l33.828,19.531A1.773,1.773,0,0,0,101.756,167.728Z" transform="translate(-66.176 -127.24)" fill="#37474f"/>
      </g>
      <g id="Grupo_29220-2" data-name="Grupo 29220" transform="translate(21.894)">
        <path id="Trazado_69605-2" data-name="Trazado 69605" d="M106.181,150.087,83.3,136.877a1.934,1.934,0,0,1-.875-1.516v-1.139a1.935,1.935,0,0,1,.875-1.516l14.67-8.469a5.813,5.813,0,0,0,1.477-1.316l7.006-9.438a1.161,1.161,0,0,1,1.478-.306l22.881,13.209a1.935,1.935,0,0,1,.875,1.516v7.46a1.934,1.934,0,0,1-.875,1.516l-22.88,13.21A1.931,1.931,0,0,1,106.181,150.087Z" transform="translate(-82.425 -113.032)" fill="#263238"/>
        <path id="Trazado_69606-2" data-name="Trazado 69606" d="M108.179,146.927l14.67-8.469a5.134,5.134,0,0,0,.765-.569,5.242,5.242,0,0,0,.712-.749l7.006-9.438a.88.88,0,0,0-.273-1.317l-22.881-13.209a1.161,1.161,0,0,0-1.477.306L99.7,122.921a5.517,5.517,0,0,1-1.356,1.37l-14.791,8.416a.534.534,0,0,0,0,1.011l22.881,13.21A1.935,1.935,0,0,0,108.179,146.927Z" transform="translate(-82.673 -113.032)" fill="#455a64"/>
        <path id="Trazado_69607-2" data-name="Trazado 69607" d="M138.708,126.386l-22.881-13.209a1.161,1.161,0,0,0-1.477.306l-7.006,9.438a5.168,5.168,0,0,1-.716.745s24.626,14.227,24.634,14.221a5.251,5.251,0,0,0,.713-.746l7.006-9.438A.88.88,0,0,0,138.708,126.386Z" transform="translate(-90.322 -113.032)" fill="#37474f"/>
        <g id="Grupo_29218-2" data-name="Grupo 29218" transform="translate(6.002 14.33)">
          <path id="Trazado_69608-2" data-name="Trazado 69608" d="M91.758,142.46a2.268,2.268,0,0,1,2.053,0,.626.626,0,0,1,0,1.185,2.268,2.268,0,0,1-2.053,0A.626.626,0,0,1,91.758,142.46Z" transform="translate(-91.333 -136.884)" fill="#50b4b9"/>
          <path id="Trazado_69609-2" data-name="Trazado 69609" d="M97.851,145.978a2.267,2.267,0,0,1,2.052,0,.625.625,0,0,1,0,1.184,2.266,2.266,0,0,1-2.052,0A.625.625,0,0,1,97.851,145.978Z" transform="translate(-93.321 -138.032)" fill="#50b4b9"/>
          <path id="Trazado_69610-2" data-name="Trazado 69610" d="M103.944,149.5a2.271,2.271,0,0,1,2.052,0,.625.625,0,0,1,0,1.185,2.267,2.267,0,0,1-2.052,0A.625.625,0,0,1,103.944,149.5Z" transform="translate(-95.309 -139.179)" fill="#263238"/>
          <path id="Trazado_69611-2" data-name="Trazado 69611" d="M110.037,153.013a2.266,2.266,0,0,1,2.052,0,.626.626,0,0,1,0,1.185,2.267,2.267,0,0,1-2.052,0A.625.625,0,0,1,110.037,153.013Z" transform="translate(-97.297 -140.327)" fill="#263238"/>
          <path id="Trazado_69612-2" data-name="Trazado 69612" d="M96.327,139.822a2.268,2.268,0,0,1,2.053,0,.625.625,0,0,1,0,1.184,2.268,2.268,0,0,1-2.053,0A.625.625,0,0,1,96.327,139.822Z" transform="translate(-92.824 -136.023)" fill="#50b4b9"/>
          <ellipse id="Elipse_3376-2" data-name="Elipse 3376" cx="1.451" cy="0.838" rx="1.451" ry="0.838" transform="translate(7.183 5.923)" fill="#263238"/>
          <path id="Trazado_69613-2" data-name="Trazado 69613" d="M108.513,146.857a2.268,2.268,0,0,1,2.053,0,.626.626,0,0,1,0,1.185,2.268,2.268,0,0,1-2.053,0A.626.626,0,0,1,108.513,146.857Z" transform="translate(-96.8 -138.318)" fill="#50b4b9"/>
          <ellipse id="Elipse_3377-2" data-name="Elipse 3377" cx="1.451" cy="0.838" rx="1.451" ry="0.838" transform="translate(15.393 10.663)" fill="#263238"/>
          <path id="Trazado_69614-2" data-name="Trazado 69614" d="M100.9,137.183a2.268,2.268,0,0,1,2.053,0,.626.626,0,0,1,0,1.185,2.268,2.268,0,0,1-2.053,0A.626.626,0,0,1,100.9,137.183Z" transform="translate(-94.315 -135.162)" fill="#263238"/>
          <path id="Trazado_69615-2" data-name="Trazado 69615" d="M106.99,140.7a2.268,2.268,0,0,1,2.053,0,.626.626,0,0,1,0,1.185,2.268,2.268,0,0,1-2.053,0A.626.626,0,0,1,106.99,140.7Z" transform="translate(-96.303 -136.31)" fill="#50b4b9"/>
          <path id="Trazado_69616-2" data-name="Trazado 69616" d="M113.083,144.219a2.267,2.267,0,0,1,2.052,0,.625.625,0,0,1,0,1.184,2.267,2.267,0,0,1-2.052,0A.625.625,0,0,1,113.083,144.219Z" transform="translate(-98.291 -137.458)" fill="#263238"/>
          <path id="Trazado_69617-2" data-name="Trazado 69617" d="M116.164,156.46a2.271,2.271,0,0,1,2.052,0,.625.625,0,0,1,0,1.185,2.267,2.267,0,0,1-2.052,0A.626.626,0,0,1,116.164,156.46Z" transform="translate(-99.296 -141.452)" fill="#50b4b9"/>
          <path id="Trazado_69618-2" data-name="Trazado 69618" d="M120.733,153.822a2.268,2.268,0,0,1,2.053,0,.626.626,0,0,1,0,1.185,2.268,2.268,0,0,1-2.053,0A.626.626,0,0,1,120.733,153.822Z" transform="translate(-100.787 -140.591)" fill="#263238"/>
          <path id="Trazado_69619-2" data-name="Trazado 69619" d="M119.176,147.739a2.266,2.266,0,0,1,2.052,0,.626.626,0,0,1,0,1.185,2.267,2.267,0,0,1-2.052,0A.625.625,0,0,1,119.176,147.739Z" transform="translate(-100.279 -138.606)" fill="#263238"/>
          <ellipse id="Elipse_3378-2" data-name="Elipse 3378" cx="1.451" cy="0.838" rx="1.451" ry="0.838" transform="translate(9.236)" fill="#50b4b9"/>
          <path id="Trazado_69620-2" data-name="Trazado 69620" d="M111.559,138.065a2.272,2.272,0,0,1,2.053,0,.626.626,0,0,1,0,1.185,2.268,2.268,0,0,1-2.053,0A.626.626,0,0,1,111.559,138.065Z" transform="translate(-97.794 -135.45)" fill="#263238"/>
          <ellipse id="Elipse_3379-2" data-name="Elipse 3379" cx="1.451" cy="0.838" rx="1.451" ry="0.838" transform="translate(17.446 4.74)" fill="#50b4b9"/>
          <path id="Trazado_69621-2" data-name="Trazado 69621" d="M123.745,145.1a2.268,2.268,0,0,1,2.053,0,.626.626,0,0,1,0,1.185,2.272,2.272,0,0,1-2.053,0A.626.626,0,0,1,123.745,145.1Z" transform="translate(-101.77 -137.745)" fill="#263238"/>
          <path id="Trazado_69622-2" data-name="Trazado 69622" d="M125.3,151.187a2.266,2.266,0,0,1,2.052,0,.625.625,0,0,1,0,1.184,2.266,2.266,0,0,1-2.052,0A.625.625,0,0,1,125.3,151.187Z" transform="translate(-102.278 -139.731)" fill="#50b4b9"/>
          <ellipse id="Elipse_3380-2" data-name="Elipse 3380" cx="1.451" cy="0.838" rx="1.451" ry="0.838" transform="translate(25.679 9.433)" fill="#263238"/>
        </g>
        <path id="Trazado_69623-2" data-name="Trazado 69623" d="M107.1,156.719v3.153a1.809,1.809,0,0,1-.923-.2L83.3,146.458a1.925,1.925,0,0,1-.876-1.516V143.8a1.946,1.946,0,0,1,.714-1.4c-.317.276-.263.654.162.9l22.88,13.212A1.812,1.812,0,0,0,107.1,156.719Z" transform="translate(-82.425 -122.615)" fill="#37474f"/>
        <g id="Grupo_29219-2" data-name="Grupo 29219" transform="translate(19.924 2.538)">
          <path id="Trazado_69624-2" data-name="Trazado 69624" d="M112.122,126.965l.021-.028a.772.772,0,0,1,.984-.2l19.911,11.5a.585.585,0,0,1,.181.877l-.02.028a.776.776,0,0,1-.986.2l-19.906-11.493A.588.588,0,0,1,112.122,126.965Z" transform="translate(-111.998 -120.009)" fill="#263238"/>
          <path id="Trazado_69625-2" data-name="Trazado 69625" d="M112.122,126.965l.021-.028a.772.772,0,0,1,.984-.2l14.8,8.546-.826,1.108-14.8-8.544A.588.588,0,0,1,112.122,126.965Z" transform="translate(-111.998 -120.009)" fill="#50b4b9"/>
          <path id="Trazado_69626-2" data-name="Trazado 69626" d="M114.566,123.686l.02-.028a.772.772,0,0,1,.984-.2l19.911,11.5a.585.585,0,0,1,.181.877l-.021.028a.776.776,0,0,1-.986.2l-19.906-11.493A.588.588,0,0,1,114.566,123.686Z" transform="translate(-112.795 -118.939)" fill="#263238"/>
          <path id="Trazado_69627-2" data-name="Trazado 69627" d="M114.566,123.686l.02-.028a.772.772,0,0,1,.984-.2l4.949,2.856-.826,1.108-4.944-2.853A.588.588,0,0,1,114.566,123.686Z" transform="translate(-112.795 -118.939)" fill="#50b4b9"/>
          <path id="Trazado_69628-2" data-name="Trazado 69628" d="M117.009,120.407l.02-.028a.772.772,0,0,1,.984-.2l19.911,11.5a.585.585,0,0,1,.181.877l-.021.028a.776.776,0,0,1-.986.2l-19.905-11.493A.588.588,0,0,1,117.009,120.407Z" transform="translate(-113.592 -117.869)" fill="#263238"/>
          <path id="Trazado_69629-2" data-name="Trazado 69629" d="M117.009,120.407l.02-.028a.773.773,0,0,1,.984-.205l10.371,5.969-.827,1.108-10.365-5.966A.587.587,0,0,1,117.009,120.407Z" transform="translate(-113.592 -117.869)" fill="#50b4b9"/>
          <path id="Trazado_69630-2" data-name="Trazado 69630" d="M119.452,117.128l.02-.028a.772.772,0,0,1,.984-.2l19.911,11.5a.585.585,0,0,1,.181.877l-.021.028a.776.776,0,0,1-.986.2l-19.905-11.493A.588.588,0,0,1,119.452,117.128Z" transform="translate(-114.389 -116.799)" fill="#263238"/>
          <path id="Trazado_69631-2" data-name="Trazado 69631" d="M119.452,117.128l.02-.028a.772.772,0,0,1,.984-.2L138.53,127.33l-.826,1.108-18.069-10.431A.588.588,0,0,1,119.452,117.128Z" transform="translate(-114.389 -116.799)" fill="#50b4b9"/>
        </g>
      </g>
    </g>
  </g>
</svg>
