<?xml version="1.0" encoding="UTF-8" standalone="no"?><!DOCTYPE svg PUBLIC "-//W3C//DTD SVG 1.1//EN" "http://www.w3.org/Graphics/SVG/1.1/DTD/svg11.dtd"><svg width="100%" height="100%" viewBox="0 0 283 253" version="1.1" xmlns="http://www.w3.org/2000/svg" xmlns:xlink="http://www.w3.org/1999/xlink" xml:space="preserve" xmlns:serif="http://www.serif.com/" style="fill-rule:evenodd;clip-rule:evenodd;stroke-linejoin:round;stroke-miterlimit:2;"><rect id="Mesa-de-trabajo1" serif:id="Mesa de trabajo1" x="0" y="0" width="283" height="253" style="fill:none;"/><clipPath id="_clip1"><rect x="0" y="0" width="283" height="253"/></clipPath><g clip-path="url(#_clip1)"><g id="Grupo_39008"><g id="Grupo_39007"><path id="Trazado_81269" d="M126.09,148.315l-126.09,-72.798l29.199,-42.583l148.368,85.663l-51.477,29.718Z" style="fill:url(#_Linear2);fill-rule:nonzero;"/><g id="Grupo_33052"><g id="Grupo_33046"><path id="Trazado_81271" d="M132.652,131.435l-84.981,-49.061l67.528,-38.988l84.98,49.057l-67.527,38.992Z" style="fill:url(#_Linear3);fill-rule:nonzero;"/><path id="Trazado_81272" d="M200.179,145.072l0,-52.628l-67.528,38.988l-0,52.628l67.528,-38.988Z" style="fill:url(#_Linear4);fill-rule:nonzero;"/><path id="Trazado_81273" d="M47.671,82.374l-0,52.628l84.981,49.057l-0,-52.628l-84.981,-49.057Z" style="fill:url(#_Linear5);fill-rule:nonzero;"/></g><g id="Grupo_33051"><g id="Grupo_33047"><path id="Trazado_81274" d="M99.924,70.065l-36.788,21.241l-0,11.385l10.918,6.304l-0,-11.387l36.789,-21.244l-10.919,-6.299Z" style="fill:#fff;fill-rule:nonzero;"/><path id="Trazado_81275" d="M123.295,83.551l-36.789,21.24l0,11.386l10.918,6.304l0,-11.387l36.789,-21.24l-10.918,-6.303Z" style="fill:#fff;fill-rule:nonzero;"/><path id="Trazado_81276" d="M146.689,97.055l-36.788,21.24l0,11.386l10.918,6.304l0,-11.386l36.788,-21.24l-10.918,-6.304Z" style="fill:#fff;fill-rule:nonzero;"/></g><g id="Grupo_33048"><path id="Trazado_81277" d="M99.924,70.065l0,4.587l7.015,3.971l3.904,-2.254l-10.919,-6.304Z" style="fill:#00223d;fill-rule:nonzero;"/><path id="Trazado_81278" d="M67.093,100.338l-3.958,2.353l10.918,6.304l-0,-4.739l-6.96,-3.918Z" style="fill:#00223d;fill-rule:nonzero;"/><path id="Trazado_81279" d="M99.924,70.065l-36.788,21.241l-0,11.385l3.958,-2.353l0,-6.719l32.85,-18.966l-0.02,-4.588Z" style="fill:#21587b;fill-rule:nonzero;"/></g><g id="Grupo_33049"><path id="Trazado_81280" d="M123.294,83.551l-0,4.587l7.015,3.97l3.904,-2.253l-10.919,-6.304Z" style="fill:#00223d;fill-rule:nonzero;"/><path id="Trazado_81281" d="M90.463,113.823l-3.959,2.354l10.918,6.304l0,-4.739l-6.959,-3.919Z" style="fill:#00223d;fill-rule:nonzero;"/><path id="Trazado_81282" d="M123.295,83.551l-36.789,21.24l0,11.386l3.959,-2.354l-0,-6.72l32.85,-18.966l-0.02,-4.586Z" style="fill:#21587b;fill-rule:nonzero;"/></g><g id="Grupo_33050"><path id="Trazado_81283" d="M146.689,97.055l0,4.588l7.015,3.97l3.903,-2.253l-10.918,-6.305Z" style="fill:#00223d;fill-rule:nonzero;"/><path id="Trazado_81284" d="M113.857,127.328l-3.958,2.353l10.918,6.304l0,-4.739l-6.96,-3.918Z" style="fill:#00223d;fill-rule:nonzero;"/><path id="Trazado_81285" d="M146.689,97.055l-36.788,21.24l0,11.386l3.959,-2.353l-0,-6.72l32.848,-18.965l-0.019,-4.588Z" style="fill:#21587b;fill-rule:nonzero;"/></g></g></g><g id="Grupo_33060"><g id="Grupo_33059"><clipPath id="_clip6"><path d="M30.173,17.621l-68.745,121.624c-9.999,17.692 -4.652,40.377 12.195,51.741l105.294,71.027c9.01,6.077 20.154,8.137 30.741,5.684l142.805,-33.079c17.669,-4.093 30.296,-19.95 30.328,-38.087l0.209,-120.03c0.031,-18.342 -12.827,-34.369 -30.74,-38.315l-179.567,-39.543c-16.757,-3.69 -34.077,4.041 -42.52,18.978Z"/></clipPath><g clip-path="url(#_clip6)"><g id="Grupo_33058"><g id="Grupo_33054"><g id="Grupo_33053"><path id="Trazado_81286" d="M187.664,188.268l44.3,-25.577l-0,-19.646l-44.3,25.577l-0,19.646Z" style="fill:url(#_Linear7);fill-rule:nonzero;"/><path id="Trazado_81287" d="M187.664,168.621l44.3,-25.577l-44.298,-25.577l-44.301,25.577l44.299,25.577Z" style="fill:#37a3a5;fill-rule:nonzero;"/><path id="Trazado_81288" d="M187.664,159.383l28.298,-16.341l-28.297,-16.341l-28.299,16.341l28.298,16.341Z" style="fill:#fff;fill-rule:nonzero;"/><path id="Trazado_81289" d="M187.665,129.681l25.721,14.85l2.576,-1.487l-28.297,-16.341l-28.299,16.341l2.576,1.487l25.723,-14.85Z" style="fill:#00223d;fill-rule:nonzero;"/><path id="Trazado_81290" d="M187.666,118.437l43.46,25.091l0.838,-0.484l-44.298,-25.577l-44.301,25.577l0.838,0.484l43.463,-25.091Z" style="fill:#a9ebff;fill-rule:nonzero;"/><path id="Trazado_81291" d="M143.364,162.691l44.301,25.577l-0,-19.646l-44.301,-25.577l0,19.646Z" style="fill:url(#_Linear8);fill-rule:nonzero;"/></g><path id="Trazado_81292" d="M187.664,167.636l43.447,-25.085l0.852,0.492l-44.301,25.577l-44.298,-25.577l0.852,-0.492l43.448,25.085Z" style="fill:#00223d;fill-rule:nonzero;"/></g><path id="Trazado_81293" d="M196.194,172.104l25.707,-15.011l21.655,17.341l1.833,14.969l0,13.645l76.881,46.84l21.384,12.627l-3.258,9.776l-14.867,5.906l-20.569,-6.11l-27.494,-18.33l-45.503,-25.25l-12.743,-9.775l-0.812,-20.773l-1.629,-12.626l-20.585,-13.229Z" style="fill:#fff;fill-rule:nonzero;"/><g id="Grupo_33055"><path id="Trazado_81294" d="M324.441,281.642c13.49,-0.051 24.57,-11.148 24.6,-24.639l-0,-121.097c-0,-1.844 -1.517,-3.361 -3.361,-3.361c-1.844,0 -3.361,1.517 -3.361,3.361l0,121.096c0,0.001 0,0.001 0,0.001c0,9.808 -8.07,17.879 -17.878,17.879c-3.138,0 -6.222,-0.826 -8.94,-2.396l-87.032,-50.247c-3.911,-2.267 -6.33,-6.457 -6.337,-10.978l-0,-15.391c-0.011,-6.918 -3.713,-13.328 -9.698,-16.797l-12.505,-7.219c-0.536,-0.338 -1.157,-0.517 -1.791,-0.517c-1.843,-0 -3.359,1.516 -3.359,3.359c-0,1.245 0.691,2.391 1.792,2.972l12.504,7.219c3.912,2.267 6.33,6.457 6.338,10.978l-0,15.398c0.011,6.917 3.712,13.328 9.697,16.797l87.033,50.248c3.734,2.175 7.977,3.325 12.298,3.334Z" style="fill:#fff;fill-rule:nonzero;"/></g><path id="Trazado_81295" d="M220.658,158.328c0.922,-1.596 2.993,-2.151 4.59,-1.23l12.504,7.22c5.985,3.468 9.686,9.878 9.697,16.795l-0,15.392c0.008,4.521 2.426,8.711 6.337,10.978l91.854,53.034c2.237,1.295 4.727,2.091 7.3,2.334c-0.232,2.223 -0.146,4.489 -0.33,6.728c-3.641,-0.304 -7.17,-1.413 -10.33,-3.248l-91.854,-53.034c-5.986,-3.468 -9.687,-9.879 -9.697,-16.797l-0,-15.386c-0.007,-4.52 -2.426,-8.71 -6.338,-10.976l-12.504,-7.22c-1.038,-0.599 -1.68,-1.71 -1.68,-2.909c0,-0.591 0.156,-1.17 0.451,-1.681Z" style="fill:#fff;fill-rule:nonzero;"/><g id="Grupo_33056"><path id="Trazado_81297" d="M324.441,281.642c13.49,-0.051 24.57,-11.148 24.6,-24.639l-0,-121.097c-0,-1.844 -1.517,-3.361 -3.361,-3.361c-1.844,0 -3.361,1.517 -3.361,3.361l0,121.096c0,0.001 0,0.001 0,0.001c0,9.808 -8.07,17.879 -17.878,17.879c-3.138,0 -6.222,-0.826 -8.94,-2.396l-87.032,-50.247c-3.911,-2.267 -6.33,-6.457 -6.337,-10.978l-0,-15.391c-0.011,-6.918 -3.713,-13.328 -9.698,-16.797l-12.505,-7.219c-0.536,-0.338 -1.157,-0.517 -1.791,-0.517c-1.843,-0 -3.359,1.516 -3.359,3.359c-0,1.245 0.691,2.391 1.792,2.972l12.504,7.219c3.912,2.267 6.33,6.457 6.338,10.978l-0,15.398c0.011,6.917 3.712,13.328 9.697,16.797l87.033,50.248c3.734,2.175 7.977,3.325 12.298,3.334Z" style="fill:#37a3a5;fill-rule:nonzero;"/></g><g id="Grupo_33057"><path id="Trazado_81298" d="M178.315,178.844l4.521,2.611l0,-9.082l-4.521,-2.611l-0,9.082Z" style="fill:#fff;fill-opacity:0.2;fill-rule:nonzero;"/><path id="Trazado_81299" d="M170.785,174.497l4.521,2.61l0,-9.081l-4.521,-2.611l-0,9.082Z" style="fill:#fff;fill-opacity:0.4;fill-rule:nonzero;"/><path id="Trazado_81300" d="M163.254,170.149l4.521,2.61l0,-9.082l-4.521,-2.61l-0,9.082Z" style="fill:#fff;fill-opacity:0.8;fill-rule:nonzero;"/><path id="Trazado_81301" d="M155.723,165.803l4.521,2.61l0,-9.082l-4.521,-2.61l-0,9.082Z" style="fill:#fff;fill-rule:nonzero;"/><path id="Trazado_81302" d="M148.192,161.453l4.521,2.61l0,-9.082l-4.521,-2.61l-0,9.082Z" style="fill:#fff;fill-rule:nonzero;"/></g></g></g></g></g><g id="Grupo_33061"><path id="Trazado_81304" d="M101.602,146.01c0.181,3.364 1.96,6.445 4.782,8.285c2.639,1.523 4.784,0.289 4.784,-2.762c-0.183,-3.363 -1.962,-6.445 -4.784,-8.285c-2.641,-1.524 -4.782,-0.288 -4.782,2.762Z" style="fill:#fff;fill-rule:nonzero;"/><path id="Elipse_3404" d="M85.581,132.856c1.867,-1.078 4.898,0.672 6.765,3.906c1.866,3.233 1.866,6.733 -0,7.811c-1.867,1.077 -4.898,-0.673 -6.765,-3.906c-1.867,-3.233 -1.867,-6.733 -0,-7.811Z" style="fill:#fff;"/><path id="Trazado_81305" d="M66.759,125.894c0.182,3.364 1.962,6.446 4.784,8.286c2.639,1.522 4.782,0.288 4.782,-2.762c-0.183,-3.363 -1.962,-6.444 -4.782,-8.283c-2.644,-1.523 -4.784,-0.291 -4.784,2.759Z" style="fill:#fff;fill-rule:nonzero;"/><path id="Trazado_81306" d="M104.027,142.632c-0.251,0.595 -0.373,1.236 -0.36,1.882c0.182,3.363 1.961,6.445 4.783,8.285c0.705,0.442 1.529,0.657 2.36,0.616c-0.711,1.602 -2.423,2.035 -4.425,0.88c-2.822,-1.84 -4.601,-4.921 -4.782,-8.285c-0.001,-2.053 0.981,-3.258 2.424,-3.378Z" style="fill:#21587b;fill-rule:nonzero;"/><path id="Trazado_81307" d="M86.605,132.575c-0.251,0.595 -0.373,1.236 -0.36,1.882c0.182,3.363 1.961,6.445 4.783,8.285c0.705,0.442 1.529,0.657 2.36,0.616c-0.711,1.6 -2.423,2.035 -4.423,0.88c-2.823,-1.839 -4.602,-4.921 -4.784,-8.285c-0.001,-2.054 0.982,-3.258 2.424,-3.378Z" style="fill:#21587b;fill-rule:nonzero;"/><path id="Trazado_81308" d="M69.184,122.517c-0.25,0.595 -0.373,1.236 -0.359,1.881c0.182,3.364 1.961,6.446 4.783,8.286c0.704,0.442 1.528,0.657 2.359,0.616c-0.711,1.601 -2.423,2.035 -4.423,0.88c-2.822,-1.84 -4.602,-4.922 -4.784,-8.286c-0.001,-2.054 0.983,-3.259 2.424,-3.377Z" style="fill:#21587b;fill-rule:nonzero;"/></g><g id="Grupo_33068"><g id="Grupo_33062"><path id="Trazado_81310" d="M214.453,42.326l-39.542,-22.827l31.422,-18.141l39.543,22.827l-31.423,18.141Z" style="fill:url(#_Linear9);fill-rule:nonzero;"/><path id="Trazado_81311" d="M245.875,48.675l-0,-24.489l-31.423,18.142l0,24.489l31.423,-18.142Z" style="fill:url(#_Linear10);fill-rule:nonzero;"/><path id="Trazado_81312" d="M174.911,19.5l-0,24.489l39.542,22.828l0,-24.489l-39.542,-22.828Z" style="fill:url(#_Linear11);fill-rule:nonzero;"/></g><g id="Grupo_33067"><g id="Grupo_33063"><path id="Trazado_81313" d="M199.225,13.773l-17.118,9.883l-0,5.298l5.08,2.934l0,-5.298l17.119,-9.884l-5.081,-2.933Z" style="fill:#fff;fill-rule:nonzero;"/><path id="Trazado_81314" d="M210.099,20.048l-17.118,9.884l-0,5.298l5.08,2.933l-0,-5.298l17.118,-9.884l-5.08,-2.933Z" style="fill:#fff;fill-rule:nonzero;"/><path id="Trazado_81315" d="M220.986,26.332l-17.119,9.883l0,5.299l5.081,2.933l0,-5.298l17.119,-9.884l-5.081,-2.933Z" style="fill:#fff;fill-rule:nonzero;"/></g><g id="Grupo_33064"><path id="Trazado_81316" d="M199.227,13.773l-0,2.131l3.264,1.847l1.816,-1.048l-5.08,-2.93Z" style="fill:#21587b;fill-rule:nonzero;"/><path id="Trazado_81317" d="M183.948,27.858l-1.841,1.095l5.08,2.934l0,-2.205l-3.239,-1.824Z" style="fill:#21587b;fill-rule:nonzero;"/><path id="Trazado_81318" d="M199.225,13.773l-17.118,9.883l-0,5.298l1.841,-1.095l-0,-3.127l15.285,-8.83l-0.008,-2.129Z" style="fill:#00223d;fill-rule:nonzero;"/></g><g id="Grupo_33065"><path id="Trazado_81319" d="M210.099,20.047l0,2.131l3.264,1.849l1.817,-1.049l-5.081,-2.931Z" style="fill:#21587b;fill-rule:nonzero;"/><path id="Trazado_81320" d="M194.822,34.133l-1.841,1.095l5.08,2.933l-0,-2.204l-3.239,-1.824Z" style="fill:#21587b;fill-rule:nonzero;"/><path id="Trazado_81321" d="M210.099,20.047l-17.118,9.884l-0,5.298l1.841,-1.095l0,-3.127l15.285,-8.831l-0.008,-2.129Z" style="fill:#00223d;fill-rule:nonzero;"/></g><g id="Grupo_33066"><path id="Trazado_81322" d="M220.986,26.332l-0,2.131l3.264,1.848l1.816,-1.048l-5.08,-2.931Z" style="fill:#21587b;fill-rule:nonzero;"/><path id="Trazado_81323" d="M205.704,40.418l-1.841,1.096l5.081,2.933l0,-2.205l-3.24,-1.824Z" style="fill:#21587b;fill-rule:nonzero;"/><path id="Trazado_81324" d="M220.986,26.332l-17.119,9.883l0,5.299l1.842,-1.096l-0,-3.127l15.286,-8.83l-0.009,-2.129Z" style="fill:#00223d;fill-rule:nonzero;"/></g></g></g></g></g></g><defs><linearGradient id="_Linear2" x1="0" y1="0" x2="1" y2="0" gradientUnits="userSpaceOnUse" gradientTransform="matrix(106.718,177.687,-177.687,106.718,47.5879,28.4342)"><stop offset="0" style="stop-color:#113f6d;stop-opacity:1"/><stop offset="1" style="stop-color:#fff;stop-opacity:1"/></linearGradient><linearGradient id="_Linear3" x1="0" y1="0" x2="1" y2="0" gradientUnits="userSpaceOnUse" gradientTransform="matrix(-120.634,-93.2439,93.2439,-120.634,132.16,93.7502)"><stop offset="0" style="stop-color:#fff;stop-opacity:1"/><stop offset="1" style="stop-color:#d2e6ee;stop-opacity:1"/></linearGradient><linearGradient id="_Linear4" x1="0" y1="0" x2="1" y2="0" gradientUnits="userSpaceOnUse" gradientTransform="matrix(67.5285,0,0,67.5285,132.651,138.252)"><stop offset="0" style="stop-color:#fff;stop-opacity:1"/><stop offset="1" style="stop-color:#d2e6ee;stop-opacity:1"/></linearGradient><linearGradient id="_Linear5" x1="0" y1="0" x2="1" y2="0" gradientUnits="userSpaceOnUse" gradientTransform="matrix(84.9808,0,0,84.9808,47.6708,133.216)"><stop offset="0" style="stop-color:#fff;stop-opacity:1"/><stop offset="1" style="stop-color:#d2e6ee;stop-opacity:1"/></linearGradient><linearGradient id="_Linear7" x1="0" y1="0" x2="1" y2="0" gradientUnits="userSpaceOnUse" gradientTransform="matrix(55.5966,38.3036,-38.3036,55.5966,-2652.59,147.703)"><stop offset="0" style="stop-color:#fff;stop-opacity:1"/><stop offset="1" style="stop-color:#d2e6ee;stop-opacity:1"/></linearGradient><linearGradient id="_Linear8" x1="0" y1="0" x2="1" y2="0" gradientUnits="userSpaceOnUse" gradientTransform="matrix(59.3178,17.9082,-17.9082,59.3178,-2610.06,157.245)"><stop offset="0" style="stop-color:#fff;stop-opacity:1"/><stop offset="1" style="stop-color:#d2e6ee;stop-opacity:1"/></linearGradient><linearGradient id="_Linear9" x1="0" y1="0" x2="1" y2="0" gradientUnits="userSpaceOnUse" gradientTransform="matrix(-56.1334,-43.3861,43.3861,-56.1334,214.225,24.7918)"><stop offset="0" style="stop-color:#fff;stop-opacity:1"/><stop offset="1" style="stop-color:#d2e6ee;stop-opacity:1"/></linearGradient><linearGradient id="_Linear10" x1="0" y1="0" x2="1" y2="0" gradientUnits="userSpaceOnUse" gradientTransform="matrix(31.4222,0,0,31.4222,214.452,45.5013)"><stop offset="0" style="stop-color:#fff;stop-opacity:1"/><stop offset="1" style="stop-color:#d2e6ee;stop-opacity:1"/></linearGradient><linearGradient id="_Linear11" x1="0" y1="0" x2="1" y2="0" gradientUnits="userSpaceOnUse" gradientTransform="matrix(39.5429,0,0,39.5429,174.911,43.1583)"><stop offset="0" style="stop-color:#fff;stop-opacity:1"/><stop offset="1" style="stop-color:#d2e6ee;stop-opacity:1"/></linearGradient></defs></svg>