<svg xmlns="http://www.w3.org/2000/svg" xmlns:xlink="http://www.w3.org/1999/xlink" width="673.684" height="210.022" viewBox="0 0 673.684 210.022">
  <defs>
    <filter id="Trazado_67306" x="26.587" y="0" width="36.025" height="59.157" filterUnits="userSpaceOnUse">
      <feOffset dy="3" input="SourceAlpha"/>
      <feGaussianBlur stdDeviation="3" result="blur"/>
      <feFlood flood-opacity="0.161"/>
      <feComposite operator="in" in2="blur"/>
      <feComposite in="SourceGraphic"/>
    </filter>
    <filter id="Trazado_67307" x="0" y="0" width="36.025" height="59.157" filterUnits="userSpaceOnUse">
      <feOffset dy="3" input="SourceAlpha"/>
      <feGaussianBlur stdDeviation="3" result="blur-2"/>
      <feFlood flood-opacity="0.161"/>
      <feComposite operator="in" in2="blur-2"/>
      <feComposite in="SourceGraphic"/>
    </filter>
    <filter id="Trazado_67304" x="4.763" y="85.479" width="589.94" height="124.544" filterUnits="userSpaceOnUse">
      <feOffset dx="5" dy="5" input="SourceAlpha"/>
      <feGaussianBlur stdDeviation="3" result="blur-3"/>
      <feFlood flood-opacity="0.161"/>
      <feComposite operator="in" in2="blur-3"/>
      <feComposite in="SourceGraphic"/>
    </filter>
    <filter id="Trazado_67305" x="634.23" y="85.479" width="39.453" height="77.105" filterUnits="userSpaceOnUse">
      <feOffset dx="5" dy="5" input="SourceAlpha"/>
      <feGaussianBlur stdDeviation="3" result="blur-4"/>
      <feFlood flood-opacity="0.161"/>
      <feComposite operator="in" in2="blur-4"/>
      <feComposite in="SourceGraphic"/>
    </filter>
    <filter id="Trazado_67308" x="609.171" y="126.521" width="36.026" height="59.157" filterUnits="userSpaceOnUse">
      <feOffset dx="5" dy="5" input="SourceAlpha"/>
      <feGaussianBlur stdDeviation="3" result="blur-5"/>
      <feFlood flood-opacity="0.161"/>
      <feComposite operator="in" in2="blur-5"/>
      <feComposite in="SourceGraphic"/>
    </filter>
    <filter id="Trazado_67309" x="582.584" y="126.521" width="36.025" height="59.157" filterUnits="userSpaceOnUse">
      <feOffset dx="5" dy="5" input="SourceAlpha"/>
      <feGaussianBlur stdDeviation="3" result="blur-6"/>
      <feFlood flood-opacity="0.161"/>
      <feComposite operator="in" in2="blur-6"/>
      <feComposite in="SourceGraphic"/>
    </filter>
  </defs>
  <g id="Grupo_41882" data-name="Grupo 41882" transform="translate(-381.277 -684.703)">
    <text id="La_dirección_IP_es_el_identificador_del_dispositivo_dentro_de_una_red_y_debe_ser_único_dentro_de_los_límites_de_dicha_red._El_uso_formato_tipos_y_demás_características_del_direccionamiento_IP_están_incluidos_en_lo_que_se_conoce_como_protocolo_IP." data-name="La dirección IP es el identificador del dispositivo dentro de una red y debe ser único dentro de los límites de dicha red. El uso, formato, tipos y demás características del direccionamiento IP están incluidos en lo que se conoce como protocolo IP." transform="translate(451.04 717.281)" fill="#00223d" font-size="18" font-family="Roboto-Regular, Roboto"><tspan x="0" y="17">La </tspan><tspan y="17" font-family="Roboto-Black, Roboto" font-weight="800">dirección IP</tspan><tspan y="17" xml:space="preserve"> es el identificador del dispositivo dentro de una </tspan><tspan x="0" y="41">red y debe ser único dentro de los límites de dicha red. El uso, </tspan><tspan x="0" y="65">formato, tipos y demás características del </tspan><tspan y="65" font-family="Roboto-Black, Roboto" font-weight="800">direccionamiento IP</tspan><tspan y="65"> </tspan><tspan x="0" y="89">están incluidos en lo que se conoce como </tspan><tspan y="89" font-family="Roboto-Black, Roboto" font-weight="800">protocolo IP</tspan><tspan y="89">.</tspan></text>
    <g id="Grupo_28763" data-name="Grupo 28763" transform="translate(24.04 -7135.297)">
      <g transform="matrix(1, 0, 0, 1, 357.24, 7820)" filter="url(#Trazado_67306)">
        <path id="Trazado_67306-2" data-name="Trazado 67306" d="M3087.693,3589.234h-8.048q.261-7.407,2.519-11.284a13.92,13.92,0,0,1,7.031-5.835l-3.755-6.013a23.211,23.211,0,0,0-11.5,10.385q-2.767,5.15-2.767,16.652v14.12h16.523Z" transform="translate(-3035.58 -3560.1)" fill="#37a3a5"/>
      </g>
      <g transform="matrix(1, 0, 0, 1, 357.24, 7820)" filter="url(#Trazado_67307)">
        <path id="Trazado_67307-2" data-name="Trazado 67307" d="M3040.248,3589.234H3032.2q.26-7.407,2.518-11.284a13.925,13.925,0,0,1,7.031-5.835L3038,3566.1a23.205,23.205,0,0,0-11.5,10.385q-2.767,5.15-2.767,16.652v14.12h16.523Z" transform="translate(-3014.73 -3560.1)" fill="#37a3a5"/>
      </g>
      <g id="Grupo_26522" data-name="Grupo 26522" transform="translate(0 -88)">
        <g transform="matrix(1, 0, 0, 1, 357.24, 7908)" filter="url(#Trazado_67304)">
          <path id="Trazado_67304-2" data-name="Trazado 67304" d="M3110.6,3965.6v-39.791h-73.881a8.023,8.023,0,0,1-8.014-8.013v-45.685H3023.3V3917.8a13.436,13.436,0,0,0,13.421,13.421H3105.2v47.438l47.438-47.438h442.607v-5.407H3150.4Z" transform="translate(-3014.54 -3782.63)" fill="#00223d"/>
        </g>
        <g transform="matrix(1, 0, 0, 1, 357.24, 7908)" filter="url(#Trazado_67305)">
          <path id="Trazado_67305-2" data-name="Trazado 67305" d="M4162.655,3872.111V3917.8a8.022,8.022,0,0,1-8.014,8.013h-8.031v5.407h8.031a13.437,13.437,0,0,0,13.422-13.421v-45.685Z" transform="translate(-3508.38 -3782.63)" fill="#00223d"/>
        </g>
        <g transform="matrix(1, 0, 0, 1, 357.24, 7908)" filter="url(#Trazado_67308)">
          <path id="Trazado_67308-2" data-name="Trazado 67308" d="M4103.393,3963.377h8.048q-.261,7.407-2.518,11.284a13.927,13.927,0,0,1-7.032,5.835l3.755,6.013a23.213,23.213,0,0,0,11.5-10.386q2.767-5.15,2.768-16.652v-14.12h-16.523Z" transform="translate(-3488.72 -3814.83)" fill="#37a3a5"/>
        </g>
        <g transform="matrix(1, 0, 0, 1, 357.24, 7908)" filter="url(#Trazado_67309)">
          <path id="Trazado_67309-2" data-name="Trazado 67309" d="M4055.948,3963.377h8.047q-.26,7.407-2.518,11.284a13.923,13.923,0,0,1-7.031,5.835l3.755,6.013a23.207,23.207,0,0,0,11.5-10.386q2.767-5.15,2.767-16.652v-14.12h-16.522Z" transform="translate(-3467.86 -3814.83)" fill="#37a3a5"/>
        </g>
      </g>
      <text id="Internet_Protocol" data-name="Internet Protocol" transform="translate(782.577 7974.479)" fill="#00223d" font-size="18" font-family="SegoeUI-BoldItalic, Segoe UI" font-weight="700" font-style="italic"><tspan x="0" y="19">Internet Protocol</tspan></text>
    </g>
  </g>
</svg>
