<svg xmlns="http://www.w3.org/2000/svg" xmlns:xlink="http://www.w3.org/1999/xlink" width="344.917" height="391.402" viewBox="0 0 344.917 391.402">
  <defs>
    <linearGradient id="linear-gradient" x1="0.5" x2="0.5" y2="1" gradientUnits="objectBoundingBox">
      <stop offset="0" stop-color="#fff"/>
      <stop offset="1" stop-color="#d2e6ee"/>
    </linearGradient>
  </defs>
  <g id="Grupo_39388" data-name="Grupo 39388" transform="translate(-777 -6413.194)">
    <g id="Grupo_39387" data-name="Grupo 39387" transform="translate(715.28 6397.878)">
      <g id="Shadows" transform="translate(61.72 204.668)">
        <path id="Shadow" d="M190.963,430.325,65.394,357.778c-4.9-2.828-4.9-7.456,0-10.284L268.711,230.022a8.137,8.137,0,0,1,7.335,0L404.7,304.356a3.882,3.882,0,0,1,0,6.723L198.3,430.325A8.136,8.136,0,0,1,190.963,430.325Z" transform="translate(-61.72 -229.149)" fill="#e0e0e0"/>
      </g>
      <g id="Device" transform="translate(64.461 15.316)">
        <g id="Laptop" transform="translate(0)">
          <g id="Grupo_39336" data-name="Grupo 39336" transform="translate(7.334 181.163)">
            <path id="Trazado_92041" data-name="Trazado 92041" d="M73.1,343.349a11.014,11.014,0,0,0,5.137,8.528l111.829,64.578a11.356,11.356,0,0,0,10.273,0L397.255,302.764a9.65,9.65,0,0,0,0-17.059L285.427,221.129a11.351,11.351,0,0,0-10.273,0L78.235,334.818A11.013,11.013,0,0,0,73.1,343.349Z" transform="translate(-73.097 -219.901)" fill="url(#linear-gradient)"/>
            <path id="Trazado_92042" data-name="Trazado 92042" d="M418.182,302.828a11.013,11.013,0,0,1-5.139,8.527l-196.921,113.7a10.585,10.585,0,0,1-5.129,1.225V415.152a10.491,10.491,0,0,0,5.129-1.233L413.043,300.232c2.485-1.432,2.795-3.647.932-5.278A11.023,11.023,0,0,1,418.182,302.828Z" transform="translate(-88.884 -228.493)" fill="#00223d"/>
            <path id="Trazado_92043" data-name="Trazado 92043" d="M195.2,421.465V432.58a10.463,10.463,0,0,1-5.136-1.222L78.233,366.779a9.619,9.619,0,0,1-.522-16.726c-2.3,1.649-2.123,4.069.522,5.6l111.834,64.58A10.468,10.468,0,0,0,195.2,421.465Z" transform="translate(-73.097 -234.801)" fill="#00223d"/>
          </g>
          <g id="Grupo_39337" data-name="Grupo 39337">
            <path id="Trazado_92044" data-name="Trazado 92044" d="M67.333,311.581c-2.511-1.771-2.517-4.131-2.517-7.406V138.693a11.355,11.355,0,0,1,5.136-8.9L266.869,16.106c2.836-1.637,5.453-.451,8.115,1.086s4.358,2.862,4.358,6.137V188.81a11.355,11.355,0,0,1-5.136,8.9L77.287,311.4C72.993,314.292,70.065,313.509,67.333,311.581Z" transform="translate(-64.815 -15.316)" fill="url(#linear-gradient)"/>
            <path id="Trazado_92045" data-name="Trazado 92045" d="M77.287,326.7c-4.293,2.89-7.226,2.108-9.954.179-2.508-1.768-2.516-4.132-2.516-7.4V153.993a10.578,10.578,0,0,1,1.5-5.057l7.336,4.267a10.412,10.412,0,0,0-1.5,5.04V323.73C72.153,327,74.448,328.329,77.287,326.7Z" transform="translate(-64.815 -30.613)" fill="#00223d"/>
            <path id="Trazado_92046" data-name="Trazado 92046" d="M279.537,23.325c0-3.269-2.3-4.595-5.138-2.965L77.478,134.055a10.427,10.427,0,0,0-3.629,3.84l-7.329-4.263h-.01a10.544,10.544,0,0,1,3.638-3.84L267.06,16.1c2.836-1.639,5.452-.453,8.113,1.085S279.537,20.055,279.537,23.325Z" transform="translate(-65.009 -15.316)" fill="#00223d"/>
          </g>
          <g id="Grupo_39338" data-name="Grupo 39338" transform="translate(12.153 14.658)">
            <path id="Trazado_92047" data-name="Trazado 92047" d="M81.621,141.874,271.475,32.29c1.7-.983,3.082-.186,3.082,1.78V185.852a6.814,6.814,0,0,1-3.082,5.338L81.621,300.771c-1.7.983-3.082.186-3.082-1.779V147.212A6.812,6.812,0,0,1,81.621,141.874Z" transform="translate(-78.539 -31.869)" fill="#263238"/>
            <path id="Trazado_92048" data-name="Trazado 92048" d="M81.621,142.011a6.812,6.812,0,0,0-3.082,5.338V298.214L267.276,189.277a6.812,6.812,0,0,0,3.082-5.339V33.072Z" transform="translate(-78.539 -32.006)" fill="#27debf"/>
            <path id="Trazado_92049" data-name="Trazado 92049" d="M81.621,142.011a6.812,6.812,0,0,0-3.082,5.338V298.214L267.276,189.277a6.812,6.812,0,0,0,3.082-5.339V33.072Z" transform="translate(-78.539 -32.006)" fill="#fff" opacity="0.65"/>
          </g>
          <path id="Trazado_92050" data-name="Trazado 92050" d="M94.813,336.3,277.6,230.768a5.682,5.682,0,0,1,5.137,0l5.318,2.794c1.419.819,1.419,2.146,0,2.966L105.24,342.039a5.682,5.682,0,0,1-5.137,0l-5.29-2.777C93.395,338.443,93.395,337.115,94.813,336.3Z" transform="translate(-68.128 -39.912)" fill="#37474f"/>
          <g id="Grupo_39339" data-name="Grupo 39339" transform="translate(39.816 198.682)">
            <path id="Trazado_92051" data-name="Trazado 92051" d="M110.985,345.912l182.78-105.529a5.238,5.238,0,0,1,4.693-.256L346.034,267.6c1.173.677.975,1.891-.444,2.71L163.022,375.691a5.265,5.265,0,0,1-4.7.264l-47.777-27.34C109.371,347.941,109.566,346.731,110.985,345.912Z" transform="translate(-109.778 -239.685)" fill="#263238"/>
            <path id="Trazado_92052" data-name="Trazado 92052" d="M268.4,284.8l5.723-3.3c.243-.141.279-.348.08-.462l-5.048-2.915a.9.9,0,0,0-.8.046l-5.723,3.3c-.243.14-.279.347-.08.462l5.048,2.914A.9.9,0,0,0,268.4,284.8Zm-7.986-11.219-5.723,3.3c-.243.141-.278.348-.08.463l5.048,2.914a.9.9,0,0,0,.8-.046l5.723-3.3c.244-.141.28-.348.081-.462l-5.049-2.915A.9.9,0,0,0,260.418,273.586Zm-18.49,10.675-9.685,5.592c-.243.14-.278.347-.08.461l5.049,2.915a.9.9,0,0,0,.8-.046l9.685-5.591c.243-.141.279-.348.08-.463l-5.048-2.914A.894.894,0,0,0,241.928,284.261Zm10.126-5.846-5.724,3.3c-.243.14-.278.347-.079.462L251.3,285.1a.892.892,0,0,0,.8-.046l5.723-3.3c.243-.141.279-.347.08-.462l-5.048-2.914A.892.892,0,0,0,252.054,278.415ZM229.6,291.377l-5.723,3.3c-.244.14-.279.347-.08.462l5.048,2.915a.9.9,0,0,0,.8-.046l5.723-3.3c.243-.14.279-.347.08-.462l-5.048-2.914A.9.9,0,0,0,229.6,291.377Zm-8.365,4.83-5.723,3.3c-.243.141-.278.348-.08.462l5.048,2.915a.9.9,0,0,0,.8-.046l5.722-3.3c.244-.14.279-.347.08-.462l-5.048-2.914A.9.9,0,0,0,221.238,296.207Zm21.207,12.752,5.723-3.3c.243-.141.279-.348.08-.462l-5.048-2.914a.892.892,0,0,0-.8.046l-5.723,3.3c-.244.141-.279.348-.08.463L241.645,309A.893.893,0,0,0,242.445,308.959Zm-8.364,4.829,5.723-3.3c.243-.14.278-.347.079-.462l-5.047-2.914a.894.894,0,0,0-.8.046l-5.722,3.3c-.243.14-.279.347-.081.462l5.048,2.915A.9.9,0,0,0,234.082,313.788Zm-8.365,4.83,5.723-3.3c.244-.141.279-.347.08-.462l-5.048-2.915a.9.9,0,0,0-.8.046l-5.723,3.3c-.244.141-.279.348-.08.463l5.048,2.914A.9.9,0,0,0,225.717,318.617Zm-8.365,4.829,5.723-3.3c.244-.14.279-.347.08-.462l-5.048-2.914a.893.893,0,0,0-.8.046l-5.723,3.3c-.243.14-.279.347-.08.462l5.048,2.914A.892.892,0,0,0,217.353,323.446Zm42.687-33.812,5.722-3.3c.243-.14.279-.347.08-.462l-5.048-2.914a.893.893,0,0,0-.8.046l-5.723,3.3c-.244.141-.28.347-.081.462l5.048,2.915A.9.9,0,0,0,260.04,289.634Zm-9.23,14.5,12.766-7.371c.244-.141.278-.347.079-.462l-12.987-7.5a.9.9,0,0,0-.8.046l-6.6,3.813c-.244.14-.278.347-.08.462l7.219,4.167c.2.115.163.322-.081.462l-5.282,3.05c-.243.141-.279.348-.08.462l5.048,2.915A.9.9,0,0,0,250.81,304.13Zm-37.935-3.095-5.724,3.3c-.243.14-.278.347-.079.462l5.047,2.914a.894.894,0,0,0,.8-.046l5.723-3.3c.243-.14.278-.347.079-.462l-5.047-2.915A.9.9,0,0,0,212.874,301.035Zm-8.365,4.83-5.723,3.3c-.243.141-.279.347-.08.462l5.048,2.915a.9.9,0,0,0,.8-.046l5.723-3.3c.244-.14.279-.347.08-.462l-5.048-2.914A.9.9,0,0,0,204.51,305.865ZM158,357.3a.9.9,0,0,0,.8-.046l5.723-3.3c.243-.14.278-.347.08-.462l-5.048-2.914a.894.894,0,0,0-.8.046l-5.722,3.3c-.244.141-.279.347-.081.462ZM137.6,344.5l-5.722,3.3c-.244.14-.279.347-.08.462l5.048,2.914a.892.892,0,0,0,.8-.046l5.723-3.3c.243-.141.279-.347.08-.462l-5.048-2.914A.9.9,0,0,0,137.6,344.5Zm10.267,9.486a.9.9,0,0,0,.8-.045l5.723-3.3c.244-.14.279-.347.08-.462l-5.047-2.914a.894.894,0,0,0-.8.046l-5.723,3.3c-.244.141-.279.347-.079.462Zm23.283,5.31,5.722-3.3c.244-.14.279-.347.081-.462l-5.048-2.914a.894.894,0,0,0-.8.046l-5.723,3.3c-.242.14-.278.348-.079.462l5.047,2.914A.894.894,0,0,0,171.145,359.292Zm-9.165,4.875a.892.892,0,0,0,.8-.046l5.723-3.3c.243-.14.279-.346.08-.461l-5.048-2.915a.9.9,0,0,0-.8.046l-5.723,3.3c-.244.14-.279.347-.08.462Zm-16.02-24.5-5.722,3.3c-.244.141-.279.347-.08.462l5.047,2.915a.9.9,0,0,0,.8-.046l5.722-3.3c.244-.14.279-.347.08-.461l-5.047-2.915A.894.894,0,0,0,145.96,339.669Zm41.821-24.145-5.723,3.3c-.243.141-.278.347-.079.462l5.047,2.915a.9.9,0,0,0,.8-.046l5.724-3.3c.243-.14.278-.347.08-.462l-5.048-2.914A.894.894,0,0,0,187.781,315.523ZM154.324,334.84l-5.723,3.3c-.243.14-.279.347-.08.462l5.048,2.914a.894.894,0,0,0,.8-.046l5.722-3.3c.244-.14.279-.347.08-.462l-5.047-2.915A.9.9,0,0,0,154.324,334.84Zm41.821-24.146-5.723,3.3c-.243.14-.279.347-.079.462l5.047,2.914a.894.894,0,0,0,.8-.046l5.722-3.3c.243-.141.279-.347.081-.462l-5.048-2.915A.9.9,0,0,0,196.145,310.694Zm-16.728,9.658-5.723,3.3c-.243.141-.279.348-.08.463l5.048,2.914a.894.894,0,0,0,.8-.046l5.722-3.3c.243-.141.279-.348.08-.462l-5.048-2.914A.892.892,0,0,0,179.417,320.352Zm-8.365,4.829-5.722,3.3c-.243.14-.28.348-.081.462l5.048,2.915a.9.9,0,0,0,.8-.047l5.723-3.3c.243-.141.278-.348.079-.463l-5.047-2.914A.9.9,0,0,0,171.053,325.181Zm-8.364,4.83-5.723,3.3c-.243.141-.279.348-.08.463l5.048,2.914a.9.9,0,0,0,.8-.046l5.723-3.3c.243-.141.279-.348.08-.463l-5.048-2.914A.9.9,0,0,0,162.689,330.01Zm37.935,3.095,5.723-3.3c.243-.14.279-.348.08-.462l-5.048-2.914a.894.894,0,0,0-.8.046l-5.722,3.3c-.244.141-.279.347-.08.462l5.048,2.915A.9.9,0,0,0,200.624,333.105Zm78.283-70.194-5.723,3.3c-.243.141-.278.348-.08.462l5.048,2.915a.9.9,0,0,0,.8-.046l5.722-3.3c.243-.141.279-.347.08-.462l-5.048-2.915A.9.9,0,0,0,278.907,262.911Zm-10.125,5.846-5.723,3.3c-.244.14-.279.347-.08.462l5.048,2.914a.892.892,0,0,0,.8-.046l5.723-3.3c.243-.14.279-.347.08-.462l-5.048-2.915A.9.9,0,0,0,268.782,268.757Zm18.489-10.675-5.722,3.3c-.243.14-.279.347-.08.462l5.048,2.914a.892.892,0,0,0,.8-.046l5.723-3.3c.243-.14.279-.347.08-.462l-5.048-2.915A.9.9,0,0,0,287.271,258.083Zm-46.6,42.735,5.722-3.3c.244-.141.279-.348.08-.463l-5.047-2.914a.894.894,0,0,0-.8.046l-5.723,3.3c-.243.14-.278.347-.08.462l5.048,2.915A.9.9,0,0,0,240.67,300.818Zm55.767-47.611a.9.9,0,0,0-.8.046l-5.722,3.3c-.243.141-.279.348-.08.462l5.048,2.915a.891.891,0,0,0,.8-.046l5.723-3.3c.244-.14.28-.346.081-.461Zm-87.448,75.069,5.722-3.3c.244-.141.279-.347.08-.462l-5.047-2.915a.9.9,0,0,0-.8.046l-5.723,3.3c-.243.14-.278.347-.079.461l5.047,2.915A.9.9,0,0,0,208.989,328.276Zm102.572-59.221,5.723-3.3c.243-.14.278-.347.08-.462l-5.049-2.914a.892.892,0,0,0-.8.046l-5.723,3.3c-.242.14-.279.348-.079.462l5.047,2.915A.9.9,0,0,0,311.561,269.055Zm-16.3.246,5.723-3.3c.243-.14.278-.346.079-.461l-5.048-2.915a.892.892,0,0,0-.8.046l-5.722,3.3c-.244.141-.28.347-.081.462l5.049,2.915A.9.9,0,0,0,295.257,269.3Zm9.118-11.51a.892.892,0,0,0-.8.045l-5.723,3.3c-.243.14-.279.347-.08.462l5.048,2.914a.9.9,0,0,0,.8-.045l5.723-3.3c.244-.141.279-.347.08-.462Zm1.761-1.017,12.987,7.5a.9.9,0,0,0,.8-.046l5.723-3.3c.243-.141.279-.347.081-.462l-12.988-7.5a.9.9,0,0,0-.8.046l-5.722,3.3C305.973,256.452,305.938,256.66,306.137,256.775ZM286.847,267.5l-5.723,3.3c-.244.14-.279.347-.08.462l5.048,2.914a.892.892,0,0,0,.8-.046l5.723-3.3c.243-.141.279-.348.08-.462l-5.048-2.915A.9.9,0,0,0,286.847,267.5ZM223.895,303.84l-5.723,3.3c-.244.14-.279.347-.08.462l5.048,2.914a.892.892,0,0,0,.8-.046l5.723-3.3c.244-.141.279-.347.08-.462l-5.048-2.914A.9.9,0,0,0,223.895,303.84Zm78.5-29.909a.9.9,0,0,0,.8-.046l5.723-3.3c.243-.141.278-.348.079-.462L303.95,267.2a.9.9,0,0,0-.8.046l-5.723,3.3c-.243.14-.279.347-.08.461Zm-70.137,25.08-5.722,3.3c-.244.141-.279.348-.08.463l5.048,2.914a.892.892,0,0,0,.8-.046l5.723-3.3c.243-.141.279-.348.08-.462l-5.048-2.915A.9.9,0,0,0,232.258,299.011Zm-65.892,53.456a.9.9,0,0,0,.8-.046l5.723-3.3c.243-.141.278-.347.079-.462l-5.048-2.915a.9.9,0,0,0-.8.046l-5.723,3.3c-.243.14-.278.347-.08.461Zm-9.386-9.994-5.723,3.3c-.243.14-.279.347-.08.461l5.048,2.915a.9.9,0,0,0,.8-.046l5.723-3.3c.244-.141.279-.347.08-.463l-5.048-2.914A.9.9,0,0,0,156.981,342.473Zm18.551,5.119,5.723-3.3c.243-.14.279-.347.08-.462l-5.048-2.914a.894.894,0,0,0-.8.046l-5.722,3.3c-.243.141-.279.348-.08.462l5.048,2.914A.9.9,0,0,0,175.531,347.592Zm8.364-4.829,5.723-3.3c.244-.141.28-.347.081-.462l-5.049-2.915a.9.9,0,0,0-.8.046l-5.723,3.3c-.243.141-.279.348-.079.463l5.048,2.914A.893.893,0,0,0,183.9,342.763Zm8.365-4.83,5.723-3.3c.243-.141.279-.348.08-.463l-5.048-2.914a.892.892,0,0,0-.8.046l-5.723,3.3c-.244.141-.279.348-.08.462l5.048,2.915A.9.9,0,0,0,192.26,337.934Zm-26.915-.29-5.722,3.3c-.244.14-.279.347-.081.462l5.049,2.914a.893.893,0,0,0,.8-.046l5.723-3.3c.243-.14.279-.347.08-.462l-5.048-2.914A.894.894,0,0,0,165.345,337.644Zm8.365-4.83-5.722,3.3c-.244.141-.28.348-.081.463l5.048,2.914a.894.894,0,0,0,.8-.046l5.722-3.3c.244-.141.279-.347.08-.462l-5.048-2.915A.9.9,0,0,0,173.709,332.815ZM207.166,313.5l-5.723,3.3c-.244.142-.279.348-.08.463l5.048,2.914a.892.892,0,0,0,.8-.046l5.723-3.3c.243-.14.279-.348.08-.462l-5.048-2.914A.892.892,0,0,0,207.166,313.5Zm-8.365,4.829-5.723,3.3c-.243.141-.279.348-.08.462l5.048,2.915a.9.9,0,0,0,.8-.046l5.723-3.3c.244-.141.279-.348.08-.463l-5.048-2.914A.892.892,0,0,0,198.8,318.328Zm16.728-9.658-5.723,3.3c-.243.141-.278.348-.079.462l5.047,2.915a.9.9,0,0,0,.8-.046L221.3,312c.243-.14.278-.347.079-.461l-5.048-2.915A.9.9,0,0,0,215.53,308.669Zm-33.456,19.316-5.723,3.3c-.244.141-.279.348-.08.462l5.048,2.914a.9.9,0,0,0,.8-.045l5.723-3.3c.243-.141.279-.348.08-.463l-5.048-2.914A.9.9,0,0,0,182.074,327.985Zm8.364-4.829-5.723,3.3c-.243.14-.279.347-.079.462l5.048,2.914a.9.9,0,0,0,.8-.045l5.722-3.3c.244-.14.28-.348.081-.462l-5.049-2.914A.892.892,0,0,0,190.437,323.156Zm-10.929,31.306,5.723-3.3c.244-.14.279-.347.081-.462l-5.049-2.915a.9.9,0,0,0-.8.046l-5.723,3.3c-.243.141-.279.348-.08.463l5.048,2.915A.9.9,0,0,0,179.508,354.463ZM135.08,352.2l-5.048-2.914a.892.892,0,0,0-.8.046l-5.723,3.3c-.244.141-.279.347-.08.462l5.048,2.915a.9.9,0,0,0,.8-.046l5.723-3.3C135.244,352.517,135.28,352.31,135.08,352.2ZM146.1,355l-5.049-2.914a.9.9,0,0,0-.8.046l-8.8,5.083c-.243.141-.279.348-.08.463l5.048,2.914a.9.9,0,0,0,.8-.046l8.8-5.083C146.264,355.322,146.3,355.115,146.1,355Zm-18.453-8.62-5.047-2.914a.9.9,0,0,0-.8.046l-7.043,4.067c-.243.14-.279.347-.08.462l5.048,2.914a.9.9,0,0,0,.8-.046l7.044-4.067C127.812,346.7,127.847,346.494,127.648,346.379Zm5.4-3.117a.9.9,0,0,0,.8-.046l5.722-3.3c.244-.14.28-.347.081-.461l-5.048-2.915a.9.9,0,0,0-.8.046l-5.722,3.3c-.244.141-.279.347-.081.462Zm23.193,15.051-5.048-2.915a.9.9,0,0,0-.8.047L139.387,361.8c-.243.141-.279.347-.079.462l5.047,2.914a.9.9,0,0,0,.8-.045l11.006-6.354C156.405,358.634,156.441,358.428,156.241,358.313Zm3.977,6.871-5.048-2.914a.893.893,0,0,0-.8.045l-7.044,4.067c-.243.141-.279.348-.08.462l5.048,2.915a.9.9,0,0,0,.8-.046l7.044-4.067C160.382,365.506,160.418,365.3,160.218,365.184Zm35.019-57.827a.9.9,0,0,0,.8-.045l5.722-3.3c.244-.141.28-.347.081-.462l-5.048-2.914a.894.894,0,0,0-.8.045l-5.722,3.3c-.244.141-.279.348-.08.463Zm-16.729,9.658a.9.9,0,0,0,.8-.046l5.723-3.3c.243-.14.278-.346.079-.461l-5.047-2.915a.9.9,0,0,0-.8.046l-5.722,3.3c-.244.141-.279.347-.081.463Zm-37.1,21.417a.892.892,0,0,0,.8-.046l5.723-3.3c.243-.14.279-.347.08-.462l-5.048-2.915a.9.9,0,0,0-.8.047l-5.723,3.3c-.243.14-.279.347-.08.462Zm45.46-26.247a.892.892,0,0,0,.8-.046l5.723-3.3c.244-.14.279-.347.08-.462l-5.048-2.914a.892.892,0,0,0-.8.046l-5.723,3.3c-.243.14-.279.347-.08.462Zm-16.728,9.659a.9.9,0,0,0,.8-.047l5.723-3.3c.244-.14.279-.347.08-.462l-5.048-2.914a.892.892,0,0,0-.8.046l-5.723,3.3c-.244.14-.279.347-.08.462Zm-5.274,43.991a.894.894,0,0,0-.8.046l-8.8,5.083c-.244.141-.279.348-.08.463l5.047,2.914a.894.894,0,0,0,.8-.046l8.8-5.084c.243-.14.278-.347.079-.462Zm-6.73-37.061a.9.9,0,0,0,.8-.046l5.722-3.3c.244-.141.279-.348.08-.463l-5.047-2.914a.894.894,0,0,0-.8.046l-5.722,3.3c-.244.14-.279.347-.08.462Zm-8.364,4.829a.892.892,0,0,0,.8-.046l5.723-3.3c.243-.141.279-.348.08-.462l-5.048-2.915a.9.9,0,0,0-.8.046l-5.723,3.3c-.243.141-.279.348-.08.463Zm170.051-57.233a.892.892,0,0,0-.8.046l-14.087,8.133c-.243.141-.279.348-.081.463l5.049,2.914a.892.892,0,0,0,.8-.046l14.087-8.133c.243-.14.279-.347.08-.462Zm-18.49,10.675a.892.892,0,0,0-.8.046l-5.723,3.3c-.243.141-.278.347-.079.462l5.047,2.915a.9.9,0,0,0,.8-.047l5.723-3.3c.243-.14.278-.347.079-.462ZM187.873,349.634l5.723-3.3c.244-.141.279-.348.079-.463l-5.047-2.914a.892.892,0,0,0-.8.046l-5.723,3.3c-.244.141-.279.347-.08.462l5.048,2.915A.9.9,0,0,0,187.873,349.634Zm96.738-52.93a.892.892,0,0,0-.8.046l-5.723,3.3c-.243.141-.279.347-.08.462l5.048,2.915a.9.9,0,0,0,.8-.046l5.723-3.3c.243-.14.279-.347.08-.462Zm43.582-25.163a.9.9,0,0,0-.8.046l-5.723,3.3c-.243.14-.279.347-.08.462l5.048,2.914a.892.892,0,0,0,.8-.046l5.723-3.3c.243-.141.279-.347.08-.462Zm13.413-1.914-12.988-7.5a.9.9,0,0,0-.8.046l-5.723,3.3c-.243.14-.279.347-.08.462L335,273.44a.9.9,0,0,0,.8-.046l5.724-3.3C341.769,269.949,341.8,269.742,341.606,269.628Zm-88.251,45.121a.9.9,0,0,0-.8.046l-7.043,4.067c-.243.14-.279.347-.08.462l5.048,2.914a.892.892,0,0,0,.8-.046l7.043-4.066c.244-.141.279-.348.08-.462Zm21.131-12.2a.9.9,0,0,0-.8.046l-8.8,5.084c-.243.14-.279.347-.08.462l5.048,2.914a.9.9,0,0,0,.8-.046l8.8-5.084c.244-.14.279-.346.08-.462Zm-40.5,23.383a.9.9,0,0,0-.8.046l-47.1,27.2c-.244.14-.28.347-.081.461l5.048,2.915a.894.894,0,0,0,.8-.046l47.1-27.2c.244-.141.279-.348.08-.463Zm-49.745,28.721a.892.892,0,0,0-.8.046l-7.044,4.066c-.243.14-.279.347-.08.462l5.048,2.915a.9.9,0,0,0,.8-.046l7.044-4.067c.243-.14.278-.347.08-.462Zm59.429-34.312a.893.893,0,0,0-.8.046l-7.043,4.066c-.243.141-.279.347-.08.462l5.048,2.914a.892.892,0,0,0,.8-.045l7.043-4.067c.243-.14.279-.347.08-.462Zm-69.114,39.9a.9.9,0,0,0-.8.046l-7.043,4.067c-.244.14-.279.347-.08.462l5.048,2.914a.9.9,0,0,0,.8-.045l7.043-4.067c.244-.141.279-.347.081-.462Zm88.484-51.086a.893.893,0,0,0-.8.046L255.2,313.27c-.243.141-.279.347-.08.462l5.048,2.914a.9.9,0,0,0,.8-.045l7.044-4.067c.243-.14.278-.347.079-.462Zm29.936-17.283a.9.9,0,0,0-.8.046l-5.722,3.3c-.243.141-.279.347-.08.462l5.048,2.915a.9.9,0,0,0,.8-.046l5.723-3.3c.243-.141.278-.347.08-.463Zm18.16-13.407,5.722-3.3c.243-.141.28-.347.081-.462l-5.048-2.914a.894.894,0,0,0-.8.046l-5.722,3.3c-.243.14-.279.347-.08.462l5.048,2.914A.892.892,0,0,0,311.135,278.468Zm-34.368,1.508,5.723-3.3c.243-.14.278-.347.08-.462l-5.048-2.914a.894.894,0,0,0-.8.046l-5.722,3.3c-.244.141-.279.347-.08.462l5.047,2.914A.9.9,0,0,0,276.768,279.976ZM254.787,311l16.729-9.658c.243-.14.278-.347.079-.462l-5.047-2.914a.894.894,0,0,0-.8.046l-16.728,9.658c-.244.14-.279.347-.08.462l5.048,2.914A.893.893,0,0,0,254.787,311Zm47.184-27.657a.9.9,0,0,0,.8-.046l5.723-3.3c.243-.141.279-.348.08-.463l-5.048-2.914a.892.892,0,0,0-.8.046l-5.723,3.3c-.243.141-.279.348-.08.462Zm-7.138-4.629,5.723-3.3c.243-.14.279-.347.079-.462l-5.047-2.914a.9.9,0,0,0-.8.045l-5.722,3.3c-.243.141-.28.347-.081.462l5.049,2.914A.9.9,0,0,0,294.832,278.714Zm-48.41,37.116,5.723-3.3c.244-.14.279-.347.08-.461l-5.048-2.915a.892.892,0,0,0-.8.046l-5.723,3.3c-.243.141-.279.347-.079.462l5.047,2.915A.9.9,0,0,0,246.422,315.831Zm37.059-21.812a.9.9,0,0,0,.8-.046l5.722-3.3c.244-.14.279-.347.08-.461l-5.048-2.915a.892.892,0,0,0-.8.046l-5.723,3.3c-.243.141-.279.347-.08.462ZM204.6,339.976l5.723-3.3c.244-.14.279-.346.08-.461l-5.048-2.915a.892.892,0,0,0-.8.046l-5.723,3.3c-.243.141-.278.348-.08.462l5.048,2.915A.9.9,0,0,0,204.6,339.976Zm8.365-4.83,5.723-3.3c.243-.141.279-.347.08-.462l-5.048-2.915a.9.9,0,0,0-.8.047l-5.723,3.3c-.244.14-.279.347-.08.462l5.048,2.914A.892.892,0,0,0,212.966,335.146ZM196.237,344.8l5.723-3.3c.243-.14.279-.348.079-.462l-5.047-2.914a.9.9,0,0,0-.8.045l-5.722,3.3c-.244.14-.279.347-.081.462l5.048,2.915A.9.9,0,0,0,196.237,344.8Zm33.456-19.316,5.723-3.3c.244-.141.279-.348.08-.463l-5.048-2.914a.892.892,0,0,0-.8.046l-5.723,3.3c-.243.14-.279.347-.08.462l5.048,2.915A.9.9,0,0,0,229.694,325.489Zm-8.364,4.829,5.722-3.3c.244-.14.279-.347.081-.462l-5.049-2.915a.9.9,0,0,0-.8.046l-5.723,3.3c-.243.141-.279.348-.079.463l5.048,2.914A.892.892,0,0,0,221.33,330.318Zm16.728-9.658,5.723-3.3c.243-.14.279-.348.08-.462l-5.048-2.914a.892.892,0,0,0-.8.045l-5.724,3.3c-.243.141-.278.348-.079.463l5.047,2.915A.9.9,0,0,0,238.058,320.659Zm46.218-66.847a.9.9,0,0,0,.8-.046l5.723-3.3c.243-.14.278-.346.079-.461l-1.343-.777a.9.9,0,0,0-.8.046l-5.724,3.3c-.242.14-.278.347-.079.462Zm-41.729,26.231a.9.9,0,0,0,.8-.045l5.723-3.3c.243-.14.279-.347.08-.462l-5.048-2.914a.889.889,0,0,0-.8.046l-5.723,3.3c-.243.141-.279.347-.08.462Zm16.728-9.657a.9.9,0,0,0,.8-.046l5.723-3.3c.244-.141.278-.348.08-.463l-5.048-2.914a.892.892,0,0,0-.8.046l-5.723,3.3c-.243.14-.279.348-.08.462ZM232.334,285.94a.9.9,0,0,0,.8-.046l5.723-3.3c.243-.14.279-.347.08-.462l-5.048-2.914a.892.892,0,0,0-.8.046l-5.723,3.3c-.244.141-.279.347-.08.462Zm18.577-10.726a.894.894,0,0,0,.8-.046l5.723-3.3c.243-.141.278-.347.079-.462l-5.048-2.914a.892.892,0,0,0-.8.045l-5.722,3.3c-.243.14-.28.347-.081.462ZM215.6,295.6a.9.9,0,0,0,.8-.047l5.723-3.3c.243-.14.278-.347.08-.462l-5.048-2.914a.894.894,0,0,0-.8.046l-5.722,3.3c-.243.141-.279.347-.08.462Zm8.365-4.83a.894.894,0,0,0,.8-.046l5.723-3.3c.243-.141.278-.347.079-.462l-5.048-2.915a.9.9,0,0,0-.8.046l-5.722,3.3c-.243.141-.279.347-.08.463Zm43.579-27.3a.9.9,0,0,0,.8-.046l5.723-3.3c.243-.14.278-.347.08-.462l-1.344-.776a.9.9,0,0,0-.8.045l-5.723,3.3c-.243.141-.279.348-.08.462Zm25.093-14.488a.9.9,0,0,0,.8-.045l5.723-3.3c.243-.141.278-.347.079-.462l-1.343-.776a.894.894,0,0,0-.8.046l-5.723,3.3c-.243.14-.278.348-.079.462Zm10.6,6.122a.9.9,0,0,0,.8-.045l5.723-3.3c.244-.14.279-.347.08-.462l-5.048-2.914a.892.892,0,0,0-.8.045l-5.723,3.3c-.243.141-.279.347-.08.462ZM319.5,273.639l5.723-3.3c.243-.14.28-.347.08-.461l-5.047-2.915a.9.9,0,0,0-.8.046l-5.723,3.3c-.243.141-.278.347-.079.462l5.047,2.915A.9.9,0,0,0,319.5,273.639Zm-43.587-15a.892.892,0,0,0,.8-.046l5.723-3.3c.243-.14.279-.348.08-.462l-1.344-.776a.892.892,0,0,0-.8.046l-5.723,3.3c-.243.141-.279.347-.08.462Zm-68.672,41.786a.892.892,0,0,0,.8-.046l5.723-3.3c.244-.141.279-.348.08-.462L208.8,293.7a.9.9,0,0,0-.8.046l-5.723,3.3c-.243.14-.279.346-.08.461Z" transform="translate(-110.324 -240.216)" fill="#455a64"/>
          </g>
          <g id="Grupo_39340" data-name="Grupo 39340" transform="translate(162.341 269.427)">
            <path id="Trazado_92053" data-name="Trazado 92053" d="M248.145,352.236l1.174.677L280.485,370.9l55.428-32,1.154-.657-32.341-18.668Z" transform="translate(-248.145 -319.577)" fill="#263238"/>
            <path id="Trazado_92054" data-name="Trazado 92054" d="M335.615,339.45l-30.67-17.694-54.891,31.7L280.7,371.154Z" transform="translate(-248.363 -319.826)" fill="#37474f"/>
          </g>
        </g>
      </g>
      <g id="Browser" transform="translate(105.078 46.68)">
        <g id="Www">
          <g id="www-2" data-name="www" transform="translate(81.703)">
            <g id="Grupo_39341" data-name="Grupo 39341">
              <path id="Trazado_92055" data-name="Trazado 92055" d="M365.235,61.97c0-2.333-.814-3.977-2.132-4.752s-9.058-5.24-10.4-6-3.164-.642-5.187.526L202.95,135.2v47.844l10.36,5.98,144.565-83.464a16.272,16.272,0,0,0,7.362-12.751Z" transform="translate(-202.95 -50.735)" fill="#80eb9a"/>
              <path id="Trazado_92056" data-name="Trazado 92056" d="M365.235,61.97c0-2.333-.814-3.977-2.132-4.752s-9.058-5.24-10.4-6-3.164-.642-5.187.526L202.95,135.2v47.844l10.36,5.98,144.565-83.464a16.272,16.272,0,0,0,7.362-12.751Z" transform="translate(-202.95 -50.735)" fill="#21587b" opacity="0.15"/>
              <path id="Trazado_92057" data-name="Trazado 92057" d="M359.214,58.493c4.065-2.347,7.361-.444,7.362,4.25V93.588a16.272,16.272,0,0,1-7.362,12.751L214.649,189.8V141.958Z" transform="translate(-204.289 -51.508)" fill="#00926e"/>
              <path id="Trazado_92058" data-name="Trazado 92058" d="M358.106,103.083a11.008,11.008,0,0,0,4.962-8.595V66c0-2.247-1.592-3.165-3.537-2.042l-141.6,81.81v38.306Z" transform="translate(-204.666 -52.193)" fill="#fafafa"/>
            </g>
            <g id="Grupo_39342" data-name="Grupo 39342" transform="translate(27.601 33.349)">
              <path id="Trazado_92059" data-name="Trazado 92059" d="M244.467,170.88a1.516,1.516,0,0,1-.156.656.982.982,0,0,1-.369.453L241.5,173.4a.28.28,0,0,1-.369-.027.637.637,0,0,1-.155-.477v-7.562a3.114,3.114,0,0,0-.407-1.827q-.408-.541-1.281-.036a2.919,2.919,0,0,0-1.272,1.51,6.216,6.216,0,0,0-.4,2.293v7.562a1.521,1.521,0,0,1-.155.657.983.983,0,0,1-.368.453l-2.447,1.411a.279.279,0,0,1-.368-.026.632.632,0,0,1-.156-.477V157.247a1.51,1.51,0,0,1,.156-.657.985.985,0,0,1,.368-.453l2.447-1.412a.281.281,0,0,1,.368.027.637.637,0,0,1,.155.477v6.366a9.067,9.067,0,0,1,1.029-1.8,5.14,5.14,0,0,1,1.612-1.513,3.934,3.934,0,0,1,1.708-.583,1.729,1.729,0,0,1,1.33.473,3.468,3.468,0,0,1,.863,1.623,10.884,10.884,0,0,1,.312,2.87Z" transform="translate(-234.119 -95.983)" fill="#455a64"/>
              <path id="Trazado_92060" data-name="Trazado 92060" d="M252.684,160.73a1.681,1.681,0,0,0,.194.948q.2.26.642,0l1.552-.9a.284.284,0,0,1,.369.026.645.645,0,0,1,.155.479v3.019a1.537,1.537,0,0,1-.155.657.984.984,0,0,1-.369.452l-1.844,1.064a3.665,3.665,0,0,1-1.66.554,1.752,1.752,0,0,1-1.272-.431,2.991,2.991,0,0,1-.815-1.381,7.778,7.778,0,0,1-.291-2.3V157.9l-1.436.831a.282.282,0,0,1-.369-.027.643.643,0,0,1-.155-.479V155.21a1.534,1.534,0,0,1,.155-.657,1,1,0,0,1,.369-.453l1.436-.828V148.4a1.541,1.541,0,0,1,.155-.658.993.993,0,0,1,.369-.452l2.447-1.412a.283.283,0,0,1,.369.026.643.643,0,0,1,.154.477v4.872l2.194-1.265a.284.284,0,0,1,.369.026.644.644,0,0,1,.155.478v3.019a1.531,1.531,0,0,1-.155.657.99.99,0,0,1-.369.452l-2.194,1.267Z" transform="translate(-235.62 -94.97)" fill="#455a64"/>
              <path id="Trazado_92061" data-name="Trazado 92061" d="M263.076,154.73a1.671,1.671,0,0,0,.194.949q.194.26.641,0l1.552-.9a.284.284,0,0,1,.369.025.643.643,0,0,1,.155.479v3.019a1.516,1.516,0,0,1-.155.657.98.98,0,0,1-.369.452l-1.844,1.065a3.645,3.645,0,0,1-1.66.553,1.753,1.753,0,0,1-1.272-.43,2.984,2.984,0,0,1-.815-1.381,7.76,7.76,0,0,1-.291-2.3V151.9l-1.436.83a.281.281,0,0,1-.369-.027.64.64,0,0,1-.155-.478V149.21a1.54,1.54,0,0,1,.155-.657.993.993,0,0,1,.369-.452l1.436-.829V142.4a1.534,1.534,0,0,1,.155-.658.985.985,0,0,1,.369-.452l2.446-1.412a.284.284,0,0,1,.369.026.645.645,0,0,1,.155.478v4.872l2.194-1.266a.284.284,0,0,1,.369.027.641.641,0,0,1,.154.478v3.018a1.537,1.537,0,0,1-.154.658,1,1,0,0,1-.369.453l-2.194,1.266Z" transform="translate(-236.81 -94.283)" fill="#455a64"/>
              <path id="Trazado_92062" data-name="Trazado 92062" d="M275.028,154.739a2.978,2.978,0,0,1-.989.392,1.71,1.71,0,0,1-.738-.022,1.343,1.343,0,0,1-.525-.281,2.3,2.3,0,0,1-.348-.381v6.366a1.538,1.538,0,0,1-.156.657.988.988,0,0,1-.368.452l-2.448,1.413a.28.28,0,0,1-.368-.028.634.634,0,0,1-.156-.477V143.223a1.532,1.532,0,0,1,.156-.657.985.985,0,0,1,.368-.452l2.35-1.357a.281.281,0,0,1,.368.027.635.635,0,0,1,.155.477v.687c.116-.266.244-.548.379-.845a5.4,5.4,0,0,1,.5-.875,5.778,5.778,0,0,1,.738-.844,5.681,5.681,0,0,1,1.078-.787,3.79,3.79,0,0,1,1.651-.55,1.821,1.821,0,0,1,1.358.472,3.594,3.594,0,0,1,.941,1.593,9.8,9.8,0,0,1,.4,2.819q.02.437.02,1.2c0,.508-.007.915-.02,1.222a15.413,15.413,0,0,1-.4,3.279,12.933,12.933,0,0,1-.941,2.68,9,9,0,0,1-1.358,2.054A6.81,6.81,0,0,1,275.028,154.739ZM275.9,147a12.545,12.545,0,0,0,0-1.673,3.015,3.015,0,0,0-.447-1.566q-.388-.551-1.3-.026a2.6,2.6,0,0,0-.738.636,3.784,3.784,0,0,0-.514.85,5.4,5.4,0,0,0-.321.947,6.149,6.149,0,0,0-.155.955c-.027.314-.039.67-.039,1.069s.012.739.039,1.023a3.4,3.4,0,0,0,.155.778,1.584,1.584,0,0,0,.321.576.76.76,0,0,0,.514.256,1.284,1.284,0,0,0,.738-.216,2.941,2.941,0,0,0,1.3-1.528A6.714,6.714,0,0,0,275.9,147Z" transform="translate(-238.105 -94.08)" fill="#455a64"/>
              <path id="Trazado_92063" data-name="Trazado 92063" d="M286.357,136.9a1.521,1.521,0,0,1-.155.657.991.991,0,0,1-.369.453l-2.542,1.467a.28.28,0,0,1-.369-.027.633.633,0,0,1-.155-.476v-3.916a1.534,1.534,0,0,1,.155-.658.966.966,0,0,1,.369-.452l2.542-1.468a.282.282,0,0,1,.369.026.642.642,0,0,1,.155.478Zm0,10.461a1.518,1.518,0,0,1-.155.656.974.974,0,0,1-.369.452l-2.542,1.468a.28.28,0,0,1-.369-.026.639.639,0,0,1-.155-.478v-3.916a1.531,1.531,0,0,1,.155-.658.984.984,0,0,1,.369-.452l2.542-1.468a.285.285,0,0,1,.369.026.641.641,0,0,1,.155.479Z" transform="translate(-239.688 -93.436)" fill="#455a64"/>
              <path id="Trazado_92064" data-name="Trazado 92064" d="M295.1,119.057a4.024,4.024,0,0,1,.29-.78,1.4,1.4,0,0,1,.564-.609l2.407-1.39a.229.229,0,0,1,.3.021.526.526,0,0,1,.126.391,1.317,1.317,0,0,1-.039.291L292.2,144.938a3.854,3.854,0,0,1-.272.754,1.416,1.416,0,0,1-.583.635l-2.369,1.367a.23.23,0,0,1-.3-.02.517.517,0,0,1-.126-.39,1.377,1.377,0,0,1,.038-.292Z" transform="translate(-240.351 -91.582)" fill="#455a64"/>
              <path id="Trazado_92065" data-name="Trazado 92065" d="M302.616,114.715a3.974,3.974,0,0,1,.291-.78,1.39,1.39,0,0,1,.563-.609l2.407-1.389a.228.228,0,0,1,.3.02.524.524,0,0,1,.126.391,1.33,1.33,0,0,1-.039.291L299.724,140.6a3.8,3.8,0,0,1-.272.754,1.421,1.421,0,0,1-.583.635l-2.369,1.367a.229.229,0,0,1-.3-.019.52.52,0,0,1-.127-.391,1.328,1.328,0,0,1,.039-.292Z" transform="translate(-241.212 -91.085)" fill="#455a64"/>
              <path id="Trazado_92066" data-name="Trazado 92066" d="M316.8,114.181c.194-.112.343-.117.446-.018a.789.789,0,0,1,.213.355l1.436,5.955,1.437-7.614a2.724,2.724,0,0,1,.213-.6,1.1,1.1,0,0,1,.446-.5l2.407-1.39a.252.252,0,0,1,.33.019.573.573,0,0,1,.135.429,1.649,1.649,0,0,1-.019.25l-3.087,15.621a2.813,2.813,0,0,1-.2.624,1.049,1.049,0,0,1-.437.493l-2.213,1.277c-.194.112-.336.115-.428.007a1.215,1.215,0,0,1-.213-.385l-1.378-5.48-1.378,7.072a4.3,4.3,0,0,1-.213.63,1,1,0,0,1-.429.487l-2.213,1.277q-.29.169-.437.013a.862.862,0,0,1-.2-.391L307.93,120.26a1.345,1.345,0,0,1-.019-.228,1.371,1.371,0,0,1,.136-.587.867.867,0,0,1,.329-.4l2.408-1.39c.195-.112.343-.117.447-.018a.778.778,0,0,1,.213.355l1.436,5.955,1.437-7.615a2.787,2.787,0,0,1,.214-.6,1.1,1.1,0,0,1,.445-.5Z" transform="translate(-242.567 -90.905)" fill="#455a64"/>
              <path id="Trazado_92067" data-name="Trazado 92067" d="M335.788,103.22c.195-.112.343-.118.446-.019a.784.784,0,0,1,.213.356l1.437,5.954,1.437-7.614a2.721,2.721,0,0,1,.213-.6,1.094,1.094,0,0,1,.446-.5l2.407-1.389a.251.251,0,0,1,.33.019.578.578,0,0,1,.135.429,1.764,1.764,0,0,1-.019.25l-3.087,15.621a2.839,2.839,0,0,1-.2.625,1.047,1.047,0,0,1-.437.492l-2.214,1.277c-.193.112-.336.115-.426.007a1.171,1.171,0,0,1-.213-.384l-1.379-5.48-1.379,7.072a4.051,4.051,0,0,1-.213.631.992.992,0,0,1-.427.486l-2.213,1.278c-.195.112-.34.116-.437.012a.845.845,0,0,1-.2-.39L326.917,109.3a1.328,1.328,0,0,1,.118-.815.852.852,0,0,1,.329-.4l2.407-1.39c.194-.112.343-.118.446-.019a.778.778,0,0,1,.214.356l1.436,5.954,1.437-7.614a2.734,2.734,0,0,1,.213-.6,1.091,1.091,0,0,1,.446-.5Z" transform="translate(-244.741 -89.65)" fill="#455a64"/>
              <path id="Trazado_92068" data-name="Trazado 92068" d="M354.775,92.259c.193-.112.342-.118.446-.019a.8.8,0,0,1,.213.356l1.436,5.956,1.437-7.615a2.718,2.718,0,0,1,.213-.6,1.091,1.091,0,0,1,.446-.5l2.407-1.39a.253.253,0,0,1,.33.019.581.581,0,0,1,.135.43,1.746,1.746,0,0,1-.019.249l-3.088,15.621a2.855,2.855,0,0,1-.2.626,1.05,1.05,0,0,1-.437.491l-2.213,1.278c-.194.112-.336.114-.428.007a1.23,1.23,0,0,1-.213-.384l-1.379-5.48-1.377,7.072a4.18,4.18,0,0,1-.214.631,1,1,0,0,1-.428.486l-2.213,1.278q-.291.167-.437.012a.865.865,0,0,1-.2-.39L345.9,98.337a1.252,1.252,0,0,1-.019-.228,1.361,1.361,0,0,1,.136-.587.873.873,0,0,1,.329-.4l2.408-1.389c.194-.112.342-.118.447-.019a.794.794,0,0,1,.213.356l1.436,5.955,1.437-7.615a2.8,2.8,0,0,1,.213-.6,1.1,1.1,0,0,1,.446-.5Z" transform="translate(-246.914 -88.395)" fill="#455a64"/>
              <path id="Trazado_92069" data-name="Trazado 92069" d="M368.286,101.414a1.527,1.527,0,0,1-.156.658.975.975,0,0,1-.368.452l-2.543,1.468a.281.281,0,0,1-.369-.026.639.639,0,0,1-.155-.478V99.573a1.532,1.532,0,0,1,.155-.658.986.986,0,0,1,.369-.452l2.543-1.468a.28.28,0,0,1,.368.027.639.639,0,0,1,.156.478Z" transform="translate(-249.068 -89.374)" fill="#455a64"/>
            </g>
          </g>
          <g id="World" transform="translate(0 62.93)">
            <g id="Check">
              <g id="Circle">
                <path id="Trazado_92070" data-name="Trazado 92070" d="M196.366,135.4v0l-.069-.043-.007,0-17.716-10.517-.016-.01-.1-.06,0,.005c-7.8-4.7-18.214-3.963-29.412,3.348-22.5,14.69-39.64,50.318-38.29,79.578.673,14.584,5.815,24.832,13.588,29.625l0,0,.069.042.008.005,17.719,10.52.007,0,.082.05,0,0c7.8,4.717,18.225,3.98,29.432-3.338,22.5-14.689,39.64-50.318,38.29-79.578C209.281,150.435,204.139,140.189,196.366,135.4Z" transform="translate(-110.684 -121.8)" fill="#37474f"/>
                <path id="Trazado_92071" data-name="Trazado 92071" d="M141.573,253.355,124.427,243.2h-.012l-.075-.053c-7.769-4.8-12.908-15.052-13.58-29.616-.6-13.05,2.48-27.358,8.06-40.5l.112-.289,17.609,10.805c-5.592,13.145-8.663,27.454-8.061,40.5C129.139,238.314,134.078,248.43,141.573,253.355Z" transform="translate(-110.684 -127.632)" fill="#263238"/>
                <path id="Trazado_92072" data-name="Trazado 92072" d="M173.956,245.958c22.5-14.689,39.64-50.318,38.29-79.578S191.564,125.308,169.067,140s-39.64,50.317-38.29,79.578S151.459,260.647,173.956,245.958Z" transform="translate(-112.976 -123.161)" fill="#455a64"/>
              </g>
            </g>
            <g id="Grupo_39350" data-name="Grupo 39350" transform="translate(28.745 24.939)">
              <g id="Grupo_39343" data-name="Grupo 39343">
                <path id="Trazado_92073" data-name="Trazado 92073" d="M162.684,240.1A16.62,16.62,0,0,1,154.3,237.9c-7.087-4.077-11.152-13.423-11.152-25.642,0-22.481,13.667-48.72,30.465-58.492,7.638-4.444,15.1-5.016,21.015-1.614,7.087,4.075,11.152,13.422,11.152,25.642,0,22.48-13.667,48.718-30.464,58.491A25.361,25.361,0,0,1,162.684,240.1Zm23.55-86.735a22.024,22.024,0,0,0-10.921,3.338c-15.869,9.231-28.78,34.157-28.78,55.563,0,10.974,3.446,19.25,9.453,22.705,4.82,2.77,11.079,2.2,17.624-1.606,15.869-9.232,28.779-34.158,28.779-55.563,0-10.975-3.446-19.25-9.453-22.706A13.277,13.277,0,0,0,186.234,153.36Z" transform="translate(-143.145 -149.964)" fill="#00926e"/>
              </g>
              <g id="Grupo_39346" data-name="Grupo 39346" transform="translate(9.073 4.295)">
                <g id="Grupo_39344" data-name="Grupo 39344" transform="translate(0.346)">
                  <path id="Trazado_92074" data-name="Trazado 92074" d="M163.9,184.438a16.078,16.078,0,0,1-10.115-3.48l1.567-2c5.175,4.056,12.17,3.88,19.691-.5,7.794-4.535,15.118-12.934,20.622-23.648l2.261,1.16c-5.724,11.142-13.4,19.908-21.6,24.684A24.97,24.97,0,0,1,163.9,184.438Z" transform="translate(-153.782 -154.814)" fill="#00926e"/>
                </g>
                <g id="Grupo_39345" data-name="Grupo 39345" transform="translate(0 51.918)">
                  <path id="Trazado_92075" data-name="Trazado 92075" d="M155.652,243.067l-2.261-1.161c5.722-11.141,13.4-19.906,21.6-24.683,8.484-4.934,16.486-5.039,22.535-.3l-1.566,2c-5.177-4.054-12.17-3.877-19.691.5C168.478,223.954,161.154,232.352,155.652,243.067Z" transform="translate(-153.391 -213.444)" fill="#00926e"/>
                </g>
              </g>
              <g id="Grupo_39347" data-name="Grupo 39347" transform="translate(14.928 3.03)">
                <path id="Trazado_92076" data-name="Trazado 92076" d="M173.112,237.456a6.814,6.814,0,0,1-3.431-.949C163.711,233.072,160,220.7,160,204.215c0-22.725,6.918-44.55,15.75-49.688a7,7,0,0,1,7.35-.193c5.969,3.434,9.677,15.807,9.677,32.292,0,22.724-6.918,44.55-15.749,49.688A7.775,7.775,0,0,1,173.112,237.456Zm6.553-81.53a5.235,5.235,0,0,0-2.634.8c-7.853,4.568-14.487,26.317-14.487,47.492,0,17.446,4.221,27.683,8.4,30.089a4.483,4.483,0,0,0,4.806-.186c7.853-4.567,14.486-26.317,14.486-47.492,0-17.446-4.22-27.684-8.4-30.09A4.305,4.305,0,0,0,179.665,155.926Z" transform="translate(-160.003 -153.385)" fill="#00926e"/>
              </g>
              <g id="Grupo_39348" data-name="Grupo 39348" transform="translate(30.046 5.27)">
                <rect id="Rect치ngulo_27586" data-name="Rect치ngulo 27586" width="2.541" height="79.591" fill="#00926e"/>
              </g>
              <g id="Grupo_39349" data-name="Grupo 39349" transform="translate(1.057 26.732)">
                <rect id="Rect치ngulo_27587" data-name="Rect치ngulo 27587" width="68.539" height="2.541" transform="translate(0 34.471) rotate(-30.195)" fill="#00926e"/>
              </g>
            </g>
          </g>
        </g>
      </g>
      <g id="Cursor" transform="translate(332.893 108.599)">
        <g id="Cursor-2" data-name="Cursor">
          <g id="Grupo_39351" data-name="Grupo 39351" transform="translate(0)">
            <path id="Trazado_92077" data-name="Trazado 92077" d="M407.48,135.557a2.732,2.732,0,0,0-1.057-1.233h.006l-2.639-1.524v.007c-1.149-.66-2.552-.007-3.294.449l-1.647-.951h0c-2-1.207-4.777,1.318-5.4,1.924l-.713-.411h0c-.94-.567-2.22-.208-3.354.365v-9.6a2.408,2.408,0,0,0-.947-2.162h0l-.027-.016-.044-.026-2.59-1.5-.006,0-.018-.011v0a2.391,2.391,0,0,0-2.373.247,7.489,7.489,0,0,0-3.388,5.868v29.392q-.2-.1-.4-.188c-2.316-1.632-4.745-2.6-6.892-2.22a7.316,7.316,0,0,0-4.409,3.045c-1.12,1.975.729,3.214,3.11,5.938,2.36,2.7,4.443,5.95,6.593,7.955a11.62,11.62,0,0,0,3.709,2.527v3.845l2.616,1.511L404.221,167.3v-3.845s2.471-9.848,3.26-13.964S409,138.713,407.48,135.557Z" transform="translate(-367.952 -120.659)" fill="#27debf"/>
            <path id="Trazado_92078" data-name="Trazado 92078" d="M407.48,135.557a2.732,2.732,0,0,0-1.057-1.233h.006l-2.639-1.524v.007c-1.149-.66-2.552-.007-3.294.449l-1.647-.951h0c-2-1.207-4.777,1.318-5.4,1.924l-.713-.411h0c-.94-.567-2.22-.208-3.354.365v-9.6a2.408,2.408,0,0,0-.947-2.162h0l-.027-.016-.044-.026-2.59-1.5-.006,0-.018-.011v0a2.391,2.391,0,0,0-2.373.247,7.489,7.489,0,0,0-3.388,5.868v29.392q-.2-.1-.4-.188c-2.316-1.632-4.745-2.6-6.892-2.22a7.316,7.316,0,0,0-4.409,3.045c-1.12,1.975.729,3.214,3.11,5.938,2.36,2.7,4.443,5.95,6.593,7.955a11.62,11.62,0,0,0,3.709,2.527v3.845l2.616,1.511L404.221,167.3v-3.845s2.471-9.848,3.26-13.964S409,138.713,407.48,135.557Z" transform="translate(-367.952 -120.659)" fill="#fff" opacity="0.8"/>
          </g>
          <path id="Trazado_92079" data-name="Trazado 92079" d="M389.386,135.034v3.255l.006-.006a14.252,14.252,0,0,1,2.556-1.749Zm12.024-1.415a5.768,5.768,0,0,0-.911.456l.844.491a3.005,3.005,0,0,1,1.251,1.373,6.12,6.12,0,0,1,1.506-.844Zm-6.194.031a11.2,11.2,0,0,0-1.767,1.4l1.725,1a.751.751,0,0,1,.1.054,1.941,1.941,0,0,1,.669.584l.006-.006a11.2,11.2,0,0,1,1.834-1.488Zm-15.225-5.843V157.2a16.846,16.846,0,0,1,2.617,1.615v-29.5Zm9.382,7.221.012.005V135Zm-8.769,38.21c-2.149-2-4.233-5.253-6.589-7.955-2.234-2.556-4.008-3.808-3.279-5.587l-2.618-1.512c-.729,1.779,1.039,3.03,3.28,5.593,2.362,2.7,4.439,5.945,6.589,7.955a11.7,11.7,0,0,0,3.71,2.526V178.1l2.618,1.512v-3.844A11.6,11.6,0,0,1,380.6,173.238Z" transform="translate(-367.952 -121.477)" fill="#27debf" opacity="0.2"/>
          <path id="Trazado_92080" data-name="Trazado 92080" d="M389.386,135.034v3.255l.006-.006a14.252,14.252,0,0,1,2.556-1.749Zm12.024-1.415a5.768,5.768,0,0,0-.911.456l.844.491a3.005,3.005,0,0,1,1.251,1.373,6.12,6.12,0,0,1,1.506-.844Zm-6.194.031a11.2,11.2,0,0,0-1.767,1.4l1.725,1a.751.751,0,0,1,.1.054,1.941,1.941,0,0,1,.669.584l.006-.006a11.2,11.2,0,0,1,1.834-1.488Zm-15.225-5.843V157.2a16.846,16.846,0,0,1,2.617,1.615v-29.5Zm9.382,7.221.012.005V135Zm-8.769,38.21c-2.149-2-4.233-5.253-6.589-7.955-2.234-2.556-4.008-3.808-3.279-5.587l-2.618-1.512c-.729,1.779,1.039,3.03,3.28,5.593,2.362,2.7,4.439,5.945,6.589,7.955a11.7,11.7,0,0,0,3.71,2.526V178.1l2.618,1.512v-3.844A11.6,11.6,0,0,1,380.6,173.238Z" transform="translate(-367.952 -121.477)" opacity="0.1"/>
          <g id="Grupo_39352" data-name="Grupo 39352" transform="translate(2.616 1.509)">
            <path id="Trazado_92081" data-name="Trazado 92081" d="M384.653,178.99v-3.845a11.62,11.62,0,0,1-3.709-2.527c-2.15-2.006-4.232-5.256-6.593-7.956-2.381-2.723-4.23-3.963-3.109-5.937a7.316,7.316,0,0,1,4.409-3.045c2.271-.4,4.861.7,7.295,2.51v-29.5a7.489,7.489,0,0,1,3.388-5.867h0c1.871-1.08,3.388-.2,3.388,1.956v12.882s4.668-4.145,6.554-1.6c0,0,4.587-4.8,6.657-.746,0,0,3.367-2.719,4.885.437s.789,9.821,0,13.936-3.26,13.964-3.26,13.964V167.5Z" transform="translate(-370.907 -122.363)" fill="#27debf"/>
            <path id="Trazado_92082" data-name="Trazado 92082" d="M384.653,178.99v-3.845a11.62,11.62,0,0,1-3.709-2.527c-2.15-2.006-4.232-5.256-6.593-7.956-2.381-2.723-4.23-3.963-3.109-5.937a7.316,7.316,0,0,1,4.409-3.045c2.271-.4,4.861.7,7.295,2.51v-29.5a7.489,7.489,0,0,1,3.388-5.867h0c1.871-1.08,3.388-.2,3.388,1.956v12.882s4.668-4.145,6.554-1.6c0,0,4.587-4.8,6.657-.746,0,0,3.367-2.719,4.885.437s.789,9.821,0,13.936-3.26,13.964-3.26,13.964V167.5Z" transform="translate(-370.907 -122.363)" opacity="0.65" fill="url(#linear-gradient)"/>
          </g>
          <g id="Grupo_39353" data-name="Grupo 39353" transform="translate(21.421 13.618)" opacity="0.1">
            <path id="Trazado_92083" data-name="Trazado 92083" d="M392.154,144.949s.425-5.878,2.584-7.275l-.077.022a14.128,14.128,0,0,0-2.507,1.721v-.111a.135.135,0,0,0,0,.111Z" transform="translate(-392.143 -136.225)"/>
            <path id="Trazado_92084" data-name="Trazado 92084" d="M399.557,137.64v5.378s.6-5.529,1.836-6.865A11.089,11.089,0,0,0,399.557,137.64Z" transform="translate(-392.992 -136.051)"/>
            <path id="Trazado_92085" data-name="Trazado 92085" d="M407.075,136.88h0v5.4s.329-5.437,1.5-6.239A6.074,6.074,0,0,0,407.075,136.88Z" transform="translate(-393.853 -136.038)"/>
          </g>
        </g>
      </g>
      <g id="Character" transform="translate(264.98 164.739)">
        <g id="Character-2" data-name="Character">
          <path id="Shadow-2" data-name="Shadow" d="M334.248,311.009c-15.294,7.622-22.236,15.628-14.319,21.238s29.462,13.207,29.462,13.207l2.825,9.5,31.3-18.071V326.13s-19.311-13.314-26.852-15.878S343.211,306.542,334.248,311.009Z" transform="translate(-294.164 -198.246)" opacity="0.15"/>
          <g id="Character-3" data-name="Character">
            <g id="Grupo_39362" data-name="Grupo 39362" transform="translate(15.994 94.981)">
              <g id="Grupo_39356" data-name="Grupo 39356" transform="translate(45.559 63.546)">
                <path id="Trazado_92086" data-name="Trazado 92086" d="M383.05,365.782s-4.727,11.586-4.968,16.156c-.251,4.762-1.4,6.34-.6,11.52.176,1.128.769,3.39.916,4.306a1.35,1.35,0,0,1-1.223,1.689c-2.067.429-5.5-3.453-7.132-7.678a124.907,124.907,0,0,1-4.092-14.893,6.514,6.514,0,0,1,.654-3.334,9.98,9.98,0,0,1,.95-1.726c.684-2.074,1.011-6.014,1.588-8.741Z" transform="translate(-361.36 -363.081)" fill="#ffa8a7"/>
                <g id="Grupo_39355" data-name="Grupo 39355" transform="translate(0 8.737)">
                  <path id="Trazado_92087" data-name="Trazado 92087" d="M361.324,383.568a4.906,4.906,0,0,0-.553,1.561c-.05.949,2.1,4.08,2.937,5.219a7.626,7.626,0,0,1,1.549,5.413,13.163,13.163,0,0,0,3.183,8.476,20.9,20.9,0,0,0,10.388,6.8c5.016,1.544,6.786-.97,6.786-.97s1.555-2.421.62-3.413S361.324,383.568,361.324,383.568Z" transform="translate(-360.77 -374.164)" fill="#263238"/>
                  <path id="Trazado_92088" data-name="Trazado 92088" d="M367.041,372.952c-.153-.006-.422-.049-.816.425-.149.179-1.064,2.435-1.823,3.619-.813,1.268-2.751,3.433-3.006,5.356,1.161,3.719,4.65,6.307,5.173,9.818s.584,7.587,5.98,11.884,10.944,4.741,12.938,3.6,1.811-3.274-.969-7.343c-2.95-4.318-4.937-13.675-4.938-13.679a30.987,30.987,0,0,1-.522-3.979,26.194,26.194,0,0,1,.372-3.939,2.923,2.923,0,0,0-.251-1.783,3.023,3.023,0,0,0-1.484-1.026,13.149,13.149,0,0,0-2.772-.94,4.41,4.41,0,0,0-2.857.346c-.623.335-1.132.868-1.784,1.139a2.558,2.558,0,0,1-2.65-.474,2.19,2.19,0,0,1-.716-2.435A5.526,5.526,0,0,1,367.041,372.952Z" transform="translate(-360.842 -372.948)" fill="#455a64"/>
                  <path id="Trazado_92089" data-name="Trazado 92089" d="M370.429,403.638a8.6,8.6,0,0,1,7.82-4.229c5.73.022,7.713,2.937,8.584,4.652,1.038,2.041,2.12,5.743-.245,6.8-2.555,1.147-5.512.793-10.165-1.54S370.429,403.638,370.429,403.638Z" transform="translate(-361.876 -375.977)" fill="#fafafa"/>
                  <g id="Grupo_39354" data-name="Grupo 39354" transform="translate(9.255 8.712)">
                    <path id="Trazado_92090" data-name="Trazado 92090" d="M371.564,384.476a.589.589,0,0,0,.522,0c.886-.452,5.568-1.431,8.3,1.1.353-.283.281-.8-.171-1.531-3.192-2.028-7.624-1.123-8.693-.577a.545.545,0,0,0-.222.762A.6.6,0,0,0,371.564,384.476Z" transform="translate(-371.221 -382.786)" fill="#fafafa"/>
                    <path id="Trazado_92091" data-name="Trazado 92091" d="M381.078,389.37a1.771,1.771,0,0,0-.33-1.574,10.713,10.713,0,0,0-8.291-.333.545.545,0,0,0-.222.762.606.606,0,0,0,.791.247C373.885,388.034,378.327,387.11,381.078,389.37Z" transform="translate(-371.329 -383.244)" fill="#fafafa"/>
                    <path id="Trazado_92092" data-name="Trazado 92092" d="M383.63,398.028a3.258,3.258,0,0,0-.732-2.074c-3.181-1.917-7.51-1.031-8.564-.494a.544.544,0,0,0-.222.762.6.6,0,0,0,.79.247C375.835,395.992,381,394.931,383.63,398.028Z" transform="translate(-371.543 -384.159)" fill="#fafafa"/>
                    <path id="Trazado_92093" data-name="Trazado 92093" d="M373.44,392.473a.594.594,0,0,0,.523,0c.875-.446,5.462-1.4,8.2,1.021a2.006,2.006,0,0,0-.478-1.7,10.713,10.713,0,0,0-8.291-.333.545.545,0,0,0-.222.762A.61.61,0,0,0,373.44,392.473Z" transform="translate(-371.436 -383.701)" fill="#fafafa"/>
                  </g>
                </g>
              </g>
              <g id="Grupo_39359" data-name="Grupo 39359" transform="translate(60.574 80.475)">
                <path id="Trazado_92094" data-name="Trazado 92094" d="M389.492,382.2s2.343,14.131,4.948,19.615,3.944,8.131,7.533,12.279c.781.9,2.562,2.582,3.2,3.314a1.412,1.412,0,0,1-.149,2.177c-1.6,1.527-8.363,1.889-12.155-.954s-7.245-8.9-9.506-11.186c-.85-.86-1.65-1.738-2.41-2.672-.733-.9-.532-1.753-.6-2.761-.031-.487.039-1.816.039-1.816-.518-2.38-1.922-6.114-2.668-8.433Z" transform="translate(-377.727 -382.199)" fill="#ffa8a7"/>
                <g id="Grupo_39358" data-name="Grupo 39358" transform="translate(1.113 15.281)">
                  <path id="Trazado_92095" data-name="Trazado 92095" d="M379.23,414.579a5.146,5.146,0,0,0,.174,1.724c.378.921,3.805,2.924,5.111,3.627a7.977,7.977,0,0,1,3.884,4.43,13.772,13.772,0,0,0,6.8,6.6,21.865,21.865,0,0,0,12.866,1.792c5.437-.78,5.988-3.948,5.988-3.948s.391-2.986-.938-3.507S379.23,414.579,379.23,414.579Z" transform="translate(-379.011 -401.187)" fill="#263238"/>
                  <path id="Trazado_92096" data-name="Trazado 92096" d="M380.345,401.431c-.147.063-.421.142-.582.766-.06.236.081,2.78-.108,4.24-.2,1.562-1.071,4.477-.453,6.411,2.76,3,7.217,3.891,9.281,6.98s3.94,6.919,10.966,8.574,12.474-.4,13.853-2.37.251-3.907-4.2-6.516c-4.721-2.769-10.781-10.735-10.784-10.739a32.613,32.613,0,0,1-2.271-3.533,27.581,27.581,0,0,1-1.407-3.894,3.055,3.055,0,0,0-1.035-1.575,3.161,3.161,0,0,0-1.862-.308,13.789,13.789,0,0,0-3.043.349,4.616,4.616,0,0,0-2.548,1.6,21.984,21.984,0,0,1-1.18,1.875,2.672,2.672,0,0,1-2.719.735,2.291,2.291,0,0,1-1.767-1.984A5.872,5.872,0,0,1,380.345,401.431Z" transform="translate(-378.984 -399.456)" fill="#455a64"/>
                  <path id="Trazado_92097" data-name="Trazado 92097" d="M396.989,428.922a8.993,8.993,0,0,1,5.511-7.495c5.432-2.539,8.61-.666,10.2.568,1.894,1.468,4.571,4.487,2.807,6.548-1.9,2.226-4.862,3.212-10.307,3.083S396.989,428.922,396.989,428.922Z" transform="translate(-381.045 -401.827)" fill="#fafafa"/>
                  <g id="Grupo_39357" data-name="Grupo 39357" transform="translate(8.608 5.967)">
                    <path id="Trazado_92098" data-name="Trazado 92098" d="M389.319,410.524a.618.618,0,0,0,.493-.236c.637-.823,4.629-3.841,8.342-2.665.207-.426-.092-.884-.846-1.373-3.926-.492-7.716,2.344-8.483,3.337a.57.57,0,0,0,.129.82A.624.624,0,0,0,389.319,410.524Z" transform="translate(-388.704 -406.195)" fill="#fafafa"/>
                    <path id="Trazado_92099" data-name="Trazado 92099" d="M400.509,410.9a1.856,1.856,0,0,0-1.017-1.342,11.217,11.217,0,0,0-7.994,3.389.572.572,0,0,0,.13.821.637.637,0,0,0,.365.116.621.621,0,0,0,.493-.236C393.1,412.853,396.895,409.995,400.509,410.9Z" transform="translate(-389.011 -406.579)" fill="#fafafa"/>
                    <path id="Trazado_92100" data-name="Trazado 92100" d="M406.79,417.958a3.406,3.406,0,0,0-1.62-1.635c-3.865-.394-7.567,2.378-8.325,3.358a.571.571,0,0,0,.13.82.635.635,0,0,0,.365.116.616.616,0,0,0,.493-.236C398.505,419.513,402.917,416.2,406.79,417.958Z" transform="translate(-389.623 -407.35)" fill="#fafafa"/>
                    <path id="Trazado_92101" data-name="Trazado 92101" d="M394.667,417.252a.618.618,0,0,0,.493-.236c.63-.813,4.543-3.765,8.217-2.7a2.1,2.1,0,0,0-1.211-1.391,11.205,11.205,0,0,0-7.994,3.389.571.571,0,0,0,.13.82A.637.637,0,0,0,394.667,417.252Z" transform="translate(-389.317 -406.964)" fill="#fafafa"/>
                  </g>
                </g>
              </g>
              <g id="Grupo_39360" data-name="Grupo 39360" transform="translate(35.873)">
                <path id="Trazado_92102" data-name="Trazado 92102" d="M355.118,291.319c5.794,4.246,25.972,15.895,34.166,23.479,2.367,2.191,3.146,5.075,2.564,11.361-.79,8.531-7.494,37.6-7.494,37.6-.924,1.642-2.548-1.473-2.548-1.473L349.832,321.7Z" transform="translate(-349.832 -291.319)" fill="#27debf"/>
                <path id="Trazado_92103" data-name="Trazado 92103" d="M355.118,291.319c5.794,4.246,25.972,15.895,34.166,23.479,2.367,2.191,3.146,5.075,2.564,11.361-.79,8.531-7.494,37.6-7.494,37.6-.924,1.642-2.548-1.473-2.548-1.473L349.832,321.7Z" transform="translate(-349.832 -291.319)" fill="#00926e" opacity="0.3"/>
                <path id="Trazado_92104" data-name="Trazado 92104" d="M383.2,355.643c-7.4-6.182-31.3-43.889-31.3-43.889l.012-.012c3.254-2.75,4.933-12.284,4.933-12.284,1.29,3.678-.073,9.226-1.074,11.253,1.882,1.629,12.515,10.374,19.9,16.22a10.558,10.558,0,0,1,4.381,6.614C381.582,341.544,383.378,354.025,383.2,355.643Z" transform="translate(-350.07 -292.251)" opacity="0.3"/>
              </g>
              <g id="Grupo_39361" data-name="Grupo 39361">
                <path id="Trazado_92105" data-name="Trazado 92105" d="M350.481,291.319h0l-41.16,9.112c2.01,7.555,2.583,11.457,4.681,15.435s4.436,8.248,15.142,13.519c10.306,5.075,22.9,10.3,25.415,11.5,1.9.9,2.8,4.7,3.662,9.619.9,5.162.98,9.2,6.086,20.032,5,10.607,6.021,12.9,6.021,12.9s7.735.8,12.869-3.712c0,0-7.005-36.365-8.5-42.912-.834-3.657-.852-5.584-5.391-9.6-3.893-3.445-21.276-16.6-21.276-16.6S354.936,301.333,350.481,291.319Z" transform="translate(-309.321 -291.319)" fill="#27debf"/>
                <path id="Trazado_92106" data-name="Trazado 92106" d="M350.481,291.319h0l-41.16,9.112c2.01,7.555,2.583,11.457,4.681,15.435s4.436,8.248,15.142,13.519c10.306,5.075,22.9,10.3,25.415,11.5,1.9.9,2.8,4.7,3.662,9.619.9,5.162.98,9.2,6.086,20.032,5,10.607,6.021,12.9,6.021,12.9s7.735.8,12.869-3.712c0,0-7.005-36.365-8.5-42.912-.834-3.657-.852-5.584-5.391-9.6-3.893-3.445-21.276-16.6-21.276-16.6S354.936,301.333,350.481,291.319Z" transform="translate(-309.321 -291.319)" fill="#00926e" opacity="0.3"/>
              </g>
            </g>
            <g id="Grupo_39363" data-name="Grupo 39363" transform="translate(50.7 25.798)">
              <path id="Trazado_92107" data-name="Trazado 92107" d="M402.382,214a3.94,3.94,0,0,0-2.039.41,12.8,12.8,0,0,0-2.086,1.36q-1.535,1.13-3.149,2.148a8.741,8.741,0,0,1-3.1,1.467c-.382.063-1.194.076-.778-.5a16.338,16.338,0,0,0,1.555-2.309,3.347,3.347,0,0,0,.229-2.695,1.145,1.145,0,0,0-.53-.627c-.36-.166-.544.027-.75.262a7.554,7.554,0,0,1-.726.68c-.514.453-1.027.909-1.535,1.369-2.961,2.689-6.562,5.021-7.829,8.907a23.932,23.932,0,0,0-1.049,7.391c-.027,4.267-.279,19.118-.279,19.118s-11.8-9.92-16.911-14.2c-2.466-2.061-5.913-4.564-9.712-4.924-2.688-.255-4.257-.239-4.257-.239l8.045,19.5s15.211,11.317,22.5,15.213c6.582,3.516,9.782.984,10.578-.862,1.319-3.059,2.672-4.492.816-21.564-.133-1.321-.3-5.1-.445-6.42-.191-2.756.12-5.556,1.188-6.154a32.411,32.411,0,0,0,5.581-3.786,16.867,16.867,0,0,0,2.95-3.315,5.192,5.192,0,0,0,1.009-1.9c.066-.642-.216-1.322-.021-1.956.134-.432.424-.785.533-1.248.222-.94.141-2.021.74-2.835.329-.448.877-.852.8-1.4a1.148,1.148,0,0,0-.947-.824A2.7,2.7,0,0,0,402.382,214Z" transform="translate(-348.62 -213.191)" fill="#ffa8a7"/>
              <path id="Trazado_92108" data-name="Trazado 92108" d="M395.242,222.47a12.359,12.359,0,0,1-3.075,6.142,7.233,7.233,0,0,0,2.614-2.649C395.631,224.2,395.535,223.309,395.242,222.47Z" transform="translate(-353.513 -214.253)" fill="#f28f8f"/>
              <path id="Trazado_92109" data-name="Trazado 92109" d="M348.515,233.559c4.106.179,7.305.27,10.806,2.291s19.133,15.107,19.133,15.107.154-6.662.553-10.172c.277-2.433.681-3.2,1.44-3.077,0,0,1.356,2.079,5.2,2.367s5.132-1.306,5.132-1.306,1.12-.264,1.523,1.306,1.127,18.589.427,23.492-2.9,7.182-5.843,7.873-9.773-3.438-17.971-8.952-17.1-10.654-17.1-10.654Z" transform="translate(-348.515 -215.523)" fill="#27debf"/>
              <path id="Trazado_92110" data-name="Trazado 92110" d="M348.515,233.559c4.106.179,7.305.27,10.806,2.291s19.133,15.107,19.133,15.107.154-6.662.553-10.172c.277-2.433.681-3.2,1.44-3.077,0,0,1.356,2.079,5.2,2.367s5.132-1.306,5.132-1.306,1.12-.264,1.523,1.306,1.127,18.589.427,23.492-2.9,7.182-5.843,7.873-9.773-3.438-17.971-8.952-17.1-10.654-17.1-10.654Z" transform="translate(-348.515 -215.523)" fill="#fff" opacity="0.7"/>
              <path id="Trazado_92111" data-name="Trazado 92111" d="M382.078,253.006a32.336,32.336,0,0,0,.337,9.554s-3-5.793-2.075-11.1Z" transform="translate(-352.138 -217.572)" opacity="0.1"/>
            </g>
            <g id="Grupo_39369" data-name="Grupo 39369" transform="translate(13.531)">
              <path id="Trazado_92112" data-name="Trazado 92112" d="M309.956,237.108c-.677,3.588-7.493,37.678.259,63.1,13.959,1.646,38.476-4.762,42.151-14,0,0-2.477-8.767-3.551-13.053.228-7.033,0-20.454-.144-24.608-.282-8.23-1.566-14.6-5.649-15.2,0,0-8.2-.324-13.161-.121-4.286.176-7.506.222-7.506.222Z" transform="translate(-306.54 -189.679)" fill="#fafafa"/>
              <path id="Trazado_92113" data-name="Trazado 92113" d="M330.46,292.332c-.9-2-17.471-12.231-17.471-12.231s.252-4.738,1.239-13.458,1.279-19.169-1.864-24.422l-3.168.123c-1.792,10.577-5.434,37.735,1.02,58.9,7.443.878,17.885-.535,26.571-3.445C335.185,296.726,331.179,293.926,330.46,292.332Z" transform="translate(-306.54 -190.717)" fill="#f0f0f0"/>
              <g id="Grupo_39368" data-name="Grupo 39368" transform="translate(7.457)">
                <path id="Trazado_92114" data-name="Trazado 92114" d="M321.929,220.015c.027-1.764-3.353-7.034-4.884-11.2-2.56-6.97-2.783-13.227,3.533-15.943,0,0,3.949-6.81,13.905-7.149s17.608,8.065,14.3,19.3Z" transform="translate(-315.008 -184.247)" fill="#455a64"/>
                <g id="Grupo_39366" data-name="Grupo 39366" transform="translate(0 11.71)">
                  <g id="Grupo_39364" data-name="Grupo 39364">
                    <path id="Trazado_92115" data-name="Trazado 92115" d="M324.344,210.573c-1.3,0-1.773-1.867-2.665-2.869a3.849,3.849,0,0,0-5.949.739c-1.839,2.663-.051,6.5,1.956,7.986,2.528,1.869,4.272.066,4.272.066l-.228,14.07s.448,3.12,6.2,4.931c6.638,2.092,12.04-1.4,8.087-5.782l.147-3.707a19.1,19.1,0,0,0,6.417.358c2.215-.336,3.988-2,5.126-5.418,2.221-6.664,1.6-15.551-.689-23.664-2.19,1.732-12.325,4.98-21.454,1.76C325.882,204.646,325.615,210.573,324.344,210.573Z" transform="translate(-314.961 -197.282)" fill="#ffa8a7"/>
                    <path id="Trazado_92116" data-name="Trazado 92116" d="M321.27,217.09a.824.824,0,1,1-.823-.824A.824.824,0,0,1,321.27,217.09Z" transform="translate(-315.495 -199.455)" fill="#263238"/>
                    <path id="Trazado_92117" data-name="Trazado 92117" d="M337.461,228.811s-5.54-1.617-7.724-3.15a10.638,10.638,0,0,1-3.4-3.876,14.218,14.218,0,0,0,2.34,4.687c2.644,3,8.709,4.392,8.709,4.392Z" transform="translate(-316.264 -200.087)" fill="#f28f8f"/>
                  </g>
                  <g id="Grupo_39365" data-name="Grupo 39365" transform="translate(16.082 6.277)">
                    <path id="Trazado_92118" data-name="Trazado 92118" d="M338.039,212.023a1.38,1.38,0,1,1-1.406-1.411A1.4,1.4,0,0,1,338.039,212.023Z" transform="translate(-333.37 -205.085)" fill="#263238"/>
                    <path id="Trazado_92119" data-name="Trazado 92119" d="M336.285,206.771l-2.981,1.572a1.768,1.768,0,0,1,.732-2.335A1.644,1.644,0,0,1,336.285,206.771Z" transform="translate(-333.122 -204.536)" fill="#263238"/>
                    <path id="Trazado_92120" data-name="Trazado 92120" d="M337.888,220.39l4.742,1.512a2.612,2.612,0,0,1-3.218,1.647A2.428,2.428,0,0,1,337.888,220.39Z" transform="translate(-333.651 -206.204)" fill="#f28f8f"/>
                    <path id="Trazado_92121" data-name="Trazado 92121" d="M350.682,206.546l-3.275-.9a1.629,1.629,0,0,1,2.028-1.218A1.783,1.783,0,0,1,350.682,206.546Z" transform="translate(-334.758 -204.37)" fill="#263238"/>
                    <path id="Trazado_92122" data-name="Trazado 92122" d="M349.791,210.794a1.38,1.38,0,1,1-1.406-1.411A1.4,1.4,0,0,1,349.791,210.794Z" transform="translate(-334.715 -204.944)" fill="#263238"/>
                  </g>
                </g>
                <path id="Trazado_92123" data-name="Trazado 92123" d="M348.366,195.768c3.06-2.182,4.764-5.1,3.951-9.115-1.194,1.2-4.543,1.414-7.472.017a22.931,22.931,0,0,0-15.016-2.172c-5.408,1.047-8.576,5.16-8.576,8.185,1.058,2.165,2.514,3.318,5.026,4.846a20.048,20.048,0,0,0,13.053,3.757,12.89,12.89,0,0,0,7.685-2.781s-2.827.249-4.15-.63A14.621,14.621,0,0,0,348.366,195.768Z" transform="translate(-315.682 -184.058)" fill="#37474f"/>
                <g id="Grupo_39367" data-name="Grupo 39367" transform="translate(24.054 21.047)">
                  <path id="Trazado_92124" data-name="Trazado 92124" d="M343.3,217.194l4.223-1.927-5.4-7.441Z" transform="translate(-342.126 -207.826)" fill="#f28f8f"/>
                </g>
              </g>
            </g>
            <g id="Laptop-2" data-name="Laptop" transform="translate(0 47.429)">
              <path id="Trazado_92125" data-name="Trazado 92125" d="M388.18,317.326a8.087,8.087,0,0,0-1.283-1.506c-4.922-4.556-14.166-10.577-22.021-15.581L329.14,320.874a.329.329,0,0,0,0,.569l25.953,14.986Z" transform="translate(-295.578 -244.788)" opacity="0.15"/>
              <g id="Grupo_39386" data-name="Grupo 39386">
                <g id="Grupo_39379" data-name="Grupo 39379" transform="translate(34.491 47.632)">
                  <g id="Grupo_39370" data-name="Grupo 39370" transform="translate(0 14.413)">
                    <path id="Trazado_92126" data-name="Trazado 92126" d="M399.156,307.686v.578a2.378,2.378,0,0,1-1.187,2.057L356.42,334.309a2.347,2.347,0,0,1-1.183.314,2.391,2.391,0,0,1-1.195-.316l-22.648-13.034a2.383,2.383,0,0,1-1.185-2.057v-.8h.005v.008a.3.3,0,0,0,.151.261l24.871,14.363Z" transform="translate(-330.21 -307.686)" fill="#37474f"/>
                  </g>
                  <g id="Grupo_39371" data-name="Grupo 39371" transform="translate(25.025 14.412)">
                    <path id="Trazado_92127" data-name="Trazado 92127" d="M358.47,333.044v1.581a2.37,2.37,0,0,0,1.186-.316l41.55-23.988a2.378,2.378,0,0,0,1.189-2.059v-.578Z" transform="translate(-358.47 -307.684)" fill="#263238"/>
                  </g>
                  <g id="Grupo_39372" data-name="Grupo 39372" transform="translate(0)">
                    <path id="Trazado_92128" data-name="Trazado 92128" d="M399.16,305.821,374.523,291.6a1.417,1.417,0,0,0-1.415,0l-42.74,24.679a.315.315,0,0,0,0,.545l24.867,14.36Z" transform="translate(-330.21 -291.409)" fill="#455a64"/>
                  </g>
                  <g id="Grupo_39375" data-name="Grupo 39375" transform="translate(11.51 7.584)">
                    <g id="Grupo_39373" data-name="Grupo 39373" transform="translate(0 0.001)">
                      <path id="Trazado_92129" data-name="Trazado 92129" d="M356.5,330.071l-13.288-7.664,38.854-22.432,13.357,7.624Z" transform="translate(-343.208 -299.975)" fill="#37474f"/>
                    </g>
                    <g id="Grupo_39374" data-name="Grupo 39374" transform="translate(0.002)">
                      <path id="Trazado_92130" data-name="Trazado 92130" d="M395.419,307.6l-.507.292-12.85-7.332L343.718,322.7l-.507-.292,38.85-22.434Z" transform="translate(-343.211 -299.974)" fill="#263238"/>
                    </g>
                  </g>
                  <g id="Grupo_39378" data-name="Grupo 39378" transform="translate(18.267 9.538)">
                    <g id="Grupo_39376" data-name="Grupo 39376">
                      <path id="Trazado_92131" data-name="Trazado 92131" d="M350.839,309l.245.141,6.513,3.759,11.582-6.687.241-.137-6.758-3.9Z" transform="translate(-350.839 -302.18)" fill="#263238"/>
                    </g>
                    <g id="Grupo_39377" data-name="Grupo 39377" transform="translate(0.245 0.279)">
                      <path id="Trazado_92132" data-name="Trazado 92132" d="M351.116,309.182l6.513,3.759,11.582-6.687-6.517-3.76Z" transform="translate(-351.116 -302.495)" fill="#37474f"/>
                    </g>
                  </g>
                </g>
                <g id="Arm">
                  <path id="Trazado_92133" data-name="Trazado 92133" d="M360.595,313.7c-1.863-1.848-4.567-4.41-6.838-5.163a12.717,12.717,0,0,0-1.6-.5,18.088,18.088,0,0,0,2.334-.466,4.122,4.122,0,0,0,1.972-1.307c.2-.255.336-.661.088-.864a.538.538,0,0,0-.323-.12c-1.7-.051-3.043-.316-4.59-.428a6.441,6.441,0,0,0-2.084.038c-.634.173-1.266.357-1.889.572-2.823.977-5.4,1.856-9.394.925l-7.192-3.837s-1.536-.384-3.8,3.451-.941,5.941-.941,5.941l8.079,2.789h0l.117.045a26.708,26.708,0,0,0,3.812,1.679c2.518.773,5.738-.141,7.925-.258a23.18,23.18,0,0,1,7.924,1.718c2.029.824,4.465-2.3,5.482-1.925S362.459,315.548,360.595,313.7Z" transform="translate(-295.232 -245.052)" fill="#ffa8a7"/>
                  <path id="Trazado_92134" data-name="Trazado 92134" d="M354.084,307.347a7.656,7.656,0,0,0-3.1.5,16.871,16.871,0,0,1,4.039.7,18.063,18.063,0,0,0,2.334-.466,4.3,4.3,0,0,0,1.791-1.095C357.927,307.821,355.555,307.5,354.084,307.347Z" transform="translate(-298.098 -245.561)" fill="#f28f8f"/>
                  <g id="Grupo_39380" data-name="Grupo 39380">
                    <path id="Trazado_92135" data-name="Trazado 92135" d="M308.207,237.619c2.046.808,4.709,9.34,3.068,17.548l-3.809,25.668s4.667,2.763,11.215,6.818c4.538,2.81,8.428,5.387,8.43,7.469-2.972,1.067-5.643,6.539-4.743,9.392-2.03,2.405-20.765-7.982-27.316-12.462-3.037-2.077-4.568-2.9-3.4-12.274,1.293-10.379,2.179-21.91,4.2-29.6C297.963,242.143,300.313,239.025,308.207,237.619Z" transform="translate(-291.26 -237.619)" fill="#27debf"/>
                    <path id="Trazado_92136" data-name="Trazado 92136" d="M308.207,237.619c2.046.808,4.709,9.34,3.068,17.548l-3.809,25.668s4.667,2.763,11.215,6.818c4.538,2.81,8.428,5.387,8.43,7.469-2.972,1.067-5.643,6.539-4.743,9.392-2.03,2.405-20.765-7.982-27.316-12.462-3.037-2.077-4.568-2.9-3.4-12.274,1.293-10.379,2.179-21.91,4.2-29.6C297.963,242.143,300.313,239.025,308.207,237.619Z" transform="translate(-291.26 -237.619)" fill="#fff" opacity="0.7"/>
                  </g>
                </g>
                <g id="Grupo_39385" data-name="Grupo 39385" transform="translate(59.516 31.811)">
                  <g id="Grupo_39381" data-name="Grupo 39381" transform="translate(0.669 0.437)">
                    <path id="Trazado_92137" data-name="Trazado 92137" d="M359.226,329.543a2.809,2.809,0,0,0,2.424-.187l41.368-23.884a2.814,2.814,0,0,0,1.368-1.967l4.529-27.007a2.785,2.785,0,0,0,.037-.461,2.816,2.816,0,0,0-.832-2L365.131,298.86a2.087,2.087,0,0,0-1.01,1.456Z" transform="translate(-359.226 -274.036)" fill="#37474f"/>
                  </g>
                  <g id="Grupo_39382" data-name="Grupo 39382">
                    <path id="Trazado_92138" data-name="Trazado 92138" d="M358.47,329.137l.283.162a3.29,3.29,0,0,0,.386.187l4.9-29.227a2.087,2.087,0,0,1,1.01-1.456l42.989-24.824a2.878,2.878,0,0,0-.574-.437l-43.076,24.87a2.087,2.087,0,0,0-1.011,1.455Z" transform="translate(-358.47 -273.543)" fill="#455a64"/>
                  </g>
                  <g id="Grupo_39383" data-name="Grupo 39383" transform="translate(0 25.426)">
                    <path id="Trazado_92139" data-name="Trazado 92139" d="M364.434,302.641l-.667-.385a2.089,2.089,0,0,0-.394.9l-4.9,29.27.283.162a3.29,3.29,0,0,0,.386.187l4.9-29.227A2.07,2.07,0,0,1,364.434,302.641Z" transform="translate(-358.47 -302.256)" fill="#263238"/>
                  </g>
                  <g id="Grupo_39384" data-name="Grupo 39384" transform="translate(23.926 25.037)">
                    <path id="Trazado_92140" data-name="Trazado 92140" d="M385.532,307.792a9.138,9.138,0,0,1,4.169-5.365c2-1.155,3.375-.624,3.072,1.184a9.143,9.143,0,0,1-4.17,5.364C386.6,310.13,385.228,309.6,385.532,307.792Z" transform="translate(-385.49 -301.817)" fill="#00926e"/>
                  </g>
                </g>
              </g>
            </g>
          </g>
        </g>
      </g>
    </g>
  </g>
</svg>
