<svg xmlns="http://www.w3.org/2000/svg" xmlns:xlink="http://www.w3.org/1999/xlink" width="122.485" height="122.486" viewBox="0 0 122.485 122.486">
  <defs>
    <radialGradient id="radial-gradient" cx="0.076" cy="0.019" r="1.465" gradientTransform="translate(0.001)" gradientUnits="objectBoundingBox">
      <stop offset="0" stop-color="#f6f6f7"/>
      <stop offset="0.477" stop-color="#f9f9fa"/>
      <stop offset="0.715" stop-color="#fff"/>
    </radialGradient>
  </defs>
  <g id="Grupo_39015" data-name="Grupo 39015" transform="translate(-168 -5598)">
    <g id="Grupo_29482" data-name="Grupo 29482" transform="translate(168 5598)">
      <g id="Grupo_18423" data-name="Grupo 18423" transform="translate(0 0)">
        <g id="Grupo_18421" data-name="Grupo 18421">
          <g id="Grupo_18420" data-name="Grupo 18420">
            <g id="Grupo_18419" data-name="Grupo 18419">
              <path id="Trazado_40936" data-name="Trazado 40936" d="M317.108,2206.962a61.243,61.243,0,1,1-61.242-61.241A61.242,61.242,0,0,1,317.108,2206.962Z" transform="translate(-194.623 -2145.721)" fill="#fff"/>
            </g>
          </g>
        </g>
        <path id="Trazado_40937" data-name="Trazado 40937" d="M316.4,2206.189a61.241,61.241,0,1,0-61.242,61.244A61,61,0,0,0,316.4,2206.189Z" transform="translate(-193.912 -2144.948)" fill="url(#radial-gradient)"/>
        <path id="Trazado_40938" data-name="Trazado 40938" d="M295.588,2199.9a46.746,46.746,0,1,0-46.746,46.746A46.572,46.572,0,0,0,295.588,2199.9Z" transform="translate(-187.413 -2138.455)" fill="none" stroke="#37a3a5" stroke-miterlimit="10" stroke-width="4"/>
        <g id="Grupo_18422" data-name="Grupo 18422" transform="translate(10.85 34.383)">
          <path id="Trazado_40939" data-name="Trazado 40939" d="M305.988,2164.488a61.25,61.25,0,0,1-105.443,60.989,61.055,61.055,0,0,0,105.443-60.989Z" transform="translate(-200.545 -2164.488)" fill="#eceef0"/>
        </g>
      </g>
    </g>
    <g id="Grupo_39069" data-name="Grupo 39069" transform="translate(189.681 5217.177)">
      <g id="Grupo_39069-2" data-name="Grupo 39069" transform="translate(12.377 419.861)">
        <path id="Trazado_91679" data-name="Trazado 91679" d="M12.52,427.333v2.124a3.15,3.15,0,0,0,3.152,3.152H55.785a3.143,3.143,0,0,0,3.152-3.152v-6.3A3.143,3.143,0,0,0,55.785,420H15.672a3.15,3.15,0,0,0-3.152,3.152l.009,1.151m43.254,13.5H15.669a3.157,3.157,0,0,0-3.152,3.151v6.3a3.15,3.15,0,0,0,3.152,3.152H41.525a16.056,16.056,0,0,1,15.06-10.51,15.694,15.694,0,0,1,2.224.16A3.149,3.149,0,0,0,55.782,437.807ZM12.528,463.94V465.1a3.15,3.15,0,0,0,3.152,3.151H46.269a16.007,16.007,0,0,1-5.731-12.3,2.617,2.617,0,0,1,.012-.31H15.68a3.15,3.15,0,0,0-3.152,3.152v2.616m-.009-34.075v2.124a3.15,3.15,0,0,0,3.152,3.152H55.785a3.143,3.143,0,0,0,3.152-3.152v-6.3A3.143,3.143,0,0,0,55.785,420H15.672a3.15,3.15,0,0,0-3.152,3.152l.009,1.151" transform="translate(-12.517 -420.001)" fill="#21587b"/>
      </g>
      <g id="Grupo_39073" data-name="Grupo 39073" transform="translate(12.377 419.861)" opacity="0.2">
        <g id="Grupo_39070" data-name="Grupo 39070" transform="translate(0.003)">
          <path id="Trazado_91680" data-name="Trazado 91680" d="M15.672,432.608H55.785l.021,0H17.8a3.15,3.15,0,0,1-3.152-3.152v-2.124l.009-3.029-.009-1.151A3.149,3.149,0,0,1,17.776,420h-2.1a3.15,3.15,0,0,0-3.152,3.152l.009,1.151-.009,3.028v2.124A3.15,3.15,0,0,0,15.672,432.608Z" transform="translate(-12.52 -420.001)"/>
        </g>
        <g id="Grupo_39071" data-name="Grupo 39071" transform="translate(0 17.806)">
          <path id="Trazado_91681" data-name="Trazado 91681" d="M15.669,452.916H41.525v0H17.793a3.15,3.15,0,0,1-3.152-3.152v-6.3a3.156,3.156,0,0,1,3.132-3.149h-2.1a3.157,3.157,0,0,0-3.152,3.151v6.3A3.15,3.15,0,0,0,15.669,452.916Z" transform="translate(-12.517 -440.309)"/>
        </g>
        <g id="Grupo_39072" data-name="Grupo 39072" transform="translate(0.011 35.638)">
          <path id="Trazado_91682" data-name="Trazado 91682" d="M17.806,473.253a3.15,3.15,0,0,1-3.152-3.152v-6.3a3.15,3.15,0,0,1,3.132-3.15h-2.1A3.15,3.15,0,0,0,12.53,463.8v6.3a3.15,3.15,0,0,0,3.152,3.151h2.124Z" transform="translate(-12.53 -460.648)"/>
        </g>
      </g>
      <path id="Trazado_91683" data-name="Trazado 91683" d="M55.645,433.468H15.532a4.157,4.157,0,0,1-4.152-4.152v-2.123a1,1,0,1,1,2,0v2.123a2.155,2.155,0,0,0,2.152,2.152H55.645a2.155,2.155,0,0,0,2.152-2.152v-6.3a2.155,2.155,0,0,0-2.152-2.152H15.532a2.155,2.155,0,0,0-2.152,2.152l.009,1.143a1,1,0,0,1-.992,1.007h-.008a1,1,0,0,1-1-.992l-.009-1.151a4.158,4.158,0,0,1,4.152-4.159H55.645a4.157,4.157,0,0,1,4.152,4.152v6.3A4.158,4.158,0,0,1,55.645,433.468Z" fill="#00223d"/>
      <g id="Grupo_39074" data-name="Grupo 39074" transform="translate(12.377 437.666)">
        <path id="Trazado_91684" data-name="Trazado 91684" d="M55.782,440.309H15.669a3.157,3.157,0,0,0-3.152,3.151v6.3a3.15,3.15,0,0,0,3.152,3.152H41.525a16.056,16.056,0,0,1,15.06-10.51,15.694,15.694,0,0,1,2.224.16A3.149,3.149,0,0,0,55.782,440.309ZM12.528,466.442V467.6a3.15,3.15,0,0,0,3.152,3.151H46.269a16.007,16.007,0,0,1-5.731-12.3,2.617,2.617,0,0,1,.012-.31H15.68a3.15,3.15,0,0,0-3.152,3.152v2.616" transform="translate(-12.517 -440.309)" fill="none" stroke="#00223d" stroke-linecap="round" stroke-linejoin="round" stroke-width="2"/>
      </g>
      <g id="Grupo_39075" data-name="Grupo 39075" transform="translate(49.313 424.159)">
        <circle id="Elipse_3680" data-name="Elipse 3680" cx="2.006" cy="2.006" r="2.006" fill="#ffeb54"/>
      </g>
      <g id="Grupo_39076" data-name="Grupo 39076" transform="translate(48.313 423.159)">
        <path id="Trazado_91685" data-name="Trazado 91685" d="M56.51,429.775a3.006,3.006,0,1,1,3.006-3.006A3.009,3.009,0,0,1,56.51,429.775Zm0-4.012a1.007,1.007,0,0,0-1.006,1.007,1,1,0,0,0,1.006,1.006,1.007,1.007,0,0,0,1.006-1.006A1.02,1.02,0,0,0,56.51,425.763Z" transform="translate(-53.504 -423.763)"/>
      </g>
      <g id="Grupo_39077" data-name="Grupo 39077" transform="translate(17.355 423.163)">
        <path id="Trazado_91686" data-name="Trazado 91686" d="M19.195,429.779a1,1,0,0,1-1-1v-4.011a1,1,0,0,1,2,0v4.011A1,1,0,0,1,19.195,429.779Z" transform="translate(-18.195 -423.768)" fill="#00223d"/>
      </g>
      <g id="Grupo_39078" data-name="Grupo 39078" transform="translate(23.085 423.163)">
        <path id="Trazado_91687" data-name="Trazado 91687" d="M25.73,429.779a1,1,0,0,1-1-1v-4.011a1,1,0,0,1,2,0v4.011A1,1,0,0,1,25.73,429.779Z" transform="translate(-24.73 -423.768)" fill="#00223d"/>
      </g>
      <g id="Grupo_39079" data-name="Grupo 39079" transform="translate(28.815 423.163)">
        <path id="Trazado_91688" data-name="Trazado 91688" d="M32.321,429.779a1,1,0,0,1-1-.986l-.055-4.011a1,1,0,0,1,.986-1.014,1.032,1.032,0,0,1,1.014.986l.055,4.011a1,1,0,0,1-.986,1.014Z" transform="translate(-31.266 -423.768)" fill="#00223d"/>
      </g>
      <g id="Grupo_39080" data-name="Grupo 39080" transform="translate(17.355 440.976)">
        <path id="Trazado_91689" data-name="Trazado 91689" d="M19.195,450.1a1,1,0,0,1-1-1v-4.012a1,1,0,0,1,2,0V449.1A1,1,0,0,1,19.195,450.1Z" transform="translate(-18.195 -444.084)" fill="#00223d"/>
      </g>
      <g id="Grupo_39081" data-name="Grupo 39081" transform="translate(23.085 440.976)">
        <path id="Trazado_91690" data-name="Trazado 91690" d="M25.73,450.1a1,1,0,0,1-1-1v-4.012a1,1,0,0,1,2,0V449.1A1,1,0,0,1,25.73,450.1Z" transform="translate(-24.73 -444.084)" fill="#00223d"/>
      </g>
      <g id="Grupo_39082" data-name="Grupo 39082" transform="translate(28.815 440.976)">
        <path id="Trazado_91691" data-name="Trazado 91691" d="M32.321,450.094a1,1,0,0,1-1-.985l-.055-4.011a1,1,0,0,1,.986-1.014h.014a1,1,0,0,1,1,.986l.055,4.01a1,1,0,0,1-.986,1.014Z" transform="translate(-31.266 -444.084)" fill="#00223d"/>
      </g>
      <g id="Grupo_39083" data-name="Grupo 39083" transform="translate(17.355 458.789)">
        <path id="Trazado_91692" data-name="Trazado 91692" d="M19.195,470.411a1,1,0,0,1-1-1V465.4a1,1,0,0,1,2,0v4.011A1,1,0,0,1,19.195,470.411Z" transform="translate(-18.195 -464.4)" fill="#00223d"/>
      </g>
      <g id="Grupo_39084" data-name="Grupo 39084" transform="translate(23.085 458.789)">
        <path id="Trazado_91693" data-name="Trazado 91693" d="M25.73,470.411a1,1,0,0,1-1-1V465.4a1,1,0,0,1,2,0v4.011A1,1,0,0,1,25.73,470.411Z" transform="translate(-24.73 -464.4)" fill="#00223d"/>
      </g>
      <g id="Grupo_39085" data-name="Grupo 39085" transform="translate(28.815 458.788)">
        <path id="Trazado_91694" data-name="Trazado 91694" d="M32.321,470.411a1,1,0,0,1-1-.986l-.055-4.011a1,1,0,0,1,.986-1.014,1.035,1.035,0,0,1,1.014.986l.055,4.011a1,1,0,0,1-.986,1.014Z" transform="translate(-31.266 -464.4)" fill="#00223d"/>
      </g>
      <g id="Grupo_39086" data-name="Grupo 39086" transform="translate(17.119 432.469)">
        <rect id="Rectángulo_27537" data-name="Rectángulo 27537" width="36.951" height="5.203" transform="translate(0)" fill="#37a3a5"/>
      </g>
      <g id="Grupo_39087" data-name="Grupo 39087" transform="translate(17.122 450.285)">
        <path id="Trazado_91695" data-name="Trazado 91695" d="M42.181,454.7a15.7,15.7,0,0,0-.963,5.214H17.929V454.7Z" transform="translate(-17.929 -454.701)" fill="#37a3a5"/>
      </g>
      <g id="Grupo_39088" data-name="Grupo 39088" transform="translate(16.119 431.469)">
        <path id="Trazado_91696" data-name="Trazado 91696" d="M54.735,440.444H17.785a1,1,0,0,1-1-1v-5.2a1,1,0,0,1,1-1H54.735a1,1,0,0,1,1,1v5.2A1,1,0,0,1,54.735,440.444Zm-35.95-2h34.95v-3.2H18.785Z" transform="translate(-16.785 -433.241)" fill="#00223d"/>
      </g>
      <g id="Grupo_39089" data-name="Grupo 39089" transform="translate(16.122 449.284)">
        <path id="Trazado_91697" data-name="Trazado 91697" d="M41.077,460.775H17.788a1,1,0,0,1-1-1V454.56a1,1,0,0,1,1-1H42.04a1,1,0,0,1,.939,1.344,14.7,14.7,0,0,0-.9,4.884A1,1,0,0,1,41.077,460.775Zm-22.289-2H40.119a16.7,16.7,0,0,1,.551-3.215H18.788Z" transform="translate(-16.788 -453.56)" fill="#00223d"/>
      </g>
      <g id="Grupo_39090" data-name="Grupo 39090" transform="translate(40.399 439.763)">
        <path id="Trazado_91698" data-name="Trazado 91698" d="M76.569,458.746a16.046,16.046,0,1,1-32.092,0,2.617,2.617,0,0,1,.012-.31,15.7,15.7,0,0,1,.963-5.214.011.011,0,0,0,.011-.011,16.056,16.056,0,0,1,15.06-10.51,15.7,15.7,0,0,1,2.224.16,16.053,16.053,0,0,1,13.548,12.92" transform="translate(-44.477 -442.701)" fill="#e8f3ff"/>
      </g>
      <g id="Grupo_39091" data-name="Grupo 39091" transform="translate(40.399 439.763)" opacity="0.2">
        <path id="Trazado_91699" data-name="Trazado 91699" d="M52.56,471.044a16.007,16.007,0,0,1-5.731-12.3,2.617,2.617,0,0,1,.012-.31,15.7,15.7,0,0,1,.963-5.214.011.011,0,0,0,.011-.011,16.061,16.061,0,0,1,13.878-10.464c-.387-.03-.777-.046-1.171-.046a16.056,16.056,0,0,0-15.06,10.51.011.011,0,0,1-.011.011,15.7,15.7,0,0,0-.963,5.214,2.617,2.617,0,0,0-.012.31,16.033,16.033,0,0,0,16.046,16.046c.373,0,.738-.031,1.1-.056A15.968,15.968,0,0,1,52.56,471.044Z" transform="translate(-44.477 -442.701)"/>
      </g>
      <g id="Grupo_39092" data-name="Grupo 39092" transform="translate(39.399 438.763)">
        <path id="Trazado_91700" data-name="Trazado 91700" d="M60.382,475.651a17.031,17.031,0,0,1-17.045-17.045c0-.122,0-.244.012-.366a16.7,16.7,0,0,1,1.023-5.5.925.925,0,0,1,.047-.109,17.049,17.049,0,0,1,32.717,2.828,1,1,0,1,1-1.965.368,15.047,15.047,0,0,0-28.911-2.409h0c-.012.032-.025.064-.04.095a14.713,14.713,0,0,0-.872,4.8.956.956,0,0,1-.006.1,1.836,1.836,0,0,0-.005.2,15.045,15.045,0,1,0,30.091,0,1,1,0,0,1,2,0A17.064,17.064,0,0,1,60.382,475.651Z" transform="translate(-43.337 -441.56)" fill="#00223d"/>
      </g>
      <g id="Grupo_39093" data-name="Grupo 39093" transform="translate(61.928 452.291)">
        <circle id="Elipse_3681" data-name="Elipse 3681" cx="2.942" cy="2.942" r="2.942" fill="#37a3a5"/>
      </g>
      <g id="Grupo_39094" data-name="Grupo 39094" transform="translate(49.185 459.333)">
        <circle id="Elipse_3682" data-name="Elipse 3682" cx="2.942" cy="2.942" r="2.942" fill="#37a3a5"/>
      </g>
      <g id="Grupo_39095" data-name="Grupo 39095" transform="translate(49.185 445.086)">
        <circle id="Elipse_3683" data-name="Elipse 3683" cx="2.942" cy="2.942" r="2.942" fill="#37a3a5"/>
      </g>
      <g id="Grupo_39096" data-name="Grupo 39096" transform="translate(60.928 451.291)">
        <path id="Trazado_91701" data-name="Trazado 91701" d="M71.833,463.732a3.942,3.942,0,1,1,3.942-3.942A3.946,3.946,0,0,1,71.833,463.732Zm0-5.883a1.942,1.942,0,1,0,1.942,1.941A1.943,1.943,0,0,0,71.833,457.849Z" transform="translate(-67.892 -455.849)" fill="#00223d"/>
      </g>
      <g id="Grupo_39097" data-name="Grupo 39097" transform="translate(48.184 458.333)">
        <path id="Trazado_91702" data-name="Trazado 91702" d="M57.3,471.764a3.942,3.942,0,1,1,3.942-3.942A3.947,3.947,0,0,1,57.3,471.764Zm0-5.883a1.942,1.942,0,1,0,1.942,1.941A1.944,1.944,0,0,0,57.3,465.881Z" transform="translate(-53.357 -463.881)" fill="#00223d"/>
      </g>
      <g id="Grupo_39098" data-name="Grupo 39098" transform="translate(48.184 444.087)">
        <path id="Trazado_91703" data-name="Trazado 91703" d="M57.3,455.515a3.942,3.942,0,1,1,3.942-3.942A3.947,3.947,0,0,1,57.3,455.515Zm0-5.883a1.942,1.942,0,1,0,1.942,1.941A1.944,1.944,0,0,0,57.3,449.632Z" transform="translate(-53.357 -447.632)" fill="#00223d"/>
      </g>
      <g id="Grupo_39099" data-name="Grupo 39099" transform="translate(53.88 455.784)">
        <path id="Trazado_91704" data-name="Trazado 91704" d="M60.854,467.457a1,1,0,0,1-.514-1.858l7.5-4.484a1,1,0,1,1,1.027,1.716l-7.5,4.484A.994.994,0,0,1,60.854,467.457Z" transform="translate(-59.853 -460.973)" fill="#00223d"/>
      </g>
      <g id="Grupo_39100" data-name="Grupo 39100" transform="translate(53.714 448.428)">
        <path id="Trazado_91705" data-name="Trazado 91705" d="M68.321,458.834a1,1,0,0,1-.484-.125l-7.66-4.251a1,1,0,0,1,.971-1.749l7.66,4.251a1,1,0,0,1-.487,1.875Z" transform="translate(-59.663 -452.583)" fill="#00223d"/>
      </g>
      <g id="Grupo_39101" data-name="Grupo 39101" transform="translate(17.119 432.469)" opacity="0.2">
        <rect id="Rectángulo_27538" data-name="Rectángulo 27538" width="1.943" height="5.197" transform="translate(0)"/>
      </g>
      <g id="Grupo_39102" data-name="Grupo 39102" transform="translate(17.119 450.293)" opacity="0.2">
        <rect id="Rectángulo_27539" data-name="Rectángulo 27539" width="1.943" height="5.197" transform="translate(0)"/>
      </g>
    </g>
  </g>
</svg>
