<svg xmlns="http://www.w3.org/2000/svg" xmlns:xlink="http://www.w3.org/1999/xlink" width="667" height="52" viewBox="0 0 667 52">
  <defs>
    <filter id="Rectángulo_26469" x="0" y="0" width="172" height="52" filterUnits="userSpaceOnUse">
      <feOffset dy="3" input="SourceAlpha"/>
      <feGaussianBlur stdDeviation="3" result="blur"/>
      <feFlood flood-opacity="0.161"/>
      <feComposite operator="in" in2="blur"/>
      <feComposite in="SourceGraphic"/>
    </filter>
    <filter id="Rectángulo_26470" x="0" y="0" width="57" height="52" filterUnits="userSpaceOnUse">
      <feOffset dy="3" input="SourceAlpha"/>
      <feGaussianBlur stdDeviation="3" result="blur-2"/>
      <feFlood flood-opacity="0.161"/>
      <feComposite operator="in" in2="blur-2"/>
      <feComposite in="SourceGraphic"/>
    </filter>
    <filter id="Rectángulo_26469-2" x="167" y="0" width="172" height="52" filterUnits="userSpaceOnUse">
      <feOffset dy="3" input="SourceAlpha"/>
      <feGaussianBlur stdDeviation="3" result="blur-3"/>
      <feFlood flood-opacity="0.161"/>
      <feComposite operator="in" in2="blur-3"/>
      <feComposite in="SourceGraphic"/>
    </filter>
    <filter id="Rectángulo_26470-2" x="167" y="0" width="57" height="52" filterUnits="userSpaceOnUse">
      <feOffset dy="3" input="SourceAlpha"/>
      <feGaussianBlur stdDeviation="3" result="blur-4"/>
      <feFlood flood-opacity="0.161"/>
      <feComposite operator="in" in2="blur-4"/>
      <feComposite in="SourceGraphic"/>
    </filter>
    <filter id="Rectángulo_26469-3" x="331" y="0" width="172" height="52" filterUnits="userSpaceOnUse">
      <feOffset dy="3" input="SourceAlpha"/>
      <feGaussianBlur stdDeviation="3" result="blur-5"/>
      <feFlood flood-opacity="0.161"/>
      <feComposite operator="in" in2="blur-5"/>
      <feComposite in="SourceGraphic"/>
    </filter>
    <filter id="Rectángulo_26470-3" x="331" y="0" width="57" height="52" filterUnits="userSpaceOnUse">
      <feOffset dy="3" input="SourceAlpha"/>
      <feGaussianBlur stdDeviation="3" result="blur-6"/>
      <feFlood flood-opacity="0.161"/>
      <feComposite operator="in" in2="blur-6"/>
      <feComposite in="SourceGraphic"/>
    </filter>
    <filter id="Rectángulo_26469-4" x="495" y="0" width="172" height="52" filterUnits="userSpaceOnUse">
      <feOffset dy="3" input="SourceAlpha"/>
      <feGaussianBlur stdDeviation="3" result="blur-7"/>
      <feFlood flood-opacity="0.161"/>
      <feComposite operator="in" in2="blur-7"/>
      <feComposite in="SourceGraphic"/>
    </filter>
    <filter id="Trazado_83872" x="495" y="0" width="57" height="52" filterUnits="userSpaceOnUse">
      <feOffset dy="3" input="SourceAlpha"/>
      <feGaussianBlur stdDeviation="3" result="blur-8"/>
      <feFlood flood-opacity="0.161"/>
      <feComposite operator="in" in2="blur-8"/>
      <feComposite in="SourceGraphic"/>
    </filter>
  </defs>
  <g id="Grupo_37356" data-name="Grupo 37356" transform="translate(-492 -14666)">
    <g id="Grupo_33933" data-name="Grupo 33933" transform="translate(289 12731.94)">
      <g transform="matrix(1, 0, 0, 1, 203, 1934.06)" filter="url(#Rectángulo_26469)">
        <rect id="Rectángulo_26469-5" data-name="Rectángulo 26469" width="154" height="34" rx="6" transform="translate(9 6)" fill="#f9f9f9"/>
      </g>
      <g transform="matrix(1, 0, 0, 1, 203, 1934.06)" filter="url(#Rectángulo_26470)">
        <rect id="Rectángulo_26470-4" data-name="Rectángulo 26470" width="39" height="34" rx="6" transform="translate(9 6)" fill="#37a3a5" opacity="0.8"/>
      </g>
      <text id="Enrutadores" transform="translate(259.946 1947.868)" fill="#00223d" font-size="16" font-family="Roboto-Regular, Roboto"><tspan x="0" y="15">Enrutadores</tspan></text>
      <path id="Trazado_83866" data-name="Trazado 83866" d="M333.154,245.506a.146.146,0,0,0-.145-.071l-1.8.231a7.888,7.888,0,0,0-.78-1.829l.2-.153,1.214-.926a.144.144,0,0,0,.051-.084.141.141,0,0,0-.024-.12l-1.127-1.478a.149.149,0,0,0-.049-.04.145.145,0,0,0-.155.012l-1.442,1.1a7.968,7.968,0,0,0-1.589-1.193l.11-.264.577-1.38a.146.146,0,0,0,0-.1.144.144,0,0,0-.081-.09l-1.714-.716a.13.13,0,0,0-.066-.009.142.142,0,0,0-.124.087l-.7,1.671a7.852,7.852,0,0,0-1.973-.236l-.019-.151-.207-1.618a.145.145,0,0,0-.043-.082.142.142,0,0,0-.12-.044l-1.842.237a.146.146,0,0,0-.118.1l0,.008a.106.106,0,0,0,0,.025.1.1,0,0,0,0,.033l.23,1.8a7.86,7.86,0,0,0-1.829.78l-1.078-1.416a.147.147,0,0,0-.2-.027l-1.052.8-.426.325a.139.139,0,0,0-.037.042h0a.145.145,0,0,0,.011.16l1.1,1.443a7.907,7.907,0,0,0-1.194,1.588l-1.645-.687a.15.15,0,0,0-.056-.011s-.007,0-.011,0a.146.146,0,0,0-.123.088l-.524,1.255-.192.46a.145.145,0,0,0,.078.19l1.672.7a7.881,7.881,0,0,0-.236,1.973l-1.769.227a.145.145,0,0,0-.125.163l.237,1.842a.1.1,0,0,0,.012.035.094.094,0,0,0,.006.02.145.145,0,0,0,.145.071l1.8-.231a7.844,7.844,0,0,0,.78,1.829l-1.416,1.079a.146.146,0,0,0-.027.2l.476.624.65.853a.146.146,0,0,0,.2.028l1.442-1.1a7.927,7.927,0,0,0,1.589,1.193l-.687,1.645a.146.146,0,0,0,.078.19l.46.192,1.254.524a.145.145,0,0,0,.19-.078l.7-1.672a7.879,7.879,0,0,0,1.972.236l.071.555.156,1.213a.136.136,0,0,0,.019.055.146.146,0,0,0,.144.071h0l1.843-.237a.153.153,0,0,0,.055-.019.146.146,0,0,0,.07-.145l-.23-1.8a7.887,7.887,0,0,0,1.829-.78l.079.1,1,1.311a.149.149,0,0,0,.076.05.145.145,0,0,0,.128-.022L330.357,255a.153.153,0,0,0,.042-.05.147.147,0,0,0-.014-.154l-1.1-1.442a7.961,7.961,0,0,0,1.194-1.589l.218.092,1.426.6a.152.152,0,0,0,.19-.079l.717-1.715a.145.145,0,0,0-.079-.19l-1.671-.7a7.875,7.875,0,0,0,.236-1.972l.313-.04,1.457-.187a.139.139,0,0,0,.091-.051.143.143,0,0,0,.034-.112l-.237-1.842A.146.146,0,0,0,333.154,245.506Zm-9.24,4.821a2.508,2.508,0,1,1,2.167-2.807A2.508,2.508,0,0,1,323.914,250.328Z" transform="translate(-94.625 1707.048)" fill="#fff"/>
      <path id="Trazado_83867" data-name="Trazado 83867" d="M326.246,242.838a.094.094,0,0,0-.093-.046l-1.156.148a5.076,5.076,0,0,0-.5-1.177l.13-.1.781-.6a.092.092,0,0,0,.033-.054.091.091,0,0,0-.015-.077l-.725-.951a.1.1,0,0,0-.032-.026.093.093,0,0,0-.1.008l-.928.708a5.127,5.127,0,0,0-1.022-.768l.071-.17.371-.888a.094.094,0,0,0,0-.065.093.093,0,0,0-.052-.058l-1.1-.461a.083.083,0,0,0-.043-.006.091.091,0,0,0-.08.056l-.449,1.075a5.054,5.054,0,0,0-1.27-.152l-.012-.1-.133-1.041a.093.093,0,0,0-.028-.053.091.091,0,0,0-.077-.028l-1.186.152a.094.094,0,0,0-.076.063l0,.005a.067.067,0,0,0,0,.016.062.062,0,0,0,0,.021l.148,1.156a5.058,5.058,0,0,0-1.177.5l-.694-.911a.094.094,0,0,0-.132-.018l-.677.516-.274.209a.09.09,0,0,0-.024.027h0a.093.093,0,0,0,.007.1l.708.929a5.088,5.088,0,0,0-.768,1.022l-1.058-.442a.1.1,0,0,0-.036-.007h-.007a.094.094,0,0,0-.079.057l-.337.808-.123.3a.093.093,0,0,0,.05.122l1.076.45a5.072,5.072,0,0,0-.152,1.269l-1.139.146a.093.093,0,0,0-.081.1l.152,1.186a.064.064,0,0,0,.008.023.06.06,0,0,0,0,.013.093.093,0,0,0,.093.046l1.156-.149a5.047,5.047,0,0,0,.5,1.177l-.911.695a.094.094,0,0,0-.018.131l.307.4.418.549a.094.094,0,0,0,.131.018l.928-.708a5.1,5.1,0,0,0,1.022.768l-.442,1.058a.094.094,0,0,0,.05.123l.3.124.807.337a.093.093,0,0,0,.123-.05l.45-1.076a5.07,5.07,0,0,0,1.269.152l.046.357.1.781a.088.088,0,0,0,.012.035.094.094,0,0,0,.093.046h0l1.186-.153a.1.1,0,0,0,.036-.012.094.094,0,0,0,.045-.093l-.148-1.156a5.075,5.075,0,0,0,1.177-.5l.051.067.643.844a.1.1,0,0,0,.049.032.093.093,0,0,0,.083-.014l.951-.725a.1.1,0,0,0,.027-.032.1.1,0,0,0-.009-.1l-.708-.928a5.124,5.124,0,0,0,.768-1.022l.14.059.918.383a.1.1,0,0,0,.123-.051l.461-1.1a.094.094,0,0,0-.051-.123l-1.075-.449a5.066,5.066,0,0,0,.152-1.269l.2-.026.937-.121a.089.089,0,0,0,.059-.033.092.092,0,0,0,.022-.072l-.152-1.186A.094.094,0,0,0,326.246,242.838Zm-5.946,3.1a1.614,1.614,0,1,1,1.394-1.806A1.614,1.614,0,0,1,320.3,245.941Z" transform="translate(-84.808 1716.866)" fill="#00223d"/>
    </g>
    <g id="Grupo_33934" data-name="Grupo 33934" transform="translate(456 12731.94)">
      <g transform="matrix(1, 0, 0, 1, 36, 1934.06)" filter="url(#Rectángulo_26469-2)">
        <rect id="Rectángulo_26469-6" data-name="Rectángulo 26469" width="154" height="34" rx="6" transform="translate(176 6)" fill="#f9f9f9"/>
      </g>
      <g transform="matrix(1, 0, 0, 1, 36, 1934.06)" filter="url(#Rectángulo_26470-2)">
        <rect id="Rectángulo_26470-5" data-name="Rectángulo 26470" width="39" height="34" rx="6" transform="translate(176 6)" fill="#37a3a5" opacity="0.8"/>
      </g>
      <text id="Switches" transform="translate(259.946 1947.868)" fill="#00223d" font-size="16" font-family="Roboto-Regular, Roboto"><tspan x="0" y="15">Switches</tspan></text>
      <path id="Trazado_83868" data-name="Trazado 83868" d="M333.154,245.506a.146.146,0,0,0-.145-.071l-1.8.231a7.888,7.888,0,0,0-.78-1.829l.2-.153,1.214-.926a.144.144,0,0,0,.051-.084.141.141,0,0,0-.024-.12l-1.127-1.478a.149.149,0,0,0-.049-.04.145.145,0,0,0-.155.012l-1.442,1.1a7.968,7.968,0,0,0-1.589-1.193l.11-.264.577-1.38a.146.146,0,0,0,0-.1.144.144,0,0,0-.081-.09l-1.714-.716a.13.13,0,0,0-.066-.009.142.142,0,0,0-.124.087l-.7,1.671a7.852,7.852,0,0,0-1.973-.236l-.019-.151-.207-1.618a.145.145,0,0,0-.043-.082.142.142,0,0,0-.12-.044l-1.842.237a.146.146,0,0,0-.118.1l0,.008a.106.106,0,0,0,0,.025.1.1,0,0,0,0,.033l.23,1.8a7.86,7.86,0,0,0-1.829.78l-1.078-1.416a.147.147,0,0,0-.2-.027l-1.052.8-.426.325a.139.139,0,0,0-.037.042h0a.145.145,0,0,0,.011.16l1.1,1.443a7.907,7.907,0,0,0-1.194,1.588l-1.645-.687a.15.15,0,0,0-.056-.011s-.007,0-.011,0a.146.146,0,0,0-.123.088l-.524,1.255-.192.46a.145.145,0,0,0,.078.19l1.672.7a7.881,7.881,0,0,0-.236,1.973l-1.769.227a.145.145,0,0,0-.125.163l.237,1.842a.1.1,0,0,0,.012.035.094.094,0,0,0,.006.02.145.145,0,0,0,.145.071l1.8-.231a7.844,7.844,0,0,0,.78,1.829l-1.416,1.079a.146.146,0,0,0-.027.2l.476.624.65.853a.146.146,0,0,0,.2.028l1.442-1.1a7.927,7.927,0,0,0,1.589,1.193l-.687,1.645a.146.146,0,0,0,.078.19l.46.192,1.254.524a.145.145,0,0,0,.19-.078l.7-1.672a7.879,7.879,0,0,0,1.972.236l.071.555.156,1.213a.136.136,0,0,0,.019.055.146.146,0,0,0,.144.071h0l1.843-.237a.153.153,0,0,0,.055-.019.146.146,0,0,0,.07-.145l-.23-1.8a7.887,7.887,0,0,0,1.829-.78l.079.1,1,1.311a.149.149,0,0,0,.076.05.145.145,0,0,0,.128-.022L330.357,255a.153.153,0,0,0,.042-.05.147.147,0,0,0-.014-.154l-1.1-1.442a7.961,7.961,0,0,0,1.194-1.589l.218.092,1.426.6a.152.152,0,0,0,.19-.079l.717-1.715a.145.145,0,0,0-.079-.19l-1.671-.7a7.875,7.875,0,0,0,.236-1.972l.313-.04,1.457-.187a.139.139,0,0,0,.091-.051.143.143,0,0,0,.034-.112l-.237-1.842A.146.146,0,0,0,333.154,245.506Zm-9.24,4.821a2.508,2.508,0,1,1,2.167-2.807A2.508,2.508,0,0,1,323.914,250.328Z" transform="translate(-93.502 1708.048)" fill="#fff"/>
      <path id="Trazado_83869" data-name="Trazado 83869" d="M326.246,242.838a.094.094,0,0,0-.093-.046l-1.156.148a5.076,5.076,0,0,0-.5-1.177l.13-.1.781-.6a.092.092,0,0,0,.033-.054.091.091,0,0,0-.015-.077l-.725-.951a.1.1,0,0,0-.032-.026.093.093,0,0,0-.1.008l-.928.708a5.127,5.127,0,0,0-1.022-.768l.071-.17.371-.888a.094.094,0,0,0,0-.065.093.093,0,0,0-.052-.058l-1.1-.461a.083.083,0,0,0-.043-.006.091.091,0,0,0-.08.056l-.449,1.075a5.054,5.054,0,0,0-1.27-.152l-.012-.1-.133-1.041a.093.093,0,0,0-.028-.053.091.091,0,0,0-.077-.028l-1.186.152a.094.094,0,0,0-.076.063l0,.005a.067.067,0,0,0,0,.016.062.062,0,0,0,0,.021l.148,1.156a5.058,5.058,0,0,0-1.177.5l-.694-.911a.094.094,0,0,0-.132-.018l-.677.516-.274.209a.09.09,0,0,0-.024.027h0a.093.093,0,0,0,.007.1l.708.929a5.088,5.088,0,0,0-.768,1.022l-1.058-.442a.1.1,0,0,0-.036-.007h-.007a.094.094,0,0,0-.079.057l-.337.808-.123.3a.093.093,0,0,0,.05.122l1.076.45a5.072,5.072,0,0,0-.152,1.269l-1.139.146a.093.093,0,0,0-.081.1l.152,1.186a.064.064,0,0,0,.008.023.06.06,0,0,0,0,.013.093.093,0,0,0,.093.046l1.156-.149a5.047,5.047,0,0,0,.5,1.177l-.911.695a.094.094,0,0,0-.018.131l.307.4.418.549a.094.094,0,0,0,.131.018l.928-.708a5.1,5.1,0,0,0,1.022.768l-.442,1.058a.094.094,0,0,0,.05.123l.3.124.807.337a.093.093,0,0,0,.123-.05l.45-1.076a5.07,5.07,0,0,0,1.269.152l.046.357.1.781a.088.088,0,0,0,.012.035.094.094,0,0,0,.093.046h0l1.186-.153a.1.1,0,0,0,.036-.012.094.094,0,0,0,.045-.093l-.148-1.156a5.075,5.075,0,0,0,1.177-.5l.051.067.643.844a.1.1,0,0,0,.049.032.093.093,0,0,0,.083-.014l.951-.725a.1.1,0,0,0,.027-.032.1.1,0,0,0-.009-.1l-.708-.928a5.124,5.124,0,0,0,.768-1.022l.14.059.918.383a.1.1,0,0,0,.123-.051l.461-1.1a.094.094,0,0,0-.051-.123l-1.075-.449a5.066,5.066,0,0,0,.152-1.269l.2-.026.937-.121a.089.089,0,0,0,.059-.033.092.092,0,0,0,.022-.072l-.152-1.186A.094.094,0,0,0,326.246,242.838Zm-5.946,3.1a1.614,1.614,0,1,1,1.394-1.806A1.614,1.614,0,0,1,320.3,245.941Z" transform="translate(-83.686 1717.866)" fill="#00223d"/>
    </g>
    <g id="Grupo_33935" data-name="Grupo 33935" transform="translate(620 12731.94)">
      <g transform="matrix(1, 0, 0, 1, -128, 1934.06)" filter="url(#Rectángulo_26469-3)">
        <rect id="Rectángulo_26469-7" data-name="Rectángulo 26469" width="154" height="34" rx="6" transform="translate(340 6)" fill="#f9f9f9"/>
      </g>
      <g transform="matrix(1, 0, 0, 1, -128, 1934.06)" filter="url(#Rectángulo_26470-3)">
        <rect id="Rectángulo_26470-6" data-name="Rectángulo 26470" width="39" height="34" rx="6" transform="translate(340 6)" fill="#37a3a5" opacity="0.8"/>
      </g>
      <text id="Cables_UTP" data-name="Cables UTP" transform="translate(259.946 1947.868)" fill="#00223d" font-size="16" font-family="Roboto-Regular, Roboto"><tspan x="0" y="15">Cables UTP</tspan></text>
      <path id="Trazado_83870" data-name="Trazado 83870" d="M333.154,245.506a.146.146,0,0,0-.145-.071l-1.8.231a7.888,7.888,0,0,0-.78-1.829l.2-.153,1.214-.926a.144.144,0,0,0,.051-.084.141.141,0,0,0-.024-.12l-1.127-1.478a.149.149,0,0,0-.049-.04.145.145,0,0,0-.155.012l-1.442,1.1a7.968,7.968,0,0,0-1.589-1.193l.11-.264.577-1.38a.146.146,0,0,0,0-.1.144.144,0,0,0-.081-.09l-1.714-.716a.13.13,0,0,0-.066-.009.142.142,0,0,0-.124.087l-.7,1.671a7.852,7.852,0,0,0-1.973-.236l-.019-.151-.207-1.618a.145.145,0,0,0-.043-.082.142.142,0,0,0-.12-.044l-1.842.237a.146.146,0,0,0-.118.1l0,.008a.106.106,0,0,0,0,.025.1.1,0,0,0,0,.033l.23,1.8a7.86,7.86,0,0,0-1.829.78l-1.078-1.416a.147.147,0,0,0-.2-.027l-1.052.8-.426.325a.139.139,0,0,0-.037.042h0a.145.145,0,0,0,.011.16l1.1,1.443a7.907,7.907,0,0,0-1.194,1.588l-1.645-.687a.15.15,0,0,0-.056-.011s-.007,0-.011,0a.146.146,0,0,0-.123.088l-.524,1.255-.192.46a.145.145,0,0,0,.078.19l1.672.7a7.881,7.881,0,0,0-.236,1.973l-1.769.227a.145.145,0,0,0-.125.163l.237,1.842a.1.1,0,0,0,.012.035.094.094,0,0,0,.006.02.145.145,0,0,0,.145.071l1.8-.231a7.844,7.844,0,0,0,.78,1.829l-1.416,1.079a.146.146,0,0,0-.027.2l.476.624.65.853a.146.146,0,0,0,.2.028l1.442-1.1a7.927,7.927,0,0,0,1.589,1.193l-.687,1.645a.146.146,0,0,0,.078.19l.46.192,1.254.524a.145.145,0,0,0,.19-.078l.7-1.672a7.879,7.879,0,0,0,1.972.236l.071.555.156,1.213a.136.136,0,0,0,.019.055.146.146,0,0,0,.144.071h0l1.843-.237a.153.153,0,0,0,.055-.019.146.146,0,0,0,.07-.145l-.23-1.8a7.887,7.887,0,0,0,1.829-.78l.079.1,1,1.311a.149.149,0,0,0,.076.05.145.145,0,0,0,.128-.022L330.357,255a.153.153,0,0,0,.042-.05.147.147,0,0,0-.014-.154l-1.1-1.442a7.961,7.961,0,0,0,1.194-1.589l.218.092,1.426.6a.152.152,0,0,0,.19-.079l.717-1.715a.145.145,0,0,0-.079-.19l-1.671-.7a7.875,7.875,0,0,0,.236-1.972l.313-.04,1.457-.187a.139.139,0,0,0,.091-.051.143.143,0,0,0,.034-.112l-.237-1.842A.146.146,0,0,0,333.154,245.506Zm-9.24,4.821a2.508,2.508,0,1,1,2.167-2.807A2.508,2.508,0,0,1,323.914,250.328Z" transform="translate(-93.502 1708.048)" fill="#fff"/>
      <path id="Trazado_83871" data-name="Trazado 83871" d="M326.246,242.838a.094.094,0,0,0-.093-.046l-1.156.148a5.076,5.076,0,0,0-.5-1.177l.13-.1.781-.6a.092.092,0,0,0,.033-.054.091.091,0,0,0-.015-.077l-.725-.951a.1.1,0,0,0-.032-.026.093.093,0,0,0-.1.008l-.928.708a5.127,5.127,0,0,0-1.022-.768l.071-.17.371-.888a.094.094,0,0,0,0-.065.093.093,0,0,0-.052-.058l-1.1-.461a.083.083,0,0,0-.043-.006.091.091,0,0,0-.08.056l-.449,1.075a5.054,5.054,0,0,0-1.27-.152l-.012-.1-.133-1.041a.093.093,0,0,0-.028-.053.091.091,0,0,0-.077-.028l-1.186.152a.094.094,0,0,0-.076.063l0,.005a.067.067,0,0,0,0,.016.062.062,0,0,0,0,.021l.148,1.156a5.058,5.058,0,0,0-1.177.5l-.694-.911a.094.094,0,0,0-.132-.018l-.677.516-.274.209a.09.09,0,0,0-.024.027h0a.093.093,0,0,0,.007.1l.708.929a5.088,5.088,0,0,0-.768,1.022l-1.058-.442a.1.1,0,0,0-.036-.007h-.007a.094.094,0,0,0-.079.057l-.337.808-.123.3a.093.093,0,0,0,.05.122l1.076.45a5.072,5.072,0,0,0-.152,1.269l-1.139.146a.093.093,0,0,0-.081.1l.152,1.186a.064.064,0,0,0,.008.023.06.06,0,0,0,0,.013.093.093,0,0,0,.093.046l1.156-.149a5.047,5.047,0,0,0,.5,1.177l-.911.695a.094.094,0,0,0-.018.131l.307.4.418.549a.094.094,0,0,0,.131.018l.928-.708a5.1,5.1,0,0,0,1.022.768l-.442,1.058a.094.094,0,0,0,.05.123l.3.124.807.337a.093.093,0,0,0,.123-.05l.45-1.076a5.07,5.07,0,0,0,1.269.152l.046.357.1.781a.088.088,0,0,0,.012.035.094.094,0,0,0,.093.046h0l1.186-.153a.1.1,0,0,0,.036-.012.094.094,0,0,0,.045-.093l-.148-1.156a5.075,5.075,0,0,0,1.177-.5l.051.067.643.844a.1.1,0,0,0,.049.032.093.093,0,0,0,.083-.014l.951-.725a.1.1,0,0,0,.027-.032.1.1,0,0,0-.009-.1l-.708-.928a5.124,5.124,0,0,0,.768-1.022l.14.059.918.383a.1.1,0,0,0,.123-.051l.461-1.1a.094.094,0,0,0-.051-.123l-1.075-.449a5.066,5.066,0,0,0,.152-1.269l.2-.026.937-.121a.089.089,0,0,0,.059-.033.092.092,0,0,0,.022-.072l-.152-1.186A.094.094,0,0,0,326.246,242.838Zm-5.946,3.1a1.614,1.614,0,1,1,1.394-1.806A1.614,1.614,0,0,1,320.3,245.941Z" transform="translate(-83.686 1717.866)" fill="#00223d"/>
    </g>
    <g id="Grupo_33936" data-name="Grupo 33936" transform="translate(784 12731.94)">
      <g transform="matrix(1, 0, 0, 1, -292, 1934.06)" filter="url(#Rectángulo_26469-4)">
        <rect id="Rectángulo_26469-8" data-name="Rectángulo 26469" width="154" height="34" rx="6" transform="translate(504 6)" fill="#f9f9f9"/>
      </g>
      <g transform="matrix(1, 0, 0, 1, -292, 1934.06)" filter="url(#Trazado_83872)">
        <path id="Trazado_83872-2" data-name="Trazado 83872" d="M6,0H33a6,6,0,0,1,6,6V28a6,6,0,0,1-6,6H6a6,6,0,0,1-6-6V6A6,6,0,0,1,6,0Z" transform="translate(504 6)" fill="#37a3a5" opacity="0.8"/>
      </g>
      <text id="Bridges" transform="translate(259.946 1947.868)" fill="#00223d" font-size="16" font-family="Roboto-Regular, Roboto"><tspan x="0" y="15">Bridges</tspan></text>
      <path id="Trazado_83873" data-name="Trazado 83873" d="M333.154,245.506a.146.146,0,0,0-.145-.071l-1.8.231a7.888,7.888,0,0,0-.78-1.829l.2-.153,1.214-.926a.144.144,0,0,0,.051-.084.141.141,0,0,0-.024-.12l-1.127-1.478a.149.149,0,0,0-.049-.04.145.145,0,0,0-.155.012l-1.442,1.1a7.968,7.968,0,0,0-1.589-1.193l.11-.264.577-1.38a.146.146,0,0,0,0-.1.144.144,0,0,0-.081-.09l-1.714-.716a.13.13,0,0,0-.066-.009.142.142,0,0,0-.124.087l-.7,1.671a7.852,7.852,0,0,0-1.973-.236l-.019-.151-.207-1.618a.145.145,0,0,0-.043-.082.142.142,0,0,0-.12-.044l-1.842.237a.146.146,0,0,0-.118.1l0,.008a.106.106,0,0,0,0,.025.1.1,0,0,0,0,.033l.23,1.8a7.86,7.86,0,0,0-1.829.78l-1.078-1.416a.147.147,0,0,0-.2-.027l-1.052.8-.426.325a.139.139,0,0,0-.037.042h0a.145.145,0,0,0,.011.16l1.1,1.443a7.907,7.907,0,0,0-1.194,1.588l-1.645-.687a.15.15,0,0,0-.056-.011s-.007,0-.011,0a.146.146,0,0,0-.123.088l-.524,1.255-.192.46a.145.145,0,0,0,.078.19l1.672.7a7.881,7.881,0,0,0-.236,1.973l-1.769.227a.145.145,0,0,0-.125.163l.237,1.842a.1.1,0,0,0,.012.035.094.094,0,0,0,.006.02.145.145,0,0,0,.145.071l1.8-.231a7.844,7.844,0,0,0,.78,1.829l-1.416,1.079a.146.146,0,0,0-.027.2l.476.624.65.853a.146.146,0,0,0,.2.028l1.442-1.1a7.927,7.927,0,0,0,1.589,1.193l-.687,1.645a.146.146,0,0,0,.078.19l.46.192,1.254.524a.145.145,0,0,0,.19-.078l.7-1.672a7.879,7.879,0,0,0,1.972.236l.071.555.156,1.213a.136.136,0,0,0,.019.055.146.146,0,0,0,.144.071h0l1.843-.237a.153.153,0,0,0,.055-.019.146.146,0,0,0,.07-.145l-.23-1.8a7.887,7.887,0,0,0,1.829-.78l.079.1,1,1.311a.149.149,0,0,0,.076.05.145.145,0,0,0,.128-.022L330.357,255a.153.153,0,0,0,.042-.05.147.147,0,0,0-.014-.154l-1.1-1.442a7.961,7.961,0,0,0,1.194-1.589l.218.092,1.426.6a.152.152,0,0,0,.19-.079l.717-1.715a.145.145,0,0,0-.079-.19l-1.671-.7a7.875,7.875,0,0,0,.236-1.972l.313-.04,1.457-.187a.139.139,0,0,0,.091-.051.143.143,0,0,0,.034-.112l-.237-1.842A.146.146,0,0,0,333.154,245.506Zm-9.24,4.821a2.508,2.508,0,1,1,2.167-2.807A2.508,2.508,0,0,1,323.914,250.328Z" transform="translate(-93.502 1708.048)" fill="#fff"/>
      <path id="Trazado_83874" data-name="Trazado 83874" d="M326.246,242.838a.094.094,0,0,0-.093-.046l-1.156.148a5.076,5.076,0,0,0-.5-1.177l.13-.1.781-.6a.092.092,0,0,0,.033-.054.091.091,0,0,0-.015-.077l-.725-.951a.1.1,0,0,0-.032-.026.093.093,0,0,0-.1.008l-.928.708a5.127,5.127,0,0,0-1.022-.768l.071-.17.371-.888a.094.094,0,0,0,0-.065.093.093,0,0,0-.052-.058l-1.1-.461a.083.083,0,0,0-.043-.006.091.091,0,0,0-.08.056l-.449,1.075a5.054,5.054,0,0,0-1.27-.152l-.012-.1-.133-1.041a.093.093,0,0,0-.028-.053.091.091,0,0,0-.077-.028l-1.186.152a.094.094,0,0,0-.076.063l0,.005a.067.067,0,0,0,0,.016.062.062,0,0,0,0,.021l.148,1.156a5.058,5.058,0,0,0-1.177.5l-.694-.911a.094.094,0,0,0-.132-.018l-.677.516-.274.209a.09.09,0,0,0-.024.027h0a.093.093,0,0,0,.007.1l.708.929a5.088,5.088,0,0,0-.768,1.022l-1.058-.442a.1.1,0,0,0-.036-.007h-.007a.094.094,0,0,0-.079.057l-.337.808-.123.3a.093.093,0,0,0,.05.122l1.076.45a5.072,5.072,0,0,0-.152,1.269l-1.139.146a.093.093,0,0,0-.081.1l.152,1.186a.064.064,0,0,0,.008.023.06.06,0,0,0,0,.013.093.093,0,0,0,.093.046l1.156-.149a5.047,5.047,0,0,0,.5,1.177l-.911.695a.094.094,0,0,0-.018.131l.307.4.418.549a.094.094,0,0,0,.131.018l.928-.708a5.1,5.1,0,0,0,1.022.768l-.442,1.058a.094.094,0,0,0,.05.123l.3.124.807.337a.093.093,0,0,0,.123-.05l.45-1.076a5.07,5.07,0,0,0,1.269.152l.046.357.1.781a.088.088,0,0,0,.012.035.094.094,0,0,0,.093.046h0l1.186-.153a.1.1,0,0,0,.036-.012.094.094,0,0,0,.045-.093l-.148-1.156a5.075,5.075,0,0,0,1.177-.5l.051.067.643.844a.1.1,0,0,0,.049.032.093.093,0,0,0,.083-.014l.951-.725a.1.1,0,0,0,.027-.032.1.1,0,0,0-.009-.1l-.708-.928a5.124,5.124,0,0,0,.768-1.022l.14.059.918.383a.1.1,0,0,0,.123-.051l.461-1.1a.094.094,0,0,0-.051-.123l-1.075-.449a5.066,5.066,0,0,0,.152-1.269l.2-.026.937-.121a.089.089,0,0,0,.059-.033.092.092,0,0,0,.022-.072l-.152-1.186A.094.094,0,0,0,326.246,242.838Zm-5.946,3.1a1.614,1.614,0,1,1,1.394-1.806A1.614,1.614,0,0,1,320.3,245.941Z" transform="translate(-83.686 1717.866)" fill="#00223d"/>
    </g>
  </g>
</svg>
