<svg xmlns="http://www.w3.org/2000/svg" xmlns:xlink="http://www.w3.org/1999/xlink" width="960.972" height="297.864" viewBox="0 0 960.972 297.864">
  <defs>
    <linearGradient id="linear-gradient" x1="0.5" x2="0.5" y2="1" gradientUnits="objectBoundingBox">
      <stop offset="0" stop-color="#fff"/>
      <stop offset="1" stop-color="#d2e6ee"/>
    </linearGradient>
    <radialGradient id="radial-gradient" cx="0.076" cy="0.019" r="1.465" gradientTransform="translate(0.001)" gradientUnits="objectBoundingBox">
      <stop offset="0" stop-color="#f6f6f7"/>
      <stop offset="0.477" stop-color="#f9f9fa"/>
      <stop offset="0.715" stop-color="#fff"/>
    </radialGradient>
  </defs>
  <g id="Grupo_41833" data-name="Grupo 41833" transform="translate(-186.223 -9822.29)">
    <path id="Trazado_95203" data-name="Trazado 95203" d="M-13994.787-1839.839h-21.176v221.261h601.443V-1839.2h-15.262" transform="translate(14382.393 11698.721)" fill="none" stroke="#37a3a5" stroke-width="3"/>
    <g id="Grupo_41830" data-name="Grupo 41830" transform="translate(428.854 10054.974)">
      <g id="Rectángulo_28121" data-name="Rectángulo 28121" transform="translate(2.341 4.811)" stroke="#707070" stroke-width="1" fill="url(#linear-gradient)">
        <rect width="109" height="36" stroke="none"/>
        <rect x="0.5" y="0.5" width="108" height="35" fill="none"/>
      </g>
      <g id="Grupo_41828" data-name="Grupo 41828" transform="translate(0 0)">
        <path id="Trazado_69039" data-name="Trazado 69039" d="M1113.956,931.072c0-1.458,13.01-.64,13.047,0h2.9a8.561,8.561,0,0,1,8.971,8.966q.021,12.33,0,24.66c-.011,5.248-3.661,8.854-8.935,8.854q-48.837,0-97.674,0c-5.354,0-8.975-3.586-8.985-8.923q-.022-12.269,0-24.539c.008-5.386,3.663-9.018,9.041-9.018h81.635Zm-32.852,37.49c16.031,0,32.063-.043,48.095.037,3.034.016,4.765-1.4,4.706-4.76-.139-7.893-.04-15.789-.047-23.684,0-2.707-1.378-4.077-4.107-4.077q-48.7-.006-97.4,0c-2.654,0-4.049,1.383-4.053,4.007q-.013,12.266.012,24.531c0,.663,2.563,3.958,4.215,3.956Q1056.815,968.547,1081.1,968.562Zm39.04-37.472Z" transform="translate(-1023.271 -930.257)" fill="#00223d"/>
        <path id="Trazado_69046" data-name="Trazado 69046" d="M1068.487,1220.04a6.525,6.525,0,0,1,6.527-6.628,6.575,6.575,0,1,1-6.527,6.628Zm6.818-1.607a1.577,1.577,0,0,0-1.789,1.554,1.472,1.472,0,0,0,1.5,1.549,1.536,1.536,0,0,0,1.626-1.558A1.485,1.485,0,0,0,1075.3,1218.433Z" transform="translate(-1054.655 -1197.914)" fill="#00223d"/>
        <path id="Trazado_95199" data-name="Trazado 95199" d="M1068.487,1220.04a6.525,6.525,0,0,1,6.527-6.628,6.575,6.575,0,1,1-6.527,6.628Zm6.818-1.607a1.577,1.577,0,0,0-1.789,1.554,1.472,1.472,0,0,0,1.5,1.549,1.536,1.536,0,0,0,1.626-1.558A1.485,1.485,0,0,0,1075.3,1218.433Z" transform="translate(-1020.785 -1197.914)" fill="#00223d"/>
        <path id="Trazado_69047" data-name="Trazado 69047" d="M1145.21,1213.357c3.74-.314,6.457,3.552,6.574,6.494a6.463,6.463,0,0,1-6.488,6.654,6.574,6.574,0,1,1-.086-13.148Zm.179,8.128a1.491,1.491,0,0,0,1.4-1.559,1.569,1.569,0,0,0-3.137,0A1.6,1.6,0,0,0,1145.389,1221.486Z" transform="translate(-1107.838 -1197.858)" fill="#00223d"/>
        <path id="Trazado_95198" data-name="Trazado 95198" d="M1145.21,1213.357c3.74-.314,6.457,3.552,6.574,6.494a6.463,6.463,0,0,1-6.488,6.654,6.574,6.574,0,1,1-.086-13.148Zm.179,8.128a1.491,1.491,0,0,0,1.4-1.559,1.569,1.569,0,0,0-3.137,0A1.6,1.6,0,0,0,1145.389,1221.486Z" transform="translate(-1067.204 -1204.857)" fill="#00223d"/>
        <path id="Trazado_95201" data-name="Trazado 95201" d="M1145.21,1213.357c3.74-.314,6.457,3.552,6.574,6.494a6.463,6.463,0,0,1-6.488,6.654,6.574,6.574,0,1,1-.086-13.148Zm.179,8.128a1.491,1.491,0,0,0,1.4-1.559,1.569,1.569,0,0,0-3.137,0A1.6,1.6,0,0,0,1145.389,1221.486Z" transform="translate(-1067.204 -1190.3)" fill="#00223d"/>
        <path id="Trazado_95200" data-name="Trazado 95200" d="M1145.21,1213.357c3.74-.314,6.457,3.552,6.574,6.494a6.463,6.463,0,0,1-6.488,6.654,6.574,6.574,0,1,1-.086-13.148Zm.179,8.128a1.491,1.491,0,0,0,1.4-1.559,1.569,1.569,0,0,0-3.137,0A1.6,1.6,0,0,0,1145.389,1221.486Z" transform="translate(-1050.294 -1204.857)" fill="#00223d"/>
        <path id="Trazado_95202" data-name="Trazado 95202" d="M1145.21,1213.357c3.74-.314,6.457,3.552,6.574,6.494a6.463,6.463,0,0,1-6.488,6.654,6.574,6.574,0,1,1-.086-13.148Zm.179,8.128a1.491,1.491,0,0,0,1.4-1.559,1.569,1.569,0,0,0-3.137,0A1.6,1.6,0,0,0,1145.389,1221.486Z" transform="translate(-1050.294 -1190.3)" fill="#00223d"/>
      </g>
    </g>
    <g id="Grupo_41831" data-name="Grupo 41831" transform="translate(618.067 9949.982)">
      <g id="Rectángulo_28122" data-name="Rectángulo 28122" transform="translate(4.128 109.802)" stroke="#707070" stroke-width="1" fill="url(#linear-gradient)">
        <rect width="109" height="36" stroke="none"/>
        <rect x="0.5" y="0.5" width="108" height="35" fill="none"/>
      </g>
      <g id="Grupo_37719" data-name="Grupo 37719" transform="translate(0 0)">
        <path id="Trazado_69039-2" data-name="Trazado 69039" d="M1113.956,928.6c0-1.458-.025-2.7,0-3.945q.3-12.553.628-25.105c.061-2.211.3-4.417.347-6.627q.2-10.138.29-20.278a2.161,2.161,0,0,0-.677-1.3,8.3,8.3,0,1,1,12.908-10.261,8.227,8.227,0,0,1-1.153,10.131,2.466,2.466,0,0,0-.789,2.012c.182,6.242.33,12.485.491,18.728q.455,17.563.913,35.127c.012.438.049.875.086,1.515h2.9a8.561,8.561,0,0,1,8.971,8.966q.021,12.33,0,24.66c-.011,5.248-3.661,8.854-8.935,8.854q-48.837,0-97.674,0c-5.354,0-8.975-3.586-8.985-8.923q-.022-12.269,0-24.539c.008-5.386,3.663-9.018,9.041-9.018h81.635Zm-32.852,37.49c16.031,0,32.063-.043,48.095.037,3.034.016,4.765-1.4,4.706-4.76-.139-7.893-.04-15.789-.047-23.684,0-2.707-1.378-4.077-4.107-4.077q-48.7-.006-97.4,0c-2.654,0-4.049,1.383-4.053,4.007q-.013,12.266.012,24.531a4.778,4.778,0,0,0,.4,1.977c.751,1.586,2.165,1.981,3.817,1.979Q1056.815,966.076,1081.1,966.092Zm39.435-91.262-.245-.051c-.018.194-.047.387-.052.581q-.317,11.629-.627,23.258c-.251,9.534-.479,19.069-.76,28.6-.03,1.019.159,1.451,1.288,1.4,1.79-.083,1.8-.014,1.77-1.382-.141-5.635-.315-11.268-.428-16.9-.11-5.531-.14-11.064-.252-16.595-.042-2.005-.261-4.005-.329-6.01C1120.759,883.431,1120.658,879.13,1120.539,874.83Zm3.126-9.376a3.234,3.234,0,0,0-3.165-3.273,3.259,3.259,0,1,0-.161,6.514A3.236,3.236,0,0,0,1123.665,865.454Z" transform="translate(-1023.271 -822.796)" fill="#00223d"/>
        <path id="Trazado_69040" data-name="Trazado 69040" d="M1239.61,757.364a50.348,50.348,0,0,1,2.858-15.295,46.336,46.336,0,0,1,22.738-26.373,4.614,4.614,0,0,1,2.156-.609,2.2,2.2,0,0,1,2.117,1.849,2.36,2.36,0,0,1-1.188,2.778c-1.323.768-2.695,1.455-3.986,2.27a40.182,40.182,0,0,0-14.37,15.5,46.123,46.123,0,0,0-2.521,5.644,40.99,40.99,0,0,0,.166,29.092c.181.491.4.97.564,1.465a2.5,2.5,0,0,1-1.3,3.238,2.387,2.387,0,0,1-3.291-1.371,64.222,64.222,0,0,1-2.63-8.391C1240.246,763.943,1240.028,760.632,1239.61,757.364Z" transform="translate(-1187.302 -715.086)" fill="#37a3a5"/>
        <path id="Trazado_69041" data-name="Trazado 69041" d="M1301.714,775.98l.849.258c.182-2.3,1.508-3.895,2.994-5.393a32.129,32.129,0,0,1,9.085-6.51,2.465,2.465,0,0,1,3.68,2.08,2.723,2.723,0,0,1-1.834,2.585,26.825,26.825,0,0,0-8.366,6.448c-7.521,8.772-9.117,18.638-5.347,29.467.106.3.249.594.354.9a2.467,2.467,0,0,1-1.347,3.3,2.384,2.384,0,0,1-3.257-1.429,59.59,59.59,0,0,1-2.272-7.988,29.457,29.457,0,0,1,.8-14.1c.972-3.139,1.811-6.411,4.309-8.843A2.49,2.49,0,0,0,1301.714,775.98Z" transform="translate(-1229.868 -752.206)" fill="#37a3a5"/>
        <path id="Trazado_69042" data-name="Trazado 69042" d="M1351.137,831.755c.387-8.159,3.969-14.352,11.32-18.185,1.82-.949,3.584-.273,3.96,1.412a2.354,2.354,0,0,1-1.1,2.707c-.577.366-1.211.64-1.794,1a15.236,15.236,0,0,0-6.194,18.86c.691,1.723.459,2.928-.7,3.655a2.5,2.5,0,0,1-3.705-1.221A19.583,19.583,0,0,1,1351.137,831.755Z" transform="translate(-1271.863 -789.429)" fill="#37a3a5"/>
        <path id="Trazado_69044" data-name="Trazado 69044" d="M1420.269,930.134c.119,4.3.22,8.6.366,12.9.069,2,.288,4.005.329,6.01.113,5.531.142,11.063.252,16.594.113,5.635.287,11.269.427,16.9.034,1.369.019,1.3-1.77,1.382-1.13.052-1.318-.38-1.288-1.4.281-9.533.509-19.068.76-28.6q.305-11.629.626-23.259c.006-.194.034-.387.052-.581Z" transform="translate(-1323.001 -878.1)" fill="#fff"/>
        <path id="Trazado_69046-2" data-name="Trazado 69046" d="M1068.487,1220.04a6.525,6.525,0,0,1,6.527-6.628,6.575,6.575,0,1,1-6.527,6.628Zm6.818-1.607a1.577,1.577,0,0,0-1.789,1.554,1.472,1.472,0,0,0,1.5,1.549,1.536,1.536,0,0,0,1.626-1.558A1.485,1.485,0,0,0,1075.3,1218.433Z" transform="translate(-1057.554 -1092.923)" fill="#00223d"/>
        <path id="Trazado_69047-2" data-name="Trazado 69047" d="M1145.21,1213.357c3.74-.314,6.457,3.552,6.574,6.494a6.463,6.463,0,0,1-6.488,6.654,6.574,6.574,0,1,1-.086-13.148Zm.179,8.128a1.491,1.491,0,0,0,1.4-1.559,1.569,1.569,0,0,0-3.137,0A1.6,1.6,0,0,0,1145.389,1221.486Z" transform="translate(-1110.736 -1092.868)" fill="#00223d"/>
      </g>
    </g>
    <g id="Grupo_41832" data-name="Grupo 41832" transform="translate(807.279 10054.974)">
      <g id="Rectángulo_28123" data-name="Rectángulo 28123" transform="translate(2.916 4.811)" stroke="#707070" stroke-width="1" fill="url(#linear-gradient)">
        <rect width="109" height="36" stroke="none"/>
        <rect x="0.5" y="0.5" width="108" height="35" fill="none"/>
      </g>
      <g id="Grupo_41829" data-name="Grupo 41829" transform="translate(0 0)">
        <path id="Trazado_69039-3" data-name="Trazado 69039" d="M1113.956,931.072c0-1.458,13.01-.64,13.047,0h2.9a8.561,8.561,0,0,1,8.971,8.966q.021,12.33,0,24.66c-.011,5.248-3.661,8.854-8.935,8.854q-48.837,0-97.674,0c-5.354,0-8.975-3.586-8.985-8.923q-.022-12.269,0-24.539c.008-5.386,3.663-9.018,9.041-9.018h81.635Zm-32.852,37.49c16.031,0,32.063-.043,48.095.037,3.034.016,4.765-1.4,4.706-4.76-.139-7.893-.04-15.789-.047-23.684,0-2.707-1.378-4.077-4.107-4.077q-48.7-.006-97.4,0c-2.654,0-4.049,1.383-4.053,4.007q-.013,12.266.012,24.531c0,.663,2.563,3.958,4.215,3.956Q1056.815,968.547,1081.1,968.562Zm39.04-37.472Z" transform="translate(-1023.271 -930.257)" fill="#00223d"/>
        <path id="Trazado_69046-3" data-name="Trazado 69046" d="M1068.487,1220.04a6.525,6.525,0,0,1,6.527-6.628,6.575,6.575,0,1,1-6.527,6.628Zm6.818-1.607a1.577,1.577,0,0,0-1.789,1.554,1.472,1.472,0,0,0,1.5,1.549,1.536,1.536,0,0,0,1.626-1.558A1.485,1.485,0,0,0,1075.3,1218.433Z" transform="translate(-1054.655 -1197.914)" fill="#00223d"/>
        <path id="Trazado_95199-2" data-name="Trazado 95199" d="M1068.487,1220.04a6.525,6.525,0,0,1,6.527-6.628,6.575,6.575,0,1,1-6.527,6.628Zm6.818-1.607a1.577,1.577,0,0,0-1.789,1.554,1.472,1.472,0,0,0,1.5,1.549,1.536,1.536,0,0,0,1.626-1.558A1.485,1.485,0,0,0,1075.3,1218.433Z" transform="translate(-1020.785 -1197.914)" fill="#00223d"/>
        <path id="Trazado_69047-3" data-name="Trazado 69047" d="M1145.21,1213.357c3.74-.314,6.457,3.552,6.574,6.494a6.463,6.463,0,0,1-6.488,6.654,6.574,6.574,0,1,1-.086-13.148Zm.179,8.128a1.491,1.491,0,0,0,1.4-1.559,1.569,1.569,0,0,0-3.137,0A1.6,1.6,0,0,0,1145.389,1221.486Z" transform="translate(-1107.838 -1197.858)" fill="#00223d"/>
        <path id="Trazado_95198-2" data-name="Trazado 95198" d="M1145.21,1213.357c3.74-.314,6.457,3.552,6.574,6.494a6.463,6.463,0,0,1-6.488,6.654,6.574,6.574,0,1,1-.086-13.148Zm.179,8.128a1.491,1.491,0,0,0,1.4-1.559,1.569,1.569,0,0,0-3.137,0A1.6,1.6,0,0,0,1145.389,1221.486Z" transform="translate(-1067.204 -1204.857)" fill="#00223d"/>
        <path id="Trazado_95201-2" data-name="Trazado 95201" d="M1145.21,1213.357c3.74-.314,6.457,3.552,6.574,6.494a6.463,6.463,0,0,1-6.488,6.654,6.574,6.574,0,1,1-.086-13.148Zm.179,8.128a1.491,1.491,0,0,0,1.4-1.559,1.569,1.569,0,0,0-3.137,0A1.6,1.6,0,0,0,1145.389,1221.486Z" transform="translate(-1067.204 -1190.3)" fill="#00223d"/>
        <path id="Trazado_95200-2" data-name="Trazado 95200" d="M1145.21,1213.357c3.74-.314,6.457,3.552,6.574,6.494a6.463,6.463,0,0,1-6.488,6.654,6.574,6.574,0,1,1-.086-13.148Zm.179,8.128a1.491,1.491,0,0,0,1.4-1.559,1.569,1.569,0,0,0-3.137,0A1.6,1.6,0,0,0,1145.389,1221.486Z" transform="translate(-1050.294 -1204.857)" fill="#00223d"/>
        <path id="Trazado_95202-2" data-name="Trazado 95202" d="M1145.21,1213.357c3.74-.314,6.457,3.552,6.574,6.494a6.463,6.463,0,0,1-6.488,6.654,6.574,6.574,0,1,1-.086-13.148Zm.179,8.128a1.491,1.491,0,0,0,1.4-1.559,1.569,1.569,0,0,0-3.137,0A1.6,1.6,0,0,0,1145.389,1221.486Z" transform="translate(-1050.294 -1190.3)" fill="#00223d"/>
      </g>
    </g>
    <g id="Grupo_41827" data-name="Grupo 41827" transform="translate(186.223 9822.29)">
      <g id="Computer" transform="translate(0 0)">
        <g id="Grupo_39638" data-name="Grupo 39638" transform="translate(0)">
          <g id="Grupo_39637" data-name="Grupo 39637" transform="translate(41.134 70.019)">
            <path id="Trazado_92884" data-name="Trazado 92884" d="M229.775,325.746v13.735h-18.7V325.746h6.616v6.6a2.738,2.738,0,1,0,5.476,0v-6.6Z" transform="translate(-198.052 -325.746)" fill="#00223d"/>
            <path id="Trazado_92885" data-name="Trazado 92885" d="M211.071,325.746h6.617v2.784l-6.617-.761Z" transform="translate(-198.051 -325.746)" fill="#2c2c30"/>
            <path id="Trazado_92886" data-name="Trazado 92886" d="M244.6,325.746v4.169l-6.612-.761v-3.408Z" transform="translate(-212.88 -325.746)" fill="#2c2c30"/>
            <rect id="Rectángulo_27975" data-name="Rectángulo 27975" width="44.746" height="1.864" transform="translate(0 13.584)" fill="#00223d"/>
          </g>
          <path id="Trazado_92887" data-name="Trazado 92887" d="M217.523,174.927v61.42a5.072,5.072,0,0,1-5.07,5.07H95.583a5.072,5.072,0,0,1-5.07-5.07v-61.42a5.068,5.068,0,0,1,5.07-5.065H212.454A5.068,5.068,0,0,1,217.523,174.927Z" transform="translate(-90.511 -169.862)" fill="#00223d"/>
          <rect id="Rectángulo_27976" data-name="Rectángulo 27976" width="127.014" height="57.687" transform="translate(0 6.374)" fill="url(#linear-gradient)"/>
          <path id="Trazado_92888" data-name="Trazado 92888" d="M231.489,318.537a1.79,1.79,0,1,1-1.79-1.79A1.79,1.79,0,0,1,231.489,318.537Z" transform="translate(-166.192 -250.77)" fill="#42444f"/>
        </g>
      </g>
      <g id="Computer-2" data-name="Computer" transform="translate(191.027 0)">
        <g id="Grupo_39638-2" data-name="Grupo 39638" transform="translate(0)">
          <g id="Grupo_39637-2" data-name="Grupo 39637" transform="translate(41.134 70.019)">
            <path id="Trazado_92884-2" data-name="Trazado 92884" d="M229.775,325.746v13.735h-18.7V325.746h6.616v6.6a2.738,2.738,0,1,0,5.476,0v-6.6Z" transform="translate(-198.052 -325.746)" fill="#00223d"/>
            <path id="Trazado_92885-2" data-name="Trazado 92885" d="M211.071,325.746h6.617v2.784l-6.617-.761Z" transform="translate(-198.051 -325.746)" fill="#2c2c30"/>
            <path id="Trazado_92886-2" data-name="Trazado 92886" d="M244.6,325.746v4.169l-6.612-.761v-3.408Z" transform="translate(-212.88 -325.746)" fill="#2c2c30"/>
            <rect id="Rectángulo_27975-2" data-name="Rectángulo 27975" width="44.746" height="1.864" transform="translate(0 13.584)" fill="#00223d"/>
          </g>
          <path id="Trazado_92887-2" data-name="Trazado 92887" d="M217.523,174.927v61.42a5.072,5.072,0,0,1-5.07,5.07H95.583a5.072,5.072,0,0,1-5.07-5.07v-61.42a5.068,5.068,0,0,1,5.07-5.065H212.454A5.068,5.068,0,0,1,217.523,174.927Z" transform="translate(-90.511 -169.862)" fill="#00223d"/>
          <rect id="Rectángulo_27976-2" data-name="Rectángulo 27976" width="127.014" height="57.687" transform="translate(0 6.374)" fill="url(#linear-gradient)"/>
          <path id="Trazado_92888-2" data-name="Trazado 92888" d="M231.489,318.537a1.79,1.79,0,1,1-1.79-1.79A1.79,1.79,0,0,1,231.489,318.537Z" transform="translate(-166.192 -250.77)" fill="#42444f"/>
        </g>
      </g>
      <g id="Computer-3" data-name="Computer" transform="translate(642.931 0)">
        <g id="Grupo_39638-3" data-name="Grupo 39638" transform="translate(0)">
          <g id="Grupo_39637-3" data-name="Grupo 39637" transform="translate(41.134 70.019)">
            <path id="Trazado_92884-3" data-name="Trazado 92884" d="M229.775,325.746v13.735h-18.7V325.746h6.616v6.6a2.738,2.738,0,1,0,5.476,0v-6.6Z" transform="translate(-198.052 -325.746)" fill="#00223d"/>
            <path id="Trazado_92885-3" data-name="Trazado 92885" d="M211.071,325.746h6.617v2.784l-6.617-.761Z" transform="translate(-198.051 -325.746)" fill="#2c2c30"/>
            <path id="Trazado_92886-3" data-name="Trazado 92886" d="M244.6,325.746v4.169l-6.612-.761v-3.408Z" transform="translate(-212.88 -325.746)" fill="#2c2c30"/>
            <rect id="Rectángulo_27975-3" data-name="Rectángulo 27975" width="44.746" height="1.864" transform="translate(0 13.584)" fill="#00223d"/>
          </g>
          <path id="Trazado_92887-3" data-name="Trazado 92887" d="M217.523,174.927v61.42a5.072,5.072,0,0,1-5.07,5.07H95.583a5.072,5.072,0,0,1-5.07-5.07v-61.42a5.068,5.068,0,0,1,5.07-5.065H212.454A5.068,5.068,0,0,1,217.523,174.927Z" transform="translate(-90.511 -169.862)" fill="#00223d"/>
          <rect id="Rectángulo_27976-3" data-name="Rectángulo 27976" width="127.014" height="57.687" transform="translate(0 6.374)" fill="url(#linear-gradient)"/>
          <path id="Trazado_92888-3" data-name="Trazado 92888" d="M231.489,318.537a1.79,1.79,0,1,1-1.79-1.79A1.79,1.79,0,0,1,231.489,318.537Z" transform="translate(-166.192 -250.77)" fill="#42444f"/>
        </g>
      </g>
      <g id="Computer-4" data-name="Computer" transform="translate(833.958 0)">
        <g id="Grupo_39638-4" data-name="Grupo 39638" transform="translate(0)">
          <g id="Grupo_39637-4" data-name="Grupo 39637" transform="translate(41.134 70.019)">
            <path id="Trazado_92884-4" data-name="Trazado 92884" d="M229.775,325.746v13.735h-18.7V325.746h6.616v6.6a2.738,2.738,0,1,0,5.476,0v-6.6Z" transform="translate(-198.052 -325.746)" fill="#00223d"/>
            <path id="Trazado_92885-4" data-name="Trazado 92885" d="M211.071,325.746h6.617v2.784l-6.617-.761Z" transform="translate(-198.051 -325.746)" fill="#2c2c30"/>
            <path id="Trazado_92886-4" data-name="Trazado 92886" d="M244.6,325.746v4.169l-6.612-.761v-3.408Z" transform="translate(-212.88 -325.746)" fill="#2c2c30"/>
            <rect id="Rectángulo_27975-4" data-name="Rectángulo 27975" width="44.746" height="1.864" transform="translate(0 13.584)" fill="#00223d"/>
          </g>
          <path id="Trazado_92887-4" data-name="Trazado 92887" d="M217.523,174.927v61.42a5.072,5.072,0,0,1-5.07,5.07H95.583a5.072,5.072,0,0,1-5.07-5.07v-61.42a5.068,5.068,0,0,1,5.07-5.065H212.454A5.068,5.068,0,0,1,217.523,174.927Z" transform="translate(-90.511 -169.862)" fill="#00223d"/>
          <rect id="Rectángulo_27976-4" data-name="Rectángulo 27976" width="127.014" height="57.687" transform="translate(0 6.374)" fill="url(#linear-gradient)"/>
          <path id="Trazado_92888-4" data-name="Trazado 92888" d="M231.489,318.537a1.79,1.79,0,1,1-1.79-1.79A1.79,1.79,0,0,1,231.489,318.537Z" transform="translate(-166.192 -250.77)" fill="#42444f"/>
        </g>
      </g>
      <path id="Trazado_92955" data-name="Trazado 92955" d="M1230.579,955.815v-5.528H1219.71V938.321h10.8v-5.627l20.359,11.573Z" transform="translate(-1075.851 -893.99)" fill="#37a3a5"/>
      <path id="Trazado_92959" data-name="Trazado 92959" d="M1230.579,955.815v-5.528H1219.71V938.321h10.8v-5.627l20.359,11.573Z" transform="translate(-432.92 -893.99)" fill="#37a3a5"/>
      <path id="Trazado_92956" data-name="Trazado 92956" d="M1241.136,955.815v-5.528h11.476V938.321h-11.406v-5.627l-21.5,11.573Z" transform="translate(-1077.593 -917.111)" fill="#37a3a5"/>
      <path id="Trazado_92960" data-name="Trazado 92960" d="M1241.136,955.815v-5.528h11.476V938.321h-11.406v-5.627l-21.5,11.573Z" transform="translate(-434.663 -917.111)" fill="#37a3a5"/>
      <g id="Grupo_39722" data-name="Grupo 39722" transform="translate(38.692 9.973)">
        <g id="Grupo_29482" data-name="Grupo 29482" transform="translate(0 0)">
          <g id="Grupo_18423" data-name="Grupo 18423" transform="translate(0 0)">
            <g id="Grupo_18421" data-name="Grupo 18421">
              <g id="Grupo_18420" data-name="Grupo 18420">
                <g id="Grupo_18419" data-name="Grupo 18419">
                  <path id="Trazado_40936" data-name="Trazado 40936" d="M242.1,2169.46a23.739,23.739,0,1,1-23.738-23.738A23.739,23.739,0,0,1,242.1,2169.46Z" transform="translate(-194.623 -2145.721)" fill="#fff"/>
                </g>
              </g>
            </g>
            <path id="Trazado_40937" data-name="Trazado 40937" d="M242.348,2169.73a23.738,23.738,0,1,0-23.739,23.739A23.645,23.645,0,0,0,242.348,2169.73Z" transform="translate(-194.871 -2145.992)" fill="url(#radial-gradient)"/>
            <path id="Trazado_40938" data-name="Trazado 40938" d="M239.065,2172.071a18.12,18.12,0,1,0-18.12,18.12A18.052,18.052,0,0,0,239.065,2172.071Z" transform="translate(-197.134 -2148.253)" fill="none" stroke="#00223d" stroke-miterlimit="10" stroke-width="4"/>
            <g id="Grupo_18422" data-name="Grupo 18422" transform="translate(4.206 13.328)">
              <path id="Trazado_40939" data-name="Trazado 40939" d="M241.417,2164.488a23.742,23.742,0,0,1-40.872,23.641,23.666,23.666,0,0,0,40.872-23.641Z" transform="translate(-200.545 -2164.488)" fill="#eceef0"/>
            </g>
          </g>
        </g>
      </g>
      <g id="Grupo_39723" data-name="Grupo 39723" transform="translate(229.719 9.973)">
        <g id="Grupo_29482-2" data-name="Grupo 29482" transform="translate(0 0)">
          <g id="Grupo_18423-2" data-name="Grupo 18423" transform="translate(0 0)">
            <g id="Grupo_18421-2" data-name="Grupo 18421">
              <g id="Grupo_18420-2" data-name="Grupo 18420">
                <g id="Grupo_18419-2" data-name="Grupo 18419">
                  <path id="Trazado_40936-2" data-name="Trazado 40936" d="M242.1,2169.46a23.739,23.739,0,1,1-23.738-23.738A23.739,23.739,0,0,1,242.1,2169.46Z" transform="translate(-194.623 -2145.721)" fill="#fff"/>
                </g>
              </g>
            </g>
            <path id="Trazado_40937-2" data-name="Trazado 40937" d="M242.348,2169.73a23.738,23.738,0,1,0-23.739,23.739A23.645,23.645,0,0,0,242.348,2169.73Z" transform="translate(-194.871 -2145.992)" fill="url(#radial-gradient)"/>
            <path id="Trazado_40938-2" data-name="Trazado 40938" d="M239.065,2172.071a18.12,18.12,0,1,0-18.12,18.12A18.052,18.052,0,0,0,239.065,2172.071Z" transform="translate(-197.134 -2148.253)" fill="none" stroke="#00223d" stroke-miterlimit="10" stroke-width="4"/>
            <g id="Grupo_18422-2" data-name="Grupo 18422" transform="translate(4.206 13.328)">
              <path id="Trazado_40939-2" data-name="Trazado 40939" d="M241.417,2164.488a23.742,23.742,0,0,1-40.872,23.641,23.666,23.666,0,0,0,40.872-23.641Z" transform="translate(-200.545 -2164.488)" fill="#eceef0"/>
            </g>
          </g>
        </g>
      </g>
      <g id="Grupo_39724" data-name="Grupo 39724" transform="translate(681.623 9.973)">
        <g id="Grupo_29482-3" data-name="Grupo 29482" transform="translate(0 0)">
          <g id="Grupo_18423-3" data-name="Grupo 18423" transform="translate(0 0)">
            <g id="Grupo_18421-3" data-name="Grupo 18421">
              <g id="Grupo_18420-3" data-name="Grupo 18420">
                <g id="Grupo_18419-3" data-name="Grupo 18419">
                  <path id="Trazado_40936-3" data-name="Trazado 40936" d="M242.1,2169.46a23.739,23.739,0,1,1-23.738-23.738A23.739,23.739,0,0,1,242.1,2169.46Z" transform="translate(-194.623 -2145.721)" fill="#fff"/>
                </g>
              </g>
            </g>
            <path id="Trazado_40937-3" data-name="Trazado 40937" d="M242.348,2169.73a23.738,23.738,0,1,0-23.739,23.739A23.645,23.645,0,0,0,242.348,2169.73Z" transform="translate(-194.871 -2145.992)" fill="url(#radial-gradient)"/>
            <path id="Trazado_40938-3" data-name="Trazado 40938" d="M239.065,2172.071a18.12,18.12,0,1,0-18.12,18.12A18.052,18.052,0,0,0,239.065,2172.071Z" transform="translate(-197.134 -2148.253)" fill="none" stroke="#00223d" stroke-miterlimit="10" stroke-width="4"/>
            <g id="Grupo_18422-3" data-name="Grupo 18422" transform="translate(4.206 13.328)">
              <path id="Trazado_40939-3" data-name="Trazado 40939" d="M241.417,2164.488a23.742,23.742,0,0,1-40.872,23.641,23.666,23.666,0,0,0,40.872-23.641Z" transform="translate(-200.545 -2164.488)" fill="#eceef0"/>
            </g>
          </g>
        </g>
      </g>
      <g id="Grupo_39725" data-name="Grupo 39725" transform="translate(872.65 9.973)">
        <g id="Grupo_29482-4" data-name="Grupo 29482" transform="translate(0 0)">
          <g id="Grupo_18423-4" data-name="Grupo 18423" transform="translate(0 0)">
            <g id="Grupo_18421-4" data-name="Grupo 18421">
              <g id="Grupo_18420-4" data-name="Grupo 18420">
                <g id="Grupo_18419-4" data-name="Grupo 18419">
                  <path id="Trazado_40936-4" data-name="Trazado 40936" d="M242.1,2169.46a23.739,23.739,0,1,1-23.738-23.738A23.739,23.739,0,0,1,242.1,2169.46Z" transform="translate(-194.623 -2145.721)" fill="#fff"/>
                </g>
              </g>
            </g>
            <path id="Trazado_40937-4" data-name="Trazado 40937" d="M242.348,2169.73a23.738,23.738,0,1,0-23.739,23.739A23.645,23.645,0,0,0,242.348,2169.73Z" transform="translate(-194.871 -2145.992)" fill="url(#radial-gradient)"/>
            <path id="Trazado_40938-4" data-name="Trazado 40938" d="M239.065,2172.071a18.12,18.12,0,1,0-18.12,18.12A18.052,18.052,0,0,0,239.065,2172.071Z" transform="translate(-197.134 -2148.253)" fill="none" stroke="#00223d" stroke-miterlimit="10" stroke-width="4"/>
            <g id="Grupo_18422-4" data-name="Grupo 18422" transform="translate(4.206 13.328)">
              <path id="Trazado_40939-4" data-name="Trazado 40939" d="M241.417,2164.488a23.742,23.742,0,0,1-40.872,23.641,23.666,23.666,0,0,0,40.872-23.641Z" transform="translate(-200.545 -2164.488)" fill="#eceef0"/>
            </g>
          </g>
        </g>
      </g>
      <text id="A" transform="translate(56.179 39.955)" fill="#37a3a5" font-size="20" font-family="Roboto-Black, Roboto" font-weight="800"><tspan x="0" y="0">A</tspan></text>
      <text id="B" transform="translate(247.206 39.955)" fill="#37a3a5" font-size="21" font-family="Roboto-Black, Roboto" font-weight="800"><tspan x="0" y="0">B</tspan></text>
      <text id="C" transform="translate(699.109 39.955)" fill="#37a3a5" font-size="21" font-family="Roboto-Black, Roboto" font-weight="800"><tspan x="0" y="0">C</tspan></text>
      <text id="D" transform="translate(890.137 39.955)" fill="#37a3a5" font-size="20" font-family="Roboto-Black, Roboto" font-weight="800"><tspan x="0" y="0">D</tspan></text>
    </g>
    <path id="Trazado_95204" data-name="Trazado 95204" d="M0,6.446H12.922L6.461,0Z" transform="translate(378.847 9852.421) rotate(90)" fill="#37a3a5"/>
    <path id="Trazado_95206" data-name="Trazado 95206" d="M0,6.446H12.922L6.461,0Z" transform="translate(429.821 10073.683) rotate(90)" fill="#37a3a5"/>
    <path id="Trazado_95207" data-name="Trazado 95207" d="M0,6.446H12.922L6.461,0Z" transform="translate(619.033 10073.683) rotate(90)" fill="#37a3a5"/>
    <path id="Trazado_95208" data-name="Trazado 95208" d="M0,6.446H12.922L6.461,0Z" transform="translate(808.246 10073.683) rotate(90)" fill="#37a3a5"/>
    <path id="Trazado_95205" data-name="Trazado 95205" d="M0,0H12.923L6.462,6.446Z" transform="translate(960.906 9852.42) rotate(90)" fill="#37a3a5"/>
    <text id="Switch" transform="translate(464.923 10116.154)" fill="#37a3a5" font-size="14" font-family="Roboto-Black, Roboto" font-weight="800"><tspan x="0" y="0">Switch</tspan></text>
    <text id="Datos" transform="translate(325.849 9898.094)" fill="#37a3a5" font-size="14" font-family="Roboto-Black, Roboto" font-weight="800"><tspan x="0" y="0">Datos</tspan></text>
    <text id="Datos-2" data-name="Datos" transform="translate(970.772 9898.094)" fill="#37a3a5" font-size="14" font-family="Roboto-Black, Roboto" font-weight="800"><tspan x="0" y="0">Datos</tspan></text>
    <text id="Switch-2" data-name="Switch" transform="translate(843.348 10116.154)" fill="#37a3a5" font-size="14" font-family="Roboto-Black, Roboto" font-weight="800"><tspan x="0" y="0">Switch</tspan></text>
    <text id="Router" transform="translate(654.135 10116.154)" fill="#37a3a5" font-size="14" font-family="Roboto-Black, Roboto" font-weight="800"><tspan x="0" y="0">Router</tspan></text>
  </g>
</svg>
