<svg xmlns="http://www.w3.org/2000/svg" xmlns:xlink="http://www.w3.org/1999/xlink" width="938.302" height="114.547" viewBox="0 0 938.302 114.547">
  <defs>
    <linearGradient id="linear-gradient" x1="0.5" x2="0.5" y2="1" gradientUnits="objectBoundingBox">
      <stop offset="0" stop-color="#fff"/>
      <stop offset="1" stop-color="#d2e6ee"/>
    </linearGradient>
    <radialGradient id="radial-gradient" cx="0.076" cy="0.019" r="1.465" gradientTransform="translate(0.001)" gradientUnits="objectBoundingBox">
      <stop offset="0" stop-color="#f6f6f7"/>
      <stop offset="0.477" stop-color="#f9f9fa"/>
      <stop offset="0.715" stop-color="#fff"/>
    </radialGradient>
  </defs>
  <g id="Grupo_39726" data-name="Grupo 39726" transform="translate(-186.223 -8452.99)">
    <g id="Computer" transform="translate(186.223 8452.989)">
      <g id="Grupo_39638" data-name="Grupo 39638" transform="translate(0)">
        <g id="Grupo_39637" data-name="Grupo 39637" transform="translate(55.13 93.843)">
          <path id="Trazado_92884" data-name="Trazado 92884" d="M236.139,325.746v18.409H211.071V325.746h8.868v8.848a3.67,3.67,0,1,0,7.339,0v-8.848Z" transform="translate(-193.622 -325.746)" fill="#00223d"/>
          <path id="Trazado_92885" data-name="Trazado 92885" d="M211.071,325.746h8.868v3.731l-8.868-1.019Z" transform="translate(-193.622 -325.746)" fill="#2c2c30"/>
          <path id="Trazado_92886" data-name="Trazado 92886" d="M246.853,325.746v5.587l-8.861-1.02v-4.568Z" transform="translate(-204.336 -325.746)" fill="#2c2c30"/>
          <rect id="Rectángulo_27975" data-name="Rectángulo 27975" width="59.97" height="2.498" transform="translate(0 18.205)" fill="#00223d"/>
        </g>
        <path id="Trazado_92887" data-name="Trazado 92887" d="M260.739,176.651v82.318a6.8,6.8,0,0,1-6.795,6.795H97.308a6.8,6.8,0,0,1-6.795-6.795V176.651a6.792,6.792,0,0,1,6.795-6.789H253.944A6.792,6.792,0,0,1,260.739,176.651Z" transform="translate(-90.511 -169.862)" fill="#00223d"/>
        <rect id="Rectángulo_27976" data-name="Rectángulo 27976" width="170.23" height="77.316" transform="translate(0 8.542)" fill="url(#linear-gradient)"/>
        <path id="Trazado_92888" data-name="Trazado 92888" d="M232.708,319.146a2.4,2.4,0,1,1-2.4-2.4A2.4,2.4,0,0,1,232.708,319.146Z" transform="translate(-145.193 -228.321)" fill="#42444f"/>
      </g>
    </g>
    <g id="Computer-2" data-name="Computer" transform="translate(442.247 8452.989)">
      <g id="Grupo_39638-2" data-name="Grupo 39638" transform="translate(0)">
        <g id="Grupo_39637-2" data-name="Grupo 39637" transform="translate(55.13 93.843)">
          <path id="Trazado_92884-2" data-name="Trazado 92884" d="M236.139,325.746v18.409H211.071V325.746h8.868v8.848a3.67,3.67,0,1,0,7.339,0v-8.848Z" transform="translate(-193.622 -325.746)" fill="#00223d"/>
          <path id="Trazado_92885-2" data-name="Trazado 92885" d="M211.071,325.746h8.868v3.731l-8.868-1.019Z" transform="translate(-193.622 -325.746)" fill="#2c2c30"/>
          <path id="Trazado_92886-2" data-name="Trazado 92886" d="M246.853,325.746v5.587l-8.861-1.02v-4.568Z" transform="translate(-204.336 -325.746)" fill="#2c2c30"/>
          <rect id="Rectángulo_27975-2" data-name="Rectángulo 27975" width="59.97" height="2.498" transform="translate(0 18.205)" fill="#00223d"/>
        </g>
        <path id="Trazado_92887-2" data-name="Trazado 92887" d="M260.739,176.651v82.318a6.8,6.8,0,0,1-6.795,6.795H97.308a6.8,6.8,0,0,1-6.795-6.795V176.651a6.792,6.792,0,0,1,6.795-6.789H253.944A6.792,6.792,0,0,1,260.739,176.651Z" transform="translate(-90.511 -169.862)" fill="#00223d"/>
        <rect id="Rectángulo_27976-2" data-name="Rectángulo 27976" width="170.23" height="77.316" transform="translate(0 8.542)" fill="url(#linear-gradient)"/>
        <path id="Trazado_92888-2" data-name="Trazado 92888" d="M232.708,319.146a2.4,2.4,0,1,1-2.4-2.4A2.4,2.4,0,0,1,232.708,319.146Z" transform="translate(-145.193 -228.321)" fill="#42444f"/>
      </g>
    </g>
    <g id="Computer-3" data-name="Computer" transform="translate(698.272 8452.989)">
      <g id="Grupo_39638-3" data-name="Grupo 39638" transform="translate(0)">
        <g id="Grupo_39637-3" data-name="Grupo 39637" transform="translate(55.13 93.843)">
          <path id="Trazado_92884-3" data-name="Trazado 92884" d="M236.139,325.746v18.409H211.071V325.746h8.868v8.848a3.67,3.67,0,1,0,7.339,0v-8.848Z" transform="translate(-193.622 -325.746)" fill="#00223d"/>
          <path id="Trazado_92885-3" data-name="Trazado 92885" d="M211.071,325.746h8.868v3.731l-8.868-1.019Z" transform="translate(-193.622 -325.746)" fill="#2c2c30"/>
          <path id="Trazado_92886-3" data-name="Trazado 92886" d="M246.853,325.746v5.587l-8.861-1.02v-4.568Z" transform="translate(-204.336 -325.746)" fill="#2c2c30"/>
          <rect id="Rectángulo_27975-3" data-name="Rectángulo 27975" width="59.97" height="2.498" transform="translate(0 18.205)" fill="#00223d"/>
        </g>
        <path id="Trazado_92887-3" data-name="Trazado 92887" d="M260.739,176.651v82.318a6.8,6.8,0,0,1-6.795,6.795H97.308a6.8,6.8,0,0,1-6.795-6.795V176.651a6.792,6.792,0,0,1,6.795-6.789H253.944A6.792,6.792,0,0,1,260.739,176.651Z" transform="translate(-90.511 -169.862)" fill="#00223d"/>
        <rect id="Rectángulo_27976-3" data-name="Rectángulo 27976" width="170.23" height="77.316" transform="translate(0 8.542)" fill="url(#linear-gradient)"/>
        <path id="Trazado_92888-3" data-name="Trazado 92888" d="M232.708,319.146a2.4,2.4,0,1,1-2.4-2.4A2.4,2.4,0,0,1,232.708,319.146Z" transform="translate(-145.193 -228.321)" fill="#42444f"/>
      </g>
    </g>
    <g id="Computer-4" data-name="Computer" transform="translate(954.296 8452.989)">
      <g id="Grupo_39638-4" data-name="Grupo 39638" transform="translate(0)">
        <g id="Grupo_39637-4" data-name="Grupo 39637" transform="translate(55.13 93.843)">
          <path id="Trazado_92884-4" data-name="Trazado 92884" d="M236.139,325.746v18.409H211.071V325.746h8.868v8.848a3.67,3.67,0,1,0,7.339,0v-8.848Z" transform="translate(-193.622 -325.746)" fill="#00223d"/>
          <path id="Trazado_92885-4" data-name="Trazado 92885" d="M211.071,325.746h8.868v3.731l-8.868-1.019Z" transform="translate(-193.622 -325.746)" fill="#2c2c30"/>
          <path id="Trazado_92886-4" data-name="Trazado 92886" d="M246.853,325.746v5.587l-8.861-1.02v-4.568Z" transform="translate(-204.336 -325.746)" fill="#2c2c30"/>
          <rect id="Rectángulo_27975-4" data-name="Rectángulo 27975" width="59.97" height="2.498" transform="translate(0 18.205)" fill="#00223d"/>
        </g>
        <path id="Trazado_92887-4" data-name="Trazado 92887" d="M260.739,176.651v82.318a6.8,6.8,0,0,1-6.795,6.795H97.308a6.8,6.8,0,0,1-6.795-6.795V176.651a6.792,6.792,0,0,1,6.795-6.789H253.944A6.792,6.792,0,0,1,260.739,176.651Z" transform="translate(-90.511 -169.862)" fill="#00223d"/>
        <rect id="Rectángulo_27976-4" data-name="Rectángulo 27976" width="170.23" height="77.316" transform="translate(0 8.542)" fill="url(#linear-gradient)"/>
        <path id="Trazado_92888-4" data-name="Trazado 92888" d="M232.708,319.146a2.4,2.4,0,1,1-2.4-2.4A2.4,2.4,0,0,1,232.708,319.146Z" transform="translate(-145.193 -228.321)" fill="#42444f"/>
      </g>
    </g>
    <path id="Trazado_92955" data-name="Trazado 92955" d="M1234.277,963.682v-7.409H1219.71V940.235h14.477v-7.541l27.286,15.511Z" transform="translate(-840.68 7572.168)" fill="#37a3a5"/>
    <path id="Trazado_92957" data-name="Trazado 92957" d="M1234.277,963.682v-7.409H1219.71V940.235h14.477v-7.541l27.286,15.511Z" transform="translate(-584.656 7572.168)" fill="#37a3a5"/>
    <path id="Trazado_92959" data-name="Trazado 92959" d="M1234.277,963.682v-7.409H1219.71V940.235h14.477v-7.541l27.286,15.511Z" transform="translate(-328.632 7572.168)" fill="#37a3a5"/>
    <path id="Trazado_92956" data-name="Trazado 92956" d="M1248.426,963.682v-7.409h15.381V940.235h-15.286v-7.541l-28.811,15.511Z" transform="translate(-843.015 7541.18)" fill="#37a3a5"/>
    <path id="Trazado_92958" data-name="Trazado 92958" d="M1248.426,963.682v-7.409h15.381V940.235h-15.286v-7.541l-28.811,15.511Z" transform="translate(-586.991 7541.18)" fill="#37a3a5"/>
    <path id="Trazado_92960" data-name="Trazado 92960" d="M1248.426,963.682v-7.409h15.381V940.235h-15.286v-7.541l-28.811,15.511Z" transform="translate(-330.967 7541.18)" fill="#37a3a5"/>
    <g id="Grupo_39722" data-name="Grupo 39722" transform="translate(238.08 8466.356)">
      <g id="Grupo_29482" data-name="Grupo 29482" transform="translate(0 0)">
        <g id="Grupo_18423" data-name="Grupo 18423" transform="translate(0 0)">
          <g id="Grupo_18421" data-name="Grupo 18421">
            <g id="Grupo_18420" data-name="Grupo 18420">
              <g id="Grupo_18419" data-name="Grupo 18419">
                <path id="Trazado_40936" data-name="Trazado 40936" d="M258.255,2177.537a31.816,31.816,0,1,1-31.815-31.815A31.815,31.815,0,0,1,258.255,2177.537Z" transform="translate(-194.623 -2145.721)" fill="#fff"/>
              </g>
            </g>
          </g>
          <path id="Trazado_40937" data-name="Trazado 40937" d="M258.3,2177.583a31.815,31.815,0,1,0-31.816,31.816A31.689,31.689,0,0,0,258.3,2177.583Z" transform="translate(-194.664 -2145.767)" fill="url(#radial-gradient)"/>
          <path id="Trazado_40938" data-name="Trazado 40938" d="M251.238,2178.064a24.285,24.285,0,1,0-24.285,24.285A24.193,24.193,0,0,0,251.238,2178.064Z" transform="translate(-195.041 -2146.143)" fill="none" stroke="#42444f" stroke-miterlimit="10" stroke-width="4"/>
          <g id="Grupo_18422" data-name="Grupo 18422" transform="translate(5.636 17.862)">
            <path id="Trazado_40939" data-name="Trazado 40939" d="M255.323,2164.488a31.82,31.82,0,0,1-54.778,31.684,31.719,31.719,0,0,0,54.778-31.684Z" transform="translate(-200.545 -2164.488)" fill="#eceef0"/>
          </g>
        </g>
      </g>
    </g>
    <g id="Grupo_39723" data-name="Grupo 39723" transform="translate(494.104 8466.356)">
      <g id="Grupo_29482-2" data-name="Grupo 29482" transform="translate(0 0)">
        <g id="Grupo_18423-2" data-name="Grupo 18423" transform="translate(0 0)">
          <g id="Grupo_18421-2" data-name="Grupo 18421">
            <g id="Grupo_18420-2" data-name="Grupo 18420">
              <g id="Grupo_18419-2" data-name="Grupo 18419">
                <path id="Trazado_40936-2" data-name="Trazado 40936" d="M258.255,2177.537a31.816,31.816,0,1,1-31.815-31.815A31.815,31.815,0,0,1,258.255,2177.537Z" transform="translate(-194.623 -2145.721)" fill="#fff"/>
              </g>
            </g>
          </g>
          <path id="Trazado_40937-2" data-name="Trazado 40937" d="M258.3,2177.583a31.815,31.815,0,1,0-31.816,31.816A31.689,31.689,0,0,0,258.3,2177.583Z" transform="translate(-194.664 -2145.767)" fill="url(#radial-gradient)"/>
          <path id="Trazado_40938-2" data-name="Trazado 40938" d="M251.238,2178.064a24.285,24.285,0,1,0-24.285,24.285A24.193,24.193,0,0,0,251.238,2178.064Z" transform="translate(-195.041 -2146.143)" fill="none" stroke="#42444f" stroke-miterlimit="10" stroke-width="4"/>
          <g id="Grupo_18422-2" data-name="Grupo 18422" transform="translate(5.636 17.862)">
            <path id="Trazado_40939-2" data-name="Trazado 40939" d="M255.323,2164.488a31.82,31.82,0,0,1-54.778,31.684,31.719,31.719,0,0,0,54.778-31.684Z" transform="translate(-200.545 -2164.488)" fill="#eceef0"/>
          </g>
        </g>
      </g>
    </g>
    <g id="Grupo_39724" data-name="Grupo 39724" transform="translate(750.128 8466.356)">
      <g id="Grupo_29482-3" data-name="Grupo 29482" transform="translate(0 0)">
        <g id="Grupo_18423-3" data-name="Grupo 18423" transform="translate(0 0)">
          <g id="Grupo_18421-3" data-name="Grupo 18421">
            <g id="Grupo_18420-3" data-name="Grupo 18420">
              <g id="Grupo_18419-3" data-name="Grupo 18419">
                <path id="Trazado_40936-3" data-name="Trazado 40936" d="M258.255,2177.537a31.816,31.816,0,1,1-31.815-31.815A31.815,31.815,0,0,1,258.255,2177.537Z" transform="translate(-194.623 -2145.721)" fill="#fff"/>
              </g>
            </g>
          </g>
          <path id="Trazado_40937-3" data-name="Trazado 40937" d="M258.3,2177.583a31.815,31.815,0,1,0-31.816,31.816A31.689,31.689,0,0,0,258.3,2177.583Z" transform="translate(-194.664 -2145.767)" fill="url(#radial-gradient)"/>
          <path id="Trazado_40938-3" data-name="Trazado 40938" d="M251.238,2178.064a24.285,24.285,0,1,0-24.285,24.285A24.193,24.193,0,0,0,251.238,2178.064Z" transform="translate(-195.041 -2146.143)" fill="none" stroke="#42444f" stroke-miterlimit="10" stroke-width="4"/>
          <g id="Grupo_18422-3" data-name="Grupo 18422" transform="translate(5.636 17.862)">
            <path id="Trazado_40939-3" data-name="Trazado 40939" d="M255.323,2164.488a31.82,31.82,0,0,1-54.778,31.684,31.719,31.719,0,0,0,54.778-31.684Z" transform="translate(-200.545 -2164.488)" fill="#eceef0"/>
          </g>
        </g>
      </g>
    </g>
    <g id="Grupo_39725" data-name="Grupo 39725" transform="translate(1006.152 8466.356)">
      <g id="Grupo_29482-4" data-name="Grupo 29482" transform="translate(0 0)">
        <g id="Grupo_18423-4" data-name="Grupo 18423" transform="translate(0 0)">
          <g id="Grupo_18421-4" data-name="Grupo 18421">
            <g id="Grupo_18420-4" data-name="Grupo 18420">
              <g id="Grupo_18419-4" data-name="Grupo 18419">
                <path id="Trazado_40936-4" data-name="Trazado 40936" d="M258.255,2177.537a31.816,31.816,0,1,1-31.815-31.815A31.815,31.815,0,0,1,258.255,2177.537Z" transform="translate(-194.623 -2145.721)" fill="#fff"/>
              </g>
            </g>
          </g>
          <path id="Trazado_40937-4" data-name="Trazado 40937" d="M258.3,2177.583a31.815,31.815,0,1,0-31.816,31.816A31.689,31.689,0,0,0,258.3,2177.583Z" transform="translate(-194.664 -2145.767)" fill="url(#radial-gradient)"/>
          <path id="Trazado_40938-4" data-name="Trazado 40938" d="M251.238,2178.064a24.285,24.285,0,1,0-24.285,24.285A24.193,24.193,0,0,0,251.238,2178.064Z" transform="translate(-195.041 -2146.143)" fill="none" stroke="#42444f" stroke-miterlimit="10" stroke-width="4"/>
          <g id="Grupo_18422-4" data-name="Grupo 18422" transform="translate(5.636 17.862)">
            <path id="Trazado_40939-4" data-name="Trazado 40939" d="M255.323,2164.488a31.82,31.82,0,0,1-54.778,31.684,31.719,31.719,0,0,0,54.778-31.684Z" transform="translate(-200.545 -2164.488)" fill="#eceef0"/>
          </g>
        </g>
      </g>
    </g>
    <text id="A" transform="translate(261.517 8509.073)" fill="#37a3a5" font-size="30" font-family="Roboto-Black, Roboto" font-weight="800"><tspan x="0" y="0">A</tspan></text>
    <text id="B" transform="translate(517.541 8509.073)" fill="#37a3a5" font-size="30" font-family="Roboto-Black, Roboto" font-weight="800"><tspan x="0" y="0">B</tspan></text>
    <text id="C" transform="translate(773.565 8509.073)" fill="#37a3a5" font-size="30" font-family="Roboto-Black, Roboto" font-weight="800"><tspan x="0" y="0">C</tspan></text>
    <text id="D" transform="translate(1029.589 8508.073)" fill="#37a3a5" font-size="29" font-family="Roboto-Black, Roboto" font-weight="800"><tspan x="0" y="0">D</tspan></text>
    <text id="Datos" transform="translate(383.698 8559.027)" fill="#37a3a5" font-size="14" font-family="Roboto-Black, Roboto" font-weight="800"><tspan x="0" y="0">Datos</tspan></text>
    <text id="Datos-2" data-name="Datos" transform="translate(636.498 8559.027)" fill="#37a3a5" font-size="14" font-family="Roboto-Black, Roboto" font-weight="800"><tspan x="0" y="0">Datos</tspan></text>
    <text id="Datos-3" data-name="Datos" transform="translate(894.004 8559.027)" fill="#37a3a5" font-size="14" font-family="Roboto-Black, Roboto" font-weight="800"><tspan x="0" y="0">Datos</tspan></text>
  </g>
</svg>
