<svg xmlns="http://www.w3.org/2000/svg" xmlns:xlink="http://www.w3.org/1999/xlink" width="405.799" height="305.182" viewBox="0 0 405.799 305.182">
  <defs>
    <linearGradient id="linear-gradient" x1="0.5" x2="0.5" y2="1" gradientUnits="objectBoundingBox">
      <stop offset="0" stop-color="#fff"/>
      <stop offset="1" stop-color="#d2e6ee"/>
    </linearGradient>
    <clipPath id="clip-path">
      <rect id="Rectángulo_28054" data-name="Rectángulo 28054" width="176.261" height="118.6" fill="none"/>
    </clipPath>
  </defs>
  <g id="Grupo_39718" data-name="Grupo 39718" transform="translate(-30.285 -64.115)">
    <g id="Grupo_39717" data-name="Grupo 39717" transform="translate(30.285 64.115)">
      <g id="Computer" transform="translate(55.616 97.654)">
        <g id="Grupo_39638" data-name="Grupo 39638">
          <g id="Grupo_39637" data-name="Grupo 39637" transform="translate(84.568 143.953)">
            <path id="Trazado_92884" data-name="Trazado 92884" d="M249.525,325.746v28.239H211.071V325.746h13.6v13.573a5.629,5.629,0,1,0,11.258,0V325.746Z" transform="translate(-184.304 -325.746)" fill="#00223d"/>
            <path id="Trazado_92885" data-name="Trazado 92885" d="M211.071,325.746h13.6v5.724l-13.6-1.564Z" transform="translate(-184.304 -325.746)" fill="#2c2c30"/>
            <path id="Trazado_92886" data-name="Trazado 92886" d="M251.585,325.746v8.571l-13.593-1.564v-7.007Z" transform="translate(-186.365 -325.746)" fill="#2c2c30"/>
            <rect id="Rectángulo_27975" data-name="Rectángulo 27975" width="91.993" height="3.832" transform="translate(0 27.927)" fill="#00223d"/>
          </g>
          <path id="Trazado_92887" data-name="Trazado 92887" d="M351.635,180.276V306.55a10.427,10.427,0,0,1-10.423,10.423H100.936A10.427,10.427,0,0,1,90.513,306.55V180.276a10.418,10.418,0,0,1,10.423-10.414H341.212A10.418,10.418,0,0,1,351.635,180.276Z" transform="translate(-90.51 -169.862)" fill="#00223d"/>
          <rect id="Rectángulo_27976" data-name="Rectángulo 27976" width="261.129" height="118.6" transform="translate(0 13.103)" fill="url(#linear-gradient)"/>
          <path id="Trazado_92888" data-name="Trazado 92888" d="M235.27,320.427a3.68,3.68,0,1,1-3.68-3.68A3.681,3.681,0,0,1,235.27,320.427Z" transform="translate(-101.025 -181.104)" fill="#42444f"/>
        </g>
      </g>
      <path id="Trazado_92889" data-name="Trazado 92889" d="M142.728,169.862v37.881a8.868,8.868,0,0,1-4.413,7.656l-39.13,22.59a8.817,8.817,0,0,1-8.671.087v-57.8a10.418,10.418,0,0,1,10.423-10.414Z" transform="translate(-34.894 -72.208)" fill="#35363b" opacity="0.55" style="mix-blend-mode: multiply;isolation: isolate"/>
      <path id="Trazado_92890" data-name="Trazado 92890" d="M460.621,375.091H385.594a2.474,2.474,0,0,1-2.467-2.467h0a2.474,2.474,0,0,1,2.467-2.467h75.028a2.474,2.474,0,0,1,2.467,2.467h0A2.474,2.474,0,0,1,460.621,375.091Z" transform="translate(-57.289 -87.538)" fill="#e6eaf0"/>
      <g id="Grupo_39649" data-name="Grupo 39649" transform="translate(330.283 180.423)">
        <g id="Grupo_39647" data-name="Grupo 39647">
          <g id="Grupo_39640" data-name="Grupo 39640" transform="translate(37.254 15.412)">
            <rect id="Rectángulo_27977" data-name="Rectángulo 27977" width="12.159" height="88.187" transform="matrix(0.992, -0.13, 0.13, 0.992, 0, 1.582)" fill="#42444f"/>
            <path id="Trazado_92891" data-name="Trazado 92891" d="M437.474,282.767a2.042,2.042,0,1,1-2.29-1.758A2.042,2.042,0,0,1,437.474,282.767Z" transform="translate(-428.675 -276.549)" fill="#e6eaf0"/>
            <circle id="Elipse_3770" data-name="Elipse 3770" cx="2.042" cy="2.042" r="2.042" transform="translate(5.037 11.709) rotate(-18.79)" fill="#e6eaf0"/>
            <g id="Grupo_39639" data-name="Grupo 39639" transform="translate(10.704 68.074)">
              <rect id="Rectángulo_27978" data-name="Rectángulo 27978" width="8.523" height="1.462" transform="matrix(0.992, -0.13, 0.13, 0.992, 0, 1.109)" fill="#e6eaf0"/>
              <rect id="Rectángulo_27979" data-name="Rectángulo 27979" width="8.523" height="1.462" transform="translate(0.367 3.909) rotate(-7.476)" fill="#e6eaf0"/>
              <rect id="Rectángulo_27980" data-name="Rectángulo 27980" width="8.523" height="1.462" transform="translate(0.735 6.709) rotate(-7.475)" fill="#e6eaf0"/>
              <rect id="Rectángulo_27981" data-name="Rectángulo 27981" width="8.523" height="1.462" transform="translate(1.102 9.509) rotate(-7.475)" fill="#e6eaf0"/>
            </g>
          </g>
          <g id="Grupo_39643" data-name="Grupo 39643" transform="translate(19.333)">
            <rect id="Rectángulo_27982" data-name="Rectángulo 27982" width="17.076" height="103.722" transform="translate(0 0.855) rotate(-2.871)" fill="#00223d"/>
            <circle id="Elipse_3771" data-name="Elipse 3771" cx="4.249" cy="4.249" r="4.249" transform="translate(6.679 44.056)" fill="#e6eaf0"/>
            <g id="Grupo_39641" data-name="Grupo 39641" transform="translate(4.492 30.212)">
              <rect id="Rectángulo_27983" data-name="Rectángulo 27983" width="11.099" height="1.449" transform="translate(0 0.556) rotate(-2.871)" fill="#e6eaf0"/>
              <rect id="Rectángulo_27984" data-name="Rectángulo 27984" width="11.099" height="1.449" transform="translate(0.142 3.384) rotate(-2.871)" fill="#e6eaf0"/>
            </g>
            <g id="Grupo_39642" data-name="Grupo 39642" transform="translate(6.418 68.623)">
              <rect id="Rectángulo_27985" data-name="Rectángulo 27985" width="11.099" height="1.449" transform="translate(0 0.556) rotate(-2.871)" fill="#e6eaf0"/>
              <rect id="Rectángulo_27986" data-name="Rectángulo 27986" width="11.099" height="1.449" transform="translate(0.142 3.384) rotate(-2.871)" fill="#e6eaf0"/>
            </g>
          </g>
          <g id="Grupo_39646" data-name="Grupo 39646" transform="translate(0 8.256)">
            <rect id="Rectángulo_27987" data-name="Rectángulo 27987" width="19.6" height="96.19" fill="#37a3a5"/>
            <circle id="Elipse_3772" data-name="Elipse 3772" cx="5.963" cy="5.963" r="5.963" transform="translate(3.837 7.564)" fill="#e6eaf0"/>
            <g id="Grupo_39644" data-name="Grupo 39644" transform="translate(3.577 63.237)">
              <rect id="Rectángulo_27988" data-name="Rectángulo 27988" width="12.446" height="1.449" fill="#e6eaf0"/>
              <rect id="Rectángulo_27989" data-name="Rectángulo 27989" width="12.446" height="1.449" transform="translate(0 2.832)" fill="#e6eaf0"/>
            </g>
            <g id="Grupo_39645" data-name="Grupo 39645" transform="translate(3.577 84.903)">
              <rect id="Rectángulo_27990" data-name="Rectángulo 27990" width="12.446" height="1.449" fill="#e6eaf0"/>
              <rect id="Rectángulo_27991" data-name="Rectángulo 27991" width="12.446" height="1.449" transform="translate(0 2.832)" fill="#e6eaf0"/>
            </g>
          </g>
        </g>
        <g id="Grupo_39648" data-name="Grupo 39648" transform="translate(52.234 34.904)">
          <rect id="Rectángulo_27992" data-name="Rectángulo 27992" width="8.142" height="69.338" transform="translate(0 1.488) rotate(-10.53)" fill="#e6eaf0"/>
          <rect id="Rectángulo_27993" data-name="Rectángulo 27993" width="2.522" height="39.879" transform="translate(5.752 18.31) rotate(-10.53)" fill="#6f7082"/>
        </g>
      </g>
      <g id="Document" transform="translate(335.438 64.101)">
        <g id="Artwork_6" data-name="Artwork 6">
          <g id="Grupo_39656" data-name="Grupo 39656">
            <g id="Grupo_39652" data-name="Grupo 39652" transform="translate(13.701)">
              <path id="Trazado_92892" data-name="Trazado 92892" d="M450.9,205.912H408.359V133.529h31.626L450.9,144.441Z" transform="translate(-408.359 -133.529)" fill="#35363b"/>
              <g id="Grupo_39650" data-name="Grupo 39650" transform="translate(6.08 9.378)">
                <rect id="Rectángulo_27994" data-name="Rectángulo 27994" width="30.425" height="2.082" fill="#555866"/>
                <rect id="Rectángulo_27995" data-name="Rectángulo 27995" width="30.425" height="2.082" transform="translate(0 5.175)" fill="#555866"/>
                <rect id="Rectángulo_27996" data-name="Rectángulo 27996" width="30.425" height="2.082" transform="translate(0 10.349)" fill="#555866"/>
                <rect id="Rectángulo_27997" data-name="Rectángulo 27997" width="30.425" height="2.082" transform="translate(0 15.524)" fill="#555866"/>
                <rect id="Rectángulo_27998" data-name="Rectángulo 27998" width="30.425" height="2.082" transform="translate(0 20.699)" fill="#555866"/>
                <rect id="Rectángulo_27999" data-name="Rectángulo 27999" width="17.909" height="2.082" transform="translate(0 25.873)" fill="#42444f"/>
              </g>
              <g id="Grupo_39651" data-name="Grupo 39651" transform="translate(6.08 45.662)">
                <rect id="Rectángulo_28000" data-name="Rectángulo 28000" width="30.425" height="2.082" fill="#555866"/>
                <rect id="Rectángulo_28001" data-name="Rectángulo 28001" width="30.425" height="2.082" transform="translate(0 5.175)" fill="#555866"/>
                <rect id="Rectángulo_28002" data-name="Rectángulo 28002" width="30.425" height="2.082" transform="translate(0 10.349)" fill="#555866"/>
                <rect id="Rectángulo_28003" data-name="Rectángulo 28003" width="17.909" height="2.082" transform="translate(0 15.524)" fill="#42444f"/>
              </g>
              <path id="Trazado_92893" data-name="Trazado 92893" d="M453.519,144.441H442.606V133.529h0l10.913,10.912Z" transform="translate(-410.98 -133.529)" fill="#27282b"/>
            </g>
            <g id="Grupo_39655" data-name="Grupo 39655" transform="translate(0 12.529)">
              <path id="Trazado_92894" data-name="Trazado 92894" d="M436.062,219.479H393.523V147.1h31.626l10.913,10.913Z" transform="translate(-393.523 -147.096)" fill="#e6eaf0"/>
              <g id="Grupo_39653" data-name="Grupo 39653" transform="translate(6.08 9.379)">
                <rect id="Rectángulo_28004" data-name="Rectángulo 28004" width="30.425" height="2.082" fill="#42444f"/>
                <rect id="Rectángulo_28005" data-name="Rectángulo 28005" width="30.425" height="2.082" transform="translate(0 5.175)" fill="#42444f"/>
                <rect id="Rectángulo_28006" data-name="Rectángulo 28006" width="30.425" height="2.082" transform="translate(0 10.349)" fill="#42444f"/>
                <rect id="Rectángulo_28007" data-name="Rectángulo 28007" width="30.425" height="2.082" transform="translate(0 15.524)" fill="#42444f"/>
                <rect id="Rectángulo_28008" data-name="Rectángulo 28008" width="30.425" height="2.082" transform="translate(0 20.699)" fill="#42444f"/>
                <rect id="Rectángulo_28009" data-name="Rectángulo 28009" width="17.909" height="2.082" transform="translate(0 25.873)" fill="#42444f"/>
              </g>
              <g id="Grupo_39654" data-name="Grupo 39654" transform="translate(6.08 45.663)">
                <rect id="Rectángulo_28010" data-name="Rectángulo 28010" width="30.425" height="2.082" fill="#42444f"/>
                <rect id="Rectángulo_28011" data-name="Rectángulo 28011" width="30.425" height="2.082" transform="translate(0 5.175)" fill="#42444f"/>
                <rect id="Rectángulo_28012" data-name="Rectángulo 28012" width="30.425" height="2.082" transform="translate(0 10.349)" fill="#42444f"/>
                <rect id="Rectángulo_28013" data-name="Rectángulo 28013" width="17.909" height="2.082" transform="translate(0 15.524)" fill="#42444f"/>
              </g>
              <path id="Trazado_92895" data-name="Trazado 92895" d="M438.683,158.009H427.77V147.1h0l10.913,10.913Z" transform="translate(-396.144 -147.096)" fill="#c5cbd6"/>
            </g>
          </g>
        </g>
      </g>
      <g id="cloud" transform="translate(113.252)">
        <g id="Grupo_39657" data-name="Grupo 39657">
          <path id="Trazado_92896" data-name="Trazado 92896" d="M298.778,126.877a10.936,10.936,0,0,1-10.937,10.937H171.814a18.889,18.889,0,1,1,6.916-36.474c0-.124-.007-.251-.007-.376a36.851,36.851,0,0,1,73.054-6.883,23.4,23.4,0,0,1,35,20.327c0,.533-.018,1.065-.055,1.59a10.172,10.172,0,0,1,1.116-.058A10.935,10.935,0,0,1,298.778,126.877Z" transform="translate(-152.923 -64.115)" fill="#ced0d6"/>
          <path id="Trazado_92897" data-name="Trazado 92897" d="M242.341,138.225H171.814a18.889,18.889,0,1,1,6.916-36.474c0-.124-.007-.251-.007-.376a36.823,36.823,0,0,1,18.264-31.822,43.024,43.024,0,0,1,17.385,2.34c7.161,2.7,13.5,8.261,15.808,15.552s-.161,16.2-6.654,20.255a16.647,16.647,0,0,1,11.2,2.158c3.412,2.078,5.713,6.288,4.681,10.145a10.194,10.194,0,0,1-4.524,5.688,29.484,29.484,0,0,1-6.591,2.865,8.33,8.33,0,0,1,2.745-.39,4.5,4.5,0,0,1,3.5,1.236,2.763,2.763,0,0,1,.307,3.493c1.414-1.4,3.562-.247,5.078,1.039A7.478,7.478,0,0,1,242.341,138.225Z" transform="translate(-152.923 -64.526)" fill="#e6eaf0"/>
        </g>
      </g>
      <g id="Grupo_39675" data-name="Grupo 39675" transform="translate(90.446 110.757)">
        <g id="Grupo_39674" data-name="Grupo 39674" transform="translate(0)" clip-path="url(#clip-path)">
          <g id="Website" transform="translate(30.079 8.839)">
            <g id="Grupo_39673" data-name="Grupo 39673">
              <rect id="Rectángulo_28014" data-name="Rectángulo 28014" width="127.81" height="185.688" rx="5.44" transform="translate(5.381 4.14)" fill="#35363b"/>
              <rect id="Rectángulo_28015" data-name="Rectángulo 28015" width="127.81" height="185.688" rx="5.44" transform="translate(0 0)" fill="#e6eaf0"/>
              <path id="Trazado_92898" data-name="Trazado 92898" d="M288.607,198.648v4.1H160.8v-4.1a5.024,5.024,0,0,1,5.024-5.025H283.583A5.025,5.025,0,0,1,288.607,198.648Z" transform="translate(-160.798 -193.623)" fill="#dbdfe6"/>
              <path id="Trazado_92899" data-name="Trazado 92899" d="M288.607,385.721v3.269a5.024,5.024,0,0,1-5.025,5.024H165.822a5.024,5.024,0,0,1-5.024-5.024v-3.269Z" transform="translate(-160.798 -208.325)" fill="#dbdfe6"/>
              <g id="Grupo_39658" data-name="Grupo 39658" transform="translate(109.184 3.412)">
                <circle id="Elipse_3773" data-name="Elipse 3773" cx="1.517" cy="1.517" r="1.517" transform="translate(10.61)" fill="#34909d"/>
                <circle id="Elipse_3774" data-name="Elipse 3774" cx="1.517" cy="1.517" r="1.517" transform="translate(5.305)" fill="#e76700"/>
                <circle id="Elipse_3775" data-name="Elipse 3775" cx="1.517" cy="1.517" r="1.517" fill="#ba0034"/>
              </g>
              <rect id="Rectángulo_28016" data-name="Rectángulo 28016" width="123.913" height="49.608" transform="translate(1.949 11.002)" fill="#6f7082"/>
              <rect id="Rectángulo_28017" data-name="Rectángulo 28017" width="34.129" height="29.63" transform="translate(5.511 65.736)" fill="#fff"/>
              <rect id="Rectángulo_28018" data-name="Rectángulo 28018" width="79.905" height="2.252" transform="translate(42.924 65.736)" fill="#fff"/>
              <rect id="Rectángulo_28019" data-name="Rectángulo 28019" width="79.905" height="2.251" transform="translate(42.924 71.236)" fill="#fff"/>
              <rect id="Rectángulo_28020" data-name="Rectángulo 28020" width="79.905" height="2.251" transform="translate(42.924 76.736)" fill="#fff"/>
              <rect id="Rectángulo_28021" data-name="Rectángulo 28021" width="79.905" height="2.252" transform="translate(42.924 82.236)" fill="#fff"/>
              <g id="Grupo_39659" data-name="Grupo 39659" transform="translate(99.518 90.374)">
                <path id="Trazado_92900" data-name="Trazado 92900" d="M289.378,296.479H271.059a2.5,2.5,0,0,1-2.5-2.5h0a2.5,2.5,0,0,1,2.5-2.5h18.319a2.5,2.5,0,0,1,2.5,2.5h0A2.5,2.5,0,0,1,289.378,296.479Z" transform="translate(-268.563 -291.487)" fill="#34909d"/>
                <path id="Trazado_92901" data-name="Trazado 92901" d="M284.869,295.222h-8.238a1.126,1.126,0,0,1-1.126-1.126h0a1.126,1.126,0,0,1,1.126-1.126h8.238a1.126,1.126,0,0,1,1.126,1.126h0A1.126,1.126,0,0,1,284.869,295.222Z" transform="translate(-269.094 -291.601)" fill="#fff"/>
              </g>
              <g id="Grupo_39667" data-name="Grupo 39667" transform="translate(5.511 105.492)">
                <g id="Grupo_39660" data-name="Grupo 39660">
                  <rect id="Rectángulo_28022" data-name="Rectángulo 28022" width="12.578" height="12.578" fill="#fff"/>
                  <rect id="Rectángulo_28023" data-name="Rectángulo 28023" width="12.578" height="1.291" transform="translate(0 13.852)" fill="#fff"/>
                  <rect id="Rectángulo_28024" data-name="Rectángulo 28024" width="12.578" height="1.291" transform="translate(0 16.417)" fill="#fff"/>
                  <rect id="Rectángulo_28025" data-name="Rectángulo 28025" width="8.346" height="1.291" transform="translate(0 18.982)" fill="#fff"/>
                </g>
                <g id="Grupo_39661" data-name="Grupo 39661" transform="translate(17.456)">
                  <rect id="Rectángulo_28026" data-name="Rectángulo 28026" width="12.578" height="12.578" fill="#fff"/>
                  <rect id="Rectángulo_28027" data-name="Rectángulo 28027" width="12.578" height="1.291" transform="translate(0 13.852)" fill="#fff"/>
                  <rect id="Rectángulo_28028" data-name="Rectángulo 28028" width="12.578" height="1.291" transform="translate(0 16.417)" fill="#fff"/>
                  <rect id="Rectángulo_28029" data-name="Rectángulo 28029" width="8.346" height="1.291" transform="translate(0 18.982)" fill="#fff"/>
                </g>
                <g id="Grupo_39662" data-name="Grupo 39662" transform="translate(34.913)">
                  <rect id="Rectángulo_28030" data-name="Rectángulo 28030" width="12.578" height="12.578" fill="#fff"/>
                  <rect id="Rectángulo_28031" data-name="Rectángulo 28031" width="12.578" height="1.291" transform="translate(0 13.852)" fill="#fff"/>
                  <rect id="Rectángulo_28032" data-name="Rectángulo 28032" width="12.578" height="1.291" transform="translate(0 16.417)" fill="#fff"/>
                  <rect id="Rectángulo_28033" data-name="Rectángulo 28033" width="8.346" height="1.291" transform="translate(0 18.982)" fill="#fff"/>
                </g>
                <g id="Grupo_39663" data-name="Grupo 39663" transform="translate(52.369)">
                  <rect id="Rectángulo_28034" data-name="Rectángulo 28034" width="12.578" height="12.578" fill="#fff"/>
                  <rect id="Rectángulo_28035" data-name="Rectángulo 28035" width="12.578" height="1.291" transform="translate(0 13.852)" fill="#fff"/>
                  <rect id="Rectángulo_28036" data-name="Rectángulo 28036" width="12.578" height="1.291" transform="translate(0 16.417)" fill="#fff"/>
                  <rect id="Rectángulo_28037" data-name="Rectángulo 28037" width="8.346" height="1.291" transform="translate(0 18.982)" fill="#fff"/>
                </g>
                <g id="Grupo_39664" data-name="Grupo 39664" transform="translate(69.826)">
                  <rect id="Rectángulo_28038" data-name="Rectángulo 28038" width="12.578" height="12.578" fill="#fff"/>
                  <rect id="Rectángulo_28039" data-name="Rectángulo 28039" width="12.578" height="1.291" transform="translate(0 13.852)" fill="#fff"/>
                  <rect id="Rectángulo_28040" data-name="Rectángulo 28040" width="12.578" height="1.291" transform="translate(0 16.417)" fill="#fff"/>
                  <rect id="Rectángulo_28041" data-name="Rectángulo 28041" width="8.346" height="1.291" transform="translate(0 18.982)" fill="#fff"/>
                </g>
                <g id="Grupo_39665" data-name="Grupo 39665" transform="translate(87.282)">
                  <rect id="Rectángulo_28042" data-name="Rectángulo 28042" width="12.578" height="12.578" fill="#fff"/>
                  <rect id="Rectángulo_28043" data-name="Rectángulo 28043" width="12.578" height="1.291" transform="translate(0 13.852)" fill="#fff"/>
                  <rect id="Rectángulo_28044" data-name="Rectángulo 28044" width="12.578" height="1.291" transform="translate(0 16.417)" fill="#fff"/>
                  <rect id="Rectángulo_28045" data-name="Rectángulo 28045" width="8.346" height="1.291" transform="translate(0 18.982)" fill="#fff"/>
                </g>
                <g id="Grupo_39666" data-name="Grupo 39666" transform="translate(104.739)">
                  <rect id="Rectángulo_28046" data-name="Rectángulo 28046" width="12.578" height="12.578" fill="#fff"/>
                  <rect id="Rectángulo_28047" data-name="Rectángulo 28047" width="12.578" height="1.291" transform="translate(0 13.852)" fill="#fff"/>
                  <rect id="Rectángulo_28048" data-name="Rectángulo 28048" width="12.578" height="1.291" transform="translate(0 16.417)" fill="#fff"/>
                  <rect id="Rectángulo_28049" data-name="Rectángulo 28049" width="8.346" height="1.291" transform="translate(0 18.982)" fill="#fff"/>
                </g>
              </g>
              <g id="Grupo_39669" data-name="Grupo 39669" transform="translate(5.511 31.689)">
                <g id="Grupo_39668" data-name="Grupo 39668">
                  <path id="Trazado_92902" data-name="Trazado 92902" d="M166.766,232.75l4.811,4.811v-9.622Z" transform="translate(-166.766 -227.939)" fill="#fff"/>
                </g>
                <path id="Trazado_92903" data-name="Trazado 92903" d="M288.6,227.939v9.622l4.811-4.811Z" transform="translate(-176.09 -227.939)" fill="#fff"/>
              </g>
              <g id="Grupo_39670" data-name="Grupo 39670" transform="translate(55.455 57.862)">
                <path id="Trazado_92904" data-name="Trazado 92904" d="M222.6,257.155a.875.875,0,1,1-.875-.875A.874.874,0,0,1,222.6,257.155Z" transform="translate(-220.849 -256.28)" fill="#fff"/>
                <circle id="Elipse_3776" data-name="Elipse 3776" cx="0.874" cy="0.874" r="0.874" transform="translate(3.788)" fill="#42444f"/>
                <path id="Trazado_92905" data-name="Trazado 92905" d="M230.8,257.155a.874.874,0,1,1-.875-.875A.874.874,0,0,1,230.8,257.155Z" transform="translate(-221.477 -256.28)" fill="#fff"/>
                <circle id="Elipse_3777" data-name="Elipse 3777" cx="0.874" cy="0.874" r="0.874" transform="translate(11.364)" fill="#fff"/>
                <path id="Trazado_92906" data-name="Trazado 92906" d="M239.005,257.155a.875.875,0,1,1-.875-.875A.874.874,0,0,1,239.005,257.155Z" transform="translate(-222.105 -256.28)" fill="#fff"/>
              </g>
              <line id="Línea_308" data-name="Línea 308" x2="117.317" transform="translate(5.511 131.809)" fill="none" stroke="#fff" stroke-miterlimit="10" stroke-width="1.843"/>
              <line id="Línea_309" data-name="Línea 309" x2="117.317" transform="translate(5.511 100.429)" fill="none" stroke="#fff" stroke-miterlimit="10" stroke-width="1.843"/>
              <g id="Grupo_39671" data-name="Grupo 39671" transform="translate(5.511 138.351)">
                <rect id="Rectángulo_28050" data-name="Rectángulo 28050" width="53.732" height="12.648" fill="#fff"/>
                <rect id="Rectángulo_28051" data-name="Rectángulo 28051" width="55.135" height="12.648" transform="translate(62.182)" fill="#fff"/>
              </g>
              <g id="Grupo_39672" data-name="Grupo 39672" transform="translate(5.511 154.252)">
                <rect id="Rectángulo_28052" data-name="Rectángulo 28052" width="53.732" height="12.648" fill="#fff"/>
                <rect id="Rectángulo_28053" data-name="Rectángulo 28053" width="55.135" height="12.648" transform="translate(62.182)" fill="#fff"/>
              </g>
            </g>
          </g>
        </g>
      </g>
      <g id="Grupo_39679" data-name="Grupo 39679" transform="translate(0 52.337)">
        <g id="Grupo_39676" data-name="Grupo 39676">
          <path id="Trazado_92907" data-name="Trazado 92907" d="M131.108,152.217V197.4a8.868,8.868,0,0,1-4.413,7.656l-39.129,22.59a8.843,8.843,0,0,1-8.837,0l-39.12-22.59a8.85,8.85,0,0,1-4.423-7.656V152.217a8.837,8.837,0,0,1,4.423-7.656l39.12-22.589a8.838,8.838,0,0,1,8.837,0l39.129,22.589A8.847,8.847,0,0,1,131.108,152.217Z" transform="translate(-30.66 -120.789)" fill="#00223d"/>
          <g id="Ribbon" transform="translate(4.526 56.853)">
            <path id="Trazado_92908" data-name="Trazado 92908" d="M131.108,182.354v19.754a8.706,8.706,0,0,1-1.065,4.2H36.251a8.821,8.821,0,0,1-1.065-4.2V182.354Z" transform="translate(-35.186 -182.354)" fill="#202124"/>
          </g>
          <g id="Ribbon-2" data-name="Ribbon" transform="translate(0 54.692)">
            <path id="Trazado_92909" data-name="Trazado 92909" d="M135.046,180.014H30.285L33.5,191.992l-3.213,11.978H135.046l-3.053-11.978Z" transform="translate(-30.285 -180.014)" fill="#37a3a5"/>
          </g>
          <text id="DATA" transform="translate(51.475 74.958)" fill="#e6eaf0" font-size="26" font-family="Montserrat-Black, Montserrat" font-weight="800" letter-spacing="0.05em"><tspan x="-41.106" y="0">DATA</tspan></text>
        </g>
        <g id="gear" transform="translate(33.891 18.014)">
          <g id="Grupo_39677" data-name="Grupo 39677">
            <g id="gear-2" data-name="gear">
              <path id="Trazado_92910" data-name="Trazado 92910" d="M92.167,155.367a12.758,12.758,0,0,0,0-4.736H88.053a8.7,8.7,0,0,0-.776-1.875l2.907-2.907a12.722,12.722,0,0,0-3.348-3.35l-2.909,2.91a8.6,8.6,0,0,0-1.875-.776v-4.116a12.759,12.759,0,0,0-4.736,0v4.116a8.635,8.635,0,0,0-1.874.776l-2.91-2.91a12.687,12.687,0,0,0-3.346,3.35l2.907,2.907a8.557,8.557,0,0,0-.775,1.875H67.206a12.758,12.758,0,0,0,0,4.736h4.115a8.549,8.549,0,0,0,.775,1.874l-2.907,2.907a12.674,12.674,0,0,0,3.346,3.35l2.91-2.909a8.732,8.732,0,0,0,1.874.778v4.114a12.758,12.758,0,0,0,4.736,0v-4.114a8.7,8.7,0,0,0,1.875-.778l2.909,2.909a12.657,12.657,0,0,0,3.348-3.348l-2.907-2.91a8.689,8.689,0,0,0,.776-1.874Zm-12.481.195A2.563,2.563,0,1,1,82.25,153,2.563,2.563,0,0,1,79.686,155.562Z" transform="translate(-66.984 -140.296)" fill="#202124"/>
            </g>
            <g id="gear-3" data-name="gear" transform="translate(21.8 15.155)">
              <path id="Trazado_92911" data-name="Trazado 92911" d="M105.893,165.864a7.744,7.744,0,0,0,0-2.878h-2.5a5.348,5.348,0,0,0-.471-1.139l1.766-1.767a7.723,7.723,0,0,0-2.033-2.035l-1.768,1.768a5.208,5.208,0,0,0-1.139-.471v-2.5a7.8,7.8,0,0,0-2.878,0v2.5a5.245,5.245,0,0,0-1.139.471l-1.768-1.768a7.7,7.7,0,0,0-2.033,2.035l1.767,1.767a5.254,5.254,0,0,0-.471,1.139h-2.5a7.744,7.744,0,0,0,0,2.878h2.5A5.254,5.254,0,0,0,93.7,167l-1.767,1.767a7.7,7.7,0,0,0,2.033,2.035l1.768-1.768a5.347,5.347,0,0,0,1.139.473v2.5a7.744,7.744,0,0,0,2.878,0v-2.5a5.307,5.307,0,0,0,1.139-.473l1.768,1.768a7.705,7.705,0,0,0,2.033-2.034L102.922,167a5.348,5.348,0,0,0,.471-1.139Zm-7.584.118a1.557,1.557,0,1,1,1.557-1.557A1.557,1.557,0,0,1,98.309,165.982Z" transform="translate(-90.591 -156.707)" fill="#202124"/>
            </g>
          </g>
        </g>
        <g id="gear-4" data-name="gear" transform="translate(33.891 17.046)">
          <g id="Grupo_39678" data-name="Grupo 39678">
            <g id="gear-5" data-name="gear">
              <path id="Trazado_92912" data-name="Trazado 92912" d="M92.167,154.319a12.758,12.758,0,0,0,0-4.736H88.053a8.7,8.7,0,0,0-.776-1.875l2.907-2.907a12.708,12.708,0,0,0-3.348-3.35l-2.909,2.91a8.6,8.6,0,0,0-1.875-.776V139.47a12.758,12.758,0,0,0-4.736,0v4.116a8.634,8.634,0,0,0-1.874.776l-2.91-2.91a12.674,12.674,0,0,0-3.346,3.35l2.907,2.907a8.556,8.556,0,0,0-.775,1.875H67.206a12.758,12.758,0,0,0,0,4.736h4.115a8.549,8.549,0,0,0,.775,1.874L69.188,159.1a12.673,12.673,0,0,0,3.346,3.35l2.91-2.909a8.734,8.734,0,0,0,1.874.778v4.114a12.758,12.758,0,0,0,4.736,0v-4.114a8.7,8.7,0,0,0,1.875-.778l2.909,2.909a12.656,12.656,0,0,0,3.348-3.348l-2.907-2.91a8.689,8.689,0,0,0,.776-1.874Zm-12.481.195a2.563,2.563,0,1,1,2.564-2.563A2.563,2.563,0,0,1,79.686,154.514Z" transform="translate(-66.984 -139.248)" fill="#fff"/>
            </g>
            <g id="gear-6" data-name="gear" transform="translate(21.8 15.154)">
              <path id="Trazado_92913" data-name="Trazado 92913" d="M105.893,164.816a7.744,7.744,0,0,0,0-2.878h-2.5a5.347,5.347,0,0,0-.471-1.139l1.766-1.767A7.723,7.723,0,0,0,102.654,157l-1.768,1.768a5.208,5.208,0,0,0-1.139-.471v-2.5a7.745,7.745,0,0,0-2.878,0v2.5a5.246,5.246,0,0,0-1.139.471L93.963,157a7.7,7.7,0,0,0-2.033,2.035L93.7,160.8a5.254,5.254,0,0,0-.471,1.139h-2.5a7.744,7.744,0,0,0,0,2.878h2.5a5.254,5.254,0,0,0,.471,1.139l-1.767,1.767a7.7,7.7,0,0,0,2.033,2.035l1.768-1.768a5.344,5.344,0,0,0,1.139.473v2.5a7.8,7.8,0,0,0,2.878,0v-2.5a5.3,5.3,0,0,0,1.139-.473l1.768,1.768a7.705,7.705,0,0,0,2.033-2.034l-1.766-1.768a5.348,5.348,0,0,0,.471-1.139Zm-7.584.118a1.557,1.557,0,1,1,1.557-1.557A1.557,1.557,0,0,1,98.309,164.934Z" transform="translate(-90.591 -155.658)" fill="#fff"/>
            </g>
          </g>
        </g>
      </g>
      <g id="chat" transform="translate(288.836 39.054)">
        <g id="Grupo_39680" data-name="Grupo 39680">
          <path id="Trazado_92914" data-name="Trazado 92914" d="M368.454,106.406H351.872a8.812,8.812,0,0,0-.5,17.61l-5.448,6.479,10.271-6.463h12.265a8.813,8.813,0,1,0,0-17.626Z" transform="translate(-343.059 -106.406)" fill="#37a3a5"/>
          <path id="Trazado_92915" data-name="Trazado 92915" d="M352.922,112.867a2.866,2.866,0,1,0,2.866,2.866A2.866,2.866,0,0,0,352.922,112.867Zm7.777,0a2.866,2.866,0,1,0,2.866,2.866A2.865,2.865,0,0,0,360.7,112.867Zm7.777,0a2.866,2.866,0,1,0,2.866,2.866A2.865,2.865,0,0,0,368.475,112.867Z" transform="translate(-343.595 -106.9)" fill="#fff"/>
        </g>
      </g>
      <line id="Línea_310" data-name="Línea 310" y2="38.06" transform="translate(189.397 78.173)" fill="none" stroke="#6f7082" stroke-linecap="round" stroke-miterlimit="10" stroke-width="3.144" stroke-dasharray="0 5.24"/>
      <line id="Línea_311" data-name="Línea 311" y1="32.093" transform="translate(359.65 148.83)" fill="none" stroke="#6f7082" stroke-miterlimit="10" stroke-width="1.153" stroke-dasharray="2.096 1.048"/>
      <line id="Línea_312" data-name="Línea 312" x1="92.381" transform="translate(256.621 69.62)" fill="none" stroke="#6f7082" stroke-miterlimit="10" stroke-width="1.153" stroke-dasharray="2.096 1.048"/>
      <line id="Línea_313" data-name="Línea 313" y1="46.946" transform="translate(41.462 155.095)" fill="none" stroke="#6f7082" stroke-miterlimit="10" stroke-width="1.153" stroke-dasharray="2.096 1.048"/>
      <path id="Trazado_92916" data-name="Trazado 92916" d="M89.547,219.25,111.4,241.1a11.535,11.535,0,0,0,8.157,3.379h35.714" transform="translate(-34.82 -75.988)" fill="none" stroke="#6f7082" stroke-miterlimit="10" stroke-width="1.153" stroke-dasharray="2.096 1.048"/>
      <g id="Artwork_4" data-name="Artwork 4" transform="translate(269.753 135.523)">
        <g id="Grupo_39691" data-name="Grupo 39691">
          <rect id="Rectángulo_28101" data-name="Rectángulo 28101" width="57.984" height="75.537" rx="4.306" fill="#e6eaf0"/>
          <g id="Grupo_39690" data-name="Grupo 39690" transform="translate(37.745 3.021)">
            <path id="Trazado_92919" data-name="Trazado 92919" d="M380.248,216.158a2.017,2.017,0,1,1-2.018-2.017A2.017,2.017,0,0,1,380.248,216.158Z" transform="translate(-364.258 -214.141)" fill="#37a3a5"/>
            <path id="Trazado_92920" data-name="Trazado 92920" d="M373.774,216.158a2.017,2.017,0,1,1-2.017-2.017A2.016,2.016,0,0,1,373.774,216.158Z" transform="translate(-363.762 -214.141)" fill="#f8b85e"/>
            <path id="Trazado_92921" data-name="Trazado 92921" d="M367.3,216.158a2.017,2.017,0,1,1-2.017-2.017A2.017,2.017,0,0,1,367.3,216.158Z" transform="translate(-363.267 -214.141)" fill="#ba0034"/>
          </g>
        </g>
      </g>
      <path id="Trazado_92922" data-name="Trazado 92922" d="M348.663,286.127v39.439H290.68V286.127a3.977,3.977,0,0,1,3.977-3.977h50.028A3.977,3.977,0,0,1,348.663,286.127Z" transform="translate(-50.214 -80.802)" fill="#35363b" opacity="0.25" style="mix-blend-mode: multiply;isolation: isolate"/>
      <g id="Artwork_4-2" data-name="Artwork 4" transform="translate(256.684 77.713)">
        <g id="Grupo_39693" data-name="Grupo 39693">
          <rect id="Rectángulo_28102" data-name="Rectángulo 28102" width="42.238" height="52.467" rx="4.306" fill="#6f7082"/>
          <g id="Grupo_39692" data-name="Grupo 39692" transform="translate(21.999 3.021)">
            <path id="Trazado_92923" data-name="Trazado 92923" d="M349.046,153.557a2.017,2.017,0,1,1-2.018-2.017A2.017,2.017,0,0,1,349.046,153.557Z" transform="translate(-333.056 -151.54)" fill="#37a3a5"/>
            <path id="Trazado_92924" data-name="Trazado 92924" d="M342.572,153.557a2.017,2.017,0,1,1-2.017-2.017A2.017,2.017,0,0,1,342.572,153.557Z" transform="translate(-332.56 -151.54)" fill="#f8b85e"/>
            <path id="Trazado_92925" data-name="Trazado 92925" d="M336.1,153.557a2.017,2.017,0,1,1-2.017-2.017A2.017,2.017,0,0,1,336.1,153.557Z" transform="translate(-332.065 -151.54)" fill="#ba0034"/>
          </g>
        </g>
      </g>
      <g id="Artwork_4-3" data-name="Artwork 4" transform="translate(237.741 203.109)">
        <g id="Grupo_39695" data-name="Grupo 39695">
          <rect id="Rectángulo_28103" data-name="Rectángulo 28103" width="57.984" height="52.467" rx="4.306" fill="#d9dde3"/>
          <g id="Grupo_39694" data-name="Grupo 39694" transform="translate(37.745 3.021)">
            <path id="Trazado_92926" data-name="Trazado 92926" d="M345.582,289.345a2.017,2.017,0,1,1-2.017-2.017A2.016,2.016,0,0,1,345.582,289.345Z" transform="translate(-329.593 -287.328)" fill="#37a3a5"/>
            <path id="Trazado_92927" data-name="Trazado 92927" d="M339.109,289.345a2.017,2.017,0,1,1-2.017-2.017A2.016,2.016,0,0,1,339.109,289.345Z" transform="translate(-329.097 -287.328)" fill="#f8b85e"/>
            <path id="Trazado_92928" data-name="Trazado 92928" d="M332.636,289.345a2.017,2.017,0,1,1-2.017-2.017A2.016,2.016,0,0,1,332.636,289.345Z" transform="translate(-328.602 -287.328)" fill="#ba0034"/>
          </g>
        </g>
      </g>
      <g id="Grupo_39696" data-name="Grupo 39696" transform="translate(260.116 87.827)">
        <g id="text" transform="translate(0 20.583)">
          <path id="Trazado_92929" data-name="Trazado 92929" d="M315.852,188.582h-3.894v1.683h3.894Zm14.055,5.219h10.64v-1.686h-10.64Zm10.636-12.291h-24.88v1.683h24.88Zm-28.586,15.826h9.658v-1.685h-9.658Zm7.427-12.29h-7.427v1.683h7.427Zm-2.338,5.219h15.062v-1.683H317.047Zm10.848,1.85H311.958V193.8H327.9Zm5.409-1.85h13.3v-1.683H333.3ZM321.4,186.729H346.6v-1.683H321.4Zm20.163-5.219v1.683H346.6V181.51Zm1,12.291H346.6v-1.686H342.56Zm-18.932,3.535h9.949v-1.685h-9.949Zm11.146,0h7.577v-1.685h-7.577Z" transform="translate(-311.958 -181.51)" fill="#e6eaf0"/>
        </g>
        <rect id="Rectángulo_28104" data-name="Rectángulo 28104" width="34.311" height="17.462" transform="translate(0.496)" fill="#e6eaf0"/>
      </g>
      <g id="Grupo_39697" data-name="Grupo 39697" transform="translate(276.639 151.163)">
        <g id="text-2" data-name="text" transform="translate(0 26.305)">
          <path id="Trazado_92930" data-name="Trazado 92930" d="M334.828,265.329h-4.977v2.152h4.977ZM352.79,272h13.6v-2.154h-13.6Zm13.594-15.708h-31.8v2.152h31.8Zm-36.533,20.227h12.342v-2.154H329.851Zm9.492-15.707h-9.492v2.152h9.492Zm-2.988,6.67H355.6v-2.152H336.355Zm13.864,2.365H329.851V272h20.368Zm6.912-2.365h17v-2.152h-17Zm-15.216-4.518h32.214V260.81H341.915Zm25.768-6.671v2.152h6.446v-2.152ZM368.96,272h5.17v-2.154h-5.17Zm-24.2,4.519h12.715v-2.154H344.764Zm14.245,0h9.683v-2.154h-9.683Z" transform="translate(-329.851 -256.291)" fill="#42444f"/>
        </g>
        <rect id="Rectángulo_28105" data-name="Rectángulo 28105" width="43.85" height="22.316" transform="translate(0.634)" fill="#42444f"/>
      </g>
      <g id="Grupo_39703" data-name="Grupo 39703" transform="translate(244.195 219.101)">
        <g id="gear-7" data-name="gear" transform="translate(0 0.869)">
          <g id="Grupo_39698" data-name="Grupo 39698">
            <g id="gear-8" data-name="gear">
              <path id="Trazado_92931" data-name="Trazado 92931" d="M315.708,314.877a10.634,10.634,0,0,0,0-3.947h-3.43a7.224,7.224,0,0,0-.645-1.563l2.423-2.423a10.6,10.6,0,0,0-2.791-2.793l-2.425,2.425a7.2,7.2,0,0,0-1.562-.646V302.5a10.64,10.64,0,0,0-3.948,0v3.431a7.227,7.227,0,0,0-1.562.646l-2.425-2.425a10.556,10.556,0,0,0-2.789,2.793l2.423,2.423a7.18,7.18,0,0,0-.646,1.563H294.9a10.634,10.634,0,0,0,0,3.947h3.429a7.2,7.2,0,0,0,.646,1.563l-2.423,2.423a10.569,10.569,0,0,0,2.789,2.793l2.425-2.425a7.325,7.325,0,0,0,1.562.647v3.43a10.64,10.64,0,0,0,3.948,0v-3.43a7.292,7.292,0,0,0,1.562-.647l2.425,2.425a10.582,10.582,0,0,0,2.791-2.791l-2.423-2.425a7.241,7.241,0,0,0,.645-1.562Zm-10.4.163a2.136,2.136,0,1,1,2.136-2.136A2.136,2.136,0,0,1,305.306,315.039Z" transform="translate(-294.718 -302.315)" fill="#6f7082"/>
            </g>
          </g>
        </g>
        <g id="Data_server" data-name="Data server" transform="translate(24.875)">
          <g id="Grupo_39702" data-name="Grupo 39702">
            <g id="Grupo_39699" data-name="Grupo 39699" transform="translate(0 14.624)">
              <path id="Trazado_92932" data-name="Trazado 92932" d="M321.655,319.251v5.182c0,1.041,4.642,1.886,10.369,1.886s10.37-.845,10.37-1.886v-5.182Z" transform="translate(-321.655 -317.366)" fill="#fff"/>
              <ellipse id="Elipse_3779" data-name="Elipse 3779" cx="10.369" cy="1.885" rx="10.369" ry="1.885" fill="#6f7082"/>
            </g>
            <g id="Grupo_39700" data-name="Grupo 39700" transform="translate(0 7.312)">
              <path id="Trazado_92933" data-name="Trazado 92933" d="M321.655,311.334v5.181c0,1.042,4.642,1.886,10.369,1.886s10.37-.844,10.37-1.886v-5.181Z" transform="translate(-321.655 -309.448)" fill="#fff"/>
              <ellipse id="Elipse_3780" data-name="Elipse 3780" cx="10.369" cy="1.885" rx="10.369" ry="1.885" fill="#6f7082"/>
            </g>
            <g id="Grupo_39701" data-name="Grupo 39701">
              <path id="Trazado_92934" data-name="Trazado 92934" d="M321.655,303.416V308.6c0,1.042,4.642,1.886,10.369,1.886s10.37-.844,10.37-1.886v-5.181Z" transform="translate(-321.655 -301.53)" fill="#fff"/>
              <ellipse id="Elipse_3781" data-name="Elipse 3781" cx="10.369" cy="1.885" rx="10.369" ry="1.885" fill="#6f7082"/>
            </g>
          </g>
        </g>
      </g>
      <g id="Grupo_39711" data-name="Grupo 39711" transform="translate(27.715 202.306)">
        <g id="Grupo_39704" data-name="Grupo 39704">
          <rect id="Rectángulo_28106" data-name="Rectángulo 28106" width="56.92" height="102.875" rx="9.598" fill="url(#linear-gradient)"/>
          <path id="Trazado_92935" data-name="Trazado 92935" d="M96.864,289.132H84.105a1.241,1.241,0,0,1-1.238-1.237h0a1.241,1.241,0,0,1,1.238-1.238H96.864a1.241,1.241,0,0,1,1.237,1.238h0A1.241,1.241,0,0,1,96.864,289.132Z" transform="translate(-62.024 -283.453)" fill="#42444f"/>
          <path id="Trazado_92936" data-name="Trazado 92936" d="M93.592,388.349a2.7,2.7,0,1,1-2.7-2.7A2.7,2.7,0,0,1,93.592,388.349Z" transform="translate(-62.432 -291.03)" fill="#42444f"/>
        </g>
        <rect id="Rectángulo_28107" data-name="Rectángulo 28107" width="48.88" height="75.419" transform="translate(4.02 12.791)" fill="#00223d"/>
        <g id="login" transform="translate(9.707 55.036)">
          <g id="Grupo_39707" data-name="Grupo 39707">
            <g id="Grupo_39705" data-name="Grupo 39705">
              <path id="Trazado_92937" data-name="Trazado 92937" d="M108.315,344.242v3.437a1.454,1.454,0,0,1-1.451,1.457h-34.6a1.315,1.315,0,0,1-.208-.018,1.449,1.449,0,0,1-1.249-1.44v-3.437a1.455,1.455,0,0,1,1.457-1.457h34.6a1.456,1.456,0,0,1,1.433,1.244A1.232,1.232,0,0,1,108.315,344.242Z" transform="translate(-70.808 -342.785)" fill="#d7dbe0"/>
              <path id="Trazado_92938" data-name="Trazado 92938" d="M108.417,344.344v3.437a1.454,1.454,0,0,1-1.451,1.457h-34.6a1.315,1.315,0,0,1-.208-.018,1.315,1.315,0,0,1-.018-.208V345.57a1.458,1.458,0,0,1,1.452-1.457h34.6a1.3,1.3,0,0,1,.207.018A1.232,1.232,0,0,1,108.417,344.344Z" transform="translate(-70.91 -342.887)" fill="#fff"/>
            </g>
            <g id="Grupo_39706" data-name="Grupo 39706" transform="translate(0 8.887)">
              <path id="Trazado_92939" data-name="Trazado 92939" d="M108.315,353.866V357.3a1.454,1.454,0,0,1-1.451,1.457h-34.6a1.315,1.315,0,0,1-.208-.018,1.449,1.449,0,0,1-1.249-1.44v-3.437a1.455,1.455,0,0,1,1.457-1.457h34.6a1.456,1.456,0,0,1,1.433,1.244A1.231,1.231,0,0,1,108.315,353.866Z" transform="translate(-70.808 -352.409)" fill="#d7dbe0"/>
              <path id="Trazado_92940" data-name="Trazado 92940" d="M108.417,353.968v3.437a1.454,1.454,0,0,1-1.451,1.457h-34.6a1.319,1.319,0,0,1-.208-.018,1.316,1.316,0,0,1-.018-.208v-3.443a1.458,1.458,0,0,1,1.452-1.457h34.6a1.3,1.3,0,0,1,.207.018A1.231,1.231,0,0,1,108.417,353.968Z" transform="translate(-70.91 -352.511)" fill="#fff"/>
            </g>
          </g>
          <g id="Grupo_39708" data-name="Grupo 39708" transform="translate(10.878 3.155)">
            <circle id="Elipse_3782" data-name="Elipse 3782" cx="0.728" cy="0.728" r="0.728" transform="translate(0 0)" fill="#6f7082"/>
            <path id="Trazado_92941" data-name="Trazado 92941" d="M88.3,346.929a.728.728,0,1,1-.728-.728A.728.728,0,0,1,88.3,346.929Z" transform="translate(-82.914 -346.201)" fill="#6f7082"/>
            <path id="Trazado_92942" data-name="Trazado 92942" d="M92.561,346.929a.728.728,0,1,1-.728-.728A.728.728,0,0,1,92.561,346.929Z" transform="translate(-83.24 -346.201)" fill="#6f7082"/>
            <circle id="Elipse_3783" data-name="Elipse 3783" cx="0.728" cy="0.728" r="0.728" transform="translate(11.8 0)" fill="#6f7082"/>
            <path id="Trazado_92943" data-name="Trazado 92943" d="M101.079,346.929a.727.727,0,1,1-.727-.728A.727.727,0,0,1,101.079,346.929Z" transform="translate(-83.892 -346.201)" fill="#6f7082"/>
          </g>
          <g id="Grupo_39709" data-name="Grupo 39709" transform="translate(10.878 11.65)">
            <path id="Trazado_92944" data-name="Trazado 92944" d="M84.043,356.129a.728.728,0,1,1-.728-.728A.728.728,0,0,1,84.043,356.129Z" transform="translate(-82.588 -355.401)" fill="#6f7082"/>
            <path id="Trazado_92945" data-name="Trazado 92945" d="M88.3,356.129a.728.728,0,1,1-.728-.728A.728.728,0,0,1,88.3,356.129Z" transform="translate(-82.914 -355.401)" fill="#6f7082"/>
            <path id="Trazado_92946" data-name="Trazado 92946" d="M92.561,356.129a.728.728,0,1,1-.728-.728A.728.728,0,0,1,92.561,356.129Z" transform="translate(-83.24 -355.401)" fill="#6f7082"/>
            <path id="Trazado_92947" data-name="Trazado 92947" d="M96.82,356.129a.728.728,0,1,1-.728-.728A.728.728,0,0,1,96.82,356.129Z" transform="translate(-83.566 -355.401)" fill="#6f7082"/>
            <path id="Trazado_92948" data-name="Trazado 92948" d="M101.079,356.129a.727.727,0,1,1-.727-.728A.727.727,0,0,1,101.079,356.129Z" transform="translate(-83.892 -355.401)" fill="#6f7082"/>
          </g>
        </g>
        <g id="user_man_account" data-name="user man account" transform="translate(15.935 22.675)">
          <g id="Grupo_39710" data-name="Grupo 39710">
            <path id="Trazado_92949" data-name="Trazado 92949" d="M102.6,320.268a12.525,12.525,0,0,1-22.336,7.786c-.066-.084-.133-.17-.2-.257a12.526,12.526,0,1,1,22.532-7.529Z" transform="translate(-77.553 -307.742)" fill="#42444f"/>
            <path id="Trazado_92950" data-name="Trazado 92950" d="M100.115,328.424a12.528,12.528,0,0,1-19.624,0,10.087,10.087,0,0,1,8.208-7.642,4.254,4.254,0,1,1,3.207,0A10.087,10.087,0,0,1,100.115,328.424Z" transform="translate(-77.778 -308.113)" fill="#e6eaf0"/>
          </g>
        </g>
      </g>
      <g id="transform" transform="translate(121.387 178.303)">
        <g id="Grupo_39716" data-name="Grupo 39716">
          <rect id="Rectángulo_28108" data-name="Rectángulo 28108" width="42.136" height="42.136" transform="translate(1.195 1.195)" fill="none" stroke="#42444f" stroke-linecap="round" stroke-miterlimit="10" stroke-width="1.663" stroke-dasharray="0 3.327"/>
          <g id="Grupo_39715" data-name="Grupo 39715">
            <g id="Grupo_39712" data-name="Grupo 39712">
              <rect id="Rectángulo_28109" data-name="Rectángulo 28109" width="2.39" height="2.39" fill="#42444f"/>
              <rect id="Rectángulo_28110" data-name="Rectángulo 28110" width="2.39" height="2.39" transform="translate(21.068)" fill="#42444f"/>
              <rect id="Rectángulo_28111" data-name="Rectángulo 28111" width="2.39" height="2.39" transform="translate(42.136)" fill="#42444f"/>
            </g>
            <g id="Grupo_39713" data-name="Grupo 39713" transform="translate(0 21.068)">
              <rect id="Rectángulo_28112" data-name="Rectángulo 28112" width="2.39" height="2.39" fill="#42444f"/>
              <rect id="Rectángulo_28113" data-name="Rectángulo 28113" width="2.39" height="2.39" transform="translate(42.136)" fill="#42444f"/>
            </g>
            <g id="Grupo_39714" data-name="Grupo 39714" transform="translate(0 42.136)">
              <rect id="Rectángulo_28114" data-name="Rectángulo 28114" width="2.39" height="2.39" fill="#42444f"/>
              <rect id="Rectángulo_28115" data-name="Rectángulo 28115" width="2.39" height="2.39" transform="translate(21.068)" fill="#42444f"/>
              <rect id="Rectángulo_28116" data-name="Rectángulo 28116" width="2.39" height="2.39" transform="translate(42.136)" fill="#42444f"/>
            </g>
          </g>
        </g>
      </g>
    </g>
    <circle id="Elipse_3784" data-name="Elipse 3784" cx="3.674" cy="3.674" r="3.674" transform="translate(241.383 349.051)" fill="#6f7082"/>
    <circle id="Elipse_3785" data-name="Elipse 3785" cx="3.298" cy="3.298" r="3.298" transform="translate(319.878 334.163)" fill="#e6eaf0"/>
    <path id="Trazado_92951" data-name="Trazado 92951" d="M151.169,358.011a3.848,3.848,0,1,1-3.848-3.848A3.848,3.848,0,0,1,151.169,358.011Z" transform="translate(-8.663 -22.199)" fill="#e6eaf0"/>
    <circle id="Elipse_3786" data-name="Elipse 3786" cx="1.649" cy="1.649" r="1.649" transform="translate(156.847 354.75)" fill="#6f7082"/>
    <path id="Trazado_92952" data-name="Trazado 92952" d="M55.284,264.234a2.932,2.932,0,1,1-2.931-2.932A2.932,2.932,0,0,1,55.284,264.234Z" transform="translate(-1.465 -15.092)" fill="#e6eaf0"/>
    <path id="Trazado_92953" data-name="Trazado 92953" d="M325.017,98.689a3.665,3.665,0,1,1-3.664-3.664A3.665,3.665,0,0,1,325.017,98.689Z" transform="translate(-21.996 -2.366)" fill="#e6eaf0"/>
    <circle id="Elipse_3787" data-name="Elipse 3787" cx="2.382" cy="2.382" r="2.382" transform="translate(163.028 145.797)" fill="#e6eaf0"/>
    <path id="Trazado_92954" data-name="Trazado 92954" d="M127.907,111.846a2.932,2.932,0,1,1-2.932-2.932A2.933,2.933,0,0,1,127.907,111.846Z" transform="translate(-7.023 -3.429)" fill="#6f7082"/>
    <circle id="Elipse_3788" data-name="Elipse 3788" cx="2.963" cy="2.963" r="2.963" transform="translate(371.703 105.941)" fill="#6f7082"/>
  </g>
</svg>
