<svg xmlns="http://www.w3.org/2000/svg" xmlns:xlink="http://www.w3.org/1999/xlink" width="487.84" height="283.47" viewBox="0 0 487.84 283.47">
  <defs>
    <linearGradient id="linear-gradient" x1="0.5" x2="0.5" y2="1" gradientUnits="objectBoundingBox">
      <stop offset="0" stop-color="#fff"/>
      <stop offset="1" stop-color="#d2e6ee"/>
    </linearGradient>
  </defs>
  <g id="Grupo_41872" data-name="Grupo 41872" transform="translate(-416 -473.465)">
    <g id="Grupo_41871" data-name="Grupo 41871" transform="translate(417 474.465)">
      <rect id="Rectángulo_28127" data-name="Rectángulo 28127" width="198.23" height="48.349" transform="translate(61.521)" stroke="#00223d" stroke-miterlimit="10" stroke-width="2" fill="url(#linear-gradient)"/>
      <rect id="Rectángulo_28128" data-name="Rectángulo 28128" width="162.114" height="29.106" transform="translate(79.606 86.289)" stroke="#00223d" stroke-miterlimit="10" stroke-width="2" fill="url(#linear-gradient)"/>
      <rect id="Rectángulo_28129" data-name="Rectángulo 28129" width="134.46" height="26.649" transform="translate(93.432 139.291)" stroke="#00223d" stroke-miterlimit="10" stroke-width="2" fill="url(#linear-gradient)"/>
      <path id="Trazado_95211" data-name="Trazado 95211" d="M205.089,380.071l71.372-33.614,74.6,33.614-72.984,33.614Z" transform="translate(-115.71 -151.911)" stroke="#00223d" stroke-miterlimit="10" stroke-width="2" fill="url(#linear-gradient)"/>
      <path id="Trazado_95212" data-name="Trazado 95212" d="M434.141,335.931H580.109V423.88s-31.312-23.484-72.984,0-72.984,0-72.984,0Z" transform="translate(-94.269 -152.896)" stroke="#00223d" stroke-miterlimit="10" stroke-width="2" fill="url(#linear-gradient)"/>
      <text id="Recopilación_de_síntomas" data-name="Recopilación de síntomas" transform="translate(155.944 26.566)" fill="#00223d" font-size="10" font-family="Roboto-Black, Roboto" font-weight="800"><tspan x="-57.717" y="0">Recopilación de síntomas</tspan></text>
      <text id="Ubicación_de_la_anomalía_" data-name="Ubicación de la anomalía " transform="translate(156.038 103.968)" fill="#1a1818" font-size="10" font-family="Roboto-Black, Roboto" font-weight="800"><tspan x="-57.498" y="0">Ubicación de la anomalía </tspan></text>
      <text id="Corrección_del_problema" data-name="Corrección del problema" transform="translate(156.225 154.852)" fill="#1a1818" font-size="10" font-family="Roboto-Black, Roboto" font-weight="800"><tspan x="-54.565" y="0">Corrección del problema</tspan></text>
      <text id="Verificación" transform="translate(158.846 230.292)" fill="#1a1818" font-size="10" font-family="Roboto-Black, Roboto" font-weight="800"><tspan x="-26.765" y="0">Verificación</tspan></text>
      <text id="Verificación_incorrecta" data-name="Verificación incorrecta" transform="translate(50 254.247)" fill="#1a1818" font-size="10" font-family="Roboto-Regular, Roboto"><tspan x="-50.317" y="0">Verificación incorrecta</tspan></text>
      <text id="Verificación_correcta" data-name="Verificación correcta" transform="translate(273.892 254.247)" fill="#1a1818" font-size="10" font-family="Roboto-Regular, Roboto"><tspan x="-46.216" y="0">Verificación correcta</tspan></text>
      <text id="Documentar_incidencia" data-name="Documentar incidencia" transform="translate(412.665 230.292)" fill="#1a1818" font-size="10" font-family="Roboto-Black, Roboto" font-weight="800"><tspan x="-51.519" y="0">Documentar incidencia</tspan></text>
    </g>
    <path id="Trazado_95213" data-name="Trazado 95213" d="M-12311.6-11010.122h-28.176v-76.832h33.048" transform="translate(12816.076 11712.972)" fill="none" stroke="#37a3a5" stroke-width="2"/>
    <path id="Trazado_95204" data-name="Trazado 95204" d="M0,7.049H14.132L7.066,0Z" transform="translate(510.67 618.952) rotate(90)" fill="#37a3a5"/>
    <path id="Trazado_95221" data-name="Trazado 95221" d="M0,7.049H14.132L7.066,0Z" transform="translate(756.732 695.785) rotate(90)" fill="#37a3a5"/>
    <path id="Trazado_95214" data-name="Trazado 95214" d="M-12248.668-11181.552v35.748" transform="translate(12826.791 11705.615)" fill="none" stroke="#37a3a5" stroke-width="2"/>
    <path id="Trazado_95217" data-name="Trazado 95217" d="M-12248.668-11181.552v21.4" transform="translate(12826.791 11772.455)" fill="none" stroke="#37a3a5" stroke-width="2"/>
    <path id="Trazado_95219" data-name="Trazado 95219" d="M-12248.668-11181.551v24.49" transform="translate(12826.791 11822.952)" fill="none" stroke="#37a3a5" stroke-width="2"/>
    <path id="Trazado_95215" data-name="Trazado 95215" d="M0,7.049H14.132L7.066,0Z" transform="translate(585.189 560.645) rotate(-180)" fill="#37a3a5"/>
    <path id="Trazado_95216" data-name="Trazado 95216" d="M0,7.049H14.132L7.066,0Z" transform="translate(585.189 613.138) rotate(-180)" fill="#37a3a5"/>
    <path id="Trazado_95218" data-name="Trazado 95218" d="M0,7.049H14.132L7.066,0Z" transform="translate(585.189 668.912) rotate(-180)" fill="#37a3a5"/>
    <path id="Trazado_95220" data-name="Trazado 95220" d="M-12177.59-11016.7h101.627" transform="translate(12831.258 11719.549)" fill="none" stroke="#37a3a5" stroke-width="2"/>
  </g>
</svg>
