<svg xmlns="http://www.w3.org/2000/svg" width="79" height="79" viewBox="0 0 79 79">
  <g id="Icon" transform="translate(0.308 -0.238)">
    <circle id="Base" cx="39.5" cy="39.5" r="39.5" transform="translate(-0.308 0.238)" fill="#fff"/>
    <g id="Grupo_29092" data-name="Grupo 29092" transform="translate(539.435 -52.039)">
      <path id="Trazado_68988" data-name="Trazado 68988" d="M-488.246,77.671c.191.059.388.106.574.18a2.777,2.777,0,0,1,1.928,2.569c.062,1.38.051,2.765.016,4.146a2.862,2.862,0,0,1-2.143,2.755c-.168.051-.227.126-.218.3.014.253-.074.554.035.748.093.165.407.2.617.307a2.775,2.775,0,0,1,1.693,2.455c.054,1.411.05,2.826.01,4.237a2.853,2.853,0,0,1-2.116,2.681c-.173.053-.252.125-.239.313.016.243-.075.534.031.718.1.166.4.214.6.317a2.779,2.779,0,0,1,1.712,2.474c.052,1.431.054,2.867,0,4.3a2.884,2.884,0,0,1-2.839,2.727c-1.3.022-2.6.007-3.9.005-.346,0-.557-.187-.553-.472s.21-.45.568-.451c1.2,0,2.4-.026,3.6.008a2.106,2.106,0,0,0,2.23-2.226c-.047-1.188-.007-2.378-.013-3.568a2.011,2.011,0,0,0-2.145-2.133q-11.39,0-22.78,0a2.04,2.04,0,0,0-2.156,2.165q0,1.784,0,3.568a2.05,2.05,0,0,0,2.2,2.185h16.8a3.094,3.094,0,0,1,.335.005.424.424,0,0,1,.418.438.433.433,0,0,1-.387.47,1.306,1.306,0,0,1-.274.009h-16.895a2.955,2.955,0,0,1-3.125-3.111c0-1.108.039-2.218-.011-3.324a3.074,3.074,0,0,1,2.375-3.291V98.169a8.725,8.725,0,0,1-1.015-.488,2.8,2.8,0,0,1-1.344-2.425c-.019-1.27-.009-2.541-.006-3.812a2.948,2.948,0,0,1,2.2-2.942c.049-.015.1-.033.162-.055V87.384a3.016,3.016,0,0,1-1.722-1.071,2.853,2.853,0,0,1-.634-1.805q-.008-1.921,0-3.842a2.942,2.942,0,0,1,2.421-2.942.949.949,0,0,0,.14-.052Zm-23.1,10.733h5.459a1.434,1.434,0,0,1,.3.01.432.432,0,0,1,.381.474.427.427,0,0,1-.395.431,1.869,1.869,0,0,1-.3.008c-1.9,0-3.8,0-5.7,0a2.038,2.038,0,0,0-2.131,2.13q-.007,1.814,0,3.629a2.039,2.039,0,0,0,2.163,2.159q11.39,0,22.78,0a2.024,2.024,0,0,0,2.14-2.143q.006-1.8,0-3.6a2.742,2.742,0,0,0-.046-.575,2.018,2.018,0,0,0-2.088-1.6q-7.365,0-14.729,0a2.458,2.458,0,0,1-.335-.007.428.428,0,0,1-.4-.454.43.43,0,0,1,.4-.455,2.079,2.079,0,0,1,.3-.006l14.15,0h.347v-.941h-22.3Zm11.152-1.891q5.716,0,11.432,0a2.014,2.014,0,0,0,2.109-2.079q.013-1.875,0-3.75a2.011,2.011,0,0,0-2.1-2.088q-11.432-.005-22.863,0a2.035,2.035,0,0,0-2.118,2.111q-.009,1.8,0,3.6a2.044,2.044,0,0,0,2.23,2.209Zm11.148,12.607v-.933h-22.3v.933Z" transform="translate(0)" fill="#00223d"/>
      <path id="Trazado_68989" data-name="Trazado 68989" d="M-360.285,517.714H-367.9a2.158,2.158,0,0,1-.335-.01.43.43,0,0,1-.4-.461.436.436,0,0,1,.384-.444,1.142,1.142,0,0,1,.243-.008l15.452,0a1.53,1.53,0,0,1,.274.008.437.437,0,0,1,.4.465.429.429,0,0,1-.414.445,2.382,2.382,0,0,1-.274.007Z" transform="translate(-137.113 -412.28)" fill="#00223d"/>
      <path id="Trazado_68990" data-name="Trazado 68990" d="M-360.279,485.5h7.648c.486,0,.716.152.711.466s-.237.461-.722.461l-15.3,0a2.074,2.074,0,0,1-.334-.01.455.455,0,0,1-.4-.493.431.431,0,0,1,.441-.419c.345-.012.691-.009,1.036-.009h6.917Z" transform="translate(-137.073 -382.901)" fill="#00223d"/>
      <path id="Trazado_68991" data-name="Trazado 68991" d="M-463.971,479.819a1.886,1.886,0,0,1-1.875,1.883,1.886,1.886,0,0,1-1.879-1.907,1.876,1.876,0,0,1,1.888-1.864A1.877,1.877,0,0,1-463.971,479.819Zm-.929-.006a.957.957,0,0,0-.944-.954.963.963,0,0,0-.956.944.959.959,0,0,0,.961.969A.957.957,0,0,0-464.9,479.813Z" transform="translate(-44.078 -375.799)" fill="#00223d"/>
      <path id="Trazado_68994" data-name="Trazado 68994" d="M-437.855,414.292h-22.3v-.933h22.3Z" transform="translate(-51.188 -315.173)" fill="#fff"/>
      <path id="Trazado_68995" data-name="Trazado 68995" d="M-450.663,494.058a.957.957,0,0,1-.939.959.958.958,0,0,1-.961-.969.963.963,0,0,1,.956-.944A.957.957,0,0,1-450.663,494.058Z" transform="translate(-58.313 -390.044)" fill="#37a3a5"/>
      <path id="Trazado_68996" data-name="Trazado 68996" d="M-360.312,342.129h-7.618c-.1,0-.2,0-.3-.005a.456.456,0,0,1-.443-.451.464.464,0,0,1,.435-.464,2.1,2.1,0,0,1,.244,0l15.359,0c.485,0,.716.148.72.462s-.224.465-.712.465Z" transform="translate(-137.071 -247.426)" fill="#00223d"/>
      <path id="Trazado_68997" data-name="Trazado 68997" d="M-360.28,310.85h-7.649a1.381,1.381,0,0,1-.333-.017.435.435,0,0,1-.363-.49.416.416,0,0,1,.413-.411c.263-.016.528-.011.792-.011l14.841,0c.484,0,.715.155.705.471s-.232.454-.7.454h-7.71Z" transform="translate(-137.119 -218.055)" fill="#00223d"/>
      <path id="Trazado_68998" data-name="Trazado 68998" d="M-467.729,304.192a1.88,1.88,0,0,1,1.91-1.874,1.882,1.882,0,0,1,1.844,1.911,1.883,1.883,0,0,1-1.9,1.86A1.883,1.883,0,0,1-467.729,304.192Zm.927.024a.963.963,0,0,0,.956.945.961.961,0,0,0,.944-.986.955.955,0,0,0-.968-.928A.961.961,0,0,0-466.8,304.217Z" transform="translate(-44.074 -210.918)" fill="#00223d"/>
      <path id="Trazado_68999" data-name="Trazado 68999" d="M-360.31,166.509H-367.9c-.112,0-.224,0-.335-.006a.437.437,0,0,1-.436-.426.454.454,0,0,1,.407-.487,1.758,1.758,0,0,1,.274-.009l15.388,0a1.676,1.676,0,0,1,.274.009.464.464,0,0,1,.407.49.433.433,0,0,1-.439.423c-.375.012-.751.01-1.127.01h-6.826Z" transform="translate(-137.079 -82.535)" fill="#00223d"/>
      <path id="Trazado_69000" data-name="Trazado 69000" d="M-362.747,134.331h5.087c.1,0,.2,0,.3.006a.439.439,0,0,1,.428.434.461.461,0,0,1-.417.48,2.034,2.034,0,0,1-.274.007h-10.327a1.407,1.407,0,0,1-.273-.01.436.436,0,0,1-.394-.465.424.424,0,0,1,.413-.444,4.687,4.687,0,0,1,.487-.01h4.965Z" transform="translate(-137.133 -53.195)" fill="#00223d"/>
      <path id="Trazado_69001" data-name="Trazado 69001" d="M-467.761,128.554a1.893,1.893,0,0,1,1.894-1.865,1.887,1.887,0,0,1,1.861,1.927,1.878,1.878,0,0,1-1.909,1.845A1.881,1.881,0,0,1-467.761,128.554Zm2.828.035a.952.952,0,0,0-.929-.966.958.958,0,0,0-.97.96.964.964,0,0,0,.947.954A.964.964,0,0,0-464.933,128.589Z" transform="translate(-44.044 -46.022)" fill="#00223d"/>
      <path id="Trazado_69002" data-name="Trazado 69002" d="M-160.066,135.29c-.5,0-.995,0-1.492,0-.357,0-.562-.169-.569-.453s.2-.47.577-.471q1.492,0,2.984,0c.356,0,.565.171.574.45s-.217.473-.582.475C-159.071,135.292-159.569,135.291-160.066,135.29Z" transform="translate(-330.999 -53.228)" fill="#00223d"/>
      <path id="Trazado_69003" data-name="Trazado 69003" d="M-452.564,318.494a.961.961,0,0,1,.931-.969.955.955,0,0,1,.969.928.961.961,0,0,1-.944.986A.963.963,0,0,1-452.564,318.494Z" transform="translate(-58.312 -225.195)" fill="#37a3a5"/>
      <path id="Trazado_69004" data-name="Trazado 69004" d="M-450.67,142.936a.964.964,0,0,1-.953.947.964.964,0,0,1-.947-.954.958.958,0,0,1,.97-.96A.952.952,0,0,1-450.67,142.936Z" transform="translate(-58.306 -60.369)" fill="#37a3a5"/>
    </g>
  </g>
</svg>
