<svg xmlns="http://www.w3.org/2000/svg" xmlns:xlink="http://www.w3.org/1999/xlink" width="803.707" height="87.602" viewBox="0 0 803.707 87.602">
  <defs>
    <filter id="Rectángulo_3802" x="43.532" y="0" width="760.175" height="87.602" filterUnits="userSpaceOnUse">
      <feOffset dx="3" dy="2" input="SourceAlpha"/>
      <feGaussianBlur stdDeviation="1" result="blur"/>
      <feFlood flood-color="#325a6a" flood-opacity="0.549"/>
      <feComposite operator="in" in2="blur"/>
      <feComposite in="SourceGraphic"/>
    </filter>
  </defs>
  <g id="Grupo_41887" data-name="Grupo 41887" transform="translate(-284.146 -571.102)">
    <g id="Grupo_28764" data-name="Grupo 28764" transform="translate(60.734 -416.171)">
      <g transform="matrix(1, 0, 0, 1, 223.41, 987.27)" filter="url(#Rectángulo_3802)">
        <rect id="Rectángulo_3802-2" data-name="Rectángulo 3802" width="754.175" height="81.602" rx="10.632" transform="translate(43.53 1)" fill="#00223d"/>
      </g>
    </g>
    <text id="Uno_de_los_principales_parámetros_que_es_necesario_configurar_en_cualquier_dispositivo_conectado_a_una_red_es_su_dirección_IP." data-name="Uno de los principales parámetros que es necesario configurar en cualquier dispositivo conectado a una red es su dirección IP." transform="translate(396.528 587.023)" fill="#fff" font-size="22" font-family="Roboto-Black, Roboto" font-weight="800"><tspan x="0" y="21">Uno de los principales parámetros que es necesario configurar en </tspan><tspan x="0" y="45">cualquier dispositivo conectado a una red es su dirección IP.</tspan></text>
    <g id="Grupo_28765" data-name="Grupo 28765" transform="translate(-985.008 986.532)">
      <g id="Grupo_26524" data-name="Grupo 26524" transform="translate(1269.154 -402.966)">
        <path id="Trazado_67310" data-name="Trazado 67310" d="M1355.564-375.6h2.721a1.012,1.012,0,0,1,1.014,1.012v56.957a1.012,1.012,0,0,1-1.014,1.012l-36.069,0a1.459,1.459,0,0,0-1.352.882,4,4,0,0,1-3.695,2.467,4.01,4.01,0,0,1-3.7-2.469,1.454,1.454,0,0,0-1.35-.882h-36.069a1.013,1.013,0,0,1-1.013-1.012v-56.957a1.013,1.013,0,0,1,1.013-1.012h2.5l38.481,6.9Z" transform="translate(-1273.639 377)" fill="#37a3a5"/>
        <path id="Trazado_67311" data-name="Trazado 67311" d="M1312.685-316.349a5.4,5.4,0,0,1-4.991-3.331l-36.125-.02a2.417,2.417,0,0,1-2.415-2.415v-56.956a2.417,2.417,0,0,1,2.415-2.415h2.5a1.393,1.393,0,0,1,.247.022l38.234,6.856,38.284-6.857a1.412,1.412,0,0,1,.247-.022h2.722a2.418,2.418,0,0,1,2.416,2.415v56.956a2.418,2.418,0,0,1-2.416,2.415l-36.069,0A5.521,5.521,0,0,1,1312.685-316.349Zm-40.727-6.156h35.679a2.845,2.845,0,0,1,2.646,1.748,2.6,2.6,0,0,0,2.4,1.6,2.6,2.6,0,0,0,2.4-1.6,2.853,2.853,0,0,1,2.646-1.744l35.681,0v-56.177H1351.2L1312.8-371.8a1.4,1.4,0,0,1-.495,0l-38.359-6.879h-1.984Z" transform="translate(-1269.154 381.486)" fill="#00223d"/>
      </g>
      <g id="Grupo_26525" data-name="Grupo 26525" transform="translate(1276.176 -409.482)">
        <path id="Trazado_67312" data-name="Trazado 67312" d="M1339.619-336.572c-15.413-18.763-35.1-14.393-35.1-14.393v-51.6s19.7-4.816,35.108,13.948Z" transform="translate(-1303.12 404.483)" fill="#fff"/>
        <path id="Trazado_67313" data-name="Trazado 67313" d="M1335.135-339.531a1.4,1.4,0,0,1-1.084-.512c-14.651-17.835-32.94-14.083-33.711-13.914a1.405,1.405,0,0,1-1.18-.277,1.4,1.4,0,0,1-.524-1.092v-51.6a1.4,1.4,0,0,1,1.069-1.362c.205-.05,20.735-4.8,36.525,14.42a1.405,1.405,0,0,1,.318.89l-.011,52.045a1.4,1.4,0,0,1-.93,1.32A1.4,1.4,0,0,1,1335.135-339.531Zm-30.065-17.6a39.345,39.345,0,0,1,28.663,12.513l.01-47.851c-12.744-15.184-28.119-13.969-32.3-13.3v48.823A33.764,33.764,0,0,1,1305.069-357.135Z" transform="translate(-1298.635 408.844)" fill="#00223d"/>
      </g>
      <g id="Grupo_26526" data-name="Grupo 26526" transform="translate(1311.284 -409.681)">
        <path id="Trazado_67314" data-name="Trazado 67314" d="M1451.925-337.265c15.528-18.9,35.108-14.177,35.108-14.177v-51.987s-19.58-4.726-35.108,14.178Z" transform="translate(-1450.523 405.318)" fill="#fff"/>
        <path id="Trazado_67315" data-name="Trazado 67315" d="M1447.441-340.226a1.4,1.4,0,0,1-.472-.082,1.4,1.4,0,0,1-.929-1.32v-51.986a1.4,1.4,0,0,1,.318-.89c15.9-19.36,36.315-14.7,36.52-14.651a1.4,1.4,0,0,1,1.073,1.363v51.987a1.4,1.4,0,0,1-.535,1.1,1.4,1.4,0,0,1-1.2.262c-.764-.182-18.943-4.256-33.694,13.7A1.4,1.4,0,0,1,1447.441-340.226Zm1.4-52.882v47.79c12.695-13.211,27.355-12.749,32.3-12.134v-49.178C1476.972-407.281,1461.675-408.406,1448.843-393.108Z" transform="translate(-1446.039 409.681)" fill="#00223d"/>
      </g>
      <g id="Grupo_26527" data-name="Grupo 26527" transform="translate(1333.945 -396.27)">
        <path id="Trazado_67316" data-name="Trazado 67316" d="M1542.587-350.087a1.4,1.4,0,0,1-1.378-1.153,1.4,1.4,0,0,1,1.131-1.629,31.5,31.5,0,0,1,7.142-.467,1.4,1.4,0,0,1,1.331,1.47,1.4,1.4,0,0,1-1.47,1.331,28.623,28.623,0,0,0-6.505.426A1.394,1.394,0,0,1,1542.587-350.087Z" transform="translate(-1541.187 353.374)" fill="#00223d"/>
      </g>
      <g id="Grupo_26528" data-name="Grupo 26528" transform="translate(1317.984 -394.776)">
        <path id="Trazado_67317" data-name="Trazado 67317" d="M1475.576-337.712a1.4,1.4,0,0,1-1.028-.448,1.4,1.4,0,0,1,.074-1.982,35.522,35.522,0,0,1,12.427-6.892,1.4,1.4,0,0,1,1.762.91,1.4,1.4,0,0,1-.91,1.762,33.082,33.082,0,0,0-11.37,6.275A1.4,1.4,0,0,1,1475.576-337.712Z" transform="translate(-1474.173 347.1)" fill="#00223d"/>
      </g>
      <g id="Grupo_26529" data-name="Grupo 26529" transform="translate(1317.984 -389.57)">
        <path id="Trazado_67318" data-name="Trazado 67318" d="M1475.575-314.359a1.4,1.4,0,0,1-1.028-.448,1.4,1.4,0,0,1,.074-1.982c.4-.372,9.966-9.109,23.808-8.414a1.4,1.4,0,0,1,1.331,1.47,1.4,1.4,0,0,1-1.47,1.331c-12.671-.637-21.671,7.585-21.761,7.668A1.4,1.4,0,0,1,1475.575-314.359Z" transform="translate(-1474.172 325.242)" fill="#00223d"/>
      </g>
      <g id="Grupo_26530" data-name="Grupo 26530" transform="translate(1317.984 -382.868)">
        <path id="Trazado_67319" data-name="Trazado 67319" d="M1475.577-286.222a1.4,1.4,0,0,1-1.029-.449,1.4,1.4,0,0,1,.074-1.98c.4-.372,9.983-9.1,23.809-8.414a1.4,1.4,0,0,1,1.331,1.471,1.4,1.4,0,0,1-1.47,1.331c-12.626-.635-21.672,7.586-21.762,7.669A1.4,1.4,0,0,1,1475.577-286.222Z" transform="translate(-1474.174 297.103)" fill="#00223d"/>
      </g>
      <g id="Grupo_26531" data-name="Grupo 26531" transform="translate(1317.984 -376.837)">
        <path id="Trazado_67320" data-name="Trazado 67320" d="M1475.577-260.9a1.4,1.4,0,0,1-1.029-.449,1.4,1.4,0,0,1,.074-1.98c.4-.372,9.983-9.1,23.809-8.414a1.4,1.4,0,0,1,1.331,1.47,1.4,1.4,0,0,1-1.47,1.33c-12.626-.633-21.672,7.586-21.762,7.67A1.4,1.4,0,0,1,1475.577-260.9Z" transform="translate(-1474.174 271.78)" fill="#00223d"/>
      </g>
      <g id="Grupo_26532" data-name="Grupo 26532" transform="translate(1324.351 -370.805)">
        <path id="Trazado_67321" data-name="Trazado 67321" d="M1502.309-239.844a1.4,1.4,0,0,1-1.245-.755,1.4,1.4,0,0,1,.6-1.891,33.819,33.819,0,0,1,17.133-3.925,1.4,1.4,0,0,1,1.33,1.471,1.41,1.41,0,0,1-1.47,1.33,31.017,31.017,0,0,0-15.7,3.612A1.4,1.4,0,0,1,1502.309-239.844Z" transform="translate(-1500.905 246.453)" fill="#00223d"/>
      </g>
      <g id="Grupo_26533" data-name="Grupo 26533" transform="translate(1317.984 -365.448)">
        <path id="Trazado_67322" data-name="Trazado 67322" d="M1475.577-218.438a1.4,1.4,0,0,1-1.029-.449,1.4,1.4,0,0,1,.074-1.98,29.047,29.047,0,0,1,3.876-2.876,1.4,1.4,0,0,1,1.936.432,1.4,1.4,0,0,1-.432,1.936,26.868,26.868,0,0,0-3.473,2.566A1.4,1.4,0,0,1,1475.577-218.438Z" transform="translate(-1474.174 223.962)" fill="#00223d"/>
      </g>
      <g id="Grupo_26534" data-name="Grupo 26534" transform="translate(1282.466 -396.271)">
        <path id="Trazado_67323" data-name="Trazado 67323" d="M1349.232-342.495a1.4,1.4,0,0,1-.952-.372c-.09-.083-9.146-8.3-21.764-7.669a1.411,1.411,0,0,1-1.47-1.331,1.4,1.4,0,0,1,1.331-1.47c13.824-.692,23.409,8.042,23.81,8.414a1.4,1.4,0,0,1,.074,1.98A1.4,1.4,0,0,1,1349.232-342.495Z" transform="translate(-1325.044 353.377)" fill="#00223d"/>
      </g>
      <g id="Grupo_26535" data-name="Grupo 26535" transform="translate(1282.466 -389.57)">
        <path id="Trazado_67324" data-name="Trazado 67324" d="M1349.232-314.359a1.4,1.4,0,0,1-.952-.373c-.09-.083-9.146-8.3-21.764-7.669a1.411,1.411,0,0,1-1.47-1.331,1.4,1.4,0,0,1,1.331-1.471c13.824-.692,23.409,8.042,23.81,8.414a1.4,1.4,0,0,1,.074,1.98A1.4,1.4,0,0,1,1349.232-314.359Z" transform="translate(-1325.044 325.241)" fill="#00223d"/>
      </g>
      <g id="Grupo_26536" data-name="Grupo 26536" transform="translate(1282.467 -382.868)">
        <path id="Trazado_67325" data-name="Trazado 67325" d="M1332.5-293.945a1.443,1.443,0,0,1-.216-.016,28.483,28.483,0,0,0-5.759-.3,1.4,1.4,0,0,1-1.471-1.33,1.4,1.4,0,0,1,1.33-1.471,31.363,31.363,0,0,1,6.327.33,1.4,1.4,0,0,1,1.172,1.6A1.4,1.4,0,0,1,1332.5-293.945Z" transform="translate(-1325.05 297.102)" fill="#00223d"/>
      </g>
      <g id="Grupo_26537" data-name="Grupo 26537" transform="translate(1292.477 -381.639)">
        <path id="Trazado_67326" data-name="Trazado 67326" d="M1381.254-282.29a1.4,1.4,0,0,1-.952-.372,33.44,33.44,0,0,0-12.211-6.53,1.4,1.4,0,0,1-.959-1.736,1.4,1.4,0,0,1,1.736-.958,35.648,35.648,0,0,1,13.34,7.168,1.4,1.4,0,0,1,.074,1.98A1.4,1.4,0,0,1,1381.254-282.29Z" transform="translate(-1367.077 291.943)" fill="#00223d"/>
      </g>
      <g id="Grupo_26538" data-name="Grupo 26538" transform="translate(1282.466 -376.837)">
        <path id="Trazado_67327" data-name="Trazado 67327" d="M1349.232-260.9a1.4,1.4,0,0,1-.952-.372c-.09-.083-9.146-8.3-21.764-7.67a1.409,1.409,0,0,1-1.47-1.33,1.4,1.4,0,0,1,1.331-1.471c13.824-.691,23.409,8.042,23.81,8.414a1.4,1.4,0,0,1,.074,1.98A1.4,1.4,0,0,1,1349.232-260.9Z" transform="translate(-1325.044 271.782)" fill="#00223d"/>
      </g>
      <g id="Grupo_26539" data-name="Grupo 26539" transform="translate(1282.466 -370.806)">
        <path id="Trazado_67328" data-name="Trazado 67328" d="M1349.232-235.577a1.4,1.4,0,0,1-.952-.372c-.09-.083-9.146-8.3-21.764-7.669a1.412,1.412,0,0,1-1.47-1.331,1.4,1.4,0,0,1,1.331-1.471c13.824-.69,23.409,8.042,23.81,8.414a1.4,1.4,0,0,1,.074,1.98A1.4,1.4,0,0,1,1349.232-235.577Z" transform="translate(-1325.044 246.459)" fill="#00223d"/>
      </g>
    </g>
  </g>
</svg>
