<svg xmlns="http://www.w3.org/2000/svg" width="405" height="187" viewBox="0 0 405 187">
  <g id="Grupo_41968" data-name="Grupo 41968" transform="translate(-761 -7921)">
    <g id="Grupo_41966" data-name="Grupo 41966" transform="translate(0 9)">
      <g id="Elipse_3789" data-name="Elipse 3789" transform="translate(778 7936)" fill="#fff" stroke="#00223d" stroke-width="2">
        <circle cx="13" cy="13" r="13" stroke="none"/>
        <circle cx="13" cy="13" r="12" fill="none"/>
      </g>
      <g id="Elipse_3790" data-name="Elipse 3790" transform="translate(884 7921)" fill="#fff" stroke="#00223d" stroke-width="2">
        <circle cx="13" cy="13" r="13" stroke="none"/>
        <circle cx="13" cy="13" r="12" fill="none"/>
      </g>
      <g id="Elipse_3791" data-name="Elipse 3791" transform="translate(967 7969)" fill="#fff" stroke="#00223d" stroke-width="2">
        <ellipse cx="13" cy="12.5" rx="13" ry="12.5" stroke="none"/>
        <ellipse cx="13" cy="12.5" rx="12" ry="11.5" fill="none"/>
      </g>
      <g id="Elipse_3792" data-name="Elipse 3792" transform="translate(843 7975)" fill="#fff" stroke="#00223d" stroke-width="2">
        <circle cx="13" cy="13" r="13" stroke="none"/>
        <circle cx="13" cy="13" r="12" fill="none"/>
      </g>
      <g id="Elipse_3793" data-name="Elipse 3793" transform="translate(850 8072)" fill="#fff" stroke="#00223d" stroke-width="2">
        <ellipse cx="13" cy="13.5" rx="13" ry="13.5" stroke="none"/>
        <ellipse cx="13" cy="13.5" rx="12" ry="12.5" fill="none"/>
      </g>
      <g id="Elipse_3794" data-name="Elipse 3794" transform="translate(768 8051)" fill="#37a3a5" stroke="#00223d" stroke-width="2">
        <ellipse cx="12.5" cy="13" rx="12.5" ry="13" stroke="none"/>
        <ellipse cx="12.5" cy="13" rx="11.5" ry="12" fill="none"/>
      </g>
      <path id="Trazado_95505" data-name="Trazado 95505" d="M-12163-3471.96l7.283-90.213" transform="translate(12945.036 11523.038)" fill="none" stroke="#00223d" stroke-width="2"/>
      <path id="Trazado_95506" data-name="Trazado 95506" d="M-12146.874-3574.761l82.342-8.86" transform="translate(12948.355 11516.914)" fill="none" stroke="#00223d" stroke-width="2"/>
      <path id="Trazado_95507" data-name="Trazado 95507" d="M-12064.137-3579.023l62.074,35.258" transform="translate(12971.983 11518.227)" fill="none" stroke="#00223d" stroke-width="2"/>
      <path id="Trazado_95508" data-name="Trazado 95508" d="M-12089-3446.746l98.153-90.677" transform="translate(12964.884 11530.106)" fill="none" stroke="#00223d" stroke-width="2"/>
      <path id="Trazado_95509" data-name="Trazado 95509" d="M-12153-3479.675l56.78,17.112" transform="translate(12946.606 11546.599)" fill="none" stroke="#00223d" stroke-width="2"/>
      <path id="Trazado_95510" data-name="Trazado 95510" d="M-12156.335-3475.485l57.96-59.321" transform="translate(12945.653 11530.854)" fill="none" stroke="#00223d" stroke-width="2"/>
      <path id="Trazado_95511" data-name="Trazado 95511" d="M-12099-3457v-75.558" transform="translate(12962.027 11529.933)" fill="none" stroke="#00223d" stroke-width="2"/>
      <path id="Trazado_95512" data-name="Trazado 95512" d="M-12146.092-3567.284l43.112,28.81" transform="translate(12948.579 11521.578)" fill="none" stroke="#00223d" stroke-width="2"/>
      <path id="Trazado_95513" data-name="Trazado 95513" d="M-12094-3538.7l100.728-5.36" transform="translate(12961.271 11528.21)" fill="none" stroke="#00223d" stroke-width="2"/>
      <text id="_2" data-name="2" transform="translate(825 7963)" fill="#00223d" font-size="8" font-family="Roboto-Regular, Roboto"><tspan x="0" y="0">2</tspan></text>
      <text id="_9" data-name="9" transform="translate(838 7932)" fill="#00223d" font-size="8" font-family="Roboto-Regular, Roboto"><tspan x="0" y="0">9</tspan></text>
      <text id="_9-2" data-name="9" transform="translate(814 8020)" fill="#00223d" font-size="8" font-family="Roboto-Regular, Roboto"><tspan x="0" y="0">9</tspan></text>
      <text id="_7" data-name="7" transform="translate(816 8085)" fill="#00223d" font-size="8" font-family="Roboto-Regular, Roboto"><tspan x="0" y="0">7</tspan></text>
      <text id="_14" data-name="14" transform="translate(771 8007)" fill="#00223d" font-size="9" font-family="Roboto-Regular, Roboto"><tspan x="0" y="0">14</tspan></text>
      <text id="_6" data-name="6" transform="translate(789 7953)" fill="#00223d" font-size="8" font-family="Roboto-Regular, Roboto"><tspan x="0" y="0">6</tspan></text>
      <text id="_5" data-name="5" transform="translate(893 7936)" fill="#00223d" font-size="8" font-family="Roboto-Regular, Roboto"><tspan x="0" y="0">5</tspan></text>
      <text id="_4" data-name="4" transform="translate(977 7985)" fill="#00223d" font-size="8" font-family="Roboto-Regular, Roboto"><tspan x="0" y="0">4</tspan></text>
      <text id="_2-2" data-name="2" transform="translate(861 8087)" fill="#00223d" font-size="8" font-family="Roboto-Regular, Roboto"><tspan x="0" y="0">2</tspan></text>
      <text id="_1" data-name="1" transform="translate(778 8067)" fill="#fff" font-size="8" font-family="Roboto-Regular, Roboto"><tspan x="0" y="0">1</tspan></text>
      <text id="_3" data-name="3" transform="translate(854 7990)" fill="#00223d" font-size="8" font-family="Roboto-Regular, Roboto"><tspan x="0" y="0">3</tspan></text>
      <text id="_" data-name="∞ " transform="translate(841 8077)" fill="#21587b" font-size="10" font-family="Roboto-Black, Roboto" font-weight="800"><tspan x="0" y="0">∞ </tspan></text>
      <text id="_2-3" data-name="∞ " transform="translate(769 7941)" fill="#21587b" font-size="10" font-family="Roboto-Black, Roboto" font-weight="800"><tspan x="0" y="0">∞ </tspan></text>
      <text id="_3-2" data-name="∞ " transform="translate(840 7976)" fill="#21587b" font-size="10" font-family="Roboto-Black, Roboto" font-weight="800"><tspan x="0" y="0">∞ </tspan></text>
      <text id="_4-2" data-name="∞ " transform="translate(876 7922)" fill="#21587b" font-size="10" font-family="Roboto-Black, Roboto" font-weight="800"><tspan x="0" y="0">∞ </tspan></text>
      <text id="_5-2" data-name="∞ " transform="translate(962 7967)" fill="#21587b" font-size="10" font-family="Roboto-Black, Roboto" font-weight="800"><tspan x="0" y="0">∞ </tspan></text>
      <text id="a" transform="translate(767 8083)" fill="#00223d" font-size="8" font-family="Roboto-Regular, Roboto"><tspan x="0" y="0">a</tspan></text>
      <text id="_0" data-name="0" transform="translate(761 8060)" fill="#37a3a5" font-size="8" font-family="Roboto-Regular, Roboto"><tspan x="0" y="0">0</tspan></text>
      <text id="b" transform="translate(912 7929)" fill="#00223d" font-size="8" font-family="Roboto-Regular, Roboto"><tspan x="0" y="0">b</tspan></text>
      <text id="_6-2" data-name="6" transform="translate(938 7951)" fill="#00223d" font-size="8" font-family="Roboto-Regular, Roboto"><tspan x="0" y="0">6</tspan></text>
      <text id="_11" data-name="11" transform="translate(911 7982)" fill="#00223d" font-size="9" font-family="Roboto-Regular, Roboto"><tspan x="0" y="0">11</tspan></text>
      <text id="_15" data-name="15" transform="translate(911 8038)" fill="#00223d" font-size="9" font-family="Roboto-Regular, Roboto"><tspan x="0" y="0">15</tspan></text>
      <text id="_10" data-name="10" transform="translate(850 8041)" fill="#00223d" font-size="9" font-family="Roboto-Regular, Roboto"><tspan x="0" y="0">10</tspan></text>
    </g>
    <rect id="Rectángulo_28164" data-name="Rectángulo 28164" width="200" height="28" rx="5" transform="translate(952 8042)" fill="#00223d"/>
    <text id="OSPF_es_un_protocolo_que_utiliza_el_costo_como_métrica" data-name="OSPF es un protocolo que 
utiliza el costo como métrica" transform="translate(958 8061)" fill="#fff" font-size="16" font-family="Roboto-Black, Roboto" font-weight="800"><tspan x="0" y="0">OSPF es un protocolo que </tspan><tspan fill="#00223d" font-family="Roboto-Regular, Roboto" font-weight="400"><tspan x="0" y="24">utiliza el costo como métrica</tspan></tspan></text>
  </g>
</svg>
