<svg xmlns="http://www.w3.org/2000/svg" xmlns:xlink="http://www.w3.org/1999/xlink" width="349.994" height="265.342" viewBox="0 0 349.994 265.342">
  <defs>
    <linearGradient id="linear-gradient" x1="0.5" x2="0.5" y2="1" gradientUnits="objectBoundingBox">
      <stop offset="0" stop-color="#fff"/>
      <stop offset="1" stop-color="#d2e6ee"/>
    </linearGradient>
  </defs>
  <g id="Grupo_41952" data-name="Grupo 41952" transform="translate(-23.909 -73.611)">
    <g id="Grupo_41936" data-name="Grupo 41936" transform="translate(33.078 138.275)">
      <path id="Trazado_95342" data-name="Trazado 95342" d="M303.922,312.67c-61.322,35.406-160.745,35.406-222.068,0s-61.324-92.805,0-128.211,160.746-35.4,222.068,0S365.244,277.264,303.922,312.67Z" transform="translate(-35.861 -157.905)" fill="none" stroke="#e8e8e8" stroke-linecap="round" stroke-linejoin="round" stroke-width="1"/>
      <path id="Trazado_95343" data-name="Trazado 95343" d="M290.688,305.03c-48.515,28.013-127.174,28.013-175.691,0s-48.517-73.424,0-101.435,127.176-28.011,175.691,0S339.2,277.019,290.688,305.03Z" transform="translate(-45.816 -163.653)" fill="none" stroke="#e8e8e8" stroke-linecap="round" stroke-linejoin="round" stroke-width="2"/>
      <path id="Trazado_95344" data-name="Trazado 95344" d="M278.147,297.789c-36.379,21-95.36,21-131.74,0s-36.379-55.055,0-76.06,95.361-21,131.74,0S314.526,276.785,278.147,297.789Z" transform="translate(-55.251 -169.1)" fill="none" stroke="#e8e8e8" stroke-linecap="round" stroke-linejoin="round" stroke-width="3"/>
      <path id="Trazado_95345" data-name="Trazado 95345" d="M266.992,291.351c-25.584,14.77-67.064,14.77-92.649,0s-25.586-38.721,0-53.492,67.066-14.772,92.649,0S292.578,276.578,266.992,291.351Z" transform="translate(-63.641 -173.945)" fill="none" stroke="#e8e8e8" stroke-linecap="round" stroke-linejoin="round" stroke-width="4"/>
      <path id="Trazado_95346" data-name="Trazado 95346" d="M256.593,285.345c-15.52,8.961-40.683,8.961-56.2,0s-15.52-23.489,0-32.449,40.684-8.961,56.2,0S272.113,276.385,256.593,285.345Z" transform="translate(-71.465 -178.461)" fill="none" stroke="#e8e8e8" stroke-linecap="round" stroke-linejoin="round" stroke-width="5"/>
    </g>
    <path id="Trazado_95347" data-name="Trazado 95347" d="M310.1,204.9l22.606-13.051a16.566,16.566,0,0,1,14.989,0l9.729,5.9,78.52,45.335c4.14,2.389,4.139,6.264,0,8.652L367.372,291.33" transform="translate(-66.648 -27.118)" fill="none" stroke="#00223d" stroke-linecap="round" stroke-linejoin="round" stroke-width="3"/>
    <path id="Trazado_95348" data-name="Trazado 95348" d="M118.68,178.71l43.915-25.354a16.568,16.568,0,0,1,14.987,0l9.73,5.9L236.93,187.9" transform="translate(-22.07 -18.154)" fill="none" stroke="#00223d" stroke-linecap="round" stroke-linejoin="round" stroke-width="3"/>
    <path id="Trazado_95349" data-name="Trazado 95349" d="M106.085,323.9l-67.637-39.05c-4.139-2.39-4.139-6.265,0-8.654l73.217-42.272" transform="translate(-2.663 -37.334)" fill="none" stroke="#00223d" stroke-linecap="round" stroke-linejoin="round" stroke-width="3"/>
    <line id="Línea_335" data-name="Línea 335" x1="52.14" y2="30.833" transform="translate(96.61 246.743)" fill="none" stroke="#00223d" stroke-linecap="round" stroke-linejoin="round" stroke-width="3"/>
    <line id="Línea_336" data-name="Línea 336" x1="86.178" y2="50.044" transform="translate(148.908 190.677)" fill="none" stroke="#00223d" stroke-linecap="round" stroke-linejoin="round" stroke-width="3"/>
    <path id="Trazado_95350" data-name="Trazado 95350" d="M281.925,351.661l-79.8,46.073a16.569,16.569,0,0,1-14.988,0l-63.5-36.662" transform="translate(-23.224 -64.751)" fill="none" stroke="#00223d" stroke-linecap="round" stroke-linejoin="round" stroke-width="3"/>
    <path id="Trazado_95351" data-name="Trazado 95351" d="M319.83,210.889l-67.683-39.076a1.262,1.262,0,0,0-1.264,0l-31.27,18.053a1.264,1.264,0,0,0,0,2.189L287.3,231.131a1.258,1.258,0,0,0,1.264,0l31.27-18.053a1.264,1.264,0,0,0,0-2.189Z" transform="translate(-45.428 -22.829)" opacity="0.2" style="mix-blend-mode: multiply;isolation: isolate"/>
    <g id="Grupo_41938" data-name="Grupo 41938" transform="translate(174.817 73.611)">
      <path id="Trazado_95352" data-name="Trazado 95352" d="M340.128,200.242l-31.27,18.053V142.26l31.27-18.054Z" transform="translate(-241.176 -85.393)" fill="url(#linear-gradient)"/>
      <path id="Trazado_95353" data-name="Trazado 95353" d="M340.128,143.131l-31.27,18.053V159.3l31.27-18.054Z" transform="translate(-241.176 -89.361)" fill="#00223d"/>
      <path id="Trazado_95354" data-name="Trazado 95354" d="M340.128,163.171l-31.27,18.054v-1.887l31.27-18.054Z" transform="translate(-241.176 -94.028)" fill="#00223d"/>
      <path id="Trazado_95355" data-name="Trazado 95355" d="M340.128,183.212l-31.27,18.054v-1.887l31.27-18.054Z" transform="translate(-241.176 -98.695)" fill="#00223d"/>
      <path id="Trazado_95356" data-name="Trazado 95356" d="M340.128,203.253l-31.27,18.054V219.42l31.27-18.054Z" transform="translate(-241.176 -103.362)" fill="#00223d"/>
      <path id="Trazado_95357" data-name="Trazado 95357" d="M330.741,223.2a4.764,4.764,0,0,1-2.156,3.733c-1.191.687-2.156.131-2.156-1.244a4.763,4.763,0,0,1,2.156-3.733C329.776,221.267,330.742,221.823,330.741,223.2Z" transform="translate(-245.268 -108.088)" fill="#00223d"/>
      <g id="Grupo_41937" data-name="Grupo 41937" transform="translate(72.921 108.511)">
        <path id="Trazado_95358" data-name="Trazado 95358" d="M317.842,228.157a4.768,4.768,0,0,0-2.156,3.733c0,1.375.967,1.932,2.156,1.243A4.756,4.756,0,0,0,320,229.4C320,228.027,319.034,227.469,317.842,228.157Z" transform="translate(-315.686 -218.043)" fill="#37a3a5"/>
        <path id="Trazado_95359" data-name="Trazado 95359" d="M340.012,215.356a4.771,4.771,0,0,0-2.156,3.734c0,1.374.967,1.932,2.156,1.244a4.763,4.763,0,0,0,2.156-3.734C342.168,215.226,341.2,214.67,340.012,215.356Z" transform="translate(-320.849 -215.062)" fill="#37a3a5"/>
      </g>
      <path id="Trazado_95360" data-name="Trazado 95360" d="M288.311,211.913l-67.682-39.076V96.8l67.682,39.076Z" transform="translate(-220.629 -79.012)" fill="url(#linear-gradient)"/>
      <path id="Trazado_95361" data-name="Trazado 95361" d="M288.311,130.741,220.629,91.665,251.9,73.611l67.682,39.077Z" transform="translate(-220.629 -73.611)" fill="#d2e1f1"/>
      <path id="Trazado_95362" data-name="Trazado 95362" d="M288.311,154.8l-67.682-39.076V113.84l67.682,39.077Z" transform="translate(-220.629 -82.979)" fill="#21587b"/>
      <path id="Trazado_95363" data-name="Trazado 95363" d="M288.312,174.844l-67.682-39.076V133.88l67.682,39.076Z" transform="translate(-220.629 -87.646)" fill="#21587b"/>
      <path id="Trazado_95364" data-name="Trazado 95364" d="M288.312,194.884l-67.682-39.076v-1.887L288.312,193Z" transform="translate(-220.629 -92.313)" fill="#21587b"/>
      <path id="Trazado_95365" data-name="Trazado 95365" d="M288.311,214.925l-67.682-39.077v-1.887l67.682,39.076Z" transform="translate(-220.629 -96.98)" fill="#21587b"/>
    </g>
    <path id="Trazado_95366" data-name="Trazado 95366" d="M251.685,311.681l-63.139-36.453a6.705,6.705,0,0,0-6.205,0l-37.223,21.491a2.783,2.783,0,0,0,0,5.1l63.138,36.454a6.7,6.7,0,0,0,6.2,0l37.224-21.492a2.783,2.783,0,0,0,0-5.1Z" transform="translate(-27.838 -46.775)" opacity="0.2" style="mix-blend-mode: multiply;isolation: isolate"/>
    <g id="Grupo_41939" data-name="Grupo 41939" transform="translate(116.927 224.943)">
      <path id="Trazado_95367" data-name="Trazado 95367" d="M252.437,309.588v-.245a1.708,1.708,0,0,0-1.01-1.423l-63.138-36.453a5.4,5.4,0,0,0-4.889,0l-37.223,21.49a1.714,1.714,0,0,0-1.011,1.423v.532a.175.175,0,0,0,0,.02V295a.188.188,0,0,0,0,.021v.953a.173.173,0,0,0,0,.02V297.7a1.71,1.71,0,0,0,1.011,1.422l63.138,36.453a5.408,5.408,0,0,0,4.889,0l37.223-21.491a1.709,1.709,0,0,0,1.01-1.422v-3.077Z" transform="translate(-145.165 -270.883)" fill="#00223d"/>
      <path id="Trazado_95368" data-name="Trazado 95368" d="M251.427,307.921c1.35.779,1.349,2.043,0,2.823L214.2,332.234a5.4,5.4,0,0,1-4.889,0l-63.138-36.451c-1.35-.78-1.349-2.044,0-2.825l37.223-21.49a5.4,5.4,0,0,1,4.889,0Z" transform="translate(-145.164 -270.883)" fill="url(#linear-gradient)"/>
      <path id="Trazado_95369" data-name="Trazado 95369" d="M240.012,306.4a1.179,1.179,0,0,1,0,2.234l-29.463,17.013a4.286,4.286,0,0,1-3.87,0l-46.7-26.963a1.179,1.179,0,0,1,0-2.234l29.464-17.012a4.274,4.274,0,0,1,3.87,0Z" transform="translate(-148.427 -272.767)" fill="#00223d"/>
      <path id="Trazado_95370" data-name="Trazado 95370" d="M238.318,306.864c1.014.585,1.036,1.523.048,2.094L211.11,324.693a4.011,4.011,0,0,1-3.626-.025l-44.313-25.586c-1.015-.586-1.034-1.522-.046-2.093l27.254-15.736a4.011,4.011,0,0,1,3.627.027Z" transform="translate(-149.177 -273.2)" fill="#a6e4ff"/>
      <path id="Trazado_95371" data-name="Trazado 95371" d="M163.171,300.19l4.464,2.577q8.581-8.584,17.151-17.177L163.125,298.1C162.137,298.668,162.156,299.6,163.171,300.19Z" transform="translate(-149.177 -274.308)" fill="#bfecff"/>
      <path id="Trazado_95372" data-name="Trazado 95372" d="M226.125,298.376l-8.077-4.663Q206.761,305,195.476,316.286l8.076,4.663Z" transform="translate(-156.881 -276.2)" fill="#bfecff"/>
      <path id="Trazado_95373" data-name="Trazado 95373" d="M222.676,331.05l21.978-21.977-4.541-2.621L217.54,329.024l2.785,1.609A3.977,3.977,0,0,0,222.676,331.05Z" transform="translate(-162.019 -279.166)" fill="#bfecff"/>
      <path id="Trazado_95374" data-name="Trazado 95374" d="M205.771,286.617l-2.48-1.432q-11.253,11.311-22.531,22.6l2.439,1.408Q194.486,297.9,205.771,286.617Z" transform="translate(-153.454 -274.214)" fill="#bfecff"/>
      <path id="Trazado_95375" data-name="Trazado 95375" d="M180.225,283.645a.657.657,0,0,1,0,1.246l-10.8,6.235a2.394,2.394,0,0,1-2.161,0h0a.658.658,0,0,1,0-1.247l10.8-6.234a2.382,2.382,0,0,1,2.16,0Z" transform="translate(-150.207 -273.795)" fill="#00223d"/>
      <path id="Trazado_95376" data-name="Trazado 95376" d="M254.067,329.879c1.855,1.072,1.855,2.808,0,3.88a7.433,7.433,0,0,1-6.719,0c-1.855-1.072-1.855-2.808,0-3.879A7.43,7.43,0,0,1,254.067,329.879Z" transform="translate(-168.637 -284.435)" fill="#fff"/>
      <path id="Trazado_95377" data-name="Trazado 95377" d="M253.338,330.934a1.269,1.269,0,0,1,0,2.4,4.6,4.6,0,0,1-4.163,0,1.269,1.269,0,0,1,0-2.4A4.609,4.609,0,0,1,253.338,330.934Z" transform="translate(-169.185 -284.752)" fill="#66797a"/>
      <path id="Trazado_95378" data-name="Trazado 95378" d="M240.876,337.188a.513.513,0,0,1,0,.971L232,343.284a1.854,1.854,0,0,1-1.679,0h0a.511.511,0,0,1,0-.968l8.878-5.127a1.857,1.857,0,0,1,1.68,0Z" transform="translate(-164.914 -286.277)" fill="#00223d"/>
      <path id="Trazado_95379" data-name="Trazado 95379" d="M270.566,320.046a.513.513,0,0,1,0,.97l-8.877,5.126a1.865,1.865,0,0,1-1.682,0h0a.511.511,0,0,1,0-.969l8.879-5.127a1.857,1.857,0,0,1,1.68,0Z" transform="translate(-171.828 -282.285)" fill="#00223d"/>
    </g>
    <path id="Trazado_95380" data-name="Trazado 95380" d="M167.03,188.882l-54.366-31.388a10.511,10.511,0,0,0-5.106-1.353,6.8,6.8,0,0,0-3.394.8L25.921,202.119a3.777,3.777,0,0,0-2.012,3.292c0,1.633,1.079,3.193,2.962,4.281l54.366,31.387a10.506,10.506,0,0,0,5.105,1.353,6.8,6.8,0,0,0,3.395-.806l78.242-45.172a3.776,3.776,0,0,0,2.013-3.292C169.991,191.528,168.912,189.969,167.03,188.882Z" transform="translate(0 -19.219)" opacity="0.2" style="mix-blend-mode: multiply;isolation: isolate"/>
    <g id="Grupo_41940" data-name="Grupo 41940" transform="translate(26.217 135.227)">
      <path id="Trazado_95381" data-name="Trazado 95381" d="M168.381,190.21c0-.009,0-.018,0-.027s0-.019,0-.028,0-.018,0-.028,0-.019,0-.028,0-.019,0-.029,0-.018,0-.027v-.028c0-.009,0-.019,0-.028s0-.019,0-.028,0-.018,0-.028,0-.019,0-.029,0-.018,0-.028,0-.019,0-.028,0-.019,0-.028,0-.018,0-.028,0-.018,0-.028,0-.02,0-.028,0-.019,0-.028,0-.018,0-.028,0-.019,0-.03,0-.019,0-.028,0-.018,0-.026v-.029c0-.009,0-.019,0-.028s0-.019,0-.028,0-.019,0-.028,0-.019,0-.029,0-.018,0-.028,0-.019,0-.028,0-.019,0-.028,0-.018,0-.028,0-.018,0-.028,0-.018,0-.028,0-.019,0-.028,0-.019,0-.028,0-.018,0-.028,0-.018,0-.028,0-.018,0-.028,0-.019,0-.028,0-.019,0-.028,0-.018,0-.025,0-.022,0-.034,0-.017,0-.025,0-.019,0-.028,0-.019,0-.028,0-.019,0-.028,0-.019,0-.028,0-.019,0-.028,0-.019,0-.029,0-.018,0-.028,0-.036,0-.054c.058-.775-.57-1.669-1.805-2.383L112.21,154.976c-1.972-1.138-4.745-1.384-6.192-.549L27.776,199.6a1.515,1.515,0,0,0-.855,1.22c0,.028,0,.058,0,.086,0,.011,0,.021,0,.031s0,.018,0,.028,0,.018,0,.028,0,.019,0,.028,0,.019,0,.028,0,.019,0,.028,0,.019,0,.029,0,.018,0,.026,0,.02,0,.029,0,.019,0,.028,0,.019,0,.028,0,.019,0,.028,0,.018,0,.028,0,.019,0,.028,0,.019,0,.028,0,.019,0,.028,0,.019,0,.028,0,.019,0,.028,0,.019,0,.029,0,.018,0,.028,0,.02,0,.029,0,.018,0,.027,0,.019,0,.029,0,.018,0,.028,0,.019,0,.028,0,.019,0,.028,0,.018,0,.028,0,.02,0,.029,0,.019,0,.028,0,.019,0,.028,0,.019,0,.028,0,.02,0,.029,0,.018,0,.028,0,.018,0,.028,0,.018,0,.028,0,.019,0,.029,0,.018,0,.028,0,.019,0,.028,0,.018,0,.028,0,.018,0,.028,0,.018,0,.029,0,.018,0,.025,0,.02,0,.03,0,.019,0,.028,0,.018,0,.028,0,.019,0,.028,0,.019,0,.028,0,.019,0,.029,0,.019,0,.028,0,.018,0,.027,0,.019,0,.028,0,.019,0,.028,0,.019,0,.028,0,.018,0,.028,0,.019,0,.028,0,.018,0,.028,0,.02,0,.028,0,.019,0,.028,0,.019,0,.028,0,.019,0,.028,0,.019,0,.029,0,.018,0,.028,0,.018,0,.028,0,.019,0,.028,0,.018,0,.029,0,.018,0,.028,0,.018,0,.027,0,.02,0,.03,0,.019,0,.028,0,.018,0,.027,0,.018,0,.029,0,.018,0,.028,0,.019,0,.028,0,.019,0,.028,0,.019,0,.028,0,.019,0,.028,0,.018,0,.028,0,.019,0,.028,0,.019,0,.028,0,.019,0,.028,0,.018,0,.028,0,.018,0,.028,0,.018,0,.028,0,.018,0,.028,0,.019,0,.028,0,.019,0,.028,0,.018,0,.028,0,.019,0,.029,0,.018,0,.028,0,.019,0,.028,0,.019,0,.028,0,.018,0,.028,0,.019,0,.028,0,.018,0,.028,0,.019,0,.028,0,.018,0,.028,0,.019,0,.028,0,.018,0,.028,0,.018,0,.028,0,.018,0,.028,0,.018,0,.028,0,.019,0,.028,0,.018,0,.028,0,.018,0,.028,0,.02,0,.028,0,.019,0,.028,0,.019,0,.028,0,.018,0,.028,0,.019,0,.028,0,.019,0,.028,0,.019,0,.028,0,.019,0,.028,0,.018,0,.028,0,.019,0,.028,0,.018,0,.028,0,.019,0,.029,0,.018,0,.028,0,.018,0,.028,0,.018,0,.028,0,.019,0,.028,0,.02,0,.028,0,.019,0,.028,0,.019,0,.028,0,.019,0,.028,0,.019,0,.028,0,.019,0,.029,0,.018,0,.028,0,.019,0,.028,0,.018,0,.028,0,.019,0,.029,0,.018,0,.028,0,.018,0,.028,0,.018,0,.028,0,.018,0,.028,0,.018,0,.028,0,.018,0,.028,0,.02,0,.028,0,.019,0,.028,0,.019,0,.028,0,.019,0,.028,0,.019,0,.028,0,.019,0,.028,0,.019,0,.028,0,.018,0,.028,0,.018,0,.028,0,.018,0,.028,0,.02,0,.029c-.057.773.571,1.666,1.8,2.379l54.366,31.388c1.972,1.138,4.744,1.384,6.192.549L167.525,194.2a1.516,1.516,0,0,0,.855-1.224c0-.009,0-.019,0-.028s0-.019,0-.028,0-.019,0-.029,0-.019,0-.028,0-.018,0-.027,0-.019,0-.029,0-.018,0-.028,0-.02,0-.028,0-.019,0-.028,0-.019,0-.028,0-.018,0-.028,0-.018,0-.028,0-.018,0-.028,0-.019,0-.029,0-.018,0-.028,0-.019,0-.028,0-.019,0-.028,0-.019,0-.029,0-.018,0-.028,0-.018,0-.028,0-.019,0-.028,0-.018,0-.028,0-.018,0-.028,0-.019,0-.028,0-.019,0-.028,0-.019,0-.028,0-.019,0-.028,0-.018,0-.028,0-.018,0-.028,0-.019,0-.029,0-.018,0-.028,0-.019,0-.028,0-.019,0-.028,0-.018,0-.028,0-.019,0-.029,0-.018,0-.028,0-.019,0-.028,0-.018,0-.028,0-.018,0-.028,0-.018,0-.028,0-.019,0-.028,0-.019,0-.028,0-.019,0-.028,0-.018,0-.028,0-.018,0-.028,0-.018,0-.028,0-.019,0-.028,0-.019,0-.028,0-.018,0-.028,0-.019,0-.028,0-.018,0-.028,0-.019,0-.029,0-.018,0-.028,0-.019,0-.028,0-.019,0-.028,0-.018,0-.028,0-.018,0-.028,0-.019,0-.028,0-.019,0-.028,0-.018,0-.028,0-.018,0-.028,0-.018,0-.028,0-.019,0-.028,0-.019,0-.028,0-.019,0-.028,0-.019,0-.028,0-.019,0-.028,0-.019,0-.028,0-.019,0-.028,0-.018,0-.028,0-.019,0-.028,0-.018,0-.028,0-.019,0-.028,0-.019,0-.028,0-.019,0-.028,0-.019,0-.028,0-.018,0-.027,0-.02,0-.031,0-.018,0-.028,0-.018,0-.028,0-.018,0-.027,0-.021,0-.03,0-.019,0-.029,0-.018,0-.026,0-.019,0-.029,0-.018,0-.028,0-.019,0-.029,0-.018,0-.028,0-.019,0-.028,0-.019,0-.028,0-.018,0-.028,0-.018,0-.028,0-.018,0-.028,0-.019,0-.028,0-.019,0-.029,0-.018,0-.028,0-.018,0-.028S168.381,190.22,168.381,190.21Z" transform="translate(-26.917 -153.932)" fill="#00223d"/>
      <path id="Trazado_95382" data-name="Trazado 95382" d="M89.283,235.112c-1.448.836-4.221.59-6.192-.549L28.725,203.177c-1.972-1.139-2.4-2.739-.949-3.576l78.242-45.174c1.448-.835,4.221-.59,6.192.549l54.365,31.387c1.972,1.139,2.4,2.739.95,3.576Z" transform="translate(-26.917 -153.932)" fill="url(#linear-gradient)"/>
      <path id="Trazado_95383" data-name="Trazado 95383" d="M101.338,228.68c-1.339.773-3.855.574-5.62-.444l-48.652-28.09c-1.764-1.019-2.109-2.471-.769-3.245l60.482-34.919c1.339-.773,3.856-.575,5.62.444l48.653,28.09c1.764,1.018,2.109,2.471.77,3.244Z" transform="translate(-31.24 -155.697)" fill="#00223d"/>
      <path id="Trazado_95384" data-name="Trazado 95384" d="M101.859,227.254a5.91,5.91,0,0,1-5.257-.377l-45-25.985c-1.632-.942-1.925-2.3-.654-3.035l57.491-33.192a5.909,5.909,0,0,1,5.256.378l45,25.983c1.632.942,1.925,2.3.655,3.035Z" transform="translate(-32.328 -156.325)" fill="#1e2729"/>
      <path id="Trazado_95385" data-name="Trazado 95385" d="M51.6,209.268l.472.272,9.365-9.364-10.491,6.057C49.672,206.967,49.966,208.326,51.6,209.268Z" transform="translate(-32.328 -164.701)" fill="#2b383b"/>
      <path id="Trazado_95386" data-name="Trazado 95386" d="M113.942,164.237a4.545,4.545,0,0,0-2.571.43L93.327,175.084,62.766,205.646l6.191,3.575Z" transform="translate(-35.265 -156.326)" fill="#2b383b"/>
      <path id="Trazado_95387" data-name="Trazado 95387" d="M147.586,181.7l-7.179-4.146L94.951,223.007l7.18,4.145Z" transform="translate(-42.761 -159.432)" fill="#2b383b"/>
      <path id="Trazado_95388" data-name="Trazado 95388" d="M166.08,192.227l-5.945-3.432-44.612,44.612a3.793,3.793,0,0,0,1.56-.428l19.507-11.262Z" transform="translate(-47.551 -162.051)" fill="#2b383b"/>
      <path id="Trazado_95389" data-name="Trazado 95389" d="M189.1,199.154l-.08-.046q-4.145,4.147-8.293,8.293l9.027-5.212C191.029,201.455,190.736,200.1,189.1,199.154Z" transform="translate(-62.737 -164.452)" fill="#2b383b"/>
      <path id="Trazado_95390" data-name="Trazado 95390" d="M129.387,171.19l-2.982-1.721L80.951,214.924l2.981,1.721Z" transform="translate(-39.5 -157.55)" fill="#2b383b"/>
      <path id="Trazado_95391" data-name="Trazado 95391" d="M173.746,181.049a2.556,2.556,0,0,1-2.316,0l-11.579-6.685a.706.706,0,0,1,0-1.337h0a2.559,2.559,0,0,1,2.316,0l11.579,6.686a.705.705,0,0,1,0,1.336Z" transform="translate(-57.763 -158.314)" fill="#324245"/>
      <path id="Trazado_95392" data-name="Trazado 95392" d="M74.227,235.463a7.965,7.965,0,0,1-7.2,0c-1.991-1.148-1.991-3.012,0-4.16a7.962,7.962,0,0,1,7.2,0C76.216,232.451,76.216,234.314,74.227,235.463Z" transform="translate(-35.909 -171.749)" fill="#00223d"/>
      <path id="Trazado_95393" data-name="Trazado 95393" d="M73.444,235.011a4.937,4.937,0,0,1-4.464,0,1.361,1.361,0,0,1,0-2.578,4.93,4.93,0,0,1,4.463,0A1.361,1.361,0,0,1,73.444,235.011Z" transform="translate(-36.497 -172.089)" fill="#4b6366"/>
      <path id="Trazado_95394" data-name="Trazado 95394" d="M58.14,226.176a1.992,1.992,0,0,1-1.8,0l-15.665-9.043c-.677-.391-.822-.94-.325-1.228h0a2.414,2.414,0,0,1,2.127.188l15.665,9.044a.549.549,0,0,1,0,1.04Z" transform="translate(-29.976 -168.324)" fill="#00223d"/>
      <path id="Trazado_95395" data-name="Trazado 95395" d="M98.389,249.412a2.413,2.413,0,0,1-2.127-.187L80.6,240.18a.549.549,0,0,1,0-1.039h0a1.993,1.993,0,0,1,1.8,0l15.664,9.044c.678.391.824.941.327,1.227Z" transform="translate(-39.331 -173.725)" fill="#00223d"/>
    </g>
    <path id="Trazado_95396" data-name="Trazado 95396" d="M424.765,330.712l-34.913-20.156a9.274,9.274,0,0,0-8.559,0l-85.832,49.556a3.675,3.675,0,0,0,0,6.761l34.913,20.157a9.276,9.276,0,0,0,8.56,0l85.832-49.556a3.674,3.674,0,0,0,0-6.762Z" transform="translate(-62.718 -54.935)" opacity="0.2" style="mix-blend-mode: multiply;isolation: isolate"/>
    <path id="Trazado_95397" data-name="Trazado 95397" d="M185.836,398.3a9.071,9.071,0,0,1-8.208,0c-2.267-1.308-2.267-3.43,0-4.739a9.066,9.066,0,0,1,8.208,0C188.1,394.874,188.1,397,185.836,398.3Z" transform="translate(-35.402 -74.281)" fill="#00223d"/>
    <path id="Trazado_95398" data-name="Trazado 95398" d="M77.623,322a9.071,9.071,0,0,1-8.208,0c-2.267-1.308-2.267-3.43,0-4.738a9.061,9.061,0,0,1,8.208,0C79.89,318.574,79.89,320.7,77.623,322Z" transform="translate(-10.201 -56.513)" fill="#00223d"/>
    <path id="Trazado_95399" data-name="Trazado 95399" d="M146.433,325.59a9.071,9.071,0,0,1-8.208,0c-2.268-1.308-2.268-3.431,0-4.739a9.066,9.066,0,0,1,8.208,0C148.7,322.16,148.7,324.282,146.433,325.59Z" transform="translate(-26.225 -57.348)" fill="#00223d"/>
    <path id="Trazado_95400" data-name="Trazado 95400" d="M258.777,251.78a9.07,9.07,0,0,1-8.207,0c-2.268-1.309-2.268-3.431,0-4.739a9.065,9.065,0,0,1,8.207,0C261.044,248.35,261.044,250.471,258.777,251.78Z" transform="translate(-52.388 -40.159)" fill="#00223d"/>
    <path id="Trazado_95401" data-name="Trazado 95401" d="M412.136,223a9.071,9.071,0,0,1-8.208,0c-2.266-1.308-2.266-3.43,0-4.739a9.066,9.066,0,0,1,8.208,0C414.4,219.566,414.4,221.687,412.136,223Z" transform="translate(-88.102 -33.456)" fill="#00223d"/>
    <path id="Trazado_95402" data-name="Trazado 95402" d="M180.254,155.284a9.073,9.073,0,0,1-8.209,0c-2.267-1.308-2.267-3.43,0-4.739a9.073,9.073,0,0,1,8.209,0C182.521,151.854,182.521,153.976,180.254,155.284Z" transform="translate(-34.102 -17.688)" fill="#00223d"/>
    <path id="Trazado_95403" data-name="Trazado 95403" d="M147.482,370.2l-42.763-24.688a8.733,8.733,0,0,0-8.045,0L53.911,370.2a3.344,3.344,0,0,0,0,6.171l42.764,24.691a8.733,8.733,0,0,0,8.043,0l42.763-24.691a3.346,3.346,0,0,0,0-6.173Z" transform="translate(-6.508 -63.091)" opacity="0.2" style="mix-blend-mode: multiply;isolation: isolate"/>
    <g id="Grupo_41943" data-name="Grupo 41943" transform="translate(46.672 245.345)">
      <path id="Trazado_95404" data-name="Trazado 95404" d="M99.706,391.577l-42.764-24.69a6.792,6.792,0,0,1-2.274-2.34,2.78,2.78,0,0,1-1.086.318v8.659a7.432,7.432,0,0,0,3.36,5.82l42.764,24.69c1.856,1.071,3.36-.323,3.36-2.465V389.637C103.066,391.779,101.562,392.648,99.706,391.577Z" transform="translate(-53.582 -313.097)" fill="url(#linear-gradient)"/>
      <path id="Trazado_95405" data-name="Trazado 95405" d="M162.416,364.935h-.921a6.9,6.9,0,0,1-2.413,2.575l-42.765,23.212c-1.856,1.071-3.36,1.682-3.36-.462v11.923c0,2.143,1.5,3.01,3.36,1.94l42.764-24.69a7.43,7.43,0,0,0,3.361-5.82v-8.682Z" transform="translate(-67.409 -313.187)" fill="#e1eef2"/>
      <path id="Trazado_95406" data-name="Trazado 95406" d="M157.529,380.352l-35.376,20.424v-6.29l35.375-20.425Z" transform="translate(-69.551 -315.313)" fill="#00223d"/>
      <g id="Grupo_41941" data-name="Grupo 41941" transform="translate(53.773 60.376)">
        <path id="Trazado_95407" data-name="Trazado 95407" d="M123.678,404.173l.954-.55.074.743,1.387-.8.074-.83.955-.551V398.21l-3.444,1.988Z" transform="translate(-123.678 -381.312)" fill="url(#linear-gradient)"/>
        <path id="Trazado_95408" data-name="Trazado 95408" d="M130.037,400.5l.955-.551.074.745,1.386-.8.074-.829.954-.551V394.54l-3.443,1.986Z" transform="translate(-125.159 -380.458)" fill="url(#linear-gradient)"/>
        <path id="Trazado_95409" data-name="Trazado 95409" d="M136.4,396.832l.954-.551.075.744,1.386-.8.074-.83.955-.551v-3.976l-3.443,1.987Z" transform="translate(-126.64 -379.603)" fill="url(#linear-gradient)"/>
        <path id="Trazado_95410" data-name="Trazado 95410" d="M142.754,393.16l.954-.551.075.744,1.386-.8.074-.83.954-.551V387.2l-3.443,1.988Z" transform="translate(-128.12 -378.747)" fill="url(#linear-gradient)"/>
        <path id="Trazado_95411" data-name="Trazado 95411" d="M149.113,389.489l.954-.551.074.745,1.386-.8.074-.83.954-.551v-3.977l-3.443,1.988Z" transform="translate(-129.601 -377.892)" fill="url(#linear-gradient)"/>
        <path id="Trazado_95412" data-name="Trazado 95412" d="M155.471,385.818l.954-.551.074.743,1.387-.8.074-.829.954-.551v-3.976l-3.443,1.987Z" transform="translate(-131.082 -377.038)" fill="url(#linear-gradient)"/>
        <path id="Trazado_95413" data-name="Trazado 95413" d="M161.83,378.17v3.976l.954-.551.073.744,1.387-.8.074-.83.954-.551v-3.976Z" transform="translate(-132.563 -376.183)" fill="url(#linear-gradient)"/>
      </g>
      <path id="Trazado_95414" data-name="Trazado 95414" d="M65.084,333.256l-4.327-16.778c-.116-.448-.725-.7-1.365-.583s-1.122.568-1.072,1.027L60.2,334.147a4.826,4.826,0,0,0,.172.848l3.046,16.7a2.467,2.467,0,0,0,4.854-.886l-3.047-16.7A5,5,0,0,0,65.084,333.256Z" transform="translate(-54.684 -301.761)" fill="url(#linear-gradient)"/>
      <g id="Grupo_41942" data-name="Grupo 41942" transform="translate(5.483 31.331)">
        <path id="Trazado_95415" data-name="Trazado 95415" d="M67.257,339.271a4.911,4.911,0,0,0-.131-.785l-.042-.164Z" transform="translate(-62.21 -338.321)" fill="#cfdade"/>
        <path id="Trazado_95416" data-name="Trazado 95416" d="M68.832,356.268l-1.968-10.787a2.465,2.465,0,0,1-4.857.845l-1.276-6.995.03.28a4.823,4.823,0,0,0,.172.848l3.046,16.7a2.467,2.467,0,0,0,4.854-.886Z" transform="translate(-60.73 -338.556)" fill="#cfdade"/>
      </g>
      <path id="Trazado_95417" data-name="Trazado 95417" d="M76.62,319.731l-5.175-21.424a1.257,1.257,0,0,0-2.437.445l2.726,21.87a7.857,7.857,0,0,0,.214,1.081l3.879,21.26c.313,1.707,1.651,2.893,2.992,2.647s2.174-1.826,1.863-3.533L76.8,320.816A8,8,0,0,0,76.62,319.731Z" transform="translate(-57.172 -297.479)" fill="url(#linear-gradient)"/>
      <path id="Trazado_95418" data-name="Trazado 95418" d="M81.453,348.627l-1.915-10.494a2.674,2.674,0,0,1-1.921,2.807c-1.342.245-2.68-.941-2.991-2.648L72.31,325.608l.195,1.564a7.857,7.857,0,0,0,.214,1.081l3.879,21.26c.313,1.707,1.651,2.893,2.992,2.647S81.764,350.335,81.453,348.627Z" transform="translate(-57.943 -304.029)" fill="#cfdade"/>
      <path id="Trazado_95419" data-name="Trazado 95419" d="M91.082,326.727,86.755,309.95c-.117-.45-.726-.7-1.367-.584s-1.122.568-1.071,1.029l1.878,17.223a4.941,4.941,0,0,0,.172.847l3.046,16.695a2.467,2.467,0,1,0,4.854-.885l-3.047-16.7A4.964,4.964,0,0,0,91.082,326.727Z" transform="translate(-60.739 -300.24)" fill="url(#linear-gradient)"/>
      <path id="Trazado_95420" data-name="Trazado 95420" d="M94.781,349.3l-2.708-14.84a2.461,2.461,0,0,1-4.87.189l-.684-3.746.189,1.741a4.944,4.944,0,0,0,.172.847l3.046,16.695a2.467,2.467,0,1,0,4.854-.885Z" transform="translate(-61.252 -305.262)" fill="#cfdade"/>
      <path id="Trazado_95421" data-name="Trazado 95421" d="M104.458,382.935a7.428,7.428,0,0,1-6.72,0l-42.764-24.69c-1.856-1.072-1.856-2.809,0-3.88l42.765-24.69a7.425,7.425,0,0,1,6.72,0l42.763,24.689c1.857,1.072,1.857,2.808,0,3.881Z" transform="translate(-53.582 -304.789)" fill="url(#linear-gradient)"/>
      <path id="Trazado_95422" data-name="Trazado 95422" d="M105.555,378.81a6.7,6.7,0,0,1-6.056,0L60.972,356.565c-1.672-.965-1.672-2.531,0-3.5L99.5,330.824a6.7,6.7,0,0,1,6.056,0l38.527,22.243c1.672.966,1.672,2.531,0,3.5Z" transform="translate(-55.011 -305.076)" fill="#e1eef2"/>
      <path id="Trazado_95423" data-name="Trazado 95423" d="M60.972,358.084l6.162,3.558Q79.6,349.121,92.088,336.623L60.972,354.587C59.3,355.553,59.3,357.119,60.972,358.084Z" transform="translate(-55.011 -306.595)" fill="#e6f3f7"/>
      <path id="Trazado_95424" data-name="Trazado 95424" d="M119.523,336.789l-5.947-3.434q-16.313,16.314-32.6,32.661l5.907,3.41Z" transform="translate(-59.962 -305.833)" fill="#e6f3f7"/>
      <path id="Trazado_95425" data-name="Trazado 95425" d="M138.866,347.963l-5.949-3.434L100.28,377.165l5.948,3.434Q122.547,364.283,138.866,347.963Z" transform="translate(-64.457 -308.436)" fill="#e6f3f7"/>
      <path id="Trazado_95426" data-name="Trazado 95426" d="M160.652,359.031l-5.763-3.327-24.018,24.018,29.781-17.2C162.325,361.563,162.325,360,160.652,359.031Z" transform="translate(-71.581 -311.038)" fill="#e6f3f7"/>
    </g>
    <g id="Grupo_41945" data-name="Grupo 41945" transform="translate(157.501 131.468)">
      <path id="Trazado_95427" data-name="Trazado 95427" d="M213.5,202.716,198.058,193.8c.035,19.829,6.344,34.929,16.308,42.4l8.823,5.094Z" transform="translate(-198.056 -159.458)" fill="#22979a"/>
      <path id="Trazado_95428" data-name="Trazado 95428" d="M263.261,152.545l-6.085-3.513c-.6.372-1.2.742-1.8,1.09-10.081,5.822-19.512,7.654-27.563,6.028-8.05,10.923-17.48,19.978-27.563,25.8-.735.425-1.466.822-2.193,1.2v.064c0,.054,0,.107,0,.16L213.5,192.29Z" transform="translate(-198.056 -149.032)" fill="#22979a"/>
      <path id="Trazado_95429" data-name="Trazado 95429" d="M252.179,168.611l20.116-16.066-6.085-3.513c-.6.372-1.2.742-1.8,1.09-10.081,5.822-19.512,7.654-27.563,6.028l5.692,3.7Z" transform="translate(-207.089 -149.032)" fill="#22979a"/>
      <path id="Trazado_95430" data-name="Trazado 95430" d="M262.8,154.871c-10.082,5.822-19.512,7.654-27.563,6.029-8.051,10.922-17.481,19.977-27.564,25.8-.735.424-1.466.822-2.193,1.2,0,.021,0,.042,0,.064,0,27.86,12.042,45.126,29.757,47.239,17.715-22.57,29.757-53.741,29.757-81.6v-.063C264.261,154,263.531,154.447,262.8,154.871Z" transform="translate(-199.784 -150.082)" fill="#37a3a5"/>
      <g id="Grupo_41944" data-name="Grupo 41944" transform="translate(16.73 19.221)">
        <path id="Trazado_95431" data-name="Trazado 95431" d="M229.5,207.593l-9.635-5.563c.021,12.376,3.958,21.8,10.177,26.46l5.506,3.179Z" transform="translate(-219.865 -180.595)" fill="#205173"/>
        <path id="Trazado_95432" data-name="Trazado 95432" d="M260.559,176.28l-3.8-2.192c-.373.232-.747.463-1.123.681-6.293,3.632-12.179,4.777-17.2,3.761-5.025,6.817-10.91,12.469-17.2,16.1-.459.265-.915.512-1.369.752v.039c0,.033,0,.066,0,.1l9.635,5.563Z" transform="translate(-219.865 -174.088)" fill="#3d7293"/>
        <path id="Trazado_95433" data-name="Trazado 95433" d="M254.868,185.327,266.2,176.28l-3.8-2.192c-.373.232-.747.463-1.123.681-6.293,3.632-12.179,4.777-17.2,3.761l3.551,2.31Z" transform="translate(-225.503 -174.088)" fill="#21587b"/>
        <path id="Trazado_95434" data-name="Trazado 95434" d="M260.268,177.733c-6.293,3.633-12.177,4.777-17.2,3.763-5.024,6.816-10.909,12.467-17.2,16.1-.458.265-.915.513-1.369.751v.04c0,17.388,7.516,28.163,18.571,29.483,11.057-14.086,18.572-33.54,18.572-50.927V176.9C261.183,177.189,260.728,177.469,260.268,177.733Z" transform="translate(-220.943 -174.744)" fill="#21587b"/>
        <path id="Trazado_95435" data-name="Trazado 95435" d="M248.7,227.87c11.057-14.086,18.572-33.54,18.572-50.927V176.9c-.454.285-.91.565-1.369.829-6.293,3.633-12.177,4.777-17.2,3.763C248.7,181.5,254.283,198.806,248.7,227.87Z" transform="translate(-226.581 -174.744)" fill="#3d7293"/>
      </g>
    </g>
    <g id="Grupo_41951" data-name="Grupo 41951" transform="translate(224.041 184.725)">
      <path id="Trazado_95436" data-name="Trazado 95436" d="M374.72,219.031l-88.248,49.975c-1.929,1.112-1.93,2.917,0,4.03l4.836,3.661c-1.928-1.112-1.928-2.919,0-4.031l85.833-49.557c1.928-1.113,2.813-.375,4.069-1.189,0,0,.722-.222.139-1.444C380.375,218.435,376.648,217.918,374.72,219.031Z" transform="translate(-284.849 -218.457)" fill="#00223d"/>
      <path id="Trazado_95437" data-name="Trazado 95437" d="M289.4,349.617V290.7c0-2.226,1.563-3.13,3.493-2.016l-4.6-3.523c-1.929-1.114-3.492-.212-3.492,2.015v58.92c0,2.228,1.482,5.091,3.492,6.049,3.391,1.616,2.2.407,2.2.407C291.061,352.548,290.536,351.475,289.4,349.617Z" transform="translate(-284.796 -233.878)" fill="#00223d"/>
      <path id="Trazado_95438" data-name="Trazado 95438" d="M383.022,281.524a7.718,7.718,0,0,1-3.493,6.049L293.7,337.129c-1.929,1.113-3.493.212-3.493-2.016V276.191a7.717,7.717,0,0,1,3.493-6.048l85.833-49.556c1.929-1.113,3.493-.21,3.493,2.016Z" transform="translate(-286.055 -218.842)" fill="url(#linear-gradient)"/>
      <path id="Trazado_95439" data-name="Trazado 95439" d="M380.553,281.793a6.958,6.958,0,0,1-3.227,5.4l-79.276,45.77c-1.78,1.028-3.227.278-3.224-1.678l0-51.719a6.967,6.967,0,0,1,3.227-5.4l79.278-45.77c1.78-1.029,3.225-.278,3.225,1.677Z" transform="translate(-287.131 -220.664)" fill="#1e2729"/>
      <path id="Trazado_95440" data-name="Trazado 95440" d="M298.912,287.718l-.641.37a6.878,6.878,0,0,0-2.5,2.77Z" transform="translate(-287.352 -234.586)" fill="#2b383b"/>
      <path id="Trazado_95441" data-name="Trazado 95441" d="M294.827,295.121v10.348q29.995-30,59.988-59.989L330.33,259.617Z" transform="translate(-287.132 -224.75)" fill="#2b383b"/>
      <path id="Trazado_95442" data-name="Trazado 95442" d="M380.554,230.982v-.539a3,3,0,0,0-.131-.916q-42.8,42.8-85.6,85.6v1.585Z" transform="translate(-287.132 -221.035)" fill="#2b383b"/>
      <path id="Trazado_95443" data-name="Trazado 95443" d="M295.461,333.948a5.362,5.362,0,0,1-.634.536v1.674a2.059,2.059,0,0,0,.924,1.945q42.4-42.4,84.8-84.8v-4.448Z" transform="translate(-287.132 -225.536)" fill="#2b383b"/>
      <path id="Trazado_95444" data-name="Trazado 95444" d="M389.678,277.016v-4.93l-55.67,55.669,11.665-6.735Q367.676,299.019,389.678,277.016Z" transform="translate(-296.256 -230.946)" fill="#2b383b"/>
      <g id="Grupo_41950" data-name="Grupo 41950" transform="translate(8.093 66.698)">
        <path id="Trazado_95445" data-name="Trazado 95445" d="M425.969,332.134v-3.71a2.45,2.45,0,0,0-1.447-2.031l-34.911-20.156a7.717,7.717,0,0,0-6.985,0l-85.834,49.557a2.44,2.44,0,0,0-1.444,2.029v4.122a2.444,2.444,0,0,0,1.444,2.03L331.7,384.132a7.722,7.722,0,0,0,6.985,0l85.833-49.556a2.447,2.447,0,0,0,1.447-2.031v-.41Z" transform="translate(-295.346 -305.402)" fill="#00223d"/>
        <path id="Trazado_95446" data-name="Trazado 95446" d="M424.522,326.394c1.93,1.114,1.93,2.92,0,4.033l-85.833,49.555a7.717,7.717,0,0,1-6.985,0l-34.913-20.155c-1.929-1.114-1.929-2.92,0-4.032l85.834-49.557a7.717,7.717,0,0,1,6.985,0Z" transform="translate(-295.346 -305.402)" fill="url(#linear-gradient)"/>
        <path id="Trazado_95447" data-name="Trazado 95447" d="M315.209,372.766a.425.425,0,0,1,0,.805l-5.089,2.937a1.536,1.536,0,0,1-1.4,0l-5.087-2.937a.425.425,0,0,1,0-.806l5.087-2.937a1.536,1.536,0,0,1,1.4,0Z" transform="translate(-297.209 -320.366)" fill="#00223d"/>
        <g id="Grupo_41946" data-name="Grupo 41946" transform="translate(19.669 4.371)">
          <path id="Trazado_95448" data-name="Trazado 95448" d="M326.364,359.643l-5.088,2.937a.425.425,0,0,0,0,.806l5.088,2.937a1.539,1.539,0,0,0,1.4,0l5.088-2.937a.426.426,0,0,0,0-.807l-5.088-2.937A1.54,1.54,0,0,0,326.364,359.643Z" transform="translate(-320.986 -322.366)" fill="#00223d"/>
          <path id="Trazado_95449" data-name="Trazado 95449" d="M336.838,353.6l-5.088,2.938a.425.425,0,0,0,0,.806l5.087,2.938a1.546,1.546,0,0,0,1.4,0l5.087-2.938a.425.425,0,0,0,0-.806l-5.087-2.938A1.539,1.539,0,0,0,336.838,353.6Z" transform="translate(-323.425 -320.958)" fill="#00223d"/>
          <path id="Trazado_95450" data-name="Trazado 95450" d="M347.312,347.549l-5.088,2.937a.425.425,0,0,0,0,.805l5.088,2.939a1.541,1.541,0,0,0,1.4,0l5.088-2.939a.425.425,0,0,0,0-.805l-5.088-2.937A1.545,1.545,0,0,0,347.312,347.549Z" transform="translate(-325.864 -319.55)" fill="#00223d"/>
          <path id="Trazado_95451" data-name="Trazado 95451" d="M357.786,341.5,352.7,344.44a.427.427,0,0,0,0,.808l5.088,2.936a1.546,1.546,0,0,0,1.4,0l5.088-2.936a.427.427,0,0,0,0-.808l-5.088-2.937A1.539,1.539,0,0,0,357.786,341.5Z" transform="translate(-328.304 -318.142)" fill="#00223d"/>
          <path id="Trazado_95452" data-name="Trazado 95452" d="M368.26,335.455l-5.088,2.938a.425.425,0,0,0,0,.805l5.088,2.938a1.548,1.548,0,0,0,1.4,0l5.088-2.938a.425.425,0,0,0,0-.805l-5.089-2.939A1.541,1.541,0,0,0,368.26,335.455Z" transform="translate(-330.743 -316.733)" fill="#00223d"/>
          <path id="Trazado_95453" data-name="Trazado 95453" d="M378.733,329.408l-5.088,2.937a.426.426,0,0,0,0,.806l5.088,2.937a1.536,1.536,0,0,0,1.4,0l5.087-2.937a.425.425,0,0,0,0-.806l-5.087-2.937A1.546,1.546,0,0,0,378.733,329.408Z" transform="translate(-333.182 -315.325)" fill="#00223d"/>
          <path id="Trazado_95454" data-name="Trazado 95454" d="M389.207,323.36l-5.088,2.938a.426.426,0,0,0,0,.807l5.088,2.936a1.545,1.545,0,0,0,1.4,0l5.088-2.936a.426.426,0,0,0,0-.807L390.6,323.36A1.546,1.546,0,0,0,389.207,323.36Z" transform="translate(-335.621 -313.917)" fill="#00223d"/>
          <path id="Trazado_95455" data-name="Trazado 95455" d="M399.68,317.313l-5.088,2.937a.426.426,0,0,0,0,.806L399.68,324a1.545,1.545,0,0,0,1.4,0l5.089-2.939a.426.426,0,0,0,0-.806l-5.089-2.937A1.543,1.543,0,0,0,399.68,317.313Z" transform="translate(-338.06 -312.508)" fill="#00223d"/>
          <path id="Trazado_95456" data-name="Trazado 95456" d="M410.154,311.267l-5.088,2.937a.425.425,0,0,0,0,.806l5.088,2.938a1.55,1.55,0,0,0,1.4,0l5.088-2.938a.426.426,0,0,0,0-.806l-5.088-2.937A1.545,1.545,0,0,0,410.154,311.267Z" transform="translate(-340.499 -311.101)" fill="#00223d"/>
        </g>
        <g id="Grupo_41947" data-name="Grupo 41947" transform="translate(14.035 9.131)">
          <path id="Trazado_95457" data-name="Trazado 95457" d="M332.9,365.849,313.931,376.8a.426.426,0,0,0,0,.807l5.087,2.938a1.547,1.547,0,0,0,1.4,0l18.968-10.953a.425.425,0,0,0,0-.806l-5.087-2.938A1.545,1.545,0,0,0,332.9,365.849Z" transform="translate(-313.642 -328.571)" fill="#00223d"/>
          <path id="Trazado_95458" data-name="Trazado 95458" d="M347.588,359.8,342.5,362.74a.426.426,0,0,0,0,.806l5.088,2.936a1.535,1.535,0,0,0,1.4,0l5.086-2.936a.425.425,0,0,0,0-.806l-5.086-2.938A1.548,1.548,0,0,0,347.588,359.8Z" transform="translate(-320.295 -327.163)" fill="#00223d"/>
          <path id="Trazado_95459" data-name="Trazado 95459" d="M358.061,353.755l-5.088,2.938a.425.425,0,0,0,0,.805l5.088,2.94a1.545,1.545,0,0,0,1.4,0l5.086-2.94a.425.425,0,0,0,0-.805l-5.086-2.938A1.55,1.55,0,0,0,358.061,353.755Z" transform="translate(-322.734 -325.755)" fill="#00223d"/>
          <path id="Trazado_95460" data-name="Trazado 95460" d="M368.534,347.709l-5.088,2.937a.425.425,0,0,0,0,.806l5.088,2.938a1.544,1.544,0,0,0,1.4,0l5.088-2.938a.425.425,0,0,0,0-.806l-5.087-2.937A1.538,1.538,0,0,0,368.534,347.709Z" transform="translate(-325.173 -324.346)" fill="#00223d"/>
          <path id="Trazado_95461" data-name="Trazado 95461" d="M379.009,341.662l-5.088,2.937a.426.426,0,0,0,0,.807l5.088,2.937a1.544,1.544,0,0,0,1.4,0l5.088-2.937a.426.426,0,0,0,0-.807l-5.088-2.937A1.539,1.539,0,0,0,379.009,341.662Z" transform="translate(-327.612 -322.938)" fill="#00223d"/>
          <path id="Trazado_95462" data-name="Trazado 95462" d="M389.482,335.614l-5.088,2.937a.426.426,0,0,0,0,.806l5.088,2.938a1.547,1.547,0,0,0,1.4,0l5.087-2.937a.426.426,0,0,0,0-.807l-5.087-2.937A1.545,1.545,0,0,0,389.482,335.614Z" transform="translate(-330.051 -321.53)" fill="#00223d"/>
          <path id="Trazado_95463" data-name="Trazado 95463" d="M399.957,329.567l-5.088,2.938a.426.426,0,0,0,0,.806l5.088,2.937a1.544,1.544,0,0,0,1.4,0l5.089-2.937a.426.426,0,0,0,0-.806l-5.089-2.938A1.539,1.539,0,0,0,399.957,329.567Z" transform="translate(-332.49 -320.122)" fill="#00223d"/>
          <path id="Trazado_95464" data-name="Trazado 95464" d="M410.431,323.52l-5.088,2.937a.427.427,0,0,0,0,.807l5.088,2.937a1.544,1.544,0,0,0,1.4,0l5.088-2.937a.425.425,0,0,0,0-.806l-5.088-2.937A1.544,1.544,0,0,0,410.431,323.52Z" transform="translate(-334.93 -318.714)" fill="#00223d"/>
          <path id="Trazado_95465" data-name="Trazado 95465" d="M420.9,317.472l-5.087,2.938a.425.425,0,0,0,0,.806l5.087,2.937a1.534,1.534,0,0,0,1.4,0l5.088-2.937a.425.425,0,0,0,0-.806l-5.088-2.938A1.541,1.541,0,0,0,420.9,317.472Z" transform="translate(-337.368 -317.305)" fill="#00223d"/>
        </g>
        <g id="Grupo_41948" data-name="Grupo 41948" transform="translate(31.195 19.038)">
          <path id="Trazado_95466" data-name="Trazado 95466" d="M355.269,378.764,336.3,389.716a.426.426,0,0,0,0,.806l5.088,2.939a1.542,1.542,0,0,0,1.4,0l18.97-10.953a.425.425,0,0,0,0-.806l-5.088-2.937A1.538,1.538,0,0,0,355.269,378.764Z" transform="translate(-336.01 -341.486)" fill="#00223d"/>
          <path id="Trazado_95467" data-name="Trazado 95467" d="M369.956,372.717l-5.088,2.938a.425.425,0,0,0,0,.806l5.088,2.938a1.545,1.545,0,0,0,1.4,0l5.088-2.938a.425.425,0,0,0,0-.806l-5.089-2.938A1.545,1.545,0,0,0,369.956,372.717Z" transform="translate(-342.663 -340.078)" fill="#00223d"/>
          <path id="Trazado_95468" data-name="Trazado 95468" d="M404.533,348.529l-29.192,16.854a.426.426,0,0,0,0,.806l5.088,2.937a1.544,1.544,0,0,0,1.4,0l29.192-16.854a.426.426,0,0,0,0-.807l-5.088-2.937A1.541,1.541,0,0,0,404.533,348.529Z" transform="translate(-345.103 -334.445)" fill="#00223d"/>
          <path id="Trazado_95469" data-name="Trazado 95469" d="M422.325,342.481l-5.088,2.937a.426.426,0,0,0,0,.807l5.088,2.937a1.536,1.536,0,0,0,1.395,0l5.089-2.937a.427.427,0,0,0,0-.807l-5.089-2.937A1.541,1.541,0,0,0,422.325,342.481Z" transform="translate(-354.859 -333.036)" fill="#00223d"/>
          <path id="Trazado_95470" data-name="Trazado 95470" d="M440.832,330.387l-13.121,7.576a.426.426,0,0,0,0,.807l5.088,2.937a1.539,1.539,0,0,0,1.4,0l13.122-7.575a.425.425,0,0,0,0-.806l-5.088-2.939A1.544,1.544,0,0,0,440.832,330.387Z" transform="translate(-357.298 -330.22)" fill="#00223d"/>
        </g>
        <g id="Grupo_41949" data-name="Grupo 41949" transform="translate(22.508 14.024)">
          <path id="Trazado_95471" data-name="Trazado 95471" d="M335.861,378.31,324.975,384.6a.425.425,0,0,0,0,.805l5.089,2.938a1.541,1.541,0,0,0,1.4,0l10.883-6.285a.426.426,0,0,0,0-.807l-5.087-2.937A1.548,1.548,0,0,0,335.861,378.31Z" transform="translate(-324.686 -336.366)" fill="#00223d"/>
          <path id="Trazado_95472" data-name="Trazado 95472" d="M358.633,366.18l-5.087,2.937a.425.425,0,0,0,0,.805l5.087,2.938a1.545,1.545,0,0,0,1.4,0l5.088-2.938a.425.425,0,0,0,0-.805l-5.088-2.937A1.541,1.541,0,0,0,358.633,366.18Z" transform="translate(-331.339 -333.541)" fill="#00223d"/>
          <path id="Trazado_95473" data-name="Trazado 95473" d="M348.159,372.226l-5.087,2.937a.425.425,0,0,0,0,.806l5.087,2.938a1.544,1.544,0,0,0,1.4,0l5.088-2.938a.426.426,0,0,0,0-.806l-5.089-2.937A1.539,1.539,0,0,0,348.159,372.226Z" transform="translate(-328.9 -334.949)" fill="#00223d"/>
          <path id="Trazado_95474" data-name="Trazado 95474" d="M369.106,360.133l-5.088,2.937a.426.426,0,0,0,0,.807l5.088,2.937a1.547,1.547,0,0,0,1.4,0l5.087-2.937a.426.426,0,0,0,0-.807l-5.087-2.937A1.547,1.547,0,0,0,369.106,360.133Z" transform="translate(-333.778 -332.133)" fill="#00223d"/>
          <path id="Trazado_95475" data-name="Trazado 95475" d="M379.58,354.085l-5.087,2.938a.425.425,0,0,0,0,.806l5.088,2.937a1.539,1.539,0,0,0,1.4,0l5.087-2.937a.425.425,0,0,0,0-.806l-5.087-2.938A1.547,1.547,0,0,0,379.58,354.085Z" transform="translate(-336.217 -330.724)" fill="#00223d"/>
          <path id="Trazado_95476" data-name="Trazado 95476" d="M390.054,348.038l-5.088,2.938a.426.426,0,0,0,0,.807l5.088,2.937a1.544,1.544,0,0,0,1.4,0l5.089-2.937a.426.426,0,0,0,0-.807l-5.087-2.938A1.549,1.549,0,0,0,390.054,348.038Z" transform="translate(-338.656 -329.316)" fill="#00223d"/>
          <path id="Trazado_95477" data-name="Trazado 95477" d="M400.528,341.991l-5.088,2.937a.426.426,0,0,0,0,.807l5.088,2.937a1.539,1.539,0,0,0,1.4,0l5.088-2.937a.426.426,0,0,0,0-.807l-5.088-2.937A1.544,1.544,0,0,0,400.528,341.991Z" transform="translate(-341.095 -327.908)" fill="#00223d"/>
          <path id="Trazado_95478" data-name="Trazado 95478" d="M411,335.944l-5.089,2.937a.425.425,0,0,0,0,.806L411,342.626a1.545,1.545,0,0,0,1.4,0l5.087-2.938a.425.425,0,0,0,0-.806l-5.087-2.937A1.541,1.541,0,0,0,411,335.944Z" transform="translate(-343.534 -326.499)" fill="#00223d"/>
          <path id="Trazado_95479" data-name="Trazado 95479" d="M421.476,329.9l-5.088,2.937a.426.426,0,0,0,0,.806l5.088,2.938a1.545,1.545,0,0,0,1.4,0l5.087-2.937a.425.425,0,0,0,0-.806l-5.087-2.937A1.545,1.545,0,0,0,421.476,329.9Z" transform="translate(-345.974 -325.091)" fill="#00223d"/>
          <path id="Trazado_95480" data-name="Trazado 95480" d="M431.95,323.85l-5.088,2.937a.426.426,0,0,0,0,.806l5.088,2.938a1.539,1.539,0,0,0,1.4,0l5.089-2.938a.426.426,0,0,0,0-.806l-5.089-2.937A1.542,1.542,0,0,0,431.95,323.85Z" transform="translate(-348.413 -323.683)" fill="#00223d"/>
        </g>
      </g>
    </g>
  </g>
</svg>
