<svg xmlns="http://www.w3.org/2000/svg" width="286.813" height="150.924" viewBox="0 0 286.813 150.924">
  <g id="Grupo_41976" data-name="Grupo 41976" transform="translate(-848 -9231.646)">
    <g id="Grupo_41975" data-name="Grupo 41975" transform="translate(-350.586 9508.244)">
      <path id="Trazado_95530" data-name="Trazado 95530" d="M1967.7,129.389c-1.883-.277-3.789-.45-5.646-.847-12.494-2.67-20.627-13.469-20.075-26.585a25.3,25.3,0,0,1,22.074-23.8c12-1.648,22.879,3.739,27.791,13.919,7.745,16.054-2.076,35.636-21.385,37.047-.55.04-1.092.176-1.638.268Zm.359-12.717a13.128,13.128,0,1,0-12.938-13.317A12.873,12.873,0,0,0,1968.057,116.672Z" transform="translate(-534.913 -255.064)" fill="#00223d"/>
      <path id="Trazado_95531" data-name="Trazado 95531" d="M1606.113,129.453c-2.177-.194-4.357-.35-6.528-.593-2.035-.227-4.061-.547-6.172-.837V116.8c2.438.455,4.8.966,7.184,1.323a23.414,23.414,0,0,0,9.179-.138,9.327,9.327,0,0,0,3.153-1.4,3.353,3.353,0,0,0,.375-5.252,13.973,13.973,0,0,0-3.923-2.308c-2.443-1.027-5.044-1.693-7.447-2.8-4.891-2.245-8.219-5.851-8.642-11.453-.6-7.994,3.671-13.859,11.462-15.976,5.092-1.384,14.22-1.026,19.127.771V89.817a61.329,61.329,0,0,0-6.316-1.087c-2.308-.166-4.642.027-6.964.089a3.308,3.308,0,0,0-.942.248c-1.6.55-3.086,1.281-3.292,3.2-.219,2.047,1.048,3.256,2.738,3.941,2.283.926,4.655,1.633,6.974,2.474a24.575,24.575,0,0,1,3.084,1.3c5.2,2.739,8.267,6.862,8.225,12.929-.044,6.264-2.824,10.881-8.425,13.747a24.551,24.551,0,0,1-9.394,2.5c-.689.054-1.371.19-2.057.288Z" transform="translate(-283.984 -255.128)" fill="#00223d"/>
      <path id="Trazado_95532" data-name="Trazado 95532" d="M1316.743,129.407c-2.651-.471-5.363-.723-7.942-1.448-11.679-3.284-18.9-14.321-17.952-26.414,1.08-13.737,11.962-23.556,25.9-23.657a39.023,39.023,0,0,1,10.915,1.428c.629.177,1.077.335,1.069,1.161-.04,4.008-.018,8.017-.018,12.247l-1.573-.641c-4.523-1.847-9.141-2.615-13.91-1.064-5.908,1.921-9.279,7.228-8.843,13.81a12.863,12.863,0,0,0,10.63,11.746,21.252,21.252,0,0,0,12.3-1.606c.416-.176.835-.343,1.4-.573,0,4.246.021,8.337-.042,12.426-.005.314-.562.821-.933.9-2.5.515-5.025.947-7.545,1.385-.773.135-1.557.2-2.336.3Z" transform="translate(-66.331 -255.082)" fill="#00223d"/>
      <path id="Trazado_95533" data-name="Trazado 95533" d="M1784.9,129.414a75.733,75.733,0,0,1-7.659-1.419c-12.5-3.621-19.29-14.852-17.9-27.594,1.432-13.149,12.151-22.251,25.383-22.5a35.5,35.5,0,0,1,11.184,1.441c.44.135,1.051.722,1.058,1.109.072,3.915.036,7.832.022,11.749,0,.122-.084.243-.039.122-2.8-.681-5.509-1.555-8.285-1.97-7.207-1.078-13.6,2.865-15.444,9.308a13.244,13.244,0,0,0,12.745,17.214,24.2,24.2,0,0,0,10.906-2.422,6.3,6.3,0,0,1,.141.884c.008,3.684-.013,7.368.022,11.051.008.837-.231,1.292-1.106,1.434-2.525.407-5.04.873-7.562,1.3-.775.13-1.561.2-2.341.294Z" transform="translate(-403.377 -255.089)" fill="#00223d"/>
      <path id="Trazado_95534" data-name="Trazado 95534" d="M1198.586-126.7c.18-.421.365-.839.539-1.262a6.135,6.135,0,0,1,6.8-3.733,5.893,5.893,0,0,1,4.991,5.583q.155,6.92.009,13.845a5.892,5.892,0,0,1-5.024,5.7,6.158,6.158,0,0,1-6.9-4c-.126-.342-.277-.674-.417-1.01Z" transform="translate(0 -104.211)" fill="#00223d"/>
      <path id="Trazado_95535" data-name="Trazado 95535" d="M1932.826-237.468c0-10.959-.019-21.918.012-32.878a6.054,6.054,0,0,1,7.258-6.137,6.108,6.108,0,0,1,5.026,6.309q.013,23.224,0,46.449c0,6.482.025,12.965-.016,19.447a6.136,6.136,0,0,1-5.533,6.034,6.156,6.156,0,0,1-6.544-4.55,10.21,10.21,0,0,1-.2-2.495Q1932.814-221.379,1932.826-237.468Z" transform="translate(-528.344 -0.022)" fill="#00223d"/>
      <path id="Trazado_95536" data-name="Trazado 95536" d="M1455.8-237.357q0,16.229,0,32.458c0,3.449-1.753,5.766-4.8,6.473a6.158,6.158,0,0,1-7.491-5.589c-.015-.232-.011-.466-.011-.7q0-32.738,0-65.476a6.144,6.144,0,0,1,7.4-6.3c2.914.5,4.9,3.038,4.9,6.4Q1455.821-253.725,1455.8-237.357Z" transform="translate(-176.23)" fill="#00223d"/>
      <path id="Trazado_95537" data-name="Trazado 95537" d="M1500.871,81.418v1.751q0,22.929,0,45.857c0,1.858,0,1.86-1.92,1.861q-4.408,0-8.816,0c-.5,0-1-.046-1.574-.074V81.418Z" transform="translate(-208.662 -257.623)" fill="#00223d"/>
      <path id="Trazado_95538" data-name="Trazado 95538" d="M1810.255-171.976c0-4.892-.035-9.783.01-14.675.044-4.719,4.4-7.748,8.567-5.973a5.946,5.946,0,0,1,3.8,5.839c.04,9.969.07,19.939-.014,29.908a6.021,6.021,0,0,1-6.308,6.224c-3.518-.076-6.027-2.743-6.048-6.509C1810.234-162.1,1810.255-167.037,1810.255-171.976Z" transform="translate(-440.138 -60.058)" fill="#00223d"/>
      <path id="Trazado_95539" data-name="Trazado 95539" d="M1565.8-171.809c0-4.9-.029-9.8.01-14.694.026-3.28,1.847-5.688,4.664-6.333,4.135-.946,7.671,1.964,7.682,6.392.023,9.563.008,19.126.008,28.689,0,.28,0,.56,0,.84a6.15,6.15,0,0,1-6.083,6.353,6.028,6.028,0,0,1-6.257-6.272c-.074-4.99-.018-9.982-.018-14.974Z" transform="translate(-264.23 -60.146)" fill="#00223d"/>
      <path id="Trazado_95540" data-name="Trazado 95540" d="M2067.25-171.782c0,4.992.072,9.984-.021,14.974a6.082,6.082,0,0,1-8.386,5.762,5.81,5.81,0,0,1-3.9-5.628q-.1-15.184,0-30.368a6.133,6.133,0,0,1,6.1-6.076,6.063,6.063,0,0,1,6.187,6.082c.09,5.083.023,10.169.023,15.254Z" transform="translate(-616.185 -60.071)" fill="#00223d"/>
      <path id="Trazado_95541" data-name="Trazado 95541" d="M1321.275-171.863c0-5.131-.049-10.263.02-15.393a5.856,5.856,0,0,1,4.076-5.473,5.8,5.8,0,0,1,6.676,1.864,7.488,7.488,0,0,1,1.466,3.947c.12,10.075.1,20.152.048,30.228a6.055,6.055,0,0,1-6.192,6.076,5.959,5.959,0,0,1-6.086-5.994c-.078-5.084-.02-10.169-.02-15.254Z" transform="translate(-88.262 -60.091)" fill="#00223d"/>
      <path id="Trazado_95542" data-name="Trazado 95542" d="M1688.018-119.433c0-2.189-.048-4.38.011-6.567a6.2,6.2,0,0,1,6.246-6.174,6.148,6.148,0,0,1,6.074,6.2q.094,6.565,0,13.134a6.179,6.179,0,0,1-6.1,6.188,6.227,6.227,0,0,1-6.222-6.211C1687.971-115.054,1688.018-117.244,1688.018-119.433Z" transform="translate(-352.175 -103.925)" fill="#00223d"/>
      <path id="Trazado_95543" data-name="Trazado 95543" d="M2189.75-119.023c0,2.19.065,4.382-.016,6.568a6.082,6.082,0,0,1-5.145,5.921,6.025,6.025,0,0,1-6.848-4.224,7.934,7.934,0,0,1-.268-2.2q-.037-6.15-.006-12.3c.025-3.877,2.531-6.482,6.161-6.469,3.577.013,6.1,2.7,6.126,6.556.016,2.05,0,4.1,0,6.15Z" transform="translate(-704.377 -104.247)" fill="#00223d"/>
      <path id="Trazado_95544" data-name="Trazado 95544" d="M2198.522,234.19c.832-.279,1.224.1,1.49.921.452,1.39,1.014,2.744,1.565,4.208,1.34-1.707.867-4.259,3.167-5.519v6.669l-.461.019v-4.667l-.5-.089c-.471,1.271-.911,2.555-1.433,3.8a4.125,4.125,0,0,1-.824.959,4.863,4.863,0,0,1-.679-.955c-.5-1.249-.939-2.52-1.4-3.783l-.4.016v4.7l-.525-.024Z" transform="translate(-719.539 -367.275)" fill="#00223d"/>
      <path id="Trazado_95545" data-name="Trazado 95545" d="M2182.208,235.481l-2.648.295v5.52l-.535.011v-5.542l-2.5-.235C2177.451,234.812,2180.725,234.75,2182.208,235.481Z" transform="translate(-703.711 -368.111)" fill="#00223d"/>
    </g>
  </g>
</svg>
