<svg xmlns="http://www.w3.org/2000/svg" width="80" height="79" viewBox="0 0 80 79">
  <g id="Icon" transform="translate(0.496 -0.238)">
    <ellipse id="Base" cx="40" cy="39.5" rx="40" ry="39.5" transform="translate(-0.496 0.238)" fill="#fff"/>
    <g id="Grupo_37719" data-name="Grupo 37719" transform="translate(-1000.58 -698.307)">
      <path id="Trazado_69039" data-name="Trazado 69039" d="M1047.294,876.074c0-.386-.007-.716,0-1.045q.079-3.325.166-6.651c.016-.586.08-1.17.092-1.756q.054-2.686.077-5.372a.573.573,0,0,0-.179-.343,2.2,2.2,0,1,1,3.419-2.718,2.179,2.179,0,0,1-.306,2.684.653.653,0,0,0-.209.533c.048,1.654.087,3.307.13,4.961q.12,4.653.242,9.305c0,.116.013.232.023.4h.769a2.268,2.268,0,0,1,2.376,2.375q.005,3.266,0,6.533a2.249,2.249,0,0,1-2.367,2.346h-25.875a2.25,2.25,0,0,1-2.38-2.364q-.006-3.25,0-6.5a2.271,2.271,0,0,1,2.395-2.389h21.626Zm-8.7,9.932c4.247,0,8.494-.011,12.741.01a1.092,1.092,0,0,0,1.247-1.261c-.037-2.091-.011-4.183-.013-6.274a.96.96,0,0,0-1.088-1.08q-12.9,0-25.8,0a.954.954,0,0,0-1.074,1.061q0,3.249,0,6.5a1.266,1.266,0,0,0,.105.524.985.985,0,0,0,1.011.524Q1032.157,886,1038.592,886.005Zm10.447-24.176-.065-.013c0,.051-.012.1-.014.154q-.084,3.081-.166,6.161c-.066,2.526-.127,5.052-.2,7.577-.008.27.042.384.341.371.474-.022.478,0,.469-.366-.037-1.493-.083-2.985-.113-4.478-.029-1.465-.037-2.931-.067-4.4-.011-.531-.069-1.061-.087-1.592C1049.1,864.107,1049.07,862.968,1049.038,861.829Zm.828-2.484a.857.857,0,0,0-.838-.867.863.863,0,1,0-.042,1.726A.857.857,0,0,0,1049.866,859.345Z" transform="translate(0 -132.959)" fill="#00223d"/>
      <path id="Trazado_69040" data-name="Trazado 69040" d="M1239.61,726.286a13.338,13.338,0,0,1,.757-4.052,12.275,12.275,0,0,1,6.024-6.986,1.223,1.223,0,0,1,.571-.161.583.583,0,0,1,.561.49.625.625,0,0,1-.315.736c-.35.2-.714.385-1.056.6a10.645,10.645,0,0,0-3.807,4.105,12.217,12.217,0,0,0-.668,1.5,10.858,10.858,0,0,0,.044,7.707c.048.13.1.257.15.388a.664.664,0,0,1-.344.858.632.632,0,0,1-.872-.363,17.016,17.016,0,0,1-.7-2.223C1239.779,728.028,1239.721,727.151,1239.61,726.286Z" transform="translate(-202.482 0)" fill="#37a3a5"/>
      <path id="Trazado_69041" data-name="Trazado 69041" d="M1297.33,767.206l.225.068a2.271,2.271,0,0,1,.793-1.429,8.511,8.511,0,0,1,2.407-1.724.653.653,0,0,1,.975.551.722.722,0,0,1-.486.685,7.107,7.107,0,0,0-2.216,1.708,7.471,7.471,0,0,0-1.416,7.806c.028.08.066.157.094.238a.654.654,0,0,1-.357.875.632.632,0,0,1-.863-.379,15.779,15.779,0,0,1-.6-2.116,7.8,7.8,0,0,1,.211-3.736,5.166,5.166,0,0,1,1.141-2.343A.665.665,0,0,0,1297.33,767.206Z" transform="translate(-255.026 -45.822)" fill="#37a3a5"/>
      <path id="Trazado_69042" data-name="Trazado 69042" d="M1351.137,818.069a5.35,5.35,0,0,1,3-4.818.671.671,0,0,1,1.049.374.624.624,0,0,1-.291.717c-.153.1-.321.17-.475.264a4.036,4.036,0,0,0-1.641,5c.183.457.122.776-.186.968a.662.662,0,0,1-.982-.323A5.188,5.188,0,0,1,1351.137,818.069Z" transform="translate(-306.865 -91.771)" fill="#37a3a5"/>
      <path id="Trazado_69044" data-name="Trazado 69044" d="M1419.03,930.1c.032,1.139.058,2.279.1,3.417.018.531.076,1.061.087,1.592.03,1.465.038,2.931.067,4.4.03,1.493.076,2.985.113,4.478.009.363.005.344-.469.366-.3.014-.349-.1-.341-.371.074-2.525.135-5.051.2-7.577q.081-3.081.166-6.161c0-.051.009-.1.014-.154Z" transform="translate(-369.991 -201.227)" fill="#fff"/>
      <path id="Trazado_69046" data-name="Trazado 69046" d="M1068.487,1215.169a1.728,1.728,0,0,1,1.729-1.756,1.742,1.742,0,1,1-1.729,1.756Zm1.806-.426a.418.418,0,0,0-.474.412.39.39,0,0,0,.4.41.407.407,0,0,0,.431-.413A.393.393,0,0,0,1070.293,1214.743Z" transform="translate(-42.32 -466.408)" fill="#00223d"/>
      <path id="Trazado_69047" data-name="Trazado 69047" d="M1140.372,1213.344a1.791,1.791,0,0,1,1.741,1.72,1.712,1.712,0,0,1-1.719,1.763,1.742,1.742,0,1,1-.023-3.483Zm.047,2.153a.4.4,0,0,0,.371-.413.416.416,0,0,0-.831,0A.425.425,0,0,0,1140.42,1215.5Z" transform="translate(-107.969 -466.339)" fill="#00223d"/>
    </g>
  </g>
</svg>
